<svg width="450" height="205" viewBox="0 0 450 205" fill="none" xmlns="http://www.w3.org/2000/svg">
<g clip-path="url(#clip0_5913_18501)">
<rect x="0.743652" width="449" height="205" rx="10" fill="#14113E"/>
<g opacity="0.1">
<path d="M190.331 54.2244V6.26562" stroke="#80D6EC" stroke-width="2.21454" stroke-miterlimit="10" stroke-linecap="round" stroke-linejoin="round"/>
<path d="M198.236 55.2772V-4.5376" stroke="#80D6EC" stroke-width="2.21454" stroke-miterlimit="10" stroke-linecap="round" stroke-linejoin="round"/>
<path d="M206.142 53.1697V-11.1257" stroke="#80D6EC" stroke-width="2.21454" stroke-miterlimit="10" stroke-linecap="round" stroke-linejoin="round"/>
<path d="M214.047 55.2772V-25.6174" stroke="#80D6EC" stroke-width="2.21454" stroke-miterlimit="10" stroke-linecap="round" stroke-linejoin="round"/>
<path d="M221.952 55.2772V-19.2933" stroke="#80D6EC" stroke-width="2.21454" stroke-miterlimit="10" stroke-linecap="round" stroke-linejoin="round"/>
<path d="M229.857 54.2243V-11.1257" stroke="#80D6EC" stroke-width="2.21454" stroke-miterlimit="10" stroke-linecap="round" stroke-linejoin="round"/>
<path d="M237.762 55.2773V-0.585022" stroke="#80D6EC" stroke-width="2.21454" stroke-miterlimit="10" stroke-linecap="round" stroke-linejoin="round"/>
<path d="M245.667 53.1698V6.26562" stroke="#80D6EC" stroke-width="2.21454" stroke-miterlimit="10" stroke-linecap="round" stroke-linejoin="round"/>
<path d="M253.572 51.0623V14.83" stroke="#80D6EC" stroke-width="2.21454" stroke-miterlimit="10" stroke-linecap="round" stroke-linejoin="round"/>
<path d="M261.477 54.2242V23.3943" stroke="#80D6EC" stroke-width="2.21454" stroke-miterlimit="10" stroke-linecap="round" stroke-linejoin="round"/>
<path d="M261.477 152.512V200.469" stroke="#80D6EC" stroke-width="2.21454" stroke-miterlimit="10" stroke-linecap="round" stroke-linejoin="round"/>
<path d="M253.572 151.459V211.273" stroke="#80D6EC" stroke-width="2.21454" stroke-miterlimit="10" stroke-linecap="round" stroke-linejoin="round"/>
<path d="M245.667 153.566V217.86" stroke="#80D6EC" stroke-width="2.21454" stroke-miterlimit="10" stroke-linecap="round" stroke-linejoin="round"/>
<path d="M237.762 151.459V232.353" stroke="#80D6EC" stroke-width="2.21454" stroke-miterlimit="10" stroke-linecap="round" stroke-linejoin="round"/>
<path d="M229.857 151.459V226.029" stroke="#80D6EC" stroke-width="2.21454" stroke-miterlimit="10" stroke-linecap="round" stroke-linejoin="round"/>
<path d="M221.952 152.512V217.86" stroke="#80D6EC" stroke-width="2.21454" stroke-miterlimit="10" stroke-linecap="round" stroke-linejoin="round"/>
<path d="M214.047 151.459V207.321" stroke="#80D6EC" stroke-width="2.21454" stroke-miterlimit="10" stroke-linecap="round" stroke-linejoin="round"/>
<path d="M206.142 153.566V200.469" stroke="#80D6EC" stroke-width="2.21454" stroke-miterlimit="10" stroke-linecap="round" stroke-linejoin="round"/>
<path d="M198.236 155.674V191.906" stroke="#80D6EC" stroke-width="2.21454" stroke-miterlimit="10" stroke-linecap="round" stroke-linejoin="round"/>
<path d="M190.331 152.512V183.342" stroke="#80D6EC" stroke-width="2.21454" stroke-miterlimit="10" stroke-linecap="round" stroke-linejoin="round"/>
<path d="M273.335 67.1349H362.663" stroke="#80D6EC" stroke-width="2.21454" stroke-miterlimit="10" stroke-linecap="round" stroke-linejoin="round"/>
<path d="M273.335 75.04H375.048" stroke="#80D6EC" stroke-width="2.21454" stroke-miterlimit="10" stroke-linecap="round" stroke-linejoin="round"/>
<path d="M273.335 82.9451H385.85" stroke="#80D6EC" stroke-width="2.21454" stroke-miterlimit="10" stroke-linecap="round" stroke-linejoin="round"/>
<path d="M273.335 90.8502H395.864" stroke="#80D6EC" stroke-width="2.21454" stroke-miterlimit="10" stroke-linecap="round" stroke-linejoin="round"/>
<path d="M273.335 98.7554H385.85" stroke="#80D6EC" stroke-width="2.21454" stroke-miterlimit="10" stroke-linecap="round" stroke-linejoin="round"/>
<path d="M274.916 106.66H375.049" stroke="#80D6EC" stroke-width="2.21454" stroke-miterlimit="10" stroke-linecap="round" stroke-linejoin="round"/>
<path d="M274.916 114.567H362.663" stroke="#80D6EC" stroke-width="2.21454" stroke-miterlimit="10" stroke-linecap="round" stroke-linejoin="round"/>
<path d="M275.969 122.472H353.439" stroke="#80D6EC" stroke-width="2.21454" stroke-miterlimit="10" stroke-linecap="round" stroke-linejoin="round"/>
<path d="M274.916 130.377H343.953" stroke="#80D6EC" stroke-width="2.21454" stroke-miterlimit="10" stroke-linecap="round" stroke-linejoin="round"/>
<path d="M273.335 138.282H334.6" stroke="#80D6EC" stroke-width="2.21454" stroke-miterlimit="10" stroke-linecap="round" stroke-linejoin="round"/>
<path d="M177.683 138.282H88.355" stroke="#80D6EC" stroke-width="2.21454" stroke-miterlimit="10" stroke-linecap="round" stroke-linejoin="round"/>
<path d="M177.683 130.377H75.9697" stroke="#80D6EC" stroke-width="2.21454" stroke-miterlimit="10" stroke-linecap="round" stroke-linejoin="round"/>
<path d="M177.683 122.472H65.1665" stroke="#80D6EC" stroke-width="2.21454" stroke-miterlimit="10" stroke-linecap="round" stroke-linejoin="round"/>
<path d="M177.683 114.567H55.1538" stroke="#80D6EC" stroke-width="2.21454" stroke-miterlimit="10" stroke-linecap="round" stroke-linejoin="round"/>
<path d="M177.683 106.66H65.1665" stroke="#80D6EC" stroke-width="2.21454" stroke-miterlimit="10" stroke-linecap="round" stroke-linejoin="round"/>
<path d="M176.102 98.7554H75.9697" stroke="#80D6EC" stroke-width="2.21454" stroke-miterlimit="10" stroke-linecap="round" stroke-linejoin="round"/>
<path d="M176.102 90.8502H88.355" stroke="#80D6EC" stroke-width="2.21454" stroke-miterlimit="10" stroke-linecap="round" stroke-linejoin="round"/>
<path d="M175.047 82.9451H97.5771" stroke="#80D6EC" stroke-width="2.21454" stroke-miterlimit="10" stroke-linecap="round" stroke-linejoin="round"/>
<path d="M176.102 75.04H107.064" stroke="#80D6EC" stroke-width="2.21454" stroke-miterlimit="10" stroke-linecap="round" stroke-linejoin="round"/>
<path d="M177.684 67.1349H116.419" stroke="#80D6EC" stroke-width="2.21454" stroke-miterlimit="10" stroke-linecap="round" stroke-linejoin="round"/>
<path d="M261.477 23.3943H314.704" stroke="#80D6EC" stroke-width="2.21454" stroke-miterlimit="10" stroke-linecap="round" stroke-linejoin="round"/>
<path d="M253.572 14.83H305.484" stroke="#80D6EC" stroke-width="2.21454" stroke-miterlimit="10" stroke-linecap="round" stroke-linejoin="round"/>
<path d="M245.667 6.26562H295.469" stroke="#80D6EC" stroke-width="2.21454" stroke-miterlimit="10" stroke-linecap="round" stroke-linejoin="round"/>
<path d="M237.762 -0.585022H281.768" stroke="#80D6EC" stroke-width="2.21454" stroke-miterlimit="10" stroke-linecap="round" stroke-linejoin="round"/>
<path d="M190.331 6.26562H151.594" stroke="#80D6EC" stroke-width="2.21454" stroke-miterlimit="10" stroke-linecap="round" stroke-linejoin="round"/>
<path d="M116.412 67.1349V30.2449" stroke="#80D6EC" stroke-width="2.21454" stroke-miterlimit="10" stroke-linecap="round" stroke-linejoin="round"/>
<path d="M107.057 75.04V17.9919" stroke="#80D6EC" stroke-width="2.21454" stroke-miterlimit="10" stroke-linecap="round" stroke-linejoin="round"/>
<path d="M97.5713 82.9451V25.369" stroke="#80D6EC" stroke-width="2.21454" stroke-miterlimit="10" stroke-linecap="round" stroke-linejoin="round"/>
<path d="M88.3551 90.8503L88.3408 36.3082" stroke="#80D6EC" stroke-width="2.21454" stroke-miterlimit="10" stroke-linecap="round" stroke-linejoin="round"/>
<path d="M75.9697 98.7554L75.957 48.6907" stroke="#80D6EC" stroke-width="2.21454" stroke-miterlimit="10" stroke-linecap="round" stroke-linejoin="round"/>
<path d="M65.1602 106.66V59.2297" stroke="#80D6EC" stroke-width="2.21454" stroke-miterlimit="10" stroke-linecap="round" stroke-linejoin="round"/>
<path d="M55.1539 114.567L55.1396 68.8171" stroke="#80D6EC" stroke-width="2.21454" stroke-miterlimit="10" stroke-linecap="round" stroke-linejoin="round"/>
<path d="M65.1602 122.472V167.938" stroke="#80D6EC" stroke-width="2.21454" stroke-miterlimit="10" stroke-linecap="round" stroke-linejoin="round"/>
<path d="M75.9697 130.377L75.957 183.353" stroke="#80D6EC" stroke-width="2.21454" stroke-miterlimit="10" stroke-linecap="round" stroke-linejoin="round"/>
<path d="M88.355 138.282V158.839" stroke="#80D6EC" stroke-width="2.21454" stroke-miterlimit="10" stroke-linecap="round" stroke-linejoin="round"/>
<path d="M190.332 183.348H148.436" stroke="#80D6EC" stroke-width="2.21454" stroke-miterlimit="10" stroke-linecap="round" stroke-linejoin="round"/>
<path d="M198.236 191.906L164.246 191.917" stroke="#80D6EC" stroke-width="2.21454" stroke-miterlimit="10" stroke-linecap="round" stroke-linejoin="round"/>
<path d="M261.477 200.474H310.49" stroke="#80D6EC" stroke-width="2.21454" stroke-miterlimit="10" stroke-linecap="round" stroke-linejoin="round"/>
<path d="M206.142 200.474H182.426" stroke="#80D6EC" stroke-width="2.21454" stroke-miterlimit="10" stroke-linecap="round" stroke-linejoin="round"/>
<path d="M362.663 67.1349V-4.5376" stroke="#80D6EC" stroke-width="2.21454" stroke-miterlimit="10" stroke-linecap="round" stroke-linejoin="round"/>
<path d="M375.048 75.0401V-22.9802" stroke="#80D6EC" stroke-width="2.21454" stroke-miterlimit="10" stroke-linecap="round" stroke-linejoin="round"/>
<path d="M385.85 82.9452V-13.494" stroke="#80D6EC" stroke-width="2.21454" stroke-miterlimit="10" stroke-linecap="round" stroke-linejoin="round"/>
<path d="M395.864 90.8503V29.7169" stroke="#80D6EC" stroke-width="2.21454" stroke-miterlimit="10" stroke-linecap="round" stroke-linejoin="round"/>
<path d="M385.85 98.7554V152.523" stroke="#80D6EC" stroke-width="2.21454" stroke-miterlimit="10" stroke-linecap="round" stroke-linejoin="round"/>
<path d="M375.048 106.66V167.938" stroke="#80D6EC" stroke-width="2.21454" stroke-miterlimit="10" stroke-linecap="round" stroke-linejoin="round"/>
<path d="M362.663 114.567V181.376" stroke="#80D6EC" stroke-width="2.21454" stroke-miterlimit="10" stroke-linecap="round" stroke-linejoin="round"/>
<path d="M353.439 122.472V195.73" stroke="#80D6EC" stroke-width="2.21454" stroke-miterlimit="10" stroke-linecap="round" stroke-linejoin="round"/>
<path d="M343.953 130.377V207.332" stroke="#80D6EC" stroke-width="2.21454" stroke-miterlimit="10" stroke-linecap="round" stroke-linejoin="round"/>
<path d="M334.6 138.282V170.697" stroke="#80D6EC" stroke-width="2.21454" stroke-miterlimit="10" stroke-linecap="round" stroke-linejoin="round"/>
<path d="M116.412 30.2449H151.594" stroke="#80D6EC" stroke-width="2.21454" stroke-miterlimit="10" stroke-linecap="round" stroke-linejoin="round"/>
<path d="M151.594 30.2449V46.5152" stroke="#80D6EC" stroke-width="2.21454" stroke-miterlimit="10" stroke-linecap="round" stroke-linejoin="round"/>
<path d="M151.594 6.26562V21.0213" stroke="#80D6EC" stroke-width="2.21454" stroke-miterlimit="10" stroke-linecap="round" stroke-linejoin="round"/>
<path d="M151.594 21.0212H175.034" stroke="#80D6EC" stroke-width="2.21454" stroke-miterlimit="10" stroke-linecap="round" stroke-linejoin="round"/>
<path d="M314.704 23.3943V38.8093" stroke="#80D6EC" stroke-width="2.21454" stroke-miterlimit="10" stroke-linecap="round" stroke-linejoin="round"/>
<path d="M314.704 38.8093H295.469" stroke="#80D6EC" stroke-width="2.21454" stroke-miterlimit="10" stroke-linecap="round" stroke-linejoin="round"/>
<path d="M349.619 -4.5376V38.8093" stroke="#80D6EC" stroke-width="2.21454" stroke-miterlimit="10" stroke-linecap="round" stroke-linejoin="round"/>
<path d="M334.6 170.697H318.79" stroke="#80D6EC" stroke-width="2.21454" stroke-miterlimit="10" stroke-linecap="round" stroke-linejoin="round"/>
<path d="M318.79 170.697V148.561" stroke="#80D6EC" stroke-width="2.21454" stroke-miterlimit="10" stroke-linecap="round" stroke-linejoin="round"/>
<path d="M310.491 200.474V170.697" stroke="#80D6EC" stroke-width="2.21454" stroke-miterlimit="10" stroke-linecap="round" stroke-linejoin="round"/>
<path d="M310.49 170.697H281.768" stroke="#80D6EC" stroke-width="2.21454" stroke-miterlimit="10" stroke-linecap="round" stroke-linejoin="round"/>
<path d="M148.436 183.348V170.697" stroke="#80D6EC" stroke-width="2.21454" stroke-miterlimit="10" stroke-linecap="round" stroke-linejoin="round"/>
<path d="M148.436 170.697H177.669" stroke="#80D6EC" stroke-width="2.21454" stroke-miterlimit="10" stroke-linecap="round" stroke-linejoin="round"/>
<path d="M88.355 158.839H126.023" stroke="#80D6EC" stroke-width="2.21454" stroke-miterlimit="10" stroke-linecap="round" stroke-linejoin="round"/>
<path d="M75.957 183.353H111.28" stroke="#80D6EC" stroke-width="2.21454" stroke-miterlimit="10" stroke-linecap="round" stroke-linejoin="round"/>
<path d="M111.28 183.353V217.865" stroke="#80D6EC" stroke-width="2.21454" stroke-miterlimit="10" stroke-linecap="round" stroke-linejoin="round"/>
<path d="M164.246 191.917V222.472" stroke="#80D6EC" stroke-width="2.21454" stroke-miterlimit="10" stroke-linecap="round" stroke-linejoin="round"/>
<path d="M182.426 200.474V235.911" stroke="#80D6EC" stroke-width="2.21454" stroke-miterlimit="10" stroke-linecap="round" stroke-linejoin="round"/>
<path d="M353.439 195.73H413.651" stroke="#80D6EC" stroke-width="2.21454" stroke-miterlimit="10" stroke-linecap="round" stroke-linejoin="round"/>
<path d="M362.663 181.376H427.485" stroke="#80D6EC" stroke-width="2.21454" stroke-miterlimit="10" stroke-linecap="round" stroke-linejoin="round"/>
<path d="M375.048 167.938H438.552" stroke="#80D6EC" stroke-width="2.21454" stroke-miterlimit="10" stroke-linecap="round" stroke-linejoin="round"/>
<path d="M385.85 152.523H425.904" stroke="#80D6EC" stroke-width="2.21454" stroke-miterlimit="10" stroke-linecap="round" stroke-linejoin="round"/>
<path d="M425.904 152.523V118.915" stroke="#80D6EC" stroke-width="2.21454" stroke-miterlimit="10" stroke-linecap="round" stroke-linejoin="round"/>
<path d="M425.904 118.915H460.291" stroke="#80D6EC" stroke-width="2.21454" stroke-miterlimit="10" stroke-linecap="round" stroke-linejoin="round"/>
<path d="M413.651 195.73V227.945" stroke="#80D6EC" stroke-width="2.21454" stroke-miterlimit="10" stroke-linecap="round" stroke-linejoin="round"/>
<path d="M427.484 181.376V204.29" stroke="#80D6EC" stroke-width="2.21454" stroke-miterlimit="10" stroke-linecap="round" stroke-linejoin="round"/>
<path d="M438.551 167.938V146.188" stroke="#80D6EC" stroke-width="2.21454" stroke-miterlimit="10" stroke-linecap="round" stroke-linejoin="round"/>
<path d="M395.864 29.7169H420.765" stroke="#80D6EC" stroke-width="2.21454" stroke-miterlimit="10" stroke-linecap="round" stroke-linejoin="round"/>
<path d="M305.483 14.8299V-22.1929" stroke="#80D6EC" stroke-width="2.21454" stroke-miterlimit="10" stroke-linecap="round" stroke-linejoin="round"/>
<path d="M281.768 -0.585035V-45.8418" stroke="#80D6EC" stroke-width="2.21454" stroke-miterlimit="10" stroke-linecap="round" stroke-linejoin="round"/>
<path d="M295.469 6.26556V-36.2908" stroke="#80D6EC" stroke-width="2.21454" stroke-miterlimit="10" stroke-linecap="round" stroke-linejoin="round"/>
<path d="M55.1397 68.8171H14.8379" stroke="#80D6EC" stroke-width="2.21454" stroke-miterlimit="10" stroke-linecap="round" stroke-linejoin="round"/>
<path d="M14.8379 68.817V41.048" stroke="#80D6EC" stroke-width="2.21454" stroke-miterlimit="10" stroke-linecap="round" stroke-linejoin="round"/>
<path d="M14.838 41.048H-5.71533" stroke="#80D6EC" stroke-width="2.21454" stroke-miterlimit="10" stroke-linecap="round" stroke-linejoin="round"/>
<path d="M65.1604 167.938H20.3716" stroke="#80D6EC" stroke-width="2.21454" stroke-miterlimit="10" stroke-linecap="round" stroke-linejoin="round"/>
<path d="M20.3716 167.938V136.6" stroke="#80D6EC" stroke-width="2.21454" stroke-miterlimit="10" stroke-linecap="round" stroke-linejoin="round"/>
<path d="M20.3717 136.6H-9.27246" stroke="#80D6EC" stroke-width="2.21454" stroke-miterlimit="10" stroke-linecap="round" stroke-linejoin="round"/>
<path d="M65.1603 59.2297H30.2529" stroke="#80D6EC" stroke-width="2.21454" stroke-miterlimit="10" stroke-linecap="round" stroke-linejoin="round"/>
<path d="M30.2529 59.2298V17.9919" stroke="#80D6EC" stroke-width="2.21454" stroke-miterlimit="10" stroke-linecap="round" stroke-linejoin="round"/>
<path d="M107.057 17.9919H126.023" stroke="#80D6EC" stroke-width="2.21454" stroke-miterlimit="10" stroke-linecap="round" stroke-linejoin="round"/>
<path d="M126.023 17.992V-11.1257" stroke="#80D6EC" stroke-width="2.21454" stroke-miterlimit="10" stroke-linecap="round" stroke-linejoin="round"/>
<path d="M97.5714 25.369H85.5889" stroke="#80D6EC" stroke-width="2.21454" stroke-miterlimit="10" stroke-linecap="round" stroke-linejoin="round"/>
<path d="M85.5889 25.369V-36.2908" stroke="#80D6EC" stroke-width="2.21454" stroke-miterlimit="10" stroke-linecap="round" stroke-linejoin="round"/>
<path d="M88.3408 36.3082H69.3828" stroke="#80D6EC" stroke-width="2.21454" stroke-miterlimit="10" stroke-linecap="round" stroke-linejoin="round"/>
<path d="M75.9576 48.6907H50.8066" stroke="#80D6EC" stroke-width="2.21454" stroke-miterlimit="10" stroke-linecap="round" stroke-linejoin="round"/>
<path d="M50.8066 48.6907V-0.585022" stroke="#80D6EC" stroke-width="2.21454" stroke-miterlimit="10" stroke-linecap="round" stroke-linejoin="round"/>
<path d="M50.8054 -0.585022H39.7383" stroke="#80D6EC" stroke-width="2.21454" stroke-miterlimit="10" stroke-linecap="round" stroke-linejoin="round"/>
<path d="M420.766 29.7169V57.2536" stroke="#80D6EC" stroke-width="2.21454" stroke-miterlimit="10" stroke-linecap="round" stroke-linejoin="round"/>
<path d="M151.595 46.5153H132.214" stroke="#80D6EC" stroke-width="2.21454" stroke-miterlimit="10" stroke-linecap="round" stroke-linejoin="round"/>
<path d="M175.036 21.0212V41.0481" stroke="#80D6EC" stroke-width="2.21454" stroke-miterlimit="10" stroke-linecap="round" stroke-linejoin="round"/>
<path d="M295.469 38.8093V53.1697" stroke="#80D6EC" stroke-width="2.21454" stroke-miterlimit="10" stroke-linecap="round" stroke-linejoin="round"/>
<path d="M349.619 38.8093H331.438" stroke="#80D6EC" stroke-width="2.21454" stroke-miterlimit="10" stroke-linecap="round" stroke-linejoin="round"/>
<path d="M318.789 148.561H301.003" stroke="#80D6EC" stroke-width="2.21454" stroke-miterlimit="10" stroke-linecap="round" stroke-linejoin="round"/>
<path d="M281.768 170.697V155.685" stroke="#80D6EC" stroke-width="2.21454" stroke-miterlimit="10" stroke-linecap="round" stroke-linejoin="round"/>
<path d="M177.668 170.697V159.629" stroke="#80D6EC" stroke-width="2.21454" stroke-miterlimit="10" stroke-linecap="round" stroke-linejoin="round"/>
<path d="M126.023 158.839V173.8" stroke="#80D6EC" stroke-width="2.21454" stroke-miterlimit="10" stroke-linecap="round" stroke-linejoin="round"/>
<path d="M140.263 222.472V200.609" stroke="#80D6EC" stroke-width="2.21454" stroke-miterlimit="10" stroke-linecap="round" stroke-linejoin="round"/>
<path d="M427.484 204.29H456.733" stroke="#80D6EC" stroke-width="2.21454" stroke-miterlimit="10" stroke-linecap="round" stroke-linejoin="round"/>
<path d="M438.551 146.188H456.733" stroke="#80D6EC" stroke-width="2.21454" stroke-miterlimit="10" stroke-linecap="round" stroke-linejoin="round"/>
<path d="M30.2528 17.9919H5.54932" stroke="#80D6EC" stroke-width="2.21454" stroke-miterlimit="10" stroke-linecap="round" stroke-linejoin="round"/>
<path d="M69.3828 36.3081V3.43231" stroke="#80D6EC" stroke-width="2.21454" stroke-miterlimit="10" stroke-linecap="round" stroke-linejoin="round"/>
<path d="M39.7383 -0.585013V-15.0118" stroke="#80D6EC" stroke-width="2.21454" stroke-miterlimit="10" stroke-linecap="round" stroke-linejoin="round"/>
<path d="M420.766 57.2535H467.275" stroke="#80D6EC" stroke-width="2.21454" stroke-miterlimit="10" stroke-linecap="round" stroke-linejoin="round"/>
<path d="M151.594 46.5153H132.214" stroke="#80D6EC" stroke-width="1.18577" stroke-linecap="round" stroke-linejoin="round"/>
<path d="M132.214 50.9737C134.677 50.9737 136.673 48.9775 136.673 46.5152C136.673 44.0528 134.677 42.0567 132.214 42.0567C129.752 42.0567 127.756 44.0528 127.756 46.5152C127.756 48.9775 129.752 50.9737 132.214 50.9737Z" fill="#80D6EC"/>
<path d="M175.034 21.0212V41.0481" stroke="#80D6EC" stroke-width="1.18577" stroke-linecap="round" stroke-linejoin="round"/>
<path d="M175.035 45.5065C177.497 45.5065 179.493 43.5104 179.493 41.048C179.493 38.5857 177.497 36.5895 175.035 36.5895C172.572 36.5895 170.576 38.5857 170.576 41.048C170.576 43.5104 172.572 45.5065 175.035 45.5065Z" fill="#80D6EC"/>
<path d="M295.469 38.8093V53.1697" stroke="#80D6EC" stroke-width="1.18577" stroke-linecap="round" stroke-linejoin="round"/>
<path d="M295.469 57.6282C297.931 57.6282 299.927 55.6321 299.927 53.1697C299.927 50.7074 297.931 48.7112 295.469 48.7112C293.006 48.7112 291.01 50.7074 291.01 53.1697C291.01 55.6321 293.006 57.6282 295.469 57.6282Z" fill="#80D6EC"/>
<path d="M349.619 38.8093H331.438" stroke="#80D6EC" stroke-width="1.18577" stroke-linecap="round" stroke-linejoin="round"/>
<path d="M331.49 43.2476C333.952 43.2329 335.937 41.2248 335.922 38.7624C335.907 36.3001 333.899 34.3159 331.437 34.3307C328.974 34.3454 326.99 36.3536 327.005 38.8159C327.02 41.2783 329.028 43.2624 331.49 43.2476Z" fill="#80D6EC"/>
<path d="M318.79 148.561H301.003" stroke="#80D6EC" stroke-width="1.18577" stroke-linecap="round" stroke-linejoin="round"/>
<path d="M301.003 144.102C298.542 144.102 296.545 146.097 296.545 148.559C296.545 151.022 298.543 153.016 301.003 153.016C303.465 153.016 305.462 151.021 305.462 148.559C305.462 146.097 303.465 144.102 301.003 144.102Z" fill="#80D6EC"/>
<path d="M281.768 170.697V155.685" stroke="#80D6EC" stroke-width="1.18577" stroke-linecap="round" stroke-linejoin="round"/>
<path d="M286.227 155.685C286.227 153.222 284.229 151.228 281.769 151.228C279.307 151.228 277.31 153.223 277.31 155.685C277.31 158.148 279.308 160.142 281.769 160.142C284.23 160.142 286.227 158.146 286.227 155.685Z" fill="#80D6EC"/>
<path d="M177.668 170.697V159.629" stroke="#80D6EC" stroke-width="1.18577" stroke-linecap="round" stroke-linejoin="round"/>
<path d="M177.669 164.088C180.131 164.088 182.127 162.092 182.127 159.629C182.127 157.167 180.131 155.171 177.669 155.171C175.207 155.171 173.21 157.167 173.21 159.629C173.21 162.092 175.207 164.088 177.669 164.088Z" fill="#80D6EC"/>
<path d="M126.022 158.839V173.8" stroke="#80D6EC" stroke-width="1.18577" stroke-linecap="round" stroke-linejoin="round"/>
<path d="M126.023 178.259C128.485 178.259 130.481 176.262 130.481 173.8C130.481 171.338 128.485 169.342 126.023 169.342C123.561 169.342 121.564 171.338 121.564 173.8C121.564 176.262 123.561 178.259 126.023 178.259Z" fill="#80D6EC"/>
<path d="M140.264 222.472V200.61" stroke="#80D6EC" stroke-width="1.18577" stroke-linecap="round" stroke-linejoin="round"/>
<path d="M144.722 200.61C144.722 198.148 142.725 196.151 140.264 196.151C137.802 196.151 135.805 198.149 135.805 200.61C135.805 203.071 137.802 205.068 140.264 205.068C142.725 205.068 144.722 203.07 144.722 200.61Z" fill="#80D6EC"/>
<path d="M427.484 204.29H456.733" stroke="#80D6EC" stroke-width="1.18577" stroke-linecap="round" stroke-linejoin="round"/>
<path d="M438.551 146.188H456.733" stroke="#80D6EC" stroke-width="1.18577" stroke-linecap="round" stroke-linejoin="round"/>
<path d="M30.2528 17.9919H5.54932" stroke="#80D6EC" stroke-width="1.18577" stroke-linecap="round" stroke-linejoin="round"/>
<path d="M5.5493 22.4505C8.01166 22.4505 10.0078 20.4543 10.0078 17.992C10.0078 15.5296 8.01166 13.5335 5.5493 13.5335C3.08695 13.5335 1.09082 15.5296 1.09082 17.992C1.09082 20.4543 3.08695 22.4505 5.5493 22.4505Z" fill="#80D6EC"/>
<path d="M69.3828 36.3081V3.43231" stroke="#80D6EC" stroke-width="1.18577" stroke-linecap="round" stroke-linejoin="round"/>
<path d="M69.3833 7.89084C71.8457 7.89084 73.8418 5.8947 73.8418 3.43235C73.8418 0.969995 71.8457 -1.02612 69.3833 -1.02612C66.9209 -1.02612 64.9248 0.969995 64.9248 3.43235C64.9248 5.8947 66.9209 7.89084 69.3833 7.89084Z" fill="#80D6EC"/>
<path d="M39.7383 -0.585013V-15.0118" stroke="#80D6EC" stroke-width="1.18577" stroke-linecap="round" stroke-linejoin="round"/>
<path d="M420.766 57.2534H467.275" stroke="#80D6EC" stroke-width="1.18577" stroke-linecap="round" stroke-linejoin="round"/>
<path d="M192.012 64.2022C192.012 65.1318 191.259 65.8844 190.331 65.8844C189.403 65.8844 188.649 65.1318 188.649 64.2022V46.3524C188.649 45.4244 189.401 44.6702 190.331 44.6702C191.259 44.6702 192.012 45.4244 192.012 46.3524V64.2022Z" fill="#61A0B0"/>
<path d="M199.917 64.2022C199.917 65.1318 199.164 65.8844 198.236 65.8844C197.308 65.8844 196.554 65.1318 196.554 64.2022V46.3524C196.554 45.4244 197.307 44.6702 198.236 44.6702C199.164 44.6702 199.917 45.4244 199.917 46.3524V64.2022Z" fill="#61A0B0"/>
<path d="M207.822 64.2022C207.822 65.1318 207.069 65.8844 206.141 65.8844C205.213 65.8844 204.459 65.1318 204.459 64.2022V46.3524C204.459 45.4244 205.212 44.6702 206.141 44.6702C207.069 44.6702 207.822 45.4244 207.822 46.3524V64.2022Z" fill="#61A0B0"/>
<path d="M215.727 64.2022C215.727 65.1318 214.975 65.8844 214.046 65.8844C213.117 65.8844 212.364 65.1318 212.364 64.2022V46.3524C212.364 45.4244 213.117 44.6702 214.046 44.6702C214.976 44.6702 215.727 45.4244 215.727 46.3524V64.2022Z" fill="#61A0B0"/>
<path d="M223.632 64.2022C223.632 65.1318 222.88 65.8844 221.952 65.8844C221.022 65.8844 220.27 65.1318 220.27 64.2022V46.3524C220.27 45.4244 221.022 44.6702 221.952 44.6702C222.881 44.6702 223.632 45.4244 223.632 46.3524V64.2022Z" fill="#61A0B0"/>
<path d="M231.538 64.2022C231.538 65.1318 230.785 65.8844 229.857 65.8844C228.927 65.8844 228.175 65.1318 228.175 64.2022V46.3524C228.175 45.4244 228.927 44.6702 229.857 44.6702C230.787 44.6702 231.538 45.4244 231.538 46.3524V64.2022Z" fill="#61A0B0"/>
<path d="M239.442 64.2022C239.442 65.1318 238.689 65.8844 237.761 65.8844C236.832 65.8844 236.079 65.1318 236.079 64.2022V46.3524C236.079 45.4244 236.832 44.6702 237.761 44.6702C238.691 44.6702 239.442 45.4244 239.442 46.3524V64.2022Z" fill="#61A0B0"/>
<path d="M247.348 64.2022C247.348 65.1318 246.595 65.8844 245.667 65.8844C244.737 65.8844 243.985 65.1318 243.985 64.2022V46.3524C243.985 45.4244 244.737 44.6702 245.667 44.6702C246.597 44.6702 247.348 45.4244 247.348 46.3524V64.2022Z" fill="#61A0B0"/>
<path d="M255.253 64.2022C255.253 65.1318 254.5 65.8844 253.572 65.8844C252.643 65.8844 251.89 65.1318 251.89 64.2022V46.3524C251.89 45.4244 252.643 44.6702 253.572 44.6702C254.502 44.6702 255.253 45.4244 255.253 46.3524V64.2022Z" fill="#61A0B0"/>
<path d="M263.158 64.2022C263.158 65.1318 262.406 65.8844 261.478 65.8844C260.548 65.8844 259.795 65.1318 259.795 64.2022V46.3524C259.795 45.4244 260.548 44.6702 261.478 44.6702C262.407 44.6702 263.158 45.4244 263.158 46.3524V64.2022Z" fill="#61A0B0"/>
<path d="M192.012 159.064C192.012 159.995 191.259 160.746 190.331 160.746C189.403 160.746 188.649 159.993 188.649 159.064V141.214C188.649 140.286 189.401 139.532 190.331 139.532C191.259 139.532 192.012 140.286 192.012 141.214V159.064Z" fill="#61A0B0"/>
<path d="M199.917 159.064C199.917 159.995 199.164 160.746 198.236 160.746C197.308 160.746 196.554 159.993 196.554 159.064V141.214C196.554 140.286 197.307 139.532 198.236 139.532C199.164 139.532 199.917 140.286 199.917 141.214V159.064Z" fill="#61A0B0"/>
<path d="M207.822 159.064C207.822 159.995 207.069 160.746 206.141 160.746C205.213 160.746 204.459 159.993 204.459 159.064V141.214C204.459 140.286 205.212 139.532 206.141 139.532C207.069 139.532 207.822 140.286 207.822 141.214V159.064Z" fill="#61A0B0"/>
<path d="M215.727 159.064C215.727 159.995 214.975 160.746 214.046 160.746C213.117 160.746 212.364 159.993 212.364 159.064V141.214C212.364 140.286 213.117 139.532 214.046 139.532C214.976 139.532 215.727 140.286 215.727 141.214V159.064Z" fill="#61A0B0"/>
<path d="M223.632 159.064C223.632 159.995 222.88 160.746 221.952 160.746C221.022 160.746 220.27 159.993 220.27 159.064V141.214C220.27 140.286 221.022 139.532 221.952 139.532C222.881 139.532 223.632 140.286 223.632 141.214V159.064Z" fill="#61A0B0"/>
<path d="M231.538 159.064C231.538 159.995 230.785 160.746 229.857 160.746C228.927 160.746 228.175 159.993 228.175 159.064V141.214C228.175 140.286 228.927 139.532 229.857 139.532C230.787 139.532 231.538 140.286 231.538 141.214V159.064Z" fill="#61A0B0"/>
<path d="M239.442 159.064C239.442 159.995 238.689 160.746 237.761 160.746C236.832 160.746 236.079 159.993 236.079 159.064V141.214C236.079 140.286 236.832 139.532 237.761 139.532C238.691 139.532 239.442 140.286 239.442 141.214V159.064Z" fill="#61A0B0"/>
<path d="M247.348 159.064C247.348 159.995 246.595 160.746 245.667 160.746C244.737 160.746 243.985 159.993 243.985 159.064V141.214C243.985 140.286 244.737 139.532 245.667 139.532C246.597 139.532 247.348 140.286 247.348 141.214V159.064Z" fill="#61A0B0"/>
<path d="M255.253 159.064C255.253 159.995 254.5 160.746 253.572 160.746C252.643 160.746 251.89 159.993 251.89 159.064V141.214C251.89 140.286 252.643 139.532 253.572 139.532C254.502 139.532 255.253 140.286 255.253 141.214V159.064Z" fill="#61A0B0"/>
<path d="M263.158 159.064C263.158 159.995 262.406 160.746 261.478 160.746C260.548 160.746 259.795 159.993 259.795 159.064V141.214C259.795 140.286 260.548 139.532 261.478 139.532C262.407 139.532 263.158 140.286 263.158 141.214V159.064Z" fill="#61A0B0"/>
<path d="M187.397 136.6C188.326 136.6 189.079 137.354 189.079 138.282C189.079 139.212 188.326 139.963 187.397 139.963H169.547C168.619 139.963 167.866 139.211 167.866 138.282C167.866 137.354 168.62 136.6 169.547 136.6H187.397Z" fill="#61A0B0"/>
<path d="M187.397 128.695C188.326 128.695 189.079 129.449 189.079 130.377C189.079 131.307 188.326 132.058 187.397 132.058H169.547C168.619 132.058 167.866 131.305 167.866 130.377C167.866 129.449 168.62 128.695 169.547 128.695H187.397Z" fill="#61A0B0"/>
<path d="M187.397 120.79C188.326 120.79 189.079 121.544 189.079 122.472C189.079 123.402 188.326 124.153 187.397 124.153H169.547C168.619 124.153 167.866 123.4 167.866 122.472C167.866 121.544 168.62 120.79 169.547 120.79H187.397Z" fill="#61A0B0"/>
<path d="M187.397 112.885C188.326 112.885 189.079 113.639 189.079 114.566C189.079 115.495 188.326 116.248 187.397 116.248H169.547C168.619 116.248 167.866 115.495 167.866 114.566C167.866 113.638 168.62 112.885 169.547 112.885H187.397Z" fill="#61A0B0"/>
<path d="M187.397 104.98C188.326 104.98 189.079 105.732 189.079 106.66C189.079 107.589 188.326 108.343 187.397 108.343H169.547C168.619 108.343 167.866 107.59 167.866 106.66C167.866 105.732 168.62 104.98 169.547 104.98H187.397Z" fill="#61A0B0"/>
<path d="M187.397 97.0747C188.326 97.0747 189.079 97.8273 189.079 98.7553C189.079 99.6834 188.326 100.438 187.397 100.438H169.547C168.619 100.438 167.866 99.685 167.866 98.7553C167.866 97.8273 168.62 97.0747 169.547 97.0747H187.397Z" fill="#61A0B0"/>
<path d="M187.397 89.1696C188.326 89.1696 189.079 89.9222 189.079 90.8502C189.079 91.7783 188.326 92.5324 187.397 92.5324H169.547C168.619 92.5324 167.866 91.7799 167.866 90.8502C167.866 89.9222 168.62 89.1696 169.547 89.1696H187.397Z" fill="#61A0B0"/>
<path d="M187.397 81.2645C188.326 81.2645 189.079 82.0171 189.079 82.9452C189.079 83.8732 188.326 84.6274 187.397 84.6274H169.547C168.619 84.6274 167.866 83.8748 167.866 82.9452C167.866 82.0171 168.62 81.2645 169.547 81.2645H187.397Z" fill="#61A0B0"/>
<path d="M187.397 73.3594C188.326 73.3594 189.079 74.112 189.079 75.0401C189.079 75.9681 188.326 76.7223 187.397 76.7223H169.547C168.619 76.7223 167.866 75.9697 167.866 75.0401C167.866 74.112 168.62 73.3594 169.547 73.3594H187.397Z" fill="#61A0B0"/>
<path d="M187.397 65.4543C188.326 65.4543 189.079 66.2069 189.079 67.1349C189.079 68.063 188.326 68.8171 187.397 68.8171H169.547C168.619 68.8171 167.866 68.0646 167.866 67.1349C167.866 66.2069 168.62 65.4543 169.547 65.4543H187.397Z" fill="#61A0B0"/>
<path d="M282.259 136.6C283.191 136.6 283.943 137.354 283.943 138.282C283.943 139.212 283.191 139.963 282.259 139.963H264.41C263.482 139.963 262.728 139.211 262.728 138.282C262.728 137.354 263.482 136.6 264.41 136.6H282.259Z" fill="#61A0B0"/>
<path d="M282.259 128.695C283.191 128.695 283.943 129.449 283.943 130.377C283.943 131.307 283.191 132.058 282.259 132.058H264.41C263.482 132.058 262.728 131.305 262.728 130.377C262.728 129.449 263.482 128.695 264.41 128.695H282.259Z" fill="#61A0B0"/>
<path d="M282.259 120.79C283.191 120.79 283.943 121.544 283.943 122.472C283.943 123.402 283.191 124.153 282.259 124.153H264.41C263.482 124.153 262.728 123.4 262.728 122.472C262.728 121.544 263.482 120.79 264.41 120.79H282.259Z" fill="#61A0B0"/>
<path d="M282.259 112.885C283.191 112.885 283.943 113.639 283.943 114.566C283.943 115.495 283.191 116.248 282.259 116.248H264.41C263.482 116.248 262.728 115.495 262.728 114.566C262.728 113.638 263.482 112.885 264.41 112.885H282.259Z" fill="#61A0B0"/>
<path d="M282.259 104.98C283.191 104.98 283.943 105.732 283.943 106.66C283.943 107.589 283.191 108.343 282.259 108.343H264.41C263.482 108.343 262.728 107.59 262.728 106.66C262.728 105.732 263.482 104.98 264.41 104.98H282.259Z" fill="#61A0B0"/>
<path d="M282.259 97.0747C283.191 97.0747 283.943 97.8273 283.943 98.7553C283.943 99.6834 283.191 100.438 282.259 100.438H264.41C263.482 100.438 262.728 99.685 262.728 98.7553C262.728 97.8273 263.482 97.0747 264.41 97.0747H282.259Z" fill="#61A0B0"/>
<path d="M282.259 89.1696C283.191 89.1696 283.943 89.9222 283.943 90.8502C283.943 91.7783 283.191 92.5324 282.259 92.5324H264.41C263.482 92.5324 262.728 91.7799 262.728 90.8502C262.728 89.9222 263.482 89.1696 264.41 89.1696H282.259Z" fill="#61A0B0"/>
<path d="M282.259 81.2645C283.191 81.2645 283.943 82.0171 283.943 82.9452C283.943 83.8732 283.191 84.6274 282.259 84.6274H264.41C263.482 84.6274 262.728 83.8748 262.728 82.9452C262.728 82.0171 263.482 81.2645 264.41 81.2645H282.259Z" fill="#61A0B0"/>
<path d="M282.259 73.3594C283.191 73.3594 283.943 74.112 283.943 75.0401C283.943 75.9681 283.191 76.7223 282.259 76.7223H264.41C263.482 76.7223 262.728 75.9697 262.728 75.0401C262.728 74.112 263.482 73.3594 264.41 73.3594H282.259Z" fill="#61A0B0"/>
<path d="M282.259 65.4543C283.191 65.4543 283.943 66.2069 283.943 67.1349C283.943 68.063 283.191 68.8171 282.259 68.8171H264.41C263.482 68.8171 262.728 68.0646 262.728 67.1349C262.728 66.2069 263.482 65.4543 264.41 65.4543H282.259Z" fill="#61A0B0"/>
<path d="M270.206 58.4062H181.601V147.011H270.206V58.4062Z" fill="#61A0B0"/>
<path d="M269.383 59.2299V146.188H182.426V59.2299H269.383ZM271.032 57.5809H269.383H182.426H180.776V59.2299V146.188V147.837H182.426H269.383H271.032V146.188V59.2299V57.5809Z" fill="#80D6EC"/>
<path d="M263.296 65.3168H188.514V140.102H263.296V65.3168Z" fill="#80D6EC"/>
<path d="M182.426 59.2299L269.382 146.188" stroke="#80D6EC" stroke-width="2.31035" stroke-miterlimit="10" stroke-linecap="round" stroke-linejoin="round"/>
<path d="M269.382 59.2299L182.426 146.188" stroke="#80D6EC" stroke-width="2.31035" stroke-miterlimit="10" stroke-linecap="round" stroke-linejoin="round"/>
</g>
<path d="M234.541 121.33H226.67L224.466 114.718H209.826L207.622 121.33H199.804L212.66 84.5987H221.633L234.541 121.33ZM217.173 92.9419L212.135 107.949H222.21L217.173 92.9419ZM238.108 121.33V84.5987H245.349V121.33H238.108Z" fill="#0D1451"/>
<g opacity="0.2">
<rect x="21.7437" y="115" width="407" height="71" rx="8" fill="white"/>
</g>
<path opacity="0.5" d="M143.654 159.42C140.514 159.42 137.904 158.37 135.824 156.27C133.764 154.19 132.734 151.6 132.734 148.5C132.734 145.38 133.764 142.79 135.824 140.73C137.904 138.63 140.514 137.58 143.654 137.58C145.554 137.58 147.304 138.03 148.904 138.93C150.524 139.81 151.784 141.01 152.684 142.53L149.114 144.6C148.594 143.66 147.854 142.93 146.894 142.41C145.934 141.87 144.854 141.6 143.654 141.6C141.614 141.6 139.964 142.24 138.704 143.52C137.464 144.82 136.844 146.48 136.844 148.5C136.844 150.5 137.464 152.15 138.704 153.45C139.964 154.73 141.614 155.37 143.654 155.37C144.854 155.37 145.934 155.11 146.894 154.59C147.874 154.05 148.614 153.32 149.114 152.4L152.684 154.47C151.784 155.99 150.524 157.2 148.904 158.1C147.304 158.98 145.554 159.42 143.654 159.42ZM167.915 157.14C166.395 158.66 164.515 159.42 162.275 159.42C160.035 159.42 158.155 158.66 156.635 157.14C155.115 155.62 154.355 153.74 154.355 151.5C154.355 149.28 155.115 147.41 156.635 145.89C158.175 144.35 160.055 143.58 162.275 143.58C164.495 143.58 166.375 144.35 167.915 145.89C169.455 147.43 170.225 149.3 170.225 151.5C170.225 153.72 169.455 155.6 167.915 157.14ZM159.365 154.47C160.145 155.25 161.115 155.64 162.275 155.64C163.435 155.64 164.405 155.25 165.185 154.47C165.965 153.69 166.355 152.7 166.355 151.5C166.355 150.3 165.965 149.31 165.185 148.53C164.405 147.75 163.435 147.36 162.275 147.36C161.115 147.36 160.145 147.75 159.365 148.53C158.605 149.33 158.225 150.32 158.225 151.5C158.225 152.68 158.605 153.67 159.365 154.47ZM189.537 143.58C191.257 143.58 192.627 144.14 193.647 145.26C194.687 146.38 195.207 147.88 195.207 149.76V159H191.337V150.03C191.337 149.13 191.117 148.43 190.677 147.93C190.237 147.43 189.617 147.18 188.817 147.18C187.937 147.18 187.247 147.47 186.747 148.05C186.267 148.63 186.027 149.47 186.027 150.57V159H182.157V150.03C182.157 149.13 181.937 148.43 181.497 147.93C181.057 147.43 180.437 147.18 179.637 147.18C178.777 147.18 178.087 147.48 177.567 148.08C177.067 148.66 176.817 149.49 176.817 150.57V159H172.947V144H176.817V145.59C177.717 144.25 179.107 143.58 180.987 143.58C182.847 143.58 184.207 144.3 185.067 145.74C186.047 144.3 187.537 143.58 189.537 143.58ZM200.414 142.2C199.774 142.2 199.214 141.97 198.734 141.51C198.274 141.03 198.044 140.47 198.044 139.83C198.044 139.19 198.274 138.63 198.734 138.15C199.214 137.67 199.774 137.43 200.414 137.43C201.074 137.43 201.634 137.67 202.094 138.15C202.574 138.63 202.814 139.19 202.814 139.83C202.814 140.47 202.574 141.03 202.094 141.51C201.634 141.97 201.074 142.2 200.414 142.2ZM202.364 159H198.494V144H202.364V159ZM214.246 143.58C215.906 143.58 217.256 144.13 218.296 145.23C219.376 146.35 219.916 147.87 219.916 149.79V159H216.046V150.27C216.046 149.29 215.776 148.53 215.236 147.99C214.716 147.45 213.996 147.18 213.076 147.18C212.056 147.18 211.246 147.5 210.646 148.14C210.066 148.76 209.776 149.68 209.776 150.9V159H205.906V144H209.776V145.68C210.696 144.28 212.186 143.58 214.246 143.58ZM234.711 145.86V144H238.491V158.28C238.491 160.58 237.721 162.35 236.181 163.59C234.661 164.81 232.821 165.42 230.661 165.42C227.261 165.42 224.891 164.2 223.551 161.76L226.851 159.87C227.591 161.27 228.901 161.97 230.781 161.97C232.001 161.97 232.961 161.65 233.661 161.01C234.361 160.37 234.711 159.46 234.711 158.28V156.66C233.571 158.18 231.971 158.94 229.911 158.94C227.791 158.94 226.011 158.2 224.571 156.72C223.151 155.2 222.441 153.38 222.441 151.26C222.441 149.14 223.161 147.33 224.601 145.83C226.041 144.33 227.811 143.58 229.911 143.58C231.971 143.58 233.571 144.34 234.711 145.86ZM233.511 154.23C234.311 153.45 234.711 152.46 234.711 151.26C234.711 150.06 234.311 149.09 233.511 148.35C232.731 147.57 231.731 147.18 230.511 147.18C229.311 147.18 228.301 147.57 227.481 148.35C226.701 149.09 226.311 150.06 226.311 151.26C226.311 152.46 226.701 153.45 227.481 154.23C228.281 154.99 229.291 155.37 230.511 155.37C231.731 155.37 232.731 154.99 233.511 154.23ZM256.85 159.42C254.79 159.42 253.05 158.96 251.63 158.04C250.21 157.12 249.2 155.85 248.6 154.23L252.14 152.16C252.96 154.3 254.57 155.37 256.97 155.37C258.09 155.37 258.93 155.17 259.49 154.77C260.05 154.37 260.33 153.83 260.33 153.15C260.33 152.41 260 151.84 259.34 151.44C258.68 151.02 257.5 150.57 255.8 150.09C253.96 149.53 252.51 148.88 251.45 148.14C250.13 147.16 249.47 145.72 249.47 143.82C249.47 141.9 250.14 140.39 251.48 139.29C252.82 138.15 254.45 137.58 256.37 137.58C258.05 137.58 259.54 137.99 260.84 138.81C262.14 139.63 263.15 140.79 263.87 142.29L260.39 144.3C259.55 142.5 258.21 141.6 256.37 141.6C255.53 141.6 254.86 141.8 254.36 142.2C253.86 142.58 253.61 143.08 253.61 143.7C253.61 144.36 253.88 144.9 254.42 145.32C255.02 145.74 256.08 146.18 257.6 146.64L259.04 147.12C259.3 147.2 259.75 147.37 260.39 147.63C260.99 147.85 261.43 148.06 261.71 148.26C262.69 148.86 263.35 149.48 263.69 150.12C264.21 150.96 264.47 151.95 264.47 153.09C264.47 155.03 263.76 156.57 262.34 157.71C260.92 158.85 259.09 159.42 256.85 159.42ZM280.18 157.14C278.66 158.66 276.78 159.42 274.54 159.42C272.3 159.42 270.42 158.66 268.9 157.14C267.38 155.62 266.62 153.74 266.62 151.5C266.62 149.28 267.38 147.41 268.9 145.89C270.44 144.35 272.32 143.58 274.54 143.58C276.76 143.58 278.64 144.35 280.18 145.89C281.72 147.43 282.49 149.3 282.49 151.5C282.49 153.72 281.72 155.6 280.18 157.14ZM271.63 154.47C272.41 155.25 273.38 155.64 274.54 155.64C275.7 155.64 276.67 155.25 277.45 154.47C278.23 153.69 278.62 152.7 278.62 151.5C278.62 150.3 278.23 149.31 277.45 148.53C276.67 147.75 275.7 147.36 274.54 147.36C273.38 147.36 272.41 147.75 271.63 148.53C270.87 149.33 270.49 150.32 270.49 151.5C270.49 152.68 270.87 153.67 271.63 154.47ZM297.993 157.14C296.473 158.66 294.593 159.42 292.353 159.42C290.113 159.42 288.233 158.66 286.713 157.14C285.193 155.62 284.433 153.74 284.433 151.5C284.433 149.28 285.193 147.41 286.713 145.89C288.253 144.35 290.133 143.58 292.353 143.58C294.573 143.58 296.453 144.35 297.993 145.89C299.533 147.43 300.303 149.3 300.303 151.5C300.303 153.72 299.533 155.6 297.993 157.14ZM289.443 154.47C290.223 155.25 291.193 155.64 292.353 155.64C293.513 155.64 294.483 155.25 295.263 154.47C296.043 153.69 296.433 152.7 296.433 151.5C296.433 150.3 296.043 149.31 295.263 148.53C294.483 147.75 293.513 147.36 292.353 147.36C291.193 147.36 290.223 147.75 289.443 148.53C288.683 149.33 288.303 150.32 288.303 151.5C288.303 152.68 288.683 153.67 289.443 154.47ZM311.365 143.58C313.025 143.58 314.375 144.13 315.415 145.23C316.495 146.35 317.035 147.87 317.035 149.79V159H313.165V150.27C313.165 149.29 312.895 148.53 312.355 147.99C311.835 147.45 311.115 147.18 310.195 147.18C309.175 147.18 308.365 147.5 307.765 148.14C307.185 148.76 306.895 149.68 306.895 150.9V159H303.025V144H306.895V145.68C307.815 144.28 309.305 143.58 311.365 143.58Z" fill="white"/>
<path d="M33.7713 37.3285C33.7713 34.2885 34.8213 31.7185 36.9213 29.6185C39.0213 27.4985 41.5913 26.4385 44.6313 26.4385C47.6713 26.4385 50.2413 27.4985 52.3413 29.6185C54.4613 31.7185 55.5213 34.2885 55.5213 37.3285C55.5213 40.3485 54.4613 42.9185 52.3413 45.0385C50.2413 47.1585 47.6713 48.2185 44.6313 48.2185C41.5913 48.2185 39.0213 47.1585 36.9213 45.0385C34.8213 42.8985 33.7713 40.3285 33.7713 37.3285ZM52.7313 37.3285C52.7313 35.0085 51.9513 33.0685 50.3913 31.5085C48.8713 29.9285 46.9513 29.1385 44.6313 29.1385C42.3313 29.1385 40.4013 29.9285 38.8413 31.5085C37.3013 33.0885 36.5313 35.0285 36.5313 37.3285C36.5313 39.6085 37.3013 41.5485 38.8413 43.1485C40.4013 44.7085 42.3313 45.4885 44.6313 45.4885C46.9513 45.4885 48.8713 44.7085 50.3913 43.1485C51.9513 41.5485 52.7313 39.6085 52.7313 37.3285ZM66.8855 32.4385C68.9855 32.4385 70.7755 33.2085 72.2555 34.7485C73.7355 36.2885 74.4755 38.1485 74.4755 40.3285C74.4755 42.5285 73.7355 44.3985 72.2555 45.9385C70.7955 47.4585 69.0055 48.2185 66.8855 48.2185C64.4055 48.2185 62.5155 47.2285 61.2155 45.2485V53.8285H58.6055V32.8285H61.2155V35.4085C62.5155 33.4285 64.4055 32.4385 66.8855 32.4385ZM66.5555 45.6985C68.0555 45.6985 69.3155 45.1885 70.3355 44.1685C71.3555 43.1085 71.8655 41.8285 71.8655 40.3285C71.8655 38.8085 71.3555 37.5385 70.3355 36.5185C69.3155 35.4785 68.0555 34.9585 66.5555 34.9585C65.0355 34.9585 63.7655 35.4785 62.7455 36.5185C61.7255 37.5385 61.2155 38.8085 61.2155 40.3285C61.2155 41.8285 61.7255 43.1085 62.7455 44.1685C63.7655 45.1885 65.0355 45.6985 66.5555 45.6985ZM85.4276 32.8285V35.3485H81.4376V43.4785C81.4376 44.2185 81.5776 44.7485 81.8576 45.0685C82.1576 45.3685 82.6076 45.5285 83.2076 45.5485C83.8076 45.5485 84.5476 45.5285 85.4276 45.4885V47.8285C83.1276 48.1285 81.4476 47.9385 80.3876 47.2585C79.3476 46.5785 78.8276 45.3185 78.8276 43.4785V35.3485H75.8576V32.8285H78.8276V29.4085L81.4376 28.6285V32.8285H85.4276ZM89.8376 30.0985C89.3376 30.0985 88.9176 29.9285 88.5776 29.5885C88.2376 29.2485 88.0676 28.8385 88.0676 28.3585C88.0676 27.8785 88.2376 27.4685 88.5776 27.1285C88.9176 26.7685 89.3376 26.5885 89.8376 26.5885C90.3176 26.5885 90.7276 26.7685 91.0676 27.1285C91.4076 27.4685 91.5776 27.8785 91.5776 28.3585C91.5776 28.8385 91.4076 29.2485 91.0676 29.5885C90.7276 29.9285 90.3176 30.0985 89.8376 30.0985ZM91.1276 47.8285H88.5176V32.8285H91.1276V47.8285ZM111.309 32.4385C113.009 32.4385 114.369 32.9885 115.389 34.0885C116.429 35.1885 116.949 36.6585 116.949 38.4985V47.8285H114.339V38.5885C114.339 37.4485 114.039 36.5585 113.439 35.9185C112.859 35.2585 112.059 34.9285 111.039 34.9285C109.879 34.9285 108.969 35.3185 108.309 36.0985C107.669 36.8585 107.349 37.9885 107.349 39.4885V47.8285H104.739V38.5885C104.739 37.4485 104.449 36.5585 103.869 35.9185C103.309 35.2585 102.539 34.9285 101.559 34.9285C100.419 34.9285 99.4894 35.3285 98.7694 36.1285C98.0694 36.9085 97.7194 38.0285 97.7194 39.4885V47.8285H95.1094V32.8285H97.7194V34.8385C98.7394 33.2385 100.229 32.4385 102.189 32.4385C104.209 32.4385 105.679 33.2885 106.599 34.9885C107.639 33.2885 109.209 32.4385 111.309 32.4385ZM121.888 30.0985C121.388 30.0985 120.968 29.9285 120.628 29.5885C120.288 29.2485 120.118 28.8385 120.118 28.3585C120.118 27.8785 120.288 27.4685 120.628 27.1285C120.968 26.7685 121.388 26.5885 121.888 26.5885C122.368 26.5885 122.778 26.7685 123.118 27.1285C123.458 27.4685 123.628 27.8785 123.628 28.3585C123.628 28.8385 123.458 29.2485 123.118 29.5885C122.778 29.9285 122.368 30.0985 121.888 30.0985ZM123.178 47.8285H120.568V32.8285H123.178V47.8285ZM137.87 34.5685L130.19 45.3385H138.17V47.8285H126.62V46.0885L134.27 35.3185H126.92V32.8285H137.87V34.5685ZM154.744 41.5285H142.174C142.434 42.8485 143.044 43.8885 144.004 44.6485C144.964 45.3885 146.164 45.7585 147.604 45.7585C149.584 45.7585 151.024 45.0285 151.924 43.5685L154.144 44.8285C152.664 47.0885 150.464 48.2185 147.544 48.2185C145.184 48.2185 143.244 47.4785 141.724 45.9985C140.244 44.4785 139.504 42.5885 139.504 40.3285C139.504 38.0485 140.234 36.1685 141.694 34.6885C143.154 33.1885 145.044 32.4385 147.364 32.4385C149.564 32.4385 151.354 33.2185 152.734 34.7785C154.134 36.2985 154.834 38.1585 154.834 40.3585C154.834 40.7385 154.804 41.1285 154.744 41.5285ZM147.364 34.8985C145.984 34.8985 144.824 35.2885 143.884 36.0685C142.964 36.8485 142.394 37.9085 142.174 39.2485H152.194C151.974 37.8685 151.424 36.7985 150.544 36.0385C149.664 35.2785 148.604 34.8985 147.364 34.8985ZM171.484 44.5885L175.804 32.8285H178.594L172.474 48.7585C171.814 50.4585 170.904 51.7485 169.744 52.6285C168.604 53.5285 167.294 53.9285 165.814 53.8285V51.3985C167.654 51.5385 169.004 50.5185 169.864 48.3385L170.134 47.7685L163.594 32.8285H166.384L171.484 44.5885ZM192.848 45.9385C191.328 47.4585 189.458 48.2185 187.238 48.2185C185.018 48.2185 183.148 47.4585 181.628 45.9385C180.108 44.4185 179.348 42.5485 179.348 40.3285C179.348 38.1085 180.108 36.2385 181.628 34.7185C183.148 33.1985 185.018 32.4385 187.238 32.4385C189.458 32.4385 191.328 33.1985 192.848 34.7185C194.388 36.2585 195.158 38.1285 195.158 40.3285C195.158 42.5285 194.388 44.3985 192.848 45.9385ZM187.238 45.6685C188.738 45.6685 189.998 45.1585 191.018 44.1385C192.038 43.1185 192.548 41.8485 192.548 40.3285C192.548 38.8085 192.038 37.5385 191.018 36.5185C189.998 35.4985 188.738 34.9885 187.238 34.9885C185.758 34.9885 184.508 35.4985 183.488 36.5185C182.468 37.5385 181.958 38.8085 181.958 40.3285C181.958 41.8485 182.468 43.1185 183.488 44.1385C184.508 45.1585 185.758 45.6685 187.238 45.6685ZM208.584 40.7785V32.8285H211.194V47.8285H208.584V45.6685C207.544 47.3685 205.924 48.2185 203.724 48.2185C201.964 48.2185 200.554 47.6685 199.494 46.5685C198.434 45.4485 197.904 43.9385 197.904 42.0385V32.8285H200.514V41.8885C200.514 43.0885 200.844 44.0285 201.504 44.7085C202.164 45.3885 203.074 45.7285 204.234 45.7285C205.574 45.7285 206.634 45.3185 207.414 44.4985C208.194 43.6585 208.584 42.4185 208.584 40.7785ZM217.778 32.8285V35.3485C218.638 33.4885 220.198 32.5585 222.458 32.5585V35.2885C221.178 35.2285 220.078 35.5685 219.158 36.3085C218.238 37.0485 217.778 38.2385 217.778 39.8785V47.8285H215.168V32.8285H217.778ZM246.882 44.2585L250.182 32.8285H252.912L248.262 47.8285H245.592L242.082 36.7285L238.572 47.8285H235.902L231.252 32.8285H233.982L237.282 44.2285L240.822 32.8285H243.342L246.882 44.2585ZM267.672 45.9385C266.152 47.4585 264.282 48.2185 262.062 48.2185C259.842 48.2185 257.972 47.4585 256.452 45.9385C254.932 44.4185 254.172 42.5485 254.172 40.3285C254.172 38.1085 254.932 36.2385 256.452 34.7185C257.972 33.1985 259.842 32.4385 262.062 32.4385C264.282 32.4385 266.152 33.1985 267.672 34.7185C269.212 36.2585 269.982 38.1285 269.982 40.3285C269.982 42.5285 269.212 44.3985 267.672 45.9385ZM262.062 45.6685C263.562 45.6685 264.822 45.1585 265.842 44.1385C266.862 43.1185 267.372 41.8485 267.372 40.3285C267.372 38.8085 266.862 37.5385 265.842 36.5185C264.822 35.4985 263.562 34.9885 262.062 34.9885C260.582 34.9885 259.332 35.4985 258.312 36.5185C257.292 37.5385 256.782 38.8085 256.782 40.3285C256.782 41.8485 257.292 43.1185 258.312 44.1385C259.332 45.1585 260.582 45.6685 262.062 45.6685ZM275.669 32.8285V35.3485C276.529 33.4885 278.089 32.5585 280.349 32.5585V35.2885C279.069 35.2285 277.969 35.5685 277.049 36.3085C276.129 37.0485 275.669 38.2385 275.669 39.8785V47.8285H273.059V32.8285H275.669ZM288.182 40.0885L295.592 47.8285H292.352L285.512 40.7185V47.8285H282.902V26.8285H285.512V39.4585L291.992 32.8285H295.352L288.182 40.0885ZM305.73 26.4385C306.95 26.4385 308.35 26.5885 309.93 26.8885V47.8285H307.32V28.8385C306.36 28.7985 305.83 28.7785 305.73 28.7785C304.37 28.7785 303.37 29.0685 302.73 29.6485C302.09 30.2085 301.77 31.1185 301.77 32.3785V32.8285H304.89V35.3485H301.77V47.8285H299.16V35.3485H296.76V32.8285H299.16V32.3785C299.16 28.4185 301.35 26.4385 305.73 26.4385ZM326.588 45.9385C325.068 47.4585 323.198 48.2185 320.978 48.2185C318.758 48.2185 316.888 47.4585 315.368 45.9385C313.848 44.4185 313.088 42.5485 313.088 40.3285C313.088 38.1085 313.848 36.2385 315.368 34.7185C316.888 33.1985 318.758 32.4385 320.978 32.4385C323.198 32.4385 325.068 33.1985 326.588 34.7185C328.128 36.2585 328.898 38.1285 328.898 40.3285C328.898 42.5285 328.128 44.3985 326.588 45.9385ZM320.978 45.6685C322.478 45.6685 323.738 45.1585 324.758 44.1385C325.778 43.1185 326.288 41.8485 326.288 40.3285C326.288 38.8085 325.778 37.5385 324.758 36.5185C323.738 35.4985 322.478 34.9885 320.978 34.9885C319.498 34.9885 318.248 35.4985 317.228 36.5185C316.208 37.5385 315.698 38.8085 315.698 40.3285C315.698 41.8485 316.208 43.1185 317.228 44.1385C318.248 45.1585 319.498 45.6685 320.978 45.6685ZM345.759 44.2585L349.059 32.8285H351.789L347.139 47.8285H344.469L340.959 36.7285L337.449 47.8285H334.779L330.129 32.8285H332.859L336.159 44.2285L339.699 32.8285H342.219L345.759 44.2585ZM376.345 44.2585L379.645 32.8285H382.375L377.725 47.8285H375.055L371.545 36.7285L368.035 47.8285H365.365L360.715 32.8285H363.445L366.745 44.2285L370.285 32.8285H372.805L376.345 44.2585ZM386.381 30.0985C385.881 30.0985 385.461 29.9285 385.121 29.5885C384.781 29.2485 384.611 28.8385 384.611 28.3585C384.611 27.8785 384.781 27.4685 385.121 27.1285C385.461 26.7685 385.881 26.5885 386.381 26.5885C386.861 26.5885 387.271 26.7685 387.611 27.1285C387.951 27.4685 388.121 27.8785 388.121 28.3585C388.121 28.8385 387.951 29.2485 387.611 29.5885C387.271 29.9285 386.861 30.0985 386.381 30.0985ZM387.671 47.8285H385.061V32.8285H387.671V47.8285ZM399.812 32.8285V35.3485H395.822V43.4785C395.822 44.2185 395.962 44.7485 396.242 45.0685C396.542 45.3685 396.992 45.5285 397.592 45.5485C398.192 45.5485 398.932 45.5285 399.812 45.4885V47.8285C397.512 48.1285 395.832 47.9385 394.772 47.2585C393.732 46.5785 393.212 45.3185 393.212 43.4785V35.3485H390.242V32.8285H393.212V29.4085L395.822 28.6285V32.8285H399.812ZM410.372 32.4385C412.132 32.4385 413.542 32.9985 414.602 34.1185C415.662 35.2185 416.192 36.7185 416.192 38.6185V47.8285H413.582V38.7685C413.582 37.5685 413.252 36.6285 412.592 35.9485C411.932 35.2685 411.022 34.9285 409.862 34.9285C408.522 34.9285 407.462 35.3485 406.682 36.1885C405.902 37.0085 405.512 38.2385 405.512 39.8785V47.8285H402.902V26.8285H405.512V34.9885C406.552 33.2885 408.172 32.4385 410.372 32.4385ZM178.367 84.8285H173.867L172.607 81.0485H164.237L162.977 84.8285H158.507L165.857 63.8285H170.987L178.367 84.8285ZM168.437 68.5985L165.557 77.1785H171.317L168.437 68.5985ZM180.407 84.8285V63.8285H184.547V84.8285H180.407ZM213.934 84.8285H209.434L208.174 81.0485H199.804L198.544 84.8285H194.074L201.424 63.8285H206.554L213.934 84.8285ZM204.004 68.5985L201.124 77.1785H206.884L204.004 68.5985ZM226.873 71.6885V69.8285H230.653V84.1085C230.653 86.4085 229.883 88.1785 228.343 89.4185C226.823 90.6385 224.983 91.2485 222.823 91.2485C219.423 91.2485 217.053 90.0285 215.713 87.5885L219.013 85.6985C219.753 87.0985 221.063 87.7985 222.943 87.7985C224.163 87.7985 225.123 87.4785 225.823 86.8385C226.523 86.1985 226.873 85.2885 226.873 84.1085V82.4885C225.733 84.0085 224.133 84.7685 222.073 84.7685C219.953 84.7685 218.173 84.0285 216.733 82.5485C215.313 81.0285 214.603 79.2085 214.603 77.0885C214.603 74.9685 215.323 73.1585 216.763 71.6585C218.203 70.1585 219.973 69.4085 222.073 69.4085C224.133 69.4085 225.733 70.1685 226.873 71.6885ZM225.673 80.0585C226.473 79.2785 226.873 78.2885 226.873 77.0885C226.873 75.8885 226.473 74.9185 225.673 74.1785C224.893 73.3985 223.893 73.0085 222.673 73.0085C221.473 73.0085 220.463 73.3985 219.643 74.1785C218.863 74.9185 218.473 75.8885 218.473 77.0885C218.473 78.2885 218.863 79.2785 219.643 80.0585C220.443 80.8185 221.453 81.1985 222.673 81.1985C223.893 81.1985 224.893 80.8185 225.673 80.0585ZM248.742 78.9185H237.432C237.932 80.7985 239.342 81.7385 241.662 81.7385C243.142 81.7385 244.262 81.2385 245.022 80.2385L248.142 82.0385C246.662 84.1785 244.482 85.2485 241.602 85.2485C239.122 85.2485 237.132 84.4985 235.632 82.9985C234.132 81.4985 233.382 79.6085 233.382 77.3285C233.382 75.0885 234.122 73.2085 235.602 71.6885C237.062 70.1685 238.962 69.4085 241.302 69.4085C243.522 69.4085 245.332 70.1685 246.732 71.6885C248.172 73.2085 248.892 75.0885 248.892 77.3285C248.892 77.7485 248.842 78.2785 248.742 78.9185ZM237.372 75.9185H245.022C244.802 74.9385 244.352 74.1885 243.672 73.6685C243.012 73.1485 242.222 72.8885 241.302 72.8885C240.262 72.8885 239.402 73.1585 238.722 73.6985C238.042 74.2185 237.592 74.9585 237.372 75.9185ZM259.934 69.4085C261.594 69.4085 262.944 69.9585 263.984 71.0585C265.064 72.1785 265.604 73.6985 265.604 75.6185V84.8285H261.734V76.0985C261.734 75.1185 261.464 74.3585 260.924 73.8185C260.404 73.2785 259.684 73.0085 258.764 73.0085C257.744 73.0085 256.934 73.3285 256.334 73.9685C255.754 74.5885 255.464 75.5085 255.464 76.7285V84.8285H251.594V69.8285H255.464V71.5085C256.384 70.1085 257.874 69.4085 259.934 69.4085ZM277.488 69.8285V73.5485H274.098V79.7885C274.098 80.3085 274.228 80.6885 274.488 80.9285C274.748 81.1685 275.128 81.3085 275.628 81.3485C276.128 81.3685 276.748 81.3585 277.488 81.3185V84.8285C274.868 85.1285 272.998 84.8885 271.878 84.1085C270.778 83.3085 270.228 81.8685 270.228 79.7885V73.5485H267.618V69.8285H270.228V66.7985L274.098 65.6285V69.8285H277.488ZM283.465 74.0885C283.465 74.7285 284.375 75.2785 286.195 75.7385C286.835 75.8785 287.415 76.0485 287.935 76.2485C288.455 76.4285 288.975 76.6985 289.495 77.0585C290.035 77.3985 290.455 77.8585 290.755 78.4385C291.055 79.0185 291.205 79.6885 291.205 80.4485C291.205 81.9885 290.625 83.1785 289.465 84.0185C288.305 84.8385 286.875 85.2485 285.175 85.2485C282.095 85.2485 279.995 84.0585 278.875 81.6785L282.235 79.7885C282.695 81.0885 283.675 81.7385 285.175 81.7385C286.555 81.7385 287.245 81.3085 287.245 80.4485C287.245 79.8085 286.335 79.2585 284.515 78.7985C283.835 78.6185 283.255 78.4385 282.775 78.2585C282.295 78.0785 281.775 77.8185 281.215 77.4785C280.655 77.1185 280.225 76.6685 279.925 76.1285C279.645 75.5685 279.505 74.9185 279.505 74.1785C279.505 72.6985 280.045 71.5385 281.125 70.6985C282.225 69.8385 283.585 69.4085 285.205 69.4085C286.425 69.4085 287.535 69.6885 288.535 70.2485C289.535 70.7885 290.325 71.5685 290.905 72.5885L287.605 74.3885C287.125 73.3685 286.325 72.8585 285.205 72.8585C284.705 72.8585 284.285 72.9785 283.945 73.2185C283.625 73.4385 283.465 73.7285 283.465 74.0885Z" fill="white"/>
</g>
<rect x="1.24365" y="0.5" width="448" height="204" rx="9.5" stroke="black" stroke-opacity="0.1"/>
<defs>
<clipPath id="clip0_5913_18501">
<rect x="0.743652" width="449" height="205" rx="10" fill="white"/>
</clipPath>
</defs>
</svg>
