<svg width="295" height="415" viewBox="0 0 295 415" fill="none" xmlns="http://www.w3.org/2000/svg">
<g clip-path="url(#clip0_2439_16100)">
<rect x="0.22876" width="294" height="414.317" rx="5" fill="white"/>
<path d="M186.286 205.213C186.286 227.476 168.238 245.523 145.974 245.523C123.71 245.523 105.662 227.476 105.662 205.213C105.662 182.95 123.71 164.903 145.974 164.903C168.238 164.903 186.286 182.95 186.286 205.213Z" stroke="#EEEEEE" stroke-width="1.38371"/>
<path d="M214.294 205.213C214.294 242.944 183.706 273.53 145.974 273.53C108.242 273.53 77.6536 242.944 77.6536 205.213C77.6536 167.483 108.242 136.896 145.974 136.896C183.706 136.896 214.294 167.483 214.294 205.213Z" stroke="#EEEEEE" stroke-width="1.38371"/>
<path d="M248.144 205.213C248.144 261.638 202.401 307.379 145.974 307.379C89.5469 307.379 43.8037 261.638 43.8037 205.213C43.8037 148.788 89.5469 103.047 145.974 103.047C202.401 103.047 248.144 148.788 248.144 205.213Z" stroke="url(#paint0_linear_2439_16100)" stroke-width="1.38371"/>
<path d="M278.048 205.213C278.048 278.152 218.917 337.28 145.975 337.28C73.0328 337.28 13.9018 278.152 13.9018 205.213C13.9018 132.275 73.0328 73.1463 145.975 73.1463C218.917 73.1463 278.048 132.275 278.048 205.213Z" stroke="url(#paint1_linear_2439_16100)" stroke-width="1.38371"/>
<path d="M305.856 205.213C305.856 293.509 234.275 365.088 145.975 365.088C57.6741 365.088 -13.9074 293.509 -13.9074 205.213C-13.9074 116.917 57.6741 45.3384 145.975 45.3384C234.275 45.3384 305.856 116.917 305.856 205.213Z" stroke="url(#paint2_linear_2439_16100)" stroke-width="1.38371"/>
<rect x="17.2332" y="248.131" width="25.8787" height="26.091" rx="5.35252" fill="#F1F1F1"/>
<path d="M24.6592 259.339C24.6592 257.606 24.6592 256.74 25.1974 256.202C25.7357 255.663 26.602 255.663 28.3346 255.663H32.0101C33.7427 255.663 34.609 255.663 35.1473 256.202C35.6855 256.74 35.6855 257.606 35.6855 259.339V262.402C35.6855 263.557 35.6855 264.134 35.3267 264.493C34.9678 264.852 34.3903 264.852 33.2352 264.852H27.1095C25.9544 264.852 25.3769 264.852 25.018 264.493C24.6592 264.134 24.6592 263.557 24.6592 262.402V259.339Z" stroke="#707072" stroke-width="0.918864"/>
<path d="M36.2988 266.69H24.0472" stroke="#707072" stroke-width="0.918864" stroke-linecap="round"/>
<path d="M32.0104 263.014H28.335" stroke="#707072" stroke-width="0.918864" stroke-linecap="round"/>
<rect x="56.6718" y="50.3136" width="25.8787" height="26.091" rx="5.35252" fill="#F1F1F1"/>
<g clip-path="url(#clip1_2439_16100)">
<path d="M64.0978 61.5213C64.0978 59.7887 64.0978 58.9224 64.636 58.3842C65.1743 57.8459 66.0406 57.8459 67.7732 57.8459H71.4487C73.1813 57.8459 74.0476 57.8459 74.5859 58.3842C75.1241 58.9224 75.1241 59.7887 75.1241 61.5213V64.5842C75.1241 65.7393 75.1241 66.3168 74.7653 66.6757C74.4064 67.0345 73.8289 67.0345 72.6738 67.0345H66.5481C65.393 67.0345 64.8155 67.0345 64.4566 66.6757C64.0978 66.3168 64.0978 65.7393 64.0978 64.5842V61.5213Z" stroke="#707072" stroke-width="0.918864"/>
<path d="M75.7372 68.8723H63.4857" stroke="#707072" stroke-width="0.918864" stroke-linecap="round"/>
<path d="M71.4489 65.1968H67.7734" stroke="#707072" stroke-width="0.918864" stroke-linecap="round"/>
</g>
<rect x="248.892" y="253.826" width="25.8787" height="26.091" rx="5.35252" fill="#F1F1F1"/>
<path d="M263.669 271.159L264.894 272.384L267.344 269.934M262.444 261.358H259.503C258.817 261.358 258.474 261.358 258.212 261.491C257.981 261.609 257.794 261.796 257.677 262.027C257.543 262.289 257.543 262.632 257.543 263.318V270.424C257.543 271.11 257.543 271.453 257.677 271.715C257.794 271.946 257.981 272.133 258.212 272.251C258.474 272.384 258.817 272.384 259.503 272.384H261.831M262.444 261.358L266.119 265.033M262.444 261.358V264.053C262.444 264.396 262.444 264.568 262.51 264.699C262.569 264.814 262.663 264.908 262.778 264.967C262.909 265.033 263.081 265.033 263.424 265.033H266.119M266.119 265.033V267.79" stroke="#707072" stroke-width="1.22515" stroke-linecap="round" stroke-linejoin="round"/>
<rect x="214.986" y="52.1513" width="25.8787" height="26.091" rx="5.35252" fill="#F1F1F1"/>
<path d="M229.762 69.4849L230.988 70.71L233.438 68.2597M228.537 59.6837H225.597C224.911 59.6837 224.568 59.6837 224.306 59.8172C224.075 59.9346 223.888 60.1221 223.77 60.3526C223.637 60.6147 223.637 60.9578 223.637 61.6439V68.7498C223.637 69.4359 223.637 69.779 223.77 70.0411C223.888 70.2716 224.075 70.459 224.306 70.5765C224.568 70.71 224.911 70.71 225.597 70.71H227.925M228.537 59.6837L232.213 63.3591M228.537 59.6837V62.379C228.537 62.7221 228.537 62.8936 228.604 63.0246C228.663 63.1399 228.757 63.2336 228.872 63.2923C229.003 63.3591 229.174 63.3591 229.517 63.3591H232.213M232.213 63.3591V66.1157" stroke="#707072" stroke-width="1.22515" stroke-linecap="round" stroke-linejoin="round"/>
<rect x="76.962" y="151.166" width="25.8787" height="26.091" rx="5.35252" fill="#F1F1F1"/>
<path d="M95.2734 160.3C95.2732 160.631 95.1417 160.948 94.9077 161.182C94.6737 161.416 94.3563 161.548 94.0253 161.549H93.6338V168.045C93.6334 168.376 93.5017 168.693 93.2678 168.927C93.0338 169.161 92.7166 169.293 92.3857 169.293H85.7768C85.6129 169.293 85.4505 169.261 85.299 169.198C85.1476 169.136 85.0099 169.044 84.894 168.928C84.7781 168.812 84.6861 168.674 84.6234 168.523C84.5606 168.371 84.5283 168.209 84.5283 168.045C84.5283 167.881 84.5606 167.719 84.6234 167.567C84.6861 167.416 84.7781 167.278 84.894 167.162C85.0099 167.046 85.1476 166.954 85.299 166.891C85.4505 166.829 85.6129 166.796 85.7768 166.796H86.1676V160.3C86.1676 159.968 86.2991 159.651 86.5333 159.416C86.7675 159.182 87.0852 159.05 87.4165 159.05H94.0245C94.3557 159.05 94.6732 159.182 94.9074 159.416C95.1416 159.65 95.2732 159.968 95.2734 160.299V160.3ZM85.7768 168.436H91.1987C91.115 168.182 91.115 167.908 91.1987 167.655H85.7784C85.6747 167.655 85.5753 167.696 85.5021 167.769C85.4288 167.842 85.3876 167.942 85.3876 168.045C85.3876 168.149 85.4288 168.248 85.5021 168.322C85.5753 168.395 85.6747 168.436 85.7784 168.436H85.7768ZM92.7757 160.3C92.7755 160.167 92.7964 160.035 92.8376 159.909H87.4172C87.3302 159.909 87.2457 159.938 87.1774 159.992L87.1758 159.993C87.1291 160.029 87.0913 160.076 87.0654 160.129C87.0395 160.182 87.0262 160.241 87.0265 160.3V166.796H91.9299C92.0368 166.795 92.1409 166.83 92.2252 166.896C92.3096 166.962 92.3691 167.054 92.3942 167.158C92.4236 167.257 92.4206 167.363 92.3857 167.461C92.3508 167.559 92.2857 167.643 92.2 167.701C92.1393 167.734 92.0885 167.782 92.0526 167.841C92.0168 167.9 91.9972 167.967 91.9958 168.036C91.9944 168.105 92.0113 168.174 92.0447 168.234C92.0782 168.294 92.127 168.345 92.1863 168.38C92.2455 168.415 92.3131 168.434 92.382 168.435C92.451 168.436 92.519 168.418 92.579 168.384C92.639 168.35 92.689 168.301 92.7238 168.242C92.7586 168.182 92.777 168.114 92.7772 168.045L92.7757 160.3ZM92.1102 161.412H87.6532V162.269H92.1102V161.412ZM92.1102 163.161H87.6532V164.018H92.1102V163.161ZM92.1102 164.91H87.6532V165.767H92.1102V164.91ZM94.4153 160.3C94.4151 160.196 94.3739 160.097 94.3006 160.024C94.2274 159.95 94.1281 159.909 94.0245 159.909C93.9375 159.909 93.8529 159.938 93.7847 159.992H93.7831C93.7362 160.028 93.6982 160.075 93.6722 160.128C93.6462 160.182 93.6328 160.24 93.633 160.3V160.691H94.0245C94.1281 160.69 94.2274 160.649 94.3006 160.576C94.3739 160.503 94.4151 160.403 94.4153 160.3Z" fill="#707072"/>
<rect x="242.079" y="118.796" width="25.8787" height="26.091" rx="5.35252" fill="#F1F1F1"/>
<g clip-path="url(#clip2_2439_16100)">
<path d="M257.908 136.59L257.516 133.451C257.401 132.532 256.619 131.841 255.692 131.841H255.018H254.343C253.416 131.841 252.634 132.532 252.519 133.451L252.127 136.59C252.035 137.321 252.606 137.967 253.343 137.967H255.018H256.693C257.43 137.967 258 137.321 257.908 136.59Z" stroke="#707072" stroke-width="1.22515" stroke-linecap="round" stroke-linejoin="round"/>
<path d="M255.017 129.391C256.032 129.391 256.855 128.568 256.855 127.553C256.855 126.538 256.032 125.716 255.017 125.716C254.002 125.716 253.179 126.538 253.179 127.553C253.179 128.568 254.002 129.391 255.017 129.391Z" stroke="#707072" stroke-width="1.22515"/>
<path d="M250.117 131.229C250.793 131.229 251.342 130.68 251.342 130.004C251.342 129.327 250.793 128.779 250.117 128.779C249.44 128.779 248.892 129.327 248.892 130.004C248.892 130.68 249.44 131.229 250.117 131.229Z" stroke="#707072" stroke-width="1.22515"/>
<path d="M259.918 131.229C260.595 131.229 261.143 130.68 261.143 130.004C261.143 129.327 260.595 128.779 259.918 128.779C259.241 128.779 258.693 129.327 258.693 130.004C258.693 130.68 259.241 131.229 259.918 131.229Z" stroke="#707072" stroke-width="1.22515"/>
<path d="M250.116 133.067H249.929C249.33 133.067 248.819 133.5 248.721 134.09L248.516 135.315C248.392 136.062 248.968 136.742 249.725 136.742H251.954" stroke="#707072" stroke-width="1.22515" stroke-linecap="round" stroke-linejoin="round"/>
<path d="M259.918 133.067H260.105C260.704 133.067 261.215 133.5 261.314 134.09L261.518 135.315C261.642 136.062 261.067 136.742 260.309 136.742C259.598 136.742 258.751 136.742 258.08 136.742" stroke="#707072" stroke-width="1.22515" stroke-linecap="round" stroke-linejoin="round"/>
</g>
<rect x="111.62" y="256.092" width="25.8787" height="26.091" rx="5.35252" fill="#F1F1F1"/>
<path d="M124.559 272.2V274.65M122.109 274.65H127.01M121.006 272.2H128.112C128.798 272.2 129.141 272.2 129.403 272.066C129.634 271.949 129.821 271.762 129.939 271.531C130.072 271.269 130.072 270.926 130.072 270.24V265.584C130.072 264.898 130.072 264.555 129.939 264.293C129.821 264.062 129.634 263.875 129.403 263.757C129.141 263.624 128.798 263.624 128.112 263.624H121.006C120.32 263.624 119.977 263.624 119.715 263.757C119.484 263.875 119.297 264.062 119.18 264.293C119.046 264.555 119.046 264.898 119.046 265.584V270.24C119.046 270.926 119.046 271.269 119.18 271.531C119.297 271.762 119.484 271.949 119.715 272.066C119.977 272.2 120.32 272.2 121.006 272.2Z" stroke="#707072" stroke-width="1.22515" stroke-linecap="round"/>
<rect x="202.046" y="179.122" width="25.8787" height="26.091" rx="5.35252" fill="#F1F1F1"/>
<path fill-rule="evenodd" clip-rule="evenodd" d="M209.215 188.561C209.215 187.366 210.184 186.397 211.379 186.397H214.986H218.592C219.787 186.397 220.756 187.366 220.756 188.561V192.168V195.774C220.756 196.969 219.787 197.938 218.592 197.938H214.986H211.379C210.184 197.938 209.215 196.969 209.215 195.774V192.168V188.561ZM211.379 187.84C210.981 187.84 210.658 188.163 210.658 188.561V191.446H214.264V187.84H211.379ZM215.707 187.84V191.446H219.314V188.561C219.314 188.163 218.991 187.84 218.592 187.84H215.707ZM219.314 192.889H215.707V196.495H218.592C218.991 196.495 219.314 196.172 219.314 195.774V192.889ZM214.264 196.495V192.889H210.658V195.774C210.658 196.172 210.981 196.495 211.379 196.495H214.264Z" fill="#707072"/>
<rect x="131.91" y="92.7049" width="25.8787" height="26.091" rx="5.35252" fill="#F1F1F1"/>
<path fill-rule="evenodd" clip-rule="evenodd" d="M139.079 102.144C139.079 100.949 140.048 99.9797 141.243 99.9797H144.85H148.456C149.651 99.9797 150.62 100.949 150.62 102.144V105.75V109.357C150.62 110.552 149.651 111.521 148.456 111.521H144.85H141.243C140.048 111.521 139.079 110.552 139.079 109.357V105.75V102.144ZM141.243 101.422C140.845 101.422 140.522 101.745 140.522 102.144V105.029H144.128V101.422H141.243ZM145.571 101.422V105.029H149.178V102.144C149.178 101.745 148.855 101.422 148.456 101.422H145.571ZM149.178 106.472H145.571V110.078H148.456C148.855 110.078 149.178 109.755 149.178 109.357V106.472ZM144.128 110.078V106.472H140.522V109.357C140.522 109.755 140.845 110.078 141.243 110.078H144.128Z" fill="#707072"/>
<rect x="-14.5992" y="133.655" width="25.8787" height="26.091" rx="5.35252" fill="#F1F1F1"/>
<g clip-path="url(#clip3_2439_16100)">
<path fill-rule="evenodd" clip-rule="evenodd" d="M2.28769 148.38L-3.29862 152.157C-4.65984 153.077 -6.50354 152.11 -6.50354 150.478V142.924C-6.50354 141.29 -4.65984 140.324 -3.29862 141.245L2.28769 145.021C3.4813 145.829 3.4813 147.573 2.28769 148.38Z" fill="#707072"/>
</g>
<path d="M105.634 325.467V316.35H107.841V329.786H106.113L99.7796 320.669V329.786H97.5723V316.35H99.2997L105.634 325.467ZM118.509 328.576C117.536 329.549 116.34 330.035 114.919 330.035C113.499 330.035 112.303 329.549 111.33 328.576C110.345 327.591 109.852 326.395 109.852 324.987C109.852 323.58 110.345 322.383 111.33 321.398C112.303 320.425 113.499 319.939 114.919 319.939C116.34 319.939 117.536 320.425 118.509 321.398C119.494 322.383 119.987 323.58 119.987 324.987C119.987 326.395 119.494 327.591 118.509 328.576ZM111.925 324.987C111.925 325.857 112.213 326.58 112.789 327.156C113.365 327.732 114.075 328.02 114.919 328.02C115.764 328.02 116.474 327.732 117.05 327.156C117.626 326.58 117.914 325.857 117.914 324.987C117.914 324.117 117.626 323.394 117.05 322.818C116.474 322.242 115.764 321.955 114.919 321.955C114.075 321.955 113.365 322.242 112.789 322.818C112.213 323.394 111.925 324.117 111.925 324.987ZM128.617 318.365C128.361 318.621 128.054 318.749 127.696 318.749C127.338 318.749 127.024 318.621 126.755 318.365C126.499 318.097 126.371 317.783 126.371 317.425C126.371 317.067 126.499 316.76 126.755 316.504C127.011 316.235 127.325 316.101 127.696 316.101C128.067 316.101 128.38 316.235 128.636 316.504C128.892 316.76 129.02 317.067 129.02 317.425C129.02 317.783 128.886 318.097 128.617 318.365ZM128.732 329.786H126.659V320.189H128.732V329.786ZM132.945 322.837C132.945 323.132 133.098 323.375 133.405 323.567C133.712 323.746 134.16 323.919 134.749 324.085C135.197 324.187 135.587 324.296 135.92 324.411C136.252 324.526 136.604 324.699 136.975 324.93C137.346 325.147 137.628 325.441 137.82 325.812C138.024 326.171 138.12 326.593 138.108 327.079C138.108 328.001 137.749 328.723 137.033 329.248C136.316 329.773 135.427 330.035 134.365 330.035C133.418 330.035 132.606 329.837 131.927 329.44C131.249 329.043 130.757 328.493 130.449 327.789L132.234 326.753C132.554 327.674 133.265 328.135 134.365 328.135C135.453 328.135 135.996 327.777 135.996 327.06C135.996 326.535 135.389 326.126 134.173 325.832C133.712 325.716 133.322 325.601 133.002 325.486C132.695 325.371 132.35 325.205 131.966 324.987C131.595 324.77 131.307 324.482 131.102 324.123C130.91 323.765 130.821 323.349 130.833 322.876C130.833 321.993 131.166 321.283 131.831 320.745C132.51 320.208 133.348 319.939 134.346 319.939C135.139 319.939 135.843 320.118 136.457 320.477C137.084 320.822 137.564 321.308 137.897 321.935L136.15 322.914C135.83 322.185 135.229 321.82 134.346 321.82C133.936 321.82 133.597 321.91 133.328 322.089C133.073 322.268 132.945 322.518 132.945 322.837ZM141.211 322.837C141.211 323.132 141.364 323.375 141.671 323.567C141.978 323.746 142.426 323.919 143.015 324.085C143.463 324.187 143.853 324.296 144.186 324.411C144.518 324.526 144.87 324.699 145.241 324.93C145.612 325.147 145.894 325.441 146.086 325.812C146.29 326.171 146.386 326.593 146.374 327.079C146.374 328.001 146.015 328.723 145.299 329.248C144.582 329.773 143.693 330.035 142.631 330.035C141.684 330.035 140.871 329.837 140.193 329.44C139.515 329.043 139.023 328.493 138.715 327.789L140.5 326.753C140.82 327.674 141.53 328.135 142.631 328.135C143.719 328.135 144.262 327.777 144.262 327.06C144.262 326.535 143.655 326.126 142.439 325.832C141.978 325.716 141.588 325.601 141.268 325.486C140.961 325.371 140.616 325.205 140.232 324.987C139.861 324.77 139.573 324.482 139.368 324.123C139.176 323.765 139.086 323.349 139.099 322.876C139.099 321.993 139.432 321.283 140.097 320.745C140.776 320.208 141.614 319.939 142.612 319.939C143.405 319.939 144.109 320.118 144.723 320.477C145.35 320.822 145.83 321.308 146.162 321.935L144.416 322.914C144.096 322.185 143.495 321.82 142.612 321.82C142.202 321.82 141.863 321.91 141.594 322.089C141.339 322.268 141.211 322.518 141.211 322.837ZM154.552 325.333V320.189H156.624V329.786H154.552V328.557C153.912 329.542 152.92 330.035 151.577 330.035C150.463 330.035 149.568 329.683 148.889 328.979C148.224 328.263 147.891 327.297 147.891 326.081V320.189H149.964V325.87C149.964 326.587 150.156 327.137 150.54 327.521C150.924 327.905 151.449 328.096 152.114 328.096C152.869 328.096 153.464 327.866 153.899 327.406C154.334 326.932 154.552 326.241 154.552 325.333ZM168.319 325.87H160.68C160.833 326.587 161.179 327.143 161.716 327.54C162.267 327.937 162.945 328.135 163.751 328.135C164.838 328.135 165.664 327.738 166.227 326.945L167.935 327.943C167.001 329.338 165.6 330.035 163.732 330.035C162.183 330.035 160.923 329.562 159.95 328.615C158.991 327.655 158.511 326.446 158.511 324.987C158.511 323.567 158.984 322.37 159.931 321.398C160.865 320.425 162.081 319.939 163.578 319.939C164.973 319.939 166.124 320.432 167.033 321.417C167.941 322.402 168.396 323.599 168.396 325.006C168.396 325.262 168.37 325.55 168.319 325.87ZM160.661 324.181H166.304C166.163 323.426 165.843 322.844 165.344 322.434C164.858 322.025 164.263 321.82 163.559 321.82C162.791 321.82 162.151 322.031 161.64 322.454C161.128 322.876 160.801 323.452 160.661 324.181ZM171.707 322.837C171.707 323.132 171.86 323.375 172.167 323.567C172.474 323.746 172.922 323.919 173.511 324.085C173.959 324.187 174.349 324.296 174.682 324.411C175.014 324.526 175.366 324.699 175.737 324.93C176.108 325.147 176.39 325.441 176.582 325.812C176.786 326.171 176.882 326.593 176.87 327.079C176.87 328.001 176.511 328.723 175.795 329.248C175.078 329.773 174.189 330.035 173.127 330.035C172.18 330.035 171.367 329.837 170.689 329.44C170.011 329.043 169.518 328.493 169.211 327.789L170.996 326.753C171.316 327.674 172.026 328.135 173.127 328.135C174.214 328.135 174.758 327.777 174.758 327.06C174.758 326.535 174.15 326.126 172.935 325.832C172.474 325.716 172.084 325.601 171.764 325.486C171.457 325.371 171.112 325.205 170.728 324.987C170.357 324.77 170.069 324.482 169.864 324.123C169.672 323.765 169.582 323.349 169.595 322.876C169.595 321.993 169.928 321.283 170.593 320.745C171.271 320.208 172.11 319.939 173.108 319.939C173.901 319.939 174.605 320.118 175.219 320.477C175.846 320.822 176.326 321.308 176.658 321.935L174.912 322.914C174.592 322.185 173.991 321.82 173.108 321.82C172.698 321.82 172.359 321.91 172.09 322.089C171.834 322.268 171.707 322.518 171.707 322.837ZM187.502 327.156L189.958 320.189H192.166L188.48 330.093C187.559 332.575 185.998 333.752 183.797 333.624V331.686C184.437 331.724 184.955 331.59 185.352 331.283C185.749 330.976 186.081 330.483 186.35 329.805L186.446 329.613L182.377 320.189H184.642L187.502 327.156ZM202.357 325.87H194.718C194.872 326.587 195.217 327.143 195.755 327.54C196.305 327.937 196.983 328.135 197.789 328.135C198.877 328.135 199.702 327.738 200.265 326.945L201.974 327.943C201.039 329.338 199.638 330.035 197.77 330.035C196.222 330.035 194.961 329.562 193.989 328.615C193.029 327.655 192.549 326.446 192.549 324.987C192.549 323.567 193.023 322.37 193.97 321.398C194.904 320.425 196.119 319.939 197.617 319.939C199.011 319.939 200.163 320.432 201.071 321.417C201.98 322.402 202.434 323.599 202.434 325.006C202.434 325.262 202.409 325.55 202.357 325.87ZM194.699 324.181H200.342C200.201 323.426 199.881 322.844 199.382 322.434C198.896 322.025 198.301 321.82 197.597 321.82C196.83 321.82 196.19 322.031 195.678 322.454C195.166 322.876 194.84 323.452 194.699 324.181ZM209.313 320.189V322.185H206.933V326.791C206.933 327.188 207.023 327.476 207.202 327.655C207.381 327.821 207.643 327.917 207.989 327.943C208.347 327.956 208.789 327.949 209.313 327.924V329.786C207.727 329.977 206.588 329.843 205.897 329.382C205.206 328.909 204.86 328.045 204.86 326.791V322.185H203.095V320.189H204.86V318.116L206.933 317.502V320.189H209.313Z" fill="black"/>
<path d="M25.2762 356.513V350.734H26.3057V358.483H25.4754L21.4904 352.694V358.483H20.4609V350.734H21.2911L25.2762 356.513ZM32.5349 357.786C31.9741 358.347 31.2841 358.627 30.4649 358.627C29.6458 358.627 28.9558 358.347 28.3949 357.786C27.834 357.225 27.5536 356.535 27.5536 355.716C27.5536 354.897 27.834 354.207 28.3949 353.646C28.9558 353.085 29.6458 352.804 30.4649 352.804C31.2841 352.804 31.9741 353.085 32.5349 353.646C33.1032 354.214 33.3873 354.904 33.3873 355.716C33.3873 356.528 33.1032 357.218 32.5349 357.786ZM30.4649 357.686C31.0184 357.686 31.4833 357.498 31.8597 357.122C32.2361 356.745 32.4243 356.277 32.4243 355.716C32.4243 355.155 32.2361 354.686 31.8597 354.31C31.4833 353.934 31.0184 353.745 30.4649 353.745C29.9188 353.745 29.4576 353.934 29.0812 354.31C28.7048 354.686 28.5167 355.155 28.5167 355.716C28.5167 356.277 28.7048 356.745 29.0812 357.122C29.4576 357.498 29.9188 357.686 30.4649 357.686ZM37.7771 351.941C37.5926 351.941 37.4377 351.878 37.3122 351.753C37.1867 351.627 37.124 351.476 37.124 351.299C37.124 351.122 37.1867 350.971 37.3122 350.845C37.4377 350.712 37.5926 350.646 37.7771 350.646C37.9542 350.646 38.1055 350.712 38.231 350.845C38.3564 350.971 38.4192 351.122 38.4192 351.299C38.4192 351.476 38.3564 351.627 38.231 351.753C38.1055 351.878 37.9542 351.941 37.7771 351.941ZM38.2531 358.483H37.2901V352.948H38.2531V358.483ZM40.5418 354.443C40.5418 354.797 40.9071 355.074 41.6377 355.273C41.9107 355.332 42.1395 355.395 42.324 355.461C42.5159 355.52 42.7225 355.612 42.9439 355.738C43.1727 355.863 43.3461 356.029 43.4642 356.236C43.5822 356.443 43.6413 356.686 43.6413 356.967C43.6413 357.468 43.4457 357.871 43.0546 358.173C42.6635 358.476 42.169 358.627 41.5713 358.627C41.0399 358.627 40.5787 358.513 40.1875 358.284C39.8038 358.048 39.5307 357.73 39.3684 357.332L40.1986 356.856C40.2872 357.122 40.4532 357.332 40.6968 357.487C40.9403 357.642 41.2318 357.719 41.5713 357.719C41.9033 357.719 42.169 357.657 42.3683 357.531C42.5675 357.406 42.6672 357.218 42.6672 356.967C42.6672 356.59 42.3019 356.317 41.5713 356.148C41.3277 356.081 41.1432 356.029 41.0178 355.993C40.8923 355.956 40.7189 355.889 40.4975 355.793C40.2835 355.697 40.1211 355.598 40.0104 355.494C39.8997 355.384 39.7964 355.24 39.7005 355.063C39.6119 354.878 39.5676 354.675 39.5676 354.454C39.5676 353.974 39.7521 353.579 40.1211 353.269C40.4975 352.959 40.9661 352.804 41.527 352.804C41.9771 352.804 42.3757 352.908 42.7225 353.114C43.0767 353.314 43.3424 353.594 43.5195 353.956L42.7114 354.41C42.5122 353.937 42.1174 353.701 41.527 353.701C41.2465 353.701 41.0104 353.768 40.8185 353.9C40.634 354.033 40.5418 354.214 40.5418 354.443ZM45.2658 354.443C45.2658 354.797 45.6311 355.074 46.3617 355.273C46.6348 355.332 46.8636 355.395 47.0481 355.461C47.2399 355.52 47.4466 355.612 47.668 355.738C47.8967 355.863 48.0702 356.029 48.1882 356.236C48.3063 356.443 48.3653 356.686 48.3653 356.967C48.3653 357.468 48.1698 357.871 47.7787 358.173C47.3875 358.476 46.8931 358.627 46.2953 358.627C45.764 358.627 45.3027 358.513 44.9116 358.284C44.5279 358.048 44.2548 357.73 44.0925 357.332L44.9227 356.856C45.0112 357.122 45.1773 357.332 45.4208 357.487C45.6643 357.642 45.9559 357.719 46.2953 357.719C46.6274 357.719 46.8931 357.657 47.0923 357.531C47.2916 357.406 47.3912 357.218 47.3912 356.967C47.3912 356.59 47.0259 356.317 46.2953 356.148C46.0518 356.081 45.8673 356.029 45.7418 355.993C45.6164 355.956 45.443 355.889 45.2216 355.793C45.0075 355.697 44.8452 355.598 44.7345 355.494C44.6238 355.384 44.5205 355.24 44.4245 355.063C44.336 354.878 44.2917 354.675 44.2917 354.454C44.2917 353.974 44.4762 353.579 44.8452 353.269C45.2216 352.959 45.6902 352.804 46.251 352.804C46.7012 352.804 47.0997 352.908 47.4466 353.114C47.8008 353.314 48.0665 353.594 48.2436 353.956L47.4355 354.41C47.2362 353.937 46.8414 353.701 46.251 353.701C45.9706 353.701 45.7345 353.768 45.5426 353.9C45.3581 354.033 45.2658 354.214 45.2658 354.443ZM53.2706 355.882V352.948H54.2337V358.483H53.2706V357.686C52.8868 358.313 52.2891 358.627 51.4773 358.627C50.8279 358.627 50.3076 358.424 49.9165 358.018C49.5254 357.605 49.3298 357.048 49.3298 356.347V352.948H50.2929V356.291C50.2929 356.734 50.4146 357.081 50.6582 357.332C50.9017 357.583 51.2375 357.708 51.6655 357.708C52.1599 357.708 52.5511 357.557 52.8389 357.254C53.1267 356.945 53.2706 356.487 53.2706 355.882ZM61.0133 356.159H56.3751C56.471 356.646 56.6961 357.029 57.0504 357.31C57.4046 357.583 57.8474 357.719 58.3787 357.719C59.1093 357.719 59.6407 357.45 59.9728 356.911L60.7919 357.376C60.2458 358.21 59.434 358.627 58.3566 358.627C57.4858 358.627 56.7699 358.354 56.2091 357.808C55.663 357.247 55.3899 356.55 55.3899 355.716C55.3899 354.875 55.6593 354.181 56.198 353.635C56.7367 353.081 57.4341 352.804 58.2902 352.804C59.1019 352.804 59.7624 353.092 60.2716 353.668C60.7882 354.229 61.0465 354.915 61.0465 355.727C61.0465 355.867 61.0354 356.011 61.0133 356.159ZM58.2902 353.712C57.781 353.712 57.3529 353.856 57.0061 354.144C56.6666 354.432 56.4563 354.823 56.3751 355.317H60.0724C59.9912 354.808 59.7883 354.413 59.4635 354.133C59.1388 353.852 58.7477 353.712 58.2902 353.712ZM62.7676 354.443C62.7676 354.797 63.1329 355.074 63.8635 355.273C64.1365 355.332 64.3653 355.395 64.5498 355.461C64.7417 355.52 64.9483 355.612 65.1697 355.738C65.3985 355.863 65.5719 356.029 65.69 356.236C65.8081 356.443 65.8671 356.686 65.8671 356.967C65.8671 357.468 65.6715 357.871 65.2804 358.173C64.8893 358.476 64.3948 358.627 63.7971 358.627C63.2657 358.627 62.8045 358.513 62.4134 358.284C62.0296 358.048 61.7566 357.73 61.5942 357.332L62.4244 356.856C62.513 357.122 62.679 357.332 62.9226 357.487C63.1661 357.642 63.4576 357.719 63.7971 357.719C64.1292 357.719 64.3948 357.657 64.5941 357.531C64.7933 357.406 64.893 357.218 64.893 356.967C64.893 356.59 64.5277 356.317 63.7971 356.148C63.5535 356.081 63.369 356.029 63.2436 355.993C63.1181 355.956 62.9447 355.889 62.7233 355.793C62.5093 355.697 62.3469 355.598 62.2362 355.494C62.1255 355.384 62.0222 355.24 61.9263 355.063C61.8377 354.878 61.7935 354.675 61.7935 354.454C61.7935 353.974 61.978 353.579 62.3469 353.269C62.7233 352.959 63.1919 352.804 63.7528 352.804C64.203 352.804 64.6015 352.908 64.9483 353.114C65.3025 353.314 65.5682 353.594 65.7453 353.956L64.9372 354.41C64.738 353.937 64.3432 353.701 63.7528 353.701C63.4724 353.701 63.2362 353.768 63.0443 353.9C62.8598 354.033 62.7676 354.214 62.7676 354.443ZM72.044 357.288L73.6381 352.948H74.6676L72.4093 358.826C72.1658 359.454 71.83 359.93 71.402 360.254C70.9814 360.586 70.498 360.734 69.9519 360.697V359.801C70.6308 359.852 71.129 359.476 71.4463 358.671L71.5459 358.461L69.1327 352.948H70.1622L72.044 357.288ZM80.569 356.159H75.9308C76.0267 356.646 76.2518 357.029 76.606 357.31C76.9603 357.583 77.4031 357.719 77.9344 357.719C78.665 357.719 79.1964 357.45 79.5284 356.911L80.3476 357.376C79.8015 358.21 78.9897 358.627 77.9123 358.627C77.0415 358.627 76.3256 358.354 75.7648 357.808C75.2187 357.247 74.9456 356.55 74.9456 355.716C74.9456 354.875 75.215 354.181 75.7537 353.635C76.2924 353.081 76.9898 352.804 77.8459 352.804C78.6576 352.804 79.3181 353.092 79.8273 353.668C80.3439 354.229 80.6022 354.915 80.6022 355.727C80.6022 355.867 80.5911 356.011 80.569 356.159ZM77.8459 353.712C77.3366 353.712 76.9086 353.856 76.5618 354.144C76.2223 354.432 76.012 354.823 75.9308 355.317H79.6281C79.5469 354.808 79.3439 354.413 79.0192 354.133C78.6945 353.852 78.3034 353.712 77.8459 353.712ZM84.558 352.948V353.878H83.0858V356.878C83.0858 357.151 83.1374 357.347 83.2408 357.465C83.3515 357.576 83.5175 357.635 83.7389 357.642C83.9603 357.642 84.2333 357.635 84.558 357.62V358.483C83.7094 358.594 83.0895 358.524 82.6983 358.273C82.3146 358.022 82.1227 357.557 82.1227 356.878V353.878H81.0268V352.948H82.1227V351.686L83.0858 351.399V352.948H84.558ZM86.3395 358.605C86.1402 358.605 85.9705 358.535 85.8303 358.395C85.6901 358.254 85.62 358.085 85.62 357.885C85.62 357.686 85.6901 357.516 85.8303 357.376C85.9705 357.236 86.1402 357.166 86.3395 357.166C86.5461 357.166 86.7159 357.236 86.8487 357.376C86.9889 357.516 87.059 357.686 87.059 357.885C87.059 358.085 86.9889 358.254 86.8487 358.395C86.7159 358.535 86.5461 358.605 86.3395 358.605ZM97.4885 358.483H96.3926L95.7616 356.745H92.2746L91.6437 358.483H90.5478L93.437 350.734H94.5993L97.4885 358.483ZM94.0126 351.963L92.6289 355.782H95.4074L94.0126 351.963ZM99.266 358.483H98.3029V350.402H99.266V358.483ZM101.698 358.483H100.735V350.402H101.698V358.483ZM106.765 354.443C106.765 354.797 107.13 355.074 107.861 355.273C108.134 355.332 108.363 355.395 108.547 355.461C108.739 355.52 108.946 355.612 109.167 355.738C109.396 355.863 109.569 356.029 109.688 356.236C109.806 356.443 109.865 356.686 109.865 356.967C109.865 357.468 109.669 357.871 109.278 358.173C108.887 358.476 108.392 358.627 107.795 358.627C107.263 358.627 106.802 358.513 106.411 358.284C106.027 358.048 105.754 357.73 105.592 357.332L106.422 356.856C106.511 357.122 106.677 357.332 106.92 357.487C107.164 357.642 107.455 357.719 107.795 357.719C108.127 357.719 108.392 357.657 108.592 357.531C108.791 357.406 108.891 357.218 108.891 356.967C108.891 356.59 108.525 356.317 107.795 356.148C107.551 356.081 107.367 356.029 107.241 355.993C107.116 355.956 106.942 355.889 106.721 355.793C106.507 355.697 106.345 355.598 106.234 355.494C106.123 355.384 106.02 355.24 105.924 355.063C105.835 354.878 105.791 354.675 105.791 354.454C105.791 353.974 105.976 353.579 106.345 353.269C106.721 352.959 107.19 352.804 107.75 352.804C108.201 352.804 108.599 352.908 108.946 353.114C109.3 353.314 109.566 353.594 109.743 353.956L108.935 354.41C108.736 353.937 108.341 353.701 107.75 353.701C107.47 353.701 107.234 353.768 107.042 353.9C106.857 354.033 106.765 354.214 106.765 354.443ZM112.993 357.288L114.587 352.948H115.617L113.358 358.826C113.115 359.454 112.779 359.93 112.351 360.254C111.93 360.586 111.447 360.734 110.901 360.697V359.801C111.58 359.852 112.078 359.476 112.395 358.671L112.495 358.461L110.082 352.948H111.111L112.993 357.288ZM116.905 354.443C116.905 354.797 117.27 355.074 118.001 355.273C118.274 355.332 118.503 355.395 118.687 355.461C118.879 355.52 119.086 355.612 119.307 355.738C119.536 355.863 119.709 356.029 119.828 356.236C119.946 356.443 120.005 356.686 120.005 356.967C120.005 357.468 119.809 357.871 119.418 358.173C119.027 358.476 118.532 358.627 117.935 358.627C117.403 358.627 116.942 358.513 116.551 358.284C116.167 358.048 115.894 357.73 115.732 357.332L116.562 356.856C116.651 357.122 116.817 357.332 117.06 357.487C117.304 357.642 117.595 357.719 117.935 357.719C118.267 357.719 118.532 357.657 118.732 357.531C118.931 357.406 119.031 357.218 119.031 356.967C119.031 356.59 118.665 356.317 117.935 356.148C117.691 356.081 117.507 356.029 117.381 355.993C117.256 355.956 117.082 355.889 116.861 355.793C116.647 355.697 116.485 355.598 116.374 355.494C116.263 355.384 116.16 355.24 116.064 355.063C115.975 354.878 115.931 354.675 115.931 354.454C115.931 353.974 116.116 353.579 116.485 353.269C116.861 352.959 117.329 352.804 117.89 352.804C118.341 352.804 118.739 352.908 119.086 353.114C119.44 353.314 119.706 353.594 119.883 353.956L119.075 354.41C118.876 353.937 118.481 353.701 117.89 353.701C117.61 353.701 117.374 353.768 117.182 353.9C116.997 354.033 116.905 354.214 116.905 354.443ZM123.94 352.948V353.878H122.467V356.878C122.467 357.151 122.519 357.347 122.622 357.465C122.733 357.576 122.899 357.635 123.121 357.642C123.342 357.642 123.615 357.635 123.94 357.62V358.483C123.091 358.594 122.471 358.524 122.08 358.273C121.696 358.022 121.504 357.557 121.504 356.878V353.878H120.408V352.948H121.504V351.686L122.467 351.399V352.948H123.94ZM130.112 356.159H125.474C125.57 356.646 125.795 357.029 126.149 357.31C126.504 357.583 126.946 357.719 127.478 357.719C128.208 357.719 128.74 357.45 129.072 356.911L129.891 357.376C129.345 358.21 128.533 358.627 127.456 358.627C126.585 358.627 125.869 358.354 125.308 357.808C124.762 357.247 124.489 356.55 124.489 355.716C124.489 354.875 124.758 354.181 125.297 353.635C125.836 353.081 126.533 352.804 127.389 352.804C128.201 352.804 128.861 353.092 129.371 353.668C129.887 354.229 130.145 354.915 130.145 355.727C130.145 355.867 130.134 356.011 130.112 356.159ZM127.389 353.712C126.88 353.712 126.452 353.856 126.105 354.144C125.766 354.432 125.555 354.823 125.474 355.317H129.171C129.09 354.808 128.887 354.413 128.562 354.133C128.238 353.852 127.847 353.712 127.389 353.712ZM137.23 352.804C137.857 352.804 138.359 353.007 138.736 353.413C139.119 353.819 139.311 354.362 139.311 355.041V358.483H138.348V355.074C138.348 354.653 138.237 354.325 138.016 354.089C137.802 353.845 137.507 353.723 137.13 353.723C136.702 353.723 136.367 353.867 136.123 354.155C135.887 354.435 135.769 354.852 135.769 355.406V358.483H134.806V355.074C134.806 354.653 134.699 354.325 134.485 354.089C134.278 353.845 133.994 353.723 133.632 353.723C133.212 353.723 132.869 353.871 132.603 354.166C132.345 354.454 132.216 354.867 132.216 355.406V358.483H131.252V352.948H132.216V353.69C132.592 353.1 133.142 352.804 133.865 352.804C134.61 352.804 135.153 353.118 135.492 353.745C135.876 353.118 136.455 352.804 137.23 352.804ZM141.477 354.443C141.477 354.797 141.842 355.074 142.573 355.273C142.846 355.332 143.075 355.395 143.259 355.461C143.451 355.52 143.658 355.612 143.879 355.738C144.108 355.863 144.281 356.029 144.399 356.236C144.517 356.443 144.576 356.686 144.576 356.967C144.576 357.468 144.381 357.871 143.99 358.173C143.598 358.476 143.104 358.627 142.506 358.627C141.975 358.627 141.514 358.513 141.123 358.284C140.739 358.048 140.466 357.73 140.303 357.332L141.134 356.856C141.222 357.122 141.388 357.332 141.632 357.487C141.875 357.642 142.167 357.719 142.506 357.719C142.838 357.719 143.104 357.657 143.303 357.531C143.503 357.406 143.602 357.218 143.602 356.967C143.602 356.59 143.237 356.317 142.506 356.148C142.263 356.081 142.078 356.029 141.953 355.993C141.827 355.956 141.654 355.889 141.433 355.793C141.218 355.697 141.056 355.598 140.945 355.494C140.835 355.384 140.731 355.24 140.635 355.063C140.547 354.878 140.503 354.675 140.503 354.454C140.503 353.974 140.687 353.579 141.056 353.269C141.433 352.959 141.901 352.804 142.462 352.804C142.912 352.804 143.311 352.908 143.658 353.114C144.012 353.314 144.277 353.594 144.455 353.956L143.646 354.41C143.447 353.937 143.052 353.701 142.462 353.701C142.182 353.701 141.945 353.768 141.754 353.9C141.569 354.033 141.477 354.214 141.477 354.443ZM153.067 353.9V352.948H154.03V358.483H153.067V357.531C152.595 358.262 151.897 358.627 150.975 358.627C150.192 358.627 149.532 358.347 148.993 357.786C148.447 357.218 148.174 356.528 148.174 355.716C148.174 354.911 148.447 354.225 148.993 353.657C149.539 353.089 150.2 352.804 150.975 352.804C151.897 352.804 152.595 353.17 153.067 353.9ZM151.096 357.697C151.657 357.697 152.126 357.509 152.502 357.133C152.879 356.742 153.067 356.269 153.067 355.716C153.067 355.155 152.879 354.686 152.502 354.31C152.126 353.926 151.657 353.734 151.096 353.734C150.543 353.734 150.078 353.926 149.702 354.31C149.325 354.686 149.137 355.155 149.137 355.716C149.137 356.269 149.325 356.742 149.702 357.133C150.078 357.509 150.543 357.697 151.096 357.697ZM156.452 352.948V353.878C156.769 353.192 157.345 352.849 158.179 352.849V353.856C157.707 353.834 157.301 353.959 156.961 354.232C156.622 354.506 156.452 354.945 156.452 355.55V358.483H155.489V352.948H156.452ZM164.132 356.159H159.494C159.59 356.646 159.815 357.029 160.169 357.31C160.523 357.583 160.966 357.719 161.497 357.719C162.228 357.719 162.759 357.45 163.091 356.911L163.911 357.376C163.364 358.21 162.553 358.627 161.475 358.627C160.604 358.627 159.889 358.354 159.328 357.808C158.782 357.247 158.509 356.55 158.509 355.716C158.509 354.875 158.778 354.181 159.317 353.635C159.855 353.081 160.553 352.804 161.409 352.804C162.221 352.804 162.881 353.092 163.39 353.668C163.907 354.229 164.165 354.915 164.165 355.727C164.165 355.867 164.154 356.011 164.132 356.159ZM161.409 353.712C160.9 353.712 160.472 353.856 160.125 354.144C159.785 354.432 159.575 354.823 159.494 355.317H163.191C163.11 354.808 162.907 354.413 162.582 354.133C162.258 353.852 161.866 353.712 161.409 353.712ZM169.003 352.948V353.878C169.32 353.192 169.896 352.849 170.73 352.849V353.856C170.257 353.834 169.851 353.959 169.512 354.232C169.172 354.506 169.003 354.945 169.003 355.55V358.483H168.04V352.948H169.003ZM176.683 356.159H172.044C172.14 356.646 172.365 357.029 172.72 357.31C173.074 357.583 173.517 357.719 174.048 357.719C174.779 357.719 175.31 357.45 175.642 356.911L176.461 357.376C175.915 358.21 175.103 358.627 174.026 358.627C173.155 358.627 172.439 358.354 171.878 357.808C171.332 357.247 171.059 356.55 171.059 355.716C171.059 354.875 171.329 354.181 171.867 353.635C172.406 353.081 173.103 352.804 173.96 352.804C174.771 352.804 175.432 353.092 175.941 353.668C176.458 354.229 176.716 354.915 176.716 355.727C176.716 355.867 176.705 356.011 176.683 356.159ZM173.96 353.712C173.45 353.712 173.022 353.856 172.675 354.144C172.336 354.432 172.126 354.823 172.044 355.317H175.742C175.661 354.808 175.458 354.413 175.133 354.133C174.808 353.852 174.417 353.712 173.96 353.712ZM182.395 353.9V352.948H183.358V358.483H182.395V357.531C181.923 358.262 181.225 358.627 180.303 358.627C179.521 358.627 178.86 358.347 178.321 357.786C177.775 357.218 177.502 356.528 177.502 355.716C177.502 354.911 177.775 354.225 178.321 353.657C178.867 353.089 179.528 352.804 180.303 352.804C181.225 352.804 181.923 353.17 182.395 353.9ZM180.425 357.697C180.985 357.697 181.454 357.509 181.83 357.133C182.207 356.742 182.395 356.269 182.395 355.716C182.395 355.155 182.207 354.686 181.83 354.31C181.454 353.926 180.985 353.734 180.425 353.734C179.871 353.734 179.406 353.926 179.03 354.31C178.653 354.686 178.465 355.155 178.465 355.716C178.465 356.269 178.653 356.742 179.03 357.133C179.406 357.509 179.871 357.697 180.425 357.697ZM189.4 353.9V350.734H190.363V358.483H189.4V357.531C188.928 358.262 188.23 358.627 187.308 358.627C186.526 358.627 185.865 358.347 185.326 357.786C184.78 357.218 184.507 356.528 184.507 355.716C184.507 354.911 184.78 354.225 185.326 353.657C185.872 353.089 186.533 352.804 187.308 352.804C188.23 352.804 188.928 353.17 189.4 353.9ZM187.43 357.697C187.99 357.697 188.459 357.509 188.835 357.133C189.212 356.742 189.4 356.269 189.4 355.716C189.4 355.155 189.212 354.686 188.835 354.31C188.459 353.926 187.99 353.734 187.43 353.734C186.876 353.734 186.411 353.926 186.035 354.31C185.658 354.686 185.47 355.155 185.47 355.716C185.47 356.269 185.658 356.742 186.035 357.133C186.411 357.509 186.876 357.697 187.43 357.697ZM194.091 357.288L195.685 352.948H196.715L194.457 358.826C194.213 359.454 193.877 359.93 193.449 360.254C193.029 360.586 192.545 360.734 191.999 360.697V359.801C192.678 359.852 193.176 359.476 193.494 358.671L193.593 358.461L191.18 352.948H192.21L194.091 357.288ZM204.1 355.55H197.403V354.62H204.1V355.55ZM208.261 358.627C207.427 358.627 206.733 358.35 206.179 357.797C205.626 357.236 205.349 356.542 205.349 355.716C205.349 354.889 205.626 354.199 206.179 353.646C206.733 353.085 207.427 352.804 208.261 352.804C208.807 352.804 209.297 352.937 209.733 353.203C210.168 353.461 210.493 353.812 210.707 354.255L209.899 354.72C209.759 354.424 209.541 354.188 209.246 354.011C208.958 353.834 208.63 353.745 208.261 353.745C207.707 353.745 207.242 353.934 206.866 354.31C206.497 354.694 206.312 355.162 206.312 355.716C206.312 356.262 206.497 356.727 206.866 357.111C207.242 357.487 207.707 357.675 208.261 357.675C208.63 357.675 208.962 357.59 209.257 357.421C209.552 357.243 209.777 357.007 209.932 356.712L210.751 357.188C210.508 357.631 210.165 357.981 209.722 358.24C209.279 358.498 208.792 358.627 208.261 358.627ZM214.458 352.804C215.108 352.804 215.628 353.011 216.019 353.424C216.41 353.83 216.606 354.384 216.606 355.085V358.483H215.643V355.14C215.643 354.697 215.521 354.351 215.278 354.1C215.034 353.849 214.698 353.723 214.27 353.723C213.776 353.723 213.385 353.878 213.097 354.188C212.809 354.491 212.665 354.945 212.665 355.55V358.483H211.702V350.734H212.665V353.745C213.049 353.118 213.647 352.804 214.458 352.804ZM222.622 357.786C222.061 358.347 221.371 358.627 220.552 358.627C219.733 358.627 219.043 358.347 218.482 357.786C217.921 357.225 217.64 356.535 217.64 355.716C217.64 354.897 217.921 354.207 218.482 353.646C219.043 353.085 219.733 352.804 220.552 352.804C221.371 352.804 222.061 353.085 222.622 353.646C223.19 354.214 223.474 354.904 223.474 355.716C223.474 356.528 223.19 357.218 222.622 357.786ZM220.552 357.686C221.105 357.686 221.57 357.498 221.947 357.122C222.323 356.745 222.511 356.277 222.511 355.716C222.511 355.155 222.323 354.686 221.947 354.31C221.57 353.934 221.105 353.745 220.552 353.745C220.006 353.745 219.544 353.934 219.168 354.31C218.792 354.686 218.604 355.155 218.604 355.716C218.604 356.277 218.792 356.745 219.168 357.122C219.544 357.498 220.006 357.686 220.552 357.686ZM229.281 357.786C228.72 358.347 228.03 358.627 227.211 358.627C226.392 358.627 225.702 358.347 225.141 357.786C224.58 357.225 224.3 356.535 224.3 355.716C224.3 354.897 224.58 354.207 225.141 353.646C225.702 353.085 226.392 352.804 227.211 352.804C228.03 352.804 228.72 353.085 229.281 353.646C229.849 354.214 230.133 354.904 230.133 355.716C230.133 356.528 229.849 357.218 229.281 357.786ZM227.211 357.686C227.764 357.686 228.229 357.498 228.606 357.122C228.982 356.745 229.17 356.277 229.17 355.716C229.17 355.155 228.982 354.686 228.606 354.31C228.229 353.934 227.764 353.745 227.211 353.745C226.665 353.745 226.204 353.934 225.827 354.31C225.451 354.686 225.263 355.155 225.263 355.716C225.263 356.277 225.451 356.745 225.827 357.122C226.204 357.498 226.665 357.686 227.211 357.686ZM231.98 354.443C231.98 354.797 232.345 355.074 233.076 355.273C233.349 355.332 233.578 355.395 233.762 355.461C233.954 355.52 234.161 355.612 234.382 355.738C234.611 355.863 234.784 356.029 234.902 356.236C235.02 356.443 235.079 356.686 235.079 356.967C235.079 357.468 234.884 357.871 234.493 358.173C234.102 358.476 233.607 358.627 233.009 358.627C232.478 358.627 232.017 358.513 231.626 358.284C231.242 358.048 230.969 357.73 230.807 357.332L231.637 356.856C231.725 357.122 231.891 357.332 232.135 357.487C232.378 357.642 232.67 357.719 233.009 357.719C233.342 357.719 233.607 357.657 233.806 357.531C234.006 357.406 234.105 357.218 234.105 356.967C234.105 356.59 233.74 356.317 233.009 356.148C232.766 356.081 232.581 356.029 232.456 355.993C232.33 355.956 232.157 355.889 231.936 355.793C231.722 355.697 231.559 355.598 231.449 355.494C231.338 355.384 231.235 355.24 231.139 355.063C231.05 354.878 231.006 354.675 231.006 354.454C231.006 353.974 231.19 353.579 231.559 353.269C231.936 352.959 232.404 352.804 232.965 352.804C233.415 352.804 233.814 352.908 234.161 353.114C234.515 353.314 234.781 353.594 234.958 353.956L234.15 354.41C233.95 353.937 233.556 353.701 232.965 353.701C232.685 353.701 232.449 353.768 232.257 353.9C232.072 354.033 231.98 354.214 231.98 354.443ZM241.382 356.159H236.744C236.84 356.646 237.065 357.029 237.419 357.31C237.773 357.583 238.216 357.719 238.747 357.719C239.478 357.719 240.009 357.45 240.341 356.911L241.16 357.376C240.614 358.21 239.803 358.627 238.725 358.627C237.854 358.627 237.138 358.354 236.578 357.808C236.031 357.247 235.758 356.55 235.758 355.716C235.758 354.875 236.028 354.181 236.567 353.635C237.105 353.081 237.803 352.804 238.659 352.804C239.47 352.804 240.131 353.092 240.64 353.668C241.157 354.229 241.415 354.915 241.415 355.727C241.415 355.867 241.404 356.011 241.382 356.159ZM238.659 353.712C238.149 353.712 237.721 353.856 237.375 354.144C237.035 354.432 236.825 354.823 236.744 355.317H240.441C240.36 354.808 240.157 354.413 239.832 354.133C239.507 353.852 239.116 353.712 238.659 353.712ZM248.134 350.591V351.52C247.16 351.439 246.673 351.86 246.673 352.782V352.948H248.134V353.878H246.673V358.483H245.71V353.878H244.825V352.948H245.71V352.782C245.71 352.03 245.92 351.465 246.341 351.089C246.762 350.705 247.36 350.539 248.134 350.591ZM249.831 352.948V353.878C250.148 353.192 250.724 352.849 251.558 352.849V353.856C251.085 353.834 250.679 353.959 250.34 354.232C250 354.506 249.831 354.945 249.831 355.55V358.483H248.868V352.948H249.831ZM256.869 357.786C256.308 358.347 255.618 358.627 254.799 358.627C253.979 358.627 253.289 358.347 252.729 357.786C252.168 357.225 251.887 356.535 251.887 355.716C251.887 354.897 252.168 354.207 252.729 353.646C253.289 353.085 253.979 352.804 254.799 352.804C255.618 352.804 256.308 353.085 256.869 353.646C257.437 354.214 257.721 354.904 257.721 355.716C257.721 356.528 257.437 357.218 256.869 357.786ZM254.799 357.686C255.352 357.686 255.817 357.498 256.193 357.122C256.57 356.745 256.758 356.277 256.758 355.716C256.758 355.155 256.57 354.686 256.193 354.31C255.817 353.934 255.352 353.745 254.799 353.745C254.252 353.745 253.791 353.934 253.415 354.31C253.039 354.686 252.85 355.155 252.85 355.716C252.85 356.277 253.039 356.745 253.415 357.122C253.791 357.498 254.252 357.686 254.799 357.686ZM264.834 352.804C265.461 352.804 265.963 353.007 266.339 353.413C266.723 353.819 266.915 354.362 266.915 355.041V358.483H265.952V355.074C265.952 354.653 265.841 354.325 265.62 354.089C265.406 353.845 265.111 353.723 264.734 353.723C264.306 353.723 263.97 353.867 263.727 354.155C263.491 354.435 263.373 354.852 263.373 355.406V358.483H262.41V355.074C262.41 354.653 262.303 354.325 262.089 354.089C261.882 353.845 261.598 353.723 261.236 353.723C260.816 353.723 260.472 353.871 260.207 354.166C259.949 354.454 259.819 354.867 259.819 355.406V358.483H258.856V352.948H259.819V353.69C260.196 353.1 260.746 352.804 261.469 352.804C262.214 352.804 262.757 353.118 263.096 353.745C263.48 353.118 264.059 352.804 264.834 352.804ZM275.689 357.786C275.128 358.347 274.438 358.627 273.619 358.627C272.8 358.627 272.11 358.347 271.549 357.786C270.988 357.225 270.708 356.535 270.708 355.716C270.708 354.897 270.988 354.207 271.549 353.646C272.11 353.085 272.8 352.804 273.619 352.804C274.438 352.804 275.128 353.085 275.689 353.646C276.257 354.214 276.542 354.904 276.542 355.716C276.542 356.528 276.257 357.218 275.689 357.786ZM273.619 357.686C274.173 357.686 274.638 357.498 275.014 357.122C275.39 356.745 275.579 356.277 275.579 355.716C275.579 355.155 275.39 354.686 275.014 354.31C274.638 353.934 274.173 353.745 273.619 353.745C273.073 353.745 272.612 353.934 272.235 354.31C271.859 354.686 271.671 355.155 271.671 355.716C271.671 356.277 271.859 356.745 272.235 357.122C272.612 357.498 273.073 357.686 273.619 357.686ZM281.496 355.882V352.948H282.459V358.483H281.496V357.686C281.112 358.313 280.514 358.627 279.703 358.627C279.053 358.627 278.533 358.424 278.142 358.018C277.751 357.605 277.555 357.048 277.555 356.347V352.948H278.518V356.291C278.518 356.734 278.64 357.081 278.883 357.332C279.127 357.583 279.463 357.708 279.891 357.708C280.385 357.708 280.776 357.557 281.064 357.254C281.352 356.945 281.496 356.487 281.496 355.882ZM284.888 352.948V353.878C285.206 353.192 285.781 352.849 286.615 352.849V353.856C286.143 353.834 285.737 353.959 285.397 354.232C285.058 354.506 284.888 354.945 284.888 355.55V358.483H283.925V352.948H284.888ZM76.6533 367.443C76.6533 367.797 77.0186 368.074 77.7492 368.273C78.0223 368.332 78.251 368.395 78.4355 368.461C78.6274 368.52 78.834 368.612 79.0554 368.738C79.2842 368.863 79.4576 369.029 79.5757 369.236C79.6938 369.443 79.7528 369.686 79.7528 369.967C79.7528 370.468 79.5572 370.871 79.1661 371.173C78.775 371.476 78.2805 371.627 77.6828 371.627C77.1514 371.627 76.6902 371.513 76.2991 371.284C75.9153 371.048 75.6423 370.73 75.4799 370.332L76.3101 369.856C76.3987 370.122 76.5647 370.332 76.8083 370.487C77.0518 370.642 77.3433 370.719 77.6828 370.719C78.0149 370.719 78.2805 370.657 78.4798 370.531C78.6791 370.406 78.7787 370.218 78.7787 369.967C78.7787 369.59 78.4134 369.317 77.6828 369.148C77.4393 369.081 77.2548 369.029 77.1293 368.993C77.0038 368.956 76.8304 368.889 76.609 368.793C76.395 368.697 76.2327 368.598 76.122 368.494C76.0113 368.384 75.9079 368.24 75.812 368.063C75.7235 367.878 75.6792 367.675 75.6792 367.454C75.6792 366.974 75.8637 366.579 76.2327 366.269C76.609 365.959 77.0776 365.804 77.6385 365.804C78.0887 365.804 78.4872 365.908 78.834 366.114C79.1883 366.314 79.4539 366.594 79.631 366.956L78.823 367.41C78.6237 366.937 78.2289 366.701 77.6385 366.701C77.3581 366.701 77.1219 366.768 76.93 366.9C76.7456 367.033 76.6533 367.214 76.6533 367.443ZM84.6581 368.882V365.948H85.6211V371.483H84.6581V370.686C84.2743 371.313 83.6765 371.627 82.8648 371.627C82.2154 371.627 81.6951 371.424 81.3039 371.018C80.9128 370.605 80.7173 370.048 80.7173 369.347V365.948H81.6803V369.291C81.6803 369.734 81.8021 370.081 82.0456 370.332C82.2891 370.583 82.6249 370.708 83.053 370.708C83.5474 370.708 83.9385 370.557 84.2263 370.254C84.5142 369.945 84.6581 369.487 84.6581 368.882ZM90.1426 365.804C90.9174 365.804 91.5779 366.089 92.124 366.657C92.6701 367.225 92.9432 367.911 92.9432 368.716C92.9432 369.528 92.6701 370.218 92.124 370.786C91.5853 371.347 90.9248 371.627 90.1426 371.627C89.2275 371.627 88.5301 371.262 88.0504 370.531V373.697H87.0873V365.948H88.0504V366.9C88.5301 366.17 89.2275 365.804 90.1426 365.804ZM90.0208 370.697C90.5743 370.697 91.0392 370.509 91.4156 370.133C91.7919 369.742 91.9801 369.269 91.9801 368.716C91.9801 368.155 91.7919 367.686 91.4156 367.31C91.0392 366.926 90.5743 366.734 90.0208 366.734C89.4599 366.734 88.9913 366.926 88.6149 367.31C88.2386 367.686 88.0504 368.155 88.0504 368.716C88.0504 369.269 88.2386 369.742 88.6149 370.133C88.9913 370.509 89.4599 370.697 90.0208 370.697ZM97.1476 365.804C97.9225 365.804 98.5829 366.089 99.1291 366.657C99.6752 367.225 99.9482 367.911 99.9482 368.716C99.9482 369.528 99.6752 370.218 99.1291 370.786C98.5903 371.347 97.9298 371.627 97.1476 371.627C96.2325 371.627 95.5351 371.262 95.0554 370.531V373.697H94.0924V365.948H95.0554V366.9C95.5351 366.17 96.2325 365.804 97.1476 365.804ZM97.0258 370.697C97.5793 370.697 98.0442 370.509 98.4206 370.133C98.797 369.742 98.9851 369.269 98.9851 368.716C98.9851 368.155 98.797 367.686 98.4206 367.31C98.0442 366.926 97.5793 366.734 97.0258 366.734C96.465 366.734 95.9963 366.926 95.62 367.31C95.2436 367.686 95.0554 368.155 95.0554 368.716C95.0554 369.269 95.2436 369.742 95.62 370.133C95.9963 370.509 96.465 370.697 97.0258 370.697ZM105.769 370.786C105.208 371.347 104.518 371.627 103.699 371.627C102.88 371.627 102.19 371.347 101.629 370.786C101.068 370.225 100.787 369.535 100.787 368.716C100.787 367.897 101.068 367.207 101.629 366.646C102.19 366.085 102.88 365.804 103.699 365.804C104.518 365.804 105.208 366.085 105.769 366.646C106.337 367.214 106.621 367.904 106.621 368.716C106.621 369.528 106.337 370.218 105.769 370.786ZM103.699 370.686C104.252 370.686 104.717 370.498 105.094 370.122C105.47 369.745 105.658 369.277 105.658 368.716C105.658 368.155 105.47 367.686 105.094 367.31C104.717 366.934 104.252 366.745 103.699 366.745C103.153 366.745 102.691 366.934 102.315 367.31C101.939 367.686 101.75 368.155 101.75 368.716C101.75 369.277 101.939 369.745 102.315 370.122C102.691 370.498 103.153 370.686 103.699 370.686ZM108.72 365.948V366.878C109.037 366.192 109.612 365.849 110.446 365.849V366.856C109.974 366.834 109.568 366.959 109.229 367.232C108.889 367.506 108.72 367.945 108.72 368.55V371.483H107.756V365.948H108.72ZM114.529 365.948V366.878H113.057V369.878C113.057 370.151 113.109 370.347 113.212 370.465C113.323 370.576 113.489 370.635 113.71 370.642C113.932 370.642 114.205 370.635 114.529 370.62V371.483C113.681 371.594 113.061 371.524 112.67 371.273C112.286 371.022 112.094 370.557 112.094 369.878V366.878H110.998V365.948H112.094V364.686L113.057 364.399V365.948H114.529ZM120.702 369.159H116.064C116.16 369.646 116.385 370.029 116.739 370.31C117.093 370.583 117.536 370.719 118.067 370.719C118.798 370.719 119.329 370.45 119.661 369.911L120.481 370.376C119.934 371.21 119.123 371.627 118.045 371.627C117.174 371.627 116.459 371.354 115.898 370.808C115.352 370.247 115.079 369.55 115.079 368.716C115.079 367.875 115.348 367.181 115.887 366.635C116.425 366.081 117.123 365.804 117.979 365.804C118.791 365.804 119.451 366.092 119.96 366.668C120.477 367.229 120.735 367.915 120.735 368.727C120.735 368.867 120.724 369.011 120.702 369.159ZM117.979 366.712C117.47 366.712 117.042 366.856 116.695 367.144C116.355 367.432 116.145 367.823 116.064 368.317H119.761C119.68 367.808 119.477 367.413 119.152 367.133C118.827 366.852 118.436 366.712 117.979 366.712ZM126.414 366.9V363.734H127.377V371.483H126.414V370.531C125.942 371.262 125.245 371.627 124.322 371.627C123.54 371.627 122.879 371.347 122.341 370.786C121.794 370.218 121.521 369.528 121.521 368.716C121.521 367.911 121.794 367.225 122.341 366.657C122.887 366.089 123.547 365.804 124.322 365.804C125.245 365.804 125.942 366.17 126.414 366.9ZM124.444 370.697C125.005 370.697 125.473 370.509 125.85 370.133C126.226 369.742 126.414 369.269 126.414 368.716C126.414 368.155 126.226 367.686 125.85 367.31C125.473 366.926 125.005 366.734 124.444 366.734C123.89 366.734 123.425 366.926 123.049 367.31C122.673 367.686 122.484 368.155 122.484 368.716C122.484 369.269 122.673 369.742 123.049 370.133C123.425 370.509 123.89 370.697 124.444 370.697ZM134.615 365.948V366.878H133.142V369.878C133.142 370.151 133.194 370.347 133.297 370.465C133.408 370.576 133.574 370.635 133.796 370.642C134.017 370.642 134.29 370.635 134.615 370.62V371.483C133.766 371.594 133.146 371.524 132.755 371.273C132.371 371.022 132.179 370.557 132.179 369.878V366.878H131.084V365.948H132.179V364.686L133.142 364.399V365.948H134.615ZM140.145 370.786C139.584 371.347 138.894 371.627 138.075 371.627C137.256 371.627 136.566 371.347 136.005 370.786C135.444 370.225 135.164 369.535 135.164 368.716C135.164 367.897 135.444 367.207 136.005 366.646C136.566 366.085 137.256 365.804 138.075 365.804C138.894 365.804 139.584 366.085 140.145 366.646C140.714 367.214 140.998 367.904 140.998 368.716C140.998 369.528 140.714 370.218 140.145 370.786ZM138.075 370.686C138.629 370.686 139.094 370.498 139.47 370.122C139.846 369.745 140.035 369.277 140.035 368.716C140.035 368.155 139.846 367.686 139.47 367.31C139.094 366.934 138.629 366.745 138.075 366.745C137.529 366.745 137.068 366.934 136.692 367.31C136.315 367.686 136.127 368.155 136.127 368.716C136.127 369.277 136.315 369.745 136.692 370.122C137.068 370.498 137.529 370.686 138.075 370.686ZM146.804 370.786C146.244 371.347 145.553 371.627 144.734 371.627C143.915 371.627 143.225 371.347 142.664 370.786C142.103 370.225 141.823 369.535 141.823 368.716C141.823 367.897 142.103 367.207 142.664 366.646C143.225 366.085 143.915 365.804 144.734 365.804C145.553 365.804 146.244 366.085 146.804 366.646C147.373 367.214 147.657 367.904 147.657 368.716C147.657 369.528 147.373 370.218 146.804 370.786ZM144.734 370.686C145.288 370.686 145.753 370.498 146.129 370.122C146.505 369.745 146.694 369.277 146.694 368.716C146.694 368.155 146.505 367.686 146.129 367.31C145.753 366.934 145.288 366.745 144.734 366.745C144.188 366.745 143.727 366.934 143.351 367.31C142.974 367.686 142.786 368.155 142.786 368.716C142.786 369.277 142.974 369.745 143.351 370.122C143.727 370.498 144.188 370.686 144.734 370.686ZM149.755 371.483H148.792V363.402H149.755V371.483ZM152.044 367.443C152.044 367.797 152.409 368.074 153.14 368.273C153.413 368.332 153.641 368.395 153.826 368.461C154.018 368.52 154.224 368.612 154.446 368.738C154.675 368.863 154.848 369.029 154.966 369.236C155.084 369.443 155.143 369.686 155.143 369.967C155.143 370.468 154.948 370.871 154.557 371.173C154.165 371.476 153.671 371.627 153.073 371.627C152.542 371.627 152.081 371.513 151.69 371.284C151.306 371.048 151.033 370.73 150.87 370.332L151.701 369.856C151.789 370.122 151.955 370.332 152.199 370.487C152.442 370.642 152.734 370.719 153.073 370.719C153.405 370.719 153.671 370.657 153.87 370.531C154.07 370.406 154.169 370.218 154.169 369.967C154.169 369.59 153.804 369.317 153.073 369.148C152.83 369.081 152.645 369.029 152.52 368.993C152.394 368.956 152.221 368.889 151.999 368.793C151.785 368.697 151.623 368.598 151.512 368.494C151.402 368.384 151.298 368.24 151.202 368.063C151.114 367.878 151.07 367.675 151.07 367.454C151.07 366.974 151.254 366.579 151.623 366.269C151.999 365.959 152.468 365.804 153.029 365.804C153.479 365.804 153.878 365.908 154.224 366.114C154.579 366.314 154.844 366.594 155.022 366.956L154.213 367.41C154.014 366.937 153.619 366.701 153.029 366.701C152.749 366.701 152.512 366.768 152.321 366.9C152.136 367.033 152.044 367.214 152.044 367.443ZM162.062 365.948V366.878H160.59V369.878C160.59 370.151 160.641 370.347 160.745 370.465C160.855 370.576 161.021 370.635 161.243 370.642C161.464 370.642 161.737 370.635 162.062 370.62V371.483C161.213 371.594 160.593 371.524 160.202 371.273C159.818 371.022 159.627 370.557 159.627 369.878V366.878H158.531V365.948H159.627V364.686L160.59 364.399V365.948H162.062ZM167.592 370.786C167.032 371.347 166.342 371.627 165.522 371.627C164.703 371.627 164.013 371.347 163.452 370.786C162.891 370.225 162.611 369.535 162.611 368.716C162.611 367.897 162.891 367.207 163.452 366.646C164.013 366.085 164.703 365.804 165.522 365.804C166.342 365.804 167.032 366.085 167.592 366.646C168.161 367.214 168.445 367.904 168.445 368.716C168.445 369.528 168.161 370.218 167.592 370.786ZM165.522 370.686C166.076 370.686 166.541 370.498 166.917 370.122C167.294 369.745 167.482 369.277 167.482 368.716C167.482 368.155 167.294 367.686 166.917 367.31C166.541 366.934 166.076 366.745 165.522 366.745C164.976 366.745 164.515 366.934 164.139 367.31C163.762 367.686 163.574 368.155 163.574 368.716C163.574 369.277 163.762 369.745 164.139 370.122C164.515 370.498 164.976 370.686 165.522 370.686ZM176.941 366.9V365.948H177.893V371.251C177.893 372.07 177.617 372.705 177.063 373.155C176.502 373.612 175.838 373.841 175.071 373.841C174.451 373.841 173.916 373.723 173.466 373.487C173.015 373.258 172.676 372.926 172.447 372.491L173.288 372.015C173.591 372.634 174.192 372.944 175.093 372.944C175.668 372.944 176.119 372.793 176.443 372.491C176.775 372.188 176.941 371.775 176.941 371.251V370.465C176.454 371.203 175.761 371.572 174.86 371.572C174.063 371.572 173.395 371.291 172.857 370.73C172.311 370.162 172.038 369.48 172.038 368.683C172.038 367.886 172.311 367.207 172.857 366.646C173.395 366.085 174.063 365.804 174.86 365.804C175.768 365.804 176.462 366.17 176.941 366.9ZM176.941 368.683C176.941 368.129 176.753 367.664 176.377 367.288C176.001 366.911 175.532 366.723 174.971 366.723C174.41 366.723 173.942 366.911 173.565 367.288C173.189 367.664 173.001 368.129 173.001 368.683C173.001 369.243 173.189 369.712 173.565 370.088C173.942 370.465 174.41 370.653 174.971 370.653C175.532 370.653 176.001 370.465 176.377 370.088C176.753 369.712 176.941 369.243 176.941 368.683ZM184.666 369.159H180.028C180.124 369.646 180.349 370.029 180.703 370.31C181.057 370.583 181.5 370.719 182.031 370.719C182.762 370.719 183.293 370.45 183.625 369.911L184.445 370.376C183.898 371.21 183.087 371.627 182.009 371.627C181.138 371.627 180.423 371.354 179.862 370.808C179.316 370.247 179.043 369.55 179.043 368.716C179.043 367.875 179.312 367.181 179.851 366.635C180.389 366.081 181.087 365.804 181.943 365.804C182.755 365.804 183.415 366.092 183.924 366.668C184.441 367.229 184.699 367.915 184.699 368.727C184.699 368.867 184.688 369.011 184.666 369.159ZM181.943 366.712C181.434 366.712 181.006 366.856 180.659 367.144C180.319 367.432 180.109 367.823 180.028 368.317H183.725C183.644 367.808 183.441 367.413 183.116 367.133C182.792 366.852 182.4 366.712 181.943 366.712ZM188.655 365.948V366.878H187.183V369.878C187.183 370.151 187.234 370.347 187.338 370.465C187.448 370.576 187.614 370.635 187.836 370.642C188.057 370.642 188.33 370.635 188.655 370.62V371.483C187.806 371.594 187.186 371.524 186.795 371.273C186.412 371.022 186.22 370.557 186.22 369.878V366.878H185.124V365.948H186.22V364.686L187.183 364.399V365.948H188.655ZM193.425 367.443C193.425 367.797 193.791 368.074 194.521 368.273C194.794 368.332 195.023 368.395 195.208 368.461C195.399 368.52 195.606 368.612 195.827 368.738C196.056 368.863 196.23 369.029 196.348 369.236C196.466 369.443 196.525 369.686 196.525 369.967C196.525 370.468 196.329 370.871 195.938 371.173C195.547 371.476 195.053 371.627 194.455 371.627C193.923 371.627 193.462 371.513 193.071 371.284C192.687 371.048 192.414 370.73 192.252 370.332L193.082 369.856C193.171 370.122 193.337 370.332 193.58 370.487C193.824 370.642 194.115 370.719 194.455 370.719C194.787 370.719 195.053 370.657 195.252 370.531C195.451 370.406 195.551 370.218 195.551 369.967C195.551 369.59 195.185 369.317 194.455 369.148C194.211 369.081 194.027 369.029 193.901 368.993C193.776 368.956 193.602 368.889 193.381 368.793C193.167 368.697 193.005 368.598 192.894 368.494C192.783 368.384 192.68 368.24 192.584 368.063C192.495 367.878 192.451 367.675 192.451 367.454C192.451 366.974 192.636 366.579 193.005 366.269C193.381 365.959 193.85 365.804 194.41 365.804C194.861 365.804 195.259 365.908 195.606 366.114C195.96 366.314 196.226 366.594 196.403 366.956L195.595 367.41C195.396 366.937 195.001 366.701 194.41 366.701C194.13 366.701 193.894 366.768 193.702 366.9C193.518 367.033 193.425 367.214 193.425 367.443ZM200.46 365.948V366.878H198.988V369.878C198.988 370.151 199.039 370.347 199.143 370.465C199.253 370.576 199.419 370.635 199.641 370.642C199.862 370.642 200.135 370.635 200.46 370.62V371.483C199.611 371.594 198.991 371.524 198.6 371.273C198.216 371.022 198.024 370.557 198.024 369.878V366.878H196.929V365.948H198.024V364.686L198.988 364.399V365.948H200.46ZM205.902 366.9V365.948H206.865V371.483H205.902V370.531C205.429 371.262 204.732 371.627 203.81 371.627C203.027 371.627 202.367 371.347 201.828 370.786C201.282 370.218 201.009 369.528 201.009 368.716C201.009 367.911 201.282 367.225 201.828 366.657C202.374 366.089 203.035 365.804 203.81 365.804C204.732 365.804 205.429 366.17 205.902 366.9ZM203.931 370.697C204.492 370.697 204.961 370.509 205.337 370.133C205.714 369.742 205.902 369.269 205.902 368.716C205.902 368.155 205.714 367.686 205.337 367.31C204.961 366.926 204.492 366.734 203.931 366.734C203.378 366.734 202.913 366.926 202.537 367.31C202.16 367.686 201.972 368.155 201.972 368.716C201.972 369.269 202.16 369.742 202.537 370.133C202.913 370.509 203.378 370.697 203.931 370.697ZM209.287 365.948V366.878C209.604 366.192 210.18 365.849 211.014 365.849V366.856C210.542 366.834 210.136 366.959 209.796 367.232C209.457 367.506 209.287 367.945 209.287 368.55V371.483H208.324V365.948H209.287ZM215.097 365.948V366.878H213.625V369.878C213.625 370.151 213.676 370.347 213.78 370.465C213.89 370.576 214.056 370.635 214.278 370.642C214.499 370.642 214.772 370.635 215.097 370.62V371.483C214.248 371.594 213.628 371.524 213.237 371.273C212.853 371.022 212.662 370.557 212.662 369.878V366.878H211.566V365.948H212.662V364.686L213.625 364.399V365.948H215.097ZM221.269 369.159H216.631C216.727 369.646 216.952 370.029 217.306 370.31C217.661 370.583 218.103 370.719 218.635 370.719C219.365 370.719 219.897 370.45 220.229 369.911L221.048 370.376C220.502 371.21 219.69 371.627 218.613 371.627C217.742 371.627 217.026 371.354 216.465 370.808C215.919 370.247 215.646 369.55 215.646 368.716C215.646 367.875 215.915 367.181 216.454 366.635C216.993 366.081 217.69 365.804 218.546 365.804C219.358 365.804 220.019 366.092 220.528 366.668C221.044 367.229 221.303 367.915 221.303 368.727C221.303 368.867 221.292 369.011 221.269 369.159ZM218.546 366.712C218.037 366.712 217.609 366.856 217.262 367.144C216.923 367.432 216.712 367.823 216.631 368.317H220.328C220.247 367.808 220.044 367.413 219.72 367.133C219.395 366.852 219.004 366.712 218.546 366.712ZM226.982 366.9V363.734H227.945V371.483H226.982V370.531C226.509 371.262 225.812 371.627 224.89 371.627C224.107 371.627 223.447 371.347 222.908 370.786C222.362 370.218 222.089 369.528 222.089 368.716C222.089 367.911 222.362 367.225 222.908 366.657C223.454 366.089 224.115 365.804 224.89 365.804C225.812 365.804 226.509 366.17 226.982 366.9ZM225.011 370.697C225.572 370.697 226.041 370.509 226.417 370.133C226.793 369.742 226.982 369.269 226.982 368.716C226.982 368.155 226.793 367.686 226.417 367.31C226.041 366.926 225.572 366.734 225.011 366.734C224.458 366.734 223.993 366.926 223.617 367.31C223.24 367.686 223.052 368.155 223.052 368.716C223.052 369.269 223.24 369.742 223.617 370.133C223.993 370.509 224.458 370.697 225.011 370.697ZM230.013 371.605C229.813 371.605 229.644 371.535 229.503 371.395C229.363 371.254 229.293 371.085 229.293 370.885C229.293 370.686 229.363 370.516 229.503 370.376C229.644 370.236 229.813 370.166 230.013 370.166C230.219 370.166 230.389 370.236 230.522 370.376C230.662 370.516 230.732 370.686 230.732 370.885C230.732 371.085 230.662 371.254 230.522 371.395C230.389 371.535 230.219 371.605 230.013 371.605Z" fill="#7F7F7F"/>
<g clip-path="url(#clip4_2439_16100)">
<path d="M143.588 213.327C143.192 213.687 142.783 214.131 142.616 214.153C142.449 214.176 142.274 214.07 141.902 213.859L140 212.787C139.52 212.547 139.496 212.367 139.496 212.307C139.496 212.247 139.496 211.993 139.652 211.471C140.152 209.547 138.98 207.507 136.989 206.986C136.467 206.846 136.206 206.775 136.103 206.641C136 206.506 136 206.29 136 205.857V203.933C136 203.5 136 203.284 136.103 203.149C136.206 203.015 136.467 202.944 136.989 202.804C138.94 202.278 140.161 200.296 139.658 198.358C139.52 197.825 139.451 197.559 139.517 197.403C139.583 197.246 139.773 197.139 140.152 196.923L141.877 195.944C142.249 195.733 142.435 195.627 142.602 195.65C142.769 195.672 142.957 195.86 143.334 196.236C144.794 197.692 147.208 197.692 148.667 196.236C149.044 195.86 149.233 195.672 149.4 195.65C149.567 195.627 149.753 195.733 150.125 195.944L151.85 196.923C152.229 197.139 152.419 197.246 152.485 197.403C152.551 197.559 152.482 197.825 152.343 198.358C151.84 200.296 153.061 202.289 155.011 202.815C155.533 202.955 155.794 203.028 155.897 203.163C156 203.297 156 203.726 156 204.159" stroke="black" stroke-width="1.5" stroke-linecap="round"/>
<path d="M149 210.867C149 210.867 150 211.151 150.5 212.151C150.5 212.151 151.596 209.651 153.008 209.151" stroke="black" stroke-width="1.5" stroke-linecap="round" stroke-linejoin="round"/>
<path d="M156 210.647C156 213.408 153.761 215.647 151 215.647C148.239 215.647 146 213.408 146 210.647C146 207.885 148.239 205.647 151 205.647C153.761 205.647 156 207.885 156 210.647Z" stroke="black" stroke-width="1.5" stroke-linecap="round"/>
<path d="M148.88 202.946C148.1 201.866 146.924 201.446 145.964 201.446C144.164 201.47 142.52 202.957 142.52 204.89C142.52 205.956 142.82 206.726 143.66 207.566" stroke="black" stroke-width="1.5" stroke-linecap="round"/>
</g>
</g>
<rect x="0.72876" y="0.5" width="293" height="413.317" rx="4.5" stroke="#C3C3C3" stroke-opacity="0.6"/>
<defs>
<linearGradient id="paint0_linear_2439_16100" x1="145.974" y1="102.355" x2="145.974" y2="308.071" gradientUnits="userSpaceOnUse">
<stop offset="0.605" stop-color="#EEEEEE"/>
<stop offset="1" stop-color="white"/>
</linearGradient>
<linearGradient id="paint1_linear_2439_16100" x1="145.975" y1="72.4545" x2="145.975" y2="337.972" gradientUnits="userSpaceOnUse">
<stop offset="0.605" stop-color="#EEEEEE"/>
<stop offset="1" stop-color="white"/>
</linearGradient>
<linearGradient id="paint2_linear_2439_16100" x1="145.975" y1="44.6466" x2="145.975" y2="365.78" gradientUnits="userSpaceOnUse">
<stop offset="0.605" stop-color="#EEEEEE"/>
<stop offset="1" stop-color="white"/>
</linearGradient>
<clipPath id="clip0_2439_16100">
<rect x="0.22876" width="294" height="414.317" rx="5" fill="white"/>
</clipPath>
<clipPath id="clip1_2439_16100">
<rect width="14.7018" height="14.7018" fill="white" transform="translate(62.26 56.0082)"/>
</clipPath>
<clipPath id="clip2_2439_16100">
<rect width="14.7018" height="14.7018" fill="white" transform="translate(247.667 124.49)"/>
</clipPath>
<clipPath id="clip3_2439_16100">
<rect width="11.6261" height="11.6261" fill="white" transform="translate(-7.47266 140.888)"/>
</clipPath>
<clipPath id="clip4_2439_16100">
<rect width="21.4475" height="21.4475" fill="white" transform="translate(135.47 195.183)"/>
</clipPath>
</defs>
</svg>
