<svg xmlns="http://www.w3.org/2000/svg" width="16" height="16" viewBox="0 0 16 16" fill="none">
  <g clip-path="url(#clip0_5336_14217)">
    <path d="M1.25513 11.7642C1.25513 10.7978 1.25513 10.3146 1.47265 9.95961C1.59437 9.76098 1.76137 9.59398 1.95999 9.47227C2.31496 9.25476 2.79817 9.25476 3.76459 9.25476C4.73101 9.25476 5.21421 9.25476 5.56918 9.47227C5.76781 9.59398 5.93481 9.76098 6.05652 9.95961C6.27405 10.3146 6.27405 10.7978 6.27405 11.7642C6.27405 12.7306 6.27405 13.2139 6.05652 13.5688C5.93481 13.7675 5.76781 13.9345 5.56918 14.0562C5.21421 14.2737 4.73101 14.2737 3.76459 14.2737C2.79817 14.2737 2.31496 14.2737 1.95999 14.0562C1.76137 13.9345 1.59437 13.7675 1.47265 13.5688C1.25513 13.2139 1.25513 12.7306 1.25513 11.7642Z" fill="white" stroke="white" stroke-width="1.50772"/>
    <path d="M8.7832 11.7642C8.7832 10.7978 8.7832 10.3146 9.00071 9.95961C9.12242 9.76098 9.28942 9.59398 9.48805 9.47227C9.84301 9.25476 10.3263 9.25476 11.2927 9.25476C12.2591 9.25476 12.7423 9.25476 13.0973 9.47227C13.2959 9.59398 13.4629 9.76098 13.5846 9.95961C13.8021 10.3146 13.8021 10.7978 13.8021 11.7642C13.8021 12.7306 13.8021 13.2139 13.5846 13.5688C13.4629 13.7675 13.2959 13.9345 13.0973 14.0562C12.7423 14.2737 12.2591 14.2737 11.2927 14.2737C10.3263 14.2737 9.84301 14.2737 9.48805 14.0562C9.28942 13.9345 9.12242 13.7675 9.00071 13.5688C8.7832 13.2139 8.7832 12.7306 8.7832 11.7642Z" stroke="white" stroke-width="1.50772"/>
    <path d="M1.25513 4.23584C1.25513 3.26942 1.25513 2.78621 1.47265 2.43124C1.59437 2.23262 1.76137 2.06562 1.95999 1.94391C2.31496 1.72638 2.79817 1.72638 3.76459 1.72638C4.73101 1.72638 5.21421 1.72638 5.56918 1.94391C5.76781 2.06562 5.93481 2.23262 6.05652 2.43124C6.27405 2.78621 6.27405 3.26942 6.27405 4.23584C6.27405 5.20226 6.27405 5.68547 6.05652 6.04044C5.93481 6.23906 5.76781 6.40606 5.56918 6.52777C5.21421 6.7453 4.73101 6.7453 3.76459 6.7453C2.79817 6.7453 2.31496 6.7453 1.95999 6.52777C1.76137 6.40606 1.59437 6.23906 1.47265 6.04044C1.25513 5.68547 1.25513 5.20226 1.25513 4.23584Z" fill="white" stroke="white" stroke-width="1.50772"/>
    <path d="M8.7832 4.23584C8.7832 3.26942 8.7832 2.78621 9.00071 2.43124C9.12242 2.23262 9.28942 2.06562 9.48805 1.94391C9.84301 1.72638 10.3263 1.72638 11.2927 1.72638C12.2591 1.72638 12.7423 1.72638 13.0973 1.94391C13.2959 2.06562 13.4629 2.23262 13.5846 2.43124C13.8021 2.78621 13.8021 3.26942 13.8021 4.23584C13.8021 5.20226 13.8021 5.68547 13.5846 6.04044C13.4629 6.23906 13.2959 6.40606 13.0973 6.52777C12.7423 6.7453 12.2591 6.7453 11.2927 6.7453C10.3263 6.7453 9.84301 6.7453 9.48805 6.52777C9.28942 6.40606 9.12242 6.23906 9.00071 6.04044C8.7832 5.68547 8.7832 5.20226 8.7832 4.23584Z" fill="white" stroke="white" stroke-width="1.50772"/>
  </g>
  <defs>
    <clipPath id="clip0_5336_14217">
      <rect width="15.0568" height="15.0568" fill="white" transform="translate(0 0.471619)"/>
    </clipPath>
  </defs>
</svg>