<svg xmlns="http://www.w3.org/2000/svg" width="18" height="18" viewBox="0 0 18 18" fill="none">
  <path d="M8.37703 2.04114C5.70058 2.04595 4.29904 2.11166 3.40336 3.00732C2.43677 3.97388 2.43677 5.52955 2.43677 8.64085C2.43677 11.7522 2.43677 13.3079 3.40336 14.2744C4.36995 15.241 5.92566 15.241 9.0371 15.241C12.1484 15.241 13.7042 15.241 14.6708 14.2744C15.5665 13.3788 15.6322 11.9773 15.637 9.30092" stroke="#7F7F7F" stroke-width="1.10024" stroke-linecap="round" stroke-linejoin="round"/>
  <path d="M15.2572 2.41928L11.1868 6.47844M15.2572 2.41928C14.8948 2.05656 12.454 2.09038 11.938 2.09771M15.2572 2.41928C15.6194 2.78201 15.5857 5.22548 15.5783 5.74204" stroke="#7F7F7F" stroke-width="1.10024" stroke-linecap="round" stroke-linejoin="round"/>
</svg>