<svg width="25" height="26" viewBox="0 0 25 26" fill="none" xmlns="http://www.w3.org/2000/svg">
<path d="M24.9572 13.048C24.9572 19.8047 19.4795 25.2825 12.7224 25.2825C5.96513 25.2825 0.487549 19.8047 0.487549 13.048C0.487549 6.29089 5.96521 0.813232 12.7224 0.813232C19.4796 0.813232 24.9572 6.29089 24.9572 13.048Z" fill="#DD4814"/>
<path d="M4.40335 11.4142C3.50076 11.4142 2.76953 12.1455 2.76953 13.048C2.76953 13.9501 3.50076 14.6814 4.40335 14.6814C5.30543 14.6814 6.03666 13.9501 6.03666 13.048C6.03666 12.1455 5.30543 11.4142 4.40335 11.4142ZM16.0662 18.8383C15.2849 19.2896 15.017 20.2881 15.4684 21.0689C15.9191 21.8502 16.9176 22.1181 17.6989 21.6668C18.4801 21.216 18.748 20.2176 18.2968 19.4362C17.846 18.6554 16.847 18.3876 16.0662 18.8383ZM7.95146 13.048C7.95146 11.4338 8.75326 10.0077 9.98013 9.14406L8.78592 7.14388C7.35676 8.09919 6.2934 9.55899 5.8515 11.2687C6.36714 11.6895 6.69718 12.33 6.69718 13.048C6.69718 13.7655 6.36714 14.4061 5.8515 14.8268C6.29282 16.537 7.35619 17.9969 8.78592 18.9522L9.98013 16.9515C8.75326 16.0884 7.95146 14.6624 7.95146 13.048ZM12.7226 8.27637C15.2152 8.27637 17.2602 10.1875 17.4749 12.6248L19.8025 12.5905C19.6879 10.7911 18.9019 9.17579 17.6941 7.98798C17.073 8.22263 16.3556 8.18674 15.7355 7.82928C15.1143 7.47083 14.7248 6.86613 14.6184 6.20971C14.0147 6.04311 13.3793 5.95189 12.7225 5.95189C11.5933 5.95189 10.5257 6.21712 9.57779 6.68629L10.7128 8.72021C11.3234 8.43607 12.0046 8.27637 12.7226 8.27637ZM12.7226 17.8192C12.0046 17.8192 11.3234 17.6594 10.7129 17.3754L9.57787 19.4092C10.5258 19.879 11.5934 20.1443 12.7226 20.1443C13.3795 20.1443 14.0148 20.053 14.6184 19.8859C14.7249 19.2295 15.1145 18.6253 15.7355 18.2662C16.3561 17.9082 17.073 17.873 17.6941 18.1076C18.902 16.9198 19.688 15.3045 19.8025 13.5051L17.4744 13.4708C17.2602 15.9087 15.2153 17.8192 12.7226 17.8192ZM16.0657 7.25674C16.847 7.70793 17.8455 7.44068 18.2963 6.65938C18.7475 5.87809 18.4803 4.87954 17.6989 4.42821C16.9176 3.97746 15.9191 4.24528 15.4677 5.02658C15.017 5.80744 15.2849 6.80599 16.0657 7.25674Z" fill="white"/>
</svg>
