<svg width="510" height="487" viewBox="0 0 510 487" fill="none" xmlns="http://www.w3.org/2000/svg">
<path d="M302.781 232.998C302.781 265.176 276.694 291.262 244.514 291.262C212.334 291.262 186.248 265.176 186.248 232.998C186.248 200.82 212.334 174.734 244.514 174.734C276.694 174.734 302.781 200.82 302.781 232.998Z" stroke="#EEEEEE" stroke-width="2"/>
<path d="M343.263 232.998C343.263 287.533 299.052 331.743 244.514 331.743C189.976 331.743 145.765 287.533 145.765 232.998C145.765 178.463 189.976 134.253 244.514 134.253C299.052 134.253 343.263 178.463 343.263 232.998Z" stroke="#EEEEEE" stroke-width="2"/>
<path d="M392.191 232.998C392.191 314.553 326.074 380.667 244.514 380.667C162.955 380.667 96.8381 314.553 96.8381 232.998C96.8381 151.442 162.955 85.3282 244.514 85.3282C326.074 85.3282 392.191 151.442 392.191 232.998Z" stroke="url(#paint0_linear_6043_5252)" stroke-width="2"/>
<path d="M435.412 232.998C435.412 338.423 349.945 423.886 244.515 423.886C139.086 423.886 53.6182 338.423 53.6182 232.998C53.6182 127.573 139.086 42.1096 244.515 42.1096C349.945 42.1096 435.412 127.573 435.412 232.998Z" stroke="url(#paint1_linear_6043_5252)" stroke-width="2"/>
<path d="M475.607 232.998C475.607 360.621 372.144 464.079 244.515 464.079C116.886 464.079 13.4231 360.621 13.4231 232.998C13.4231 105.375 116.886 1.91635 244.515 1.91635C372.144 1.91635 475.607 105.375 475.607 232.998Z" stroke="url(#paint2_linear_6043_5252)" stroke-width="2"/>
<rect x="58.4333" y="295.031" width="37.4049" height="37.7117" rx="7.73649" fill="#F1F1F1"/>
<path d="M69.167 311.231C69.167 308.726 69.167 307.474 69.945 306.696C70.723 305.918 71.9751 305.918 74.4795 305.918H79.7919C82.2962 305.918 83.5484 305.918 84.3264 306.696C85.1044 307.474 85.1044 308.726 85.1044 311.231V315.658C85.1044 317.327 85.1044 318.162 84.5857 318.681C84.0671 319.199 83.2323 319.199 81.5628 319.199H72.7086C71.0391 319.199 70.2043 319.199 69.6857 318.681C69.167 318.162 69.167 317.327 69.167 315.658V311.231Z" stroke="#707072" stroke-width="1.32812"/>
<path d="M85.9905 321.856H68.2822" stroke="#707072" stroke-width="1.32812" stroke-linecap="round"/>
<path d="M79.7922 316.543H74.4797" stroke="#707072" stroke-width="1.32812" stroke-linecap="round"/>
<rect x="115.438" y="9.10739" width="37.4049" height="37.7117" rx="7.73649" fill="#F1F1F1"/>
<path d="M126.171 25.307C126.171 22.8027 126.171 21.5505 126.949 20.7725C127.727 19.9945 128.979 19.9945 131.484 19.9945H136.796C139.3 19.9945 140.553 19.9945 141.331 20.7725C142.109 21.5505 142.109 22.8027 142.109 25.307V29.734C142.109 31.4036 142.109 32.2383 141.59 32.757C141.071 33.2757 140.236 33.2757 138.567 33.2757H129.713C128.043 33.2757 127.208 33.2757 126.69 32.757C126.171 32.2383 126.171 31.4036 126.171 29.734V25.307Z" stroke="#707072" stroke-width="1.32812"/>
<path d="M142.995 35.9319H125.286" stroke="#707072" stroke-width="1.32812" stroke-linecap="round"/>
<path d="M136.796 30.6194H131.484" stroke="#707072" stroke-width="1.32812" stroke-linecap="round"/>
<rect x="393.271" y="303.262" width="37.4049" height="37.7117" rx="7.73649" fill="#F1F1F1"/>
<path d="M414.629 328.316L416.4 330.086L419.942 326.545M412.858 314.149H408.608C407.617 314.149 407.121 314.149 406.742 314.342C406.409 314.512 406.138 314.783 405.968 315.116C405.775 315.495 405.775 315.991 405.775 316.982V327.253C405.775 328.245 405.775 328.741 405.968 329.12C406.138 329.453 406.409 329.724 406.742 329.893C407.121 330.086 407.617 330.086 408.608 330.086H411.973M412.858 314.149L418.171 319.462M412.858 314.149V318.045C412.858 318.541 412.858 318.789 412.955 318.978C413.04 319.145 413.175 319.28 413.342 319.365C413.531 319.462 413.779 319.462 414.275 319.462H418.171M418.171 319.462V323.446" stroke="#707072" stroke-width="1.77082" stroke-linecap="round" stroke-linejoin="round"/>
<rect x="344.263" y="11.7636" width="37.4049" height="37.7117" rx="7.73649" fill="#F1F1F1"/>
<path d="M365.621 36.8174L367.392 38.5882L370.934 35.0466M363.851 22.6508H359.601C358.609 22.6508 358.113 22.6508 357.734 22.8438C357.401 23.0136 357.13 23.2845 356.96 23.6177C356.767 23.9965 356.767 24.4924 356.767 25.4841V35.7549C356.767 36.7467 356.767 37.2426 356.96 37.6214C357.13 37.9545 357.401 38.2255 357.734 38.3952C358.113 38.5882 358.609 38.5882 359.601 38.5882H362.965M363.851 22.6508L369.163 27.9633M363.851 22.6508V26.5466C363.851 27.0425 363.851 27.2904 363.947 27.4798C364.032 27.6464 364.167 27.7819 364.334 27.8668C364.523 27.9633 364.771 27.9633 365.267 27.9633H369.163M369.163 27.9633V31.9476" stroke="#707072" stroke-width="1.77082" stroke-linecap="round" stroke-linejoin="round"/>
<rect x="144.765" y="154.878" width="37.4049" height="37.7117" rx="7.73649" fill="#F1F1F1"/>
<path d="M171.232 168.08C171.232 168.559 171.042 169.018 170.704 169.356C170.365 169.695 169.907 169.885 169.428 169.886H168.862V179.276C168.862 179.754 168.672 180.213 168.333 180.551C167.995 180.889 167.537 181.079 167.058 181.08H157.506C157.269 181.08 157.034 181.033 156.815 180.942C156.596 180.852 156.398 180.719 156.23 180.551C156.062 180.384 155.929 180.185 155.839 179.966C155.748 179.747 155.701 179.512 155.701 179.275C155.701 179.038 155.748 178.804 155.839 178.585C155.929 178.366 156.062 178.167 156.23 177.999C156.398 177.832 156.596 177.699 156.815 177.608C157.034 177.517 157.269 177.471 157.506 177.471H158.071V168.08C158.071 167.602 158.261 167.142 158.599 166.804C158.938 166.465 159.397 166.275 159.876 166.274H169.427C169.906 166.275 170.365 166.465 170.703 166.803C171.042 167.142 171.232 167.601 171.232 168.079V168.08ZM157.506 179.841H165.343C165.222 179.474 165.222 179.078 165.343 178.711H157.508C157.358 178.711 157.215 178.77 157.109 178.876C157.003 178.982 156.943 179.126 156.943 179.276C156.943 179.426 157.003 179.569 157.109 179.675C157.215 179.781 157.358 179.841 157.508 179.841H157.506ZM167.622 168.08C167.622 167.889 167.652 167.698 167.712 167.516H159.877C159.751 167.515 159.629 167.558 159.53 167.635L159.528 167.636C159.461 167.689 159.406 167.756 159.368 167.833C159.331 167.91 159.312 167.995 159.312 168.08V177.471H166.4C166.554 177.469 166.705 177.52 166.826 177.614C166.948 177.709 167.034 177.843 167.071 177.993C167.113 178.137 167.109 178.29 167.058 178.431C167.008 178.572 166.914 178.694 166.79 178.778C166.702 178.826 166.629 178.896 166.577 178.981C166.525 179.066 166.497 179.163 166.495 179.263C166.493 179.363 166.517 179.461 166.566 179.548C166.614 179.636 166.685 179.708 166.77 179.759C166.856 179.811 166.953 179.838 167.053 179.839C167.153 179.84 167.251 179.815 167.338 179.766C167.425 179.717 167.497 179.646 167.547 179.559C167.597 179.473 167.624 179.375 167.624 179.276L167.622 168.08ZM166.66 169.689H160.218V170.927H166.66V169.689ZM166.66 172.216H160.218V173.454H166.66V172.216ZM166.66 174.744H160.218V175.983H166.66V174.744ZM169.992 168.08C169.992 167.931 169.932 167.787 169.826 167.681C169.72 167.576 169.577 167.516 169.427 167.516C169.301 167.515 169.179 167.557 169.08 167.635H169.078C169.01 167.688 168.956 167.755 168.918 167.833C168.88 167.91 168.861 167.995 168.861 168.08V168.645H169.427C169.577 168.645 169.72 168.585 169.826 168.48C169.932 168.374 169.992 168.23 169.992 168.08Z" fill="#707072"/>
<rect x="383.423" y="108.091" width="37.4049" height="37.7117" rx="7.73649" fill="#F1F1F1"/>
<g clip-path="url(#clip0_6043_5252)">
<path d="M406.303 133.811L405.736 129.274C405.57 127.944 404.44 126.947 403.1 126.947H402.125H401.149C399.81 126.947 398.68 127.944 398.514 129.274L397.947 133.811C397.814 134.867 398.639 135.801 399.704 135.801H402.125H404.546C405.611 135.801 406.435 134.867 406.303 133.811Z" stroke="#707072" stroke-width="1.77082" stroke-linecap="round" stroke-linejoin="round"/>
<path d="M402.124 123.405C403.591 123.405 404.78 122.216 404.78 120.749C404.78 119.282 403.591 118.093 402.124 118.093C400.657 118.093 399.468 119.282 399.468 120.749C399.468 122.216 400.657 123.405 402.124 123.405Z" stroke="#707072" stroke-width="1.77082"/>
<path d="M395.041 126.062C396.019 126.062 396.812 125.269 396.812 124.291C396.812 123.313 396.019 122.52 395.041 122.52C394.063 122.52 393.271 123.313 393.271 124.291C393.271 125.269 394.063 126.062 395.041 126.062Z" stroke="#707072" stroke-width="1.77082"/>
<path d="M409.208 126.062C410.186 126.062 410.979 125.269 410.979 124.291C410.979 123.313 410.186 122.52 409.208 122.52C408.23 122.52 407.437 123.313 407.437 124.291C407.437 125.269 408.23 126.062 409.208 126.062Z" stroke="#707072" stroke-width="1.77082"/>
<path d="M395.041 128.718H394.77C393.905 128.718 393.166 129.344 393.024 130.198L392.728 131.968C392.548 133.048 393.381 134.03 394.475 134.03H397.697" stroke="#707072" stroke-width="1.77082" stroke-linecap="round" stroke-linejoin="round"/>
<path d="M409.208 128.718H409.479C410.344 128.718 411.083 129.344 411.225 130.198L411.521 131.968C411.7 133.048 410.868 134.03 409.774 134.03C408.745 134.03 407.521 134.03 406.552 134.03" stroke="#707072" stroke-width="1.77082" stroke-linecap="round" stroke-linejoin="round"/>
</g>
<rect x="194.859" y="306.537" width="37.4049" height="37.7117" rx="7.73649" fill="#F1F1F1"/>
<path d="M213.562 329.82V333.362M210.02 333.362H217.103M208.426 329.82H218.697C219.689 329.82 220.185 329.82 220.564 329.627C220.897 329.457 221.168 329.186 221.337 328.853C221.53 328.475 221.53 327.979 221.53 326.987V320.258C221.53 319.266 221.53 318.77 221.337 318.391C221.168 318.058 220.897 317.787 220.564 317.617C220.185 317.424 219.689 317.424 218.697 317.424H208.426C207.435 317.424 206.939 317.424 206.56 317.617C206.227 317.787 205.956 318.058 205.786 318.391C205.593 318.77 205.593 319.266 205.593 320.258V326.987C205.593 327.979 205.593 328.475 205.786 328.853C205.956 329.186 206.227 329.457 206.56 329.627C206.939 329.82 207.435 329.82 208.426 329.82Z" stroke="#707072" stroke-width="1.77082" stroke-linecap="round"/>
<rect x="325.561" y="195.286" width="37.4049" height="37.7117" rx="7.73649" fill="#F1F1F1"/>
<path fill-rule="evenodd" clip-rule="evenodd" d="M335.922 208.929C335.922 207.202 337.323 205.801 339.05 205.801H344.263H349.476C351.203 205.801 352.604 207.202 352.604 208.929V214.142V219.355C352.604 221.082 351.203 222.483 349.476 222.483H344.263H339.05C337.323 222.483 335.922 221.082 335.922 219.355V214.142V208.929ZM339.05 207.886C338.474 207.886 338.008 208.353 338.008 208.929V213.099H343.22V207.886H339.05ZM345.306 207.886V213.099H350.519V208.929C350.519 208.353 350.052 207.886 349.476 207.886H345.306ZM350.519 215.184H345.306V220.397H349.476C350.052 220.397 350.519 219.931 350.519 219.355V215.184ZM343.22 220.397V215.184H338.008V219.355C338.008 219.931 338.474 220.397 339.05 220.397H343.22Z" fill="#707072"/>
<rect x="224.187" y="70.3794" width="37.4049" height="37.7117" rx="7.73649" fill="#F1F1F1"/>
<path fill-rule="evenodd" clip-rule="evenodd" d="M234.548 84.0221C234.548 82.2947 235.949 80.8944 237.676 80.8944H242.889H248.102C249.829 80.8944 251.23 82.2947 251.23 84.0221V89.2351V94.448C251.23 96.1755 249.829 97.5758 248.102 97.5758H242.889H237.676C235.949 97.5758 234.548 96.1755 234.548 94.448V89.2351V84.0221ZM237.676 82.9796C237.1 82.9796 236.634 83.4463 236.634 84.0221V88.1925H241.846V82.9796H237.676ZM243.932 82.9796V88.1925H249.145V84.0221C249.145 83.4463 248.678 82.9796 248.102 82.9796H243.932ZM249.145 90.2777H243.932V95.4906H248.102C248.678 95.4906 249.145 95.0238 249.145 94.448V90.2777ZM241.846 95.4906V90.2777H236.634V94.448C236.634 95.0238 237.1 95.4906 237.676 95.4906H241.846Z" fill="#707072"/>
<rect x="12.4231" y="129.569" width="37.4049" height="37.7117" rx="7.73649" fill="#F1F1F1"/>
<g clip-path="url(#clip1_6043_5252)">
<path fill-rule="evenodd" clip-rule="evenodd" d="M36.8313 150.852L28.7569 156.311C26.7894 157.641 24.1245 156.244 24.1245 153.884V142.966C24.1245 140.605 26.7894 139.208 28.7569 140.539L36.8313 145.997C38.5565 147.164 38.5565 149.686 36.8313 150.852Z" fill="#707072"/>
</g>
<path d="M183.594 407.24V394.063H186.784V413.482H184.287L175.133 400.305V413.482H171.942V394.063H174.439L183.594 407.24ZM202.203 411.734C200.798 413.14 199.069 413.843 197.016 413.843C194.963 413.843 193.234 413.14 191.828 411.734C190.404 410.31 189.692 408.581 189.692 406.547C189.692 404.512 190.404 402.783 191.828 401.359C193.234 399.953 194.963 399.25 197.016 399.25C199.069 399.25 200.798 399.953 202.203 401.359C203.628 402.783 204.34 404.512 204.34 406.547C204.34 408.581 203.628 410.31 202.203 411.734ZM192.688 406.547C192.688 407.804 193.104 408.849 193.936 409.681C194.769 410.514 195.795 410.93 197.016 410.93C198.236 410.93 199.263 410.514 200.095 409.681C200.927 408.849 201.343 407.804 201.343 406.547C201.343 405.289 200.927 404.244 200.095 403.412C199.263 402.579 198.236 402.163 197.016 402.163C195.795 402.163 194.769 402.579 193.936 403.412C193.104 404.244 192.688 405.289 192.688 406.547ZM224.97 401.581V399.611H227.966V413.482H224.97V411.485C223.842 413.057 222.224 413.843 220.115 413.843C218.21 413.843 216.583 413.14 215.233 411.734C213.883 410.329 213.208 408.599 213.208 406.547C213.208 404.494 213.883 402.764 215.233 401.359C216.583 399.953 218.21 399.25 220.115 399.25C222.224 399.25 223.842 400.027 224.97 401.581ZM217.452 409.737C218.284 410.569 219.329 410.985 220.587 410.985C221.845 410.985 222.89 410.569 223.722 409.737C224.554 408.886 224.97 407.823 224.97 406.547C224.97 405.27 224.554 404.216 223.722 403.384C222.89 402.533 221.845 402.108 220.587 402.108C219.329 402.108 218.284 402.533 217.452 403.384C216.62 404.216 216.204 405.27 216.204 406.547C216.204 407.804 216.62 408.868 217.452 409.737ZM234.068 403.439C234.068 403.865 234.29 404.216 234.734 404.494C235.178 404.753 235.825 405.002 236.676 405.243C237.323 405.391 237.888 405.548 238.368 405.714C238.849 405.881 239.358 406.13 239.894 406.463C240.431 406.778 240.837 407.203 241.115 407.739C241.411 408.257 241.549 408.868 241.531 409.57C241.531 410.902 241.013 411.947 239.977 412.705C238.942 413.464 237.656 413.843 236.121 413.843C234.753 413.843 233.578 413.556 232.598 412.983C231.618 412.409 230.906 411.614 230.462 410.597L233.042 409.099C233.504 410.43 234.531 411.096 236.121 411.096C237.693 411.096 238.479 410.578 238.479 409.543C238.479 408.784 237.601 408.193 235.844 407.767C235.178 407.601 234.614 407.434 234.152 407.268C233.708 407.101 233.208 406.861 232.654 406.547C232.117 406.232 231.701 405.816 231.405 405.298C231.128 404.78 230.998 404.179 231.017 403.495C231.017 402.219 231.498 401.192 232.459 400.416C233.44 399.639 234.651 399.25 236.094 399.25C237.24 399.25 238.257 399.509 239.145 400.027C240.051 400.526 240.745 401.229 241.226 402.136L238.701 403.55C238.239 402.496 237.37 401.969 236.094 401.969C235.502 401.969 235.012 402.099 234.623 402.357C234.253 402.616 234.068 402.977 234.068 403.439ZM246.016 403.439C246.016 403.865 246.238 404.216 246.682 404.494C247.126 404.753 247.773 405.002 248.624 405.243C249.271 405.391 249.835 405.548 250.316 405.714C250.797 405.881 251.305 406.13 251.842 406.463C252.378 406.778 252.785 407.203 253.062 407.739C253.358 408.257 253.497 408.868 253.479 409.57C253.479 410.902 252.961 411.947 251.925 412.705C250.889 413.464 249.604 413.843 248.069 413.843C246.7 413.843 245.526 413.556 244.546 412.983C243.565 412.409 242.853 411.614 242.409 410.597L244.989 409.099C245.452 410.43 246.478 411.096 248.069 411.096C249.641 411.096 250.427 410.578 250.427 409.543C250.427 408.784 249.548 408.193 247.791 407.767C247.126 407.601 246.562 407.434 246.099 407.268C245.655 407.101 245.156 406.861 244.601 406.547C244.065 406.232 243.649 405.816 243.353 405.298C243.075 404.78 242.946 404.179 242.964 403.495C242.964 402.219 243.445 401.192 244.407 400.416C245.387 399.639 246.598 399.25 248.041 399.25C249.188 399.25 250.205 399.509 251.093 400.027C251.999 400.526 252.693 401.229 253.173 402.136L250.649 403.55C250.186 402.496 249.317 401.969 248.041 401.969C247.449 401.969 246.959 402.099 246.571 402.357C246.201 402.616 246.016 402.977 246.016 403.439ZM269.16 407.823H258.118C258.34 408.858 258.84 409.663 259.616 410.236C260.412 410.81 261.392 411.096 262.557 411.096C264.129 411.096 265.322 410.523 266.136 409.376L268.605 410.819C267.255 412.835 265.229 413.843 262.529 413.843C260.291 413.843 258.47 413.158 257.064 411.79C255.677 410.403 254.983 408.655 254.983 406.547C254.983 404.494 255.668 402.764 257.036 401.359C258.386 399.953 260.143 399.25 262.307 399.25C264.323 399.25 265.988 399.962 267.301 401.387C268.614 402.811 269.271 404.54 269.271 406.574C269.271 406.944 269.234 407.36 269.16 407.823ZM258.09 405.381H266.247C266.043 404.29 265.581 403.449 264.86 402.857C264.157 402.265 263.297 401.969 262.28 401.969C261.17 401.969 260.245 402.274 259.505 402.885C258.766 403.495 258.294 404.327 258.09 405.381ZM279.214 399.611V402.496H275.773V409.154C275.773 409.728 275.903 410.144 276.162 410.403C276.421 410.643 276.8 410.782 277.299 410.819C277.817 410.837 278.455 410.828 279.214 410.791V413.482C276.92 413.76 275.274 413.565 274.275 412.9C273.277 412.215 272.777 410.967 272.777 409.154V402.496H270.225V399.611H272.777V396.615L275.773 395.727V399.611H279.214ZM284.107 403.439C284.107 403.865 284.329 404.216 284.773 404.494C285.217 404.753 285.864 405.002 286.715 405.243C287.362 405.391 287.926 405.548 288.407 405.714C288.888 405.881 289.397 406.13 289.933 406.463C290.469 406.778 290.876 407.203 291.154 407.739C291.45 408.257 291.588 408.868 291.57 409.57C291.57 410.902 291.052 411.947 290.016 412.705C288.981 413.464 287.695 413.843 286.16 413.843C284.791 413.843 283.617 413.556 282.637 412.983C281.657 412.409 280.945 411.614 280.501 410.597L283.081 409.099C283.543 410.43 284.57 411.096 286.16 411.096C287.732 411.096 288.518 410.578 288.518 409.543C288.518 408.784 287.64 408.193 285.883 407.767C285.217 407.601 284.653 407.434 284.19 407.268C283.747 407.101 283.247 406.861 282.692 406.547C282.156 406.232 281.74 405.816 281.444 405.298C281.167 404.78 281.037 404.179 281.056 403.495C281.056 402.219 281.536 401.192 282.498 400.416C283.478 399.639 284.69 399.25 286.132 399.25C287.279 399.25 288.296 399.509 289.184 400.027C290.09 400.526 290.784 401.229 291.265 402.136L288.74 403.55C288.278 402.496 287.409 401.969 286.132 401.969C285.541 401.969 285.05 402.099 284.662 402.357C284.292 402.616 284.107 402.977 284.107 403.439ZM306.937 409.681L310.488 399.611H313.679L308.352 413.926C307.02 417.514 304.764 419.215 301.583 419.031V416.229C302.508 416.284 303.257 416.09 303.83 415.646C304.403 415.202 304.884 414.49 305.273 413.51L305.411 413.232L299.53 399.611H302.804L306.937 409.681ZM328.41 407.823H317.368C317.59 408.858 318.09 409.663 318.866 410.236C319.662 410.81 320.642 411.096 321.807 411.096C323.379 411.096 324.572 410.523 325.386 409.376L327.855 410.819C326.505 412.835 324.48 413.843 321.779 413.843C319.541 413.843 317.72 413.158 316.314 411.79C314.927 410.403 314.233 408.655 314.233 406.547C314.233 404.494 314.918 402.764 316.286 401.359C317.636 399.953 319.393 399.25 321.557 399.25C323.573 399.25 325.238 399.962 326.551 401.387C327.864 402.811 328.521 404.54 328.521 406.574C328.521 406.944 328.484 407.36 328.41 407.823ZM317.341 405.381H325.497C325.293 404.29 324.831 403.449 324.11 402.857C323.407 402.265 322.547 401.969 321.53 401.969C320.42 401.969 319.495 402.274 318.755 402.885C318.016 403.495 317.544 404.327 317.341 405.381ZM338.464 399.611V402.496H335.024V409.154C335.024 409.728 335.153 410.144 335.412 410.403C335.671 410.643 336.05 410.782 336.549 410.819C337.067 410.837 337.705 410.828 338.464 410.791V413.482C336.17 413.76 334.524 413.565 333.525 412.9C332.527 412.215 332.027 410.967 332.027 409.154V402.496H329.475V399.611H332.027V396.615L335.024 395.727V399.611H338.464Z" fill="black"/>
<rect x="463.083" y="207.797" width="37.4049" height="37.7117" rx="7.73649" fill="#F1F1F1"/>
<g clip-path="url(#clip2_6043_5252)">
<path d="M486.999 216.839H476.571C476.164 216.839 475.774 217.001 475.487 217.288C475.199 217.576 475.038 217.966 475.038 218.372V234.934C475.038 235.341 475.199 235.731 475.487 236.018C475.774 236.306 476.164 236.467 476.571 236.467H486.999C487.405 236.467 487.795 236.306 488.083 236.018C488.371 235.731 488.532 235.341 488.532 234.934V218.372C488.532 217.966 488.371 217.576 488.083 217.288C487.795 217.001 487.405 216.839 486.999 216.839ZM486.999 234.934H476.571V218.372H486.999V234.934Z" fill="#707072"/>
<path d="M481.786 233.4C482.328 233.4 482.767 232.988 482.767 232.48C482.767 231.972 482.328 231.56 481.786 231.56C481.244 231.56 480.804 231.972 480.804 232.48C480.804 232.988 481.244 233.4 481.786 233.4Z" fill="#707072"/>
</g>
<path d="M76.1134 451.231V442.879H77.6014V454.079H76.4014L70.6414 445.711V454.079H69.1534V442.879H70.3534L76.1134 451.231ZM86.6051 453.071C85.7945 453.882 84.7971 454.287 83.6131 454.287C82.4291 454.287 81.4318 453.882 80.6211 453.071C79.8105 452.261 79.4051 451.263 79.4051 450.079C79.4051 448.895 79.8105 447.898 80.6211 447.087C81.4318 446.277 82.4291 445.871 83.6131 445.871C84.7971 445.871 85.7945 446.277 86.6051 447.087C87.4265 447.909 87.8371 448.906 87.8371 450.079C87.8371 451.253 87.4265 452.25 86.6051 453.071ZM83.6131 452.927C84.4131 452.927 85.0851 452.655 85.6291 452.111C86.1731 451.567 86.4451 450.89 86.4451 450.079C86.4451 449.269 86.1731 448.591 85.6291 448.047C85.0851 447.503 84.4131 447.231 83.6131 447.231C82.8238 447.231 82.1571 447.503 81.6131 448.047C81.0691 448.591 80.7971 449.269 80.7971 450.079C80.7971 450.89 81.0691 451.567 81.6131 452.111C82.1571 452.655 82.8238 452.927 83.6131 452.927ZM100.102 447.455V442.879H101.494V454.079H100.102V452.703C99.4195 453.759 98.4115 454.287 97.0781 454.287C95.9475 454.287 94.9928 453.882 94.2141 453.071C93.4248 452.25 93.0301 451.253 93.0301 450.079C93.0301 448.917 93.4248 447.925 94.2141 447.103C95.0035 446.282 95.9581 445.871 97.0781 445.871C98.4115 445.871 99.4195 446.399 100.102 447.455ZM97.2541 452.943C98.0648 452.943 98.7421 452.671 99.2861 452.127C99.8301 451.562 100.102 450.879 100.102 450.079C100.102 449.269 99.8301 448.591 99.2861 448.047C98.7421 447.493 98.0648 447.215 97.2541 447.215C96.4541 447.215 95.7821 447.493 95.2381 448.047C94.6941 448.591 94.4221 449.269 94.4221 450.079C94.4221 450.879 94.6941 451.562 95.2381 452.127C95.7821 452.671 96.4541 452.943 97.2541 452.943ZM111.283 450.719H104.579C104.718 451.423 105.043 451.978 105.555 452.383C106.067 452.778 106.707 452.975 107.475 452.975C108.531 452.975 109.299 452.586 109.779 451.807L110.963 452.479C110.174 453.685 109 454.287 107.443 454.287C106.184 454.287 105.15 453.893 104.339 453.103C103.55 452.293 103.155 451.285 103.155 450.079C103.155 448.863 103.544 447.861 104.323 447.071C105.102 446.271 106.11 445.871 107.347 445.871C108.52 445.871 109.475 446.287 110.211 447.119C110.958 447.93 111.331 448.922 111.331 450.095C111.331 450.298 111.315 450.506 111.283 450.719ZM107.347 447.183C106.611 447.183 105.992 447.391 105.491 447.807C105 448.223 104.696 448.789 104.579 449.503H109.923C109.806 448.767 109.512 448.197 109.043 447.791C108.574 447.386 108.008 447.183 107.347 447.183ZM115.707 452.591L118.219 446.079H119.723L116.523 454.079H114.891L111.691 446.079H113.195L115.707 452.591ZM121.604 444.623C121.337 444.623 121.113 444.533 120.932 444.351C120.751 444.17 120.66 443.951 120.66 443.695C120.66 443.439 120.751 443.221 120.932 443.039C121.113 442.847 121.337 442.751 121.604 442.751C121.86 442.751 122.079 442.847 122.26 443.039C122.441 443.221 122.532 443.439 122.532 443.695C122.532 443.951 122.441 444.17 122.26 444.351C122.079 444.533 121.86 444.623 121.604 444.623ZM122.292 454.079H120.9V446.079H122.292V454.079ZM128.176 454.287C126.97 454.287 125.968 453.887 125.168 453.087C124.368 452.277 123.968 451.274 123.968 450.079C123.968 448.885 124.368 447.887 125.168 447.087C125.968 446.277 126.97 445.871 128.176 445.871C128.965 445.871 129.674 446.063 130.304 446.447C130.933 446.821 131.402 447.327 131.712 447.967L130.544 448.639C130.341 448.213 130.026 447.871 129.6 447.615C129.184 447.359 128.709 447.231 128.176 447.231C127.376 447.231 126.704 447.503 126.16 448.047C125.626 448.602 125.36 449.279 125.36 450.079C125.36 450.869 125.626 451.541 126.16 452.095C126.704 452.639 127.376 452.911 128.176 452.911C128.709 452.911 129.189 452.789 129.616 452.543C130.042 452.287 130.368 451.946 130.592 451.519L131.776 452.207C131.424 452.847 130.928 453.354 130.288 453.727C129.648 454.101 128.944 454.287 128.176 454.287ZM140.721 450.719H134.017C134.155 451.423 134.481 451.978 134.993 452.383C135.505 452.778 136.145 452.975 136.913 452.975C137.969 452.975 138.737 452.586 139.217 451.807L140.401 452.479C139.611 453.685 138.438 454.287 136.881 454.287C135.622 454.287 134.587 453.893 133.777 453.103C132.987 452.293 132.593 451.285 132.593 450.079C132.593 448.863 132.982 447.861 133.761 447.071C134.539 446.271 135.547 445.871 136.785 445.871C137.958 445.871 138.913 446.287 139.649 447.119C140.395 447.93 140.769 448.922 140.769 450.095C140.769 450.298 140.753 450.506 140.721 450.719ZM136.785 447.183C136.049 447.183 135.43 447.391 134.929 447.807C134.438 448.223 134.134 448.789 134.017 449.503H139.361C139.243 448.767 138.95 448.197 138.481 447.791C138.011 447.386 137.446 447.183 136.785 447.183ZM143.256 448.239C143.256 448.751 143.784 449.151 144.84 449.439C145.235 449.525 145.566 449.615 145.832 449.711C146.11 449.797 146.408 449.93 146.728 450.111C147.059 450.293 147.31 450.533 147.48 450.831C147.651 451.13 147.736 451.482 147.736 451.887C147.736 452.613 147.454 453.194 146.888 453.631C146.323 454.069 145.608 454.287 144.744 454.287C143.976 454.287 143.31 454.122 142.744 453.791C142.19 453.45 141.795 452.991 141.56 452.415L142.76 451.727C142.888 452.111 143.128 452.415 143.48 452.639C143.832 452.863 144.254 452.975 144.744 452.975C145.224 452.975 145.608 452.885 145.896 452.703C146.184 452.522 146.328 452.25 146.328 451.887C146.328 451.343 145.8 450.949 144.744 450.703C144.392 450.607 144.126 450.533 143.944 450.479C143.763 450.426 143.512 450.33 143.192 450.191C142.883 450.053 142.648 449.909 142.488 449.759C142.328 449.599 142.179 449.391 142.04 449.135C141.912 448.869 141.848 448.575 141.848 448.255C141.848 447.562 142.115 446.991 142.648 446.543C143.192 446.095 143.87 445.871 144.68 445.871C145.331 445.871 145.907 446.021 146.408 446.319C146.92 446.607 147.304 447.013 147.56 447.535L146.392 448.191C146.104 447.509 145.534 447.167 144.68 447.167C144.275 447.167 143.934 447.263 143.656 447.455C143.39 447.647 143.256 447.909 143.256 448.239ZM157.368 445.871C158.307 445.871 159.059 446.17 159.624 446.767C160.19 447.354 160.472 448.154 160.472 449.167V454.079H159.08V449.247C159.08 448.607 158.904 448.106 158.552 447.743C158.2 447.381 157.715 447.199 157.096 447.199C156.382 447.199 155.816 447.423 155.4 447.871C154.984 448.309 154.776 448.965 154.776 449.839V454.079H153.384V442.879H154.776V447.231C155.331 446.325 156.195 445.871 157.368 445.871ZM169.04 447.455V446.079H170.432V454.079H169.04V452.703C168.357 453.759 167.349 454.287 166.016 454.287C164.885 454.287 163.93 453.882 163.152 453.071C162.362 452.25 161.968 451.253 161.968 450.079C161.968 448.917 162.362 447.925 163.152 447.103C163.941 446.282 164.896 445.871 166.016 445.871C167.349 445.871 168.357 446.399 169.04 447.455ZM166.192 452.943C167.002 452.943 167.68 452.671 168.224 452.127C168.768 451.562 169.04 450.879 169.04 450.079C169.04 449.269 168.768 448.591 168.224 448.047C167.68 447.493 167.002 447.215 166.192 447.215C165.392 447.215 164.72 447.493 164.176 448.047C163.632 448.591 163.36 449.269 163.36 450.079C163.36 450.879 163.632 451.562 164.176 452.127C164.72 452.671 165.392 452.943 166.192 452.943ZM175.629 452.591L178.141 446.079H179.645L176.445 454.079H174.813L171.613 446.079H173.117L175.629 452.591ZM188.189 450.719H181.485C181.624 451.423 181.949 451.978 182.461 452.383C182.973 452.778 183.613 452.975 184.381 452.975C185.437 452.975 186.205 452.586 186.685 451.807L187.869 452.479C187.08 453.685 185.907 454.287 184.349 454.287C183.091 454.287 182.056 453.893 181.245 453.103C180.456 452.293 180.061 451.285 180.061 450.079C180.061 448.863 180.451 447.861 181.229 447.071C182.008 446.271 183.016 445.871 184.253 445.871C185.427 445.871 186.381 446.287 187.117 447.119C187.864 447.93 188.237 448.922 188.237 450.095C188.237 450.298 188.221 450.506 188.189 450.719ZM184.253 447.183C183.517 447.183 182.899 447.391 182.397 447.807C181.907 448.223 181.603 448.789 181.485 449.503H186.829C186.712 448.767 186.419 448.197 185.949 447.791C185.48 447.386 184.915 447.183 184.253 447.183ZM198.253 445.871C199.373 445.871 200.328 446.282 201.117 447.103C201.907 447.925 202.301 448.917 202.301 450.079C202.301 451.253 201.907 452.25 201.117 453.071C200.339 453.882 199.384 454.287 198.253 454.287C196.931 454.287 195.923 453.759 195.229 452.703V454.079H193.837V442.879H195.229V447.455C195.923 446.399 196.931 445.871 198.253 445.871ZM198.077 452.943C198.877 452.943 199.549 452.671 200.093 452.127C200.637 451.562 200.909 450.879 200.909 450.079C200.909 449.269 200.637 448.591 200.093 448.047C199.549 447.493 198.877 447.215 198.077 447.215C197.267 447.215 196.589 447.493 196.045 448.047C195.501 448.591 195.229 449.269 195.229 450.079C195.229 450.879 195.501 451.562 196.045 452.127C196.589 452.671 197.267 452.943 198.077 452.943ZM211.642 450.719H204.938C205.077 451.423 205.402 451.978 205.914 452.383C206.426 452.778 207.066 452.975 207.834 452.975C208.89 452.975 209.658 452.586 210.138 451.807L211.322 452.479C210.533 453.685 209.36 454.287 207.802 454.287C206.544 454.287 205.509 453.893 204.698 453.103C203.909 452.293 203.514 451.285 203.514 450.079C203.514 448.863 203.904 447.861 204.682 447.071C205.461 446.271 206.469 445.871 207.706 445.871C208.88 445.871 209.834 446.287 210.57 447.119C211.317 447.93 211.69 448.922 211.69 450.095C211.69 450.298 211.674 450.506 211.642 450.719ZM207.706 447.183C206.97 447.183 206.352 447.391 205.85 447.807C205.36 448.223 205.056 448.789 204.938 449.503H210.282C210.165 448.767 209.872 448.197 209.402 447.791C208.933 447.386 208.368 447.183 207.706 447.183ZM220.955 450.719H214.251C214.39 451.423 214.715 451.978 215.227 452.383C215.739 452.778 216.379 452.975 217.147 452.975C218.203 452.975 218.971 452.586 219.451 451.807L220.635 452.479C219.846 453.685 218.672 454.287 217.115 454.287C215.856 454.287 214.822 453.893 214.011 453.103C213.222 452.293 212.827 451.285 212.827 450.079C212.827 448.863 213.216 447.861 213.995 447.071C214.774 446.271 215.782 445.871 217.019 445.871C218.192 445.871 219.147 446.287 219.883 447.119C220.63 447.93 221.003 448.922 221.003 450.095C221.003 450.298 220.987 450.506 220.955 450.719ZM217.019 447.183C216.283 447.183 215.664 447.391 215.163 447.807C214.672 448.223 214.368 448.789 214.251 449.503H219.595C219.478 448.767 219.184 448.197 218.715 447.791C218.246 447.386 217.68 447.183 217.019 447.183ZM226.587 445.871C227.526 445.871 228.278 446.17 228.843 446.767C229.408 447.354 229.691 448.154 229.691 449.167V454.079H228.299V449.247C228.299 448.607 228.123 448.106 227.771 447.743C227.419 447.381 226.934 447.199 226.315 447.199C225.6 447.199 225.035 447.423 224.619 447.871C224.203 448.309 223.995 448.965 223.995 449.839V454.079H222.603V446.079H223.995V447.231C224.55 446.325 225.414 445.871 226.587 445.871ZM242.258 447.455V446.079H243.65V454.079H242.258V452.703C241.576 453.759 240.568 454.287 239.234 454.287C238.104 454.287 237.149 453.882 236.37 453.071C235.581 452.25 235.186 451.253 235.186 450.079C235.186 448.917 235.581 447.925 236.37 447.103C237.16 446.282 238.114 445.871 239.234 445.871C240.568 445.871 241.576 446.399 242.258 447.455ZM239.41 452.943C240.221 452.943 240.898 452.671 241.442 452.127C241.986 451.562 242.258 450.879 242.258 450.079C242.258 449.269 241.986 448.591 241.442 448.047C240.898 447.493 240.221 447.215 239.41 447.215C238.61 447.215 237.938 447.493 237.394 448.047C236.85 448.591 236.578 449.269 236.578 450.079C236.578 450.879 236.85 451.562 237.394 452.127C237.938 452.671 238.61 452.943 239.41 452.943ZM252.383 447.455V442.879H253.775V454.079H252.383V452.703C251.701 453.759 250.693 454.287 249.359 454.287C248.229 454.287 247.274 453.882 246.495 453.071C245.706 452.25 245.311 451.253 245.311 450.079C245.311 448.917 245.706 447.925 246.495 447.103C247.285 446.282 248.239 445.871 249.359 445.871C250.693 445.871 251.701 446.399 252.383 447.455ZM249.535 452.943C250.346 452.943 251.023 452.671 251.567 452.127C252.111 451.562 252.383 450.879 252.383 450.079C252.383 449.269 252.111 448.591 251.567 448.047C251.023 447.493 250.346 447.215 249.535 447.215C248.735 447.215 248.063 447.493 247.519 448.047C246.975 448.591 246.703 449.269 246.703 450.079C246.703 450.879 246.975 451.562 247.519 452.127C248.063 452.671 248.735 452.943 249.535 452.943ZM262.508 447.455V442.879H263.9V454.079H262.508V452.703C261.826 453.759 260.818 454.287 259.484 454.287C258.354 454.287 257.399 453.882 256.62 453.071C255.831 452.25 255.436 451.253 255.436 450.079C255.436 448.917 255.831 447.925 256.62 447.103C257.41 446.282 258.364 445.871 259.484 445.871C260.818 445.871 261.826 446.399 262.508 447.455ZM259.66 452.943C260.471 452.943 261.148 452.671 261.692 452.127C262.236 451.562 262.508 450.879 262.508 450.079C262.508 449.269 262.236 448.591 261.692 448.047C261.148 447.493 260.471 447.215 259.66 447.215C258.86 447.215 258.188 447.493 257.644 448.047C257.1 448.591 256.828 449.269 256.828 450.079C256.828 450.879 257.1 451.562 257.644 452.127C258.188 452.671 258.86 452.943 259.66 452.943ZM273.689 450.719H266.985C267.124 451.423 267.449 451.978 267.961 452.383C268.473 452.778 269.113 452.975 269.881 452.975C270.937 452.975 271.705 452.586 272.185 451.807L273.369 452.479C272.58 453.685 271.407 454.287 269.849 454.287C268.591 454.287 267.556 453.893 266.745 453.103C265.956 452.293 265.561 451.285 265.561 450.079C265.561 448.863 265.951 447.861 266.729 447.071C267.508 446.271 268.516 445.871 269.753 445.871C270.927 445.871 271.881 446.287 272.617 447.119C273.364 447.93 273.737 448.922 273.737 450.095C273.737 450.298 273.721 450.506 273.689 450.719ZM269.753 447.183C269.017 447.183 268.399 447.391 267.897 447.807C267.407 448.223 267.103 448.789 266.985 449.503H272.329C272.212 448.767 271.919 448.197 271.449 447.791C270.98 447.386 270.415 447.183 269.753 447.183ZM281.946 447.455V442.879H283.338V454.079H281.946V452.703C281.263 453.759 280.255 454.287 278.922 454.287C277.791 454.287 276.837 453.882 276.058 453.071C275.269 452.25 274.874 451.253 274.874 450.079C274.874 448.917 275.269 447.925 276.058 447.103C276.847 446.282 277.802 445.871 278.922 445.871C280.255 445.871 281.263 446.399 281.946 447.455ZM279.098 452.943C279.909 452.943 280.586 452.671 281.13 452.127C281.674 451.562 281.946 450.879 281.946 450.079C281.946 449.269 281.674 448.591 281.13 448.047C280.586 447.493 279.909 447.215 279.098 447.215C278.298 447.215 277.626 447.493 277.082 448.047C276.538 448.591 276.266 449.269 276.266 450.079C276.266 450.879 276.538 451.562 277.082 452.127C277.626 452.671 278.298 452.943 279.098 452.943ZM286.327 454.255C286.039 454.255 285.794 454.154 285.591 453.951C285.388 453.749 285.287 453.503 285.287 453.215C285.287 452.927 285.388 452.682 285.591 452.479C285.794 452.277 286.039 452.175 286.327 452.175C286.626 452.175 286.871 452.277 287.063 452.479C287.266 452.682 287.367 452.927 287.367 453.215C287.367 453.503 287.266 453.749 287.063 453.951C286.871 454.154 286.626 454.255 286.327 454.255ZM298.745 454.287C297.039 454.287 295.636 453.727 294.537 452.607C293.439 451.498 292.889 450.122 292.889 448.479C292.889 446.837 293.439 445.461 294.537 444.351C295.636 443.231 297.039 442.671 298.745 442.671C299.759 442.671 300.697 442.917 301.561 443.407C302.425 443.898 303.097 444.559 303.577 445.391L302.281 446.143C301.961 445.525 301.481 445.034 300.841 444.671C300.212 444.298 299.513 444.111 298.745 444.111C297.444 444.111 296.388 444.527 295.577 445.359C294.767 446.181 294.361 447.221 294.361 448.479C294.361 449.727 294.767 450.762 295.577 451.583C296.388 452.415 297.444 452.831 298.745 452.831C299.513 452.831 300.212 452.65 300.841 452.287C301.481 451.914 301.961 451.423 302.281 450.815L303.577 451.551C303.108 452.383 302.441 453.05 301.577 453.551C300.724 454.042 299.78 454.287 298.745 454.287ZM311.839 453.071C311.029 453.882 310.031 454.287 308.847 454.287C307.663 454.287 306.666 453.882 305.855 453.071C305.045 452.261 304.639 451.263 304.639 450.079C304.639 448.895 305.045 447.898 305.855 447.087C306.666 446.277 307.663 445.871 308.847 445.871C310.031 445.871 311.029 446.277 311.839 447.087C312.661 447.909 313.071 448.906 313.071 450.079C313.071 451.253 312.661 452.25 311.839 453.071ZM308.847 452.927C309.647 452.927 310.319 452.655 310.863 452.111C311.407 451.567 311.679 450.89 311.679 450.079C311.679 449.269 311.407 448.591 310.863 448.047C310.319 447.503 309.647 447.231 308.847 447.231C308.058 447.231 307.391 447.503 306.847 448.047C306.303 448.591 306.031 449.269 306.031 450.079C306.031 450.89 306.303 451.567 306.847 452.111C307.391 452.655 308.058 452.927 308.847 452.927ZM318.696 445.871C319.635 445.871 320.387 446.17 320.952 446.767C321.518 447.354 321.8 448.154 321.8 449.167V454.079H320.408V449.247C320.408 448.607 320.232 448.106 319.88 447.743C319.528 447.381 319.043 447.199 318.424 447.199C317.71 447.199 317.144 447.423 316.728 447.871C316.312 448.309 316.104 448.965 316.104 449.839V454.079H314.712V446.079H316.104V447.231C316.659 446.325 317.523 445.871 318.696 445.871ZM327.728 445.871C328.666 445.871 329.418 446.17 329.984 446.767C330.549 447.354 330.832 448.154 330.832 449.167V454.079H329.44V449.247C329.44 448.607 329.264 448.106 328.912 447.743C328.56 447.381 328.074 447.199 327.456 447.199C326.741 447.199 326.176 447.423 325.76 447.871C325.344 448.309 325.136 448.965 325.136 449.839V454.079H323.744V446.079H325.136V447.231C325.69 446.325 326.554 445.871 327.728 445.871ZM340.455 450.719H333.751C333.89 451.423 334.215 451.978 334.727 452.383C335.239 452.778 335.879 452.975 336.647 452.975C337.703 452.975 338.471 452.586 338.951 451.807L340.135 452.479C339.346 453.685 338.172 454.287 336.615 454.287C335.356 454.287 334.322 453.893 333.511 453.103C332.722 452.293 332.327 451.285 332.327 450.079C332.327 448.863 332.716 447.861 333.495 447.071C334.274 446.271 335.282 445.871 336.519 445.871C337.692 445.871 338.647 446.287 339.383 447.119C340.13 447.93 340.503 448.922 340.503 450.095C340.503 450.298 340.487 450.506 340.455 450.719ZM336.519 447.183C335.783 447.183 335.164 447.391 334.663 447.807C334.172 448.223 333.868 448.789 333.751 449.503H339.095C338.978 448.767 338.684 448.197 338.215 447.791C337.746 447.386 337.18 447.183 336.519 447.183ZM345.847 454.287C344.642 454.287 343.639 453.887 342.839 453.087C342.039 452.277 341.639 451.274 341.639 450.079C341.639 448.885 342.039 447.887 342.839 447.087C343.639 446.277 344.642 445.871 345.847 445.871C346.637 445.871 347.346 446.063 347.975 446.447C348.605 446.821 349.074 447.327 349.383 447.967L348.215 448.639C348.013 448.213 347.698 447.871 347.271 447.615C346.855 447.359 346.381 447.231 345.847 447.231C345.047 447.231 344.375 447.503 343.831 448.047C343.298 448.602 343.031 449.279 343.031 450.079C343.031 450.869 343.298 451.541 343.831 452.095C344.375 452.639 345.047 452.911 345.847 452.911C346.381 452.911 346.861 452.789 347.287 452.543C347.714 452.287 348.039 451.946 348.263 451.519L349.447 452.207C349.095 452.847 348.599 453.354 347.959 453.727C347.319 454.101 346.615 454.287 345.847 454.287ZM355.174 446.079V447.423H353.046V451.759C353.046 452.154 353.121 452.437 353.27 452.607C353.43 452.767 353.67 452.853 353.99 452.863C354.31 452.863 354.705 452.853 355.174 452.831V454.079C353.947 454.239 353.051 454.138 352.486 453.775C351.931 453.413 351.654 452.741 351.654 451.759V447.423H350.07V446.079H351.654V444.255L353.046 443.839V446.079H355.174ZM367.493 447.455V446.079H368.885V454.079H367.493V452.703C366.81 453.759 365.802 454.287 364.469 454.287C363.338 454.287 362.383 453.882 361.605 453.071C360.815 452.25 360.421 451.253 360.421 450.079C360.421 448.917 360.815 447.925 361.605 447.103C362.394 446.282 363.349 445.871 364.469 445.871C365.802 445.871 366.81 446.399 367.493 447.455ZM364.645 452.943C365.455 452.943 366.133 452.671 366.677 452.127C367.221 451.562 367.493 450.879 367.493 450.079C367.493 449.269 367.221 448.591 366.677 448.047C366.133 447.493 365.455 447.215 364.645 447.215C363.845 447.215 363.173 447.493 362.629 448.047C362.085 448.591 361.813 449.269 361.813 450.079C361.813 450.879 362.085 451.562 362.629 452.127C363.173 452.671 363.845 452.943 364.645 452.943ZM381.618 447.455V442.879H383.01V454.079H381.618V452.703C380.935 453.759 379.927 454.287 378.594 454.287C377.463 454.287 376.508 453.882 375.73 453.071C374.94 452.25 374.546 451.253 374.546 450.079C374.546 448.917 374.94 447.925 375.73 447.103C376.519 446.282 377.474 445.871 378.594 445.871C379.927 445.871 380.935 446.399 381.618 447.455ZM378.77 452.943C379.58 452.943 380.258 452.671 380.802 452.127C381.346 451.562 381.618 450.879 381.618 450.079C381.618 449.269 381.346 448.591 380.802 448.047C380.258 447.493 379.58 447.215 378.77 447.215C377.97 447.215 377.298 447.493 376.754 448.047C376.21 448.591 375.938 449.269 375.938 450.079C375.938 450.879 376.21 451.562 376.754 452.127C377.298 452.671 377.97 452.943 378.77 452.943ZM392.799 450.719H386.095C386.233 451.423 386.559 451.978 387.071 452.383C387.583 452.778 388.223 452.975 388.991 452.975C390.047 452.975 390.815 452.586 391.295 451.807L392.479 452.479C391.689 453.685 390.516 454.287 388.959 454.287C387.7 454.287 386.665 453.893 385.855 453.103C385.065 452.293 384.671 451.285 384.671 450.079C384.671 448.863 385.06 447.861 385.839 447.071C386.617 446.271 387.625 445.871 388.863 445.871C390.036 445.871 390.991 446.287 391.727 447.119C392.473 447.93 392.847 448.922 392.847 450.095C392.847 450.298 392.831 450.506 392.799 450.719ZM388.863 447.183C388.127 447.183 387.508 447.391 387.007 447.807C386.516 448.223 386.212 448.789 386.095 449.503H391.439C391.321 448.767 391.028 448.197 390.559 447.791C390.089 447.386 389.524 447.183 388.863 447.183ZM397.222 452.591L399.734 446.079H401.238L398.038 454.079H396.406L393.206 446.079H394.71L397.222 452.591ZM403.12 444.623C402.853 444.623 402.629 444.533 402.448 444.351C402.266 444.17 402.176 443.951 402.176 443.695C402.176 443.439 402.266 443.221 402.448 443.039C402.629 442.847 402.853 442.751 403.12 442.751C403.376 442.751 403.594 442.847 403.776 443.039C403.957 443.221 404.048 443.439 404.048 443.695C404.048 443.951 403.957 444.17 403.776 444.351C403.594 444.533 403.376 444.623 403.12 444.623ZM403.808 454.079H402.416V446.079H403.808V454.079ZM409.691 454.287C408.486 454.287 407.483 453.887 406.683 453.087C405.883 452.277 405.483 451.274 405.483 450.079C405.483 448.885 405.883 447.887 406.683 447.087C407.483 446.277 408.486 445.871 409.691 445.871C410.481 445.871 411.19 446.063 411.819 446.447C412.449 446.821 412.918 447.327 413.227 447.967L412.059 448.639C411.857 448.213 411.542 447.871 411.115 447.615C410.699 447.359 410.225 447.231 409.691 447.231C408.891 447.231 408.219 447.503 407.675 448.047C407.142 448.602 406.875 449.279 406.875 450.079C406.875 450.869 407.142 451.541 407.675 452.095C408.219 452.639 408.891 452.911 409.691 452.911C410.225 452.911 410.705 452.789 411.131 452.543C411.558 452.287 411.883 451.946 412.107 451.519L413.291 452.207C412.939 452.847 412.443 453.354 411.803 453.727C411.163 454.101 410.459 454.287 409.691 454.287ZM422.236 450.719H415.532C415.671 451.423 415.996 451.978 416.508 452.383C417.02 452.778 417.66 452.975 418.428 452.975C419.484 452.975 420.252 452.586 420.732 451.807L421.916 452.479C421.127 453.685 419.954 454.287 418.396 454.287C417.138 454.287 416.103 453.893 415.292 453.103C414.503 452.293 414.108 451.285 414.108 450.079C414.108 448.863 414.498 447.861 415.276 447.071C416.055 446.271 417.063 445.871 418.3 445.871C419.474 445.871 420.428 446.287 421.164 447.119C421.911 447.93 422.284 448.922 422.284 450.095C422.284 450.298 422.268 450.506 422.236 450.719ZM418.3 447.183C417.564 447.183 416.946 447.391 416.444 447.807C415.954 448.223 415.65 448.789 415.532 449.503H420.876C420.759 448.767 420.466 448.197 419.996 447.791C419.527 447.386 418.962 447.183 418.3 447.183ZM432.236 446.079V447.423H430.108V451.759C430.108 452.154 430.183 452.437 430.332 452.607C430.492 452.767 430.732 452.853 431.052 452.863C431.372 452.863 431.767 452.853 432.236 452.831V454.079C431.01 454.239 430.114 454.138 429.548 453.775C428.994 453.413 428.716 452.741 428.716 451.759V447.423H427.132V446.079H428.716V444.255L430.108 443.839V446.079H432.236ZM440.23 453.071C439.419 453.882 438.422 454.287 437.238 454.287C436.054 454.287 435.057 453.882 434.246 453.071C433.435 452.261 433.03 451.263 433.03 450.079C433.03 448.895 433.435 447.898 434.246 447.087C435.057 446.277 436.054 445.871 437.238 445.871C438.422 445.871 439.419 446.277 440.23 447.087C441.051 447.909 441.462 448.906 441.462 450.079C441.462 451.253 441.051 452.25 440.23 453.071ZM437.238 452.927C438.038 452.927 438.71 452.655 439.254 452.111C439.798 451.567 440.07 450.89 440.07 450.079C440.07 449.269 439.798 448.591 439.254 448.047C438.71 447.503 438.038 447.231 437.238 447.231C436.449 447.231 435.782 447.503 435.238 448.047C434.694 448.591 434.422 449.269 434.422 450.079C434.422 450.89 434.694 451.567 435.238 452.111C435.782 452.655 436.449 452.927 437.238 452.927ZM145.98 464.871C147.1 464.871 148.055 465.282 148.844 466.103C149.633 466.925 150.028 467.917 150.028 469.079C150.028 470.253 149.633 471.25 148.844 472.071C148.065 472.882 147.111 473.287 145.98 473.287C144.657 473.287 143.649 472.759 142.956 471.703V473.079H141.564V461.879H142.956V466.455C143.649 465.399 144.657 464.871 145.98 464.871ZM145.804 471.943C146.604 471.943 147.276 471.671 147.82 471.127C148.364 470.562 148.636 469.879 148.636 469.079C148.636 468.269 148.364 467.591 147.82 467.047C147.276 466.493 146.604 466.215 145.804 466.215C144.993 466.215 144.316 466.493 143.772 467.047C143.228 467.591 142.956 468.269 142.956 469.079C142.956 469.879 143.228 470.562 143.772 471.127C144.316 471.671 144.993 471.943 145.804 471.943ZM159.369 469.719H152.665C152.804 470.423 153.129 470.978 153.641 471.383C154.153 471.778 154.793 471.975 155.561 471.975C156.617 471.975 157.385 471.586 157.865 470.807L159.049 471.479C158.26 472.685 157.086 473.287 155.529 473.287C154.27 473.287 153.236 472.893 152.425 472.103C151.636 471.293 151.241 470.285 151.241 469.079C151.241 467.863 151.63 466.861 152.409 466.071C153.188 465.271 154.196 464.871 155.433 464.871C156.606 464.871 157.561 465.287 158.297 466.119C159.044 466.93 159.417 467.922 159.417 469.095C159.417 469.298 159.401 469.506 159.369 469.719ZM155.433 466.183C154.697 466.183 154.078 466.391 153.577 466.807C153.086 467.223 152.782 467.789 152.665 468.503H158.009C157.892 467.767 157.598 467.197 157.129 466.791C156.66 466.386 156.094 466.183 155.433 466.183ZM167.642 466.455V465.079H169.018V472.743C169.018 473.927 168.618 474.845 167.818 475.495C167.007 476.157 166.047 476.487 164.938 476.487C164.042 476.487 163.268 476.317 162.618 475.975C161.967 475.645 161.476 475.165 161.146 474.535L162.362 473.847C162.799 474.743 163.668 475.191 164.97 475.191C165.802 475.191 166.452 474.973 166.922 474.535C167.402 474.098 167.642 473.501 167.642 472.743V471.607C166.938 472.674 165.935 473.207 164.634 473.207C163.482 473.207 162.516 472.802 161.738 471.991C160.948 471.17 160.554 470.183 160.554 469.031C160.554 467.879 160.948 466.898 161.738 466.087C162.516 465.277 163.482 464.871 164.634 464.871C165.946 464.871 166.948 465.399 167.642 466.455ZM167.642 469.031C167.642 468.231 167.37 467.559 166.826 467.015C166.282 466.471 165.604 466.199 164.794 466.199C163.983 466.199 163.306 466.471 162.762 467.015C162.218 467.559 161.946 468.231 161.946 469.031C161.946 469.842 162.218 470.519 162.762 471.063C163.306 471.607 163.983 471.879 164.794 471.879C165.604 471.879 166.282 471.607 166.826 471.063C167.37 470.519 167.642 469.842 167.642 469.031ZM171.831 463.623C171.564 463.623 171.34 463.533 171.159 463.351C170.977 463.17 170.887 462.951 170.887 462.695C170.887 462.439 170.977 462.221 171.159 462.039C171.34 461.847 171.564 461.751 171.831 461.751C172.087 461.751 172.305 461.847 172.487 462.039C172.668 462.221 172.759 462.439 172.759 462.695C172.759 462.951 172.668 463.17 172.487 463.351C172.305 463.533 172.087 463.623 171.831 463.623ZM172.519 473.079H171.127V465.079H172.519V473.079ZM178.626 464.871C179.565 464.871 180.317 465.17 180.882 465.767C181.448 466.354 181.73 467.154 181.73 468.167V473.079H180.338V468.247C180.338 467.607 180.162 467.106 179.81 466.743C179.458 466.381 178.973 466.199 178.354 466.199C177.64 466.199 177.074 466.423 176.658 466.871C176.242 467.309 176.034 467.965 176.034 468.839V473.079H174.642V465.079H176.034V466.231C176.589 465.325 177.453 464.871 178.626 464.871ZM188.873 467.239C188.873 467.751 189.401 468.151 190.457 468.439C190.852 468.525 191.183 468.615 191.449 468.711C191.727 468.797 192.025 468.93 192.345 469.111C192.676 469.293 192.927 469.533 193.097 469.831C193.268 470.13 193.353 470.482 193.353 470.887C193.353 471.613 193.071 472.194 192.505 472.631C191.94 473.069 191.225 473.287 190.361 473.287C189.593 473.287 188.927 473.122 188.361 472.791C187.807 472.45 187.412 471.991 187.177 471.415L188.377 470.727C188.505 471.111 188.745 471.415 189.097 471.639C189.449 471.863 189.871 471.975 190.361 471.975C190.841 471.975 191.225 471.885 191.513 471.703C191.801 471.522 191.945 471.25 191.945 470.887C191.945 470.343 191.417 469.949 190.361 469.703C190.009 469.607 189.743 469.533 189.561 469.479C189.38 469.426 189.129 469.33 188.809 469.191C188.5 469.053 188.265 468.909 188.105 468.759C187.945 468.599 187.796 468.391 187.657 468.135C187.529 467.869 187.465 467.575 187.465 467.255C187.465 466.562 187.732 465.991 188.265 465.543C188.809 465.095 189.487 464.871 190.297 464.871C190.948 464.871 191.524 465.021 192.025 465.319C192.537 465.607 192.921 466.013 193.177 466.535L192.009 467.191C191.721 466.509 191.151 466.167 190.297 466.167C189.892 466.167 189.551 466.263 189.273 466.455C189.007 466.647 188.873 466.909 188.873 467.239ZM202.463 469.719H195.759C195.897 470.423 196.223 470.978 196.735 471.383C197.247 471.778 197.887 471.975 198.655 471.975C199.711 471.975 200.479 471.586 200.959 470.807L202.143 471.479C201.353 472.685 200.18 473.287 198.623 473.287C197.364 473.287 196.329 472.893 195.519 472.103C194.729 471.293 194.335 470.285 194.335 469.079C194.335 467.863 194.724 466.861 195.503 466.071C196.281 465.271 197.289 464.871 198.527 464.871C199.7 464.871 200.655 465.287 201.391 466.119C202.137 466.93 202.511 467.922 202.511 469.095C202.511 469.298 202.495 469.506 202.463 469.719ZM198.527 466.183C197.791 466.183 197.172 466.391 196.671 466.807C196.18 467.223 195.876 467.789 195.759 468.503H201.103C200.985 467.767 200.692 467.197 200.223 466.791C199.753 466.386 199.188 466.183 198.527 466.183ZM208.229 465.079V466.423H206.101V470.759C206.101 471.154 206.175 471.437 206.325 471.607C206.485 471.767 206.725 471.853 207.045 471.863C207.365 471.863 207.759 471.853 208.229 471.831V473.079C207.002 473.239 206.106 473.138 205.541 472.775C204.986 472.413 204.709 471.741 204.709 470.759V466.423H203.125V465.079H204.709V463.255L206.101 462.839V465.079H208.229ZM215.443 469.319V465.079H216.835V473.079H215.443V471.927C214.889 472.834 214.025 473.287 212.851 473.287C211.913 473.287 211.161 472.994 210.595 472.407C210.03 471.81 209.747 471.005 209.747 469.991V465.079H211.139V469.911C211.139 470.551 211.315 471.053 211.667 471.415C212.019 471.778 212.505 471.959 213.123 471.959C213.838 471.959 214.403 471.741 214.819 471.303C215.235 470.855 215.443 470.194 215.443 469.319ZM223.371 464.871C224.491 464.871 225.445 465.282 226.235 466.103C227.024 466.925 227.419 467.917 227.419 469.079C227.419 470.253 227.024 471.25 226.235 472.071C225.456 472.882 224.501 473.287 223.371 473.287C222.048 473.287 221.04 472.759 220.347 471.703V476.279H218.955V465.079H220.347V466.455C221.04 465.399 222.048 464.871 223.371 464.871ZM223.195 471.943C223.995 471.943 224.667 471.671 225.211 471.127C225.755 470.562 226.027 469.879 226.027 469.079C226.027 468.269 225.755 467.591 225.211 467.047C224.667 466.493 223.995 466.215 223.195 466.215C222.384 466.215 221.707 466.493 221.163 467.047C220.619 467.591 220.347 468.269 220.347 469.079C220.347 469.879 220.619 470.562 221.163 471.127C221.707 471.671 222.384 471.943 223.195 471.943ZM239.704 466.455V465.079H241.096V473.079H239.704V471.703C239.021 472.759 238.013 473.287 236.68 473.287C235.549 473.287 234.594 472.882 233.816 472.071C233.026 471.25 232.632 470.253 232.632 469.079C232.632 467.917 233.026 466.925 233.816 466.103C234.605 465.282 235.56 464.871 236.68 464.871C238.013 464.871 239.021 465.399 239.704 466.455ZM236.856 471.943C237.666 471.943 238.344 471.671 238.888 471.127C239.432 470.562 239.704 469.879 239.704 469.079C239.704 468.269 239.432 467.591 238.888 467.047C238.344 466.493 237.666 466.215 236.856 466.215C236.056 466.215 235.384 466.493 234.84 467.047C234.296 467.591 234.024 468.269 234.024 469.079C234.024 469.879 234.296 470.562 234.84 471.127C235.384 471.671 236.056 471.943 236.856 471.943ZM247.189 464.871C248.127 464.871 248.879 465.17 249.445 465.767C250.01 466.354 250.293 467.154 250.293 468.167V473.079H248.901V468.247C248.901 467.607 248.725 467.106 248.373 466.743C248.021 466.381 247.535 466.199 246.917 466.199C246.202 466.199 245.637 466.423 245.221 466.871C244.805 467.309 244.597 467.965 244.597 468.839V473.079H243.205V465.079H244.597V466.231C245.151 465.325 246.015 464.871 247.189 464.871ZM258.86 466.455V461.879H260.252V473.079H258.86V471.703C258.177 472.759 257.169 473.287 255.836 473.287C254.705 473.287 253.751 472.882 252.972 472.071C252.183 471.25 251.788 470.253 251.788 469.079C251.788 467.917 252.183 466.925 252.972 466.103C253.761 465.282 254.716 464.871 255.836 464.871C257.169 464.871 258.177 465.399 258.86 466.455ZM256.012 471.943C256.823 471.943 257.5 471.671 258.044 471.127C258.588 470.562 258.86 469.879 258.86 469.079C258.86 468.269 258.588 467.591 258.044 467.047C257.5 466.493 256.823 466.215 256.012 466.215C255.212 466.215 254.54 466.493 253.996 467.047C253.452 467.591 253.18 468.269 253.18 469.079C253.18 469.879 253.452 470.562 253.996 471.127C254.54 471.671 255.212 471.943 256.012 471.943ZM275.001 464.871C275.908 464.871 276.633 465.165 277.177 465.751C277.732 466.338 278.009 467.122 278.009 468.103V473.079H276.617V468.151C276.617 467.543 276.457 467.069 276.137 466.727C275.828 466.375 275.401 466.199 274.857 466.199C274.238 466.199 273.753 466.407 273.401 466.823C273.06 467.229 272.889 467.831 272.889 468.631V473.079H271.497V468.151C271.497 467.543 271.342 467.069 271.033 466.727C270.734 466.375 270.324 466.199 269.801 466.199C269.193 466.199 268.697 466.413 268.313 466.839C267.94 467.255 267.753 467.853 267.753 468.631V473.079H266.361V465.079H267.753V466.151C268.297 465.298 269.092 464.871 270.137 464.871C271.214 464.871 271.998 465.325 272.489 466.231C273.044 465.325 273.881 464.871 275.001 464.871ZM286.563 466.455V465.079H287.955V473.079H286.563V471.703C285.88 472.759 284.872 473.287 283.539 473.287C282.408 473.287 281.454 472.882 280.675 472.071C279.886 471.25 279.491 470.253 279.491 469.079C279.491 467.917 279.886 466.925 280.675 466.103C281.464 465.282 282.419 464.871 283.539 464.871C284.872 464.871 285.88 465.399 286.563 466.455ZM283.715 471.943C284.526 471.943 285.203 471.671 285.747 471.127C286.291 470.562 286.563 469.879 286.563 469.079C286.563 468.269 286.291 467.591 285.747 467.047C285.203 466.493 284.526 466.215 283.715 466.215C282.915 466.215 282.243 466.493 281.699 467.047C281.155 467.591 280.883 468.269 280.883 469.079C280.883 469.879 281.155 470.562 281.699 471.127C282.243 471.671 282.915 471.943 283.715 471.943ZM294.048 464.871C294.987 464.871 295.739 465.17 296.304 465.767C296.869 466.354 297.152 467.154 297.152 468.167V473.079H295.76V468.247C295.76 467.607 295.584 467.106 295.232 466.743C294.88 466.381 294.395 466.199 293.776 466.199C293.061 466.199 292.496 466.423 292.08 466.871C291.664 467.309 291.456 467.965 291.456 468.839V473.079H290.064V465.079H291.456V466.231C292.011 465.325 292.875 464.871 294.048 464.871ZM305.719 466.455V465.079H307.111V473.079H305.719V471.703C305.037 472.759 304.029 473.287 302.695 473.287C301.565 473.287 300.61 472.882 299.831 472.071C299.042 471.25 298.647 470.253 298.647 469.079C298.647 467.917 299.042 466.925 299.831 466.103C300.621 465.282 301.575 464.871 302.695 464.871C304.029 464.871 305.037 465.399 305.719 466.455ZM302.871 471.943C303.682 471.943 304.359 471.671 304.903 471.127C305.447 470.562 305.719 469.879 305.719 469.079C305.719 468.269 305.447 467.591 304.903 467.047C304.359 466.493 303.682 466.215 302.871 466.215C302.071 466.215 301.399 466.493 300.855 467.047C300.311 467.591 300.039 468.269 300.039 469.079C300.039 469.879 300.311 470.562 300.855 471.127C301.399 471.671 302.071 471.943 302.871 471.943ZM315.86 466.455V465.079H317.236V472.743C317.236 473.927 316.836 474.845 316.036 475.495C315.226 476.157 314.266 476.487 313.156 476.487C312.26 476.487 311.487 476.317 310.836 475.975C310.186 475.645 309.695 475.165 309.364 474.535L310.58 473.847C311.018 474.743 311.887 475.191 313.188 475.191C314.02 475.191 314.671 474.973 315.14 474.535C315.62 474.098 315.86 473.501 315.86 472.743V471.607C315.156 472.674 314.154 473.207 312.852 473.207C311.7 473.207 310.735 472.802 309.956 471.991C309.167 471.17 308.772 470.183 308.772 469.031C308.772 467.879 309.167 466.898 309.956 466.087C310.735 465.277 311.7 464.871 312.852 464.871C314.164 464.871 315.167 465.399 315.86 466.455ZM315.86 469.031C315.86 468.231 315.588 467.559 315.044 467.015C314.5 466.471 313.823 466.199 313.012 466.199C312.202 466.199 311.524 466.471 310.98 467.015C310.436 467.559 310.164 468.231 310.164 469.031C310.164 469.842 310.436 470.519 310.98 471.063C311.524 471.607 312.202 471.879 313.012 471.879C313.823 471.879 314.5 471.607 315.044 471.063C315.588 470.519 315.86 469.842 315.86 469.031ZM327.025 469.719H320.321C320.46 470.423 320.785 470.978 321.297 471.383C321.809 471.778 322.449 471.975 323.217 471.975C324.273 471.975 325.041 471.586 325.521 470.807L326.705 471.479C325.916 472.685 324.743 473.287 323.185 473.287C321.927 473.287 320.892 472.893 320.081 472.103C319.292 471.293 318.897 470.285 318.897 469.079C318.897 467.863 319.287 466.861 320.065 466.071C320.844 465.271 321.852 464.871 323.089 464.871C324.263 464.871 325.217 465.287 325.953 466.119C326.7 466.93 327.073 467.922 327.073 469.095C327.073 469.298 327.057 469.506 327.025 469.719ZM323.089 466.183C322.353 466.183 321.735 466.391 321.233 466.807C320.743 467.223 320.439 467.789 320.321 468.503H325.665C325.548 467.767 325.255 467.197 324.785 466.791C324.316 466.386 323.751 466.183 323.089 466.183ZM337.313 464.871C338.22 464.871 338.945 465.165 339.489 465.751C340.044 466.338 340.321 467.122 340.321 468.103V473.079H338.929V468.151C338.929 467.543 338.769 467.069 338.449 466.727C338.14 466.375 337.713 466.199 337.169 466.199C336.551 466.199 336.065 466.407 335.713 466.823C335.372 467.229 335.201 467.831 335.201 468.631V473.079H333.809V468.151C333.809 467.543 333.655 467.069 333.345 466.727C333.047 466.375 332.636 466.199 332.113 466.199C331.505 466.199 331.009 466.413 330.625 466.839C330.252 467.255 330.065 467.853 330.065 468.631V473.079H328.673V465.079H330.065V466.151C330.609 465.298 331.404 464.871 332.449 464.871C333.527 464.871 334.311 465.325 334.801 466.231C335.356 465.325 336.193 464.871 337.313 464.871ZM349.932 469.719H343.228C343.366 470.423 343.692 470.978 344.204 471.383C344.716 471.778 345.356 471.975 346.124 471.975C347.18 471.975 347.948 471.586 348.428 470.807L349.612 471.479C348.822 472.685 347.649 473.287 346.092 473.287C344.833 473.287 343.798 472.893 342.988 472.103C342.198 471.293 341.804 470.285 341.804 469.079C341.804 467.863 342.193 466.861 342.972 466.071C343.75 465.271 344.758 464.871 345.996 464.871C347.169 464.871 348.124 465.287 348.86 466.119C349.606 466.93 349.98 467.922 349.98 469.095C349.98 469.298 349.964 469.506 349.932 469.719ZM345.996 466.183C345.26 466.183 344.641 466.391 344.14 466.807C343.649 467.223 343.345 467.789 343.228 468.503H348.572C348.454 467.767 348.161 467.197 347.692 466.791C347.222 466.386 346.657 466.183 345.996 466.183ZM355.564 464.871C356.502 464.871 357.254 465.17 357.82 465.767C358.385 466.354 358.668 467.154 358.668 468.167V473.079H357.276V468.247C357.276 467.607 357.1 467.106 356.748 466.743C356.396 466.381 355.91 466.199 355.292 466.199C354.577 466.199 354.012 466.423 353.596 466.871C353.18 467.309 352.972 467.965 352.972 468.839V473.079H351.58V465.079H352.972V466.231C353.526 465.325 354.39 464.871 355.564 464.871ZM364.963 465.079V466.423H362.835V470.759C362.835 471.154 362.91 471.437 363.059 471.607C363.219 471.767 363.459 471.853 363.779 471.863C364.099 471.863 364.494 471.853 364.963 471.831V473.079C363.736 473.239 362.84 473.138 362.275 472.775C361.72 472.413 361.443 471.741 361.443 470.759V466.423H359.859V465.079H361.443V463.255L362.835 462.839V465.079H364.963ZM367.538 473.255C367.25 473.255 367.004 473.154 366.802 472.951C366.599 472.749 366.498 472.503 366.498 472.215C366.498 471.927 366.599 471.682 366.802 471.479C367.004 471.277 367.25 471.175 367.538 471.175C367.836 471.175 368.082 471.277 368.274 471.479C368.476 471.682 368.578 471.927 368.578 472.215C368.578 472.503 368.476 472.749 368.274 472.951C368.082 473.154 367.836 473.255 367.538 473.255Z" fill="#7F7F7F"/>
<path d="M253.943 236.847V227.736C253.943 225.589 253.943 224.515 253.276 223.848C252.609 223.181 251.535 223.181 249.388 223.181H240.277C238.13 223.181 237.056 223.181 236.389 223.848C235.722 224.515 235.722 225.589 235.722 227.736V236.847" stroke="black" stroke-width="1.70828" stroke-linecap="round" stroke-linejoin="round"/>
<path d="M244.833 226.597H244.843" stroke="black" stroke-width="2.27771" stroke-linecap="round" stroke-linejoin="round"/>
<path d="M235.149 238.004L235.744 236.847H253.888L254.515 238.004C256.159 241.035 256.568 242.55 255.943 243.685C255.319 244.819 253.663 244.819 250.351 244.819H239.314C236.002 244.819 234.346 244.819 233.722 243.685C233.097 242.55 233.506 241.035 235.149 238.004Z" stroke="black" stroke-width="1.70828" stroke-linecap="round" stroke-linejoin="round"/>
<defs>
<linearGradient id="paint0_linear_6043_5252" x1="244.514" y1="84.3282" x2="244.514" y2="381.667" gradientUnits="userSpaceOnUse">
<stop offset="0.605" stop-color="#EEEEEE"/>
<stop offset="1" stop-color="white"/>
</linearGradient>
<linearGradient id="paint1_linear_6043_5252" x1="244.515" y1="41.1096" x2="244.515" y2="424.886" gradientUnits="userSpaceOnUse">
<stop offset="0.605" stop-color="#EEEEEE"/>
<stop offset="1" stop-color="white"/>
</linearGradient>
<linearGradient id="paint2_linear_6043_5252" x1="244.515" y1="0.916351" x2="244.515" y2="465.079" gradientUnits="userSpaceOnUse">
<stop offset="0.605" stop-color="#EEEEEE"/>
<stop offset="1" stop-color="white"/>
</linearGradient>
<clipPath id="clip0_6043_5252">
<rect width="21.2499" height="21.2499" fill="white" transform="translate(391.5 116.322)"/>
</clipPath>
<clipPath id="clip1_6043_5252">
<rect width="16.8042" height="16.8042" fill="white" transform="translate(22.7239 140.022)"/>
</clipPath>
<clipPath id="clip2_6043_5252">
<rect width="19.6283" height="19.6283" fill="white" transform="translate(471.971 216.839)"/>
</clipPath>
</defs>
</svg>
