<svg width="510" height="487" viewBox="0 0 510 487" fill="none" xmlns="http://www.w3.org/2000/svg">
<path d="M302.781 232.998C302.781 265.176 276.694 291.262 244.514 291.262C212.334 291.262 186.248 265.176 186.248 232.998C186.248 200.82 212.334 174.734 244.514 174.734C276.694 174.734 302.781 200.82 302.781 232.998Z" stroke="#EEEEEE" stroke-width="2"/>
<path d="M343.263 232.998C343.263 287.533 299.052 331.743 244.514 331.743C189.976 331.743 145.765 287.533 145.765 232.998C145.765 178.463 189.976 134.253 244.514 134.253C299.052 134.253 343.263 178.463 343.263 232.998Z" stroke="#EEEEEE" stroke-width="2"/>
<path d="M392.191 232.998C392.191 314.553 326.074 380.667 244.514 380.667C162.955 380.667 96.8381 314.553 96.8381 232.998C96.8381 151.442 162.955 85.3282 244.514 85.3282C326.074 85.3282 392.191 151.442 392.191 232.998Z" stroke="url(#paint0_linear_6043_5252)" stroke-width="2"/>
<path d="M435.412 232.998C435.412 338.423 349.945 423.886 244.515 423.886C139.086 423.886 53.6182 338.423 53.6182 232.998C53.6182 127.573 139.086 42.1096 244.515 42.1096C349.945 42.1096 435.412 127.573 435.412 232.998Z" stroke="url(#paint1_linear_6043_5252)" stroke-width="2"/>
<path d="M475.607 232.998C475.607 360.621 372.144 464.079 244.515 464.079C116.886 464.079 13.4231 360.621 13.4231 232.998C13.4231 105.375 116.886 1.91635 244.515 1.91635C372.144 1.91635 475.607 105.375 475.607 232.998Z" stroke="url(#paint2_linear_6043_5252)" stroke-width="2"/>
<rect x="58.4333" y="295.031" width="37.4049" height="37.7117" rx="7.73649" fill="#F1F1F1"/>
<path d="M69.167 311.231C69.167 308.726 69.167 307.474 69.945 306.696C70.723 305.918 71.9751 305.918 74.4795 305.918H79.7919C82.2962 305.918 83.5484 305.918 84.3264 306.696C85.1044 307.474 85.1044 308.726 85.1044 311.231V315.658C85.1044 317.327 85.1044 318.162 84.5857 318.681C84.0671 319.199 83.2323 319.199 81.5628 319.199H72.7086C71.0391 319.199 70.2043 319.199 69.6857 318.681C69.167 318.162 69.167 317.327 69.167 315.658V311.231Z" stroke="#707072" stroke-width="1.32812"/>
<path d="M85.9905 321.856H68.2822" stroke="#707072" stroke-width="1.32812" stroke-linecap="round"/>
<path d="M79.7922 316.543H74.4797" stroke="#707072" stroke-width="1.32812" stroke-linecap="round"/>
<rect x="115.438" y="9.10739" width="37.4049" height="37.7117" rx="7.73649" fill="#F1F1F1"/>
<path d="M126.171 25.307C126.171 22.8027 126.171 21.5505 126.949 20.7725C127.727 19.9945 128.979 19.9945 131.484 19.9945H136.796C139.3 19.9945 140.553 19.9945 141.331 20.7725C142.109 21.5505 142.109 22.8027 142.109 25.307V29.734C142.109 31.4036 142.109 32.2383 141.59 32.757C141.071 33.2757 140.236 33.2757 138.567 33.2757H129.713C128.043 33.2757 127.208 33.2757 126.69 32.757C126.171 32.2383 126.171 31.4036 126.171 29.734V25.307Z" stroke="#707072" stroke-width="1.32812"/>
<path d="M142.995 35.9319H125.286" stroke="#707072" stroke-width="1.32812" stroke-linecap="round"/>
<path d="M136.796 30.6194H131.484" stroke="#707072" stroke-width="1.32812" stroke-linecap="round"/>
<rect x="393.271" y="303.262" width="37.4049" height="37.7117" rx="7.73649" fill="#F1F1F1"/>
<path d="M414.629 328.316L416.4 330.086L419.942 326.545M412.858 314.149H408.608C407.617 314.149 407.121 314.149 406.742 314.342C406.409 314.512 406.138 314.783 405.968 315.116C405.775 315.495 405.775 315.991 405.775 316.982V327.253C405.775 328.245 405.775 328.741 405.968 329.12C406.138 329.453 406.409 329.724 406.742 329.893C407.121 330.086 407.617 330.086 408.608 330.086H411.973M412.858 314.149L418.171 319.462M412.858 314.149V318.045C412.858 318.541 412.858 318.789 412.955 318.978C413.04 319.145 413.175 319.28 413.342 319.365C413.531 319.462 413.779 319.462 414.275 319.462H418.171M418.171 319.462V323.446" stroke="#707072" stroke-width="1.77082" stroke-linecap="round" stroke-linejoin="round"/>
<rect x="344.263" y="11.7636" width="37.4049" height="37.7117" rx="7.73649" fill="#F1F1F1"/>
<path d="M365.621 36.8174L367.392 38.5882L370.934 35.0466M363.851 22.6508H359.601C358.609 22.6508 358.113 22.6508 357.734 22.8438C357.401 23.0136 357.13 23.2845 356.96 23.6177C356.767 23.9965 356.767 24.4924 356.767 25.4841V35.7549C356.767 36.7467 356.767 37.2426 356.96 37.6214C357.13 37.9545 357.401 38.2255 357.734 38.3952C358.113 38.5882 358.609 38.5882 359.601 38.5882H362.965M363.851 22.6508L369.163 27.9633M363.851 22.6508V26.5466C363.851 27.0425 363.851 27.2904 363.947 27.4798C364.032 27.6464 364.167 27.7819 364.334 27.8668C364.523 27.9633 364.771 27.9633 365.267 27.9633H369.163M369.163 27.9633V31.9476" stroke="#707072" stroke-width="1.77082" stroke-linecap="round" stroke-linejoin="round"/>
<rect x="144.765" y="154.878" width="37.4049" height="37.7117" rx="7.73649" fill="#F1F1F1"/>
<path d="M171.232 168.08C171.232 168.559 171.042 169.018 170.704 169.356C170.365 169.695 169.907 169.885 169.428 169.886H168.862V179.276C168.862 179.754 168.672 180.213 168.333 180.551C167.995 180.889 167.537 181.079 167.058 181.08H157.506C157.269 181.08 157.034 181.033 156.815 180.942C156.596 180.852 156.398 180.719 156.23 180.551C156.062 180.384 155.929 180.185 155.839 179.966C155.748 179.747 155.701 179.512 155.701 179.275C155.701 179.038 155.748 178.804 155.839 178.585C155.929 178.366 156.062 178.167 156.23 177.999C156.398 177.832 156.596 177.699 156.815 177.608C157.034 177.517 157.269 177.471 157.506 177.471H158.071V168.08C158.071 167.602 158.261 167.142 158.599 166.804C158.938 166.465 159.397 166.275 159.876 166.274H169.427C169.906 166.275 170.365 166.465 170.703 166.803C171.042 167.142 171.232 167.601 171.232 168.079V168.08ZM157.506 179.841H165.343C165.222 179.474 165.222 179.078 165.343 178.711H157.508C157.358 178.711 157.215 178.77 157.109 178.876C157.003 178.982 156.943 179.126 156.943 179.276C156.943 179.426 157.003 179.569 157.109 179.675C157.215 179.781 157.358 179.841 157.508 179.841H157.506ZM167.622 168.08C167.622 167.889 167.652 167.698 167.712 167.516H159.877C159.751 167.515 159.629 167.558 159.53 167.635L159.528 167.636C159.461 167.689 159.406 167.756 159.368 167.833C159.331 167.91 159.312 167.995 159.312 168.08V177.471H166.4C166.554 177.469 166.705 177.52 166.826 177.614C166.948 177.709 167.034 177.843 167.071 177.993C167.113 178.137 167.109 178.29 167.058 178.431C167.008 178.572 166.914 178.694 166.79 178.778C166.702 178.826 166.629 178.896 166.577 178.981C166.525 179.066 166.497 179.163 166.495 179.263C166.493 179.363 166.517 179.461 166.566 179.548C166.614 179.636 166.685 179.708 166.77 179.759C166.856 179.811 166.953 179.838 167.053 179.839C167.153 179.84 167.251 179.815 167.338 179.766C167.425 179.717 167.497 179.646 167.547 179.559C167.597 179.473 167.624 179.375 167.624 179.276L167.622 168.08ZM166.66 169.689H160.218V170.927H166.66V169.689ZM166.66 172.216H160.218V173.454H166.66V172.216ZM166.66 174.744H160.218V175.983H166.66V174.744ZM169.992 168.08C169.992 167.931 169.932 167.787 169.826 167.681C169.72 167.576 169.577 167.516 169.427 167.516C169.301 167.515 169.179 167.557 169.08 167.635H169.078C169.01 167.688 168.956 167.755 168.918 167.833C168.88 167.91 168.861 167.995 168.861 168.08V168.645H169.427C169.577 168.645 169.72 168.585 169.826 168.48C169.932 168.374 169.992 168.23 169.992 168.08Z" fill="#707072"/>
<rect x="383.423" y="108.091" width="37.4049" height="37.7117" rx="7.73649" fill="#F1F1F1"/>
<g clip-path="url(#clip0_6043_5252)">
<path d="M406.303 133.811L405.736 129.274C405.57 127.944 404.44 126.947 403.1 126.947H402.125H401.149C399.81 126.947 398.68 127.944 398.514 129.274L397.947 133.811C397.814 134.867 398.639 135.801 399.704 135.801H402.125H404.546C405.611 135.801 406.435 134.867 406.303 133.811Z" stroke="#707072" stroke-width="1.77082" stroke-linecap="round" stroke-linejoin="round"/>
<path d="M402.124 123.405C403.591 123.405 404.78 122.216 404.78 120.749C404.78 119.282 403.591 118.093 402.124 118.093C400.657 118.093 399.468 119.282 399.468 120.749C399.468 122.216 400.657 123.405 402.124 123.405Z" stroke="#707072" stroke-width="1.77082"/>
<path d="M395.041 126.062C396.019 126.062 396.812 125.269 396.812 124.291C396.812 123.313 396.019 122.52 395.041 122.52C394.063 122.52 393.271 123.313 393.271 124.291C393.271 125.269 394.063 126.062 395.041 126.062Z" stroke="#707072" stroke-width="1.77082"/>
<path d="M409.208 126.062C410.186 126.062 410.979 125.269 410.979 124.291C410.979 123.313 410.186 122.52 409.208 122.52C408.23 122.52 407.437 123.313 407.437 124.291C407.437 125.269 408.23 126.062 409.208 126.062Z" stroke="#707072" stroke-width="1.77082"/>
<path d="M395.041 128.718H394.77C393.905 128.718 393.166 129.344 393.024 130.198L392.728 131.968C392.548 133.048 393.381 134.03 394.475 134.03H397.697" stroke="#707072" stroke-width="1.77082" stroke-linecap="round" stroke-linejoin="round"/>
<path d="M409.208 128.718H409.479C410.344 128.718 411.083 129.344 411.225 130.198L411.521 131.968C411.7 133.048 410.868 134.03 409.774 134.03C408.745 134.03 407.521 134.03 406.552 134.03" stroke="#707072" stroke-width="1.77082" stroke-linecap="round" stroke-linejoin="round"/>
</g>
<rect x="194.859" y="306.537" width="37.4049" height="37.7117" rx="7.73649" fill="#F1F1F1"/>
<path d="M213.562 329.82V333.362M210.02 333.362H217.103M208.426 329.82H218.697C219.689 329.82 220.185 329.82 220.564 329.627C220.897 329.457 221.168 329.186 221.337 328.853C221.53 328.475 221.53 327.979 221.53 326.987V320.258C221.53 319.266 221.53 318.77 221.337 318.391C221.168 318.058 220.897 317.787 220.564 317.617C220.185 317.424 219.689 317.424 218.697 317.424H208.426C207.435 317.424 206.939 317.424 206.56 317.617C206.227 317.787 205.956 318.058 205.786 318.391C205.593 318.77 205.593 319.266 205.593 320.258V326.987C205.593 327.979 205.593 328.475 205.786 328.853C205.956 329.186 206.227 329.457 206.56 329.627C206.939 329.82 207.435 329.82 208.426 329.82Z" stroke="#707072" stroke-width="1.77082" stroke-linecap="round"/>
<rect x="325.561" y="195.286" width="37.4049" height="37.7117" rx="7.73649" fill="#F1F1F1"/>
<path fill-rule="evenodd" clip-rule="evenodd" d="M335.922 208.929C335.922 207.202 337.323 205.801 339.05 205.801H344.263H349.476C351.203 205.801 352.604 207.202 352.604 208.929V214.142V219.355C352.604 221.082 351.203 222.483 349.476 222.483H344.263H339.05C337.323 222.483 335.922 221.082 335.922 219.355V214.142V208.929ZM339.05 207.886C338.474 207.886 338.008 208.353 338.008 208.929V213.099H343.22V207.886H339.05ZM345.306 207.886V213.099H350.519V208.929C350.519 208.353 350.052 207.886 349.476 207.886H345.306ZM350.519 215.184H345.306V220.397H349.476C350.052 220.397 350.519 219.931 350.519 219.355V215.184ZM343.22 220.397V215.184H338.008V219.355C338.008 219.931 338.474 220.397 339.05 220.397H343.22Z" fill="#707072"/>
<rect x="224.187" y="70.3794" width="37.4049" height="37.7117" rx="7.73649" fill="#F1F1F1"/>
<path fill-rule="evenodd" clip-rule="evenodd" d="M234.548 84.0221C234.548 82.2947 235.949 80.8944 237.676 80.8944H242.889H248.102C249.829 80.8944 251.23 82.2947 251.23 84.0221V89.2351V94.448C251.23 96.1755 249.829 97.5758 248.102 97.5758H242.889H237.676C235.949 97.5758 234.548 96.1755 234.548 94.448V89.2351V84.0221ZM237.676 82.9796C237.1 82.9796 236.634 83.4463 236.634 84.0221V88.1925H241.846V82.9796H237.676ZM243.932 82.9796V88.1925H249.145V84.0221C249.145 83.4463 248.678 82.9796 248.102 82.9796H243.932ZM249.145 90.2777H243.932V95.4906H248.102C248.678 95.4906 249.145 95.0238 249.145 94.448V90.2777ZM241.846 95.4906V90.2777H236.634V94.448C236.634 95.0238 237.1 95.4906 237.676 95.4906H241.846Z" fill="#707072"/>
<rect x="12.4231" y="129.569" width="37.4049" height="37.7117" rx="7.73649" fill="#F1F1F1"/>
<g clip-path="url(#clip1_6043_5252)">
<path fill-rule="evenodd" clip-rule="evenodd" d="M36.8313 150.852L28.7569 156.311C26.7894 157.641 24.1245 156.244 24.1245 153.884V142.966C24.1245 140.605 26.7894 139.208 28.7569 140.539L36.8313 145.997C38.5565 147.164 38.5565 149.686 36.8313 150.852Z" fill="#707072"/>
</g>
<path d="M146.594 407.24V394.063H149.784V413.482H147.287L138.132 400.305V413.482H134.942V394.063H137.439L146.594 407.24ZM165.203 411.734C163.798 413.14 162.068 413.843 160.015 413.843C157.963 413.843 156.233 413.14 154.828 411.734C153.404 410.31 152.692 408.581 152.692 406.547C152.692 404.512 153.404 402.783 154.828 401.359C156.233 399.953 157.963 399.25 160.015 399.25C162.068 399.25 163.798 399.953 165.203 401.359C166.627 402.783 167.339 404.512 167.339 406.547C167.339 408.581 166.627 410.31 165.203 411.734ZM155.688 406.547C155.688 407.804 156.104 408.849 156.936 409.681C157.768 410.514 158.795 410.93 160.015 410.93C161.236 410.93 162.263 410.514 163.095 409.681C163.927 408.849 164.343 407.804 164.343 406.547C164.343 405.289 163.927 404.244 163.095 403.412C162.263 402.579 161.236 402.163 160.015 402.163C158.795 402.163 157.768 402.579 156.936 403.412C156.104 404.244 155.688 405.289 155.688 406.547ZM179.814 396.976C179.444 397.345 179 397.53 178.482 397.53C177.964 397.53 177.511 397.345 177.123 396.976C176.753 396.587 176.568 396.134 176.568 395.616C176.568 395.098 176.753 394.654 177.123 394.285C177.493 393.896 177.946 393.702 178.482 393.702C179.019 393.702 179.472 393.896 179.842 394.285C180.211 394.654 180.396 395.098 180.396 395.616C180.396 396.134 180.202 396.587 179.814 396.976ZM179.98 413.482H176.984V399.611H179.98V413.482ZM190.755 399.25C192.364 399.25 193.65 399.768 194.611 400.804C195.592 401.821 196.082 403.208 196.082 404.965V413.482H193.086V405.27C193.086 404.235 192.808 403.439 192.253 402.885C191.698 402.33 190.94 402.052 189.978 402.052C188.887 402.052 188.027 402.394 187.398 403.079C186.77 403.745 186.455 404.734 186.455 406.047V413.482H183.459V399.611H186.455V401.387C187.38 399.962 188.813 399.25 190.755 399.25ZM207.048 399.611V402.496H203.608V409.154C203.608 409.728 203.737 410.144 203.996 410.403C204.255 410.643 204.634 410.782 205.134 410.819C205.652 410.837 206.29 410.828 207.048 410.791V413.482C204.755 413.76 203.109 413.565 202.11 412.9C201.111 412.215 200.612 410.967 200.612 409.154V402.496H198.059V399.611H200.612V396.615L203.608 395.727V399.611H207.048ZM222.596 407.823H211.555C211.776 408.858 212.276 409.663 213.053 410.236C213.848 410.81 214.828 411.096 215.993 411.096C217.565 411.096 218.758 410.523 219.572 409.376L222.041 410.819C220.691 412.835 218.666 413.843 215.966 413.843C213.728 413.843 211.906 413.158 210.5 411.79C209.113 410.403 208.42 408.655 208.42 406.547C208.42 404.494 209.104 402.764 210.473 401.359C211.823 399.953 213.58 399.25 215.744 399.25C217.76 399.25 219.424 399.962 220.737 401.387C222.05 402.811 222.707 404.54 222.707 406.574C222.707 406.944 222.67 407.36 222.596 407.823ZM211.527 405.381H219.683C219.48 404.29 219.017 403.449 218.296 402.857C217.593 402.265 216.733 401.969 215.716 401.969C214.606 401.969 213.681 402.274 212.942 402.885C212.202 403.495 211.73 404.327 211.527 405.381ZM236.303 401.664V399.611H239.244V412.844C239.244 414.952 238.55 416.571 237.163 417.699C235.795 418.827 234.112 419.391 232.114 419.391C228.915 419.391 226.723 418.272 225.539 416.034L228.119 414.536C228.841 415.96 230.191 416.672 232.17 416.672C233.464 416.672 234.472 416.33 235.194 415.646C235.933 414.98 236.303 414.046 236.303 412.844V411.152C235.175 412.761 233.566 413.565 231.476 413.565C229.534 413.565 227.879 412.872 226.51 411.485C225.16 410.079 224.485 408.387 224.485 406.408C224.485 404.41 225.16 402.727 226.51 401.359C227.86 399.953 229.516 399.25 231.476 399.25C233.566 399.25 235.175 400.055 236.303 401.664ZM228.73 409.515C229.58 410.347 230.635 410.763 231.892 410.763C233.15 410.763 234.195 410.347 235.027 409.515C235.878 408.683 236.303 407.647 236.303 406.408C236.303 405.169 235.878 404.133 235.027 403.301C234.195 402.468 233.15 402.052 231.892 402.052C230.635 402.052 229.58 402.468 228.73 403.301C227.897 404.133 227.481 405.169 227.481 406.408C227.481 407.647 227.897 408.683 228.73 409.515ZM245.732 399.611V401.941C246.491 400.221 247.915 399.361 250.005 399.361V402.607C248.877 402.533 247.878 402.811 247.009 403.439C246.158 404.05 245.732 405.067 245.732 406.491V413.482H242.736V399.611H245.732ZM262.554 401.581V399.611H265.55V413.482H262.554V411.485C261.426 413.057 259.808 413.843 257.699 413.843C255.794 413.843 254.167 413.14 252.817 411.734C251.467 410.329 250.791 408.599 250.791 406.547C250.791 404.494 251.467 402.764 252.817 401.359C254.167 399.953 255.794 399.25 257.699 399.25C259.808 399.25 261.426 400.027 262.554 401.581ZM255.036 409.737C255.868 410.569 256.913 410.985 258.171 410.985C259.429 410.985 260.473 410.569 261.306 409.737C262.138 408.886 262.554 407.823 262.554 406.547C262.554 405.27 262.138 404.216 261.306 403.384C260.473 402.533 259.429 402.108 258.171 402.108C256.913 402.108 255.868 402.533 255.036 403.384C254.204 404.216 253.788 405.27 253.788 406.547C253.788 407.804 254.204 408.868 255.036 409.737ZM276.783 399.611V402.496H273.343V409.154C273.343 409.728 273.472 410.144 273.731 410.403C273.99 410.643 274.369 410.782 274.868 410.819C275.386 410.837 276.024 410.828 276.783 410.791V413.482C274.489 413.76 272.843 413.565 271.844 412.9C270.846 412.215 270.346 410.967 270.346 409.154V402.496H267.794V399.611H270.346V396.615L273.343 395.727V399.611H276.783ZM282.33 396.976C281.96 397.345 281.516 397.53 280.998 397.53C280.48 397.53 280.027 397.345 279.639 396.976C279.269 396.587 279.084 396.134 279.084 395.616C279.084 395.098 279.269 394.654 279.639 394.285C280.009 393.896 280.462 393.702 280.998 393.702C281.534 393.702 281.988 393.896 282.357 394.285C282.727 394.654 282.912 395.098 282.912 395.616C282.912 396.134 282.718 396.587 282.33 396.976ZM282.496 413.482H279.5V399.611H282.496V413.482ZM297.71 411.734C296.304 413.14 294.575 413.843 292.522 413.843C290.469 413.843 288.74 413.14 287.334 411.734C285.91 410.31 285.198 408.581 285.198 406.547C285.198 404.512 285.91 402.783 287.334 401.359C288.74 399.953 290.469 399.25 292.522 399.25C294.575 399.25 296.304 399.953 297.71 401.359C299.134 402.783 299.846 404.512 299.846 406.547C299.846 408.581 299.134 410.31 297.71 411.734ZM288.194 406.547C288.194 407.804 288.611 408.849 289.443 409.681C290.275 410.514 291.301 410.93 292.522 410.93C293.743 410.93 294.769 410.514 295.602 409.681C296.434 408.849 296.85 407.804 296.85 406.547C296.85 405.289 296.434 404.244 295.602 403.412C294.769 402.579 293.743 402.163 292.522 402.163C291.301 402.163 290.275 402.579 289.443 403.412C288.611 404.244 288.194 405.289 288.194 406.547ZM309.851 399.25C311.46 399.25 312.746 399.768 313.708 400.804C314.688 401.821 315.178 403.208 315.178 404.965V413.482H312.182V405.27C312.182 404.235 311.904 403.439 311.35 402.885C310.795 402.33 310.036 402.052 309.075 402.052C307.983 402.052 307.123 402.394 306.495 403.079C305.866 403.745 305.551 404.734 305.551 406.047V413.482H302.555V399.611H305.551V401.387C306.476 399.962 307.91 399.25 309.851 399.25ZM321.095 403.439C321.095 403.865 321.317 404.216 321.761 404.494C322.205 404.753 322.852 405.002 323.703 405.243C324.35 405.391 324.914 405.548 325.395 405.714C325.876 405.881 326.385 406.13 326.921 406.463C327.457 406.778 327.864 407.203 328.142 407.739C328.437 408.257 328.576 408.868 328.558 409.57C328.558 410.902 328.04 411.947 327.004 412.705C325.968 413.464 324.683 413.843 323.148 413.843C321.779 413.843 320.605 413.556 319.625 412.983C318.644 412.409 317.932 411.614 317.489 410.597L320.069 409.099C320.531 410.43 321.557 411.096 323.148 411.096C324.72 411.096 325.506 410.578 325.506 409.543C325.506 408.784 324.628 408.193 322.871 407.767C322.205 407.601 321.641 407.434 321.178 407.268C320.734 407.101 320.235 406.861 319.68 406.547C319.144 406.232 318.728 405.816 318.432 405.298C318.154 404.78 318.025 404.179 318.043 403.495C318.043 402.219 318.524 401.192 319.486 400.416C320.466 399.639 321.678 399.25 323.12 399.25C324.267 399.25 325.284 399.509 326.172 400.027C327.078 400.526 327.772 401.229 328.253 402.136L325.728 403.55C325.266 402.496 324.396 401.969 323.12 401.969C322.528 401.969 322.038 402.099 321.65 402.357C321.28 402.616 321.095 402.977 321.095 403.439ZM343.925 409.681L347.476 399.611H350.666L345.34 413.926C344.008 417.514 341.752 419.215 338.571 419.031V416.229C339.496 416.284 340.245 416.09 340.818 415.646C341.391 415.202 341.872 414.49 342.261 413.51L342.399 413.232L336.518 399.611H339.792L343.925 409.681ZM365.398 407.823H354.356C354.578 408.858 355.077 409.663 355.854 410.236C356.65 410.81 357.63 411.096 358.795 411.096C360.367 411.096 361.56 410.523 362.374 409.376L364.843 410.819C363.493 412.835 361.467 413.843 358.767 413.843C356.529 413.843 354.708 413.158 353.302 411.79C351.915 410.403 351.221 408.655 351.221 406.547C351.221 404.494 351.906 402.764 353.274 401.359C354.624 399.953 356.381 399.25 358.545 399.25C360.561 399.25 362.226 399.962 363.539 401.387C364.852 402.811 365.509 404.54 365.509 406.574C365.509 406.944 365.472 407.36 365.398 407.823ZM354.328 405.381H362.485C362.281 404.29 361.819 403.449 361.098 402.857C360.395 402.265 359.535 401.969 358.517 401.969C357.408 401.969 356.483 402.274 355.743 402.885C355.003 403.495 354.532 404.327 354.328 405.381ZM375.451 399.611V402.496H372.011V409.154C372.011 409.728 372.141 410.144 372.4 410.403C372.659 410.643 373.038 410.782 373.537 410.819C374.055 410.837 374.693 410.828 375.451 410.791V413.482C373.158 413.76 371.512 413.565 370.513 412.9C369.515 412.215 369.015 410.967 369.015 409.154V402.496H366.463V399.611H369.015V396.615L372.011 395.727V399.611H375.451Z" fill="black"/>
<rect x="463.083" y="207.797" width="37.4049" height="37.7117" rx="7.73649" fill="#F1F1F1"/>
<g clip-path="url(#clip2_6043_5252)">
<path d="M486.999 216.839H476.571C476.164 216.839 475.774 217.001 475.487 217.288C475.199 217.576 475.038 217.966 475.038 218.372V234.934C475.038 235.341 475.199 235.731 475.487 236.018C475.774 236.306 476.164 236.467 476.571 236.467H486.999C487.405 236.467 487.795 236.306 488.083 236.018C488.371 235.731 488.532 235.341 488.532 234.934V218.372C488.532 217.966 488.371 217.576 488.083 217.288C487.795 217.001 487.405 216.839 486.999 216.839ZM486.999 234.934H476.571V218.372H486.999V234.934Z" fill="#707072"/>
<path d="M481.786 233.4C482.328 233.4 482.767 232.988 482.767 232.48C482.767 231.972 482.328 231.56 481.786 231.56C481.244 231.56 480.804 231.972 480.804 232.48C480.804 232.988 481.244 233.4 481.786 233.4Z" fill="#707072"/>
</g>
<path d="M100.652 451.231V442.879H102.14V454.079H100.94L95.1804 445.711V454.079H93.6924V442.879H94.8924L100.652 451.231ZM111.144 453.071C110.334 453.882 109.336 454.287 108.152 454.287C106.968 454.287 105.971 453.882 105.16 453.071C104.35 452.261 103.944 451.263 103.944 450.079C103.944 448.895 104.35 447.898 105.16 447.087C105.971 446.277 106.968 445.871 108.152 445.871C109.336 445.871 110.334 446.277 111.144 447.087C111.966 447.909 112.376 448.906 112.376 450.079C112.376 451.253 111.966 452.25 111.144 453.071ZM108.152 452.927C108.952 452.927 109.624 452.655 110.168 452.111C110.712 451.567 110.984 450.89 110.984 450.079C110.984 449.269 110.712 448.591 110.168 448.047C109.624 447.503 108.952 447.231 108.152 447.231C107.363 447.231 106.696 447.503 106.152 448.047C105.608 448.591 105.336 449.269 105.336 450.079C105.336 450.89 105.608 451.567 106.152 452.111C106.696 452.655 107.363 452.927 108.152 452.927ZM118.721 444.623C118.455 444.623 118.231 444.533 118.049 444.351C117.868 444.17 117.777 443.951 117.777 443.695C117.777 443.439 117.868 443.221 118.049 443.039C118.231 442.847 118.455 442.751 118.721 442.751C118.977 442.751 119.196 442.847 119.377 443.039C119.559 443.221 119.649 443.439 119.649 443.695C119.649 443.951 119.559 444.17 119.377 444.351C119.196 444.533 118.977 444.623 118.721 444.623ZM119.409 454.079H118.017V446.079H119.409V454.079ZM125.517 445.871C126.455 445.871 127.207 446.17 127.773 446.767C128.338 447.354 128.621 448.154 128.621 449.167V454.079H127.229V449.247C127.229 448.607 127.053 448.106 126.701 447.743C126.349 447.381 125.863 447.199 125.245 447.199C124.53 447.199 123.965 447.423 123.549 447.871C123.133 448.309 122.925 448.965 122.925 449.839V454.079H121.533V446.079H122.925V447.231C123.479 446.325 124.343 445.871 125.517 445.871ZM134.916 446.079V447.423H132.788V451.759C132.788 452.154 132.863 452.437 133.012 452.607C133.172 452.767 133.412 452.853 133.732 452.863C134.052 452.863 134.447 452.853 134.916 452.831V454.079C133.689 454.239 132.793 454.138 132.228 453.775C131.673 453.413 131.396 452.741 131.396 451.759V447.423H129.812V446.079H131.396V444.255L132.788 443.839V446.079H134.916ZM143.838 450.719H137.134C137.272 451.423 137.598 451.978 138.11 452.383C138.622 452.778 139.262 452.975 140.03 452.975C141.086 452.975 141.854 452.586 142.334 451.807L143.518 452.479C142.728 453.685 141.555 454.287 139.998 454.287C138.739 454.287 137.704 453.893 136.894 453.103C136.104 452.293 135.71 451.285 135.71 450.079C135.71 448.863 136.099 447.861 136.878 447.071C137.656 446.271 138.664 445.871 139.902 445.871C141.075 445.871 142.03 446.287 142.766 447.119C143.512 447.93 143.886 448.922 143.886 450.095C143.886 450.298 143.87 450.506 143.838 450.719ZM139.902 447.183C139.166 447.183 138.547 447.391 138.046 447.807C137.555 448.223 137.251 448.789 137.134 449.503H142.478C142.36 448.767 142.067 448.197 141.598 447.791C141.128 447.386 140.563 447.183 139.902 447.183ZM152.11 447.455V446.079H153.486V453.743C153.486 454.927 153.086 455.845 152.286 456.495C151.476 457.157 150.516 457.487 149.406 457.487C148.51 457.487 147.737 457.317 147.086 456.975C146.436 456.645 145.945 456.165 145.614 455.535L146.83 454.847C147.268 455.743 148.137 456.191 149.438 456.191C150.27 456.191 150.921 455.973 151.39 455.535C151.87 455.098 152.11 454.501 152.11 453.743V452.607C151.406 453.674 150.404 454.207 149.102 454.207C147.95 454.207 146.985 453.802 146.206 452.991C145.417 452.17 145.022 451.183 145.022 450.031C145.022 448.879 145.417 447.898 146.206 447.087C146.985 446.277 147.95 445.871 149.102 445.871C150.414 445.871 151.417 446.399 152.11 447.455ZM152.11 450.031C152.11 449.231 151.838 448.559 151.294 448.015C150.75 447.471 150.073 447.199 149.262 447.199C148.452 447.199 147.774 447.471 147.23 448.015C146.686 448.559 146.414 449.231 146.414 450.031C146.414 450.842 146.686 451.519 147.23 452.063C147.774 452.607 148.452 452.879 149.262 452.879C150.073 452.879 150.75 452.607 151.294 452.063C151.838 451.519 152.11 450.842 152.11 450.031ZM156.987 446.079V447.423C157.446 446.431 158.278 445.935 159.483 445.935V447.391C158.801 447.359 158.214 447.541 157.723 447.935C157.233 448.33 156.987 448.965 156.987 449.839V454.079H155.595V446.079H156.987ZM167.032 447.455V446.079H168.424V454.079H167.032V452.703C166.349 453.759 165.341 454.287 164.008 454.287C162.877 454.287 161.922 453.882 161.144 453.071C160.354 452.25 159.96 451.253 159.96 450.079C159.96 448.917 160.354 447.925 161.144 447.103C161.933 446.282 162.888 445.871 164.008 445.871C165.341 445.871 166.349 446.399 167.032 447.455ZM164.184 452.943C164.994 452.943 165.672 452.671 166.216 452.127C166.76 451.562 167.032 450.879 167.032 450.079C167.032 449.269 166.76 448.591 166.216 448.047C165.672 447.493 164.994 447.215 164.184 447.215C163.384 447.215 162.712 447.493 162.168 448.047C161.624 448.591 161.352 449.269 161.352 450.079C161.352 450.879 161.624 451.562 162.168 452.127C162.712 452.671 163.384 452.943 164.184 452.943ZM174.885 446.079V447.423H172.757V451.759C172.757 452.154 172.831 452.437 172.981 452.607C173.141 452.767 173.381 452.853 173.701 452.863C174.021 452.863 174.415 452.853 174.885 452.831V454.079C173.658 454.239 172.762 454.138 172.197 453.775C171.642 453.413 171.365 452.741 171.365 451.759V447.423H169.781V446.079H171.365V444.255L172.757 443.839V446.079H174.885ZM177.237 444.623C176.97 444.623 176.746 444.533 176.565 444.351C176.383 444.17 176.293 443.951 176.293 443.695C176.293 443.439 176.383 443.221 176.565 443.039C176.746 442.847 176.97 442.751 177.237 442.751C177.493 442.751 177.711 442.847 177.893 443.039C178.074 443.221 178.165 443.439 178.165 443.695C178.165 443.951 178.074 444.17 177.893 444.351C177.711 444.533 177.493 444.623 177.237 444.623ZM177.925 454.079H176.533V446.079H177.925V454.079ZM186.8 453.071C185.99 453.882 184.992 454.287 183.808 454.287C182.624 454.287 181.627 453.882 180.816 453.071C180.006 452.261 179.6 451.263 179.6 450.079C179.6 448.895 180.006 447.898 180.816 447.087C181.627 446.277 182.624 445.871 183.808 445.871C184.992 445.871 185.99 446.277 186.8 447.087C187.622 447.909 188.032 448.906 188.032 450.079C188.032 451.253 187.622 452.25 186.8 453.071ZM183.808 452.927C184.608 452.927 185.28 452.655 185.824 452.111C186.368 451.567 186.64 450.89 186.64 450.079C186.64 449.269 186.368 448.591 185.824 448.047C185.28 447.503 184.608 447.231 183.808 447.231C183.019 447.231 182.352 447.503 181.808 448.047C181.264 448.591 180.992 449.269 180.992 450.079C180.992 450.89 181.264 451.567 181.808 452.111C182.352 452.655 183.019 452.927 183.808 452.927ZM193.657 445.871C194.596 445.871 195.348 446.17 195.913 446.767C196.479 447.354 196.761 448.154 196.761 449.167V454.079H195.369V449.247C195.369 448.607 195.193 448.106 194.841 447.743C194.489 447.381 194.004 447.199 193.385 447.199C192.671 447.199 192.105 447.423 191.689 447.871C191.273 448.309 191.065 448.965 191.065 449.839V454.079H189.673V446.079H191.065V447.231C191.62 446.325 192.484 445.871 193.657 445.871ZM199.905 448.239C199.905 448.751 200.433 449.151 201.489 449.439C201.883 449.525 202.214 449.615 202.481 449.711C202.758 449.797 203.057 449.93 203.377 450.111C203.707 450.293 203.958 450.533 204.129 450.831C204.299 451.13 204.385 451.482 204.385 451.887C204.385 452.613 204.102 453.194 203.537 453.631C202.971 454.069 202.257 454.287 201.393 454.287C200.625 454.287 199.958 454.122 199.393 453.791C198.838 453.45 198.443 452.991 198.209 452.415L199.409 451.727C199.537 452.111 199.777 452.415 200.129 452.639C200.481 452.863 200.902 452.975 201.393 452.975C201.873 452.975 202.257 452.885 202.545 452.703C202.833 452.522 202.977 452.25 202.977 451.887C202.977 451.343 202.449 450.949 201.393 450.703C201.041 450.607 200.774 450.533 200.593 450.479C200.411 450.426 200.161 450.33 199.841 450.191C199.531 450.053 199.297 449.909 199.137 449.759C198.977 449.599 198.827 449.391 198.689 449.135C198.561 448.869 198.497 448.575 198.497 448.255C198.497 447.562 198.763 446.991 199.297 446.543C199.841 446.095 200.518 445.871 201.329 445.871C201.979 445.871 202.555 446.021 203.057 446.319C203.569 446.607 203.953 447.013 204.209 447.535L203.041 448.191C202.753 447.509 202.182 447.167 201.329 447.167C200.923 447.167 200.582 447.263 200.305 447.455C200.038 447.647 199.905 447.909 199.905 448.239ZM213.793 454.287C212.587 454.287 211.585 453.887 210.785 453.087C209.985 452.277 209.585 451.274 209.585 450.079C209.585 448.885 209.985 447.887 210.785 447.087C211.585 446.277 212.587 445.871 213.793 445.871C214.582 445.871 215.291 446.063 215.921 446.447C216.55 446.821 217.019 447.327 217.329 447.967L216.161 448.639C215.958 448.213 215.643 447.871 215.217 447.615C214.801 447.359 214.326 447.231 213.793 447.231C212.993 447.231 212.321 447.503 211.777 448.047C211.243 448.602 210.977 449.279 210.977 450.079C210.977 450.869 211.243 451.541 211.777 452.095C212.321 452.639 212.993 452.911 213.793 452.911C214.326 452.911 214.806 452.789 215.233 452.543C215.659 452.287 215.985 451.946 216.209 451.519L217.393 452.207C217.041 452.847 216.545 453.354 215.905 453.727C215.265 454.101 214.561 454.287 213.793 454.287ZM225.41 453.071C224.599 453.882 223.602 454.287 222.418 454.287C221.234 454.287 220.236 453.882 219.426 453.071C218.615 452.261 218.21 451.263 218.21 450.079C218.21 448.895 218.615 447.898 219.426 447.087C220.236 446.277 221.234 445.871 222.418 445.871C223.602 445.871 224.599 446.277 225.41 447.087C226.231 447.909 226.642 448.906 226.642 450.079C226.642 451.253 226.231 452.25 225.41 453.071ZM222.418 452.927C223.218 452.927 223.89 452.655 224.434 452.111C224.978 451.567 225.25 450.89 225.25 450.079C225.25 449.269 224.978 448.591 224.434 448.047C223.89 447.503 223.218 447.231 222.418 447.231C221.628 447.231 220.962 447.503 220.418 448.047C219.874 448.591 219.602 449.269 219.602 450.079C219.602 450.89 219.874 451.567 220.418 452.111C220.962 452.655 221.628 452.927 222.418 452.927ZM232.267 445.871C233.205 445.871 233.957 446.17 234.523 446.767C235.088 447.354 235.371 448.154 235.371 449.167V454.079H233.979V449.247C233.979 448.607 233.803 448.106 233.451 447.743C233.099 447.381 232.613 447.199 231.995 447.199C231.28 447.199 230.715 447.423 230.299 447.871C229.883 448.309 229.675 448.965 229.675 449.839V454.079H228.283V446.079H229.675V447.231C230.229 446.325 231.093 445.871 232.267 445.871ZM239.314 446.079H243.666V454.079H242.274V447.423H239.314V454.079H237.922V447.423H236.642V446.079H237.922V445.839C237.922 443.727 239.09 442.671 241.426 442.671C241.895 442.671 242.445 442.741 243.074 442.879V444.143C242.37 444.058 241.821 444.015 241.426 444.015C240.69 444.015 240.151 444.154 239.81 444.431C239.479 444.709 239.314 445.178 239.314 445.839V446.079ZM252.438 447.455V446.079H253.814V453.743C253.814 454.927 253.414 455.845 252.614 456.495C251.804 457.157 250.844 457.487 249.734 457.487C248.838 457.487 248.065 457.317 247.414 456.975C246.764 456.645 246.273 456.165 245.942 455.535L247.158 454.847C247.596 455.743 248.465 456.191 249.766 456.191C250.598 456.191 251.249 455.973 251.718 455.535C252.198 455.098 252.438 454.501 252.438 453.743V452.607C251.734 453.674 250.732 454.207 249.43 454.207C248.278 454.207 247.313 453.802 246.534 452.991C245.745 452.17 245.35 451.183 245.35 450.031C245.35 448.879 245.745 447.898 246.534 447.087C247.313 446.277 248.278 445.871 249.43 445.871C250.742 445.871 251.745 446.399 252.438 447.455ZM252.438 450.031C252.438 449.231 252.166 448.559 251.622 448.015C251.078 447.471 250.401 447.199 249.59 447.199C248.78 447.199 248.102 447.471 247.558 448.015C247.014 448.559 246.742 449.231 246.742 450.031C246.742 450.842 247.014 451.519 247.558 452.063C248.102 452.607 248.78 452.879 249.59 452.879C250.401 452.879 251.078 452.607 251.622 452.063C252.166 451.519 252.438 450.842 252.438 450.031ZM261.443 450.319V446.079H262.835V454.079H261.443V452.927C260.889 453.834 260.025 454.287 258.851 454.287C257.913 454.287 257.161 453.994 256.595 453.407C256.03 452.81 255.747 452.005 255.747 450.991V446.079H257.139V450.911C257.139 451.551 257.315 452.053 257.667 452.415C258.019 452.778 258.505 452.959 259.123 452.959C259.838 452.959 260.403 452.741 260.819 452.303C261.235 451.855 261.443 451.194 261.443 450.319ZM266.347 446.079V447.423C266.805 446.431 267.637 445.935 268.843 445.935V447.391C268.16 447.359 267.573 447.541 267.083 447.935C266.592 448.33 266.347 448.965 266.347 449.839V454.079H264.955V446.079H266.347ZM277.447 450.719H270.743C270.882 451.423 271.207 451.978 271.719 452.383C272.231 452.778 272.871 452.975 273.639 452.975C274.695 452.975 275.463 452.586 275.943 451.807L277.127 452.479C276.338 453.685 275.165 454.287 273.607 454.287C272.349 454.287 271.314 453.893 270.503 453.103C269.714 452.293 269.319 451.285 269.319 450.079C269.319 448.863 269.709 447.861 270.487 447.071C271.266 446.271 272.274 445.871 273.511 445.871C274.685 445.871 275.639 446.287 276.375 447.119C277.122 447.93 277.495 448.922 277.495 450.095C277.495 450.298 277.479 450.506 277.447 450.719ZM273.511 447.183C272.775 447.183 272.157 447.391 271.655 447.807C271.165 448.223 270.861 448.789 270.743 449.503H276.087C275.97 448.767 275.677 448.197 275.207 447.791C274.738 447.386 274.173 447.183 273.511 447.183ZM285.704 447.455V442.879H287.096V454.079H285.704V452.703C285.021 453.759 284.013 454.287 282.68 454.287C281.549 454.287 280.594 453.882 279.816 453.071C279.026 452.25 278.632 451.253 278.632 450.079C278.632 448.917 279.026 447.925 279.816 447.103C280.605 446.282 281.56 445.871 282.68 445.871C284.013 445.871 285.021 446.399 285.704 447.455ZM282.856 452.943C283.666 452.943 284.344 452.671 284.888 452.127C285.432 451.562 285.704 450.879 285.704 450.079C285.704 449.269 285.432 448.591 284.888 448.047C284.344 447.493 283.666 447.215 282.856 447.215C282.056 447.215 281.384 447.493 280.84 448.047C280.296 448.591 280.024 449.269 280.024 450.079C280.024 450.879 280.296 451.562 280.84 452.127C281.384 452.671 282.056 452.943 282.856 452.943ZM290.085 454.255C289.797 454.255 289.551 454.154 289.349 453.951C289.146 453.749 289.045 453.503 289.045 453.215C289.045 452.927 289.146 452.682 289.349 452.479C289.551 452.277 289.797 452.175 290.085 452.175C290.383 452.175 290.629 452.277 290.821 452.479C291.023 452.682 291.125 452.927 291.125 453.215C291.125 453.503 291.023 453.749 290.821 453.951C290.629 454.154 290.383 454.255 290.085 454.255ZM302.503 454.287C300.797 454.287 299.394 453.727 298.295 452.607C297.197 451.498 296.647 450.122 296.647 448.479C296.647 446.837 297.197 445.461 298.295 444.351C299.394 443.231 300.797 442.671 302.503 442.671C303.517 442.671 304.455 442.917 305.319 443.407C306.183 443.898 306.855 444.559 307.335 445.391L306.039 446.143C305.719 445.525 305.239 445.034 304.599 444.671C303.97 444.298 303.271 444.111 302.503 444.111C301.202 444.111 300.146 444.527 299.335 445.359C298.525 446.181 298.119 447.221 298.119 448.479C298.119 449.727 298.525 450.762 299.335 451.583C300.146 452.415 301.202 452.831 302.503 452.831C303.271 452.831 303.97 452.65 304.599 452.287C305.239 451.914 305.719 451.423 306.039 450.815L307.335 451.551C306.866 452.383 306.199 453.05 305.335 453.551C304.482 454.042 303.538 454.287 302.503 454.287ZM312.907 445.871C313.846 445.871 314.598 446.17 315.163 446.767C315.729 447.354 316.011 448.154 316.011 449.167V454.079H314.619V449.247C314.619 448.607 314.443 448.106 314.091 447.743C313.739 447.381 313.254 447.199 312.635 447.199C311.921 447.199 311.355 447.423 310.939 447.871C310.523 448.309 310.315 448.965 310.315 449.839V454.079H308.923V442.879H310.315V447.231C310.87 446.325 311.734 445.871 312.907 445.871ZM324.707 453.071C323.896 453.882 322.899 454.287 321.715 454.287C320.531 454.287 319.533 453.882 318.723 453.071C317.912 452.261 317.507 451.263 317.507 450.079C317.507 448.895 317.912 447.898 318.723 447.087C319.533 446.277 320.531 445.871 321.715 445.871C322.899 445.871 323.896 446.277 324.707 447.087C325.528 447.909 325.939 448.906 325.939 450.079C325.939 451.253 325.528 452.25 324.707 453.071ZM321.715 452.927C322.515 452.927 323.187 452.655 323.731 452.111C324.275 451.567 324.547 450.89 324.547 450.079C324.547 449.269 324.275 448.591 323.731 448.047C323.187 447.503 322.515 447.231 321.715 447.231C320.925 447.231 320.259 447.503 319.715 448.047C319.171 448.591 318.899 449.269 318.899 450.079C318.899 450.89 319.171 451.567 319.715 452.111C320.259 452.655 320.925 452.927 321.715 452.927ZM334.332 453.071C333.521 453.882 332.524 454.287 331.34 454.287C330.156 454.287 329.158 453.882 328.348 453.071C327.537 452.261 327.132 451.263 327.132 450.079C327.132 448.895 327.537 447.898 328.348 447.087C329.158 446.277 330.156 445.871 331.34 445.871C332.524 445.871 333.521 446.277 334.332 447.087C335.153 447.909 335.564 448.906 335.564 450.079C335.564 451.253 335.153 452.25 334.332 453.071ZM331.34 452.927C332.14 452.927 332.812 452.655 333.356 452.111C333.9 451.567 334.172 450.89 334.172 450.079C334.172 449.269 333.9 448.591 333.356 448.047C332.812 447.503 332.14 447.231 331.34 447.231C330.55 447.231 329.884 447.503 329.34 448.047C328.796 448.591 328.524 449.269 328.524 450.079C328.524 450.89 328.796 451.567 329.34 452.111C329.884 452.655 330.55 452.927 331.34 452.927ZM338.233 448.239C338.233 448.751 338.761 449.151 339.817 449.439C340.211 449.525 340.542 449.615 340.809 449.711C341.086 449.797 341.385 449.93 341.705 450.111C342.035 450.293 342.286 450.533 342.457 450.831C342.627 451.13 342.713 451.482 342.713 451.887C342.713 452.613 342.43 453.194 341.865 453.631C341.299 454.069 340.585 454.287 339.721 454.287C338.953 454.287 338.286 454.122 337.721 453.791C337.166 453.45 336.771 452.991 336.537 452.415L337.737 451.727C337.865 452.111 338.105 452.415 338.457 452.639C338.809 452.863 339.23 452.975 339.721 452.975C340.201 452.975 340.585 452.885 340.873 452.703C341.161 452.522 341.305 452.25 341.305 451.887C341.305 451.343 340.777 450.949 339.721 450.703C339.369 450.607 339.102 450.533 338.921 450.479C338.739 450.426 338.489 450.33 338.169 450.191C337.859 450.053 337.625 449.909 337.465 449.759C337.305 449.599 337.155 449.391 337.017 449.135C336.889 448.869 336.825 448.575 336.825 448.255C336.825 447.562 337.091 446.991 337.625 446.543C338.169 446.095 338.846 445.871 339.657 445.871C340.307 445.871 340.883 446.021 341.385 446.319C341.897 446.607 342.281 447.013 342.537 447.535L341.369 448.191C341.081 447.509 340.51 447.167 339.657 447.167C339.251 447.167 338.91 447.263 338.633 447.455C338.366 447.647 338.233 447.909 338.233 448.239ZM351.822 450.719H345.118C345.257 451.423 345.582 451.978 346.094 452.383C346.606 452.778 347.246 452.975 348.014 452.975C349.07 452.975 349.838 452.586 350.318 451.807L351.502 452.479C350.713 453.685 349.54 454.287 347.982 454.287C346.724 454.287 345.689 453.893 344.878 453.103C344.089 452.293 343.694 451.285 343.694 450.079C343.694 448.863 344.084 447.861 344.862 447.071C345.641 446.271 346.649 445.871 347.886 445.871C349.06 445.871 350.014 446.287 350.75 447.119C351.497 447.93 351.87 448.922 351.87 450.095C351.87 450.298 351.854 450.506 351.822 450.719ZM347.886 447.183C347.15 447.183 346.532 447.391 346.03 447.807C345.54 448.223 345.236 448.789 345.118 449.503H350.462C350.345 448.767 350.052 448.197 349.582 447.791C349.113 447.386 348.548 447.183 347.886 447.183ZM361.582 442.671V444.015C360.174 443.898 359.47 444.506 359.47 445.839V446.079H361.582V447.423H359.47V454.079H358.078V447.423H356.798V446.079H358.078V445.839C358.078 444.751 358.382 443.935 358.99 443.391C359.598 442.837 360.462 442.597 361.582 442.671ZM364.034 446.079V447.423C364.493 446.431 365.325 445.935 366.53 445.935V447.391C365.848 447.359 365.261 447.541 364.77 447.935C364.28 448.33 364.034 448.965 364.034 449.839V454.079H362.642V446.079H364.034ZM374.207 453.071C373.396 453.882 372.399 454.287 371.215 454.287C370.031 454.287 369.033 453.882 368.223 453.071C367.412 452.261 367.007 451.263 367.007 450.079C367.007 448.895 367.412 447.898 368.223 447.087C369.033 446.277 370.031 445.871 371.215 445.871C372.399 445.871 373.396 446.277 374.207 447.087C375.028 447.909 375.439 448.906 375.439 450.079C375.439 451.253 375.028 452.25 374.207 453.071ZM371.215 452.927C372.015 452.927 372.687 452.655 373.231 452.111C373.775 451.567 374.047 450.89 374.047 450.079C374.047 449.269 373.775 448.591 373.231 448.047C372.687 447.503 372.015 447.231 371.215 447.231C370.425 447.231 369.759 447.503 369.215 448.047C368.671 448.591 368.399 449.269 368.399 450.079C368.399 450.89 368.671 451.567 369.215 452.111C369.759 452.655 370.425 452.927 371.215 452.927ZM385.72 445.871C386.626 445.871 387.352 446.165 387.896 446.751C388.45 447.338 388.728 448.122 388.728 449.103V454.079H387.336V449.151C387.336 448.543 387.176 448.069 386.856 447.727C386.546 447.375 386.12 447.199 385.576 447.199C384.957 447.199 384.472 447.407 384.12 447.823C383.778 448.229 383.608 448.831 383.608 449.631V454.079H382.216V449.151C382.216 448.543 382.061 448.069 381.752 447.727C381.453 447.375 381.042 447.199 380.52 447.199C379.912 447.199 379.416 447.413 379.032 447.839C378.658 448.255 378.472 448.853 378.472 449.631V454.079H377.08V446.079H378.472V447.151C379.016 446.298 379.81 445.871 380.856 445.871C381.933 445.871 382.717 446.325 383.208 447.231C383.762 446.325 384.6 445.871 385.72 445.871ZM401.41 453.071C400.599 453.882 399.602 454.287 398.418 454.287C397.234 454.287 396.236 453.882 395.426 453.071C394.615 452.261 394.21 451.263 394.21 450.079C394.21 448.895 394.615 447.898 395.426 447.087C396.236 446.277 397.234 445.871 398.418 445.871C399.602 445.871 400.599 446.277 401.41 447.087C402.231 447.909 402.642 448.906 402.642 450.079C402.642 451.253 402.231 452.25 401.41 453.071ZM398.418 452.927C399.218 452.927 399.89 452.655 400.434 452.111C400.978 451.567 401.25 450.89 401.25 450.079C401.25 449.269 400.978 448.591 400.434 448.047C399.89 447.503 399.218 447.231 398.418 447.231C397.628 447.231 396.962 447.503 396.418 448.047C395.874 448.591 395.602 449.269 395.602 450.079C395.602 450.89 395.874 451.567 396.418 452.111C396.962 452.655 397.628 452.927 398.418 452.927ZM409.803 450.319V446.079H411.195V454.079H409.803V452.927C409.248 453.834 408.384 454.287 407.211 454.287C406.272 454.287 405.52 453.994 404.955 453.407C404.389 452.81 404.107 452.005 404.107 450.991V446.079H405.499V450.911C405.499 451.551 405.675 452.053 406.027 452.415C406.379 452.778 406.864 452.959 407.483 452.959C408.197 452.959 408.763 452.741 409.179 452.303C409.595 451.855 409.803 451.194 409.803 450.319ZM414.706 446.079V447.423C415.165 446.431 415.997 445.935 417.202 445.935V447.391C416.519 447.359 415.933 447.541 415.442 447.935C414.951 448.33 414.706 448.965 414.706 449.839V454.079H413.314V446.079H414.706ZM144.319 467.239C144.319 467.751 144.847 468.151 145.903 468.439C146.297 468.525 146.628 468.615 146.895 468.711C147.172 468.797 147.471 468.93 147.791 469.111C148.121 469.293 148.372 469.533 148.543 469.831C148.713 470.13 148.799 470.482 148.799 470.887C148.799 471.613 148.516 472.194 147.951 472.631C147.385 473.069 146.671 473.287 145.807 473.287C145.039 473.287 144.372 473.122 143.807 472.791C143.252 472.45 142.857 471.991 142.623 471.415L143.823 470.727C143.951 471.111 144.191 471.415 144.543 471.639C144.895 471.863 145.316 471.975 145.807 471.975C146.287 471.975 146.671 471.885 146.959 471.703C147.247 471.522 147.391 471.25 147.391 470.887C147.391 470.343 146.863 469.949 145.807 469.703C145.455 469.607 145.188 469.533 145.007 469.479C144.825 469.426 144.575 469.33 144.255 469.191C143.945 469.053 143.711 468.909 143.551 468.759C143.391 468.599 143.241 468.391 143.103 468.135C142.975 467.869 142.911 467.575 142.911 467.255C142.911 466.562 143.177 465.991 143.711 465.543C144.255 465.095 144.932 464.871 145.743 464.871C146.393 464.871 146.969 465.021 147.471 465.319C147.983 465.607 148.367 466.013 148.623 466.535L147.455 467.191C147.167 466.509 146.596 466.167 145.743 466.167C145.337 466.167 144.996 466.263 144.719 466.455C144.452 466.647 144.319 466.909 144.319 467.239ZM155.889 469.319V465.079H157.281V473.079H155.889V471.927C155.334 472.834 154.47 473.287 153.297 473.287C152.358 473.287 151.606 472.994 151.041 472.407C150.475 471.81 150.193 471.005 150.193 469.991V465.079H151.585V469.911C151.585 470.551 151.761 471.053 152.113 471.415C152.465 471.778 152.95 471.959 153.569 471.959C154.283 471.959 154.849 471.741 155.265 471.303C155.681 470.855 155.889 470.194 155.889 469.319ZM163.816 464.871C164.936 464.871 165.891 465.282 166.68 466.103C167.469 466.925 167.864 467.917 167.864 469.079C167.864 470.253 167.469 471.25 166.68 472.071C165.901 472.882 164.947 473.287 163.816 473.287C162.493 473.287 161.485 472.759 160.792 471.703V476.279H159.4V465.079H160.792V466.455C161.485 465.399 162.493 464.871 163.816 464.871ZM163.64 471.943C164.44 471.943 165.112 471.671 165.656 471.127C166.2 470.562 166.472 469.879 166.472 469.079C166.472 468.269 166.2 467.591 165.656 467.047C165.112 466.493 164.44 466.215 163.64 466.215C162.829 466.215 162.152 466.493 161.608 467.047C161.064 467.591 160.792 468.269 160.792 469.079C160.792 469.879 161.064 470.562 161.608 471.127C162.152 471.671 162.829 471.943 163.64 471.943ZM173.941 464.871C175.061 464.871 176.016 465.282 176.805 466.103C177.594 466.925 177.989 467.917 177.989 469.079C177.989 470.253 177.594 471.25 176.805 472.071C176.026 472.882 175.072 473.287 173.941 473.287C172.618 473.287 171.61 472.759 170.917 471.703V476.279H169.525V465.079H170.917V466.455C171.61 465.399 172.618 464.871 173.941 464.871ZM173.765 471.943C174.565 471.943 175.237 471.671 175.781 471.127C176.325 470.562 176.597 469.879 176.597 469.079C176.597 468.269 176.325 467.591 175.781 467.047C175.237 466.493 174.565 466.215 173.765 466.215C172.954 466.215 172.277 466.493 171.733 467.047C171.189 467.591 170.917 468.269 170.917 469.079C170.917 469.879 171.189 470.562 171.733 471.127C172.277 471.671 172.954 471.943 173.765 471.943ZM186.402 472.071C185.591 472.882 184.594 473.287 183.41 473.287C182.226 473.287 181.229 472.882 180.418 472.071C179.607 471.261 179.202 470.263 179.202 469.079C179.202 467.895 179.607 466.898 180.418 466.087C181.229 465.277 182.226 464.871 183.41 464.871C184.594 464.871 185.591 465.277 186.402 466.087C187.223 466.909 187.634 467.906 187.634 469.079C187.634 470.253 187.223 471.25 186.402 472.071ZM183.41 471.927C184.21 471.927 184.882 471.655 185.426 471.111C185.97 470.567 186.242 469.89 186.242 469.079C186.242 468.269 185.97 467.591 185.426 467.047C184.882 466.503 184.21 466.231 183.41 466.231C182.621 466.231 181.954 466.503 181.41 467.047C180.866 467.591 180.594 468.269 180.594 469.079C180.594 469.89 180.866 470.567 181.41 471.111C181.954 471.655 182.621 471.927 183.41 471.927ZM190.667 465.079V466.423C191.126 465.431 191.958 464.935 193.163 464.935V466.391C192.48 466.359 191.894 466.541 191.403 466.935C190.912 467.33 190.667 467.965 190.667 468.839V473.079H189.275V465.079H190.667ZM199.064 465.079V466.423H196.936V470.759C196.936 471.154 197.011 471.437 197.16 471.607C197.32 471.767 197.56 471.853 197.88 471.863C198.2 471.863 198.595 471.853 199.064 471.831V473.079C197.838 473.239 196.942 473.138 196.376 472.775C195.822 472.413 195.544 471.741 195.544 470.759V466.423H193.96V465.079H195.544V463.255L196.936 462.839V465.079H199.064ZM207.986 469.719H201.282C201.421 470.423 201.746 470.978 202.258 471.383C202.77 471.778 203.41 471.975 204.178 471.975C205.234 471.975 206.002 471.586 206.482 470.807L207.666 471.479C206.877 472.685 205.704 473.287 204.146 473.287C202.888 473.287 201.853 472.893 201.042 472.103C200.253 471.293 199.858 470.285 199.858 469.079C199.858 467.863 200.248 466.861 201.026 466.071C201.805 465.271 202.813 464.871 204.05 464.871C205.224 464.871 206.178 465.287 206.914 466.119C207.661 466.93 208.034 467.922 208.034 469.095C208.034 469.298 208.018 469.506 207.986 469.719ZM204.05 466.183C203.314 466.183 202.696 466.391 202.194 466.807C201.704 467.223 201.4 467.789 201.282 468.503H206.626C206.509 467.767 206.216 467.197 205.746 466.791C205.277 466.386 204.712 466.183 204.05 466.183ZM216.243 466.455V461.879H217.635V473.079H216.243V471.703C215.56 472.759 214.552 473.287 213.219 473.287C212.088 473.287 211.133 472.882 210.355 472.071C209.565 471.25 209.171 470.253 209.171 469.079C209.171 467.917 209.565 466.925 210.355 466.103C211.144 465.282 212.099 464.871 213.219 464.871C214.552 464.871 215.56 465.399 216.243 466.455ZM213.395 471.943C214.205 471.943 214.883 471.671 215.427 471.127C215.971 470.562 216.243 469.879 216.243 469.079C216.243 468.269 215.971 467.591 215.427 467.047C214.883 466.493 214.205 466.215 213.395 466.215C212.595 466.215 211.923 466.493 211.379 467.047C210.835 467.591 210.563 468.269 210.563 469.079C210.563 469.879 210.835 470.562 211.379 471.127C211.923 471.671 212.595 471.943 213.395 471.943ZM228.096 465.079V466.423H225.968V470.759C225.968 471.154 226.042 471.437 226.192 471.607C226.352 471.767 226.592 471.853 226.912 471.863C227.232 471.863 227.626 471.853 228.096 471.831V473.079C226.869 473.239 225.973 473.138 225.408 472.775C224.853 472.413 224.576 471.741 224.576 470.759V466.423H222.992V465.079H224.576V463.255L225.968 462.839V465.079H228.096ZM236.089 472.071C235.279 472.882 234.281 473.287 233.097 473.287C231.913 473.287 230.916 472.882 230.105 472.071C229.295 471.261 228.889 470.263 228.889 469.079C228.889 467.895 229.295 466.898 230.105 466.087C230.916 465.277 231.913 464.871 233.097 464.871C234.281 464.871 235.279 465.277 236.089 466.087C236.911 466.909 237.321 467.906 237.321 469.079C237.321 470.253 236.911 471.25 236.089 472.071ZM233.097 471.927C233.897 471.927 234.569 471.655 235.113 471.111C235.657 470.567 235.929 469.89 235.929 469.079C235.929 468.269 235.657 467.591 235.113 467.047C234.569 466.503 233.897 466.231 233.097 466.231C232.308 466.231 231.641 466.503 231.097 467.047C230.553 467.591 230.281 468.269 230.281 469.079C230.281 469.89 230.553 470.567 231.097 471.111C231.641 471.655 232.308 471.927 233.097 471.927ZM245.714 472.071C244.904 472.882 243.906 473.287 242.722 473.287C241.538 473.287 240.541 472.882 239.73 472.071C238.92 471.261 238.514 470.263 238.514 469.079C238.514 467.895 238.92 466.898 239.73 466.087C240.541 465.277 241.538 464.871 242.722 464.871C243.906 464.871 244.904 465.277 245.714 466.087C246.536 466.909 246.946 467.906 246.946 469.079C246.946 470.253 246.536 471.25 245.714 472.071ZM242.722 471.927C243.522 471.927 244.194 471.655 244.738 471.111C245.282 470.567 245.554 469.89 245.554 469.079C245.554 468.269 245.282 467.591 244.738 467.047C244.194 466.503 243.522 466.231 242.722 466.231C241.933 466.231 241.266 466.503 240.722 467.047C240.178 467.591 239.906 468.269 239.906 469.079C239.906 469.89 240.178 470.567 240.722 471.111C241.266 471.655 241.933 471.927 242.722 471.927ZM249.979 473.079H248.587V461.399H249.979V473.079ZM253.287 467.239C253.287 467.751 253.815 468.151 254.871 468.439C255.266 468.525 255.597 468.615 255.863 468.711C256.141 468.797 256.439 468.93 256.759 469.111C257.09 469.293 257.341 469.533 257.511 469.831C257.682 470.13 257.767 470.482 257.767 470.887C257.767 471.613 257.485 472.194 256.919 472.631C256.354 473.069 255.639 473.287 254.775 473.287C254.007 473.287 253.341 473.122 252.775 472.791C252.221 472.45 251.826 471.991 251.591 471.415L252.791 470.727C252.919 471.111 253.159 471.415 253.511 471.639C253.863 471.863 254.285 471.975 254.775 471.975C255.255 471.975 255.639 471.885 255.927 471.703C256.215 471.522 256.359 471.25 256.359 470.887C256.359 470.343 255.831 469.949 254.775 469.703C254.423 469.607 254.157 469.533 253.975 469.479C253.794 469.426 253.543 469.33 253.223 469.191C252.914 469.053 252.679 468.909 252.519 468.759C252.359 468.599 252.21 468.391 252.071 468.135C251.943 467.869 251.879 467.575 251.879 467.255C251.879 466.562 252.146 465.991 252.679 465.543C253.223 465.095 253.901 464.871 254.711 464.871C255.362 464.871 255.938 465.021 256.439 465.319C256.951 465.607 257.335 466.013 257.591 466.535L256.423 467.191C256.135 466.509 255.565 466.167 254.711 466.167C254.306 466.167 253.965 466.263 253.687 466.455C253.421 466.647 253.287 466.909 253.287 467.239ZM267.768 465.079V466.423H265.64V470.759C265.64 471.154 265.714 471.437 265.864 471.607C266.024 471.767 266.264 471.853 266.584 471.863C266.904 471.863 267.298 471.853 267.768 471.831V473.079C266.541 473.239 265.645 473.138 265.08 472.775C264.525 472.413 264.248 471.741 264.248 470.759V466.423H262.664V465.079H264.248V463.255L265.64 462.839V465.079H267.768ZM275.761 472.071C274.951 472.882 273.953 473.287 272.769 473.287C271.585 473.287 270.588 472.882 269.777 472.071C268.967 471.261 268.561 470.263 268.561 469.079C268.561 467.895 268.967 466.898 269.777 466.087C270.588 465.277 271.585 464.871 272.769 464.871C273.953 464.871 274.951 465.277 275.761 466.087C276.583 466.909 276.993 467.906 276.993 469.079C276.993 470.253 276.583 471.25 275.761 472.071ZM272.769 471.927C273.569 471.927 274.241 471.655 274.785 471.111C275.329 470.567 275.601 469.89 275.601 469.079C275.601 468.269 275.329 467.591 274.785 467.047C274.241 466.503 273.569 466.231 272.769 466.231C271.98 466.231 271.313 466.503 270.769 467.047C270.225 467.591 269.953 468.269 269.953 469.079C269.953 469.89 270.225 470.567 270.769 471.111C271.313 471.655 271.98 471.927 272.769 471.927ZM289.274 466.455V465.079H290.65V472.743C290.65 473.927 290.25 474.845 289.45 475.495C288.64 476.157 287.68 476.487 286.57 476.487C285.674 476.487 284.901 476.317 284.25 475.975C283.6 475.645 283.109 475.165 282.778 474.535L283.994 473.847C284.432 474.743 285.301 475.191 286.602 475.191C287.434 475.191 288.085 474.973 288.554 474.535C289.034 474.098 289.274 473.501 289.274 472.743V471.607C288.57 472.674 287.568 473.207 286.266 473.207C285.114 473.207 284.149 472.802 283.37 471.991C282.581 471.17 282.186 470.183 282.186 469.031C282.186 467.879 282.581 466.898 283.37 466.087C284.149 465.277 285.114 464.871 286.266 464.871C287.578 464.871 288.581 465.399 289.274 466.455ZM289.274 469.031C289.274 468.231 289.002 467.559 288.458 467.015C287.914 466.471 287.237 466.199 286.426 466.199C285.616 466.199 284.938 466.471 284.394 467.015C283.85 467.559 283.578 468.231 283.578 469.031C283.578 469.842 283.85 470.519 284.394 471.063C284.938 471.607 285.616 471.879 286.426 471.879C287.237 471.879 287.914 471.607 288.458 471.063C289.002 470.519 289.274 469.842 289.274 469.031ZM300.439 469.719H293.735C293.874 470.423 294.199 470.978 294.711 471.383C295.223 471.778 295.863 471.975 296.631 471.975C297.687 471.975 298.455 471.586 298.935 470.807L300.119 471.479C299.33 472.685 298.157 473.287 296.599 473.287C295.341 473.287 294.306 472.893 293.495 472.103C292.706 471.293 292.311 470.285 292.311 469.079C292.311 467.863 292.701 466.861 293.479 466.071C294.258 465.271 295.266 464.871 296.503 464.871C297.677 464.871 298.631 465.287 299.367 466.119C300.114 466.93 300.487 467.922 300.487 469.095C300.487 469.298 300.471 469.506 300.439 469.719ZM296.503 466.183C295.767 466.183 295.149 466.391 294.647 466.807C294.157 467.223 293.853 467.789 293.735 468.503H299.079C298.962 467.767 298.669 467.197 298.199 466.791C297.73 466.386 297.165 466.183 296.503 466.183ZM306.205 465.079V466.423H304.077V470.759C304.077 471.154 304.152 471.437 304.301 471.607C304.461 471.767 304.701 471.853 305.021 471.863C305.341 471.863 305.736 471.853 306.205 471.831V473.079C304.978 473.239 304.082 473.138 303.517 472.775C302.962 472.413 302.685 471.741 302.685 470.759V466.423H301.101V465.079H302.685V463.255L304.077 462.839V465.079H306.205ZM313.1 467.239C313.1 467.751 313.628 468.151 314.684 468.439C315.079 468.525 315.409 468.615 315.676 468.711C315.953 468.797 316.252 468.93 316.572 469.111C316.903 469.293 317.153 469.533 317.324 469.831C317.495 470.13 317.58 470.482 317.58 470.887C317.58 471.613 317.297 472.194 316.732 472.631C316.167 473.069 315.452 473.287 314.588 473.287C313.82 473.287 313.153 473.122 312.588 472.791C312.033 472.45 311.639 471.991 311.404 471.415L312.604 470.727C312.732 471.111 312.972 471.415 313.324 471.639C313.676 471.863 314.097 471.975 314.588 471.975C315.068 471.975 315.452 471.885 315.74 471.703C316.028 471.522 316.172 471.25 316.172 470.887C316.172 470.343 315.644 469.949 314.588 469.703C314.236 469.607 313.969 469.533 313.788 469.479C313.607 469.426 313.356 469.33 313.036 469.191C312.727 469.053 312.492 468.909 312.332 468.759C312.172 468.599 312.023 468.391 311.884 468.135C311.756 467.869 311.692 467.575 311.692 467.255C311.692 466.562 311.959 465.991 312.492 465.543C313.036 465.095 313.713 464.871 314.524 464.871C315.175 464.871 315.751 465.021 316.252 465.319C316.764 465.607 317.148 466.013 317.404 466.535L316.236 467.191C315.948 466.509 315.377 466.167 314.524 466.167C314.119 466.167 313.777 466.263 313.5 466.455C313.233 466.647 313.1 466.909 313.1 467.239ZM323.268 465.079V466.423H321.14V470.759C321.14 471.154 321.214 471.437 321.364 471.607C321.524 471.767 321.764 471.853 322.084 471.863C322.404 471.863 322.798 471.853 323.268 471.831V473.079C322.041 473.239 321.145 473.138 320.58 472.775C320.025 472.413 319.748 471.741 319.748 470.759V466.423H318.164V465.079H319.748V463.255L321.14 462.839V465.079H323.268ZM331.133 466.455V465.079H332.525V473.079H331.133V471.703C330.451 472.759 329.443 473.287 328.109 473.287C326.979 473.287 326.024 472.882 325.245 472.071C324.456 471.25 324.061 470.253 324.061 469.079C324.061 467.917 324.456 466.925 325.245 466.103C326.035 465.282 326.989 464.871 328.109 464.871C329.443 464.871 330.451 465.399 331.133 466.455ZM328.285 471.943C329.096 471.943 329.773 471.671 330.317 471.127C330.861 470.562 331.133 469.879 331.133 469.079C331.133 468.269 330.861 467.591 330.317 467.047C329.773 466.493 329.096 466.215 328.285 466.215C327.485 466.215 326.813 466.493 326.269 467.047C325.725 467.591 325.453 468.269 325.453 469.079C325.453 469.879 325.725 470.562 326.269 471.127C326.813 471.671 327.485 471.943 328.285 471.943ZM336.026 465.079V466.423C336.485 465.431 337.317 464.935 338.522 464.935V466.391C337.84 466.359 337.253 466.541 336.762 466.935C336.272 467.33 336.026 467.965 336.026 468.839V473.079H334.634V465.079H336.026ZM344.424 465.079V466.423H342.296V470.759C342.296 471.154 342.371 471.437 342.52 471.607C342.68 471.767 342.92 471.853 343.24 471.863C343.56 471.863 343.955 471.853 344.424 471.831V473.079C343.197 473.239 342.301 473.138 341.736 472.775C341.181 472.413 340.904 471.741 340.904 470.759V466.423H339.32V465.079H340.904V463.255L342.296 462.839V465.079H344.424ZM353.346 469.719H346.642C346.78 470.423 347.106 470.978 347.618 471.383C348.13 471.778 348.77 471.975 349.538 471.975C350.594 471.975 351.362 471.586 351.842 470.807L353.026 471.479C352.236 472.685 351.063 473.287 349.506 473.287C348.247 473.287 347.212 472.893 346.402 472.103C345.612 471.293 345.218 470.285 345.218 469.079C345.218 467.863 345.607 466.861 346.386 466.071C347.164 465.271 348.172 464.871 349.41 464.871C350.583 464.871 351.538 465.287 352.274 466.119C353.02 466.93 353.394 467.922 353.394 469.095C353.394 469.298 353.378 469.506 353.346 469.719ZM349.41 466.183C348.674 466.183 348.055 466.391 347.554 466.807C347.063 467.223 346.759 467.789 346.642 468.503H351.986C351.868 467.767 351.575 467.197 351.106 466.791C350.636 466.386 350.071 466.183 349.41 466.183ZM361.602 466.455V461.879H362.994V473.079H361.602V471.703C360.919 472.759 359.911 473.287 358.578 473.287C357.447 473.287 356.493 472.882 355.714 472.071C354.925 471.25 354.53 470.253 354.53 469.079C354.53 467.917 354.925 466.925 355.714 466.103C356.503 465.282 357.458 464.871 358.578 464.871C359.911 464.871 360.919 465.399 361.602 466.455ZM358.754 471.943C359.565 471.943 360.242 471.671 360.786 471.127C361.33 470.562 361.602 469.879 361.602 469.079C361.602 468.269 361.33 467.591 360.786 467.047C360.242 466.493 359.565 466.215 358.754 466.215C357.954 466.215 357.282 466.493 356.738 467.047C356.194 467.591 355.922 468.269 355.922 469.079C355.922 469.879 356.194 470.562 356.738 471.127C357.282 471.671 357.954 471.943 358.754 471.943ZM365.983 473.255C365.695 473.255 365.45 473.154 365.247 472.951C365.044 472.749 364.943 472.503 364.943 472.215C364.943 471.927 365.044 471.682 365.247 471.479C365.45 471.277 365.695 471.175 365.983 471.175C366.282 471.175 366.527 471.277 366.719 471.479C366.922 471.682 367.023 471.927 367.023 472.215C367.023 472.503 366.922 472.749 366.719 472.951C366.527 473.154 366.282 473.255 365.983 473.255Z" fill="#7F7F7F"/>
<g clip-path="url(#clip3_6043_5252)">
<path d="M242.216 235.608C242.401 235.911 242.621 236.198 242.876 236.463C244.455 238.107 246.863 238.364 248.702 237.234C249.042 237.025 249.363 236.768 249.656 236.463L253.894 232.053C255.766 230.104 255.766 226.945 253.894 224.996C252.021 223.047 248.986 223.047 247.113 224.996L246.18 225.967" stroke="black" stroke-width="1.96228" stroke-linecap="round"/>
<path d="M243.485 242.032L242.552 243.004C240.679 244.953 237.644 244.953 235.771 243.004C233.899 241.055 233.899 237.896 235.771 235.947L240.009 231.537C241.881 229.588 244.917 229.588 246.789 231.537C247.044 231.802 247.264 232.089 247.449 232.392" stroke="black" stroke-width="1.96228" stroke-linecap="round"/>
<path d="M256.606 239.233H253.887M250.065 245.774V243.054" stroke="black" stroke-width="1.96228" stroke-linecap="round" stroke-linejoin="round"/>
<path d="M233.059 228.767H235.778M239.6 222.226V224.946" stroke="black" stroke-width="1.96228" stroke-linecap="round" stroke-linejoin="round"/>
</g>
<defs>
<linearGradient id="paint0_linear_6043_5252" x1="244.514" y1="84.3282" x2="244.514" y2="381.667" gradientUnits="userSpaceOnUse">
<stop offset="0.605" stop-color="#EEEEEE"/>
<stop offset="1" stop-color="white"/>
</linearGradient>
<linearGradient id="paint1_linear_6043_5252" x1="244.515" y1="41.1096" x2="244.515" y2="424.886" gradientUnits="userSpaceOnUse">
<stop offset="0.605" stop-color="#EEEEEE"/>
<stop offset="1" stop-color="white"/>
</linearGradient>
<linearGradient id="paint2_linear_6043_5252" x1="244.515" y1="0.916351" x2="244.515" y2="465.079" gradientUnits="userSpaceOnUse">
<stop offset="0.605" stop-color="#EEEEEE"/>
<stop offset="1" stop-color="white"/>
</linearGradient>
<clipPath id="clip0_6043_5252">
<rect width="21.2499" height="21.2499" fill="white" transform="translate(391.5 116.322)"/>
</clipPath>
<clipPath id="clip1_6043_5252">
<rect width="16.8042" height="16.8042" fill="white" transform="translate(22.7239 140.022)"/>
</clipPath>
<clipPath id="clip2_6043_5252">
<rect width="19.6283" height="19.6283" fill="white" transform="translate(471.971 216.839)"/>
</clipPath>
<clipPath id="clip3_6043_5252">
<rect width="31" height="31" fill="white" transform="translate(229.333 218.5)"/>
</clipPath>
</defs>
</svg>
