<svg width="555" height="607" viewBox="0 0 555 607" fill="none" xmlns="http://www.w3.org/2000/svg">
<path d="M268.228 188.197C300.407 188.197 326.494 214.283 326.494 246.461C326.494 278.639 300.407 304.725 268.228 304.725C236.048 304.725 209.961 278.639 209.961 246.461C209.961 214.283 236.048 188.197 268.228 188.197Z" stroke="#EEEEEE" stroke-width="2"/>
<path d="M268.227 147.716C322.765 147.716 366.977 191.926 366.977 246.461C366.977 300.997 322.765 345.206 268.227 345.206C213.689 345.205 169.478 300.996 169.478 246.461C169.478 191.926 213.689 147.716 268.227 147.716Z" stroke="#EEEEEE" stroke-width="2"/>
<path d="M268.227 98.7915C349.787 98.7915 415.904 164.906 415.904 246.461C415.904 328.017 349.787 394.13 268.227 394.13C186.668 394.13 120.552 328.017 120.552 246.461C120.552 164.906 186.668 98.7917 268.227 98.7915Z" stroke="url(#paint0_linear_2155_3274)" stroke-width="2"/>
<path d="M268.229 55.5729C373.658 55.5731 459.125 141.037 459.125 246.462C459.125 351.886 373.658 437.349 268.229 437.349C162.8 437.349 77.3317 351.886 77.3315 246.462C77.3315 141.037 162.799 55.5729 268.229 55.5729Z" stroke="url(#paint1_linear_2155_3274)" stroke-width="2"/>
<path d="M268.228 15.3796C395.857 15.3796 499.32 118.838 499.32 246.461C499.32 374.083 395.857 477.543 268.228 477.543C140.6 477.543 37.1365 374.083 37.1365 246.461C37.1367 118.838 140.6 15.3797 268.228 15.3796Z" stroke="url(#paint2_linear_2155_3274)" stroke-width="2"/>
<rect x="82.1467" y="308.494" width="37.4049" height="37.7117" rx="7.73649" fill="#F1F1F1"/>
<path d="M92.8804 324.694C92.8804 322.19 92.8804 320.937 93.6584 320.159C94.4364 319.381 95.6885 319.381 98.1928 319.381H103.505C106.01 319.381 107.262 319.381 108.04 320.159C108.818 320.937 108.818 322.19 108.818 324.694V329.121C108.818 330.79 108.818 331.625 108.299 332.144C107.78 332.663 106.946 332.663 105.276 332.663H96.422C94.7525 332.663 93.9177 332.663 93.399 332.144C92.8804 331.625 92.8804 330.79 92.8804 329.121V324.694Z" stroke="#707072" stroke-width="1.32812"/>
<path d="M109.704 335.319H91.9956" stroke="#707072" stroke-width="1.32812" stroke-linecap="round"/>
<path d="M103.506 330.006H98.1931" stroke="#707072" stroke-width="1.32812" stroke-linecap="round"/>
<rect x="416.984" y="316.725" width="37.4049" height="37.7117" rx="7.73649" fill="#F1F1F1"/>
<path d="M438.343 341.779L440.113 343.55L443.655 340.008M436.572 327.612H432.322C431.33 327.612 430.834 327.612 430.455 327.805C430.122 327.975 429.851 328.246 429.682 328.579C429.489 328.958 429.489 329.454 429.489 330.446V340.716C429.489 341.708 429.489 342.204 429.682 342.583C429.851 342.916 430.122 343.187 430.455 343.357C430.834 343.55 431.33 343.55 432.322 343.55H435.686M436.572 327.612L441.884 332.925M436.572 327.612V331.508C436.572 332.004 436.572 332.252 436.668 332.441C436.753 332.608 436.889 332.743 437.055 332.828C437.245 332.925 437.493 332.925 437.988 332.925H441.884M441.884 332.925V336.909" stroke="#707072" stroke-width="1.77082" stroke-linecap="round" stroke-linejoin="round"/>
<rect x="168.478" y="168.341" width="37.4049" height="37.7117" rx="7.73649" fill="#F1F1F1"/>
<path d="M194.946 181.544C194.945 182.022 194.755 182.481 194.417 182.819C194.079 183.158 193.62 183.348 193.142 183.349H192.576V192.739C192.575 193.217 192.385 193.676 192.047 194.014C191.709 194.352 191.25 194.543 190.772 194.543H181.219C180.982 194.543 180.748 194.496 180.529 194.406C180.31 194.315 180.111 194.182 179.943 194.015C179.776 193.847 179.643 193.648 179.552 193.429C179.461 193.21 179.415 192.976 179.415 192.739C179.415 192.502 179.461 192.267 179.552 192.048C179.643 191.829 179.776 191.63 179.943 191.463C180.111 191.295 180.31 191.162 180.529 191.071C180.748 190.981 180.982 190.934 181.219 190.934H181.784V181.544C181.784 181.065 181.974 180.606 182.313 180.267C182.651 179.928 183.11 179.738 183.589 179.738H193.141C193.619 179.738 194.078 179.928 194.417 180.267C194.755 180.605 194.945 181.064 194.946 181.543V181.544ZM181.219 193.304H189.056C188.935 192.937 188.935 192.541 189.056 192.174H181.222C181.072 192.174 180.928 192.234 180.822 192.34C180.716 192.446 180.657 192.589 180.657 192.739C180.657 192.889 180.716 193.033 180.822 193.138C180.928 193.244 181.072 193.304 181.222 193.304H181.219ZM191.335 181.544C191.335 181.352 191.365 181.161 191.425 180.979H183.59C183.465 180.979 183.343 181.021 183.244 181.099L183.241 181.1C183.174 181.152 183.119 181.22 183.082 181.297C183.044 181.374 183.025 181.458 183.026 181.544V190.934H190.113C190.267 190.932 190.418 190.983 190.54 191.078C190.662 191.173 190.748 191.306 190.784 191.456C190.827 191.6 190.822 191.754 190.772 191.895C190.721 192.036 190.627 192.157 190.503 192.241C190.416 192.289 190.342 192.359 190.29 192.444C190.239 192.529 190.21 192.627 190.208 192.726C190.206 192.826 190.231 192.925 190.279 193.012C190.327 193.099 190.398 193.172 190.484 193.223C190.569 193.274 190.667 193.301 190.766 193.303C190.866 193.304 190.964 193.278 191.051 193.229C191.138 193.18 191.21 193.109 191.26 193.023C191.311 192.937 191.337 192.839 191.338 192.739L191.335 181.544ZM190.374 183.152H183.932V184.39H190.374V183.152ZM190.374 185.68H183.932V186.918H190.374V185.68ZM190.374 188.207H183.932V189.447H190.374V188.207ZM193.705 181.544C193.705 181.394 193.645 181.251 193.54 181.145C193.434 181.039 193.29 180.979 193.141 180.979C193.015 180.978 192.892 181.021 192.794 181.099H192.792C192.724 181.151 192.669 181.219 192.631 181.296C192.594 181.373 192.574 181.458 192.575 181.544V182.109H193.141C193.29 182.108 193.434 182.049 193.54 181.943C193.645 181.837 193.705 181.693 193.705 181.544Z" fill="#707072"/>
<rect x="407.136" y="121.554" width="37.4049" height="37.7117" rx="7.73649" fill="#F1F1F1"/>
<g clip-path="url(#clip0_2155_3274)">
<path d="M430.016 147.274L429.449 142.737C429.283 141.408 428.153 140.41 426.814 140.41H425.838H424.863C423.523 140.41 422.393 141.408 422.227 142.737L421.66 147.274C421.528 148.331 422.352 149.264 423.417 149.264H425.838H428.259C429.324 149.264 430.149 148.331 430.016 147.274Z" stroke="#707072" stroke-width="1.77082" stroke-linecap="round" stroke-linejoin="round"/>
<path d="M425.838 136.869C427.305 136.869 428.494 135.679 428.494 134.212C428.494 132.745 427.305 131.556 425.838 131.556C424.371 131.556 423.181 132.745 423.181 134.212C423.181 135.679 424.371 136.869 425.838 136.869Z" stroke="#707072" stroke-width="1.77082"/>
<path d="M418.755 139.525C419.733 139.525 420.526 138.732 420.526 137.754C420.526 136.776 419.733 135.983 418.755 135.983C417.777 135.983 416.984 136.776 416.984 137.754C416.984 138.732 417.777 139.525 418.755 139.525Z" stroke="#707072" stroke-width="1.77082"/>
<path d="M432.921 139.525C433.899 139.525 434.692 138.732 434.692 137.754C434.692 136.776 433.899 135.983 432.921 135.983C431.943 135.983 431.15 136.776 431.15 137.754C431.15 138.732 431.943 139.525 432.921 139.525Z" stroke="#707072" stroke-width="1.77082"/>
<path d="M418.754 142.181H418.484C417.618 142.181 416.879 142.807 416.737 143.661L416.442 145.432C416.262 146.511 417.094 147.494 418.188 147.494H421.411" stroke="#707072" stroke-width="1.77082" stroke-linecap="round" stroke-linejoin="round"/>
<path d="M432.921 142.181H433.192C434.058 142.181 434.796 142.807 434.939 143.661L435.234 145.432C435.414 146.511 434.582 147.494 433.487 147.494C432.459 147.494 431.235 147.494 430.265 147.494" stroke="#707072" stroke-width="1.77082" stroke-linecap="round" stroke-linejoin="round"/>
</g>
<rect x="218.573" y="320" width="37.4049" height="37.7117" rx="7.73649" fill="#F1F1F1"/>
<path d="M237.275 343.283V346.825M233.733 346.825H240.817M232.14 343.283H242.41C243.402 343.283 243.898 343.283 244.277 343.09C244.61 342.921 244.881 342.65 245.051 342.317C245.244 341.938 245.244 341.442 245.244 340.45V333.721C245.244 332.729 245.244 332.233 245.051 331.855C244.881 331.521 244.61 331.25 244.277 331.081C243.898 330.888 243.402 330.888 242.41 330.888H232.14C231.148 330.888 230.652 330.888 230.273 331.081C229.94 331.25 229.669 331.521 229.499 331.855C229.306 332.233 229.306 332.729 229.306 333.721V340.45C229.306 341.442 229.306 341.938 229.499 342.317C229.669 342.65 229.94 342.921 230.273 343.09C230.652 343.283 231.148 343.283 232.14 343.283Z" stroke="#707072" stroke-width="1.77082" stroke-linecap="round"/>
<rect x="349.274" y="208.75" width="37.4049" height="37.7117" rx="7.73649" fill="#F1F1F1"/>
<path fill-rule="evenodd" clip-rule="evenodd" d="M359.636 222.392C359.636 220.665 361.036 219.264 362.764 219.264H367.976H373.189C374.917 219.264 376.317 220.665 376.317 222.392V227.605V232.818C376.317 234.546 374.917 235.946 373.189 235.946H367.976H362.764C361.036 235.946 359.636 234.546 359.636 232.818V227.605V222.392ZM362.764 221.35C362.188 221.35 361.721 221.816 361.721 222.392V226.563H366.934V221.35H362.764ZM369.019 221.35V226.563H374.232V222.392C374.232 221.816 373.765 221.35 373.189 221.35H369.019ZM374.232 228.648H369.019V233.861H373.189C373.765 233.861 374.232 233.394 374.232 232.818V228.648ZM366.934 233.861V228.648H361.721V232.818C361.721 233.394 362.188 233.861 362.764 233.861H366.934Z" fill="#707072"/>
<rect x="36.1365" y="143.032" width="37.4049" height="37.7117" rx="7.73649" fill="#F1F1F1"/>
<g clip-path="url(#clip1_2155_3274)">
<path fill-rule="evenodd" clip-rule="evenodd" d="M60.5447 164.315L52.4702 169.774C50.5028 171.104 47.8379 169.707 47.8379 167.347V156.429C47.8379 154.068 50.5028 152.671 52.4702 154.002L60.5447 159.461C62.2699 160.627 62.2699 163.149 60.5447 164.315Z" fill="#707072"/>
</g>
<path d="M148.23 520.703V507.526H151.42V526.945H148.924L139.769 513.768V526.945H136.578V507.526H139.075L148.23 520.703ZM166.84 525.198C165.434 526.603 163.705 527.306 161.652 527.306C159.599 527.306 157.87 526.603 156.464 525.198C155.04 523.774 154.328 522.044 154.328 520.01C154.328 517.975 155.04 516.246 156.464 514.822C157.87 513.416 159.599 512.714 161.652 512.714C163.705 512.714 165.434 513.416 166.84 514.822C168.264 516.246 168.976 517.975 168.976 520.01C168.976 522.044 168.264 523.774 166.84 525.198ZM157.324 520.01C157.324 521.267 157.74 522.312 158.573 523.145C159.405 523.977 160.431 524.393 161.652 524.393C162.873 524.393 163.899 523.977 164.731 523.145C165.564 522.312 165.98 521.267 165.98 520.01C165.98 518.752 165.564 517.707 164.731 516.875C163.899 516.043 162.873 515.627 161.652 515.627C160.431 515.627 159.405 516.043 158.573 516.875C157.74 517.707 157.324 518.752 157.324 520.01ZM178.815 526.945V507.526H182.005V526.945H178.815ZM192.988 512.714C194.597 512.714 195.882 513.232 196.844 514.267C197.824 515.284 198.314 516.672 198.314 518.429V526.945H195.318V518.734C195.318 517.698 195.041 516.903 194.486 516.348C193.931 515.793 193.173 515.516 192.211 515.516C191.12 515.516 190.26 515.858 189.631 516.542C189.002 517.208 188.688 518.197 188.688 519.51V526.945H185.692V513.074H188.688V514.85C189.612 513.426 191.046 512.714 192.988 512.714ZM209.28 513.074V515.959H205.84V522.618C205.84 523.191 205.97 523.607 206.229 523.866C206.488 524.106 206.867 524.245 207.366 524.282C207.884 524.301 208.522 524.291 209.28 524.254V526.945C206.987 527.223 205.341 527.029 204.342 526.363C203.344 525.678 202.844 524.43 202.844 522.618V515.959H200.292V513.074H202.844V510.078L205.84 509.19V513.074H209.28ZM224.828 521.286H213.787C214.009 522.322 214.508 523.126 215.285 523.7C216.08 524.273 217.061 524.56 218.226 524.56C219.798 524.56 220.991 523.986 221.804 522.84L224.274 524.282C222.923 526.298 220.898 527.306 218.198 527.306C215.96 527.306 214.138 526.622 212.733 525.253C211.346 523.866 210.652 522.118 210.652 520.01C210.652 517.957 211.336 516.228 212.705 514.822C214.055 513.416 215.812 512.714 217.976 512.714C219.992 512.714 221.657 513.426 222.97 514.85C224.283 516.274 224.939 518.003 224.939 520.038C224.939 520.407 224.902 520.824 224.828 521.286ZM213.759 518.845H221.915C221.712 517.753 221.25 516.912 220.528 516.32C219.826 515.728 218.966 515.432 217.948 515.432C216.839 515.432 215.914 515.738 215.174 516.348C214.434 516.958 213.963 517.79 213.759 518.845ZM238.536 515.127V513.074H241.476V526.307C241.476 528.416 240.783 530.034 239.396 531.162C238.027 532.29 236.344 532.854 234.347 532.854C231.147 532.854 228.956 531.736 227.772 529.498L230.352 528C231.073 529.424 232.423 530.136 234.402 530.136C235.697 530.136 236.705 529.794 237.426 529.109C238.166 528.443 238.536 527.509 238.536 526.307V524.615C237.408 526.224 235.799 527.029 233.709 527.029C231.767 527.029 230.111 526.335 228.743 524.948C227.393 523.542 226.718 521.85 226.718 519.871C226.718 517.874 227.393 516.191 228.743 514.822C230.093 513.416 231.748 512.714 233.709 512.714C235.799 512.714 237.408 513.518 238.536 515.127ZM230.962 522.978C231.813 523.811 232.867 524.227 234.125 524.227C235.382 524.227 236.427 523.811 237.26 522.978C238.11 522.146 238.536 521.11 238.536 519.871C238.536 518.632 238.11 517.596 237.26 516.764C236.427 515.932 235.382 515.516 234.125 515.516C232.867 515.516 231.813 515.932 230.962 516.764C230.13 517.596 229.714 518.632 229.714 519.871C229.714 521.11 230.13 522.146 230.962 522.978ZM247.965 513.074V515.405C248.723 513.685 250.147 512.825 252.237 512.825V516.07C251.109 515.996 250.11 516.274 249.241 516.903C248.39 517.513 247.965 518.53 247.965 519.954V526.945H244.969V513.074H247.965ZM264.787 515.044V513.074H267.783V526.945H264.787V524.948C263.658 526.52 262.04 527.306 259.932 527.306C258.027 527.306 256.399 526.603 255.049 525.198C253.699 523.792 253.024 522.063 253.024 520.01C253.024 517.957 253.699 516.228 255.049 514.822C256.399 513.416 258.027 512.714 259.932 512.714C262.04 512.714 263.658 513.49 264.787 515.044ZM257.268 523.2C258.101 524.032 259.146 524.449 260.403 524.449C261.661 524.449 262.706 524.032 263.538 523.2C264.37 522.349 264.787 521.286 264.787 520.01C264.787 518.734 264.37 517.679 263.538 516.847C262.706 515.996 261.661 515.571 260.403 515.571C259.146 515.571 258.101 515.996 257.268 516.847C256.436 517.679 256.02 518.734 256.02 520.01C256.02 521.267 256.436 522.331 257.268 523.2ZM279.015 513.074V515.959H275.575V522.618C275.575 523.191 275.705 523.607 275.963 523.866C276.222 524.106 276.602 524.245 277.101 524.282C277.619 524.301 278.257 524.291 279.015 524.254V526.945C276.722 527.223 275.076 527.029 274.077 526.363C273.078 525.678 272.579 524.43 272.579 522.618V515.959H270.027V513.074H272.579V510.078L275.575 509.19V513.074H279.015ZM284.562 510.439C284.192 510.809 283.748 510.994 283.231 510.994C282.713 510.994 282.26 510.809 281.871 510.439C281.501 510.05 281.316 509.597 281.316 509.079C281.316 508.562 281.501 508.118 281.871 507.748C282.241 507.359 282.694 507.165 283.231 507.165C283.767 507.165 284.22 507.359 284.59 507.748C284.96 508.118 285.145 508.562 285.145 509.079C285.145 509.597 284.951 510.05 284.562 510.439ZM284.729 526.945H281.733V513.074H284.729V526.945ZM299.942 525.198C298.537 526.603 296.808 527.306 294.755 527.306C292.702 527.306 290.972 526.603 289.567 525.198C288.143 523.774 287.431 522.044 287.431 520.01C287.431 517.975 288.143 516.246 289.567 514.822C290.972 513.416 292.702 512.714 294.755 512.714C296.808 512.714 298.537 513.416 299.942 514.822C301.367 516.246 302.079 517.975 302.079 520.01C302.079 522.044 301.367 523.774 299.942 525.198ZM290.427 520.01C290.427 521.267 290.843 522.312 291.675 523.145C292.508 523.977 293.534 524.393 294.755 524.393C295.975 524.393 297.002 523.977 297.834 523.145C298.666 522.312 299.082 521.267 299.082 520.01C299.082 518.752 298.666 517.707 297.834 516.875C297.002 516.043 295.975 515.627 294.755 515.627C293.534 515.627 292.508 516.043 291.675 516.875C290.843 517.707 290.427 518.752 290.427 520.01ZM312.084 512.714C313.693 512.714 314.978 513.232 315.94 514.267C316.92 515.284 317.41 516.672 317.41 518.429V526.945H314.414V518.734C314.414 517.698 314.137 516.903 313.582 516.348C313.027 515.793 312.269 515.516 311.307 515.516C310.216 515.516 309.356 515.858 308.727 516.542C308.098 517.208 307.784 518.197 307.784 519.51V526.945H304.788V513.074H307.784V514.85C308.709 513.426 310.142 512.714 312.084 512.714ZM323.328 516.903C323.328 517.328 323.549 517.679 323.993 517.957C324.437 518.216 325.085 518.466 325.935 518.706C326.583 518.854 327.147 519.011 327.628 519.178C328.108 519.344 328.617 519.594 329.153 519.927C329.69 520.241 330.097 520.666 330.374 521.203C330.67 521.721 330.809 522.331 330.79 523.034C330.79 524.365 330.272 525.41 329.237 526.169C328.201 526.927 326.916 527.306 325.38 527.306C324.012 527.306 322.837 527.019 321.857 526.446C320.877 525.873 320.165 525.077 319.721 524.06L322.301 522.562C322.763 523.894 323.79 524.56 325.38 524.56C326.953 524.56 327.739 524.042 327.739 523.006C327.739 522.248 326.86 521.656 325.103 521.23C324.437 521.064 323.873 520.898 323.411 520.731C322.967 520.565 322.468 520.324 321.913 520.01C321.376 519.695 320.96 519.279 320.664 518.761C320.387 518.244 320.257 517.643 320.276 516.958C320.276 515.682 320.757 514.656 321.719 513.879C322.699 513.102 323.91 512.714 325.353 512.714C326.499 512.714 327.517 512.973 328.404 513.49C329.311 513.99 330.004 514.693 330.485 515.599L327.96 517.014C327.498 515.959 326.629 515.432 325.353 515.432C324.761 515.432 324.271 515.562 323.882 515.821C323.513 516.08 323.328 516.44 323.328 516.903ZM356.644 526.945H353.204L351.845 523.034H343.578L342.218 526.945H338.75L345.797 507.526H349.625L356.644 526.945ZM347.711 511.271L344.632 520.038H350.791L347.711 511.271ZM369.172 515.044V507.526H372.168V526.945H369.172V524.948C368.044 526.52 366.425 527.306 364.317 527.306C362.412 527.306 360.785 526.603 359.434 525.198C358.084 523.792 357.409 522.063 357.409 520.01C357.409 517.957 358.084 516.228 359.434 514.822C360.785 513.416 362.412 512.714 364.317 512.714C366.425 512.714 368.044 513.49 369.172 515.044ZM361.654 523.2C362.486 524.032 363.531 524.449 364.789 524.449C366.046 524.449 367.091 524.032 367.923 523.2C368.756 522.349 369.172 521.286 369.172 520.01C369.172 518.734 368.756 517.679 367.923 516.847C367.091 515.996 366.046 515.571 364.789 515.571C363.531 515.571 362.486 515.996 361.654 516.847C360.821 517.679 360.405 518.734 360.405 520.01C360.405 521.267 360.821 522.331 361.654 523.2ZM386.646 515.044V507.526H389.642V526.945H386.646V524.948C385.518 526.52 383.9 527.306 381.791 527.306C379.886 527.306 378.259 526.603 376.909 525.198C375.559 523.792 374.884 522.063 374.884 520.01C374.884 517.957 375.559 516.228 376.909 514.822C378.259 513.416 379.886 512.714 381.791 512.714C383.9 512.714 385.518 513.49 386.646 515.044ZM379.128 523.2C379.96 524.032 381.005 524.449 382.263 524.449C383.521 524.449 384.566 524.032 385.398 523.2C386.23 522.349 386.646 521.286 386.646 520.01C386.646 518.734 386.23 517.679 385.398 516.847C384.566 515.996 383.521 515.571 382.263 515.571C381.005 515.571 379.96 515.996 379.128 516.847C378.296 517.679 377.88 518.734 377.88 520.01C377.88 521.267 378.296 522.331 379.128 523.2ZM406.534 521.286H395.493C395.715 522.322 396.214 523.126 396.991 523.7C397.786 524.273 398.766 524.56 399.931 524.56C401.503 524.56 402.696 523.986 403.51 522.84L405.979 524.282C404.629 526.298 402.604 527.306 399.904 527.306C397.666 527.306 395.844 526.622 394.438 525.253C393.051 523.866 392.358 522.118 392.358 520.01C392.358 517.957 393.042 516.228 394.411 514.822C395.761 513.416 397.518 512.714 399.682 512.714C401.698 512.714 403.362 513.426 404.675 514.85C405.988 516.274 406.645 518.003 406.645 520.038C406.645 520.407 406.608 520.824 406.534 521.286ZM395.465 518.845H403.621C403.418 517.753 402.955 516.912 402.234 516.32C401.531 515.728 400.671 515.432 399.654 515.432C398.544 515.432 397.62 515.738 396.88 516.348C396.14 516.958 395.668 517.79 395.465 518.845ZM420.186 515.044V507.526H423.182V526.945H420.186V524.948C419.058 526.52 417.44 527.306 415.331 527.306C413.426 527.306 411.799 526.603 410.449 525.198C409.098 523.792 408.423 522.063 408.423 520.01C408.423 517.957 409.098 516.228 410.449 514.822C411.799 513.416 413.426 512.714 415.331 512.714C417.44 512.714 419.058 513.49 420.186 515.044ZM412.668 523.2C413.5 524.032 414.545 524.449 415.803 524.449C417.06 524.449 418.105 524.032 418.938 523.2C419.77 522.349 420.186 521.286 420.186 520.01C420.186 518.734 419.77 517.679 418.938 516.847C418.105 515.996 417.06 515.571 415.803 515.571C414.545 515.571 413.5 515.996 412.668 516.847C411.836 517.679 411.419 518.734 411.419 520.01C411.419 521.267 411.836 522.331 412.668 523.2Z" fill="black"/>
<rect x="486.797" y="221.26" width="37.4049" height="37.7117" rx="7.73649" fill="#F1F1F1"/>
<g clip-path="url(#clip2_2155_3274)">
<path d="M510.712 230.302H500.284C499.878 230.302 499.488 230.464 499.2 230.751C498.913 231.039 498.751 231.429 498.751 231.836V248.397C498.751 248.804 498.913 249.194 499.2 249.481C499.488 249.769 499.878 249.931 500.284 249.931H510.712C511.119 249.931 511.509 249.769 511.796 249.481C512.084 249.194 512.245 248.804 512.245 248.397V231.836C512.245 231.429 512.084 231.039 511.796 230.751C511.509 230.464 511.119 230.302 510.712 230.302ZM510.712 248.397H500.284V231.836H510.712V248.397Z" fill="#707072"/>
<path d="M505.499 246.864C506.041 246.864 506.481 246.452 506.481 245.943C506.481 245.435 506.041 245.023 505.499 245.023C504.957 245.023 504.518 245.435 504.518 245.943C504.518 246.452 504.957 246.864 505.499 246.864Z" fill="#707072"/>
</g>
<path d="M103.452 567.751C102.407 567.751 101.511 567.511 100.764 567.031C100.028 566.54 99.5111 565.863 99.2125 564.999L100.492 564.263C100.919 565.617 101.916 566.295 103.484 566.295C104.242 566.295 104.823 566.14 105.228 565.831C105.644 565.521 105.852 565.1 105.852 564.567C105.852 564.044 105.65 563.644 105.244 563.367C104.882 563.121 104.204 562.839 103.212 562.519L102.14 562.167C101.906 562.071 101.596 561.932 101.212 561.751C100.839 561.559 100.567 561.367 100.396 561.175C99.9271 560.663 99.6925 560.039 99.6925 559.303C99.6925 558.321 100.034 557.553 100.716 556.999C101.399 556.423 102.231 556.135 103.212 556.135C104.087 556.135 104.855 556.353 105.516 556.791C106.178 557.228 106.674 557.825 107.004 558.583L105.756 559.303C105.276 558.151 104.428 557.575 103.212 557.575C102.604 557.575 102.114 557.724 101.74 558.023C101.367 558.321 101.18 558.727 101.18 559.239C101.18 559.729 101.356 560.103 101.708 560.359C102.071 560.625 102.679 560.892 103.532 561.159L104.188 561.367C104.551 561.505 104.748 561.58 104.78 561.591C105.122 561.719 105.495 561.895 105.9 562.119C106.188 562.279 106.476 562.524 106.764 562.855C107.138 563.228 107.324 563.788 107.324 564.535C107.324 565.516 106.967 566.3 106.252 566.887C105.527 567.463 104.594 567.751 103.452 567.751ZM113.06 559.543V560.887H110.932V565.223C110.932 565.617 111.007 565.9 111.156 566.071C111.316 566.231 111.556 566.316 111.876 566.327C112.196 566.327 112.591 566.316 113.06 566.295V567.543C111.833 567.703 110.937 567.601 110.372 567.239C109.817 566.876 109.54 566.204 109.54 565.223V560.887H107.956V559.543H109.54V557.719L110.932 557.303V559.543H113.06ZM120.926 560.919V559.543H122.318V567.543H120.926V566.167C120.243 567.223 119.235 567.751 117.902 567.751C116.771 567.751 115.817 567.345 115.038 566.535C114.249 565.713 113.854 564.716 113.854 563.543C113.854 562.38 114.249 561.388 115.038 560.567C115.827 559.745 116.782 559.335 117.902 559.335C119.235 559.335 120.243 559.863 120.926 560.919ZM118.078 566.407C118.889 566.407 119.566 566.135 120.11 565.591C120.654 565.025 120.926 564.343 120.926 563.543C120.926 562.732 120.654 562.055 120.11 561.511C119.566 560.956 118.889 560.679 118.078 560.679C117.278 560.679 116.606 560.956 116.062 561.511C115.518 562.055 115.246 562.732 115.246 563.543C115.246 564.343 115.518 565.025 116.062 565.591C116.606 566.135 117.278 566.407 118.078 566.407ZM125.819 559.543V560.887C126.278 559.895 127.11 559.399 128.315 559.399V560.855C127.632 560.823 127.046 561.004 126.555 561.399C126.064 561.793 125.819 562.428 125.819 563.303V567.543H124.427V559.543H125.819ZM134.216 559.543V560.887H132.088V565.223C132.088 565.617 132.163 565.9 132.312 566.071C132.472 566.231 132.712 566.316 133.032 566.327C133.352 566.327 133.747 566.316 134.216 566.295V567.543C132.99 567.703 132.094 567.601 131.528 567.239C130.974 566.876 130.696 566.204 130.696 565.223V560.887H129.112V559.543H130.696V557.719L132.088 557.303V559.543H134.216ZM140.615 558.087C140.349 558.087 140.125 557.996 139.943 557.815C139.762 557.633 139.671 557.415 139.671 557.159C139.671 556.903 139.762 556.684 139.943 556.503C140.125 556.311 140.349 556.215 140.615 556.215C140.871 556.215 141.09 556.311 141.271 556.503C141.453 556.684 141.543 556.903 141.543 557.159C141.543 557.415 141.453 557.633 141.271 557.815C141.09 557.996 140.871 558.087 140.615 558.087ZM141.303 567.543H139.911V559.543H141.303V567.543ZM147.411 559.335C148.35 559.335 149.102 559.633 149.667 560.231C150.232 560.817 150.515 561.617 150.515 562.631V567.543H149.123V562.711C149.123 562.071 148.947 561.569 148.595 561.207C148.243 560.844 147.758 560.663 147.139 560.663C146.424 560.663 145.859 560.887 145.443 561.335C145.027 561.772 144.819 562.428 144.819 563.303V567.543H143.427V559.543H144.819V560.695C145.374 559.788 146.238 559.335 147.411 559.335ZM156.81 559.543V560.887H154.682V565.223C154.682 565.617 154.757 565.9 154.906 566.071C155.066 566.231 155.306 566.316 155.626 566.327C155.946 566.327 156.341 566.316 156.81 566.295V567.543C155.583 567.703 154.687 567.601 154.122 567.239C153.567 566.876 153.29 566.204 153.29 565.223V560.887H151.706V559.543H153.29V557.719L154.682 557.303V559.543H156.81ZM165.732 564.183H159.028C159.167 564.887 159.492 565.441 160.004 565.847C160.516 566.241 161.156 566.439 161.924 566.439C162.98 566.439 163.748 566.049 164.228 565.271L165.412 565.943C164.623 567.148 163.449 567.751 161.892 567.751C160.633 567.751 159.599 567.356 158.788 566.567C157.999 565.756 157.604 564.748 157.604 563.543C157.604 562.327 157.993 561.324 158.772 560.535C159.551 559.735 160.559 559.335 161.796 559.335C162.969 559.335 163.924 559.751 164.66 560.583C165.407 561.393 165.78 562.385 165.78 563.559C165.78 563.761 165.764 563.969 165.732 564.183ZM161.796 560.647C161.06 560.647 160.441 560.855 159.94 561.271C159.449 561.687 159.145 562.252 159.028 562.967H164.372C164.255 562.231 163.961 561.66 163.492 561.255C163.023 560.849 162.457 560.647 161.796 560.647ZM174.004 560.919V559.543H175.38V567.207C175.38 568.391 174.98 569.308 174.18 569.959C173.37 570.62 172.41 570.951 171.3 570.951C170.404 570.951 169.631 570.78 168.98 570.439C168.33 570.108 167.839 569.628 167.508 568.999L168.724 568.311C169.162 569.207 170.031 569.655 171.332 569.655C172.164 569.655 172.815 569.436 173.284 568.999C173.764 568.561 174.004 567.964 174.004 567.207V566.071C173.3 567.137 172.298 567.671 170.996 567.671C169.844 567.671 168.879 567.265 168.1 566.455C167.311 565.633 166.916 564.647 166.916 563.495C166.916 562.343 167.311 561.361 168.1 560.551C168.879 559.74 169.844 559.335 170.996 559.335C172.308 559.335 173.311 559.863 174.004 560.919ZM174.004 563.495C174.004 562.695 173.732 562.023 173.188 561.479C172.644 560.935 171.967 560.663 171.156 560.663C170.346 560.663 169.668 560.935 169.124 561.479C168.58 562.023 168.308 562.695 168.308 563.495C168.308 564.305 168.58 564.983 169.124 565.527C169.668 566.071 170.346 566.343 171.156 566.343C171.967 566.343 172.644 566.071 173.188 565.527C173.732 564.983 174.004 564.305 174.004 563.495ZM178.881 559.543V560.887C179.34 559.895 180.172 559.399 181.377 559.399V560.855C180.695 560.823 180.108 561.004 179.617 561.399C179.127 561.793 178.881 562.428 178.881 563.303V567.543H177.489V559.543H178.881ZM188.926 560.919V559.543H190.318V567.543H188.926V566.167C188.243 567.223 187.235 567.751 185.902 567.751C184.771 567.751 183.817 567.345 183.038 566.535C182.249 565.713 181.854 564.716 181.854 563.543C181.854 562.38 182.249 561.388 183.038 560.567C183.827 559.745 184.782 559.335 185.902 559.335C187.235 559.335 188.243 559.863 188.926 560.919ZM186.078 566.407C186.889 566.407 187.566 566.135 188.11 565.591C188.654 565.025 188.926 564.343 188.926 563.543C188.926 562.732 188.654 562.055 188.11 561.511C187.566 560.956 186.889 560.679 186.078 560.679C185.278 560.679 184.606 560.956 184.062 561.511C183.518 562.055 183.246 562.732 183.246 563.543C183.246 564.343 183.518 565.025 184.062 565.591C184.606 566.135 185.278 566.407 186.078 566.407ZM196.779 559.543V560.887H194.651V565.223C194.651 565.617 194.726 565.9 194.875 566.071C195.035 566.231 195.275 566.316 195.595 566.327C195.915 566.327 196.31 566.316 196.779 566.295V567.543C195.552 567.703 194.656 567.601 194.091 567.239C193.536 566.876 193.259 566.204 193.259 565.223V560.887H191.675V559.543H193.259V557.719L194.651 557.303V559.543H196.779ZM199.131 558.087C198.864 558.087 198.64 557.996 198.459 557.815C198.278 557.633 198.187 557.415 198.187 557.159C198.187 556.903 198.278 556.684 198.459 556.503C198.64 556.311 198.864 556.215 199.131 556.215C199.387 556.215 199.606 556.311 199.787 556.503C199.968 556.684 200.059 556.903 200.059 557.159C200.059 557.415 199.968 557.633 199.787 557.815C199.606 557.996 199.387 558.087 199.131 558.087ZM199.819 567.543H198.427V559.543H199.819V567.543ZM205.926 559.335C206.865 559.335 207.617 559.633 208.182 560.231C208.748 560.817 209.03 561.617 209.03 562.631V567.543H207.638V562.711C207.638 562.071 207.462 561.569 207.11 561.207C206.758 560.844 206.273 560.663 205.654 560.663C204.94 560.663 204.374 560.887 203.958 561.335C203.542 561.772 203.334 562.428 203.334 563.303V567.543H201.942V559.543H203.334V560.695C203.889 559.788 204.753 559.335 205.926 559.335ZM217.614 560.919V559.543H218.99V567.207C218.99 568.391 218.59 569.308 217.79 569.959C216.979 570.62 216.019 570.951 214.91 570.951C214.014 570.951 213.24 570.78 212.59 570.439C211.939 570.108 211.448 569.628 211.118 568.999L212.334 568.311C212.771 569.207 213.64 569.655 214.942 569.655C215.774 569.655 216.424 569.436 216.894 568.999C217.374 568.561 217.614 567.964 217.614 567.207V566.071C216.91 567.137 215.907 567.671 214.606 567.671C213.454 567.671 212.488 567.265 211.71 566.455C210.92 565.633 210.526 564.647 210.526 563.495C210.526 562.343 210.92 561.361 211.71 560.551C212.488 559.74 213.454 559.335 214.606 559.335C215.918 559.335 216.92 559.863 217.614 560.919ZM217.614 563.495C217.614 562.695 217.342 562.023 216.798 561.479C216.254 560.935 215.576 560.663 214.766 560.663C213.955 560.663 213.278 560.935 212.734 561.479C212.19 562.023 211.918 562.695 211.918 563.495C211.918 564.305 212.19 564.983 212.734 565.527C213.278 566.071 213.955 566.343 214.766 566.343C215.576 566.343 216.254 566.071 216.798 565.527C217.342 564.983 217.614 564.305 217.614 563.495ZM229.083 559.335C230.021 559.335 230.773 559.633 231.339 560.231C231.904 560.817 232.187 561.617 232.187 562.631V567.543H230.795V562.711C230.795 562.071 230.619 561.569 230.267 561.207C229.915 560.844 229.429 560.663 228.811 560.663C228.096 560.663 227.531 560.887 227.115 561.335C226.699 561.772 226.491 562.428 226.491 563.303V567.543H225.099V559.543H226.491V560.695C227.045 559.788 227.909 559.335 229.083 559.335ZM241.81 564.183H235.106C235.245 564.887 235.57 565.441 236.082 565.847C236.594 566.241 237.234 566.439 238.002 566.439C239.058 566.439 239.826 566.049 240.306 565.271L241.49 565.943C240.701 567.148 239.527 567.751 237.97 567.751C236.711 567.751 235.677 567.356 234.866 566.567C234.077 565.756 233.682 564.748 233.682 563.543C233.682 562.327 234.071 561.324 234.85 560.535C235.629 559.735 236.637 559.335 237.874 559.335C239.047 559.335 240.002 559.751 240.738 560.583C241.485 561.393 241.858 562.385 241.858 563.559C241.858 563.761 241.842 563.969 241.81 564.183ZM237.874 560.647C237.138 560.647 236.519 560.855 236.018 561.271C235.527 561.687 235.223 562.252 235.106 562.967H240.45C240.333 562.231 240.039 561.66 239.57 561.255C239.101 560.849 238.535 560.647 237.874 560.647ZM250.81 565.639L252.57 559.543H254.026L251.546 567.543H250.122L248.25 561.623L246.378 567.543H244.954L242.474 559.543H243.93L245.69 565.623L247.578 559.543H248.922L250.81 565.639ZM260.162 558.087C259.895 558.087 259.671 557.996 259.49 557.815C259.309 557.633 259.218 557.415 259.218 557.159C259.218 556.903 259.309 556.684 259.49 556.503C259.671 556.311 259.895 556.215 260.162 556.215C260.418 556.215 260.637 556.311 260.818 556.503C260.999 556.684 261.09 556.903 261.09 557.159C261.09 557.415 260.999 557.633 260.818 557.815C260.637 557.996 260.418 558.087 260.162 558.087ZM260.85 567.543H259.458V559.543H260.85V567.543ZM266.958 559.335C267.896 559.335 268.648 559.633 269.214 560.231C269.779 560.817 270.062 561.617 270.062 562.631V567.543H268.67V562.711C268.67 562.071 268.494 561.569 268.142 561.207C267.79 560.844 267.304 560.663 266.686 560.663C265.971 560.663 265.406 560.887 264.99 561.335C264.574 561.772 264.366 562.428 264.366 563.303V567.543H262.974V559.543H264.366V560.695C264.92 559.788 265.784 559.335 266.958 559.335ZM276.357 559.543V560.887H274.229V565.223C274.229 565.617 274.304 565.9 274.453 566.071C274.613 566.231 274.853 566.316 275.173 566.327C275.493 566.327 275.888 566.316 276.357 566.295V567.543C275.13 567.703 274.234 567.601 273.669 567.239C273.114 566.876 272.837 566.204 272.837 565.223V560.887H271.253V559.543H272.837V557.719L274.229 557.303V559.543H276.357ZM285.279 564.183H278.575C278.713 564.887 279.039 565.441 279.551 565.847C280.063 566.241 280.703 566.439 281.471 566.439C282.527 566.439 283.295 566.049 283.775 565.271L284.959 565.943C284.169 567.148 282.996 567.751 281.439 567.751C280.18 567.751 279.145 567.356 278.335 566.567C277.545 565.756 277.151 564.748 277.151 563.543C277.151 562.327 277.54 561.324 278.319 560.535C279.097 559.735 280.105 559.335 281.343 559.335C282.516 559.335 283.471 559.751 284.207 560.583C284.953 561.393 285.327 562.385 285.327 563.559C285.327 563.761 285.311 563.969 285.279 564.183ZM281.343 560.647C280.607 560.647 279.988 560.855 279.487 561.271C278.996 561.687 278.692 562.252 278.575 562.967H283.919C283.801 562.231 283.508 561.66 283.039 561.255C282.569 560.849 282.004 560.647 281.343 560.647ZM293.551 560.919V559.543H294.927V567.207C294.927 568.391 294.527 569.308 293.727 569.959C292.917 570.62 291.957 570.951 290.847 570.951C289.951 570.951 289.178 570.78 288.527 570.439C287.877 570.108 287.386 569.628 287.055 568.999L288.271 568.311C288.709 569.207 289.578 569.655 290.879 569.655C291.711 569.655 292.362 569.436 292.831 568.999C293.311 568.561 293.551 567.964 293.551 567.207V566.071C292.847 567.137 291.845 567.671 290.543 567.671C289.391 567.671 288.426 567.265 287.647 566.455C286.858 565.633 286.463 564.647 286.463 563.495C286.463 562.343 286.858 561.361 287.647 560.551C288.426 559.74 289.391 559.335 290.543 559.335C291.855 559.335 292.858 559.863 293.551 560.919ZM293.551 563.495C293.551 562.695 293.279 562.023 292.735 561.479C292.191 560.935 291.514 560.663 290.703 560.663C289.893 560.663 289.215 560.935 288.671 561.479C288.127 562.023 287.855 562.695 287.855 563.495C287.855 564.305 288.127 564.983 288.671 565.527C289.215 566.071 289.893 566.343 290.703 566.343C291.514 566.343 292.191 566.071 292.735 565.527C293.279 564.983 293.551 564.305 293.551 563.495ZM298.428 559.543V560.887C298.887 559.895 299.719 559.399 300.924 559.399V560.855C300.242 560.823 299.655 561.004 299.164 561.399C298.674 561.793 298.428 562.428 298.428 563.303V567.543H297.036V559.543H298.428ZM308.473 560.919V559.543H309.865V567.543H308.473V566.167C307.79 567.223 306.782 567.751 305.449 567.751C304.318 567.751 303.363 567.345 302.585 566.535C301.795 565.713 301.401 564.716 301.401 563.543C301.401 562.38 301.795 561.388 302.585 560.567C303.374 559.745 304.329 559.335 305.449 559.335C306.782 559.335 307.79 559.863 308.473 560.919ZM305.625 566.407C306.435 566.407 307.113 566.135 307.657 565.591C308.201 565.025 308.473 564.343 308.473 563.543C308.473 562.732 308.201 562.055 307.657 561.511C307.113 560.956 306.435 560.679 305.625 560.679C304.825 560.679 304.153 560.956 303.609 561.511C303.065 562.055 302.793 562.732 302.793 563.543C302.793 564.343 303.065 565.025 303.609 565.591C304.153 566.135 304.825 566.407 305.625 566.407ZM316.326 559.543V560.887H314.198V565.223C314.198 565.617 314.272 565.9 314.422 566.071C314.582 566.231 314.822 566.316 315.142 566.327C315.462 566.327 315.856 566.316 316.326 566.295V567.543C315.099 567.703 314.203 567.601 313.638 567.239C313.083 566.876 312.806 566.204 312.806 565.223V560.887H311.222V559.543H312.806V557.719L314.198 557.303V559.543H316.326ZM318.678 558.087C318.411 558.087 318.187 557.996 318.006 557.815C317.824 557.633 317.734 557.415 317.734 557.159C317.734 556.903 317.824 556.684 318.006 556.503C318.187 556.311 318.411 556.215 318.678 556.215C318.934 556.215 319.152 556.311 319.334 556.503C319.515 556.684 319.606 556.903 319.606 557.159C319.606 557.415 319.515 557.633 319.334 557.815C319.152 557.996 318.934 558.087 318.678 558.087ZM319.366 567.543H317.974V559.543H319.366V567.543ZM328.241 566.535C327.431 567.345 326.433 567.751 325.249 567.751C324.065 567.751 323.068 567.345 322.257 566.535C321.447 565.724 321.041 564.727 321.041 563.543C321.041 562.359 321.447 561.361 322.257 560.551C323.068 559.74 324.065 559.335 325.249 559.335C326.433 559.335 327.431 559.74 328.241 560.551C329.063 561.372 329.473 562.369 329.473 563.543C329.473 564.716 329.063 565.713 328.241 566.535ZM325.249 566.391C326.049 566.391 326.721 566.119 327.265 565.575C327.809 565.031 328.081 564.353 328.081 563.543C328.081 562.732 327.809 562.055 327.265 561.511C326.721 560.967 326.049 560.695 325.249 560.695C324.46 560.695 323.793 560.967 323.249 561.511C322.705 562.055 322.433 562.732 322.433 563.543C322.433 564.353 322.705 565.031 323.249 565.575C323.793 566.119 324.46 566.391 325.249 566.391ZM335.098 559.335C336.037 559.335 336.789 559.633 337.354 560.231C337.92 560.817 338.202 561.617 338.202 562.631V567.543H336.81V562.711C336.81 562.071 336.634 561.569 336.282 561.207C335.93 560.844 335.445 560.663 334.826 560.663C334.112 560.663 333.546 560.887 333.13 561.335C332.714 561.772 332.506 562.428 332.506 563.303V567.543H331.114V559.543H332.506V560.695C333.061 559.788 333.925 559.335 335.098 559.335ZM341.346 561.703C341.346 562.215 341.874 562.615 342.93 562.903C343.324 562.988 343.655 563.079 343.922 563.175C344.199 563.26 344.498 563.393 344.818 563.575C345.148 563.756 345.399 563.996 345.57 564.295C345.74 564.593 345.826 564.945 345.826 565.351C345.826 566.076 345.543 566.657 344.978 567.095C344.412 567.532 343.698 567.751 342.834 567.751C342.066 567.751 341.399 567.585 340.834 567.255C340.279 566.913 339.884 566.455 339.65 565.879L340.85 565.191C340.978 565.575 341.218 565.879 341.57 566.103C341.922 566.327 342.343 566.439 342.834 566.439C343.314 566.439 343.698 566.348 343.986 566.167C344.274 565.985 344.418 565.713 344.418 565.351C344.418 564.807 343.89 564.412 342.834 564.167C342.482 564.071 342.215 563.996 342.034 563.943C341.852 563.889 341.602 563.793 341.282 563.655C340.972 563.516 340.738 563.372 340.578 563.223C340.418 563.063 340.268 562.855 340.13 562.599C340.002 562.332 339.938 562.039 339.938 561.719C339.938 561.025 340.204 560.455 340.738 560.007C341.282 559.559 341.959 559.335 342.77 559.335C343.42 559.335 343.996 559.484 344.498 559.783C345.01 560.071 345.394 560.476 345.65 560.999L344.482 561.655C344.194 560.972 343.623 560.631 342.77 560.631C342.364 560.631 342.023 560.727 341.746 560.919C341.479 561.111 341.346 561.372 341.346 561.703ZM355.826 559.543V560.887H353.698V565.223C353.698 565.617 353.772 565.9 353.922 566.071C354.082 566.231 354.322 566.316 354.642 566.327C354.962 566.327 355.356 566.316 355.826 566.295V567.543C354.599 567.703 353.703 567.601 353.138 567.239C352.583 566.876 352.306 566.204 352.306 565.223V560.887H350.722V559.543H352.306V557.719L353.698 557.303V559.543H355.826ZM363.819 566.535C363.009 567.345 362.011 567.751 360.827 567.751C359.643 567.751 358.646 567.345 357.835 566.535C357.025 565.724 356.619 564.727 356.619 563.543C356.619 562.359 357.025 561.361 357.835 560.551C358.646 559.74 359.643 559.335 360.827 559.335C362.011 559.335 363.009 559.74 363.819 560.551C364.641 561.372 365.051 562.369 365.051 563.543C365.051 564.716 364.641 565.713 363.819 566.535ZM360.827 566.391C361.627 566.391 362.299 566.119 362.843 565.575C363.387 565.031 363.659 564.353 363.659 563.543C363.659 562.732 363.387 562.055 362.843 561.511C362.299 560.967 361.627 560.695 360.827 560.695C360.038 560.695 359.371 560.967 358.827 561.511C358.283 562.055 358.011 562.732 358.011 563.543C358.011 564.353 358.283 565.031 358.827 565.575C359.371 566.119 360.038 566.391 360.827 566.391ZM373.508 563.415L377.46 567.543H375.732L372.084 563.751V567.543H370.692V556.343H372.084V563.079L375.54 559.543H377.332L373.508 563.415ZM385.701 564.183H378.997C379.135 564.887 379.461 565.441 379.973 565.847C380.485 566.241 381.125 566.439 381.893 566.439C382.949 566.439 383.717 566.049 384.197 565.271L385.381 565.943C384.591 567.148 383.418 567.751 381.861 567.751C380.602 567.751 379.567 567.356 378.757 566.567C377.967 565.756 377.573 564.748 377.573 563.543C377.573 562.327 377.962 561.324 378.741 560.535C379.519 559.735 380.527 559.335 381.765 559.335C382.938 559.335 383.893 559.751 384.629 560.583C385.375 561.393 385.749 562.385 385.749 563.559C385.749 563.761 385.733 563.969 385.701 564.183ZM381.765 560.647C381.029 560.647 380.41 560.855 379.909 561.271C379.418 561.687 379.114 562.252 378.997 562.967H384.341C384.223 562.231 383.93 561.66 383.461 561.255C382.991 560.849 382.426 560.647 381.765 560.647ZM395.013 564.183H388.309C388.448 564.887 388.773 565.441 389.285 565.847C389.797 566.241 390.437 566.439 391.205 566.439C392.261 566.439 393.029 566.049 393.509 565.271L394.693 565.943C393.904 567.148 392.73 567.751 391.173 567.751C389.914 567.751 388.88 567.356 388.069 566.567C387.28 565.756 386.885 564.748 386.885 563.543C386.885 562.327 387.274 561.324 388.053 560.535C388.832 559.735 389.84 559.335 391.077 559.335C392.25 559.335 393.205 559.751 393.941 560.583C394.688 561.393 395.061 562.385 395.061 563.559C395.061 563.761 395.045 563.969 395.013 564.183ZM391.077 560.647C390.341 560.647 389.722 560.855 389.221 561.271C388.73 561.687 388.426 562.252 388.309 562.967H393.653C393.536 562.231 393.242 561.66 392.773 561.255C392.304 560.849 391.738 560.647 391.077 560.647ZM401.077 559.335C402.197 559.335 403.152 559.745 403.941 560.567C404.731 561.388 405.125 562.38 405.125 563.543C405.125 564.716 404.731 565.713 403.941 566.535C403.163 567.345 402.208 567.751 401.077 567.751C399.755 567.751 398.747 567.223 398.053 566.167V570.743H396.661V559.543H398.053V560.919C398.747 559.863 399.755 559.335 401.077 559.335ZM400.901 566.407C401.701 566.407 402.373 566.135 402.917 565.591C403.461 565.025 403.733 564.343 403.733 563.543C403.733 562.732 403.461 562.055 402.917 561.511C402.373 560.956 401.701 560.679 400.901 560.679C400.091 560.679 399.413 560.956 398.869 561.511C398.325 562.055 398.053 562.732 398.053 563.543C398.053 564.343 398.325 565.025 398.869 565.591C399.413 566.135 400.091 566.407 400.901 566.407ZM417.41 560.919V559.543H418.802V567.543H417.41V566.167C416.728 567.223 415.72 567.751 414.386 567.751C413.256 567.751 412.301 567.345 411.522 566.535C410.733 565.713 410.338 564.716 410.338 563.543C410.338 562.38 410.733 561.388 411.522 560.567C412.312 559.745 413.266 559.335 414.386 559.335C415.72 559.335 416.728 559.863 417.41 560.919ZM414.562 566.407C415.373 566.407 416.05 566.135 416.594 565.591C417.138 565.025 417.41 564.343 417.41 563.543C417.41 562.732 417.138 562.055 416.594 561.511C416.05 560.956 415.373 560.679 414.562 560.679C413.762 560.679 413.09 560.956 412.546 561.511C412.002 562.055 411.73 562.732 411.73 563.543C411.73 564.343 412.002 565.025 412.546 565.591C413.09 566.135 413.762 566.407 414.562 566.407ZM429.263 559.543V560.887H427.135V565.223C427.135 565.617 427.21 565.9 427.359 566.071C427.519 566.231 427.759 566.316 428.079 566.327C428.399 566.327 428.794 566.316 429.263 566.295V567.543C428.037 567.703 427.141 567.601 426.575 567.239C426.021 566.876 425.743 566.204 425.743 565.223V560.887H424.159V559.543H425.743V557.719L427.135 557.303V559.543H429.263ZM432.35 559.543V560.887C432.809 559.895 433.641 559.399 434.846 559.399V560.855C434.163 560.823 433.577 561.004 433.086 561.399C432.595 561.793 432.35 562.428 432.35 563.303V567.543H430.958V559.543H432.35ZM442.395 560.919V559.543H443.787V567.543H442.395V566.167C441.712 567.223 440.704 567.751 439.371 567.751C438.24 567.751 437.285 567.345 436.507 566.535C435.717 565.713 435.323 564.716 435.323 563.543C435.323 562.38 435.717 561.388 436.507 560.567C437.296 559.745 438.251 559.335 439.371 559.335C440.704 559.335 441.712 559.863 442.395 560.919ZM439.547 566.407C440.357 566.407 441.035 566.135 441.579 565.591C442.123 565.025 442.395 564.343 442.395 563.543C442.395 562.732 442.123 562.055 441.579 561.511C441.035 560.956 440.357 560.679 439.547 560.679C438.747 560.679 438.075 560.956 437.531 561.511C436.987 562.055 436.715 562.732 436.715 563.543C436.715 564.343 436.987 565.025 437.531 565.591C438.075 566.135 438.747 566.407 439.547 566.407ZM449.656 567.751C448.45 567.751 447.448 567.351 446.648 566.551C445.848 565.74 445.448 564.737 445.448 563.543C445.448 562.348 445.848 561.351 446.648 560.551C447.448 559.74 448.45 559.335 449.656 559.335C450.445 559.335 451.154 559.527 451.784 559.911C452.413 560.284 452.882 560.791 453.192 561.431L452.024 562.103C451.821 561.676 451.506 561.335 451.08 561.079C450.664 560.823 450.189 560.695 449.656 560.695C448.856 560.695 448.184 560.967 447.64 561.511C447.106 562.065 446.84 562.743 446.84 563.543C446.84 564.332 447.106 565.004 447.64 565.559C448.184 566.103 448.856 566.375 449.656 566.375C450.189 566.375 450.669 566.252 451.096 566.007C451.522 565.751 451.848 565.409 452.072 564.983L453.256 565.671C452.904 566.311 452.408 566.817 451.768 567.191C451.128 567.564 450.424 567.751 449.656 567.751ZM457.446 563.415L461.398 567.543H459.67L456.022 563.751V567.543H454.63V556.343H456.022V563.079L459.478 559.543H461.27L457.446 563.415ZM163.171 585.535C162.36 586.345 161.363 586.751 160.179 586.751C158.995 586.751 157.998 586.345 157.187 585.535C156.376 584.724 155.971 583.727 155.971 582.543C155.971 581.359 156.376 580.361 157.187 579.551C157.998 578.74 158.995 578.335 160.179 578.335C161.363 578.335 162.36 578.74 163.171 579.551C163.992 580.372 164.403 581.369 164.403 582.543C164.403 583.716 163.992 584.713 163.171 585.535ZM160.179 585.391C160.979 585.391 161.651 585.119 162.195 584.575C162.739 584.031 163.011 583.353 163.011 582.543C163.011 581.732 162.739 581.055 162.195 580.511C161.651 579.967 160.979 579.695 160.179 579.695C159.39 579.695 158.723 579.967 158.179 580.511C157.635 581.055 157.363 581.732 157.363 582.543C157.363 583.353 157.635 584.031 158.179 584.575C158.723 585.119 159.39 585.391 160.179 585.391ZM169.859 575.135V576.479C168.451 576.361 167.747 576.969 167.747 578.303V578.543H169.859V579.887H167.747V586.543H166.355V579.887H165.075V578.543H166.355V578.303C166.355 577.215 166.659 576.399 167.267 575.855C167.875 575.3 168.739 575.06 169.859 575.135ZM181.543 579.919V578.543H182.935V586.543H181.543V585.167C180.86 586.223 179.852 586.751 178.519 586.751C177.388 586.751 176.434 586.345 175.655 585.535C174.866 584.713 174.471 583.716 174.471 582.543C174.471 581.38 174.866 580.388 175.655 579.567C176.444 578.745 177.399 578.335 178.519 578.335C179.852 578.335 180.86 578.863 181.543 579.919ZM178.695 585.407C179.506 585.407 180.183 585.135 180.727 584.591C181.271 584.025 181.543 583.343 181.543 582.543C181.543 581.732 181.271 581.055 180.727 580.511C180.183 579.956 179.506 579.679 178.695 579.679C177.895 579.679 177.223 579.956 176.679 580.511C176.135 581.055 175.863 581.732 175.863 582.543C175.863 583.343 176.135 584.025 176.679 584.591C177.223 585.135 177.895 585.407 178.695 585.407ZM186.436 586.543H185.044V574.863H186.436V586.543ZM189.952 586.543H188.56V574.863H189.952V586.543ZM200.427 578.543V579.887H198.299V584.223C198.299 584.617 198.374 584.9 198.523 585.071C198.683 585.231 198.923 585.316 199.243 585.327C199.563 585.327 199.958 585.316 200.427 585.295V586.543C199.201 586.703 198.305 586.601 197.739 586.239C197.185 585.876 196.907 585.204 196.907 584.223V579.887H195.323V578.543H196.907V576.719L198.299 576.303V578.543H200.427ZM206.059 578.335C206.998 578.335 207.75 578.633 208.315 579.231C208.881 579.817 209.163 580.617 209.163 581.631V586.543H207.771V581.711C207.771 581.071 207.595 580.569 207.243 580.207C206.891 579.844 206.406 579.663 205.787 579.663C205.073 579.663 204.507 579.887 204.091 580.335C203.675 580.772 203.467 581.428 203.467 582.303V586.543H202.075V575.343H203.467V579.695C204.022 578.788 204.886 578.335 206.059 578.335ZM218.787 583.183H212.083C212.221 583.887 212.547 584.441 213.059 584.847C213.571 585.241 214.211 585.439 214.979 585.439C216.035 585.439 216.803 585.049 217.283 584.271L218.467 584.943C217.677 586.148 216.504 586.751 214.947 586.751C213.688 586.751 212.653 586.356 211.843 585.567C211.053 584.756 210.659 583.748 210.659 582.543C210.659 581.327 211.048 580.324 211.827 579.535C212.605 578.735 213.613 578.335 214.851 578.335C216.024 578.335 216.979 578.751 217.715 579.583C218.461 580.393 218.835 581.385 218.835 582.559C218.835 582.761 218.819 582.969 218.787 583.183ZM214.851 579.647C214.115 579.647 213.496 579.855 212.995 580.271C212.504 580.687 212.2 581.252 212.083 581.967H217.427C217.309 581.231 217.016 580.66 216.547 580.255C216.077 579.849 215.512 579.647 214.851 579.647ZM225.139 577.087C224.872 577.087 224.648 576.996 224.467 576.815C224.285 576.633 224.195 576.415 224.195 576.159C224.195 575.903 224.285 575.684 224.467 575.503C224.648 575.311 224.872 575.215 225.139 575.215C225.395 575.215 225.613 575.311 225.795 575.503C225.976 575.684 226.067 575.903 226.067 576.159C226.067 576.415 225.976 576.633 225.795 576.815C225.613 576.996 225.395 577.087 225.139 577.087ZM225.827 586.543H224.435V578.543H225.827V586.543ZM231.934 578.335C232.873 578.335 233.625 578.633 234.19 579.231C234.756 579.817 235.038 580.617 235.038 581.631V586.543H233.646V581.711C233.646 581.071 233.47 580.569 233.118 580.207C232.766 579.844 232.281 579.663 231.662 579.663C230.948 579.663 230.382 579.887 229.966 580.335C229.55 580.772 229.342 581.428 229.342 582.303V586.543H227.95V578.543H229.342V579.695C229.897 578.788 230.761 578.335 231.934 578.335ZM239.96 585.055L242.472 578.543H243.976L240.776 586.543H239.144L235.944 578.543H237.448L239.96 585.055ZM251.593 585.535C250.782 586.345 249.785 586.751 248.601 586.751C247.417 586.751 246.42 586.345 245.609 585.535C244.798 584.724 244.393 583.727 244.393 582.543C244.393 581.359 244.798 580.361 245.609 579.551C246.42 578.74 247.417 578.335 248.601 578.335C249.785 578.335 250.782 578.74 251.593 579.551C252.414 580.372 252.825 581.369 252.825 582.543C252.825 583.716 252.414 584.713 251.593 585.535ZM248.601 585.391C249.401 585.391 250.073 585.119 250.617 584.575C251.161 584.031 251.433 583.353 251.433 582.543C251.433 581.732 251.161 581.055 250.617 580.511C250.073 579.967 249.401 579.695 248.601 579.695C247.812 579.695 247.145 579.967 246.601 580.511C246.057 581.055 245.785 581.732 245.785 582.543C245.785 583.353 246.057 584.031 246.601 584.575C247.145 585.119 247.812 585.391 248.601 585.391ZM255.17 577.087C254.903 577.087 254.679 576.996 254.498 576.815C254.317 576.633 254.226 576.415 254.226 576.159C254.226 575.903 254.317 575.684 254.498 575.503C254.679 575.311 254.903 575.215 255.17 575.215C255.426 575.215 255.645 575.311 255.826 575.503C256.007 575.684 256.098 575.903 256.098 576.159C256.098 576.415 256.007 576.633 255.826 576.815C255.645 576.996 255.426 577.087 255.17 577.087ZM255.858 586.543H254.466V578.543H255.858V586.543ZM261.742 586.751C260.536 586.751 259.534 586.351 258.734 585.551C257.934 584.74 257.534 583.737 257.534 582.543C257.534 581.348 257.934 580.351 258.734 579.551C259.534 578.74 260.536 578.335 261.742 578.335C262.531 578.335 263.24 578.527 263.87 578.911C264.499 579.284 264.968 579.791 265.278 580.431L264.11 581.103C263.907 580.676 263.592 580.335 263.166 580.079C262.75 579.823 262.275 579.695 261.742 579.695C260.942 579.695 260.27 579.967 259.726 580.511C259.192 581.065 258.926 581.743 258.926 582.543C258.926 583.332 259.192 584.004 259.726 584.559C260.27 585.103 260.942 585.375 261.742 585.375C262.275 585.375 262.755 585.252 263.182 585.007C263.608 584.751 263.934 584.409 264.158 583.983L265.342 584.671C264.99 585.311 264.494 585.817 263.854 586.191C263.214 586.564 262.51 586.751 261.742 586.751ZM274.287 583.183H267.583C267.721 583.887 268.047 584.441 268.559 584.847C269.071 585.241 269.711 585.439 270.479 585.439C271.535 585.439 272.303 585.049 272.783 584.271L273.967 584.943C273.177 586.148 272.004 586.751 270.447 586.751C269.188 586.751 268.153 586.356 267.343 585.567C266.553 584.756 266.159 583.748 266.159 582.543C266.159 581.327 266.548 580.324 267.327 579.535C268.105 578.735 269.113 578.335 270.351 578.335C271.524 578.335 272.479 578.751 273.215 579.583C273.961 580.393 274.335 581.385 274.335 582.559C274.335 582.761 274.319 582.969 274.287 583.183ZM270.351 579.647C269.615 579.647 268.996 579.855 268.495 580.271C268.004 580.687 267.7 581.252 267.583 581.967H272.927C272.809 581.231 272.516 580.66 272.047 580.255C271.577 579.849 271.012 579.647 270.351 579.647ZM286.559 579.919V578.543H287.951V586.543H286.559V585.167C285.876 586.223 284.868 586.751 283.535 586.751C282.404 586.751 281.449 586.345 280.671 585.535C279.881 584.713 279.487 583.716 279.487 582.543C279.487 581.38 279.881 580.388 280.671 579.567C281.46 578.745 282.415 578.335 283.535 578.335C284.868 578.335 285.876 578.863 286.559 579.919ZM283.711 585.407C284.521 585.407 285.199 585.135 285.743 584.591C286.287 584.025 286.559 583.343 286.559 582.543C286.559 581.732 286.287 581.055 285.743 580.511C285.199 579.956 284.521 579.679 283.711 579.679C282.911 579.679 282.239 579.956 281.695 580.511C281.151 581.055 280.879 581.732 280.879 582.543C280.879 583.343 281.151 584.025 281.695 584.591C282.239 585.135 282.911 585.407 283.711 585.407ZM294.412 578.543V579.887H292.284V584.223C292.284 584.617 292.358 584.9 292.508 585.071C292.668 585.231 292.908 585.316 293.228 585.327C293.548 585.327 293.942 585.316 294.412 585.295V586.543C293.185 586.703 292.289 586.601 291.724 586.239C291.169 585.876 290.892 585.204 290.892 584.223V579.887H289.308V578.543H290.892V576.719L292.284 576.303V578.543H294.412ZM306.731 579.919V578.543H308.123V586.543H306.731V585.167C306.048 586.223 305.04 586.751 303.707 586.751C302.576 586.751 301.621 586.345 300.843 585.535C300.053 584.713 299.659 583.716 299.659 582.543C299.659 581.38 300.053 580.388 300.843 579.567C301.632 578.745 302.587 578.335 303.707 578.335C305.04 578.335 306.048 578.863 306.731 579.919ZM303.883 585.407C304.693 585.407 305.371 585.135 305.915 584.591C306.459 584.025 306.731 583.343 306.731 582.543C306.731 581.732 306.459 581.055 305.915 580.511C305.371 579.956 304.693 579.679 303.883 579.679C303.083 579.679 302.411 579.956 301.867 580.511C301.323 581.055 301.051 581.732 301.051 582.543C301.051 583.343 301.323 584.025 301.867 584.591C302.411 585.135 303.083 585.407 303.883 585.407ZM315.432 580.703C315.432 581.215 315.96 581.615 317.016 581.903C317.41 581.988 317.741 582.079 318.008 582.175C318.285 582.26 318.584 582.393 318.904 582.575C319.234 582.756 319.485 582.996 319.656 583.295C319.826 583.593 319.912 583.945 319.912 584.351C319.912 585.076 319.629 585.657 319.064 586.095C318.498 586.532 317.784 586.751 316.92 586.751C316.152 586.751 315.485 586.585 314.92 586.255C314.365 585.913 313.97 585.455 313.736 584.879L314.936 584.191C315.064 584.575 315.304 584.879 315.656 585.103C316.008 585.327 316.429 585.439 316.92 585.439C317.4 585.439 317.784 585.348 318.072 585.167C318.36 584.985 318.504 584.713 318.504 584.351C318.504 583.807 317.976 583.412 316.92 583.167C316.568 583.071 316.301 582.996 316.12 582.943C315.938 582.889 315.688 582.793 315.368 582.655C315.058 582.516 314.824 582.372 314.664 582.223C314.504 582.063 314.354 581.855 314.216 581.599C314.088 581.332 314.024 581.039 314.024 580.719C314.024 580.025 314.29 579.455 314.824 579.007C315.368 578.559 316.045 578.335 316.856 578.335C317.506 578.335 318.082 578.484 318.584 578.783C319.096 579.071 319.48 579.476 319.736 579.999L318.568 580.655C318.28 579.972 317.709 579.631 316.856 579.631C316.45 579.631 316.109 579.727 315.832 579.919C315.565 580.111 315.432 580.372 315.432 580.703ZM322.186 577.087C321.919 577.087 321.695 576.996 321.514 576.815C321.332 576.633 321.242 576.415 321.242 576.159C321.242 575.903 321.332 575.684 321.514 575.503C321.695 575.311 321.919 575.215 322.186 575.215C322.442 575.215 322.66 575.311 322.842 575.503C323.023 575.684 323.114 575.903 323.114 576.159C323.114 576.415 323.023 576.633 322.842 576.815C322.66 576.996 322.442 577.087 322.186 577.087ZM322.874 586.543H321.482V578.543H322.874V586.543ZM328.981 578.335C329.92 578.335 330.672 578.633 331.237 579.231C331.802 579.817 332.085 580.617 332.085 581.631V586.543H330.693V581.711C330.693 581.071 330.517 580.569 330.165 580.207C329.813 579.844 329.328 579.663 328.709 579.663C327.994 579.663 327.429 579.887 327.013 580.335C326.597 580.772 326.389 581.428 326.389 582.303V586.543H324.997V578.543H326.389V579.695C326.944 578.788 327.808 578.335 328.981 578.335ZM340.668 579.919V578.543H342.044V586.207C342.044 587.391 341.644 588.308 340.844 588.959C340.034 589.62 339.074 589.951 337.964 589.951C337.068 589.951 336.295 589.78 335.644 589.439C334.994 589.108 334.503 588.628 334.172 587.999L335.388 587.311C335.826 588.207 336.695 588.655 337.996 588.655C338.828 588.655 339.479 588.436 339.948 587.999C340.428 587.561 340.668 586.964 340.668 586.207V585.071C339.964 586.137 338.962 586.671 337.66 586.671C336.508 586.671 335.543 586.265 334.764 585.455C333.975 584.633 333.58 583.647 333.58 582.495C333.58 581.343 333.975 580.361 334.764 579.551C335.543 578.74 336.508 578.335 337.66 578.335C338.972 578.335 339.975 578.863 340.668 579.919ZM340.668 582.495C340.668 581.695 340.396 581.023 339.852 580.479C339.308 579.935 338.631 579.663 337.82 579.663C337.01 579.663 336.332 579.935 335.788 580.479C335.244 581.023 334.972 581.695 334.972 582.495C334.972 583.305 335.244 583.983 335.788 584.527C336.332 585.071 337.01 585.343 337.82 585.343C338.631 585.343 339.308 585.071 339.852 584.527C340.396 583.983 340.668 583.305 340.668 582.495ZM345.545 586.543H344.153V574.863H345.545V586.543ZM355.349 583.183H348.645C348.784 583.887 349.109 584.441 349.621 584.847C350.133 585.241 350.773 585.439 351.541 585.439C352.597 585.439 353.365 585.049 353.845 584.271L355.029 584.943C354.24 586.148 353.066 586.751 351.509 586.751C350.25 586.751 349.216 586.356 348.405 585.567C347.616 584.756 347.221 583.748 347.221 582.543C347.221 581.327 347.61 580.324 348.389 579.535C349.168 578.735 350.176 578.335 351.413 578.335C352.586 578.335 353.541 578.751 354.277 579.583C355.024 580.393 355.397 581.385 355.397 582.559C355.397 582.761 355.381 582.969 355.349 583.183ZM351.413 579.647C350.677 579.647 350.058 579.855 349.557 580.271C349.066 580.687 348.762 581.252 348.645 581.967H353.989C353.872 581.231 353.578 580.66 353.109 580.255C352.64 579.849 352.074 579.647 351.413 579.647ZM365.413 578.335C366.533 578.335 367.488 578.745 368.277 579.567C369.066 580.388 369.461 581.38 369.461 582.543C369.461 583.716 369.066 584.713 368.277 585.535C367.498 586.345 366.544 586.751 365.413 586.751C364.09 586.751 363.082 586.223 362.389 585.167V589.743H360.997V578.543H362.389V579.919C363.082 578.863 364.09 578.335 365.413 578.335ZM365.237 585.407C366.037 585.407 366.709 585.135 367.253 584.591C367.797 584.025 368.069 583.343 368.069 582.543C368.069 581.732 367.797 581.055 367.253 580.511C366.709 579.956 366.037 579.679 365.237 579.679C364.426 579.679 363.749 579.956 363.205 580.511C362.661 581.055 362.389 581.732 362.389 582.543C362.389 583.343 362.661 584.025 363.205 584.591C363.749 585.135 364.426 585.407 365.237 585.407ZM372.514 586.543H371.122V574.863H372.514V586.543ZM381.262 579.919V578.543H382.654V586.543H381.262V585.167C380.579 586.223 379.571 586.751 378.238 586.751C377.107 586.751 376.152 586.345 375.374 585.535C374.584 584.713 374.19 583.716 374.19 582.543C374.19 581.38 374.584 580.388 375.374 579.567C376.163 578.745 377.118 578.335 378.238 578.335C379.571 578.335 380.579 578.863 381.262 579.919ZM378.414 585.407C379.224 585.407 379.902 585.135 380.446 584.591C380.99 584.025 381.262 583.343 381.262 582.543C381.262 581.732 380.99 581.055 380.446 580.511C379.902 579.956 379.224 579.679 378.414 579.679C377.614 579.679 376.942 579.956 376.398 580.511C375.854 581.055 375.582 581.732 375.582 582.543C375.582 583.343 375.854 584.025 376.398 584.591C376.942 585.135 377.614 585.407 378.414 585.407ZM388.523 586.751C387.317 586.751 386.315 586.351 385.515 585.551C384.715 584.74 384.315 583.737 384.315 582.543C384.315 581.348 384.715 580.351 385.515 579.551C386.315 578.74 387.317 578.335 388.523 578.335C389.312 578.335 390.021 578.527 390.651 578.911C391.28 579.284 391.749 579.791 392.059 580.431L390.891 581.103C390.688 580.676 390.373 580.335 389.947 580.079C389.531 579.823 389.056 579.695 388.523 579.695C387.723 579.695 387.051 579.967 386.507 580.511C385.973 581.065 385.707 581.743 385.707 582.543C385.707 583.332 385.973 584.004 386.507 584.559C387.051 585.103 387.723 585.375 388.523 585.375C389.056 585.375 389.536 585.252 389.963 585.007C390.389 584.751 390.715 584.409 390.939 583.983L392.123 584.671C391.771 585.311 391.275 585.817 390.635 586.191C389.995 586.564 389.291 586.751 388.523 586.751ZM401.068 583.183H394.364C394.502 583.887 394.828 584.441 395.34 584.847C395.852 585.241 396.492 585.439 397.26 585.439C398.316 585.439 399.084 585.049 399.564 584.271L400.748 584.943C399.958 586.148 398.785 586.751 397.228 586.751C395.969 586.751 394.934 586.356 394.124 585.567C393.334 584.756 392.94 583.748 392.94 582.543C392.94 581.327 393.329 580.324 394.108 579.535C394.886 578.735 395.894 578.335 397.132 578.335C398.305 578.335 399.26 578.751 399.996 579.583C400.742 580.393 401.116 581.385 401.116 582.559C401.116 582.761 401.1 582.969 401.068 583.183ZM397.132 579.647C396.396 579.647 395.777 579.855 395.276 580.271C394.785 580.687 394.481 581.252 394.364 581.967H399.708C399.59 581.231 399.297 580.66 398.828 580.255C398.358 579.849 397.793 579.647 397.132 579.647ZM402.955 586.719C402.667 586.719 402.422 586.617 402.219 586.415C402.017 586.212 401.915 585.967 401.915 585.679C401.915 585.391 402.017 585.145 402.219 584.943C402.422 584.74 402.667 584.639 402.955 584.639C403.254 584.639 403.499 584.74 403.691 584.943C403.894 585.145 403.995 585.391 403.995 585.679C403.995 585.967 403.894 586.212 403.691 586.415C403.499 586.617 403.254 586.719 402.955 586.719Z" fill="#7F7F7F"/>
<path d="M283.891 229.917C281.858 229.917 280.211 234.82 280.211 240.869H283.891C285.664 240.869 286.551 240.869 287.1 240.257C287.649 239.644 287.554 238.838 287.362 237.225C286.858 232.968 285.494 229.917 283.891 229.917Z" stroke="black" stroke-width="2.73817"/>
<path d="M280.211 240.968V260.303C280.211 263.062 280.211 264.442 279.367 264.985C277.989 265.873 275.859 264.011 274.787 263.336C273.902 262.777 273.46 262.498 272.968 262.482C272.437 262.464 271.987 262.732 271.03 263.336L267.542 265.535C266.601 266.129 266.131 266.425 265.607 266.425C265.083 266.425 264.613 266.129 263.672 265.535L260.184 263.336C259.299 262.777 258.856 262.498 258.365 262.482C257.834 262.464 257.383 262.732 256.427 263.336C255.355 264.011 253.225 265.873 251.847 264.985C251.003 264.442 251.003 263.062 251.003 260.303V240.968C251.003 235.758 251.003 233.153 252.607 231.535C254.211 229.917 256.793 229.917 261.956 229.917H283.862" fill="black"/>
<path d="M280.211 240.968V260.303C280.211 263.062 280.211 264.442 279.367 264.985C277.989 265.873 275.859 264.011 274.787 263.336C273.902 262.777 273.46 262.498 272.968 262.482C272.437 262.464 271.987 262.732 271.03 263.336L267.542 265.535C266.601 266.129 266.131 266.425 265.607 266.425C265.083 266.425 264.613 266.129 263.672 265.535L260.184 263.336C259.299 262.777 258.856 262.498 258.365 262.482C257.834 262.464 257.383 262.732 256.427 263.336C255.355 264.011 253.225 265.873 251.847 264.985C251.003 264.442 251.003 263.062 251.003 260.303V240.968C251.003 235.758 251.003 233.153 252.607 231.535C254.211 229.917 256.793 229.917 261.956 229.917H283.862" stroke="black" stroke-width="2.73817" stroke-linecap="round" stroke-linejoin="round"/>
<path d="M265.607 240.869C263.591 240.869 261.956 242.095 261.956 243.607C261.956 245.12 263.591 246.346 265.607 246.346C267.623 246.346 269.258 247.572 269.258 249.084C269.258 250.596 267.623 251.822 265.607 251.822M265.607 240.869C267.197 240.869 268.549 241.631 269.05 242.695M265.607 240.869V239.044M265.607 251.822C264.017 251.822 262.665 251.06 262.164 249.996M265.607 251.822V253.647" stroke="white" stroke-width="2.73817" stroke-linecap="round"/>
<defs>
<linearGradient id="paint0_linear_2155_3274" x1="268.228" y1="97.7915" x2="268.228" y2="395.13" gradientUnits="userSpaceOnUse">
<stop offset="0.605" stop-color="#EEEEEE"/>
<stop offset="1" stop-color="white"/>
</linearGradient>
<linearGradient id="paint1_linear_2155_3274" x1="268.229" y1="54.5729" x2="268.229" y2="438.35" gradientUnits="userSpaceOnUse">
<stop offset="0.605" stop-color="#EEEEEE"/>
<stop offset="1" stop-color="white"/>
</linearGradient>
<linearGradient id="paint2_linear_2155_3274" x1="268.228" y1="14.3796" x2="268.228" y2="478.543" gradientUnits="userSpaceOnUse">
<stop offset="0.605" stop-color="#EEEEEE"/>
<stop offset="1" stop-color="white"/>
</linearGradient>
<clipPath id="clip0_2155_3274">
<rect width="21.2499" height="21.2499" fill="white" transform="translate(415.214 129.785)"/>
</clipPath>
<clipPath id="clip1_2155_3274">
<rect width="16.8042" height="16.8042" fill="white" transform="translate(46.4373 153.486)"/>
</clipPath>
<clipPath id="clip2_2155_3274">
<rect width="19.6283" height="19.6283" fill="white" transform="translate(495.684 230.302)"/>
</clipPath>
</defs>
</svg>
