<svg width="510" height="487" viewBox="0 0 510 487" fill="none" xmlns="http://www.w3.org/2000/svg">
<path d="M302.781 232.998C302.781 265.176 276.694 291.262 244.514 291.262C212.334 291.262 186.248 265.176 186.248 232.998C186.248 200.82 212.334 174.734 244.514 174.734C276.694 174.734 302.781 200.82 302.781 232.998Z" stroke="#EEEEEE" stroke-width="2"/>
<path d="M343.263 232.998C343.263 287.533 299.052 331.743 244.514 331.743C189.976 331.743 145.765 287.533 145.765 232.998C145.765 178.463 189.976 134.253 244.514 134.253C299.052 134.253 343.263 178.463 343.263 232.998Z" stroke="#EEEEEE" stroke-width="2"/>
<path d="M392.191 232.998C392.191 314.553 326.074 380.667 244.514 380.667C162.955 380.667 96.8381 314.553 96.8381 232.998C96.8381 151.442 162.955 85.3282 244.514 85.3282C326.074 85.3282 392.191 151.442 392.191 232.998Z" stroke="url(#paint0_linear_6043_5252)" stroke-width="2"/>
<path d="M435.412 232.998C435.412 338.423 349.945 423.886 244.515 423.886C139.086 423.886 53.6182 338.423 53.6182 232.998C53.6182 127.573 139.086 42.1096 244.515 42.1096C349.945 42.1096 435.412 127.573 435.412 232.998Z" stroke="url(#paint1_linear_6043_5252)" stroke-width="2"/>
<path d="M475.607 232.998C475.607 360.621 372.144 464.079 244.515 464.079C116.886 464.079 13.4231 360.621 13.4231 232.998C13.4231 105.375 116.886 1.91635 244.515 1.91635C372.144 1.91635 475.607 105.375 475.607 232.998Z" stroke="url(#paint2_linear_6043_5252)" stroke-width="2"/>
<rect x="58.4333" y="295.031" width="37.4049" height="37.7117" rx="7.73649" fill="#F1F1F1"/>
<path d="M69.167 311.231C69.167 308.726 69.167 307.474 69.945 306.696C70.723 305.918 71.9751 305.918 74.4795 305.918H79.7919C82.2962 305.918 83.5484 305.918 84.3264 306.696C85.1044 307.474 85.1044 308.726 85.1044 311.231V315.658C85.1044 317.327 85.1044 318.162 84.5857 318.681C84.0671 319.199 83.2323 319.199 81.5628 319.199H72.7086C71.0391 319.199 70.2043 319.199 69.6857 318.681C69.167 318.162 69.167 317.327 69.167 315.658V311.231Z" stroke="#707072" stroke-width="1.32812"/>
<path d="M85.9905 321.856H68.2822" stroke="#707072" stroke-width="1.32812" stroke-linecap="round"/>
<path d="M79.7922 316.543H74.4797" stroke="#707072" stroke-width="1.32812" stroke-linecap="round"/>
<rect x="115.438" y="9.10739" width="37.4049" height="37.7117" rx="7.73649" fill="#F1F1F1"/>
<path d="M126.171 25.307C126.171 22.8027 126.171 21.5505 126.949 20.7725C127.727 19.9945 128.979 19.9945 131.484 19.9945H136.796C139.3 19.9945 140.553 19.9945 141.331 20.7725C142.109 21.5505 142.109 22.8027 142.109 25.307V29.734C142.109 31.4036 142.109 32.2383 141.59 32.757C141.071 33.2757 140.236 33.2757 138.567 33.2757H129.713C128.043 33.2757 127.208 33.2757 126.69 32.757C126.171 32.2383 126.171 31.4036 126.171 29.734V25.307Z" stroke="#707072" stroke-width="1.32812"/>
<path d="M142.995 35.9319H125.286" stroke="#707072" stroke-width="1.32812" stroke-linecap="round"/>
<path d="M136.796 30.6194H131.484" stroke="#707072" stroke-width="1.32812" stroke-linecap="round"/>
<rect x="393.271" y="303.262" width="37.4049" height="37.7117" rx="7.73649" fill="#F1F1F1"/>
<path d="M414.629 328.316L416.4 330.086L419.942 326.545M412.858 314.149H408.608C407.617 314.149 407.121 314.149 406.742 314.342C406.409 314.512 406.138 314.783 405.968 315.116C405.775 315.495 405.775 315.991 405.775 316.982V327.253C405.775 328.245 405.775 328.741 405.968 329.12C406.138 329.453 406.409 329.724 406.742 329.893C407.121 330.086 407.617 330.086 408.608 330.086H411.973M412.858 314.149L418.171 319.462M412.858 314.149V318.045C412.858 318.541 412.858 318.789 412.955 318.978C413.04 319.145 413.175 319.28 413.342 319.365C413.531 319.462 413.779 319.462 414.275 319.462H418.171M418.171 319.462V323.446" stroke="#707072" stroke-width="1.77082" stroke-linecap="round" stroke-linejoin="round"/>
<rect x="344.263" y="11.7636" width="37.4049" height="37.7117" rx="7.73649" fill="#F1F1F1"/>
<path d="M365.621 36.8174L367.392 38.5882L370.934 35.0466M363.851 22.6508H359.601C358.609 22.6508 358.113 22.6508 357.734 22.8438C357.401 23.0136 357.13 23.2845 356.96 23.6177C356.767 23.9965 356.767 24.4924 356.767 25.4841V35.7549C356.767 36.7467 356.767 37.2426 356.96 37.6214C357.13 37.9545 357.401 38.2255 357.734 38.3952C358.113 38.5882 358.609 38.5882 359.601 38.5882H362.965M363.851 22.6508L369.163 27.9633M363.851 22.6508V26.5466C363.851 27.0425 363.851 27.2904 363.947 27.4798C364.032 27.6464 364.167 27.7819 364.334 27.8668C364.523 27.9633 364.771 27.9633 365.267 27.9633H369.163M369.163 27.9633V31.9476" stroke="#707072" stroke-width="1.77082" stroke-linecap="round" stroke-linejoin="round"/>
<rect x="144.765" y="154.878" width="37.4049" height="37.7117" rx="7.73649" fill="#F1F1F1"/>
<path d="M171.232 168.08C171.232 168.559 171.042 169.018 170.704 169.356C170.365 169.695 169.907 169.885 169.428 169.886H168.862V179.276C168.862 179.754 168.672 180.213 168.333 180.551C167.995 180.889 167.537 181.079 167.058 181.08H157.506C157.269 181.08 157.034 181.033 156.815 180.942C156.596 180.852 156.398 180.719 156.23 180.551C156.062 180.384 155.929 180.185 155.839 179.966C155.748 179.747 155.701 179.512 155.701 179.275C155.701 179.038 155.748 178.804 155.839 178.585C155.929 178.366 156.062 178.167 156.23 177.999C156.398 177.832 156.596 177.699 156.815 177.608C157.034 177.517 157.269 177.471 157.506 177.471H158.071V168.08C158.071 167.602 158.261 167.142 158.599 166.804C158.938 166.465 159.397 166.275 159.876 166.274H169.427C169.906 166.275 170.365 166.465 170.703 166.803C171.042 167.142 171.232 167.601 171.232 168.079V168.08ZM157.506 179.841H165.343C165.222 179.474 165.222 179.078 165.343 178.711H157.508C157.358 178.711 157.215 178.77 157.109 178.876C157.003 178.982 156.943 179.126 156.943 179.276C156.943 179.426 157.003 179.569 157.109 179.675C157.215 179.781 157.358 179.841 157.508 179.841H157.506ZM167.622 168.08C167.622 167.889 167.652 167.698 167.712 167.516H159.877C159.751 167.515 159.629 167.558 159.53 167.635L159.528 167.636C159.461 167.689 159.406 167.756 159.368 167.833C159.331 167.91 159.312 167.995 159.312 168.08V177.471H166.4C166.554 177.469 166.705 177.52 166.826 177.614C166.948 177.709 167.034 177.843 167.071 177.993C167.113 178.137 167.109 178.29 167.058 178.431C167.008 178.572 166.914 178.694 166.79 178.778C166.702 178.826 166.629 178.896 166.577 178.981C166.525 179.066 166.497 179.163 166.495 179.263C166.493 179.363 166.517 179.461 166.566 179.548C166.614 179.636 166.685 179.708 166.77 179.759C166.856 179.811 166.953 179.838 167.053 179.839C167.153 179.84 167.251 179.815 167.338 179.766C167.425 179.717 167.497 179.646 167.547 179.559C167.597 179.473 167.624 179.375 167.624 179.276L167.622 168.08ZM166.66 169.689H160.218V170.927H166.66V169.689ZM166.66 172.216H160.218V173.454H166.66V172.216ZM166.66 174.744H160.218V175.983H166.66V174.744ZM169.992 168.08C169.992 167.931 169.932 167.787 169.826 167.681C169.72 167.576 169.577 167.516 169.427 167.516C169.301 167.515 169.179 167.557 169.08 167.635H169.078C169.01 167.688 168.956 167.755 168.918 167.833C168.88 167.91 168.861 167.995 168.861 168.08V168.645H169.427C169.577 168.645 169.72 168.585 169.826 168.48C169.932 168.374 169.992 168.23 169.992 168.08Z" fill="#707072"/>
<rect x="383.423" y="108.091" width="37.4049" height="37.7117" rx="7.73649" fill="#F1F1F1"/>
<g clip-path="url(#clip0_6043_5252)">
<path d="M406.303 133.811L405.736 129.274C405.57 127.944 404.44 126.947 403.1 126.947H402.125H401.149C399.81 126.947 398.68 127.944 398.514 129.274L397.947 133.811C397.814 134.867 398.639 135.801 399.704 135.801H402.125H404.546C405.611 135.801 406.435 134.867 406.303 133.811Z" stroke="#707072" stroke-width="1.77082" stroke-linecap="round" stroke-linejoin="round"/>
<path d="M402.124 123.405C403.591 123.405 404.78 122.216 404.78 120.749C404.78 119.282 403.591 118.093 402.124 118.093C400.657 118.093 399.468 119.282 399.468 120.749C399.468 122.216 400.657 123.405 402.124 123.405Z" stroke="#707072" stroke-width="1.77082"/>
<path d="M395.041 126.062C396.019 126.062 396.812 125.269 396.812 124.291C396.812 123.313 396.019 122.52 395.041 122.52C394.063 122.52 393.271 123.313 393.271 124.291C393.271 125.269 394.063 126.062 395.041 126.062Z" stroke="#707072" stroke-width="1.77082"/>
<path d="M409.208 126.062C410.186 126.062 410.979 125.269 410.979 124.291C410.979 123.313 410.186 122.52 409.208 122.52C408.23 122.52 407.437 123.313 407.437 124.291C407.437 125.269 408.23 126.062 409.208 126.062Z" stroke="#707072" stroke-width="1.77082"/>
<path d="M395.041 128.718H394.77C393.905 128.718 393.166 129.344 393.024 130.198L392.728 131.968C392.548 133.048 393.381 134.03 394.475 134.03H397.697" stroke="#707072" stroke-width="1.77082" stroke-linecap="round" stroke-linejoin="round"/>
<path d="M409.208 128.718H409.479C410.344 128.718 411.083 129.344 411.225 130.198L411.521 131.968C411.7 133.048 410.868 134.03 409.774 134.03C408.745 134.03 407.521 134.03 406.552 134.03" stroke="#707072" stroke-width="1.77082" stroke-linecap="round" stroke-linejoin="round"/>
</g>
<rect x="194.859" y="306.537" width="37.4049" height="37.7117" rx="7.73649" fill="#F1F1F1"/>
<path d="M213.562 329.82V333.362M210.02 333.362H217.103M208.426 329.82H218.697C219.689 329.82 220.185 329.82 220.564 329.627C220.897 329.457 221.168 329.186 221.337 328.853C221.53 328.475 221.53 327.979 221.53 326.987V320.258C221.53 319.266 221.53 318.77 221.337 318.391C221.168 318.058 220.897 317.787 220.564 317.617C220.185 317.424 219.689 317.424 218.697 317.424H208.426C207.435 317.424 206.939 317.424 206.56 317.617C206.227 317.787 205.956 318.058 205.786 318.391C205.593 318.77 205.593 319.266 205.593 320.258V326.987C205.593 327.979 205.593 328.475 205.786 328.853C205.956 329.186 206.227 329.457 206.56 329.627C206.939 329.82 207.435 329.82 208.426 329.82Z" stroke="#707072" stroke-width="1.77082" stroke-linecap="round"/>
<rect x="325.561" y="195.286" width="37.4049" height="37.7117" rx="7.73649" fill="#F1F1F1"/>
<path fill-rule="evenodd" clip-rule="evenodd" d="M335.922 208.929C335.922 207.202 337.323 205.801 339.05 205.801H344.263H349.476C351.203 205.801 352.604 207.202 352.604 208.929V214.142V219.355C352.604 221.082 351.203 222.483 349.476 222.483H344.263H339.05C337.323 222.483 335.922 221.082 335.922 219.355V214.142V208.929ZM339.05 207.886C338.474 207.886 338.008 208.353 338.008 208.929V213.099H343.22V207.886H339.05ZM345.306 207.886V213.099H350.519V208.929C350.519 208.353 350.052 207.886 349.476 207.886H345.306ZM350.519 215.184H345.306V220.397H349.476C350.052 220.397 350.519 219.931 350.519 219.355V215.184ZM343.22 220.397V215.184H338.008V219.355C338.008 219.931 338.474 220.397 339.05 220.397H343.22Z" fill="#707072"/>
<rect x="224.187" y="70.3794" width="37.4049" height="37.7117" rx="7.73649" fill="#F1F1F1"/>
<path fill-rule="evenodd" clip-rule="evenodd" d="M234.548 84.0221C234.548 82.2947 235.949 80.8944 237.676 80.8944H242.889H248.102C249.829 80.8944 251.23 82.2947 251.23 84.0221V89.2351V94.448C251.23 96.1755 249.829 97.5758 248.102 97.5758H242.889H237.676C235.949 97.5758 234.548 96.1755 234.548 94.448V89.2351V84.0221ZM237.676 82.9796C237.1 82.9796 236.634 83.4463 236.634 84.0221V88.1925H241.846V82.9796H237.676ZM243.932 82.9796V88.1925H249.145V84.0221C249.145 83.4463 248.678 82.9796 248.102 82.9796H243.932ZM249.145 90.2777H243.932V95.4906H248.102C248.678 95.4906 249.145 95.0238 249.145 94.448V90.2777ZM241.846 95.4906V90.2777H236.634V94.448C236.634 95.0238 237.1 95.4906 237.676 95.4906H241.846Z" fill="#707072"/>
<rect x="12.4231" y="129.569" width="37.4049" height="37.7117" rx="7.73649" fill="#F1F1F1"/>
<g clip-path="url(#clip1_6043_5252)">
<path fill-rule="evenodd" clip-rule="evenodd" d="M36.8313 150.852L28.7569 156.311C26.7894 157.641 24.1245 156.244 24.1245 153.884V142.966C24.1245 140.605 26.7894 139.208 28.7569 140.539L36.8313 145.997C38.5565 147.164 38.5565 149.686 36.8313 150.852Z" fill="#707072"/>
</g>
<path d="M183.094 407.24V394.063H186.284V413.482H183.787L174.633 400.305V413.482H171.442V394.063H173.939L183.094 407.24ZM201.703 411.734C200.298 413.14 198.569 413.843 196.516 413.843C194.463 413.843 192.734 413.14 191.328 411.734C189.904 410.31 189.192 408.581 189.192 406.547C189.192 404.512 189.904 402.783 191.328 401.359C192.734 399.953 194.463 399.25 196.516 399.25C198.569 399.25 200.298 399.953 201.703 401.359C203.128 402.783 203.84 404.512 203.84 406.547C203.84 408.581 203.128 410.31 201.703 411.734ZM192.188 406.547C192.188 407.804 192.604 408.849 193.436 409.681C194.269 410.514 195.295 410.93 196.516 410.93C197.736 410.93 198.763 410.514 199.595 409.681C200.427 408.849 200.843 407.804 200.843 406.547C200.843 405.289 200.427 404.244 199.595 403.412C198.763 402.579 197.736 402.163 196.516 402.163C195.295 402.163 194.269 402.579 193.436 403.412C192.604 404.244 192.188 405.289 192.188 406.547ZM225.219 411.734C223.814 413.14 222.084 413.843 220.031 413.843C217.979 413.843 216.249 413.14 214.844 411.734C213.42 410.31 212.708 408.581 212.708 406.547C212.708 404.512 213.42 402.783 214.844 401.359C216.249 399.953 217.979 399.25 220.031 399.25C222.084 399.25 223.814 399.953 225.219 401.359C226.643 402.783 227.355 404.512 227.355 406.547C227.355 408.581 226.643 410.31 225.219 411.734ZM215.704 406.547C215.704 407.804 216.12 408.849 216.952 409.681C217.784 410.514 218.811 410.93 220.031 410.93C221.252 410.93 222.279 410.514 223.111 409.681C223.943 408.849 224.359 407.804 224.359 406.547C224.359 405.289 223.943 404.244 223.111 403.412C222.279 402.579 221.252 402.163 220.031 402.163C218.811 402.163 217.784 402.579 216.952 403.412C216.12 404.244 215.704 405.289 215.704 406.547ZM233.061 399.611V401.941C233.819 400.221 235.243 399.361 237.333 399.361V402.607C236.205 402.533 235.206 402.811 234.337 403.439C233.486 404.05 233.061 405.067 233.061 406.491V413.482H230.065V399.611H233.061ZM249.882 401.581V394.063H252.879V413.482H249.882V411.485C248.754 413.057 247.136 413.843 245.028 413.843C243.123 413.843 241.495 413.14 240.145 411.734C238.795 410.329 238.12 408.599 238.12 406.547C238.12 404.494 238.795 402.764 240.145 401.359C241.495 399.953 243.123 399.25 245.028 399.25C247.136 399.25 248.754 400.027 249.882 401.581ZM242.364 409.737C243.197 410.569 244.242 410.985 245.499 410.985C246.757 410.985 247.802 410.569 248.634 409.737C249.466 408.886 249.882 407.823 249.882 406.547C249.882 405.27 249.466 404.216 248.634 403.384C247.802 402.533 246.757 402.108 245.499 402.108C244.242 402.108 243.197 402.533 242.364 403.384C241.532 404.216 241.116 405.27 241.116 406.547C241.116 407.804 241.532 408.868 242.364 409.737ZM269.77 407.823H258.729C258.951 408.858 259.45 409.663 260.227 410.236C261.022 410.81 262.003 411.096 263.168 411.096C264.74 411.096 265.933 410.523 266.746 409.376L269.216 410.819C267.865 412.835 265.84 413.843 263.14 413.843C260.902 413.843 259.08 413.158 257.675 411.79C256.288 410.403 255.594 408.655 255.594 406.547C255.594 404.494 256.278 402.764 257.647 401.359C258.997 399.953 260.754 399.25 262.918 399.25C264.934 399.25 266.599 399.962 267.912 401.387C269.225 402.811 269.881 404.54 269.881 406.574C269.881 406.944 269.844 407.36 269.77 407.823ZM258.701 405.381H266.857C266.654 404.29 266.192 403.449 265.47 402.857C264.768 402.265 263.908 401.969 262.89 401.969C261.781 401.969 260.856 402.274 260.116 402.885C259.376 403.495 258.905 404.327 258.701 405.381ZM275.514 399.611V401.941C276.272 400.221 277.696 399.361 279.786 399.361V402.607C278.658 402.533 277.659 402.811 276.79 403.439C275.939 404.05 275.514 405.067 275.514 406.491V413.482H272.518V399.611H275.514ZM284.203 403.439C284.203 403.865 284.425 404.216 284.869 404.494C285.313 404.753 285.96 405.002 286.811 405.243C287.458 405.391 288.022 405.548 288.503 405.714C288.984 405.881 289.493 406.13 290.029 406.463C290.565 406.778 290.972 407.203 291.25 407.739C291.546 408.257 291.684 408.868 291.666 409.57C291.666 410.902 291.148 411.947 290.112 412.705C289.077 413.464 287.791 413.843 286.256 413.843C284.888 413.843 283.713 413.556 282.733 412.983C281.753 412.409 281.041 411.614 280.597 410.597L283.177 409.099C283.639 410.43 284.666 411.096 286.256 411.096C287.828 411.096 288.614 410.578 288.614 409.543C288.614 408.784 287.736 408.193 285.979 407.767C285.313 407.601 284.749 407.434 284.286 407.268C283.843 407.101 283.343 406.861 282.788 406.547C282.252 406.232 281.836 405.816 281.54 405.298C281.263 404.78 281.133 404.179 281.152 403.495C281.152 402.219 281.632 401.192 282.594 400.416C283.574 399.639 284.786 399.25 286.228 399.25C287.375 399.25 288.392 399.509 289.28 400.027C290.186 400.526 290.88 401.229 291.361 402.136L288.836 403.55C288.374 402.496 287.505 401.969 286.228 401.969C285.637 401.969 285.146 402.099 284.758 402.357C284.388 402.616 284.203 402.977 284.203 403.439ZM307.033 409.681L310.584 399.611H313.775L308.448 413.926C307.116 417.514 304.86 419.215 301.679 419.031V416.229C302.604 416.284 303.353 416.09 303.926 415.646C304.499 415.202 304.98 414.49 305.369 413.51L305.507 413.232L299.626 399.611H302.9L307.033 409.681ZM328.506 407.823H317.464C317.686 408.858 318.186 409.663 318.962 410.236C319.758 410.81 320.738 411.096 321.903 411.096C323.475 411.096 324.668 410.523 325.482 409.376L327.951 410.819C326.601 412.835 324.576 413.843 321.875 413.843C319.637 413.843 317.816 413.158 316.41 411.79C315.023 410.403 314.329 408.655 314.329 406.547C314.329 404.494 315.014 402.764 316.382 401.359C317.732 399.953 319.489 399.25 321.653 399.25C323.669 399.25 325.334 399.962 326.647 401.387C327.96 402.811 328.617 404.54 328.617 406.574C328.617 406.944 328.58 407.36 328.506 407.823ZM317.437 405.381H325.593C325.389 404.29 324.927 403.449 324.206 402.857C323.503 402.265 322.643 401.969 321.626 401.969C320.516 401.969 319.591 402.274 318.851 402.885C318.112 403.495 317.64 404.327 317.437 405.381ZM338.56 399.611V402.496H335.12V409.154C335.12 409.728 335.249 410.144 335.508 410.403C335.767 410.643 336.146 410.782 336.645 410.819C337.163 410.837 337.801 410.828 338.56 410.791V413.482C336.266 413.76 334.62 413.565 333.622 412.9C332.623 412.215 332.123 410.967 332.123 409.154V402.496H329.571V399.611H332.123V396.615L335.12 395.727V399.611H338.56Z" fill="black"/>
<rect x="463.083" y="207.797" width="37.4049" height="37.7117" rx="7.73649" fill="#F1F1F1"/>
<g clip-path="url(#clip2_6043_5252)">
<path d="M486.999 216.839H476.571C476.164 216.839 475.774 217.001 475.487 217.288C475.199 217.576 475.038 217.966 475.038 218.372V234.934C475.038 235.341 475.199 235.731 475.487 236.018C475.774 236.306 476.164 236.467 476.571 236.467H486.999C487.405 236.467 487.795 236.306 488.083 236.018C488.371 235.731 488.532 235.341 488.532 234.934V218.372C488.532 217.966 488.371 217.576 488.083 217.288C487.795 217.001 487.405 216.839 486.999 216.839ZM486.999 234.934H476.571V218.372H486.999V234.934Z" fill="#707072"/>
<path d="M481.786 233.4C482.328 233.4 482.767 232.988 482.767 232.48C482.767 231.972 482.328 231.56 481.786 231.56C481.244 231.56 480.804 231.972 480.804 232.48C480.804 232.988 481.244 233.4 481.786 233.4Z" fill="#707072"/>
</g>
<path d="M76.6993 451.231V442.879H78.1873V454.079H76.9873L71.2273 445.711V454.079H69.7393V442.879H70.9393L76.6993 451.231ZM87.1911 453.071C86.3804 453.882 85.3831 454.287 84.1991 454.287C83.0151 454.287 82.0177 453.882 81.2071 453.071C80.3964 452.261 79.9911 451.263 79.9911 450.079C79.9911 448.895 80.3964 447.898 81.2071 447.087C82.0177 446.277 83.0151 445.871 84.1991 445.871C85.3831 445.871 86.3804 446.277 87.1911 447.087C88.0124 447.909 88.4231 448.906 88.4231 450.079C88.4231 451.253 88.0124 452.25 87.1911 453.071ZM84.1991 452.927C84.9991 452.927 85.6711 452.655 86.2151 452.111C86.7591 451.567 87.0311 450.89 87.0311 450.079C87.0311 449.269 86.7591 448.591 86.2151 448.047C85.6711 447.503 84.9991 447.231 84.1991 447.231C83.4097 447.231 82.7431 447.503 82.1991 448.047C81.6551 448.591 81.3831 449.269 81.3831 450.079C81.3831 450.89 81.6551 451.567 82.1991 452.111C82.7431 452.655 83.4097 452.927 84.1991 452.927ZM100.816 453.071C100.005 453.882 99.0081 454.287 97.8241 454.287C96.6401 454.287 95.6427 453.882 94.8321 453.071C94.0214 452.261 93.6161 451.263 93.6161 450.079C93.6161 448.895 94.0214 447.898 94.8321 447.087C95.6427 446.277 96.6401 445.871 97.8241 445.871C99.0081 445.871 100.005 446.277 100.816 447.087C101.637 447.909 102.048 448.906 102.048 450.079C102.048 451.253 101.637 452.25 100.816 453.071ZM97.8241 452.927C98.6241 452.927 99.2961 452.655 99.8401 452.111C100.384 451.567 100.656 450.89 100.656 450.079C100.656 449.269 100.384 448.591 99.8401 448.047C99.2961 447.503 98.6241 447.231 97.8241 447.231C97.0347 447.231 96.3681 447.503 95.8241 448.047C95.2801 448.591 95.0081 449.269 95.0081 450.079C95.0081 450.89 95.2801 451.567 95.8241 452.111C96.3681 452.655 97.0347 452.927 97.8241 452.927ZM105.081 446.079V447.423C105.54 446.431 106.372 445.935 107.577 445.935V447.391C106.894 447.359 106.308 447.541 105.817 447.935C105.326 448.33 105.081 448.965 105.081 449.839V454.079H103.689V446.079H105.081ZM115.126 447.455V442.879H116.518V454.079H115.126V452.703C114.443 453.759 113.435 454.287 112.102 454.287C110.971 454.287 110.016 453.882 109.238 453.071C108.448 452.25 108.054 451.253 108.054 450.079C108.054 448.917 108.448 447.925 109.238 447.103C110.027 446.282 110.982 445.871 112.102 445.871C113.435 445.871 114.443 446.399 115.126 447.455ZM112.278 452.943C113.088 452.943 113.766 452.671 114.31 452.127C114.854 451.562 115.126 450.879 115.126 450.079C115.126 449.269 114.854 448.591 114.31 448.047C113.766 447.493 113.088 447.215 112.278 447.215C111.478 447.215 110.806 447.493 110.262 448.047C109.718 448.591 109.446 449.269 109.446 450.079C109.446 450.879 109.718 451.562 110.262 452.127C110.806 452.671 111.478 452.943 112.278 452.943ZM126.307 450.719H119.603C119.741 451.423 120.067 451.978 120.579 452.383C121.091 452.778 121.731 452.975 122.499 452.975C123.555 452.975 124.323 452.586 124.803 451.807L125.987 452.479C125.197 453.685 124.024 454.287 122.467 454.287C121.208 454.287 120.173 453.893 119.363 453.103C118.573 452.293 118.179 451.285 118.179 450.079C118.179 448.863 118.568 447.861 119.347 447.071C120.125 446.271 121.133 445.871 122.371 445.871C123.544 445.871 124.499 446.287 125.235 447.119C125.981 447.93 126.355 448.922 126.355 450.095C126.355 450.298 126.339 450.506 126.307 450.719ZM122.371 447.183C121.635 447.183 121.016 447.391 120.515 447.807C120.024 448.223 119.72 448.789 119.603 449.503H124.947C124.829 448.767 124.536 448.197 124.067 447.791C123.597 447.386 123.032 447.183 122.371 447.183ZM129.347 446.079V447.423C129.805 446.431 130.637 445.935 131.843 445.935V447.391C131.16 447.359 130.573 447.541 130.083 447.935C129.592 448.33 129.347 448.965 129.347 449.839V454.079H127.955V446.079H129.347ZM134.108 448.239C134.108 448.751 134.636 449.151 135.692 449.439C136.086 449.525 136.417 449.615 136.684 449.711C136.961 449.797 137.26 449.93 137.58 450.111C137.91 450.293 138.161 450.533 138.332 450.831C138.502 451.13 138.588 451.482 138.588 451.887C138.588 452.613 138.305 453.194 137.74 453.631C137.174 454.069 136.46 454.287 135.596 454.287C134.828 454.287 134.161 454.122 133.596 453.791C133.041 453.45 132.646 452.991 132.412 452.415L133.612 451.727C133.74 452.111 133.98 452.415 134.332 452.639C134.684 452.863 135.105 452.975 135.596 452.975C136.076 452.975 136.46 452.885 136.748 452.703C137.036 452.522 137.18 452.25 137.18 451.887C137.18 451.343 136.652 450.949 135.596 450.703C135.244 450.607 134.977 450.533 134.796 450.479C134.614 450.426 134.364 450.33 134.044 450.191C133.734 450.053 133.5 449.909 133.34 449.759C133.18 449.599 133.03 449.391 132.892 449.135C132.764 448.869 132.7 448.575 132.7 448.255C132.7 447.562 132.966 446.991 133.5 446.543C134.044 446.095 134.721 445.871 135.532 445.871C136.182 445.871 136.758 446.021 137.26 446.319C137.772 446.607 138.156 447.013 138.412 447.535L137.244 448.191C136.956 447.509 136.385 447.167 135.532 447.167C135.126 447.167 134.785 447.263 134.508 447.455C134.241 447.647 134.108 447.909 134.108 448.239ZM147.516 452.351L149.82 446.079H151.308L148.044 454.575C147.692 455.482 147.207 456.17 146.588 456.639C145.98 457.119 145.281 457.333 144.492 457.279V455.983C145.473 456.058 146.193 455.514 146.652 454.351L146.796 454.047L143.308 446.079H144.796L147.516 452.351ZM159.838 450.719H153.134C153.272 451.423 153.598 451.978 154.11 452.383C154.622 452.778 155.262 452.975 156.03 452.975C157.086 452.975 157.854 452.586 158.334 451.807L159.518 452.479C158.728 453.685 157.555 454.287 155.998 454.287C154.739 454.287 153.704 453.893 152.894 453.103C152.104 452.293 151.71 451.285 151.71 450.079C151.71 448.863 152.099 447.861 152.878 447.071C153.656 446.271 154.664 445.871 155.902 445.871C157.075 445.871 158.03 446.287 158.766 447.119C159.512 447.93 159.886 448.922 159.886 450.095C159.886 450.298 159.87 450.506 159.838 450.719ZM155.902 447.183C155.166 447.183 154.547 447.391 154.046 447.807C153.555 448.223 153.251 448.789 153.134 449.503H158.478C158.36 448.767 158.067 448.197 157.598 447.791C157.128 447.386 156.563 447.183 155.902 447.183ZM165.604 446.079V447.423H163.476V451.759C163.476 452.154 163.55 452.437 163.7 452.607C163.86 452.767 164.1 452.853 164.42 452.863C164.74 452.863 165.134 452.853 165.604 452.831V454.079C164.377 454.239 163.481 454.138 162.916 453.775C162.361 453.413 162.084 452.741 162.084 451.759V447.423H160.5V446.079H162.084V444.255L163.476 443.839V446.079H165.604ZM176.951 449.839H167.271V448.495H176.951V449.839ZM183.621 445.871C184.741 445.871 185.695 446.282 186.485 447.103C187.274 447.925 187.669 448.917 187.669 450.079C187.669 451.253 187.274 452.25 186.485 453.071C185.706 453.882 184.751 454.287 183.621 454.287C182.298 454.287 181.29 453.759 180.597 452.703V454.079H179.205V442.879H180.597V447.455C181.29 446.399 182.298 445.871 183.621 445.871ZM183.445 452.943C184.245 452.943 184.917 452.671 185.461 452.127C186.005 451.562 186.277 450.879 186.277 450.079C186.277 449.269 186.005 448.591 185.461 448.047C184.917 447.493 184.245 447.215 183.445 447.215C182.634 447.215 181.957 447.493 181.413 448.047C180.869 448.591 180.597 449.269 180.597 450.079C180.597 450.879 180.869 451.562 181.413 452.127C181.957 452.671 182.634 452.943 183.445 452.943ZM194.85 450.319V446.079H196.242V454.079H194.85V452.927C194.295 453.834 193.431 454.287 192.258 454.287C191.319 454.287 190.567 453.994 190.002 453.407C189.436 452.81 189.154 452.005 189.154 450.991V446.079H190.546V450.911C190.546 451.551 190.722 452.053 191.074 452.415C191.426 452.778 191.911 452.959 192.53 452.959C193.244 452.959 193.81 452.741 194.226 452.303C194.642 451.855 194.85 451.194 194.85 450.319ZM202.713 446.079V447.423H200.585V451.759C200.585 452.154 200.66 452.437 200.809 452.607C200.969 452.767 201.209 452.853 201.529 452.863C201.849 452.863 202.244 452.853 202.713 452.831V454.079C201.486 454.239 200.59 454.138 200.025 453.775C199.47 453.413 199.193 452.741 199.193 451.759V447.423H197.609V446.079H199.193V444.255L200.585 443.839V446.079H202.713ZM216.088 450.719H209.384C209.522 451.423 209.848 451.978 210.36 452.383C210.872 452.778 211.512 452.975 212.28 452.975C213.336 452.975 214.104 452.586 214.584 451.807L215.768 452.479C214.978 453.685 213.805 454.287 212.248 454.287C210.989 454.287 209.954 453.893 209.144 453.103C208.354 452.293 207.96 451.285 207.96 450.079C207.96 448.863 208.349 447.861 209.128 447.071C209.906 446.271 210.914 445.871 212.152 445.871C213.325 445.871 214.28 446.287 215.016 447.119C215.762 447.93 216.136 448.922 216.136 450.095C216.136 450.298 216.12 450.506 216.088 450.719ZM212.152 447.183C211.416 447.183 210.797 447.391 210.296 447.807C209.805 448.223 209.501 448.789 209.384 449.503H214.728C214.61 448.767 214.317 448.197 213.848 447.791C213.378 447.386 212.813 447.183 212.152 447.183ZM220.511 452.591L223.023 446.079H224.527L221.327 454.079H219.695L216.495 446.079H217.999L220.511 452.591ZM233.072 450.719H226.368C226.507 451.423 226.832 451.978 227.344 452.383C227.856 452.778 228.496 452.975 229.264 452.975C230.32 452.975 231.088 452.586 231.568 451.807L232.752 452.479C231.963 453.685 230.79 454.287 229.232 454.287C227.974 454.287 226.939 453.893 226.128 453.103C225.339 452.293 224.944 451.285 224.944 450.079C224.944 448.863 225.334 447.861 226.112 447.071C226.891 446.271 227.899 445.871 229.136 445.871C230.31 445.871 231.264 446.287 232 447.119C232.747 447.93 233.12 448.922 233.12 450.095C233.12 450.298 233.104 450.506 233.072 450.719ZM229.136 447.183C228.4 447.183 227.782 447.391 227.28 447.807C226.79 448.223 226.486 448.789 226.368 449.503H231.712C231.595 448.767 231.302 448.197 230.832 447.791C230.363 447.386 229.798 447.183 229.136 447.183ZM236.112 446.079V447.423C236.571 446.431 237.403 445.935 238.608 445.935V447.391C237.926 447.359 237.339 447.541 236.848 447.935C236.358 448.33 236.112 448.965 236.112 449.839V454.079H234.72V446.079H236.112ZM243.422 452.351L245.726 446.079H247.214L243.95 454.575C243.598 455.482 243.113 456.17 242.494 456.639C241.886 457.119 241.188 457.333 240.398 457.279V455.983C241.38 456.058 242.1 455.514 242.558 454.351L242.702 454.047L239.214 446.079H240.702L243.422 452.351ZM256.793 445.871C257.913 445.871 258.867 446.282 259.657 447.103C260.446 447.925 260.841 448.917 260.841 450.079C260.841 451.253 260.446 452.25 259.657 453.071C258.878 453.882 257.923 454.287 256.793 454.287C255.47 454.287 254.462 453.759 253.769 452.703V454.079H252.377V442.879H253.769V447.455C254.462 446.399 255.47 445.871 256.793 445.871ZM256.617 452.943C257.417 452.943 258.089 452.671 258.633 452.127C259.177 451.562 259.449 450.879 259.449 450.079C259.449 449.269 259.177 448.591 258.633 448.047C258.089 447.493 257.417 447.215 256.617 447.215C255.806 447.215 255.129 447.493 254.585 448.047C254.041 448.591 253.769 449.269 253.769 450.079C253.769 450.879 254.041 451.562 254.585 452.127C255.129 452.671 255.806 452.943 256.617 452.943ZM263.206 444.623C262.939 444.623 262.715 444.533 262.534 444.351C262.352 444.17 262.262 443.951 262.262 443.695C262.262 443.439 262.352 443.221 262.534 443.039C262.715 442.847 262.939 442.751 263.206 442.751C263.462 442.751 263.68 442.847 263.862 443.039C264.043 443.221 264.134 443.439 264.134 443.695C264.134 443.951 264.043 444.17 263.862 444.351C263.68 444.533 263.462 444.623 263.206 444.623ZM263.894 454.079H262.502V446.079H263.894V454.079ZM272.657 447.455V446.079H274.033V453.743C274.033 454.927 273.633 455.845 272.833 456.495C272.023 457.157 271.063 457.487 269.953 457.487C269.057 457.487 268.284 457.317 267.633 456.975C266.983 456.645 266.492 456.165 266.161 455.535L267.377 454.847C267.815 455.743 268.684 456.191 269.985 456.191C270.817 456.191 271.468 455.973 271.937 455.535C272.417 455.098 272.657 454.501 272.657 453.743V452.607C271.953 453.674 270.951 454.207 269.649 454.207C268.497 454.207 267.532 453.802 266.753 452.991C265.964 452.17 265.569 451.183 265.569 450.031C265.569 448.879 265.964 447.898 266.753 447.087C267.532 446.277 268.497 445.871 269.649 445.871C270.961 445.871 271.964 446.399 272.657 447.455ZM272.657 450.031C272.657 449.231 272.385 448.559 271.841 448.015C271.297 447.471 270.62 447.199 269.809 447.199C268.999 447.199 268.321 447.471 267.777 448.015C267.233 448.559 266.961 449.231 266.961 450.031C266.961 450.842 267.233 451.519 267.777 452.063C268.321 452.607 268.999 452.879 269.809 452.879C270.62 452.879 271.297 452.607 271.841 452.063C272.385 451.519 272.657 450.842 272.657 450.031ZM281.198 444.623C280.932 444.623 280.708 444.533 280.526 444.351C280.345 444.17 280.254 443.951 280.254 443.695C280.254 443.439 280.345 443.221 280.526 443.039C280.708 442.847 280.932 442.751 281.198 442.751C281.454 442.751 281.673 442.847 281.854 443.039C282.036 443.221 282.126 443.439 282.126 443.695C282.126 443.951 282.036 444.17 281.854 444.351C281.673 444.533 281.454 444.623 281.198 444.623ZM280.494 454.559V446.079H281.886V454.559C281.886 455.594 281.625 456.357 281.102 456.847C280.58 457.349 279.812 457.562 278.798 457.487V456.143C279.385 456.197 279.812 456.095 280.078 455.839C280.356 455.594 280.494 455.167 280.494 454.559ZM290.754 453.071C289.943 453.882 288.946 454.287 287.762 454.287C286.578 454.287 285.58 453.882 284.77 453.071C283.959 452.261 283.554 451.263 283.554 450.079C283.554 448.895 283.959 447.898 284.77 447.087C285.58 446.277 286.578 445.871 287.762 445.871C288.946 445.871 289.943 446.277 290.754 447.087C291.575 447.909 291.986 448.906 291.986 450.079C291.986 451.253 291.575 452.25 290.754 453.071ZM287.762 452.927C288.562 452.927 289.234 452.655 289.778 452.111C290.322 451.567 290.594 450.89 290.594 450.079C290.594 449.269 290.322 448.591 289.778 448.047C289.234 447.503 288.562 447.231 287.762 447.231C286.972 447.231 286.306 447.503 285.762 448.047C285.218 448.591 284.946 449.269 284.946 450.079C284.946 450.89 285.218 451.567 285.762 452.111C286.306 452.655 286.972 452.927 287.762 452.927ZM299.147 450.319V446.079H300.539V454.079H299.147V452.927C298.592 453.834 297.728 454.287 296.555 454.287C295.616 454.287 294.864 453.994 294.299 453.407C293.733 452.81 293.451 452.005 293.451 450.991V446.079H294.843V450.911C294.843 451.551 295.019 452.053 295.371 452.415C295.723 452.778 296.208 452.959 296.827 452.959C297.541 452.959 298.107 452.741 298.523 452.303C298.939 451.855 299.147 451.194 299.147 450.319ZM304.05 446.079V447.423C304.508 446.431 305.34 445.935 306.546 445.935V447.391C305.863 447.359 305.276 447.541 304.786 447.935C304.295 448.33 304.05 448.965 304.05 449.839V454.079H302.658V446.079H304.05ZM311.892 445.871C312.83 445.871 313.582 446.17 314.148 446.767C314.713 447.354 314.996 448.154 314.996 449.167V454.079H313.604V449.247C313.604 448.607 313.428 448.106 313.076 447.743C312.724 447.381 312.238 447.199 311.62 447.199C310.905 447.199 310.34 447.423 309.924 447.871C309.508 448.309 309.3 448.965 309.3 449.839V454.079H307.908V446.079H309.3V447.231C309.854 446.325 310.718 445.871 311.892 445.871ZM324.619 450.719H317.915C318.054 451.423 318.379 451.978 318.891 452.383C319.403 452.778 320.043 452.975 320.811 452.975C321.867 452.975 322.635 452.586 323.115 451.807L324.299 452.479C323.51 453.685 322.336 454.287 320.779 454.287C319.52 454.287 318.486 453.893 317.675 453.103C316.886 452.293 316.491 451.285 316.491 450.079C316.491 448.863 316.88 447.861 317.659 447.071C318.438 446.271 319.446 445.871 320.683 445.871C321.856 445.871 322.811 446.287 323.547 447.119C324.294 447.93 324.667 448.922 324.667 450.095C324.667 450.298 324.651 450.506 324.619 450.719ZM320.683 447.183C319.947 447.183 319.328 447.391 318.827 447.807C318.336 448.223 318.032 448.789 317.915 449.503H323.259C323.142 448.767 322.848 448.197 322.379 447.791C321.91 447.386 321.344 447.183 320.683 447.183ZM329.235 452.351L331.539 446.079H333.027L329.763 454.575C329.411 455.482 328.925 456.17 328.307 456.639C327.699 457.119 327 457.333 326.211 457.279V455.983C327.192 456.058 327.912 455.514 328.371 454.351L328.515 454.047L325.027 446.079H326.515L329.235 452.351ZM339.389 448.239C339.389 448.751 339.917 449.151 340.973 449.439C341.368 449.525 341.698 449.615 341.965 449.711C342.242 449.797 342.541 449.93 342.861 450.111C343.192 450.293 343.442 450.533 343.613 450.831C343.784 451.13 343.869 451.482 343.869 451.887C343.869 452.613 343.586 453.194 343.021 453.631C342.456 454.069 341.741 454.287 340.877 454.287C340.109 454.287 339.442 454.122 338.877 453.791C338.322 453.45 337.928 452.991 337.693 452.415L338.893 451.727C339.021 452.111 339.261 452.415 339.613 452.639C339.965 452.863 340.386 452.975 340.877 452.975C341.357 452.975 341.741 452.885 342.029 452.703C342.317 452.522 342.461 452.25 342.461 451.887C342.461 451.343 341.933 450.949 340.877 450.703C340.525 450.607 340.258 450.533 340.077 450.479C339.896 450.426 339.645 450.33 339.325 450.191C339.016 450.053 338.781 449.909 338.621 449.759C338.461 449.599 338.312 449.391 338.173 449.135C338.045 448.869 337.981 448.575 337.981 448.255C337.981 447.562 338.248 446.991 338.781 446.543C339.325 446.095 340.002 445.871 340.813 445.871C341.464 445.871 342.04 446.021 342.541 446.319C343.053 446.607 343.437 447.013 343.693 447.535L342.525 448.191C342.237 447.509 341.666 447.167 340.813 447.167C340.408 447.167 340.066 447.263 339.789 447.455C339.522 447.647 339.389 447.909 339.389 448.239ZM349.557 446.079V447.423H347.429V451.759C347.429 452.154 347.503 452.437 347.653 452.607C347.813 452.767 348.053 452.853 348.373 452.863C348.693 452.863 349.087 452.853 349.557 452.831V454.079C348.33 454.239 347.434 454.138 346.869 453.775C346.314 453.413 346.037 452.741 346.037 451.759V447.423H344.453V446.079H346.037V444.255L347.429 443.839V446.079H349.557ZM357.422 447.455V446.079H358.814V454.079H357.422V452.703C356.74 453.759 355.732 454.287 354.398 454.287C353.268 454.287 352.313 453.882 351.534 453.071C350.745 452.25 350.35 451.253 350.35 450.079C350.35 448.917 350.745 447.925 351.534 447.103C352.324 446.282 353.278 445.871 354.398 445.871C355.732 445.871 356.74 446.399 357.422 447.455ZM354.574 452.943C355.385 452.943 356.062 452.671 356.606 452.127C357.15 451.562 357.422 450.879 357.422 450.079C357.422 449.269 357.15 448.591 356.606 448.047C356.062 447.493 355.385 447.215 354.574 447.215C353.774 447.215 353.102 447.493 352.558 448.047C352.014 448.591 351.742 449.269 351.742 450.079C351.742 450.879 352.014 451.562 352.558 452.127C353.102 452.671 353.774 452.943 354.574 452.943ZM362.315 446.079V447.423C362.774 446.431 363.606 445.935 364.811 445.935V447.391C364.129 447.359 363.542 447.541 363.051 447.935C362.561 448.33 362.315 448.965 362.315 449.839V454.079H360.923V446.079H362.315ZM370.713 446.079V447.423H368.585V451.759C368.585 452.154 368.66 452.437 368.809 452.607C368.969 452.767 369.209 452.853 369.529 452.863C369.849 452.863 370.244 452.853 370.713 452.831V454.079C369.486 454.239 368.59 454.138 368.025 453.775C367.47 453.413 367.193 452.741 367.193 451.759V447.423H365.609V446.079H367.193V444.255L368.585 443.839V446.079H370.713ZM373.17 448.239C373.17 448.751 373.698 449.151 374.754 449.439C375.149 449.525 375.48 449.615 375.746 449.711C376.024 449.797 376.322 449.93 376.642 450.111C376.973 450.293 377.224 450.533 377.394 450.831C377.565 451.13 377.65 451.482 377.65 451.887C377.65 452.613 377.368 453.194 376.802 453.631C376.237 454.069 375.522 454.287 374.658 454.287C373.89 454.287 373.224 454.122 372.658 453.791C372.104 453.45 371.709 452.991 371.474 452.415L372.674 451.727C372.802 452.111 373.042 452.415 373.394 452.639C373.746 452.863 374.168 452.975 374.658 452.975C375.138 452.975 375.522 452.885 375.81 452.703C376.098 452.522 376.242 452.25 376.242 451.887C376.242 451.343 375.714 450.949 374.658 450.703C374.306 450.607 374.04 450.533 373.858 450.479C373.677 450.426 373.426 450.33 373.106 450.191C372.797 450.053 372.562 449.909 372.402 449.759C372.242 449.599 372.093 449.391 371.954 449.135C371.826 448.869 371.762 448.575 371.762 448.255C371.762 447.562 372.029 446.991 372.562 446.543C373.106 446.095 373.784 445.871 374.594 445.871C375.245 445.871 375.821 446.021 376.322 446.319C376.834 446.607 377.218 447.013 377.474 447.535L376.306 448.191C376.018 447.509 375.448 447.167 374.594 447.167C374.189 447.167 373.848 447.263 373.57 447.455C373.304 447.647 373.17 447.909 373.17 448.239ZM390.962 452.175L392.722 446.079H394.178L391.698 454.079H390.274L388.402 448.159L386.53 454.079H385.106L382.626 446.079H384.082L385.842 452.159L387.73 446.079H389.074L390.962 452.175ZM396.315 444.623C396.048 444.623 395.824 444.533 395.643 444.351C395.462 444.17 395.371 443.951 395.371 443.695C395.371 443.439 395.462 443.221 395.643 443.039C395.824 442.847 396.048 442.751 396.315 442.751C396.571 442.751 396.79 442.847 396.971 443.039C397.152 443.221 397.243 443.439 397.243 443.695C397.243 443.951 397.152 444.17 396.971 444.351C396.79 444.533 396.571 444.623 396.315 444.623ZM397.003 454.079H395.611V446.079H397.003V454.079ZM403.479 446.079V447.423H401.351V451.759C401.351 452.154 401.425 452.437 401.575 452.607C401.735 452.767 401.975 452.853 402.295 452.863C402.615 452.863 403.009 452.853 403.479 452.831V454.079C402.252 454.239 401.356 454.138 400.791 453.775C400.236 453.413 399.959 452.741 399.959 451.759V447.423H398.375V446.079H399.959V444.255L401.351 443.839V446.079H403.479ZM409.111 445.871C410.049 445.871 410.801 446.17 411.367 446.767C411.932 447.354 412.215 448.154 412.215 449.167V454.079H410.823V449.247C410.823 448.607 410.647 448.106 410.295 447.743C409.943 447.381 409.457 447.199 408.839 447.199C408.124 447.199 407.559 447.423 407.143 447.871C406.727 448.309 406.519 448.965 406.519 449.839V454.079H405.127V442.879H406.519V447.231C407.073 446.325 407.937 445.871 409.111 445.871ZM422.51 446.079V447.423H420.382V451.759C420.382 452.154 420.456 452.437 420.606 452.607C420.766 452.767 421.006 452.853 421.326 452.863C421.646 452.863 422.04 452.853 422.51 452.831V454.079C421.283 454.239 420.387 454.138 419.822 453.775C419.267 453.413 418.99 452.741 418.99 451.759V447.423H417.406V446.079H418.99V444.255L420.382 443.839V446.079H422.51ZM428.142 445.871C429.08 445.871 429.832 446.17 430.398 446.767C430.963 447.354 431.246 448.154 431.246 449.167V454.079H429.854V449.247C429.854 448.607 429.678 448.106 429.326 447.743C428.974 447.381 428.488 447.199 427.87 447.199C427.155 447.199 426.59 447.423 426.174 447.871C425.758 448.309 425.55 448.965 425.55 449.839V454.079H424.158V442.879H425.55V447.231C426.104 446.325 426.968 445.871 428.142 445.871ZM440.869 450.719H434.165C434.304 451.423 434.629 451.978 435.141 452.383C435.653 452.778 436.293 452.975 437.061 452.975C438.117 452.975 438.885 452.586 439.365 451.807L440.549 452.479C439.76 453.685 438.586 454.287 437.029 454.287C435.77 454.287 434.736 453.893 433.925 453.103C433.136 452.293 432.741 451.285 432.741 450.079C432.741 448.863 433.13 447.861 433.909 447.071C434.688 446.271 435.696 445.871 436.933 445.871C438.106 445.871 439.061 446.287 439.797 447.119C440.544 447.93 440.917 448.922 440.917 450.095C440.917 450.298 440.901 450.506 440.869 450.719ZM436.933 447.183C436.197 447.183 435.578 447.391 435.077 447.807C434.586 448.223 434.282 448.789 434.165 449.503H439.509C439.392 448.767 439.098 448.197 438.629 447.791C438.16 447.386 437.594 447.183 436.933 447.183ZM226.869 465.079H231.221V473.079H229.829V466.423H226.869V473.079H225.477V466.423H224.197V465.079H225.477V464.839C225.477 462.727 226.645 461.671 228.981 461.671C229.45 461.671 229.999 461.741 230.629 461.879V463.143C229.925 463.058 229.375 463.015 228.981 463.015C228.245 463.015 227.706 463.154 227.365 463.431C227.034 463.709 226.869 464.178 226.869 464.839V465.079ZM234.745 465.079V466.423C235.204 465.431 236.036 464.935 237.241 464.935V466.391C236.558 466.359 235.972 466.541 235.481 466.935C234.99 467.33 234.745 467.965 234.745 468.839V473.079H233.353V465.079H234.745ZM239.506 467.239C239.506 467.751 240.034 468.151 241.09 468.439C241.485 468.525 241.816 468.615 242.082 468.711C242.36 468.797 242.658 468.93 242.978 469.111C243.309 469.293 243.56 469.533 243.73 469.831C243.901 470.13 243.986 470.482 243.986 470.887C243.986 471.613 243.704 472.194 243.138 472.631C242.573 473.069 241.858 473.287 240.994 473.287C240.226 473.287 239.56 473.122 238.994 472.791C238.44 472.45 238.045 471.991 237.81 471.415L239.01 470.727C239.138 471.111 239.378 471.415 239.73 471.639C240.082 471.863 240.504 471.975 240.994 471.975C241.474 471.975 241.858 471.885 242.146 471.703C242.434 471.522 242.578 471.25 242.578 470.887C242.578 470.343 242.05 469.949 240.994 469.703C240.642 469.607 240.376 469.533 240.194 469.479C240.013 469.426 239.762 469.33 239.442 469.191C239.133 469.053 238.898 468.909 238.738 468.759C238.578 468.599 238.429 468.391 238.29 468.135C238.162 467.869 238.098 467.575 238.098 467.255C238.098 466.562 238.365 465.991 238.898 465.543C239.442 465.095 240.12 464.871 240.93 464.871C241.581 464.871 242.157 465.021 242.658 465.319C243.17 465.607 243.554 466.013 243.81 466.535L242.642 467.191C242.354 466.509 241.784 466.167 240.93 466.167C240.525 466.167 240.184 466.263 239.906 466.455C239.64 466.647 239.506 466.909 239.506 467.239ZM249.674 465.079V466.423H247.546V470.759C247.546 471.154 247.621 471.437 247.77 471.607C247.93 471.767 248.17 471.853 248.49 471.863C248.81 471.863 249.205 471.853 249.674 471.831V473.079C248.447 473.239 247.551 473.138 246.986 472.775C246.431 472.413 246.154 471.741 246.154 470.759V466.423H244.57V465.079H246.154V463.255L247.546 462.839V465.079H249.674ZM262.121 472.071C261.31 472.882 260.313 473.287 259.129 473.287C257.945 473.287 256.947 472.882 256.137 472.071C255.326 471.261 254.921 470.263 254.921 469.079C254.921 467.895 255.326 466.898 256.137 466.087C256.947 465.277 257.945 464.871 259.129 464.871C260.313 464.871 261.31 465.277 262.121 466.087C262.942 466.909 263.353 467.906 263.353 469.079C263.353 470.253 262.942 471.25 262.121 472.071ZM259.129 471.927C259.929 471.927 260.601 471.655 261.145 471.111C261.689 470.567 261.961 469.89 261.961 469.079C261.961 468.269 261.689 467.591 261.145 467.047C260.601 466.503 259.929 466.231 259.129 466.231C258.339 466.231 257.673 466.503 257.129 467.047C256.585 467.591 256.313 468.269 256.313 469.079C256.313 469.89 256.585 470.567 257.129 471.111C257.673 471.655 258.339 471.927 259.129 471.927ZM268.978 464.871C269.916 464.871 270.668 465.17 271.234 465.767C271.799 466.354 272.082 467.154 272.082 468.167V473.079H270.69V468.247C270.69 467.607 270.514 467.106 270.162 466.743C269.81 466.381 269.324 466.199 268.706 466.199C267.991 466.199 267.426 466.423 267.01 466.871C266.594 467.309 266.386 467.965 266.386 468.839V473.079H264.994V465.079H266.386V466.231C266.94 465.325 267.804 464.871 268.978 464.871ZM281.705 469.719H275.001C275.14 470.423 275.465 470.978 275.977 471.383C276.489 471.778 277.129 471.975 277.897 471.975C278.953 471.975 279.721 471.586 280.201 470.807L281.385 471.479C280.596 472.685 279.422 473.287 277.865 473.287C276.606 473.287 275.572 472.893 274.761 472.103C273.972 471.293 273.577 470.285 273.577 469.079C273.577 467.863 273.966 466.861 274.745 466.071C275.524 465.271 276.532 464.871 277.769 464.871C278.942 464.871 279.897 465.287 280.633 466.119C281.38 466.93 281.753 467.922 281.753 469.095C281.753 469.298 281.737 469.506 281.705 469.719ZM277.769 466.183C277.033 466.183 276.414 466.391 275.913 466.807C275.422 467.223 275.118 467.789 275.001 468.503H280.345C280.228 467.767 279.934 467.197 279.465 466.791C278.996 466.386 278.43 466.183 277.769 466.183ZM284.777 469.799H283.705L283.401 465.079V461.879H285.081V465.079L284.777 469.799ZM284.233 473.255C283.945 473.255 283.7 473.154 283.497 472.951C283.294 472.749 283.193 472.503 283.193 472.215C283.193 471.927 283.294 471.682 283.497 471.479C283.7 471.277 283.945 471.175 284.233 471.175C284.532 471.175 284.777 471.277 284.969 471.479C285.172 471.682 285.273 471.927 285.273 472.215C285.273 472.503 285.172 472.749 284.969 472.951C284.777 473.154 284.532 473.255 284.233 473.255Z" fill="#7F7F7F"/>
<g clip-path="url(#clip3_6043_5252)">
<path d="M242.259 246.865C239.258 246.865 237.86 246.865 236.815 245.933C235.77 245 235.506 243.426 234.979 240.276L233.482 231.344C233.239 229.891 233.117 229.165 233.492 228.688C233.867 228.211 234.559 228.211 235.944 228.211H253.721C255.106 228.211 255.798 228.211 256.173 228.688C256.547 229.165 256.426 229.891 256.182 231.344L255.845 233.357" stroke="black" stroke-width="1.92979" stroke-linecap="round"/>
<path d="M246.301 237.141C247.854 236.201 249.209 236.58 250.023 237.184C250.357 237.431 250.524 237.555 250.622 237.555C250.72 237.555 250.887 237.431 251.221 237.184C252.035 236.58 253.39 236.201 254.942 237.141C256.98 238.376 257.441 242.448 252.741 245.884C251.846 246.538 251.398 246.865 250.622 246.865C249.845 246.865 249.398 246.538 248.503 245.884C243.803 242.448 244.264 238.376 246.301 237.141Z" stroke="black" stroke-width="1.92979" stroke-linecap="round"/>
<path d="M238.4 228.211V227.567C238.4 224.015 241.28 221.135 244.832 221.135C248.385 221.135 251.265 224.015 251.265 227.567V228.211" stroke="black" stroke-width="1.92979"/>
<path d="M235.183 241.076H241.616" stroke="black" stroke-width="1.92979" stroke-linecap="round"/>
</g>
<defs>
<linearGradient id="paint0_linear_6043_5252" x1="244.514" y1="84.3282" x2="244.514" y2="381.667" gradientUnits="userSpaceOnUse">
<stop offset="0.605" stop-color="#EEEEEE"/>
<stop offset="1" stop-color="white"/>
</linearGradient>
<linearGradient id="paint1_linear_6043_5252" x1="244.515" y1="41.1096" x2="244.515" y2="424.886" gradientUnits="userSpaceOnUse">
<stop offset="0.605" stop-color="#EEEEEE"/>
<stop offset="1" stop-color="white"/>
</linearGradient>
<linearGradient id="paint2_linear_6043_5252" x1="244.515" y1="0.916351" x2="244.515" y2="465.079" gradientUnits="userSpaceOnUse">
<stop offset="0.605" stop-color="#EEEEEE"/>
<stop offset="1" stop-color="white"/>
</linearGradient>
<clipPath id="clip0_6043_5252">
<rect width="21.2499" height="21.2499" fill="white" transform="translate(391.5 116.322)"/>
</clipPath>
<clipPath id="clip1_6043_5252">
<rect width="16.8042" height="16.8042" fill="white" transform="translate(22.7239 140.022)"/>
</clipPath>
<clipPath id="clip2_6043_5252">
<rect width="19.6283" height="19.6283" fill="white" transform="translate(471.971 216.839)"/>
</clipPath>
<clipPath id="clip3_6043_5252">
<rect width="31" height="31" fill="white" transform="translate(229.333 218.5)"/>
</clipPath>
</defs>
</svg>
