<svg width="510" height="487" viewBox="0 0 510 487" fill="none" xmlns="http://www.w3.org/2000/svg">
<path d="M302.781 232.998C302.781 265.176 276.694 291.262 244.514 291.262C212.334 291.262 186.248 265.176 186.248 232.998C186.248 200.82 212.334 174.734 244.514 174.734C276.694 174.734 302.781 200.82 302.781 232.998Z" stroke="#EEEEEE" stroke-width="2"/>
<path d="M343.263 232.998C343.263 287.533 299.052 331.743 244.514 331.743C189.976 331.743 145.765 287.533 145.765 232.998C145.765 178.463 189.976 134.253 244.514 134.253C299.052 134.253 343.263 178.463 343.263 232.998Z" stroke="#EEEEEE" stroke-width="2"/>
<path d="M392.191 232.998C392.191 314.553 326.074 380.667 244.514 380.667C162.955 380.667 96.8381 314.553 96.8381 232.998C96.8381 151.442 162.955 85.3282 244.514 85.3282C326.074 85.3282 392.191 151.442 392.191 232.998Z" stroke="url(#paint0_linear_6043_5252)" stroke-width="2"/>
<path d="M435.412 232.998C435.412 338.423 349.945 423.886 244.515 423.886C139.086 423.886 53.6182 338.423 53.6182 232.998C53.6182 127.573 139.086 42.1096 244.515 42.1096C349.945 42.1096 435.412 127.573 435.412 232.998Z" stroke="url(#paint1_linear_6043_5252)" stroke-width="2"/>
<path d="M475.607 232.998C475.607 360.621 372.144 464.079 244.515 464.079C116.886 464.079 13.4231 360.621 13.4231 232.998C13.4231 105.375 116.886 1.91635 244.515 1.91635C372.144 1.91635 475.607 105.375 475.607 232.998Z" stroke="url(#paint2_linear_6043_5252)" stroke-width="2"/>
<rect x="58.4333" y="295.031" width="37.4049" height="37.7117" rx="7.73649" fill="#F1F1F1"/>
<path d="M69.167 311.231C69.167 308.726 69.167 307.474 69.945 306.696C70.723 305.918 71.9751 305.918 74.4795 305.918H79.7919C82.2962 305.918 83.5484 305.918 84.3264 306.696C85.1044 307.474 85.1044 308.726 85.1044 311.231V315.658C85.1044 317.327 85.1044 318.162 84.5857 318.681C84.0671 319.199 83.2323 319.199 81.5628 319.199H72.7086C71.0391 319.199 70.2043 319.199 69.6857 318.681C69.167 318.162 69.167 317.327 69.167 315.658V311.231Z" stroke="#707072" stroke-width="1.32812"/>
<path d="M85.9905 321.856H68.2822" stroke="#707072" stroke-width="1.32812" stroke-linecap="round"/>
<path d="M79.7922 316.543H74.4797" stroke="#707072" stroke-width="1.32812" stroke-linecap="round"/>
<rect x="115.438" y="9.10739" width="37.4049" height="37.7117" rx="7.73649" fill="#F1F1F1"/>
<path d="M126.171 25.307C126.171 22.8027 126.171 21.5505 126.949 20.7725C127.727 19.9945 128.979 19.9945 131.484 19.9945H136.796C139.3 19.9945 140.553 19.9945 141.331 20.7725C142.109 21.5505 142.109 22.8027 142.109 25.307V29.734C142.109 31.4036 142.109 32.2383 141.59 32.757C141.071 33.2757 140.236 33.2757 138.567 33.2757H129.713C128.043 33.2757 127.208 33.2757 126.69 32.757C126.171 32.2383 126.171 31.4036 126.171 29.734V25.307Z" stroke="#707072" stroke-width="1.32812"/>
<path d="M142.995 35.9319H125.286" stroke="#707072" stroke-width="1.32812" stroke-linecap="round"/>
<path d="M136.796 30.6194H131.484" stroke="#707072" stroke-width="1.32812" stroke-linecap="round"/>
<rect x="393.271" y="303.262" width="37.4049" height="37.7117" rx="7.73649" fill="#F1F1F1"/>
<path d="M414.629 328.316L416.4 330.086L419.942 326.545M412.858 314.149H408.608C407.617 314.149 407.121 314.149 406.742 314.342C406.409 314.512 406.138 314.783 405.968 315.116C405.775 315.495 405.775 315.991 405.775 316.982V327.253C405.775 328.245 405.775 328.741 405.968 329.12C406.138 329.453 406.409 329.724 406.742 329.893C407.121 330.086 407.617 330.086 408.608 330.086H411.973M412.858 314.149L418.171 319.462M412.858 314.149V318.045C412.858 318.541 412.858 318.789 412.955 318.978C413.04 319.145 413.175 319.28 413.342 319.365C413.531 319.462 413.779 319.462 414.275 319.462H418.171M418.171 319.462V323.446" stroke="#707072" stroke-width="1.77082" stroke-linecap="round" stroke-linejoin="round"/>
<rect x="344.263" y="11.7636" width="37.4049" height="37.7117" rx="7.73649" fill="#F1F1F1"/>
<path d="M365.621 36.8174L367.392 38.5882L370.934 35.0466M363.851 22.6508H359.601C358.609 22.6508 358.113 22.6508 357.734 22.8438C357.401 23.0136 357.13 23.2845 356.96 23.6177C356.767 23.9965 356.767 24.4924 356.767 25.4841V35.7549C356.767 36.7467 356.767 37.2426 356.96 37.6214C357.13 37.9545 357.401 38.2255 357.734 38.3952C358.113 38.5882 358.609 38.5882 359.601 38.5882H362.965M363.851 22.6508L369.163 27.9633M363.851 22.6508V26.5466C363.851 27.0425 363.851 27.2904 363.947 27.4798C364.032 27.6464 364.167 27.7819 364.334 27.8668C364.523 27.9633 364.771 27.9633 365.267 27.9633H369.163M369.163 27.9633V31.9476" stroke="#707072" stroke-width="1.77082" stroke-linecap="round" stroke-linejoin="round"/>
<rect x="144.765" y="154.878" width="37.4049" height="37.7117" rx="7.73649" fill="#F1F1F1"/>
<path d="M171.232 168.08C171.232 168.559 171.042 169.018 170.704 169.356C170.365 169.695 169.907 169.885 169.428 169.886H168.862V179.276C168.862 179.754 168.672 180.213 168.333 180.551C167.995 180.889 167.537 181.079 167.058 181.08H157.506C157.269 181.08 157.034 181.033 156.815 180.942C156.596 180.852 156.398 180.719 156.23 180.551C156.062 180.384 155.929 180.185 155.839 179.966C155.748 179.747 155.701 179.512 155.701 179.275C155.701 179.038 155.748 178.804 155.839 178.585C155.929 178.366 156.062 178.167 156.23 177.999C156.398 177.832 156.596 177.699 156.815 177.608C157.034 177.517 157.269 177.471 157.506 177.471H158.071V168.08C158.071 167.602 158.261 167.142 158.599 166.804C158.938 166.465 159.397 166.275 159.876 166.274H169.427C169.906 166.275 170.365 166.465 170.703 166.803C171.042 167.142 171.232 167.601 171.232 168.079V168.08ZM157.506 179.841H165.343C165.222 179.474 165.222 179.078 165.343 178.711H157.508C157.358 178.711 157.215 178.77 157.109 178.876C157.003 178.982 156.943 179.126 156.943 179.276C156.943 179.426 157.003 179.569 157.109 179.675C157.215 179.781 157.358 179.841 157.508 179.841H157.506ZM167.622 168.08C167.622 167.889 167.652 167.698 167.712 167.516H159.877C159.751 167.515 159.629 167.558 159.53 167.635L159.528 167.636C159.461 167.689 159.406 167.756 159.368 167.833C159.331 167.91 159.312 167.995 159.312 168.08V177.471H166.4C166.554 177.469 166.705 177.52 166.826 177.614C166.948 177.709 167.034 177.843 167.071 177.993C167.113 178.137 167.109 178.29 167.058 178.431C167.008 178.572 166.914 178.694 166.79 178.778C166.702 178.826 166.629 178.896 166.577 178.981C166.525 179.066 166.497 179.163 166.495 179.263C166.493 179.363 166.517 179.461 166.566 179.548C166.614 179.636 166.685 179.708 166.77 179.759C166.856 179.811 166.953 179.838 167.053 179.839C167.153 179.84 167.251 179.815 167.338 179.766C167.425 179.717 167.497 179.646 167.547 179.559C167.597 179.473 167.624 179.375 167.624 179.276L167.622 168.08ZM166.66 169.689H160.218V170.927H166.66V169.689ZM166.66 172.216H160.218V173.454H166.66V172.216ZM166.66 174.744H160.218V175.983H166.66V174.744ZM169.992 168.08C169.992 167.931 169.932 167.787 169.826 167.681C169.72 167.576 169.577 167.516 169.427 167.516C169.301 167.515 169.179 167.557 169.08 167.635H169.078C169.01 167.688 168.956 167.755 168.918 167.833C168.88 167.91 168.861 167.995 168.861 168.08V168.645H169.427C169.577 168.645 169.72 168.585 169.826 168.48C169.932 168.374 169.992 168.23 169.992 168.08Z" fill="#707072"/>
<rect x="383.423" y="108.091" width="37.4049" height="37.7117" rx="7.73649" fill="#F1F1F1"/>
<g clip-path="url(#clip0_6043_5252)">
<path d="M406.303 133.811L405.736 129.274C405.57 127.944 404.44 126.947 403.1 126.947H402.125H401.149C399.81 126.947 398.68 127.944 398.514 129.274L397.947 133.811C397.814 134.867 398.639 135.801 399.704 135.801H402.125H404.546C405.611 135.801 406.435 134.867 406.303 133.811Z" stroke="#707072" stroke-width="1.77082" stroke-linecap="round" stroke-linejoin="round"/>
<path d="M402.124 123.405C403.591 123.405 404.78 122.216 404.78 120.749C404.78 119.282 403.591 118.093 402.124 118.093C400.657 118.093 399.468 119.282 399.468 120.749C399.468 122.216 400.657 123.405 402.124 123.405Z" stroke="#707072" stroke-width="1.77082"/>
<path d="M395.041 126.062C396.019 126.062 396.812 125.269 396.812 124.291C396.812 123.313 396.019 122.52 395.041 122.52C394.063 122.52 393.271 123.313 393.271 124.291C393.271 125.269 394.063 126.062 395.041 126.062Z" stroke="#707072" stroke-width="1.77082"/>
<path d="M409.208 126.062C410.186 126.062 410.979 125.269 410.979 124.291C410.979 123.313 410.186 122.52 409.208 122.52C408.23 122.52 407.437 123.313 407.437 124.291C407.437 125.269 408.23 126.062 409.208 126.062Z" stroke="#707072" stroke-width="1.77082"/>
<path d="M395.041 128.718H394.77C393.905 128.718 393.166 129.344 393.024 130.198L392.728 131.968C392.548 133.048 393.381 134.03 394.475 134.03H397.697" stroke="#707072" stroke-width="1.77082" stroke-linecap="round" stroke-linejoin="round"/>
<path d="M409.208 128.718H409.479C410.344 128.718 411.083 129.344 411.225 130.198L411.521 131.968C411.7 133.048 410.868 134.03 409.774 134.03C408.745 134.03 407.521 134.03 406.552 134.03" stroke="#707072" stroke-width="1.77082" stroke-linecap="round" stroke-linejoin="round"/>
</g>
<rect x="194.859" y="306.537" width="37.4049" height="37.7117" rx="7.73649" fill="#F1F1F1"/>
<path d="M213.562 329.82V333.362M210.02 333.362H217.103M208.426 329.82H218.697C219.689 329.82 220.185 329.82 220.564 329.627C220.897 329.457 221.168 329.186 221.337 328.853C221.53 328.475 221.53 327.979 221.53 326.987V320.258C221.53 319.266 221.53 318.77 221.337 318.391C221.168 318.058 220.897 317.787 220.564 317.617C220.185 317.424 219.689 317.424 218.697 317.424H208.426C207.435 317.424 206.939 317.424 206.56 317.617C206.227 317.787 205.956 318.058 205.786 318.391C205.593 318.77 205.593 319.266 205.593 320.258V326.987C205.593 327.979 205.593 328.475 205.786 328.853C205.956 329.186 206.227 329.457 206.56 329.627C206.939 329.82 207.435 329.82 208.426 329.82Z" stroke="#707072" stroke-width="1.77082" stroke-linecap="round"/>
<rect x="325.561" y="195.286" width="37.4049" height="37.7117" rx="7.73649" fill="#F1F1F1"/>
<path fill-rule="evenodd" clip-rule="evenodd" d="M335.922 208.929C335.922 207.202 337.323 205.801 339.05 205.801H344.263H349.476C351.203 205.801 352.604 207.202 352.604 208.929V214.142V219.355C352.604 221.082 351.203 222.483 349.476 222.483H344.263H339.05C337.323 222.483 335.922 221.082 335.922 219.355V214.142V208.929ZM339.05 207.886C338.474 207.886 338.008 208.353 338.008 208.929V213.099H343.22V207.886H339.05ZM345.306 207.886V213.099H350.519V208.929C350.519 208.353 350.052 207.886 349.476 207.886H345.306ZM350.519 215.184H345.306V220.397H349.476C350.052 220.397 350.519 219.931 350.519 219.355V215.184ZM343.22 220.397V215.184H338.008V219.355C338.008 219.931 338.474 220.397 339.05 220.397H343.22Z" fill="#707072"/>
<rect x="224.187" y="70.3794" width="37.4049" height="37.7117" rx="7.73649" fill="#F1F1F1"/>
<path fill-rule="evenodd" clip-rule="evenodd" d="M234.548 84.0221C234.548 82.2947 235.949 80.8944 237.676 80.8944H242.889H248.102C249.829 80.8944 251.23 82.2947 251.23 84.0221V89.2351V94.448C251.23 96.1755 249.829 97.5758 248.102 97.5758H242.889H237.676C235.949 97.5758 234.548 96.1755 234.548 94.448V89.2351V84.0221ZM237.676 82.9796C237.1 82.9796 236.634 83.4463 236.634 84.0221V88.1925H241.846V82.9796H237.676ZM243.932 82.9796V88.1925H249.145V84.0221C249.145 83.4463 248.678 82.9796 248.102 82.9796H243.932ZM249.145 90.2777H243.932V95.4906H248.102C248.678 95.4906 249.145 95.0238 249.145 94.448V90.2777ZM241.846 95.4906V90.2777H236.634V94.448C236.634 95.0238 237.1 95.4906 237.676 95.4906H241.846Z" fill="#707072"/>
<rect x="12.4231" y="129.569" width="37.4049" height="37.7117" rx="7.73649" fill="#F1F1F1"/>
<g clip-path="url(#clip1_6043_5252)">
<path fill-rule="evenodd" clip-rule="evenodd" d="M36.8313 150.852L28.7569 156.311C26.7894 157.641 24.1245 156.244 24.1245 153.884V142.966C24.1245 140.605 26.7894 139.208 28.7569 140.539L36.8313 145.997C38.5565 147.164 38.5565 149.686 36.8313 150.852Z" fill="#707072"/>
</g>
<path d="M170.594 407.24V394.063H173.784V413.482H171.287L162.133 400.305V413.482H158.942V394.063H161.439L170.594 407.24ZM189.203 411.734C187.798 413.14 186.069 413.843 184.016 413.843C181.963 413.843 180.234 413.14 178.828 411.734C177.404 410.31 176.692 408.581 176.692 406.547C176.692 404.512 177.404 402.783 178.828 401.359C180.234 399.953 181.963 399.25 184.016 399.25C186.069 399.25 187.798 399.953 189.203 401.359C190.628 402.783 191.34 404.512 191.34 406.547C191.34 408.581 190.628 410.31 189.203 411.734ZM179.688 406.547C179.688 407.804 180.104 408.849 180.936 409.681C181.769 410.514 182.795 410.93 184.016 410.93C185.236 410.93 186.263 410.514 187.095 409.681C187.927 408.849 188.343 407.804 188.343 406.547C188.343 405.289 187.927 404.244 187.095 403.412C186.263 402.579 185.236 402.163 184.016 402.163C182.795 402.163 181.769 402.579 180.936 403.412C180.104 404.244 179.688 405.289 179.688 406.547ZM216.132 399.25C217.704 399.25 218.971 399.759 219.932 400.776C220.894 401.793 221.375 403.162 221.375 404.882V413.482H218.379V405.076C218.379 404.133 218.138 403.393 217.657 402.857C217.177 402.32 216.52 402.052 215.688 402.052C214.744 402.052 214.005 402.367 213.468 402.996C212.932 403.606 212.664 404.512 212.664 405.714V413.482H209.668V405.076C209.668 404.114 209.436 403.375 208.974 402.857C208.53 402.32 207.892 402.052 207.06 402.052C206.135 402.052 205.386 402.367 204.813 402.996C204.258 403.624 203.98 404.531 203.98 405.714V413.482H200.984V399.611H203.98V401.276C204.868 399.925 206.191 399.25 207.948 399.25C209.723 399.25 211.036 399.981 211.887 401.442C212.793 399.981 214.208 399.25 216.132 399.25ZM237.981 407.823H226.94C227.161 408.858 227.661 409.663 228.438 410.236C229.233 410.81 230.213 411.096 231.378 411.096C232.95 411.096 234.143 410.523 234.957 409.376L237.426 410.819C236.076 412.835 234.051 413.843 231.351 413.843C229.113 413.843 227.291 413.158 225.885 411.79C224.498 410.403 223.805 408.655 223.805 406.547C223.805 404.494 224.489 402.764 225.858 401.359C227.208 399.953 228.965 399.25 231.129 399.25C233.145 399.25 234.809 399.962 236.122 401.387C237.435 402.811 238.092 404.54 238.092 406.574C238.092 406.944 238.055 407.36 237.981 407.823ZM226.912 405.381H235.068C234.865 404.29 234.402 403.449 233.681 402.857C232.978 402.265 232.118 401.969 231.101 401.969C229.991 401.969 229.066 402.274 228.327 402.885C227.587 403.495 227.115 404.327 226.912 405.381ZM255.875 399.25C257.448 399.25 258.714 399.759 259.676 400.776C260.638 401.793 261.119 403.162 261.119 404.882V413.482H258.123V405.076C258.123 404.133 257.882 403.393 257.401 402.857C256.92 402.32 256.264 402.052 255.432 402.052C254.488 402.052 253.749 402.367 253.212 402.996C252.676 403.606 252.408 404.512 252.408 405.714V413.482H249.412V405.076C249.412 404.114 249.18 403.375 248.718 402.857C248.274 402.32 247.636 402.052 246.804 402.052C245.879 402.052 245.13 402.367 244.557 402.996C244.002 403.624 243.724 404.531 243.724 405.714V413.482H240.728V399.611H243.724V401.276C244.612 399.925 245.935 399.25 247.692 399.25C249.467 399.25 250.78 399.981 251.631 401.442C252.537 399.981 253.952 399.25 255.875 399.25ZM272.176 399.25C274.081 399.25 275.709 399.953 277.059 401.359C278.409 402.764 279.084 404.494 279.084 406.547C279.084 408.599 278.409 410.329 277.059 411.734C275.709 413.14 274.081 413.843 272.176 413.843C270.068 413.843 268.45 413.057 267.321 411.485V413.482H264.325V394.063H267.321V401.581C268.468 400.027 270.086 399.25 272.176 399.25ZM268.57 409.737C269.402 410.569 270.447 410.985 271.705 410.985C272.962 410.985 274.007 410.569 274.84 409.737C275.672 408.886 276.088 407.823 276.088 406.547C276.088 405.27 275.672 404.216 274.84 403.384C274.007 402.533 272.962 402.108 271.705 402.108C270.447 402.108 269.402 402.533 268.57 403.384C267.738 404.216 267.321 405.27 267.321 406.547C267.321 407.804 267.738 408.868 268.57 409.737ZM295.199 407.823H284.158C284.38 408.858 284.879 409.663 285.656 410.236C286.451 410.81 287.431 411.096 288.596 411.096C290.169 411.096 291.361 410.523 292.175 409.376L294.644 410.819C293.294 412.835 291.269 413.843 288.569 413.843C286.331 413.843 284.509 413.158 283.104 411.79C281.716 410.403 281.023 408.655 281.023 406.547C281.023 404.494 281.707 402.764 283.076 401.359C284.426 399.953 286.183 399.25 288.347 399.25C290.363 399.25 292.027 399.962 293.34 401.387C294.653 402.811 295.31 404.54 295.31 406.574C295.31 406.944 295.273 407.36 295.199 407.823ZM284.13 405.381H292.286C292.083 404.29 291.62 403.449 290.899 402.857C290.196 402.265 289.336 401.969 288.319 401.969C287.209 401.969 286.285 402.274 285.545 402.885C284.805 403.495 284.333 404.327 284.13 405.381ZM300.943 399.611V401.941C301.701 400.221 303.125 399.361 305.215 399.361V402.607C304.087 402.533 303.088 402.811 302.219 403.439C301.368 404.05 300.943 405.067 300.943 406.491V413.482H297.946V399.611H300.943ZM320.162 409.681L323.713 399.611H326.904L321.577 413.926C320.245 417.514 317.989 419.215 314.808 419.031V416.229C315.733 416.284 316.482 416.09 317.055 415.646C317.628 415.202 318.109 414.49 318.498 413.51L318.636 413.232L312.755 399.611H316.029L320.162 409.681ZM341.635 407.823H330.593C330.815 408.858 331.315 409.663 332.091 410.236C332.887 410.81 333.867 411.096 335.032 411.096C336.604 411.096 337.797 410.523 338.611 409.376L341.08 410.819C339.73 412.835 337.705 413.843 335.004 413.843C332.766 413.843 330.945 413.158 329.539 411.79C328.152 410.403 327.458 408.655 327.458 406.547C327.458 404.494 328.143 402.764 329.511 401.359C330.861 399.953 332.618 399.25 334.782 399.25C336.798 399.25 338.463 399.962 339.776 401.387C341.089 402.811 341.746 404.54 341.746 406.574C341.746 406.944 341.709 407.36 341.635 407.823ZM330.566 405.381H338.722C338.518 404.29 338.056 403.449 337.335 402.857C336.632 402.265 335.772 401.969 334.755 401.969C333.645 401.969 332.72 402.274 331.98 402.885C331.241 403.495 330.769 404.327 330.566 405.381ZM351.689 399.611V402.496H348.249V409.154C348.249 409.728 348.378 410.144 348.637 410.403C348.896 410.643 349.275 410.782 349.774 410.819C350.292 410.837 350.93 410.828 351.689 410.791V413.482C349.395 413.76 347.749 413.565 346.751 412.9C345.752 412.215 345.252 410.967 345.252 409.154V402.496H342.7V399.611H345.252V396.615L348.249 395.727V399.611H351.689Z" fill="black"/>
<rect x="463.083" y="207.797" width="37.4049" height="37.7117" rx="7.73649" fill="#F1F1F1"/>
<g clip-path="url(#clip2_6043_5252)">
<path d="M486.999 216.839H476.571C476.164 216.839 475.774 217.001 475.487 217.288C475.199 217.576 475.038 217.966 475.038 218.372V234.934C475.038 235.341 475.199 235.731 475.487 236.018C475.774 236.306 476.164 236.467 476.571 236.467H486.999C487.405 236.467 487.795 236.306 488.083 236.018C488.371 235.731 488.532 235.341 488.532 234.934V218.372C488.532 217.966 488.371 217.576 488.083 217.288C487.795 217.001 487.405 216.839 486.999 216.839ZM486.999 234.934H476.571V218.372H486.999V234.934Z" fill="#707072"/>
<path d="M481.786 233.4C482.328 233.4 482.767 232.988 482.767 232.48C482.767 231.972 482.328 231.56 481.786 231.56C481.244 231.56 480.804 231.972 480.804 232.48C480.804 232.988 481.244 233.4 481.786 233.4Z" fill="#707072"/>
</g>
<path d="M65.5476 442.879V452.671H70.3796V454.079H64.0596V442.879H65.5476ZM78.1676 453.071C77.357 453.882 76.3596 454.287 75.1756 454.287C73.9916 454.287 72.9943 453.882 72.1836 453.071C71.373 452.261 70.9676 451.263 70.9676 450.079C70.9676 448.895 71.373 447.898 72.1836 447.087C72.9943 446.277 73.9916 445.871 75.1756 445.871C76.3596 445.871 77.357 446.277 78.1676 447.087C78.989 447.909 79.3996 448.906 79.3996 450.079C79.3996 451.253 78.989 452.25 78.1676 453.071ZM75.1756 452.927C75.9756 452.927 76.6476 452.655 77.1916 452.111C77.7356 451.567 78.0076 450.89 78.0076 450.079C78.0076 449.269 77.7356 448.591 77.1916 448.047C76.6476 447.503 75.9756 447.231 75.1756 447.231C74.3863 447.231 73.7196 447.503 73.1756 448.047C72.6316 448.591 72.3596 449.269 72.3596 450.079C72.3596 450.89 72.6316 451.567 73.1756 452.111C73.7196 452.655 74.3863 452.927 75.1756 452.927ZM87.7926 453.071C86.982 453.882 85.9846 454.287 84.8006 454.287C83.6166 454.287 82.6193 453.882 81.8086 453.071C80.998 452.261 80.5926 451.263 80.5926 450.079C80.5926 448.895 80.998 447.898 81.8086 447.087C82.6193 446.277 83.6166 445.871 84.8006 445.871C85.9846 445.871 86.982 446.277 87.7926 447.087C88.614 447.909 89.0246 448.906 89.0246 450.079C89.0246 451.253 88.614 452.25 87.7926 453.071ZM84.8006 452.927C85.6006 452.927 86.2726 452.655 86.8166 452.111C87.3606 451.567 87.6326 450.89 87.6326 450.079C87.6326 449.269 87.3606 448.591 86.8166 448.047C86.2726 447.503 85.6006 447.231 84.8006 447.231C84.0113 447.231 83.3446 447.503 82.8006 448.047C82.2566 448.591 81.9846 449.269 81.9846 450.079C81.9846 450.89 82.2566 451.567 82.8006 452.111C83.3446 452.655 84.0113 452.927 84.8006 452.927ZM93.4816 449.951L97.4336 454.079H95.7056L92.0576 450.287V454.079H90.6656V442.879H92.0576V449.615L95.5136 446.079H97.3056L93.4816 449.951ZM99.3187 448.239C99.3187 448.751 99.8467 449.151 100.903 449.439C101.297 449.525 101.628 449.615 101.895 449.711C102.172 449.797 102.471 449.93 102.791 450.111C103.121 450.293 103.372 450.533 103.543 450.831C103.713 451.13 103.799 451.482 103.799 451.887C103.799 452.613 103.516 453.194 102.951 453.631C102.385 454.069 101.671 454.287 100.807 454.287C100.039 454.287 99.3721 454.122 98.8067 453.791C98.2521 453.45 97.8574 452.991 97.6227 452.415L98.8227 451.727C98.9507 452.111 99.1907 452.415 99.5427 452.639C99.8947 452.863 100.316 452.975 100.807 452.975C101.287 452.975 101.671 452.885 101.959 452.703C102.247 452.522 102.391 452.25 102.391 451.887C102.391 451.343 101.863 450.949 100.807 450.703C100.455 450.607 100.188 450.533 100.007 450.479C99.8254 450.426 99.5747 450.33 99.2547 450.191C98.9454 450.053 98.7107 449.909 98.5507 449.759C98.3907 449.599 98.2414 449.391 98.1027 449.135C97.9747 448.869 97.9107 448.575 97.9107 448.255C97.9107 447.562 98.1774 446.991 98.7107 446.543C99.2547 446.095 99.9321 445.871 100.743 445.871C101.393 445.871 101.969 446.021 102.471 446.319C102.983 446.607 103.367 447.013 103.623 447.535L102.455 448.191C102.167 447.509 101.596 447.167 100.743 447.167C100.337 447.167 99.9961 447.263 99.7187 447.455C99.4521 447.647 99.3187 447.909 99.3187 448.239ZM116.071 447.455V446.079H117.463V454.079H116.071V452.703C115.388 453.759 114.38 454.287 113.047 454.287C111.916 454.287 110.962 453.882 110.183 453.071C109.394 452.25 108.999 451.253 108.999 450.079C108.999 448.917 109.394 447.925 110.183 447.103C110.972 446.282 111.927 445.871 113.047 445.871C114.38 445.871 115.388 446.399 116.071 447.455ZM113.223 452.943C114.034 452.943 114.711 452.671 115.255 452.127C115.799 451.562 116.071 450.879 116.071 450.079C116.071 449.269 115.799 448.591 115.255 448.047C114.711 447.493 114.034 447.215 113.223 447.215C112.423 447.215 111.751 447.493 111.207 448.047C110.663 448.591 110.391 449.269 110.391 450.079C110.391 450.879 110.663 451.562 111.207 452.127C111.751 452.671 112.423 452.943 113.223 452.943ZM124.964 454.079H123.572V442.399H124.964V454.079ZM127.791 444.623C127.525 444.623 127.301 444.533 127.119 444.351C126.938 444.17 126.847 443.951 126.847 443.695C126.847 443.439 126.938 443.221 127.119 443.039C127.301 442.847 127.525 442.751 127.791 442.751C128.047 442.751 128.266 442.847 128.447 443.039C128.629 443.221 128.719 443.439 128.719 443.695C128.719 443.951 128.629 444.17 128.447 444.351C128.266 444.533 128.047 444.623 127.791 444.623ZM128.479 454.079H127.087V446.079H128.479V454.079ZM134.955 446.079V447.423H132.827V451.759C132.827 452.154 132.902 452.437 133.051 452.607C133.211 452.767 133.451 452.853 133.771 452.863C134.091 452.863 134.486 452.853 134.955 452.831V454.079C133.728 454.239 132.832 454.138 132.267 453.775C131.712 453.413 131.435 452.741 131.435 451.759V447.423H129.851V446.079H131.435V444.255L132.827 443.839V446.079H134.955ZM140.533 446.079V447.423H138.405V451.759C138.405 452.154 138.48 452.437 138.629 452.607C138.789 452.767 139.029 452.853 139.349 452.863C139.669 452.863 140.064 452.853 140.533 452.831V454.079C139.307 454.239 138.411 454.138 137.845 453.775C137.291 453.413 137.013 452.741 137.013 451.759V447.423H135.429V446.079H137.013V444.255L138.405 443.839V446.079H140.533ZM143.573 454.079H142.181V442.399H143.573V454.079ZM153.377 450.719H146.673C146.812 451.423 147.137 451.978 147.649 452.383C148.161 452.778 148.801 452.975 149.569 452.975C150.625 452.975 151.393 452.586 151.873 451.807L153.057 452.479C152.268 453.685 151.094 454.287 149.537 454.287C148.278 454.287 147.244 453.893 146.433 453.103C145.644 452.293 145.249 451.285 145.249 450.079C145.249 448.863 145.638 447.861 146.417 447.071C147.196 446.271 148.204 445.871 149.441 445.871C150.614 445.871 151.569 446.287 152.305 447.119C153.052 447.93 153.425 448.922 153.425 450.095C153.425 450.298 153.409 450.506 153.377 450.719ZM149.441 447.183C148.705 447.183 148.086 447.391 147.585 447.807C147.094 448.223 146.79 448.789 146.673 449.503H152.017C151.9 448.767 151.606 448.197 151.137 447.791C150.668 447.386 150.102 447.183 149.441 447.183ZM160.417 454.079H159.025V442.399H160.417V454.079ZM169.293 453.071C168.482 453.882 167.485 454.287 166.301 454.287C165.117 454.287 164.119 453.882 163.309 453.071C162.498 452.261 162.093 451.263 162.093 450.079C162.093 448.895 162.498 447.898 163.309 447.087C164.119 446.277 165.117 445.871 166.301 445.871C167.485 445.871 168.482 446.277 169.293 447.087C170.114 447.909 170.525 448.906 170.525 450.079C170.525 451.253 170.114 452.25 169.293 453.071ZM166.301 452.927C167.101 452.927 167.773 452.655 168.317 452.111C168.861 451.567 169.133 450.89 169.133 450.079C169.133 449.269 168.861 448.591 168.317 448.047C167.773 447.503 167.101 447.231 166.301 447.231C165.511 447.231 164.845 447.503 164.301 448.047C163.757 448.591 163.485 449.269 163.485 450.079C163.485 450.89 163.757 451.567 164.301 452.111C164.845 452.655 165.511 452.927 166.301 452.927ZM176.15 445.871C177.088 445.871 177.84 446.17 178.406 446.767C178.971 447.354 179.254 448.154 179.254 449.167V454.079H177.862V449.247C177.862 448.607 177.686 448.106 177.334 447.743C176.982 447.381 176.496 447.199 175.878 447.199C175.163 447.199 174.598 447.423 174.182 447.871C173.766 448.309 173.558 448.965 173.558 449.839V454.079H172.166V446.079H173.558V447.231C174.112 446.325 174.976 445.871 176.15 445.871ZM188.877 450.719H182.173C182.312 451.423 182.637 451.978 183.149 452.383C183.661 452.778 184.301 452.975 185.069 452.975C186.125 452.975 186.893 452.586 187.373 451.807L188.557 452.479C187.768 453.685 186.594 454.287 185.037 454.287C183.778 454.287 182.744 453.893 181.933 453.103C181.144 452.293 180.749 451.285 180.749 450.079C180.749 448.863 181.138 447.861 181.917 447.071C182.696 446.271 183.704 445.871 184.941 445.871C186.114 445.871 187.069 446.287 187.805 447.119C188.552 447.93 188.925 448.922 188.925 450.095C188.925 450.298 188.909 450.506 188.877 450.719ZM184.941 447.183C184.205 447.183 183.586 447.391 183.085 447.807C182.594 448.223 182.29 448.789 182.173 449.503H187.517C187.4 448.767 187.106 448.197 186.637 447.791C186.168 447.386 185.602 447.183 184.941 447.183ZM191.917 454.079H190.525V442.399H191.917V454.079ZM197.321 452.351L199.625 446.079H201.113L197.849 454.575C197.497 455.482 197.011 456.17 196.393 456.639C195.785 457.119 195.086 457.333 194.297 457.279V455.983C195.278 456.058 195.998 455.514 196.457 454.351L196.601 454.047L193.113 446.079H194.601L197.321 452.351ZM210.259 445.871C211.198 445.871 211.95 446.17 212.515 446.767C213.08 447.354 213.363 448.154 213.363 449.167V454.079H211.971V449.247C211.971 448.607 211.795 448.106 211.443 447.743C211.091 447.381 210.606 447.199 209.987 447.199C209.272 447.199 208.707 447.423 208.291 447.871C207.875 448.309 207.667 448.965 207.667 449.839V454.079H206.275V442.879H207.667V447.231C208.222 446.325 209.086 445.871 210.259 445.871ZM222.986 450.719H216.282C216.421 451.423 216.746 451.978 217.258 452.383C217.77 452.778 218.41 452.975 219.178 452.975C220.234 452.975 221.002 452.586 221.482 451.807L222.666 452.479C221.877 453.685 220.704 454.287 219.146 454.287C217.888 454.287 216.853 453.893 216.042 453.103C215.253 452.293 214.858 451.285 214.858 450.079C214.858 448.863 215.248 447.861 216.026 447.071C216.805 446.271 217.813 445.871 219.05 445.871C220.224 445.871 221.178 446.287 221.914 447.119C222.661 447.93 223.034 448.922 223.034 450.095C223.034 450.298 223.018 450.506 222.986 450.719ZM219.05 447.183C218.314 447.183 217.696 447.391 217.194 447.807C216.704 448.223 216.4 448.789 216.282 449.503H221.626C221.509 448.767 221.216 448.197 220.746 447.791C220.277 447.386 219.712 447.183 219.05 447.183ZM226.026 446.079V447.423C226.485 446.431 227.317 445.935 228.522 445.935V447.391C227.84 447.359 227.253 447.541 226.762 447.935C226.272 448.33 226.026 448.965 226.026 449.839V454.079H224.634V446.079H226.026ZM237.127 450.719H230.423C230.562 451.423 230.887 451.978 231.399 452.383C231.911 452.778 232.551 452.975 233.319 452.975C234.375 452.975 235.143 452.586 235.623 451.807L236.807 452.479C236.018 453.685 234.844 454.287 233.287 454.287C232.028 454.287 230.994 453.893 230.183 453.103C229.394 452.293 228.999 451.285 228.999 450.079C228.999 448.863 229.388 447.861 230.167 447.071C230.946 446.271 231.954 445.871 233.191 445.871C234.364 445.871 235.319 446.287 236.055 447.119C236.802 447.93 237.175 448.922 237.175 450.095C237.175 450.298 237.159 450.506 237.127 450.719ZM233.191 447.183C232.455 447.183 231.836 447.391 231.335 447.807C230.844 448.223 230.54 448.789 230.423 449.503H235.767C235.65 448.767 235.356 448.197 234.887 447.791C234.418 447.386 233.852 447.183 233.191 447.183ZM239.014 454.255C238.726 454.255 238.481 454.154 238.278 453.951C238.076 453.749 237.974 453.503 237.974 453.215C237.974 452.927 238.076 452.682 238.278 452.479C238.481 452.277 238.726 452.175 239.014 452.175C239.313 452.175 239.558 452.277 239.75 452.479C239.953 452.682 240.054 452.927 240.054 453.215C240.054 453.503 239.953 453.749 239.75 453.951C239.558 454.154 239.313 454.255 239.014 454.255ZM255.129 454.079H253.545L252.633 451.567H247.593L246.681 454.079H245.097L249.273 442.879H250.953L255.129 454.079ZM250.105 444.655L248.105 450.175H252.121L250.105 444.655ZM262.743 447.455V442.879H264.135V454.079H262.743V452.703C262.06 453.759 261.052 454.287 259.719 454.287C258.588 454.287 257.633 453.882 256.855 453.071C256.065 452.25 255.671 451.253 255.671 450.079C255.671 448.917 256.065 447.925 256.855 447.103C257.644 446.282 258.599 445.871 259.719 445.871C261.052 445.871 262.06 446.399 262.743 447.455ZM259.895 452.943C260.705 452.943 261.383 452.671 261.927 452.127C262.471 451.562 262.743 450.879 262.743 450.079C262.743 449.269 262.471 448.591 261.927 448.047C261.383 447.493 260.705 447.215 259.895 447.215C259.095 447.215 258.423 447.493 257.879 448.047C257.335 448.591 257.063 449.269 257.063 450.079C257.063 450.879 257.335 451.562 257.879 452.127C258.423 452.671 259.095 452.943 259.895 452.943ZM272.868 447.455V442.879H274.26V454.079H272.868V452.703C272.185 453.759 271.177 454.287 269.844 454.287C268.713 454.287 267.758 453.882 266.98 453.071C266.19 452.25 265.796 451.253 265.796 450.079C265.796 448.917 266.19 447.925 266.98 447.103C267.769 446.282 268.724 445.871 269.844 445.871C271.177 445.871 272.185 446.399 272.868 447.455ZM270.02 452.943C270.83 452.943 271.508 452.671 272.052 452.127C272.596 451.562 272.868 450.879 272.868 450.079C272.868 449.269 272.596 448.591 272.052 448.047C271.508 447.493 270.83 447.215 270.02 447.215C269.22 447.215 268.548 447.493 268.004 448.047C267.46 448.591 267.188 449.269 267.188 450.079C267.188 450.879 267.46 451.562 268.004 452.127C268.548 452.671 269.22 452.943 270.02 452.943ZM283.649 452.351L285.953 446.079H287.441L284.177 454.575C283.825 455.482 283.339 456.17 282.721 456.639C282.113 457.119 281.414 457.333 280.625 457.279V455.983C281.606 456.058 282.326 455.514 282.785 454.351L282.929 454.047L279.441 446.079H280.929L283.649 452.351ZM295.043 453.071C294.232 453.882 293.235 454.287 292.051 454.287C290.867 454.287 289.869 453.882 289.059 453.071C288.248 452.261 287.843 451.263 287.843 450.079C287.843 448.895 288.248 447.898 289.059 447.087C289.869 446.277 290.867 445.871 292.051 445.871C293.235 445.871 294.232 446.277 295.043 447.087C295.864 447.909 296.275 448.906 296.275 450.079C296.275 451.253 295.864 452.25 295.043 453.071ZM292.051 452.927C292.851 452.927 293.523 452.655 294.067 452.111C294.611 451.567 294.883 450.89 294.883 450.079C294.883 449.269 294.611 448.591 294.067 448.047C293.523 447.503 292.851 447.231 292.051 447.231C291.261 447.231 290.595 447.503 290.051 448.047C289.507 448.591 289.235 449.269 289.235 450.079C289.235 450.89 289.507 451.567 290.051 452.111C290.595 452.655 291.261 452.927 292.051 452.927ZM303.436 450.319V446.079H304.828V454.079H303.436V452.927C302.881 453.834 302.017 454.287 300.844 454.287C299.905 454.287 299.153 453.994 298.588 453.407C298.022 452.81 297.74 452.005 297.74 450.991V446.079H299.132V450.911C299.132 451.551 299.308 452.053 299.66 452.415C300.012 452.778 300.497 452.959 301.116 452.959C301.83 452.959 302.396 452.741 302.812 452.303C303.228 451.855 303.436 451.194 303.436 450.319ZM308.339 446.079V447.423C308.798 446.431 309.63 445.935 310.835 445.935V447.391C310.152 447.359 309.566 447.541 309.075 447.935C308.584 448.33 308.339 448.965 308.339 449.839V454.079H306.947V446.079H308.339ZM318.197 446.079H322.549V454.079H321.157V447.423H318.197V454.079H316.805V447.423H315.525V446.079H316.805V445.839C316.805 443.727 317.973 442.671 320.309 442.671C320.778 442.671 321.328 442.741 321.957 442.879V444.143C321.253 444.058 320.704 444.015 320.309 444.015C319.573 444.015 319.034 444.154 318.693 444.431C318.362 444.709 318.197 445.178 318.197 445.839V446.079ZM326.073 446.079V447.423C326.532 446.431 327.364 445.935 328.569 445.935V447.391C327.887 447.359 327.3 447.541 326.809 447.935C326.319 448.33 326.073 448.965 326.073 449.839V454.079H324.681V446.079H326.073ZM330.834 448.239C330.834 448.751 331.362 449.151 332.418 449.439C332.813 449.525 333.144 449.615 333.41 449.711C333.688 449.797 333.986 449.93 334.306 450.111C334.637 450.293 334.888 450.533 335.058 450.831C335.229 451.13 335.314 451.482 335.314 451.887C335.314 452.613 335.032 453.194 334.466 453.631C333.901 454.069 333.186 454.287 332.322 454.287C331.554 454.287 330.888 454.122 330.322 453.791C329.768 453.45 329.373 452.991 329.138 452.415L330.338 451.727C330.466 452.111 330.706 452.415 331.058 452.639C331.41 452.863 331.832 452.975 332.322 452.975C332.802 452.975 333.186 452.885 333.474 452.703C333.762 452.522 333.906 452.25 333.906 451.887C333.906 451.343 333.378 450.949 332.322 450.703C331.97 450.607 331.704 450.533 331.522 450.479C331.341 450.426 331.09 450.33 330.77 450.191C330.461 450.053 330.226 449.909 330.066 449.759C329.906 449.599 329.757 449.391 329.618 449.135C329.49 448.869 329.426 448.575 329.426 448.255C329.426 447.562 329.693 446.991 330.226 446.543C330.77 446.095 331.448 445.871 332.258 445.871C332.909 445.871 333.485 446.021 333.986 446.319C334.498 446.607 334.882 447.013 335.138 447.535L333.97 448.191C333.682 447.509 333.112 447.167 332.258 447.167C331.853 447.167 331.512 447.263 331.234 447.455C330.968 447.647 330.834 447.909 330.834 448.239ZM341.002 446.079V447.423H338.874V451.759C338.874 452.154 338.949 452.437 339.098 452.607C339.258 452.767 339.498 452.853 339.818 452.863C340.138 452.863 340.533 452.853 341.002 452.831V454.079C339.775 454.239 338.879 454.138 338.314 453.775C337.759 453.413 337.482 452.741 337.482 451.759V447.423H335.898V446.079H337.482V444.255L338.874 443.839V446.079H341.002ZM355.337 445.871C356.244 445.871 356.969 446.165 357.513 446.751C358.068 447.338 358.345 448.122 358.345 449.103V454.079H356.953V449.151C356.953 448.543 356.793 448.069 356.473 447.727C356.164 447.375 355.737 447.199 355.193 447.199C354.574 447.199 354.089 447.407 353.737 447.823C353.396 448.229 353.225 448.831 353.225 449.631V454.079H351.833V449.151C351.833 448.543 351.678 448.069 351.369 447.727C351.07 447.375 350.66 447.199 350.137 447.199C349.529 447.199 349.033 447.413 348.649 447.839C348.276 448.255 348.089 448.853 348.089 449.631V454.079H346.697V446.079H348.089V447.151C348.633 446.298 349.428 445.871 350.473 445.871C351.55 445.871 352.334 446.325 352.825 447.231C353.38 446.325 354.217 445.871 355.337 445.871ZM367.955 450.719H361.251C361.39 451.423 361.715 451.978 362.227 452.383C362.739 452.778 363.379 452.975 364.147 452.975C365.203 452.975 365.971 452.586 366.451 451.807L367.635 452.479C366.846 453.685 365.672 454.287 364.115 454.287C362.856 454.287 361.822 453.893 361.011 453.103C360.222 452.293 359.827 451.285 359.827 450.079C359.827 448.863 360.216 447.861 360.995 447.071C361.774 446.271 362.782 445.871 364.019 445.871C365.192 445.871 366.147 446.287 366.883 447.119C367.63 447.93 368.003 448.922 368.003 450.095C368.003 450.298 367.987 450.506 367.955 450.719ZM364.019 447.183C363.283 447.183 362.664 447.391 362.163 447.807C361.672 448.223 361.368 448.789 361.251 449.503H366.595C366.478 448.767 366.184 448.197 365.715 447.791C365.246 447.386 364.68 447.183 364.019 447.183ZM378.243 445.871C379.15 445.871 379.875 446.165 380.419 446.751C380.974 447.338 381.251 448.122 381.251 449.103V454.079H379.859V449.151C379.859 448.543 379.699 448.069 379.379 447.727C379.07 447.375 378.643 447.199 378.099 447.199C377.48 447.199 376.995 447.407 376.643 447.823C376.302 448.229 376.131 448.831 376.131 449.631V454.079H374.739V449.151C374.739 448.543 374.584 448.069 374.275 447.727C373.976 447.375 373.566 447.199 373.043 447.199C372.435 447.199 371.939 447.413 371.555 447.839C371.182 448.255 370.995 448.853 370.995 449.631V454.079H369.603V446.079H370.995V447.151C371.539 446.298 372.334 445.871 373.379 445.871C374.456 445.871 375.24 446.325 375.731 447.231C376.286 446.325 377.123 445.871 378.243 445.871ZM387.597 445.871C388.717 445.871 389.672 446.282 390.461 447.103C391.251 447.925 391.645 448.917 391.645 450.079C391.645 451.253 391.251 452.25 390.461 453.071C389.683 453.882 388.728 454.287 387.597 454.287C386.275 454.287 385.267 453.759 384.573 452.703V454.079H383.181V442.879H384.573V447.455C385.267 446.399 386.275 445.871 387.597 445.871ZM387.421 452.943C388.221 452.943 388.893 452.671 389.437 452.127C389.981 451.562 390.253 450.879 390.253 450.079C390.253 449.269 389.981 448.591 389.437 448.047C388.893 447.493 388.221 447.215 387.421 447.215C386.611 447.215 385.933 447.493 385.389 448.047C384.845 448.591 384.573 449.269 384.573 450.079C384.573 450.879 384.845 451.562 385.389 452.127C385.933 452.671 386.611 452.943 387.421 452.943ZM400.986 450.719H394.282C394.421 451.423 394.746 451.978 395.258 452.383C395.77 452.778 396.41 452.975 397.178 452.975C398.234 452.975 399.002 452.586 399.482 451.807L400.666 452.479C399.877 453.685 398.704 454.287 397.146 454.287C395.888 454.287 394.853 453.893 394.042 453.103C393.253 452.293 392.858 451.285 392.858 450.079C392.858 448.863 393.248 447.861 394.026 447.071C394.805 446.271 395.813 445.871 397.05 445.871C398.224 445.871 399.178 446.287 399.914 447.119C400.661 447.93 401.034 448.922 401.034 450.095C401.034 450.298 401.018 450.506 400.986 450.719ZM397.05 447.183C396.314 447.183 395.696 447.391 395.194 447.807C394.704 448.223 394.4 448.789 394.282 449.503H399.626C399.509 448.767 399.216 448.197 398.746 447.791C398.277 447.386 397.712 447.183 397.05 447.183ZM404.026 446.079V447.423C404.485 446.431 405.317 445.935 406.522 445.935V447.391C405.84 447.359 405.253 447.541 404.762 447.935C404.272 448.33 404.026 448.965 404.026 449.839V454.079H402.634V446.079H404.026ZM408.787 448.239C408.787 448.751 409.315 449.151 410.371 449.439C410.766 449.525 411.097 449.615 411.363 449.711C411.641 449.797 411.939 449.93 412.259 450.111C412.59 450.293 412.841 450.533 413.011 450.831C413.182 451.13 413.267 451.482 413.267 451.887C413.267 452.613 412.985 453.194 412.419 453.631C411.854 454.069 411.139 454.287 410.275 454.287C409.507 454.287 408.841 454.122 408.275 453.791C407.721 453.45 407.326 452.991 407.091 452.415L408.291 451.727C408.419 452.111 408.659 452.415 409.011 452.639C409.363 452.863 409.785 452.975 410.275 452.975C410.755 452.975 411.139 452.885 411.427 452.703C411.715 452.522 411.859 452.25 411.859 451.887C411.859 451.343 411.331 450.949 410.275 450.703C409.923 450.607 409.657 450.533 409.475 450.479C409.294 450.426 409.043 450.33 408.723 450.191C408.414 450.053 408.179 449.909 408.019 449.759C407.859 449.599 407.71 449.391 407.571 449.135C407.443 448.869 407.379 448.575 407.379 448.255C407.379 447.562 407.646 446.991 408.179 446.543C408.723 446.095 409.401 445.871 410.211 445.871C410.862 445.871 411.438 446.021 411.939 446.319C412.451 446.607 412.835 447.013 413.091 447.535L411.923 448.191C411.635 447.509 411.065 447.167 410.211 447.167C409.806 447.167 409.465 447.263 409.187 447.455C408.921 447.647 408.787 447.909 408.787 448.239ZM425.54 447.455V446.079H426.932V454.079H425.54V452.703C424.857 453.759 423.849 454.287 422.516 454.287C421.385 454.287 420.43 453.882 419.652 453.071C418.862 452.25 418.468 451.253 418.468 450.079C418.468 448.917 418.862 447.925 419.652 447.103C420.441 446.282 421.396 445.871 422.516 445.871C423.849 445.871 424.857 446.399 425.54 447.455ZM422.692 452.943C423.502 452.943 424.18 452.671 424.724 452.127C425.268 451.562 425.54 450.879 425.54 450.079C425.54 449.269 425.268 448.591 424.724 448.047C424.18 447.493 423.502 447.215 422.692 447.215C421.892 447.215 421.22 447.493 420.676 448.047C420.132 448.591 419.86 449.269 419.86 450.079C419.86 450.879 420.132 451.562 420.676 452.127C421.22 452.671 421.892 452.943 422.692 452.943ZM433.025 445.871C433.963 445.871 434.715 446.17 435.281 446.767C435.846 447.354 436.129 448.154 436.129 449.167V454.079H434.737V449.247C434.737 448.607 434.561 448.106 434.209 447.743C433.857 447.381 433.371 447.199 432.753 447.199C432.038 447.199 431.473 447.423 431.057 447.871C430.641 448.309 430.433 448.965 430.433 449.839V454.079H429.041V446.079H430.433V447.231C430.987 446.325 431.851 445.871 433.025 445.871ZM444.696 447.455V442.879H446.088V454.079H444.696V452.703C444.013 453.759 443.005 454.287 441.672 454.287C440.541 454.287 439.587 453.882 438.808 453.071C438.019 452.25 437.624 451.253 437.624 450.079C437.624 448.917 438.019 447.925 438.808 447.103C439.597 446.282 440.552 445.871 441.672 445.871C443.005 445.871 444.013 446.399 444.696 447.455ZM441.848 452.943C442.659 452.943 443.336 452.671 443.88 452.127C444.424 451.562 444.696 450.879 444.696 450.079C444.696 449.269 444.424 448.591 443.88 448.047C443.336 447.493 442.659 447.215 441.848 447.215C441.048 447.215 440.376 447.493 439.832 448.047C439.288 448.591 439.016 449.269 439.016 450.079C439.016 450.879 439.288 451.562 439.832 452.127C440.376 452.671 441.048 452.943 441.848 452.943ZM206.81 468.951L210.762 473.079H209.034L205.386 469.287V473.079H203.994V461.879H205.386V468.615L208.842 465.079H210.634L206.81 468.951ZM212.76 463.623C212.494 463.623 212.27 463.533 212.088 463.351C211.907 463.17 211.816 462.951 211.816 462.695C211.816 462.439 211.907 462.221 212.088 462.039C212.27 461.847 212.494 461.751 212.76 461.751C213.016 461.751 213.235 461.847 213.416 462.039C213.598 462.221 213.688 462.439 213.688 462.695C213.688 462.951 213.598 463.17 213.416 463.351C213.235 463.533 213.016 463.623 212.76 463.623ZM213.448 473.079H212.056V465.079H213.448V473.079ZM219.332 473.287C218.127 473.287 217.124 472.887 216.324 472.087C215.524 471.277 215.124 470.274 215.124 469.079C215.124 467.885 215.524 466.887 216.324 466.087C217.124 465.277 218.127 464.871 219.332 464.871C220.121 464.871 220.831 465.063 221.46 465.447C222.089 465.821 222.559 466.327 222.868 466.967L221.7 467.639C221.497 467.213 221.183 466.871 220.756 466.615C220.34 466.359 219.865 466.231 219.332 466.231C218.532 466.231 217.86 466.503 217.316 467.047C216.783 467.602 216.516 468.279 216.516 469.079C216.516 469.869 216.783 470.541 217.316 471.095C217.86 471.639 218.532 471.911 219.332 471.911C219.865 471.911 220.345 471.789 220.772 471.543C221.199 471.287 221.524 470.946 221.748 470.519L222.932 471.207C222.58 471.847 222.084 472.354 221.444 472.727C220.804 473.101 220.1 473.287 219.332 473.287ZM227.122 468.951L231.074 473.079H229.346L225.698 469.287V473.079H224.306V461.879H225.698V468.615L229.154 465.079H230.946L227.122 468.951ZM240.721 465.079V466.423H238.593V470.759C238.593 471.154 238.667 471.437 238.817 471.607C238.977 471.767 239.217 471.853 239.537 471.863C239.857 471.863 240.251 471.853 240.721 471.831V473.079C239.494 473.239 238.598 473.138 238.033 472.775C237.478 472.413 237.201 471.741 237.201 470.759V466.423H235.617V465.079H237.201V463.255L238.593 462.839V465.079H240.721ZM246.353 464.871C247.291 464.871 248.043 465.17 248.609 465.767C249.174 466.354 249.457 467.154 249.457 468.167V473.079H248.065V468.247C248.065 467.607 247.889 467.106 247.537 466.743C247.185 466.381 246.699 466.199 246.081 466.199C245.366 466.199 244.801 466.423 244.385 466.871C243.969 467.309 243.761 467.965 243.761 468.839V473.079H242.369V461.879H243.761V466.231C244.315 465.325 245.179 464.871 246.353 464.871ZM252.104 463.623C251.837 463.623 251.613 463.533 251.432 463.351C251.251 463.17 251.16 462.951 251.16 462.695C251.16 462.439 251.251 462.221 251.432 462.039C251.613 461.847 251.837 461.751 252.104 461.751C252.36 461.751 252.579 461.847 252.76 462.039C252.941 462.221 253.032 462.439 253.032 462.695C253.032 462.951 252.941 463.17 252.76 463.351C252.579 463.533 252.36 463.623 252.104 463.623ZM252.792 473.079H251.4V465.079H252.792V473.079ZM258.9 464.871C259.838 464.871 260.59 465.17 261.156 465.767C261.721 466.354 262.004 467.154 262.004 468.167V473.079H260.612V468.247C260.612 467.607 260.436 467.106 260.084 466.743C259.732 466.381 259.246 466.199 258.628 466.199C257.913 466.199 257.348 466.423 256.932 466.871C256.516 467.309 256.308 467.965 256.308 468.839V473.079H254.916V465.079H256.308V466.231C256.862 465.325 257.726 464.871 258.9 464.871ZM270.587 466.455V465.079H271.963V472.743C271.963 473.927 271.563 474.845 270.763 475.495C269.952 476.157 268.992 476.487 267.883 476.487C266.987 476.487 266.214 476.317 265.563 475.975C264.912 475.645 264.422 475.165 264.091 474.535L265.307 473.847C265.744 474.743 266.614 475.191 267.915 475.191C268.747 475.191 269.398 474.973 269.867 474.535C270.347 474.098 270.587 473.501 270.587 472.743V471.607C269.883 472.674 268.88 473.207 267.579 473.207C266.427 473.207 265.462 472.802 264.683 471.991C263.894 471.17 263.499 470.183 263.499 469.031C263.499 467.879 263.894 466.898 264.683 466.087C265.462 465.277 266.427 464.871 267.579 464.871C268.891 464.871 269.894 465.399 270.587 466.455ZM270.587 469.031C270.587 468.231 270.315 467.559 269.771 467.015C269.227 466.471 268.55 466.199 267.739 466.199C266.928 466.199 266.251 466.471 265.707 467.015C265.163 467.559 264.891 468.231 264.891 469.031C264.891 469.842 265.163 470.519 265.707 471.063C266.251 471.607 266.928 471.879 267.739 471.879C268.55 471.879 269.227 471.607 269.771 471.063C270.315 470.519 270.587 469.842 270.587 469.031ZM275.256 467.239C275.256 467.751 275.784 468.151 276.84 468.439C277.235 468.525 277.566 468.615 277.832 468.711C278.11 468.797 278.408 468.93 278.728 469.111C279.059 469.293 279.31 469.533 279.48 469.831C279.651 470.13 279.736 470.482 279.736 470.887C279.736 471.613 279.454 472.194 278.888 472.631C278.323 473.069 277.608 473.287 276.744 473.287C275.976 473.287 275.31 473.122 274.744 472.791C274.19 472.45 273.795 471.991 273.56 471.415L274.76 470.727C274.888 471.111 275.128 471.415 275.48 471.639C275.832 471.863 276.254 471.975 276.744 471.975C277.224 471.975 277.608 471.885 277.896 471.703C278.184 471.522 278.328 471.25 278.328 470.887C278.328 470.343 277.8 469.949 276.744 469.703C276.392 469.607 276.126 469.533 275.944 469.479C275.763 469.426 275.512 469.33 275.192 469.191C274.883 469.053 274.648 468.909 274.488 468.759C274.328 468.599 274.179 468.391 274.04 468.135C273.912 467.869 273.848 467.575 273.848 467.255C273.848 466.562 274.115 465.991 274.648 465.543C275.192 465.095 275.87 464.871 276.68 464.871C277.331 464.871 277.907 465.021 278.408 465.319C278.92 465.607 279.304 466.013 279.56 466.535L278.392 467.191C278.104 466.509 277.534 466.167 276.68 466.167C276.275 466.167 275.934 466.263 275.656 466.455C275.39 466.647 275.256 466.909 275.256 467.239ZM292.136 472.071C291.326 472.882 290.328 473.287 289.144 473.287C287.96 473.287 286.963 472.882 286.152 472.071C285.342 471.261 284.936 470.263 284.936 469.079C284.936 467.895 285.342 466.898 286.152 466.087C286.963 465.277 287.96 464.871 289.144 464.871C290.328 464.871 291.326 465.277 292.136 466.087C292.958 466.909 293.368 467.906 293.368 469.079C293.368 470.253 292.958 471.25 292.136 472.071ZM289.144 471.927C289.944 471.927 290.616 471.655 291.16 471.111C291.704 470.567 291.976 469.89 291.976 469.079C291.976 468.269 291.704 467.591 291.16 467.047C290.616 466.503 289.944 466.231 289.144 466.231C288.355 466.231 287.688 466.503 287.144 467.047C286.6 467.591 286.328 468.269 286.328 469.079C286.328 469.89 286.6 470.567 287.144 471.111C287.688 471.655 288.355 471.927 289.144 471.927ZM303.176 461.511V462.855C301.779 462.738 301.08 463.346 301.08 464.679V465.079H303.176V466.423H301.08V473.079H299.688V466.423H296.712V473.079H295.32V466.423H294.04V465.079H295.32V464.839C295.32 463.751 295.624 462.935 296.232 462.391C296.84 461.837 297.704 461.597 298.824 461.671V463.015C297.416 462.898 296.712 463.506 296.712 464.839V465.079H299.688V464.679C299.688 463.591 299.987 462.775 300.584 462.231C301.192 461.677 302.056 461.437 303.176 461.511ZM305.652 469.799H304.58L304.276 465.079V461.879H305.956V465.079L305.652 469.799ZM305.108 473.255C304.82 473.255 304.575 473.154 304.372 472.951C304.169 472.749 304.068 472.503 304.068 472.215C304.068 471.927 304.169 471.682 304.372 471.479C304.575 471.277 304.82 471.175 305.108 471.175C305.407 471.175 305.652 471.277 305.844 471.479C306.047 471.682 306.148 471.927 306.148 472.215C306.148 472.503 306.047 472.749 305.844 472.951C305.652 473.154 305.407 473.255 305.108 473.255Z" fill="#7F7F7F"/>
<path d="M246.052 246.191H238.238C236.354 246.191 234.856 245.274 233.51 243.992C230.756 241.368 235.278 239.271 237.003 238.244C239.384 236.827 242.142 236.244 244.833 236.495" stroke="black" stroke-width="1.82865" stroke-linecap="round" stroke-linejoin="round"/>
<path d="M249.1 227.295C249.1 230.325 246.643 232.781 243.614 232.781C240.584 232.781 238.128 230.325 238.128 227.295C238.128 224.265 240.584 221.809 243.614 221.809C246.643 221.809 249.1 224.265 249.1 227.295Z" stroke="black" stroke-width="1.82865"/>
<path d="M248.508 238.129C249.816 237.349 250.957 237.663 251.643 238.164C251.924 238.369 252.065 238.472 252.147 238.472C252.23 238.472 252.371 238.369 252.652 238.164C253.337 237.663 254.479 237.349 255.786 238.129C257.503 239.152 257.891 242.529 253.932 245.377C253.178 245.92 252.801 246.191 252.147 246.191C251.493 246.191 251.116 245.92 250.362 245.377C246.404 242.529 246.792 239.152 248.508 238.129Z" stroke="black" stroke-width="1.82865" stroke-linecap="round"/>
<defs>
<linearGradient id="paint0_linear_6043_5252" x1="244.514" y1="84.3282" x2="244.514" y2="381.667" gradientUnits="userSpaceOnUse">
<stop offset="0.605" stop-color="#EEEEEE"/>
<stop offset="1" stop-color="white"/>
</linearGradient>
<linearGradient id="paint1_linear_6043_5252" x1="244.515" y1="41.1096" x2="244.515" y2="424.886" gradientUnits="userSpaceOnUse">
<stop offset="0.605" stop-color="#EEEEEE"/>
<stop offset="1" stop-color="white"/>
</linearGradient>
<linearGradient id="paint2_linear_6043_5252" x1="244.515" y1="0.916351" x2="244.515" y2="465.079" gradientUnits="userSpaceOnUse">
<stop offset="0.605" stop-color="#EEEEEE"/>
<stop offset="1" stop-color="white"/>
</linearGradient>
<clipPath id="clip0_6043_5252">
<rect width="21.2499" height="21.2499" fill="white" transform="translate(391.5 116.322)"/>
</clipPath>
<clipPath id="clip1_6043_5252">
<rect width="16.8042" height="16.8042" fill="white" transform="translate(22.7239 140.022)"/>
</clipPath>
<clipPath id="clip2_6043_5252">
<rect width="19.6283" height="19.6283" fill="white" transform="translate(471.971 216.839)"/>
</clipPath>
</defs>
</svg>
