<svg width="510" height="487" viewBox="0 0 510 487" fill="none" xmlns="http://www.w3.org/2000/svg">
<path d="M302.781 232.998C302.781 265.176 276.694 291.262 244.514 291.262C212.334 291.262 186.248 265.176 186.248 232.998C186.248 200.82 212.334 174.734 244.514 174.734C276.694 174.734 302.781 200.82 302.781 232.998Z" stroke="#EEEEEE" stroke-width="2"/>
<path d="M343.263 232.998C343.263 287.533 299.052 331.743 244.514 331.743C189.976 331.743 145.765 287.533 145.765 232.998C145.765 178.463 189.976 134.253 244.514 134.253C299.052 134.253 343.263 178.463 343.263 232.998Z" stroke="#EEEEEE" stroke-width="2"/>
<path d="M392.191 232.998C392.191 314.553 326.074 380.667 244.514 380.667C162.955 380.667 96.8381 314.553 96.8381 232.998C96.8381 151.442 162.955 85.3282 244.514 85.3282C326.074 85.3282 392.191 151.442 392.191 232.998Z" stroke="url(#paint0_linear_6043_5252)" stroke-width="2"/>
<path d="M435.412 232.998C435.412 338.423 349.945 423.886 244.515 423.886C139.086 423.886 53.6182 338.423 53.6182 232.998C53.6182 127.573 139.086 42.1096 244.515 42.1096C349.945 42.1096 435.412 127.573 435.412 232.998Z" stroke="url(#paint1_linear_6043_5252)" stroke-width="2"/>
<path d="M475.607 232.998C475.607 360.621 372.144 464.079 244.515 464.079C116.886 464.079 13.4231 360.621 13.4231 232.998C13.4231 105.375 116.886 1.91635 244.515 1.91635C372.144 1.91635 475.607 105.375 475.607 232.998Z" stroke="url(#paint2_linear_6043_5252)" stroke-width="2"/>
<rect x="58.4333" y="295.031" width="37.4049" height="37.7117" rx="7.73649" fill="#F1F1F1"/>
<path d="M69.167 311.231C69.167 308.726 69.167 307.474 69.945 306.696C70.723 305.918 71.9751 305.918 74.4795 305.918H79.7919C82.2962 305.918 83.5484 305.918 84.3264 306.696C85.1044 307.474 85.1044 308.726 85.1044 311.231V315.658C85.1044 317.327 85.1044 318.162 84.5857 318.681C84.0671 319.199 83.2323 319.199 81.5628 319.199H72.7086C71.0391 319.199 70.2043 319.199 69.6857 318.681C69.167 318.162 69.167 317.327 69.167 315.658V311.231Z" stroke="#707072" stroke-width="1.32812"/>
<path d="M85.9905 321.856H68.2822" stroke="#707072" stroke-width="1.32812" stroke-linecap="round"/>
<path d="M79.7922 316.543H74.4797" stroke="#707072" stroke-width="1.32812" stroke-linecap="round"/>
<rect x="115.438" y="9.10739" width="37.4049" height="37.7117" rx="7.73649" fill="#F1F1F1"/>
<path d="M126.171 25.307C126.171 22.8027 126.171 21.5505 126.949 20.7725C127.727 19.9945 128.979 19.9945 131.484 19.9945H136.796C139.3 19.9945 140.553 19.9945 141.331 20.7725C142.109 21.5505 142.109 22.8027 142.109 25.307V29.734C142.109 31.4036 142.109 32.2383 141.59 32.757C141.071 33.2757 140.236 33.2757 138.567 33.2757H129.713C128.043 33.2757 127.208 33.2757 126.69 32.757C126.171 32.2383 126.171 31.4036 126.171 29.734V25.307Z" stroke="#707072" stroke-width="1.32812"/>
<path d="M142.995 35.9319H125.286" stroke="#707072" stroke-width="1.32812" stroke-linecap="round"/>
<path d="M136.796 30.6194H131.484" stroke="#707072" stroke-width="1.32812" stroke-linecap="round"/>
<rect x="393.271" y="303.262" width="37.4049" height="37.7117" rx="7.73649" fill="#F1F1F1"/>
<path d="M414.629 328.316L416.4 330.086L419.942 326.545M412.858 314.149H408.608C407.617 314.149 407.121 314.149 406.742 314.342C406.409 314.512 406.138 314.783 405.968 315.116C405.775 315.495 405.775 315.991 405.775 316.982V327.253C405.775 328.245 405.775 328.741 405.968 329.12C406.138 329.453 406.409 329.724 406.742 329.893C407.121 330.086 407.617 330.086 408.608 330.086H411.973M412.858 314.149L418.171 319.462M412.858 314.149V318.045C412.858 318.541 412.858 318.789 412.955 318.978C413.04 319.145 413.175 319.28 413.342 319.365C413.531 319.462 413.779 319.462 414.275 319.462H418.171M418.171 319.462V323.446" stroke="#707072" stroke-width="1.77082" stroke-linecap="round" stroke-linejoin="round"/>
<rect x="344.263" y="11.7636" width="37.4049" height="37.7117" rx="7.73649" fill="#F1F1F1"/>
<path d="M365.621 36.8174L367.392 38.5882L370.934 35.0466M363.851 22.6508H359.601C358.609 22.6508 358.113 22.6508 357.734 22.8438C357.401 23.0136 357.13 23.2845 356.96 23.6177C356.767 23.9965 356.767 24.4924 356.767 25.4841V35.7549C356.767 36.7467 356.767 37.2426 356.96 37.6214C357.13 37.9545 357.401 38.2255 357.734 38.3952C358.113 38.5882 358.609 38.5882 359.601 38.5882H362.965M363.851 22.6508L369.163 27.9633M363.851 22.6508V26.5466C363.851 27.0425 363.851 27.2904 363.947 27.4798C364.032 27.6464 364.167 27.7819 364.334 27.8668C364.523 27.9633 364.771 27.9633 365.267 27.9633H369.163M369.163 27.9633V31.9476" stroke="#707072" stroke-width="1.77082" stroke-linecap="round" stroke-linejoin="round"/>
<rect x="144.765" y="154.878" width="37.4049" height="37.7117" rx="7.73649" fill="#F1F1F1"/>
<path d="M171.232 168.08C171.232 168.559 171.042 169.018 170.704 169.356C170.365 169.695 169.907 169.885 169.428 169.886H168.862V179.276C168.862 179.754 168.672 180.213 168.333 180.551C167.995 180.889 167.537 181.079 167.058 181.08H157.506C157.269 181.08 157.034 181.033 156.815 180.942C156.596 180.852 156.398 180.719 156.23 180.551C156.062 180.384 155.929 180.185 155.839 179.966C155.748 179.747 155.701 179.512 155.701 179.275C155.701 179.038 155.748 178.804 155.839 178.585C155.929 178.366 156.062 178.167 156.23 177.999C156.398 177.832 156.596 177.699 156.815 177.608C157.034 177.517 157.269 177.471 157.506 177.471H158.071V168.08C158.071 167.602 158.261 167.142 158.599 166.804C158.938 166.465 159.397 166.275 159.876 166.274H169.427C169.906 166.275 170.365 166.465 170.703 166.803C171.042 167.142 171.232 167.601 171.232 168.079V168.08ZM157.506 179.841H165.343C165.222 179.474 165.222 179.078 165.343 178.711H157.508C157.358 178.711 157.215 178.77 157.109 178.876C157.003 178.982 156.943 179.126 156.943 179.276C156.943 179.426 157.003 179.569 157.109 179.675C157.215 179.781 157.358 179.841 157.508 179.841H157.506ZM167.622 168.08C167.622 167.889 167.652 167.698 167.712 167.516H159.877C159.751 167.515 159.629 167.558 159.53 167.635L159.528 167.636C159.461 167.689 159.406 167.756 159.368 167.833C159.331 167.91 159.312 167.995 159.312 168.08V177.471H166.4C166.554 177.469 166.705 177.52 166.826 177.614C166.948 177.709 167.034 177.843 167.071 177.993C167.113 178.137 167.109 178.29 167.058 178.431C167.008 178.572 166.914 178.694 166.79 178.778C166.702 178.826 166.629 178.896 166.577 178.981C166.525 179.066 166.497 179.163 166.495 179.263C166.493 179.363 166.517 179.461 166.566 179.548C166.614 179.636 166.685 179.708 166.77 179.759C166.856 179.811 166.953 179.838 167.053 179.839C167.153 179.84 167.251 179.815 167.338 179.766C167.425 179.717 167.497 179.646 167.547 179.559C167.597 179.473 167.624 179.375 167.624 179.276L167.622 168.08ZM166.66 169.689H160.218V170.927H166.66V169.689ZM166.66 172.216H160.218V173.454H166.66V172.216ZM166.66 174.744H160.218V175.983H166.66V174.744ZM169.992 168.08C169.992 167.931 169.932 167.787 169.826 167.681C169.72 167.576 169.577 167.516 169.427 167.516C169.301 167.515 169.179 167.557 169.08 167.635H169.078C169.01 167.688 168.956 167.755 168.918 167.833C168.88 167.91 168.861 167.995 168.861 168.08V168.645H169.427C169.577 168.645 169.72 168.585 169.826 168.48C169.932 168.374 169.992 168.23 169.992 168.08Z" fill="#707072"/>
<rect x="383.423" y="108.091" width="37.4049" height="37.7117" rx="7.73649" fill="#F1F1F1"/>
<g clip-path="url(#clip0_6043_5252)">
<path d="M406.303 133.811L405.736 129.274C405.57 127.944 404.44 126.947 403.1 126.947H402.125H401.149C399.81 126.947 398.68 127.944 398.514 129.274L397.947 133.811C397.814 134.867 398.639 135.801 399.704 135.801H402.125H404.546C405.611 135.801 406.435 134.867 406.303 133.811Z" stroke="#707072" stroke-width="1.77082" stroke-linecap="round" stroke-linejoin="round"/>
<path d="M402.124 123.405C403.591 123.405 404.78 122.216 404.78 120.749C404.78 119.282 403.591 118.093 402.124 118.093C400.657 118.093 399.468 119.282 399.468 120.749C399.468 122.216 400.657 123.405 402.124 123.405Z" stroke="#707072" stroke-width="1.77082"/>
<path d="M395.041 126.062C396.019 126.062 396.812 125.269 396.812 124.291C396.812 123.313 396.019 122.52 395.041 122.52C394.063 122.52 393.271 123.313 393.271 124.291C393.271 125.269 394.063 126.062 395.041 126.062Z" stroke="#707072" stroke-width="1.77082"/>
<path d="M409.208 126.062C410.186 126.062 410.979 125.269 410.979 124.291C410.979 123.313 410.186 122.52 409.208 122.52C408.23 122.52 407.437 123.313 407.437 124.291C407.437 125.269 408.23 126.062 409.208 126.062Z" stroke="#707072" stroke-width="1.77082"/>
<path d="M395.041 128.718H394.77C393.905 128.718 393.166 129.344 393.024 130.198L392.728 131.968C392.548 133.048 393.381 134.03 394.475 134.03H397.697" stroke="#707072" stroke-width="1.77082" stroke-linecap="round" stroke-linejoin="round"/>
<path d="M409.208 128.718H409.479C410.344 128.718 411.083 129.344 411.225 130.198L411.521 131.968C411.7 133.048 410.868 134.03 409.774 134.03C408.745 134.03 407.521 134.03 406.552 134.03" stroke="#707072" stroke-width="1.77082" stroke-linecap="round" stroke-linejoin="round"/>
</g>
<rect x="194.859" y="306.537" width="37.4049" height="37.7117" rx="7.73649" fill="#F1F1F1"/>
<path d="M213.562 329.82V333.362M210.02 333.362H217.103M208.426 329.82H218.697C219.689 329.82 220.185 329.82 220.564 329.627C220.897 329.457 221.168 329.186 221.337 328.853C221.53 328.475 221.53 327.979 221.53 326.987V320.258C221.53 319.266 221.53 318.77 221.337 318.391C221.168 318.058 220.897 317.787 220.564 317.617C220.185 317.424 219.689 317.424 218.697 317.424H208.426C207.435 317.424 206.939 317.424 206.56 317.617C206.227 317.787 205.956 318.058 205.786 318.391C205.593 318.77 205.593 319.266 205.593 320.258V326.987C205.593 327.979 205.593 328.475 205.786 328.853C205.956 329.186 206.227 329.457 206.56 329.627C206.939 329.82 207.435 329.82 208.426 329.82Z" stroke="#707072" stroke-width="1.77082" stroke-linecap="round"/>
<rect x="325.561" y="195.286" width="37.4049" height="37.7117" rx="7.73649" fill="#F1F1F1"/>
<path fill-rule="evenodd" clip-rule="evenodd" d="M335.922 208.929C335.922 207.202 337.323 205.801 339.05 205.801H344.263H349.476C351.203 205.801 352.604 207.202 352.604 208.929V214.142V219.355C352.604 221.082 351.203 222.483 349.476 222.483H344.263H339.05C337.323 222.483 335.922 221.082 335.922 219.355V214.142V208.929ZM339.05 207.886C338.474 207.886 338.008 208.353 338.008 208.929V213.099H343.22V207.886H339.05ZM345.306 207.886V213.099H350.519V208.929C350.519 208.353 350.052 207.886 349.476 207.886H345.306ZM350.519 215.184H345.306V220.397H349.476C350.052 220.397 350.519 219.931 350.519 219.355V215.184ZM343.22 220.397V215.184H338.008V219.355C338.008 219.931 338.474 220.397 339.05 220.397H343.22Z" fill="#707072"/>
<rect x="224.187" y="70.3794" width="37.4049" height="37.7117" rx="7.73649" fill="#F1F1F1"/>
<path fill-rule="evenodd" clip-rule="evenodd" d="M234.548 84.0221C234.548 82.2947 235.949 80.8944 237.676 80.8944H242.889H248.102C249.829 80.8944 251.23 82.2947 251.23 84.0221V89.2351V94.448C251.23 96.1755 249.829 97.5758 248.102 97.5758H242.889H237.676C235.949 97.5758 234.548 96.1755 234.548 94.448V89.2351V84.0221ZM237.676 82.9796C237.1 82.9796 236.634 83.4463 236.634 84.0221V88.1925H241.846V82.9796H237.676ZM243.932 82.9796V88.1925H249.145V84.0221C249.145 83.4463 248.678 82.9796 248.102 82.9796H243.932ZM249.145 90.2777H243.932V95.4906H248.102C248.678 95.4906 249.145 95.0238 249.145 94.448V90.2777ZM241.846 95.4906V90.2777H236.634V94.448C236.634 95.0238 237.1 95.4906 237.676 95.4906H241.846Z" fill="#707072"/>
<rect x="12.4231" y="129.569" width="37.4049" height="37.7117" rx="7.73649" fill="#F1F1F1"/>
<g clip-path="url(#clip1_6043_5252)">
<path fill-rule="evenodd" clip-rule="evenodd" d="M36.8313 150.852L28.7569 156.311C26.7894 157.641 24.1245 156.244 24.1245 153.884V142.966C24.1245 140.605 26.7894 139.208 28.7569 140.539L36.8313 145.997C38.5565 147.164 38.5565 149.686 36.8313 150.852Z" fill="#707072"/>
</g>
<path d="M178.094 407.24V394.063H181.284V413.482H178.787L169.632 400.305V413.482H166.442V394.063H168.939L178.094 407.24ZM196.703 411.734C195.298 413.14 193.568 413.843 191.515 413.843C189.463 413.843 187.733 413.14 186.328 411.734C184.904 410.31 184.192 408.581 184.192 406.547C184.192 404.512 184.904 402.783 186.328 401.359C187.733 399.953 189.463 399.25 191.515 399.25C193.568 399.25 195.298 399.953 196.703 401.359C198.127 402.783 198.839 404.512 198.839 406.547C198.839 408.581 198.127 410.31 196.703 411.734ZM187.188 406.547C187.188 407.804 187.604 408.849 188.436 409.681C189.268 410.514 190.295 410.93 191.515 410.93C192.736 410.93 193.763 410.514 194.595 409.681C195.427 408.849 195.843 407.804 195.843 406.547C195.843 405.289 195.427 404.244 194.595 403.412C193.763 402.579 192.736 402.163 191.515 402.163C190.295 402.163 189.268 402.579 188.436 403.412C187.604 404.244 187.188 405.289 187.188 406.547ZM211.48 399.611V401.941C212.239 400.221 213.663 399.361 215.753 399.361V402.607C214.624 402.533 213.626 402.811 212.756 403.439C211.906 404.05 211.48 405.067 211.48 406.491V413.482H208.484V399.611H211.48ZM230.716 407.823H219.674C219.896 408.858 220.395 409.663 221.172 410.236C221.968 410.81 222.948 411.096 224.113 411.096C225.685 411.096 226.878 410.523 227.692 409.376L230.161 410.819C228.811 412.835 226.785 413.843 224.085 413.843C221.847 413.843 220.026 413.158 218.62 411.79C217.233 410.403 216.539 408.655 216.539 406.547C216.539 404.494 217.224 402.764 218.592 401.359C219.942 399.953 221.699 399.25 223.863 399.25C225.879 399.25 227.544 399.962 228.857 401.387C230.17 402.811 230.827 404.54 230.827 406.574C230.827 406.944 230.79 407.36 230.716 407.823ZM219.646 405.381H227.803C227.599 404.29 227.137 403.449 226.416 402.857C225.713 402.265 224.853 401.969 223.835 401.969C222.726 401.969 221.801 402.274 221.061 402.885C220.321 403.495 219.85 404.327 219.646 405.381ZM241.314 399.25C243.2 399.25 244.828 399.962 246.197 401.387C247.547 402.792 248.222 404.512 248.222 406.547C248.222 408.599 247.547 410.329 246.197 411.734C244.846 413.14 243.219 413.843 241.314 413.843C239.224 413.843 237.606 413.066 236.459 411.512V419.031H233.463V399.611H236.459V401.608C237.587 400.036 239.206 399.25 241.314 399.25ZM237.707 409.737C238.54 410.569 239.585 410.985 240.842 410.985C242.1 410.985 243.145 410.569 243.977 409.737C244.809 408.886 245.226 407.823 245.226 406.547C245.226 405.27 244.809 404.216 243.977 403.384C243.145 402.533 242.1 402.108 240.842 402.108C239.585 402.108 238.54 402.533 237.707 403.384C236.875 404.216 236.459 405.27 236.459 406.547C236.459 407.804 236.875 408.868 237.707 409.737ZM262.672 411.734C261.267 413.14 259.537 413.843 257.484 413.843C255.431 413.843 253.702 413.14 252.297 411.734C250.872 410.31 250.16 408.581 250.16 406.547C250.16 404.512 250.872 402.783 252.297 401.359C253.702 399.953 255.431 399.25 257.484 399.25C259.537 399.25 261.267 399.953 262.672 401.359C264.096 402.783 264.808 404.512 264.808 406.547C264.808 408.581 264.096 410.31 262.672 411.734ZM253.157 406.547C253.157 407.804 253.573 408.849 254.405 409.681C255.237 410.514 256.264 410.93 257.484 410.93C258.705 410.93 259.731 410.514 260.564 409.681C261.396 408.849 261.812 407.804 261.812 406.547C261.812 405.289 261.396 404.244 260.564 403.412C259.731 402.579 258.705 402.163 257.484 402.163C256.264 402.163 255.237 402.579 254.405 403.412C253.573 404.244 253.157 405.289 253.157 406.547ZM270.514 399.611V401.941C271.272 400.221 272.696 399.361 274.786 399.361V402.607C273.658 402.533 272.659 402.811 271.79 403.439C270.939 404.05 270.514 405.067 270.514 406.491V413.482H267.517V399.611H270.514ZM285.092 399.611V402.496H281.652V409.154C281.652 409.728 281.781 410.144 282.04 410.403C282.299 410.643 282.678 410.782 283.178 410.819C283.696 410.837 284.334 410.828 285.092 410.791V413.482C282.799 413.76 281.153 413.565 280.154 412.9C279.155 412.215 278.656 410.967 278.656 409.154V402.496H276.103V399.611H278.656V396.615L281.652 395.727V399.611H285.092ZM289.986 403.439C289.986 403.865 290.207 404.216 290.651 404.494C291.095 404.753 291.743 405.002 292.593 405.243C293.241 405.391 293.805 405.548 294.286 405.714C294.766 405.881 295.275 406.13 295.811 406.463C296.348 406.778 296.755 407.203 297.032 407.739C297.328 408.257 297.467 408.868 297.448 409.57C297.448 410.902 296.93 411.947 295.895 412.705C294.859 413.464 293.574 413.843 292.038 413.843C290.67 413.843 289.495 413.556 288.515 412.983C287.535 412.409 286.823 411.614 286.379 410.597L288.959 409.099C289.421 410.43 290.448 411.096 292.038 411.096C293.611 411.096 294.397 410.578 294.397 409.543C294.397 408.784 293.518 408.193 291.761 407.767C291.095 407.601 290.531 407.434 290.069 407.268C289.625 407.101 289.126 406.861 288.571 406.547C288.034 406.232 287.618 405.816 287.322 405.298C287.045 404.78 286.915 404.179 286.934 403.495C286.934 402.219 287.415 401.192 288.377 400.416C289.357 399.639 290.568 399.25 292.011 399.25C293.157 399.25 294.175 399.509 295.062 400.027C295.969 400.526 296.662 401.229 297.143 402.136L294.618 403.55C294.156 402.496 293.287 401.969 292.011 401.969C291.419 401.969 290.929 402.099 290.54 402.357C290.171 402.616 289.986 402.977 289.986 403.439ZM312.816 409.681L316.367 399.611H319.557L314.23 413.926C312.899 417.514 310.642 419.215 307.461 419.031V416.229C308.386 416.284 309.135 416.09 309.709 415.646C310.282 415.202 310.763 414.49 311.151 413.51L311.29 413.232L305.408 399.611H308.682L312.816 409.681ZM334.288 407.823H323.247C323.469 408.858 323.968 409.663 324.745 410.236C325.54 410.81 326.52 411.096 327.685 411.096C329.257 411.096 330.45 410.523 331.264 409.376L333.733 410.819C332.383 412.835 330.358 413.843 327.658 413.843C325.42 413.843 323.598 413.158 322.192 411.79C320.805 410.403 320.112 408.655 320.112 406.547C320.112 404.494 320.796 402.764 322.165 401.359C323.515 399.953 325.272 399.25 327.436 399.25C329.452 399.25 331.116 399.962 332.429 401.387C333.742 402.811 334.399 404.54 334.399 406.574C334.399 406.944 334.362 407.36 334.288 407.823ZM323.219 405.381H331.375C331.172 404.29 330.709 403.449 329.988 402.857C329.285 402.265 328.425 401.969 327.408 401.969C326.298 401.969 325.374 402.274 324.634 402.885C323.894 403.495 323.422 404.327 323.219 405.381ZM344.342 399.611V402.496H340.902V409.154C340.902 409.728 341.031 410.144 341.29 410.403C341.549 410.643 341.928 410.782 342.428 410.819C342.946 410.837 343.584 410.828 344.342 410.791V413.482C342.049 413.76 340.403 413.565 339.404 412.9C338.405 412.215 337.906 410.967 337.906 409.154V402.496H335.354V399.611H337.906V396.615L340.902 395.727V399.611H344.342Z" fill="black"/>
<rect x="463.083" y="207.797" width="37.4049" height="37.7117" rx="7.73649" fill="#F1F1F1"/>
<g clip-path="url(#clip2_6043_5252)">
<path d="M486.999 216.839H476.571C476.164 216.839 475.774 217.001 475.487 217.288C475.199 217.576 475.038 217.966 475.038 218.372V234.934C475.038 235.341 475.199 235.731 475.487 236.018C475.774 236.306 476.164 236.467 476.571 236.467H486.999C487.405 236.467 487.795 236.306 488.083 236.018C488.371 235.731 488.532 235.341 488.532 234.934V218.372C488.532 217.966 488.371 217.576 488.083 217.288C487.795 217.001 487.405 216.839 486.999 216.839ZM486.999 234.934H476.571V218.372H486.999V234.934Z" fill="#707072"/>
<path d="M481.786 233.4C482.328 233.4 482.767 232.988 482.767 232.48C482.767 231.972 482.328 231.56 481.786 231.56C481.244 231.56 480.804 231.972 480.804 232.48C480.804 232.988 481.244 233.4 481.786 233.4Z" fill="#707072"/>
</g>
<path d="M68.0617 442.879H76.1417V444.287H72.8297V454.079H71.3577V444.287H68.0617V442.879ZM81.4543 445.871C82.393 445.871 83.145 446.17 83.7103 446.767C84.2756 447.354 84.5583 448.154 84.5583 449.167V454.079H83.1663V449.247C83.1663 448.607 82.9903 448.106 82.6383 447.743C82.2863 447.381 81.801 447.199 81.1823 447.199C80.4676 447.199 79.9023 447.423 79.4863 447.871C79.0703 448.309 78.8623 448.965 78.8623 449.839V454.079H77.4703V442.879H78.8623V447.231C79.417 446.325 80.281 445.871 81.4543 445.871ZM94.1816 450.719H87.4776C87.6162 451.423 87.9416 451.978 88.4536 452.383C88.9656 452.778 89.6056 452.975 90.3736 452.975C91.4296 452.975 92.1976 452.586 92.6776 451.807L93.8616 452.479C93.0722 453.685 91.8989 454.287 90.3416 454.287C89.0829 454.287 88.0482 453.893 87.2376 453.103C86.4482 452.293 86.0536 451.285 86.0536 450.079C86.0536 448.863 86.4429 447.861 87.2216 447.071C88.0002 446.271 89.0082 445.871 90.2456 445.871C91.4189 445.871 92.3736 446.287 93.1096 447.119C93.8562 447.93 94.2296 448.922 94.2296 450.095C94.2296 450.298 94.2136 450.506 94.1816 450.719ZM90.2456 447.183C89.5096 447.183 88.8909 447.391 88.3896 447.807C87.8989 448.223 87.5949 448.789 87.4776 449.503H92.8216C92.7042 448.767 92.4109 448.197 91.9416 447.791C91.4722 447.386 90.9069 447.183 90.2456 447.183ZM97.2217 446.079V447.423C97.6803 446.431 98.5123 445.935 99.7177 445.935V447.391C99.035 447.359 98.4483 447.541 97.9577 447.935C97.467 448.33 97.2217 448.965 97.2217 449.839V454.079H95.8297V446.079H97.2217ZM108.322 450.719H101.618C101.757 451.423 102.082 451.978 102.594 452.383C103.106 452.778 103.746 452.975 104.514 452.975C105.57 452.975 106.338 452.586 106.818 451.807L108.002 452.479C107.213 453.685 106.04 454.287 104.482 454.287C103.224 454.287 102.189 453.893 101.378 453.103C100.589 452.293 100.194 451.285 100.194 450.079C100.194 448.863 100.584 447.861 101.362 447.071C102.141 446.271 103.149 445.871 104.386 445.871C105.56 445.871 106.514 446.287 107.25 447.119C107.997 447.93 108.37 448.922 108.37 450.095C108.37 450.298 108.354 450.506 108.322 450.719ZM104.386 447.183C103.65 447.183 103.032 447.391 102.53 447.807C102.04 448.223 101.736 448.789 101.618 449.503H106.962C106.845 448.767 106.552 448.197 106.082 447.791C105.613 447.386 105.048 447.183 104.386 447.183ZM120.594 447.455V446.079H121.986V454.079H120.594V452.703C119.912 453.759 118.904 454.287 117.57 454.287C116.44 454.287 115.485 453.882 114.706 453.071C113.917 452.25 113.522 451.253 113.522 450.079C113.522 448.917 113.917 447.925 114.706 447.103C115.496 446.282 116.45 445.871 117.57 445.871C118.904 445.871 119.912 446.399 120.594 447.455ZM117.746 452.943C118.557 452.943 119.234 452.671 119.778 452.127C120.322 451.562 120.594 450.879 120.594 450.079C120.594 449.269 120.322 448.591 119.778 448.047C119.234 447.493 118.557 447.215 117.746 447.215C116.946 447.215 116.274 447.493 115.73 448.047C115.186 448.591 114.914 449.269 114.914 450.079C114.914 450.879 115.186 451.562 115.73 452.127C116.274 452.671 116.946 452.943 117.746 452.943ZM125.487 446.079V447.423C125.946 446.431 126.778 445.935 127.983 445.935V447.391C127.301 447.359 126.714 447.541 126.223 447.935C125.733 448.33 125.487 448.965 125.487 449.839V454.079H124.095V446.079H125.487ZM136.588 450.719H129.884C130.022 451.423 130.348 451.978 130.86 452.383C131.372 452.778 132.012 452.975 132.78 452.975C133.836 452.975 134.604 452.586 135.084 451.807L136.268 452.479C135.478 453.685 134.305 454.287 132.748 454.287C131.489 454.287 130.454 453.893 129.644 453.103C128.854 452.293 128.46 451.285 128.46 450.079C128.46 448.863 128.849 447.861 129.628 447.071C130.406 446.271 131.414 445.871 132.652 445.871C133.825 445.871 134.78 446.287 135.516 447.119C136.262 447.93 136.636 448.922 136.636 450.095C136.636 450.298 136.62 450.506 136.588 450.719ZM132.652 447.183C131.916 447.183 131.297 447.391 130.796 447.807C130.305 448.223 130.001 448.789 129.884 449.503H135.228C135.11 448.767 134.817 448.197 134.348 447.791C133.878 447.386 133.313 447.183 132.652 447.183ZM146.22 445.871C147.159 445.871 147.911 446.17 148.476 446.767C149.041 447.354 149.324 448.154 149.324 449.167V454.079H147.932V449.247C147.932 448.607 147.756 448.106 147.404 447.743C147.052 447.381 146.567 447.199 145.948 447.199C145.233 447.199 144.668 447.423 144.252 447.871C143.836 448.309 143.628 448.965 143.628 449.839V454.079H142.236V446.079H143.628V447.231C144.183 446.325 145.047 445.871 146.22 445.871ZM158.019 453.071C157.209 453.882 156.211 454.287 155.027 454.287C153.843 454.287 152.846 453.882 152.035 453.071C151.225 452.261 150.819 451.263 150.819 450.079C150.819 448.895 151.225 447.898 152.035 447.087C152.846 446.277 153.843 445.871 155.027 445.871C156.211 445.871 157.209 446.277 158.019 447.087C158.841 447.909 159.251 448.906 159.251 450.079C159.251 451.253 158.841 452.25 158.019 453.071ZM155.027 452.927C155.827 452.927 156.499 452.655 157.043 452.111C157.587 451.567 157.859 450.89 157.859 450.079C157.859 449.269 157.587 448.591 157.043 448.047C156.499 447.503 155.827 447.231 155.027 447.231C154.238 447.231 153.571 447.503 153.027 448.047C152.483 448.591 152.211 449.269 152.211 450.079C152.211 450.89 152.483 451.567 153.027 452.111C153.571 452.655 154.238 452.927 155.027 452.927ZM166.284 446.079V447.423C166.743 446.431 167.575 445.935 168.78 445.935V447.391C168.098 447.359 167.511 447.541 167.02 447.935C166.53 448.33 166.284 448.965 166.284 449.839V454.079H164.892V446.079H166.284ZM177.385 450.719H170.681C170.819 451.423 171.145 451.978 171.657 452.383C172.169 452.778 172.809 452.975 173.577 452.975C174.633 452.975 175.401 452.586 175.881 451.807L177.065 452.479C176.275 453.685 175.102 454.287 173.545 454.287C172.286 454.287 171.251 453.893 170.441 453.103C169.651 452.293 169.257 451.285 169.257 450.079C169.257 448.863 169.646 447.861 170.425 447.071C171.203 446.271 172.211 445.871 173.449 445.871C174.622 445.871 175.577 446.287 176.313 447.119C177.059 447.93 177.433 448.922 177.433 450.095C177.433 450.298 177.417 450.506 177.385 450.719ZM173.449 447.183C172.713 447.183 172.094 447.391 171.593 447.807C171.102 448.223 170.798 448.789 170.681 449.503H176.025C175.907 448.767 175.614 448.197 175.145 447.791C174.675 447.386 174.11 447.183 173.449 447.183ZM183.449 445.871C184.569 445.871 185.523 446.282 186.313 447.103C187.102 447.925 187.497 448.917 187.497 450.079C187.497 451.253 187.102 452.25 186.313 453.071C185.534 453.882 184.579 454.287 183.449 454.287C182.126 454.287 181.118 453.759 180.425 452.703V457.279H179.033V446.079H180.425V447.455C181.118 446.399 182.126 445.871 183.449 445.871ZM183.273 452.943C184.073 452.943 184.745 452.671 185.289 452.127C185.833 451.562 186.105 450.879 186.105 450.079C186.105 449.269 185.833 448.591 185.289 448.047C184.745 447.493 184.073 447.215 183.273 447.215C182.462 447.215 181.785 447.493 181.241 448.047C180.697 448.591 180.425 449.269 180.425 450.079C180.425 450.879 180.697 451.562 181.241 452.127C181.785 452.671 182.462 452.943 183.273 452.943ZM195.91 453.071C195.099 453.882 194.102 454.287 192.918 454.287C191.734 454.287 190.736 453.882 189.926 453.071C189.115 452.261 188.71 451.263 188.71 450.079C188.71 448.895 189.115 447.898 189.926 447.087C190.736 446.277 191.734 445.871 192.918 445.871C194.102 445.871 195.099 446.277 195.91 447.087C196.731 447.909 197.142 448.906 197.142 450.079C197.142 451.253 196.731 452.25 195.91 453.071ZM192.918 452.927C193.718 452.927 194.39 452.655 194.934 452.111C195.478 451.567 195.75 450.89 195.75 450.079C195.75 449.269 195.478 448.591 194.934 448.047C194.39 447.503 193.718 447.231 192.918 447.231C192.128 447.231 191.462 447.503 190.918 448.047C190.374 448.591 190.102 449.269 190.102 450.079C190.102 450.89 190.374 451.567 190.918 452.111C191.462 452.655 192.128 452.927 192.918 452.927ZM200.175 446.079V447.423C200.633 446.431 201.465 445.935 202.671 445.935V447.391C201.988 447.359 201.401 447.541 200.911 447.935C200.42 448.33 200.175 448.965 200.175 449.839V454.079H198.783V446.079H200.175ZM208.572 446.079V447.423H206.444V451.759C206.444 452.154 206.519 452.437 206.668 452.607C206.828 452.767 207.068 452.853 207.388 452.863C207.708 452.863 208.103 452.853 208.572 452.831V454.079C207.346 454.239 206.45 454.138 205.884 453.775C205.33 453.413 205.052 452.741 205.052 451.759V447.423H203.468V446.079H205.052V444.255L206.444 443.839V446.079H208.572ZM211.03 448.239C211.03 448.751 211.558 449.151 212.614 449.439C213.008 449.525 213.339 449.615 213.606 449.711C213.883 449.797 214.182 449.93 214.502 450.111C214.832 450.293 215.083 450.533 215.254 450.831C215.424 451.13 215.51 451.482 215.51 451.887C215.51 452.613 215.227 453.194 214.662 453.631C214.096 454.069 213.382 454.287 212.518 454.287C211.75 454.287 211.083 454.122 210.518 453.791C209.963 453.45 209.568 452.991 209.334 452.415L210.534 451.727C210.662 452.111 210.902 452.415 211.254 452.639C211.606 452.863 212.027 452.975 212.518 452.975C212.998 452.975 213.382 452.885 213.67 452.703C213.958 452.522 214.102 452.25 214.102 451.887C214.102 451.343 213.574 450.949 212.518 450.703C212.166 450.607 211.899 450.533 211.718 450.479C211.536 450.426 211.286 450.33 210.966 450.191C210.656 450.053 210.422 449.909 210.262 449.759C210.102 449.599 209.952 449.391 209.814 449.135C209.686 448.869 209.622 448.575 209.622 448.255C209.622 447.562 209.888 446.991 210.422 446.543C210.966 446.095 211.643 445.871 212.454 445.871C213.104 445.871 213.68 446.021 214.182 446.319C214.694 446.607 215.078 447.013 215.334 447.535L214.166 448.191C213.878 447.509 213.307 447.167 212.454 447.167C212.048 447.167 211.707 447.263 211.43 447.455C211.163 447.647 211.03 447.909 211.03 448.239ZM227.782 447.455V446.079H229.174V454.079H227.782V452.703C227.099 453.759 226.091 454.287 224.758 454.287C223.627 454.287 222.672 453.882 221.894 453.071C221.104 452.25 220.71 451.253 220.71 450.079C220.71 448.917 221.104 447.925 221.894 447.103C222.683 446.282 223.638 445.871 224.758 445.871C226.091 445.871 227.099 446.399 227.782 447.455ZM224.934 452.943C225.744 452.943 226.422 452.671 226.966 452.127C227.51 451.562 227.782 450.879 227.782 450.079C227.782 449.269 227.51 448.591 226.966 448.047C226.422 447.493 225.744 447.215 224.934 447.215C224.134 447.215 223.462 447.493 222.918 448.047C222.374 448.591 222.102 449.269 222.102 450.079C222.102 450.879 222.374 451.562 222.918 452.127C223.462 452.671 224.134 452.943 224.934 452.943ZM234.371 452.591L236.883 446.079H238.387L235.187 454.079H233.555L230.355 446.079H231.859L234.371 452.591ZM245.876 447.455V446.079H247.268V454.079H245.876V452.703C245.193 453.759 244.185 454.287 242.852 454.287C241.721 454.287 240.766 453.882 239.988 453.071C239.198 452.25 238.804 451.253 238.804 450.079C238.804 448.917 239.198 447.925 239.988 447.103C240.777 446.282 241.732 445.871 242.852 445.871C244.185 445.871 245.193 446.399 245.876 447.455ZM243.028 452.943C243.838 452.943 244.516 452.671 245.06 452.127C245.604 451.562 245.876 450.879 245.876 450.079C245.876 449.269 245.604 448.591 245.06 448.047C244.516 447.493 243.838 447.215 243.028 447.215C242.228 447.215 241.556 447.493 241.012 448.047C240.468 448.591 240.196 449.269 240.196 450.079C240.196 450.879 240.468 451.562 241.012 452.127C241.556 452.671 242.228 452.943 243.028 452.943ZM250.081 444.623C249.814 444.623 249.59 444.533 249.409 444.351C249.227 444.17 249.137 443.951 249.137 443.695C249.137 443.439 249.227 443.221 249.409 443.039C249.59 442.847 249.814 442.751 250.081 442.751C250.337 442.751 250.555 442.847 250.737 443.039C250.918 443.221 251.009 443.439 251.009 443.695C251.009 443.951 250.918 444.17 250.737 444.351C250.555 444.533 250.337 444.623 250.081 444.623ZM250.769 454.079H249.377V446.079H250.769V454.079ZM254.284 454.079H252.892V442.399H254.284V454.079ZM263.032 447.455V446.079H264.424V454.079H263.032V452.703C262.349 453.759 261.341 454.287 260.008 454.287C258.877 454.287 257.922 453.882 257.144 453.071C256.354 452.25 255.96 451.253 255.96 450.079C255.96 448.917 256.354 447.925 257.144 447.103C257.933 446.282 258.888 445.871 260.008 445.871C261.341 445.871 262.349 446.399 263.032 447.455ZM260.184 452.943C260.994 452.943 261.672 452.671 262.216 452.127C262.76 451.562 263.032 450.879 263.032 450.079C263.032 449.269 262.76 448.591 262.216 448.047C261.672 447.493 260.994 447.215 260.184 447.215C259.384 447.215 258.712 447.493 258.168 448.047C257.624 448.591 257.352 449.269 257.352 450.079C257.352 450.879 257.624 451.562 258.168 452.127C258.712 452.671 259.384 452.943 260.184 452.943ZM270.949 445.871C272.069 445.871 273.023 446.282 273.813 447.103C274.602 447.925 274.997 448.917 274.997 450.079C274.997 451.253 274.602 452.25 273.813 453.071C273.034 453.882 272.079 454.287 270.949 454.287C269.626 454.287 268.618 453.759 267.925 452.703V454.079H266.533V442.879H267.925V447.455C268.618 446.399 269.626 445.871 270.949 445.871ZM270.773 452.943C271.573 452.943 272.245 452.671 272.789 452.127C273.333 451.562 273.605 450.879 273.605 450.079C273.605 449.269 273.333 448.591 272.789 448.047C272.245 447.493 271.573 447.215 270.773 447.215C269.962 447.215 269.285 447.493 268.741 448.047C268.197 448.591 267.925 449.269 267.925 450.079C267.925 450.879 268.197 451.562 268.741 452.127C269.285 452.671 269.962 452.943 270.773 452.943ZM278.05 454.079H276.658V442.399H278.05V454.079ZM287.853 450.719H281.149C281.288 451.423 281.613 451.978 282.125 452.383C282.637 452.778 283.277 452.975 284.045 452.975C285.101 452.975 285.869 452.586 286.349 451.807L287.533 452.479C286.744 453.685 285.571 454.287 284.013 454.287C282.755 454.287 281.72 453.893 280.909 453.103C280.12 452.293 279.725 451.285 279.725 450.079C279.725 448.863 280.115 447.861 280.893 447.071C281.672 446.271 282.68 445.871 283.917 445.871C285.091 445.871 286.045 446.287 286.781 447.119C287.528 447.93 287.901 448.922 287.901 450.095C287.901 450.298 287.885 450.506 287.853 450.719ZM283.917 447.183C283.181 447.183 282.563 447.391 282.061 447.807C281.571 448.223 281.267 448.789 281.149 449.503H286.493C286.376 448.767 286.083 448.197 285.613 447.791C285.144 447.386 284.579 447.183 283.917 447.183ZM300.126 447.455V446.079H301.518V454.079H300.126V452.703C299.443 453.759 298.435 454.287 297.102 454.287C295.971 454.287 295.016 453.882 294.238 453.071C293.448 452.25 293.054 451.253 293.054 450.079C293.054 448.917 293.448 447.925 294.238 447.103C295.027 446.282 295.982 445.871 297.102 445.871C298.435 445.871 299.443 446.399 300.126 447.455ZM297.278 452.943C298.088 452.943 298.766 452.671 299.31 452.127C299.854 451.562 300.126 450.879 300.126 450.079C300.126 449.269 299.854 448.591 299.31 448.047C298.766 447.493 298.088 447.215 297.278 447.215C296.478 447.215 295.806 447.493 295.262 448.047C294.718 448.591 294.446 449.269 294.446 450.079C294.446 450.879 294.718 451.562 295.262 452.127C295.806 452.671 296.478 452.943 297.278 452.943ZM307.979 446.079V447.423H305.851V451.759C305.851 452.154 305.925 452.437 306.075 452.607C306.235 452.767 306.475 452.853 306.795 452.863C307.115 452.863 307.509 452.853 307.979 452.831V454.079C306.752 454.239 305.856 454.138 305.291 453.775C304.736 453.413 304.459 452.741 304.459 451.759V447.423H302.875V446.079H304.459V444.255L305.851 443.839V446.079H307.979ZM318.025 446.079V447.423H315.897V451.759C315.897 452.154 315.972 452.437 316.121 452.607C316.281 452.767 316.521 452.853 316.841 452.863C317.161 452.863 317.556 452.853 318.025 452.831V454.079C316.799 454.239 315.903 454.138 315.337 453.775C314.783 453.413 314.505 452.741 314.505 451.759V447.423H312.921V446.079H314.505V444.255L315.897 443.839V446.079H318.025ZM323.657 445.871C324.596 445.871 325.348 446.17 325.913 446.767C326.479 447.354 326.761 448.154 326.761 449.167V454.079H325.369V449.247C325.369 448.607 325.193 448.106 324.841 447.743C324.489 447.381 324.004 447.199 323.385 447.199C322.671 447.199 322.105 447.423 321.689 447.871C321.273 448.309 321.065 448.965 321.065 449.839V454.079H319.673V442.879H321.065V447.231C321.62 446.325 322.484 445.871 323.657 445.871ZM336.385 450.719H329.681C329.819 451.423 330.145 451.978 330.657 452.383C331.169 452.778 331.809 452.975 332.577 452.975C333.633 452.975 334.401 452.586 334.881 451.807L336.065 452.479C335.275 453.685 334.102 454.287 332.545 454.287C331.286 454.287 330.251 453.893 329.441 453.103C328.651 452.293 328.257 451.285 328.257 450.079C328.257 448.863 328.646 447.861 329.425 447.071C330.203 446.271 331.211 445.871 332.449 445.871C333.622 445.871 334.577 446.287 335.313 447.119C336.059 447.93 336.433 448.922 336.433 450.095C336.433 450.298 336.417 450.506 336.385 450.719ZM332.449 447.183C331.713 447.183 331.094 447.391 330.593 447.807C330.102 448.223 329.798 448.789 329.681 449.503H335.025C334.907 448.767 334.614 448.197 334.145 447.791C333.675 447.386 333.11 447.183 332.449 447.183ZM350.673 445.871C351.579 445.871 352.305 446.165 352.849 446.751C353.403 447.338 353.681 448.122 353.681 449.103V454.079H352.289V449.151C352.289 448.543 352.129 448.069 351.809 447.727C351.499 447.375 351.073 447.199 350.529 447.199C349.91 447.199 349.425 447.407 349.073 447.823C348.731 448.229 348.561 448.831 348.561 449.631V454.079H347.169V449.151C347.169 448.543 347.014 448.069 346.705 447.727C346.406 447.375 345.995 447.199 345.473 447.199C344.865 447.199 344.369 447.413 343.985 447.839C343.611 448.255 343.425 448.853 343.425 449.631V454.079H342.033V446.079H343.425V447.151C343.969 446.298 344.763 445.871 345.809 445.871C346.886 445.871 347.67 446.325 348.161 447.231C348.715 446.325 349.553 445.871 350.673 445.871ZM362.363 453.071C361.552 453.882 360.555 454.287 359.371 454.287C358.187 454.287 357.19 453.882 356.379 453.071C355.568 452.261 355.163 451.263 355.163 450.079C355.163 448.895 355.568 447.898 356.379 447.087C357.19 446.277 358.187 445.871 359.371 445.871C360.555 445.871 361.552 446.277 362.363 447.087C363.184 447.909 363.595 448.906 363.595 450.079C363.595 451.253 363.184 452.25 362.363 453.071ZM359.371 452.927C360.171 452.927 360.843 452.655 361.387 452.111C361.931 451.567 362.203 450.89 362.203 450.079C362.203 449.269 361.931 448.591 361.387 448.047C360.843 447.503 360.171 447.231 359.371 447.231C358.582 447.231 357.915 447.503 357.371 448.047C356.827 448.591 356.555 449.269 356.555 450.079C356.555 450.89 356.827 451.567 357.371 452.111C357.915 452.655 358.582 452.927 359.371 452.927ZM373.876 445.871C374.783 445.871 375.508 446.165 376.052 446.751C376.607 447.338 376.884 448.122 376.884 449.103V454.079H375.492V449.151C375.492 448.543 375.332 448.069 375.012 447.727C374.703 447.375 374.276 447.199 373.732 447.199C373.113 447.199 372.628 447.407 372.276 447.823C371.935 448.229 371.764 448.831 371.764 449.631V454.079H370.372V449.151C370.372 448.543 370.217 448.069 369.908 447.727C369.609 447.375 369.199 447.199 368.676 447.199C368.068 447.199 367.572 447.413 367.188 447.839C366.815 448.255 366.628 448.853 366.628 449.631V454.079H365.236V446.079H366.628V447.151C367.172 446.298 367.967 445.871 369.012 445.871C370.089 445.871 370.873 446.325 371.364 447.231C371.919 446.325 372.756 445.871 373.876 445.871ZM386.494 450.719H379.79C379.929 451.423 380.254 451.978 380.766 452.383C381.278 452.778 381.918 452.975 382.686 452.975C383.742 452.975 384.51 452.586 384.99 451.807L386.174 452.479C385.385 453.685 384.211 454.287 382.654 454.287C381.395 454.287 380.361 453.893 379.55 453.103C378.761 452.293 378.366 451.285 378.366 450.079C378.366 448.863 378.755 447.861 379.534 447.071C380.313 446.271 381.321 445.871 382.558 445.871C383.731 445.871 384.686 446.287 385.422 447.119C386.169 447.93 386.542 448.922 386.542 450.095C386.542 450.298 386.526 450.506 386.494 450.719ZM382.558 447.183C381.822 447.183 381.203 447.391 380.702 447.807C380.211 448.223 379.907 448.789 379.79 449.503H385.134C385.017 448.767 384.723 448.197 384.254 447.791C383.785 447.386 383.219 447.183 382.558 447.183ZM392.126 445.871C393.065 445.871 393.817 446.17 394.382 446.767C394.948 447.354 395.23 448.154 395.23 449.167V454.079H393.838V449.247C393.838 448.607 393.662 448.106 393.31 447.743C392.958 447.381 392.473 447.199 391.854 447.199C391.14 447.199 390.574 447.423 390.158 447.871C389.742 448.309 389.534 448.965 389.534 449.839V454.079H388.142V446.079H389.534V447.231C390.089 446.325 390.953 445.871 392.126 445.871ZM401.525 446.079V447.423H399.397V451.759C399.397 452.154 399.472 452.437 399.621 452.607C399.781 452.767 400.021 452.853 400.341 452.863C400.661 452.863 401.056 452.853 401.525 452.831V454.079C400.299 454.239 399.403 454.138 398.837 453.775C398.283 453.413 398.005 452.741 398.005 451.759V447.423H396.421V446.079H398.005V444.255L399.397 443.839V446.079H401.525ZM404.1 454.255C403.812 454.255 403.567 454.154 403.364 453.951C403.162 453.749 403.06 453.503 403.06 453.215C403.06 452.927 403.162 452.682 403.364 452.479C403.567 452.277 403.812 452.175 404.1 452.175C404.399 452.175 404.644 452.277 404.836 452.479C405.039 452.682 405.14 452.927 405.14 453.215C405.14 453.503 405.039 453.749 404.836 453.951C404.644 454.154 404.399 454.255 404.1 454.255ZM418.215 451.231V442.879H419.703V454.079H418.503L412.743 445.711V454.079H411.255V442.879H412.455L418.215 451.231ZM429.635 450.719H422.931C423.069 451.423 423.395 451.978 423.907 452.383C424.419 452.778 425.059 452.975 425.827 452.975C426.883 452.975 427.651 452.586 428.131 451.807L429.315 452.479C428.525 453.685 427.352 454.287 425.795 454.287C424.536 454.287 423.501 453.893 422.691 453.103C421.901 452.293 421.507 451.285 421.507 450.079C421.507 448.863 421.896 447.861 422.675 447.071C423.453 446.271 424.461 445.871 425.699 445.871C426.872 445.871 427.827 446.287 428.563 447.119C429.309 447.93 429.683 448.922 429.683 450.095C429.683 450.298 429.667 450.506 429.635 450.719ZM425.699 447.183C424.963 447.183 424.344 447.391 423.843 447.807C423.352 448.223 423.048 448.789 422.931 449.503H428.275C428.157 448.767 427.864 448.197 427.395 447.791C426.925 447.386 426.36 447.183 425.699 447.183ZM438.634 452.175L440.394 446.079H441.85L439.37 454.079H437.946L436.074 448.159L434.202 454.079H432.778L430.298 446.079H431.754L433.514 452.159L435.402 446.079H436.746L438.634 452.175ZM105.417 465.079V466.423C105.876 465.431 106.708 464.935 107.913 464.935V466.391C107.23 466.359 106.644 466.541 106.153 466.935C105.662 467.33 105.417 467.965 105.417 468.839V473.079H104.025V465.079H105.417ZM116.517 469.719H109.813C109.952 470.423 110.277 470.978 110.789 471.383C111.301 471.778 111.941 471.975 112.709 471.975C113.765 471.975 114.533 471.586 115.013 470.807L116.197 471.479C115.408 472.685 114.235 473.287 112.677 473.287C111.419 473.287 110.384 472.893 109.573 472.103C108.784 471.293 108.389 470.285 108.389 469.079C108.389 467.863 108.779 466.861 109.557 466.071C110.336 465.271 111.344 464.871 112.581 464.871C113.755 464.871 114.709 465.287 115.445 466.119C116.192 466.93 116.565 467.922 116.565 469.095C116.565 469.298 116.549 469.506 116.517 469.719ZM112.581 466.183C111.845 466.183 111.227 466.391 110.725 466.807C110.235 467.223 109.931 467.789 109.813 468.503H115.157C115.04 467.767 114.747 467.197 114.277 466.791C113.808 466.386 113.243 466.183 112.581 466.183ZM122.582 464.871C123.702 464.871 124.656 465.282 125.446 466.103C126.235 466.925 126.63 467.917 126.63 469.079C126.63 470.253 126.235 471.25 125.446 472.071C124.667 472.882 123.712 473.287 122.582 473.287C121.259 473.287 120.251 472.759 119.558 471.703V476.279H118.166V465.079H119.558V466.455C120.251 465.399 121.259 464.871 122.582 464.871ZM122.406 471.943C123.206 471.943 123.878 471.671 124.422 471.127C124.966 470.562 125.238 469.879 125.238 469.079C125.238 468.269 124.966 467.591 124.422 467.047C123.878 466.493 123.206 466.215 122.406 466.215C121.595 466.215 120.918 466.493 120.374 467.047C119.83 467.591 119.558 468.269 119.558 469.079C119.558 469.879 119.83 470.562 120.374 471.127C120.918 471.671 121.595 471.943 122.406 471.943ZM135.043 472.071C134.232 472.882 133.235 473.287 132.051 473.287C130.867 473.287 129.869 472.882 129.059 472.071C128.248 471.261 127.843 470.263 127.843 469.079C127.843 467.895 128.248 466.898 129.059 466.087C129.869 465.277 130.867 464.871 132.051 464.871C133.235 464.871 134.232 465.277 135.043 466.087C135.864 466.909 136.275 467.906 136.275 469.079C136.275 470.253 135.864 471.25 135.043 472.071ZM132.051 471.927C132.851 471.927 133.523 471.655 134.067 471.111C134.611 470.567 134.883 469.89 134.883 469.079C134.883 468.269 134.611 467.591 134.067 467.047C133.523 466.503 132.851 466.231 132.051 466.231C131.261 466.231 130.595 466.503 130.051 467.047C129.507 467.591 129.235 468.269 129.235 469.079C129.235 469.89 129.507 470.567 130.051 471.111C130.595 471.655 131.261 471.927 132.051 471.927ZM139.308 465.079V466.423C139.766 465.431 140.598 464.935 141.804 464.935V466.391C141.121 466.359 140.534 466.541 140.044 466.935C139.553 467.33 139.308 467.965 139.308 468.839V473.079H137.916V465.079H139.308ZM147.705 465.079V466.423H145.577V470.759C145.577 471.154 145.652 471.437 145.801 471.607C145.961 471.767 146.201 471.853 146.521 471.863C146.841 471.863 147.236 471.853 147.705 471.831V473.079C146.478 473.239 145.582 473.138 145.017 472.775C144.462 472.413 144.185 471.741 144.185 470.759V466.423H142.601V465.079H144.185V463.255L145.577 462.839V465.079H147.705ZM150.162 467.239C150.162 467.751 150.69 468.151 151.746 468.439C152.141 468.525 152.472 468.615 152.738 468.711C153.016 468.797 153.314 468.93 153.634 469.111C153.965 469.293 154.216 469.533 154.386 469.831C154.557 470.13 154.642 470.482 154.642 470.887C154.642 471.613 154.36 472.194 153.794 472.631C153.229 473.069 152.514 473.287 151.65 473.287C150.882 473.287 150.216 473.122 149.65 472.791C149.096 472.45 148.701 471.991 148.466 471.415L149.666 470.727C149.794 471.111 150.034 471.415 150.386 471.639C150.738 471.863 151.16 471.975 151.65 471.975C152.13 471.975 152.514 471.885 152.802 471.703C153.09 471.522 153.234 471.25 153.234 470.887C153.234 470.343 152.706 469.949 151.65 469.703C151.298 469.607 151.032 469.533 150.85 469.479C150.669 469.426 150.418 469.33 150.098 469.191C149.789 469.053 149.554 468.909 149.394 468.759C149.234 468.599 149.085 468.391 148.946 468.135C148.818 467.869 148.754 467.575 148.754 467.255C148.754 466.562 149.021 465.991 149.554 465.543C150.098 465.095 150.776 464.871 151.586 464.871C152.237 464.871 152.813 465.021 153.314 465.319C153.826 465.607 154.21 466.013 154.466 466.535L153.298 467.191C153.01 466.509 152.44 466.167 151.586 466.167C151.181 466.167 150.84 466.263 150.562 466.455C150.296 466.647 150.162 466.909 150.162 467.239ZM167.955 471.175L169.715 465.079H171.171L168.691 473.079H167.267L165.395 467.159L163.523 473.079H162.099L159.619 465.079H161.075L162.835 471.159L164.723 465.079H166.067L167.955 471.175ZM173.307 463.623C173.04 463.623 172.816 463.533 172.635 463.351C172.454 463.17 172.363 462.951 172.363 462.695C172.363 462.439 172.454 462.221 172.635 462.039C172.816 461.847 173.04 461.751 173.307 461.751C173.563 461.751 173.782 461.847 173.963 462.039C174.144 462.221 174.235 462.439 174.235 462.695C174.235 462.951 174.144 463.17 173.963 463.351C173.782 463.533 173.563 463.623 173.307 463.623ZM173.995 473.079H172.603V465.079H173.995V473.079ZM177.511 473.079H176.119V461.399H177.511V473.079ZM181.026 473.079H179.634V461.399H181.026V473.079ZM193.774 466.455V465.079H195.166V473.079H193.774V471.703C193.091 472.759 192.083 473.287 190.75 473.287C189.619 473.287 188.665 472.882 187.886 472.071C187.097 471.25 186.702 470.253 186.702 469.079C186.702 467.917 187.097 466.925 187.886 466.103C188.675 465.282 189.63 464.871 190.75 464.871C192.083 464.871 193.091 465.399 193.774 466.455ZM190.926 471.943C191.737 471.943 192.414 471.671 192.958 471.127C193.502 470.562 193.774 469.879 193.774 469.079C193.774 468.269 193.502 467.591 192.958 467.047C192.414 466.493 191.737 466.215 190.926 466.215C190.126 466.215 189.454 466.493 188.91 467.047C188.366 467.591 188.094 468.269 188.094 469.079C188.094 469.879 188.366 470.562 188.91 471.127C189.454 471.671 190.126 471.943 190.926 471.943ZM201.691 464.871C202.811 464.871 203.766 465.282 204.555 466.103C205.344 466.925 205.739 467.917 205.739 469.079C205.739 470.253 205.344 471.25 204.555 472.071C203.776 472.882 202.822 473.287 201.691 473.287C200.368 473.287 199.36 472.759 198.667 471.703V476.279H197.275V465.079H198.667V466.455C199.36 465.399 200.368 464.871 201.691 464.871ZM201.515 471.943C202.315 471.943 202.987 471.671 203.531 471.127C204.075 470.562 204.347 469.879 204.347 469.079C204.347 468.269 204.075 467.591 203.531 467.047C202.987 466.493 202.315 466.215 201.515 466.215C200.704 466.215 200.027 466.493 199.483 467.047C198.939 467.591 198.667 468.269 198.667 469.079C198.667 469.879 198.939 470.562 199.483 471.127C200.027 471.671 200.704 471.943 201.515 471.943ZM211.816 464.871C212.936 464.871 213.891 465.282 214.68 466.103C215.469 466.925 215.864 467.917 215.864 469.079C215.864 470.253 215.469 471.25 214.68 472.071C213.901 472.882 212.947 473.287 211.816 473.287C210.493 473.287 209.485 472.759 208.792 471.703V476.279H207.4V465.079H208.792V466.455C209.485 465.399 210.493 464.871 211.816 464.871ZM211.64 471.943C212.44 471.943 213.112 471.671 213.656 471.127C214.2 470.562 214.472 469.879 214.472 469.079C214.472 468.269 214.2 467.591 213.656 467.047C213.112 466.493 212.44 466.215 211.64 466.215C210.829 466.215 210.152 466.493 209.608 467.047C209.064 467.591 208.792 468.269 208.792 469.079C208.792 469.879 209.064 470.562 209.608 471.127C210.152 471.671 210.829 471.943 211.64 471.943ZM225.205 469.719H218.501C218.64 470.423 218.965 470.978 219.477 471.383C219.989 471.778 220.629 471.975 221.397 471.975C222.453 471.975 223.221 471.586 223.701 470.807L224.885 471.479C224.096 472.685 222.922 473.287 221.365 473.287C220.106 473.287 219.072 472.893 218.261 472.103C217.472 471.293 217.077 470.285 217.077 469.079C217.077 467.863 217.466 466.861 218.245 466.071C219.024 465.271 220.032 464.871 221.269 464.871C222.442 464.871 223.397 465.287 224.133 466.119C224.88 466.93 225.253 467.922 225.253 469.095C225.253 469.298 225.237 469.506 225.205 469.719ZM221.269 466.183C220.533 466.183 219.914 466.391 219.413 466.807C218.922 467.223 218.618 467.789 218.501 468.503H223.845C223.728 467.767 223.434 467.197 222.965 466.791C222.496 466.386 221.93 466.183 221.269 466.183ZM233.461 466.455V465.079H234.853V473.079H233.461V471.703C232.779 472.759 231.771 473.287 230.437 473.287C229.307 473.287 228.352 472.882 227.573 472.071C226.784 471.25 226.389 470.253 226.389 469.079C226.389 467.917 226.784 466.925 227.573 466.103C228.363 465.282 229.317 464.871 230.437 464.871C231.771 464.871 232.779 465.399 233.461 466.455ZM230.613 471.943C231.424 471.943 232.101 471.671 232.645 471.127C233.189 470.562 233.461 469.879 233.461 469.079C233.461 468.269 233.189 467.591 232.645 467.047C232.101 466.493 231.424 466.215 230.613 466.215C229.813 466.215 229.141 466.493 228.597 467.047C228.053 467.591 227.781 468.269 227.781 469.079C227.781 469.879 228.053 470.562 228.597 471.127C229.141 471.671 229.813 471.943 230.613 471.943ZM238.354 465.079V466.423C238.813 465.431 239.645 464.935 240.85 464.935V466.391C240.168 466.359 239.581 466.541 239.09 466.935C238.6 467.33 238.354 467.965 238.354 468.839V473.079H236.962V465.079H238.354ZM250.196 464.871C251.135 464.871 251.887 465.17 252.452 465.767C253.018 466.354 253.3 467.154 253.3 468.167V473.079H251.908V468.247C251.908 467.607 251.732 467.106 251.38 466.743C251.028 466.381 250.543 466.199 249.924 466.199C249.21 466.199 248.644 466.423 248.228 466.871C247.812 467.309 247.604 467.965 247.604 468.839V473.079H246.212V461.879H247.604V466.231C248.159 465.325 249.023 464.871 250.196 464.871ZM262.924 469.719H256.22C256.358 470.423 256.684 470.978 257.196 471.383C257.708 471.778 258.348 471.975 259.116 471.975C260.172 471.975 260.94 471.586 261.42 470.807L262.604 471.479C261.814 472.685 260.641 473.287 259.084 473.287C257.825 473.287 256.79 472.893 255.98 472.103C255.19 471.293 254.796 470.285 254.796 469.079C254.796 467.863 255.185 466.861 255.964 466.071C256.742 465.271 257.75 464.871 258.988 464.871C260.161 464.871 261.116 465.287 261.852 466.119C262.598 466.93 262.972 467.922 262.972 469.095C262.972 469.298 262.956 469.506 262.924 469.719ZM258.988 466.183C258.252 466.183 257.633 466.391 257.132 466.807C256.641 467.223 256.337 467.789 256.22 468.503H261.564C261.446 467.767 261.153 467.197 260.684 466.791C260.214 466.386 259.649 466.183 258.988 466.183ZM265.964 465.079V466.423C266.423 465.431 267.255 464.935 268.46 464.935V466.391C267.777 466.359 267.191 466.541 266.7 466.935C266.209 467.33 265.964 467.965 265.964 468.839V473.079H264.572V465.079H265.964ZM277.064 469.719H270.36C270.499 470.423 270.824 470.978 271.336 471.383C271.848 471.778 272.488 471.975 273.256 471.975C274.312 471.975 275.08 471.586 275.56 470.807L276.744 471.479C275.955 472.685 274.782 473.287 273.224 473.287C271.966 473.287 270.931 472.893 270.12 472.103C269.331 471.293 268.936 470.285 268.936 469.079C268.936 467.863 269.326 466.861 270.104 466.071C270.883 465.271 271.891 464.871 273.128 464.871C274.302 464.871 275.256 465.287 275.992 466.119C276.739 466.93 277.112 467.922 277.112 469.095C277.112 469.298 277.096 469.506 277.064 469.719ZM273.128 466.183C272.392 466.183 271.774 466.391 271.272 466.807C270.782 467.223 270.478 467.789 270.36 468.503H275.704C275.587 467.767 275.294 467.197 274.824 466.791C274.355 466.386 273.79 466.183 273.128 466.183ZM290.376 471.175L292.136 465.079H293.592L291.112 473.079H289.688L287.816 467.159L285.944 473.079H284.52L282.04 465.079H283.496L285.256 471.159L287.144 465.079H288.488L290.376 471.175ZM299.009 464.871C299.948 464.871 300.7 465.17 301.265 465.767C301.83 466.354 302.113 467.154 302.113 468.167V473.079H300.721V468.247C300.721 467.607 300.545 467.106 300.193 466.743C299.841 466.381 299.356 466.199 298.737 466.199C298.022 466.199 297.457 466.423 297.041 466.871C296.625 467.309 296.417 467.965 296.417 468.839V473.079H295.025V461.879H296.417V466.231C296.972 465.325 297.836 464.871 299.009 464.871ZM311.736 469.719H305.032C305.171 470.423 305.496 470.978 306.008 471.383C306.52 471.778 307.16 471.975 307.928 471.975C308.984 471.975 309.752 471.586 310.232 470.807L311.416 471.479C310.627 472.685 309.454 473.287 307.896 473.287C306.638 473.287 305.603 472.893 304.792 472.103C304.003 471.293 303.608 470.285 303.608 469.079C303.608 467.863 303.998 466.861 304.776 466.071C305.555 465.271 306.563 464.871 307.8 464.871C308.974 464.871 309.928 465.287 310.664 466.119C311.411 466.93 311.784 467.922 311.784 469.095C311.784 469.298 311.768 469.506 311.736 469.719ZM307.8 466.183C307.064 466.183 306.446 466.391 305.944 466.807C305.454 467.223 305.15 467.789 305.032 468.503H310.376C310.259 467.767 309.966 467.197 309.496 466.791C309.027 466.386 308.462 466.183 307.8 466.183ZM317.368 464.871C318.307 464.871 319.059 465.17 319.624 465.767C320.19 466.354 320.472 467.154 320.472 468.167V473.079H319.08V468.247C319.08 467.607 318.904 467.106 318.552 466.743C318.2 466.381 317.715 466.199 317.096 466.199C316.382 466.199 315.816 466.423 315.4 466.871C314.984 467.309 314.776 467.965 314.776 468.839V473.079H313.384V465.079H314.776V466.231C315.331 465.325 316.195 464.871 317.368 464.871ZM333.056 466.455V465.079H334.432V472.743C334.432 473.927 334.032 474.845 333.232 475.495C332.421 476.157 331.461 476.487 330.352 476.487C329.456 476.487 328.682 476.317 328.032 475.975C327.381 475.645 326.89 475.165 326.56 474.535L327.776 473.847C328.213 474.743 329.082 475.191 330.384 475.191C331.216 475.191 331.866 474.973 332.336 474.535C332.816 474.098 333.056 473.501 333.056 472.743V471.607C332.352 472.674 331.349 473.207 330.048 473.207C328.896 473.207 327.93 472.802 327.152 471.991C326.362 471.17 325.968 470.183 325.968 469.031C325.968 467.879 326.362 466.898 327.152 466.087C327.93 465.277 328.896 464.871 330.048 464.871C331.36 464.871 332.362 465.399 333.056 466.455ZM333.056 469.031C333.056 468.231 332.784 467.559 332.24 467.015C331.696 466.471 331.018 466.199 330.208 466.199C329.397 466.199 328.72 466.471 328.176 467.015C327.632 467.559 327.36 468.231 327.36 469.031C327.36 469.842 327.632 470.519 328.176 471.063C328.72 471.607 329.397 471.879 330.208 471.879C331.018 471.879 331.696 471.607 332.24 471.063C332.784 470.519 333.056 469.842 333.056 469.031ZM344.221 469.719H337.517C337.655 470.423 337.981 470.978 338.493 471.383C339.005 471.778 339.645 471.975 340.413 471.975C341.469 471.975 342.237 471.586 342.717 470.807L343.901 471.479C343.111 472.685 341.938 473.287 340.381 473.287C339.122 473.287 338.087 472.893 337.277 472.103C336.487 471.293 336.093 470.285 336.093 469.079C336.093 467.863 336.482 466.861 337.261 466.071C338.039 465.271 339.047 464.871 340.285 464.871C341.458 464.871 342.413 465.287 343.149 466.119C343.895 466.93 344.269 467.922 344.269 469.095C344.269 469.298 344.253 469.506 344.221 469.719ZM340.285 466.183C339.549 466.183 338.93 466.391 338.429 466.807C337.938 467.223 337.634 467.789 337.517 468.503H342.861C342.743 467.767 342.45 467.197 341.981 466.791C341.511 466.386 340.946 466.183 340.285 466.183ZM349.853 464.871C350.791 464.871 351.543 465.17 352.109 465.767C352.674 466.354 352.957 467.154 352.957 468.167V473.079H351.565V468.247C351.565 467.607 351.389 467.106 351.037 466.743C350.685 466.381 350.199 466.199 349.581 466.199C348.866 466.199 348.301 466.423 347.885 466.871C347.469 467.309 347.261 467.965 347.261 468.839V473.079H345.869V465.079H347.261V466.231C347.815 465.325 348.679 464.871 349.853 464.871ZM362.58 469.719H355.876C356.015 470.423 356.34 470.978 356.852 471.383C357.364 471.778 358.004 471.975 358.772 471.975C359.828 471.975 360.596 471.586 361.076 470.807L362.26 471.479C361.471 472.685 360.297 473.287 358.74 473.287C357.481 473.287 356.447 472.893 355.636 472.103C354.847 471.293 354.452 470.285 354.452 469.079C354.452 467.863 354.841 466.861 355.62 466.071C356.399 465.271 357.407 464.871 358.644 464.871C359.817 464.871 360.772 465.287 361.508 466.119C362.255 466.93 362.628 467.922 362.628 469.095C362.628 469.298 362.612 469.506 362.58 469.719ZM358.644 466.183C357.908 466.183 357.289 466.391 356.788 466.807C356.297 467.223 355.993 467.789 355.876 468.503H361.22C361.103 467.767 360.809 467.197 360.34 466.791C359.871 466.386 359.305 466.183 358.644 466.183ZM365.62 465.079V466.423C366.079 465.431 366.911 464.935 368.116 464.935V466.391C367.433 466.359 366.847 466.541 366.356 466.935C365.865 467.33 365.62 467.965 365.62 468.839V473.079H364.228V465.079H365.62ZM375.665 466.455V465.079H377.057V473.079H375.665V471.703C374.982 472.759 373.974 473.287 372.641 473.287C371.51 473.287 370.555 472.882 369.777 472.071C368.987 471.25 368.593 470.253 368.593 469.079C368.593 467.917 368.987 466.925 369.777 466.103C370.566 465.282 371.521 464.871 372.641 464.871C373.974 464.871 374.982 465.399 375.665 466.455ZM372.817 471.943C373.627 471.943 374.305 471.671 374.849 471.127C375.393 470.562 375.665 469.879 375.665 469.079C375.665 468.269 375.393 467.591 374.849 467.047C374.305 466.493 373.627 466.215 372.817 466.215C372.017 466.215 371.345 466.493 370.801 467.047C370.257 467.591 369.985 468.269 369.985 469.079C369.985 469.879 370.257 470.562 370.801 471.127C371.345 471.671 372.017 471.943 372.817 471.943ZM383.518 465.079V466.423H381.39V470.759C381.39 471.154 381.464 471.437 381.614 471.607C381.774 471.767 382.014 471.853 382.334 471.863C382.654 471.863 383.048 471.853 383.518 471.831V473.079C382.291 473.239 381.395 473.138 380.83 472.775C380.275 472.413 379.998 471.741 379.998 470.759V466.423H378.414V465.079H379.998V463.255L381.39 462.839V465.079H383.518ZM392.439 469.719H385.735C385.874 470.423 386.199 470.978 386.711 471.383C387.223 471.778 387.863 471.975 388.631 471.975C389.687 471.975 390.455 471.586 390.935 470.807L392.119 471.479C391.33 472.685 390.157 473.287 388.599 473.287C387.341 473.287 386.306 472.893 385.495 472.103C384.706 471.293 384.311 470.285 384.311 469.079C384.311 467.863 384.701 466.861 385.479 466.071C386.258 465.271 387.266 464.871 388.503 464.871C389.677 464.871 390.631 465.287 391.367 466.119C392.114 466.93 392.487 467.922 392.487 469.095C392.487 469.298 392.471 469.506 392.439 469.719ZM388.503 466.183C387.767 466.183 387.149 466.391 386.647 466.807C386.157 467.223 385.853 467.789 385.735 468.503H391.079C390.962 467.767 390.669 467.197 390.199 466.791C389.73 466.386 389.165 466.183 388.503 466.183ZM400.696 466.455V461.879H402.088V473.079H400.696V471.703C400.013 472.759 399.005 473.287 397.672 473.287C396.541 473.287 395.587 472.882 394.808 472.071C394.019 471.25 393.624 470.253 393.624 469.079C393.624 467.917 394.019 466.925 394.808 466.103C395.597 465.282 396.552 464.871 397.672 464.871C399.005 464.871 400.013 465.399 400.696 466.455ZM397.848 471.943C398.659 471.943 399.336 471.671 399.88 471.127C400.424 470.562 400.696 469.879 400.696 469.079C400.696 468.269 400.424 467.591 399.88 467.047C399.336 466.493 398.659 466.215 397.848 466.215C397.048 466.215 396.376 466.493 395.832 467.047C395.288 467.591 395.016 468.269 395.016 469.079C395.016 469.879 395.288 470.562 395.832 471.127C396.376 471.671 397.048 471.943 397.848 471.943ZM405.077 473.255C404.789 473.255 404.544 473.154 404.341 472.951C404.138 472.749 404.037 472.503 404.037 472.215C404.037 471.927 404.138 471.682 404.341 471.479C404.544 471.277 404.789 471.175 405.077 471.175C405.376 471.175 405.621 471.277 405.813 471.479C406.016 471.682 406.117 471.927 406.117 472.215C406.117 472.503 406.016 472.749 405.813 472.951C405.621 473.154 405.376 473.255 405.077 473.255Z" fill="#7F7F7F"/>
<path d="M239.138 240.833V238.555M244.833 240.833V237.417M250.527 240.833V235.139M234.013 234C234.013 228.9 234.013 226.35 235.598 224.765C237.182 223.181 239.732 223.181 244.833 223.181C249.933 223.181 252.483 223.181 254.067 224.765C255.652 226.35 255.652 228.9 255.652 234C255.652 239.1 255.652 241.65 254.067 243.235C252.483 244.819 249.933 244.819 244.833 244.819C239.732 244.819 237.182 244.819 235.598 243.235C234.013 241.65 234.013 239.1 234.013 234Z" stroke="black" stroke-width="1.70828" stroke-linecap="round" stroke-linejoin="round"/>
<path d="M237.99 233.415C240.445 233.497 246.01 233.126 249.176 228.102M247.101 227.495L249.237 227.151C249.498 227.118 249.88 227.324 249.974 227.569L250.539 229.435" stroke="black" stroke-width="1.70828" stroke-linecap="round" stroke-linejoin="round"/>
<defs>
<linearGradient id="paint0_linear_6043_5252" x1="244.514" y1="84.3282" x2="244.514" y2="381.667" gradientUnits="userSpaceOnUse">
<stop offset="0.605" stop-color="#EEEEEE"/>
<stop offset="1" stop-color="white"/>
</linearGradient>
<linearGradient id="paint1_linear_6043_5252" x1="244.515" y1="41.1096" x2="244.515" y2="424.886" gradientUnits="userSpaceOnUse">
<stop offset="0.605" stop-color="#EEEEEE"/>
<stop offset="1" stop-color="white"/>
</linearGradient>
<linearGradient id="paint2_linear_6043_5252" x1="244.515" y1="0.916351" x2="244.515" y2="465.079" gradientUnits="userSpaceOnUse">
<stop offset="0.605" stop-color="#EEEEEE"/>
<stop offset="1" stop-color="white"/>
</linearGradient>
<clipPath id="clip0_6043_5252">
<rect width="21.2499" height="21.2499" fill="white" transform="translate(391.5 116.322)"/>
</clipPath>
<clipPath id="clip1_6043_5252">
<rect width="16.8042" height="16.8042" fill="white" transform="translate(22.7239 140.022)"/>
</clipPath>
<clipPath id="clip2_6043_5252">
<rect width="19.6283" height="19.6283" fill="white" transform="translate(471.971 216.839)"/>
</clipPath>
</defs>
</svg>
