<svg width="510" height="487" viewBox="0 0 510 487" fill="none" xmlns="http://www.w3.org/2000/svg">
<path d="M302.781 232.998C302.781 265.176 276.694 291.262 244.514 291.262C212.334 291.262 186.248 265.176 186.248 232.998C186.248 200.82 212.334 174.734 244.514 174.734C276.694 174.734 302.781 200.82 302.781 232.998Z" stroke="#EEEEEE" stroke-width="2"/>
<path d="M343.263 232.998C343.263 287.533 299.052 331.743 244.514 331.743C189.976 331.743 145.765 287.533 145.765 232.998C145.765 178.463 189.976 134.253 244.514 134.253C299.052 134.253 343.263 178.463 343.263 232.998Z" stroke="#EEEEEE" stroke-width="2"/>
<path d="M392.191 232.998C392.191 314.553 326.074 380.667 244.514 380.667C162.955 380.667 96.8381 314.553 96.8381 232.998C96.8381 151.442 162.955 85.3282 244.514 85.3282C326.074 85.3282 392.191 151.442 392.191 232.998Z" stroke="url(#paint0_linear_6043_5252)" stroke-width="2"/>
<path d="M435.412 232.998C435.412 338.423 349.945 423.886 244.515 423.886C139.086 423.886 53.6182 338.423 53.6182 232.998C53.6182 127.573 139.086 42.1096 244.515 42.1096C349.945 42.1096 435.412 127.573 435.412 232.998Z" stroke="url(#paint1_linear_6043_5252)" stroke-width="2"/>
<path d="M475.607 232.998C475.607 360.621 372.144 464.079 244.515 464.079C116.886 464.079 13.4231 360.621 13.4231 232.998C13.4231 105.375 116.886 1.91635 244.515 1.91635C372.144 1.91635 475.607 105.375 475.607 232.998Z" stroke="url(#paint2_linear_6043_5252)" stroke-width="2"/>
<rect x="58.4333" y="295.031" width="37.4049" height="37.7117" rx="7.73649" fill="#F1F1F1"/>
<path d="M69.167 311.231C69.167 308.726 69.167 307.474 69.945 306.696C70.723 305.918 71.9751 305.918 74.4795 305.918H79.7919C82.2962 305.918 83.5484 305.918 84.3264 306.696C85.1044 307.474 85.1044 308.726 85.1044 311.231V315.658C85.1044 317.327 85.1044 318.162 84.5857 318.681C84.0671 319.199 83.2323 319.199 81.5628 319.199H72.7086C71.0391 319.199 70.2043 319.199 69.6857 318.681C69.167 318.162 69.167 317.327 69.167 315.658V311.231Z" stroke="#707072" stroke-width="1.32812"/>
<path d="M85.9905 321.856H68.2822" stroke="#707072" stroke-width="1.32812" stroke-linecap="round"/>
<path d="M79.7922 316.543H74.4797" stroke="#707072" stroke-width="1.32812" stroke-linecap="round"/>
<rect x="115.438" y="9.10739" width="37.4049" height="37.7117" rx="7.73649" fill="#F1F1F1"/>
<path d="M126.171 25.307C126.171 22.8027 126.171 21.5505 126.949 20.7725C127.727 19.9945 128.979 19.9945 131.484 19.9945H136.796C139.3 19.9945 140.553 19.9945 141.331 20.7725C142.109 21.5505 142.109 22.8027 142.109 25.307V29.734C142.109 31.4036 142.109 32.2383 141.59 32.757C141.071 33.2757 140.236 33.2757 138.567 33.2757H129.713C128.043 33.2757 127.208 33.2757 126.69 32.757C126.171 32.2383 126.171 31.4036 126.171 29.734V25.307Z" stroke="#707072" stroke-width="1.32812"/>
<path d="M142.995 35.9319H125.286" stroke="#707072" stroke-width="1.32812" stroke-linecap="round"/>
<path d="M136.796 30.6194H131.484" stroke="#707072" stroke-width="1.32812" stroke-linecap="round"/>
<rect x="393.271" y="303.262" width="37.4049" height="37.7117" rx="7.73649" fill="#F1F1F1"/>
<path d="M414.629 328.316L416.4 330.086L419.942 326.545M412.858 314.149H408.608C407.617 314.149 407.121 314.149 406.742 314.342C406.409 314.512 406.138 314.783 405.968 315.116C405.775 315.495 405.775 315.991 405.775 316.982V327.253C405.775 328.245 405.775 328.741 405.968 329.12C406.138 329.453 406.409 329.724 406.742 329.893C407.121 330.086 407.617 330.086 408.608 330.086H411.973M412.858 314.149L418.171 319.462M412.858 314.149V318.045C412.858 318.541 412.858 318.789 412.955 318.978C413.04 319.145 413.175 319.28 413.342 319.365C413.531 319.462 413.779 319.462 414.275 319.462H418.171M418.171 319.462V323.446" stroke="#707072" stroke-width="1.77082" stroke-linecap="round" stroke-linejoin="round"/>
<rect x="344.263" y="11.7636" width="37.4049" height="37.7117" rx="7.73649" fill="#F1F1F1"/>
<path d="M365.621 36.8174L367.392 38.5882L370.934 35.0466M363.851 22.6508H359.601C358.609 22.6508 358.113 22.6508 357.734 22.8438C357.401 23.0136 357.13 23.2845 356.96 23.6177C356.767 23.9965 356.767 24.4924 356.767 25.4841V35.7549C356.767 36.7467 356.767 37.2426 356.96 37.6214C357.13 37.9545 357.401 38.2255 357.734 38.3952C358.113 38.5882 358.609 38.5882 359.601 38.5882H362.965M363.851 22.6508L369.163 27.9633M363.851 22.6508V26.5466C363.851 27.0425 363.851 27.2904 363.947 27.4798C364.032 27.6464 364.167 27.7819 364.334 27.8668C364.523 27.9633 364.771 27.9633 365.267 27.9633H369.163M369.163 27.9633V31.9476" stroke="#707072" stroke-width="1.77082" stroke-linecap="round" stroke-linejoin="round"/>
<rect x="144.765" y="154.878" width="37.4049" height="37.7117" rx="7.73649" fill="#F1F1F1"/>
<path d="M171.232 168.08C171.232 168.559 171.042 169.018 170.704 169.356C170.365 169.695 169.907 169.885 169.428 169.886H168.862V179.276C168.862 179.754 168.672 180.213 168.333 180.551C167.995 180.889 167.537 181.079 167.058 181.08H157.506C157.269 181.08 157.034 181.033 156.815 180.942C156.596 180.852 156.398 180.719 156.23 180.551C156.062 180.384 155.929 180.185 155.839 179.966C155.748 179.747 155.701 179.512 155.701 179.275C155.701 179.038 155.748 178.804 155.839 178.585C155.929 178.366 156.062 178.167 156.23 177.999C156.398 177.832 156.596 177.699 156.815 177.608C157.034 177.517 157.269 177.471 157.506 177.471H158.071V168.08C158.071 167.602 158.261 167.142 158.599 166.804C158.938 166.465 159.397 166.275 159.876 166.274H169.427C169.906 166.275 170.365 166.465 170.703 166.803C171.042 167.142 171.232 167.601 171.232 168.079V168.08ZM157.506 179.841H165.343C165.222 179.474 165.222 179.078 165.343 178.711H157.508C157.358 178.711 157.215 178.77 157.109 178.876C157.003 178.982 156.943 179.126 156.943 179.276C156.943 179.426 157.003 179.569 157.109 179.675C157.215 179.781 157.358 179.841 157.508 179.841H157.506ZM167.622 168.08C167.622 167.889 167.652 167.698 167.712 167.516H159.877C159.751 167.515 159.629 167.558 159.53 167.635L159.528 167.636C159.461 167.689 159.406 167.756 159.368 167.833C159.331 167.91 159.312 167.995 159.312 168.08V177.471H166.4C166.554 177.469 166.705 177.52 166.826 177.614C166.948 177.709 167.034 177.843 167.071 177.993C167.113 178.137 167.109 178.29 167.058 178.431C167.008 178.572 166.914 178.694 166.79 178.778C166.702 178.826 166.629 178.896 166.577 178.981C166.525 179.066 166.497 179.163 166.495 179.263C166.493 179.363 166.517 179.461 166.566 179.548C166.614 179.636 166.685 179.708 166.77 179.759C166.856 179.811 166.953 179.838 167.053 179.839C167.153 179.84 167.251 179.815 167.338 179.766C167.425 179.717 167.497 179.646 167.547 179.559C167.597 179.473 167.624 179.375 167.624 179.276L167.622 168.08ZM166.66 169.689H160.218V170.927H166.66V169.689ZM166.66 172.216H160.218V173.454H166.66V172.216ZM166.66 174.744H160.218V175.983H166.66V174.744ZM169.992 168.08C169.992 167.931 169.932 167.787 169.826 167.681C169.72 167.576 169.577 167.516 169.427 167.516C169.301 167.515 169.179 167.557 169.08 167.635H169.078C169.01 167.688 168.956 167.755 168.918 167.833C168.88 167.91 168.861 167.995 168.861 168.08V168.645H169.427C169.577 168.645 169.72 168.585 169.826 168.48C169.932 168.374 169.992 168.23 169.992 168.08Z" fill="#707072"/>
<rect x="383.423" y="108.091" width="37.4049" height="37.7117" rx="7.73649" fill="#F1F1F1"/>
<g clip-path="url(#clip0_6043_5252)">
<path d="M406.303 133.811L405.736 129.274C405.57 127.944 404.44 126.947 403.1 126.947H402.125H401.149C399.81 126.947 398.68 127.944 398.514 129.274L397.947 133.811C397.814 134.867 398.639 135.801 399.704 135.801H402.125H404.546C405.611 135.801 406.435 134.867 406.303 133.811Z" stroke="#707072" stroke-width="1.77082" stroke-linecap="round" stroke-linejoin="round"/>
<path d="M402.124 123.405C403.591 123.405 404.78 122.216 404.78 120.749C404.78 119.282 403.591 118.093 402.124 118.093C400.657 118.093 399.468 119.282 399.468 120.749C399.468 122.216 400.657 123.405 402.124 123.405Z" stroke="#707072" stroke-width="1.77082"/>
<path d="M395.041 126.062C396.019 126.062 396.812 125.269 396.812 124.291C396.812 123.313 396.019 122.52 395.041 122.52C394.063 122.52 393.271 123.313 393.271 124.291C393.271 125.269 394.063 126.062 395.041 126.062Z" stroke="#707072" stroke-width="1.77082"/>
<path d="M409.208 126.062C410.186 126.062 410.979 125.269 410.979 124.291C410.979 123.313 410.186 122.52 409.208 122.52C408.23 122.52 407.437 123.313 407.437 124.291C407.437 125.269 408.23 126.062 409.208 126.062Z" stroke="#707072" stroke-width="1.77082"/>
<path d="M395.041 128.718H394.77C393.905 128.718 393.166 129.344 393.024 130.198L392.728 131.968C392.548 133.048 393.381 134.03 394.475 134.03H397.697" stroke="#707072" stroke-width="1.77082" stroke-linecap="round" stroke-linejoin="round"/>
<path d="M409.208 128.718H409.479C410.344 128.718 411.083 129.344 411.225 130.198L411.521 131.968C411.7 133.048 410.868 134.03 409.774 134.03C408.745 134.03 407.521 134.03 406.552 134.03" stroke="#707072" stroke-width="1.77082" stroke-linecap="round" stroke-linejoin="round"/>
</g>
<rect x="194.859" y="306.537" width="37.4049" height="37.7117" rx="7.73649" fill="#F1F1F1"/>
<path d="M213.562 329.82V333.362M210.02 333.362H217.103M208.426 329.82H218.697C219.689 329.82 220.185 329.82 220.564 329.627C220.897 329.457 221.168 329.186 221.337 328.853C221.53 328.475 221.53 327.979 221.53 326.987V320.258C221.53 319.266 221.53 318.77 221.337 318.391C221.168 318.058 220.897 317.787 220.564 317.617C220.185 317.424 219.689 317.424 218.697 317.424H208.426C207.435 317.424 206.939 317.424 206.56 317.617C206.227 317.787 205.956 318.058 205.786 318.391C205.593 318.77 205.593 319.266 205.593 320.258V326.987C205.593 327.979 205.593 328.475 205.786 328.853C205.956 329.186 206.227 329.457 206.56 329.627C206.939 329.82 207.435 329.82 208.426 329.82Z" stroke="#707072" stroke-width="1.77082" stroke-linecap="round"/>
<rect x="325.561" y="195.286" width="37.4049" height="37.7117" rx="7.73649" fill="#F1F1F1"/>
<path fill-rule="evenodd" clip-rule="evenodd" d="M335.922 208.929C335.922 207.202 337.323 205.801 339.05 205.801H344.263H349.476C351.203 205.801 352.604 207.202 352.604 208.929V214.142V219.355C352.604 221.082 351.203 222.483 349.476 222.483H344.263H339.05C337.323 222.483 335.922 221.082 335.922 219.355V214.142V208.929ZM339.05 207.886C338.474 207.886 338.008 208.353 338.008 208.929V213.099H343.22V207.886H339.05ZM345.306 207.886V213.099H350.519V208.929C350.519 208.353 350.052 207.886 349.476 207.886H345.306ZM350.519 215.184H345.306V220.397H349.476C350.052 220.397 350.519 219.931 350.519 219.355V215.184ZM343.22 220.397V215.184H338.008V219.355C338.008 219.931 338.474 220.397 339.05 220.397H343.22Z" fill="#707072"/>
<rect x="224.187" y="70.3794" width="37.4049" height="37.7117" rx="7.73649" fill="#F1F1F1"/>
<path fill-rule="evenodd" clip-rule="evenodd" d="M234.548 84.0221C234.548 82.2947 235.949 80.8944 237.676 80.8944H242.889H248.102C249.829 80.8944 251.23 82.2947 251.23 84.0221V89.2351V94.448C251.23 96.1755 249.829 97.5758 248.102 97.5758H242.889H237.676C235.949 97.5758 234.548 96.1755 234.548 94.448V89.2351V84.0221ZM237.676 82.9796C237.1 82.9796 236.634 83.4463 236.634 84.0221V88.1925H241.846V82.9796H237.676ZM243.932 82.9796V88.1925H249.145V84.0221C249.145 83.4463 248.678 82.9796 248.102 82.9796H243.932ZM249.145 90.2777H243.932V95.4906H248.102C248.678 95.4906 249.145 95.0238 249.145 94.448V90.2777ZM241.846 95.4906V90.2777H236.634V94.448C236.634 95.0238 237.1 95.4906 237.676 95.4906H241.846Z" fill="#707072"/>
<rect x="12.4231" y="129.569" width="37.4049" height="37.7117" rx="7.73649" fill="#F1F1F1"/>
<g clip-path="url(#clip1_6043_5252)">
<path fill-rule="evenodd" clip-rule="evenodd" d="M36.8313 150.852L28.7569 156.311C26.7894 157.641 24.1245 156.244 24.1245 153.884V142.966C24.1245 140.605 26.7894 139.208 28.7569 140.539L36.8313 145.997C38.5565 147.164 38.5565 149.686 36.8313 150.852Z" fill="#707072"/>
</g>
<path d="M190.094 407.24V394.063H193.284V413.482H190.787L181.632 400.305V413.482H178.442V394.063H180.939L190.094 407.24ZM208.703 411.734C207.298 413.14 205.568 413.843 203.515 413.843C201.463 413.843 199.733 413.14 198.328 411.734C196.904 410.31 196.192 408.581 196.192 406.547C196.192 404.512 196.904 402.783 198.328 401.359C199.733 399.953 201.463 399.25 203.515 399.25C205.568 399.25 207.298 399.953 208.703 401.359C210.127 402.783 210.839 404.512 210.839 406.547C210.839 408.581 210.127 410.31 208.703 411.734ZM199.188 406.547C199.188 407.804 199.604 408.849 200.436 409.681C201.268 410.514 202.295 410.93 203.515 410.93C204.736 410.93 205.763 410.514 206.595 409.681C207.427 408.849 207.843 407.804 207.843 406.547C207.843 405.289 207.427 404.244 206.595 403.412C205.763 402.579 204.736 402.163 203.515 402.163C202.295 402.163 201.268 402.579 200.436 403.412C199.604 404.244 199.188 405.289 199.188 406.547ZM228.224 399.611V402.496H224.784V409.154C224.784 409.728 224.914 410.144 225.173 410.403C225.431 410.643 225.811 410.782 226.31 410.819C226.828 410.837 227.466 410.828 228.224 410.791V413.482C225.931 413.76 224.285 413.565 223.286 412.9C222.287 412.215 221.788 410.967 221.788 409.154V402.496H219.236V399.611H221.788V396.615L224.784 395.727V399.611H228.224ZM243.772 407.823H232.731C232.953 408.858 233.452 409.663 234.229 410.236C235.024 410.81 236.004 411.096 237.169 411.096C238.742 411.096 239.934 410.523 240.748 409.376L243.217 410.819C241.867 412.835 239.842 413.843 237.142 413.843C234.904 413.843 233.082 413.158 231.677 411.79C230.289 410.403 229.596 408.655 229.596 406.547C229.596 404.494 230.28 402.764 231.649 401.359C232.999 399.953 234.756 399.25 236.92 399.25C238.936 399.25 240.6 399.962 241.913 401.387C243.227 402.811 243.883 404.54 243.883 406.574C243.883 406.944 243.846 407.36 243.772 407.823ZM232.703 405.381H240.859C240.656 404.29 240.193 403.449 239.472 402.857C238.769 402.265 237.909 401.969 236.892 401.969C235.782 401.969 234.858 402.274 234.118 402.885C233.378 403.495 232.906 404.327 232.703 405.381ZM257.424 401.581V399.611H260.42V413.482H257.424V411.485C256.296 413.057 254.678 413.843 252.569 413.843C250.664 413.843 249.037 413.14 247.687 411.734C246.336 410.329 245.661 408.599 245.661 406.547C245.661 404.494 246.336 402.764 247.687 401.359C249.037 399.953 250.664 399.25 252.569 399.25C254.678 399.25 256.296 400.027 257.424 401.581ZM249.906 409.737C250.738 410.569 251.783 410.985 253.041 410.985C254.298 410.985 255.343 410.569 256.176 409.737C257.008 408.886 257.424 407.823 257.424 406.547C257.424 405.27 257.008 404.216 256.176 403.384C255.343 402.533 254.298 402.108 253.041 402.108C251.783 402.108 250.738 402.533 249.906 403.384C249.074 404.216 248.658 405.27 248.658 406.547C248.658 407.804 249.074 408.868 249.906 409.737ZM279.06 399.25C280.632 399.25 281.899 399.759 282.86 400.776C283.822 401.793 284.303 403.162 284.303 404.882V413.482H281.307V405.076C281.307 404.133 281.066 403.393 280.586 402.857C280.105 402.32 279.448 402.052 278.616 402.052C277.673 402.052 276.933 402.367 276.396 402.996C275.86 403.606 275.592 404.512 275.592 405.714V413.482H272.596V405.076C272.596 404.114 272.365 403.375 271.902 402.857C271.458 402.32 270.82 402.052 269.988 402.052C269.063 402.052 268.314 402.367 267.741 402.996C267.186 403.624 266.909 404.531 266.909 405.714V413.482H263.912V399.611H266.909V401.276C267.796 399.925 269.119 399.25 270.876 399.25C272.651 399.25 273.964 399.981 274.815 401.442C275.721 399.981 277.136 399.25 279.06 399.25ZM300.243 409.681L303.794 399.611H306.985L301.658 413.926C300.326 417.514 298.07 419.215 294.889 419.031V416.229C295.814 416.284 296.563 416.09 297.136 415.646C297.709 415.202 298.19 414.49 298.579 413.51L298.717 413.232L292.836 399.611H296.11L300.243 409.681ZM321.716 407.823H310.674C310.896 408.858 311.396 409.663 312.172 410.236C312.968 410.81 313.948 411.096 315.113 411.096C316.685 411.096 317.878 410.523 318.692 409.376L321.161 410.819C319.811 412.835 317.786 413.843 315.085 413.843C312.847 413.843 311.026 413.158 309.62 411.79C308.233 410.403 307.539 408.655 307.539 406.547C307.539 404.494 308.224 402.764 309.592 401.359C310.942 399.953 312.699 399.25 314.863 399.25C316.879 399.25 318.544 399.962 319.857 401.387C321.17 402.811 321.827 404.54 321.827 406.574C321.827 406.944 321.79 407.36 321.716 407.823ZM310.647 405.381H318.803C318.599 404.29 318.137 403.449 317.416 402.857C316.713 402.265 315.853 401.969 314.836 401.969C313.726 401.969 312.801 402.274 312.061 402.885C311.322 403.495 310.85 404.327 310.647 405.381ZM331.77 399.611V402.496H328.33V409.154C328.33 409.728 328.459 410.144 328.718 410.403C328.977 410.643 329.356 410.782 329.855 410.819C330.373 410.837 331.011 410.828 331.77 410.791V413.482C329.476 413.76 327.83 413.565 326.831 412.9C325.833 412.215 325.333 410.967 325.333 409.154V402.496H322.781V399.611H325.333V396.615L328.33 395.727V399.611H331.77Z" fill="black"/>
<rect x="463.083" y="207.797" width="37.4049" height="37.7117" rx="7.73649" fill="#F1F1F1"/>
<g clip-path="url(#clip2_6043_5252)">
<path d="M486.999 216.839H476.571C476.164 216.839 475.774 217.001 475.487 217.288C475.199 217.576 475.038 217.966 475.038 218.372V234.934C475.038 235.341 475.199 235.731 475.487 236.018C475.774 236.306 476.164 236.467 476.571 236.467H486.999C487.405 236.467 487.795 236.306 488.083 236.018C488.371 235.731 488.532 235.341 488.532 234.934V218.372C488.532 217.966 488.371 217.576 488.083 217.288C487.795 217.001 487.405 216.839 486.999 216.839ZM486.999 234.934H476.571V218.372H486.999V234.934Z" fill="#707072"/>
<path d="M481.786 233.4C482.328 233.4 482.767 232.988 482.767 232.48C482.767 231.972 482.328 231.56 481.786 231.56C481.244 231.56 480.804 231.972 480.804 232.48C480.804 232.988 481.244 233.4 481.786 233.4Z" fill="#707072"/>
</g>
<path d="M76.1134 451.231V442.879H77.6014V454.079H76.4014L70.6414 445.711V454.079H69.1534V442.879H70.3534L76.1134 451.231ZM86.6051 453.071C85.7945 453.882 84.7971 454.287 83.6131 454.287C82.4291 454.287 81.4318 453.882 80.6211 453.071C79.8105 452.261 79.4051 451.263 79.4051 450.079C79.4051 448.895 79.8105 447.898 80.6211 447.087C81.4318 446.277 82.4291 445.871 83.6131 445.871C84.7971 445.871 85.7945 446.277 86.6051 447.087C87.4265 447.909 87.8371 448.906 87.8371 450.079C87.8371 451.253 87.4265 452.25 86.6051 453.071ZM83.6131 452.927C84.4131 452.927 85.0851 452.655 85.6291 452.111C86.1731 451.567 86.4451 450.89 86.4451 450.079C86.4451 449.269 86.1731 448.591 85.6291 448.047C85.0851 447.503 84.4131 447.231 83.6131 447.231C82.8238 447.231 82.1571 447.503 81.6131 448.047C81.0691 448.591 80.7971 449.269 80.7971 450.079C80.7971 450.89 81.0691 451.567 81.6131 452.111C82.1571 452.655 82.8238 452.927 83.6131 452.927ZM97.8301 446.079V447.423H95.7021V451.759C95.7021 452.154 95.7768 452.437 95.9261 452.607C96.0861 452.767 96.3261 452.853 96.6461 452.863C96.9661 452.863 97.3608 452.853 97.8301 452.831V454.079C96.6035 454.239 95.7075 454.138 95.1421 453.775C94.5875 453.413 94.3101 452.741 94.3101 451.759V447.423H92.7261V446.079H94.3101V444.255L95.7021 443.839V446.079H97.8301ZM106.752 450.719H100.048C100.187 451.423 100.512 451.978 101.024 452.383C101.536 452.778 102.176 452.975 102.944 452.975C104 452.975 104.768 452.586 105.248 451.807L106.432 452.479C105.643 453.685 104.469 454.287 102.912 454.287C101.653 454.287 100.619 453.893 99.8079 453.103C99.0185 452.293 98.6239 451.285 98.6239 450.079C98.6239 448.863 99.0132 447.861 99.7919 447.071C100.571 446.271 101.579 445.871 102.816 445.871C103.989 445.871 104.944 446.287 105.68 447.119C106.427 447.93 106.8 448.922 106.8 450.095C106.8 450.298 106.784 450.506 106.752 450.719ZM102.816 447.183C102.08 447.183 101.461 447.391 100.96 447.807C100.469 448.223 100.165 448.789 100.048 449.503H105.392C105.275 448.767 104.981 448.197 104.512 447.791C104.043 447.386 103.477 447.183 102.816 447.183ZM115.008 447.455V446.079H116.4V454.079H115.008V452.703C114.326 453.759 113.318 454.287 111.984 454.287C110.854 454.287 109.899 453.882 109.12 453.071C108.331 452.25 107.936 451.253 107.936 450.079C107.936 448.917 108.331 447.925 109.12 447.103C109.91 446.282 110.864 445.871 111.984 445.871C113.318 445.871 114.326 446.399 115.008 447.455ZM112.16 452.943C112.971 452.943 113.648 452.671 114.192 452.127C114.736 451.562 115.008 450.879 115.008 450.079C115.008 449.269 114.736 448.591 114.192 448.047C113.648 447.493 112.971 447.215 112.16 447.215C111.36 447.215 110.688 447.493 110.144 448.047C109.6 448.591 109.328 449.269 109.328 450.079C109.328 450.879 109.6 451.562 110.144 452.127C110.688 452.671 111.36 452.943 112.16 452.943ZM127.149 445.871C128.056 445.871 128.781 446.165 129.325 446.751C129.88 447.338 130.157 448.122 130.157 449.103V454.079H128.765V449.151C128.765 448.543 128.605 448.069 128.285 447.727C127.976 447.375 127.549 447.199 127.005 447.199C126.387 447.199 125.901 447.407 125.549 447.823C125.208 448.229 125.037 448.831 125.037 449.631V454.079H123.645V449.151C123.645 448.543 123.491 448.069 123.181 447.727C122.883 447.375 122.472 447.199 121.949 447.199C121.341 447.199 120.845 447.413 120.461 447.839C120.088 448.255 119.901 448.853 119.901 449.631V454.079H118.509V446.079H119.901V447.151C120.445 446.298 121.24 445.871 122.285 445.871C123.363 445.871 124.147 446.325 124.637 447.231C125.192 446.325 126.029 445.871 127.149 445.871ZM140.071 445.871C141.01 445.871 141.762 446.17 142.327 446.767C142.893 447.354 143.175 448.154 143.175 449.167V454.079H141.783V449.247C141.783 448.607 141.607 448.106 141.255 447.743C140.903 447.381 140.418 447.199 139.799 447.199C139.085 447.199 138.519 447.423 138.103 447.871C137.687 448.309 137.479 448.965 137.479 449.839V454.079H136.087V442.879H137.479V447.231C138.034 446.325 138.898 445.871 140.071 445.871ZM152.799 450.719H146.095C146.233 451.423 146.559 451.978 147.071 452.383C147.583 452.778 148.223 452.975 148.991 452.975C150.047 452.975 150.815 452.586 151.295 451.807L152.479 452.479C151.689 453.685 150.516 454.287 148.959 454.287C147.7 454.287 146.665 453.893 145.855 453.103C145.065 452.293 144.671 451.285 144.671 450.079C144.671 448.863 145.06 447.861 145.839 447.071C146.617 446.271 147.625 445.871 148.863 445.871C150.036 445.871 150.991 446.287 151.727 447.119C152.473 447.93 152.847 448.922 152.847 450.095C152.847 450.298 152.831 450.506 152.799 450.719ZM148.863 447.183C148.127 447.183 147.508 447.391 147.007 447.807C146.516 448.223 146.212 448.789 146.095 449.503H151.439C151.321 448.767 151.028 448.197 150.559 447.791C150.089 447.386 149.524 447.183 148.863 447.183ZM155.839 446.079V447.423C156.298 446.431 157.13 445.935 158.335 445.935V447.391C157.652 447.359 157.066 447.541 156.575 447.935C156.084 448.33 155.839 448.965 155.839 449.839V454.079H154.447V446.079H155.839ZM166.939 450.719H160.235C160.374 451.423 160.699 451.978 161.211 452.383C161.723 452.778 162.363 452.975 163.131 452.975C164.187 452.975 164.955 452.586 165.435 451.807L166.619 452.479C165.83 453.685 164.657 454.287 163.099 454.287C161.841 454.287 160.806 453.893 159.995 453.103C159.206 452.293 158.811 451.285 158.811 450.079C158.811 448.863 159.201 447.861 159.979 447.071C160.758 446.271 161.766 445.871 163.003 445.871C164.177 445.871 165.131 446.287 165.867 447.119C166.614 447.93 166.987 448.922 166.987 450.095C166.987 450.298 166.971 450.506 166.939 450.719ZM163.003 447.183C162.267 447.183 161.649 447.391 161.147 447.807C160.657 448.223 160.353 448.789 160.235 449.503H165.579C165.462 448.767 165.169 448.197 164.699 447.791C164.23 447.386 163.665 447.183 163.003 447.183ZM175.867 452.351L178.171 446.079H179.659L176.395 454.575C176.043 455.482 175.558 456.17 174.939 456.639C174.331 457.119 173.633 457.333 172.843 457.279V455.983C173.825 456.058 174.545 455.514 175.003 454.351L175.147 454.047L171.659 446.079H173.147L175.867 452.351ZM188.189 450.719H181.485C181.624 451.423 181.949 451.978 182.461 452.383C182.973 452.778 183.613 452.975 184.381 452.975C185.437 452.975 186.205 452.586 186.685 451.807L187.869 452.479C187.08 453.685 185.907 454.287 184.349 454.287C183.091 454.287 182.056 453.893 181.245 453.103C180.456 452.293 180.061 451.285 180.061 450.079C180.061 448.863 180.451 447.861 181.229 447.071C182.008 446.271 183.016 445.871 184.253 445.871C185.427 445.871 186.381 446.287 187.117 447.119C187.864 447.93 188.237 448.922 188.237 450.095C188.237 450.298 188.221 450.506 188.189 450.719ZM184.253 447.183C183.517 447.183 182.899 447.391 182.397 447.807C181.907 448.223 181.603 448.789 181.485 449.503H186.829C186.712 448.767 186.419 448.197 185.949 447.791C185.48 447.386 184.915 447.183 184.253 447.183ZM193.955 446.079V447.423H191.827V451.759C191.827 452.154 191.902 452.437 192.051 452.607C192.211 452.767 192.451 452.853 192.771 452.863C193.091 452.863 193.486 452.853 193.955 452.831V454.079C192.728 454.239 191.832 454.138 191.267 453.775C190.712 453.413 190.435 452.741 190.435 451.759V447.423H188.851V446.079H190.435V444.255L191.827 443.839V446.079H193.955ZM205.302 449.839H195.622V448.495H205.302V449.839ZM208.948 454.079H207.556V442.399H208.948V454.079ZM218.752 450.719H212.048C212.187 451.423 212.512 451.978 213.024 452.383C213.536 452.778 214.176 452.975 214.944 452.975C216 452.975 216.768 452.586 217.248 451.807L218.432 452.479C217.643 453.685 216.469 454.287 214.912 454.287C213.653 454.287 212.619 453.893 211.808 453.103C211.019 452.293 210.624 451.285 210.624 450.079C210.624 448.863 211.013 447.861 211.792 447.071C212.571 446.271 213.579 445.871 214.816 445.871C215.989 445.871 216.944 446.287 217.68 447.119C218.427 447.93 218.8 448.922 218.8 450.095C218.8 450.298 218.784 450.506 218.752 450.719ZM214.816 447.183C214.08 447.183 213.461 447.391 212.96 447.807C212.469 448.223 212.165 448.789 212.048 449.503H217.392C217.275 448.767 216.981 448.197 216.512 447.791C216.043 447.386 215.477 447.183 214.816 447.183ZM224.518 446.079V447.423H222.39V451.759C222.39 452.154 222.464 452.437 222.614 452.607C222.774 452.767 223.014 452.853 223.334 452.863C223.654 452.863 224.048 452.853 224.518 452.831V454.079C223.291 454.239 222.395 454.138 221.83 453.775C221.275 453.413 220.998 452.741 220.998 451.759V447.423H219.414V446.079H220.998V444.255L222.39 443.839V446.079H224.518ZM226.864 442.863H228.464L227.424 446.751H226.224L226.864 442.863ZM230.35 448.239C230.35 448.751 230.878 449.151 231.934 449.439C232.329 449.525 232.659 449.615 232.926 449.711C233.203 449.797 233.502 449.93 233.822 450.111C234.153 450.293 234.403 450.533 234.574 450.831C234.745 451.13 234.83 451.482 234.83 451.887C234.83 452.613 234.547 453.194 233.982 453.631C233.417 454.069 232.702 454.287 231.838 454.287C231.07 454.287 230.403 454.122 229.838 453.791C229.283 453.45 228.889 452.991 228.654 452.415L229.854 451.727C229.982 452.111 230.222 452.415 230.574 452.639C230.926 452.863 231.347 452.975 231.838 452.975C232.318 452.975 232.702 452.885 232.99 452.703C233.278 452.522 233.422 452.25 233.422 451.887C233.422 451.343 232.894 450.949 231.838 450.703C231.486 450.607 231.219 450.533 231.038 450.479C230.857 450.426 230.606 450.33 230.286 450.191C229.977 450.053 229.742 449.909 229.582 449.759C229.422 449.599 229.273 449.391 229.134 449.135C229.006 448.869 228.942 448.575 228.942 448.255C228.942 447.562 229.209 446.991 229.742 446.543C230.286 446.095 230.963 445.871 231.774 445.871C232.425 445.871 233.001 446.021 233.502 446.319C234.014 446.607 234.398 447.013 234.654 447.535L233.486 448.191C233.198 447.509 232.627 447.167 231.774 447.167C231.369 447.167 231.027 447.263 230.75 447.455C230.483 447.647 230.35 447.909 230.35 448.239ZM242.478 446.079H246.83V454.079H245.438V447.423H242.478V454.079H241.086V447.423H239.806V446.079H241.086V445.839C241.086 443.727 242.254 442.671 244.59 442.671C245.059 442.671 245.609 442.741 246.238 442.879V444.143C245.534 444.058 244.985 444.015 244.59 444.015C243.854 444.015 243.315 444.154 242.974 444.431C242.643 444.709 242.478 445.178 242.478 445.839V446.079ZM252.85 449.951L255.906 454.079H254.274L252.034 451.055L249.778 454.079H248.146L251.218 449.967L248.322 446.079H249.97L252.034 448.863L254.098 446.079H255.73L252.85 449.951ZM265.549 446.079V447.423H263.421V451.759C263.421 452.154 263.496 452.437 263.645 452.607C263.805 452.767 264.045 452.853 264.365 452.863C264.685 452.863 265.08 452.853 265.549 452.831V454.079C264.322 454.239 263.426 454.138 262.861 453.775C262.306 453.413 262.029 452.741 262.029 451.759V447.423H260.445V446.079H262.029V444.255L263.421 443.839V446.079H265.549ZM271.181 445.871C272.12 445.871 272.872 446.17 273.437 446.767C274.002 447.354 274.285 448.154 274.285 449.167V454.079H272.893V449.247C272.893 448.607 272.717 448.106 272.365 447.743C272.013 447.381 271.528 447.199 270.909 447.199C270.194 447.199 269.629 447.423 269.213 447.871C268.797 448.309 268.589 448.965 268.589 449.839V454.079H267.197V442.879H268.589V447.231C269.144 446.325 270.008 445.871 271.181 445.871ZM282.852 447.455V446.079H284.244V454.079H282.852V452.703C282.169 453.759 281.161 454.287 279.828 454.287C278.697 454.287 277.743 453.882 276.964 453.071C276.175 452.25 275.78 451.253 275.78 450.079C275.78 448.917 276.175 447.925 276.964 447.103C277.753 446.282 278.708 445.871 279.828 445.871C281.161 445.871 282.169 446.399 282.852 447.455ZM280.004 452.943C280.815 452.943 281.492 452.671 282.036 452.127C282.58 451.562 282.852 450.879 282.852 450.079C282.852 449.269 282.58 448.591 282.036 448.047C281.492 447.493 280.815 447.215 280.004 447.215C279.204 447.215 278.532 447.493 277.988 448.047C277.444 448.591 277.172 449.269 277.172 450.079C277.172 450.879 277.444 451.562 277.988 452.127C278.532 452.671 279.204 452.943 280.004 452.943ZM290.705 446.079V447.423H288.577V451.759C288.577 452.154 288.652 452.437 288.801 452.607C288.961 452.767 289.201 452.853 289.521 452.863C289.841 452.863 290.236 452.853 290.705 452.831V454.079C289.478 454.239 288.582 454.138 288.017 453.775C287.462 453.413 287.185 452.741 287.185 451.759V447.423H285.601V446.079H287.185V444.255L288.577 443.839V446.079H290.705ZM293.824 450.799H292.752L292.448 446.079V442.879H294.128V446.079L293.824 450.799ZM293.28 454.255C292.992 454.255 292.747 454.154 292.544 453.951C292.341 453.749 292.24 453.503 292.24 453.215C292.24 452.927 292.341 452.682 292.544 452.479C292.747 452.277 292.992 452.175 293.28 452.175C293.579 452.175 293.824 452.277 294.016 452.479C294.219 452.682 294.32 452.927 294.32 453.215C294.32 453.503 294.219 453.749 294.016 453.951C293.824 454.154 293.579 454.255 293.28 454.255ZM304.051 454.287C303.005 454.287 302.109 454.047 301.363 453.567C300.627 453.077 300.109 452.399 299.811 451.535L301.091 450.799C301.517 452.154 302.515 452.831 304.083 452.831C304.84 452.831 305.421 452.677 305.827 452.367C306.243 452.058 306.451 451.637 306.451 451.103C306.451 450.581 306.248 450.181 305.843 449.903C305.48 449.658 304.803 449.375 303.811 449.055L302.739 448.703C302.504 448.607 302.195 448.469 301.811 448.287C301.437 448.095 301.165 447.903 300.995 447.711C300.525 447.199 300.291 446.575 300.291 445.839C300.291 444.858 300.632 444.09 301.315 443.535C301.997 442.959 302.829 442.671 303.811 442.671C304.685 442.671 305.453 442.89 306.115 443.327C306.776 443.765 307.272 444.362 307.603 445.119L306.355 445.839C305.875 444.687 305.027 444.111 303.811 444.111C303.203 444.111 302.712 444.261 302.339 444.559C301.965 444.858 301.779 445.263 301.779 445.775C301.779 446.266 301.955 446.639 302.307 446.895C302.669 447.162 303.277 447.429 304.131 447.695L304.787 447.903C305.149 448.042 305.347 448.117 305.379 448.127C305.72 448.255 306.093 448.431 306.499 448.655C306.787 448.815 307.075 449.061 307.363 449.391C307.736 449.765 307.923 450.325 307.923 451.071C307.923 452.053 307.565 452.837 306.851 453.423C306.125 453.999 305.192 454.287 304.051 454.287ZM313.658 446.079V447.423H311.53V451.759C311.53 452.154 311.605 452.437 311.754 452.607C311.914 452.767 312.154 452.853 312.474 452.863C312.794 452.863 313.189 452.853 313.658 452.831V454.079C312.432 454.239 311.536 454.138 310.97 453.775C310.416 453.413 310.138 452.741 310.138 451.759V447.423H308.554V446.079H310.138V444.255L311.53 443.839V446.079H313.658ZM321.524 447.455V446.079H322.916V454.079H321.524V452.703C320.841 453.759 319.833 454.287 318.5 454.287C317.369 454.287 316.415 453.882 315.636 453.071C314.847 452.25 314.452 451.253 314.452 450.079C314.452 448.917 314.847 447.925 315.636 447.103C316.425 446.282 317.38 445.871 318.5 445.871C319.833 445.871 320.841 446.399 321.524 447.455ZM318.676 452.943C319.487 452.943 320.164 452.671 320.708 452.127C321.252 451.562 321.524 450.879 321.524 450.079C321.524 449.269 321.252 448.591 320.708 448.047C320.164 447.493 319.487 447.215 318.676 447.215C317.876 447.215 317.204 447.493 316.66 448.047C316.116 448.591 315.844 449.269 315.844 450.079C315.844 450.879 316.116 451.562 316.66 452.127C317.204 452.671 317.876 452.943 318.676 452.943ZM326.417 446.079V447.423C326.876 446.431 327.708 445.935 328.913 445.935V447.391C328.23 447.359 327.644 447.541 327.153 447.935C326.662 448.33 326.417 448.965 326.417 449.839V454.079H325.025V446.079H326.417ZM334.814 446.079V447.423H332.686V451.759C332.686 452.154 332.761 452.437 332.91 452.607C333.07 452.767 333.31 452.853 333.63 452.863C333.95 452.863 334.345 452.853 334.814 452.831V454.079C333.588 454.239 332.692 454.138 332.126 453.775C331.572 453.413 331.294 452.741 331.294 451.759V447.423H329.71V446.079H331.294V444.255L332.686 443.839V446.079H334.814ZM344.925 445.871C346.045 445.871 347 446.282 347.789 447.103C348.579 447.925 348.973 448.917 348.973 450.079C348.973 451.253 348.579 452.25 347.789 453.071C347.011 453.882 346.056 454.287 344.925 454.287C343.603 454.287 342.595 453.759 341.901 452.703V454.079H340.509V442.879H341.901V447.455C342.595 446.399 343.603 445.871 344.925 445.871ZM344.749 452.943C345.549 452.943 346.221 452.671 346.765 452.127C347.309 451.562 347.581 450.879 347.581 450.079C347.581 449.269 347.309 448.591 346.765 448.047C346.221 447.493 345.549 447.215 344.749 447.215C343.939 447.215 343.261 447.493 342.717 448.047C342.173 448.591 341.901 449.269 341.901 450.079C341.901 450.879 342.173 451.562 342.717 452.127C343.261 452.671 343.939 452.943 344.749 452.943ZM353.602 452.351L355.906 446.079H357.394L354.13 454.575C353.778 455.482 353.293 456.17 352.674 456.639C352.066 457.119 351.367 457.333 350.578 457.279V455.983C351.559 456.058 352.279 455.514 352.738 454.351L352.882 454.047L349.394 446.079H350.882L353.602 452.351ZM366.316 454.287C365.111 454.287 364.108 453.887 363.308 453.087C362.508 452.277 362.108 451.274 362.108 450.079C362.108 448.885 362.508 447.887 363.308 447.087C364.108 446.277 365.111 445.871 366.316 445.871C367.106 445.871 367.815 446.063 368.444 446.447C369.074 446.821 369.543 447.327 369.852 447.967L368.684 448.639C368.482 448.213 368.167 447.871 367.74 447.615C367.324 447.359 366.85 447.231 366.316 447.231C365.516 447.231 364.844 447.503 364.3 448.047C363.767 448.602 363.5 449.279 363.5 450.079C363.5 450.869 363.767 451.541 364.3 452.095C364.844 452.639 365.516 452.911 366.316 452.911C366.85 452.911 367.33 452.789 367.756 452.543C368.183 452.287 368.508 451.946 368.732 451.519L369.916 452.207C369.564 452.847 369.068 453.354 368.428 453.727C367.788 454.101 367.084 454.287 366.316 454.287ZM372.698 446.079V447.423C373.157 446.431 373.989 445.935 375.194 445.935V447.391C374.512 447.359 373.925 447.541 373.434 447.935C372.944 448.33 372.698 448.965 372.698 449.839V454.079H371.306V446.079H372.698ZM383.799 450.719H377.095C377.233 451.423 377.559 451.978 378.071 452.383C378.583 452.778 379.223 452.975 379.991 452.975C381.047 452.975 381.815 452.586 382.295 451.807L383.479 452.479C382.689 453.685 381.516 454.287 379.959 454.287C378.7 454.287 377.665 453.893 376.855 453.103C376.065 452.293 375.671 451.285 375.671 450.079C375.671 448.863 376.06 447.861 376.839 447.071C377.617 446.271 378.625 445.871 379.863 445.871C381.036 445.871 381.991 446.287 382.727 447.119C383.473 447.93 383.847 448.922 383.847 450.095C383.847 450.298 383.831 450.506 383.799 450.719ZM379.863 447.183C379.127 447.183 378.508 447.391 378.007 447.807C377.516 448.223 377.212 448.789 377.095 449.503H382.439C382.321 448.767 382.028 448.197 381.559 447.791C381.089 447.386 380.524 447.183 379.863 447.183ZM392.055 447.455V446.079H393.447V454.079H392.055V452.703C391.373 453.759 390.365 454.287 389.031 454.287C387.901 454.287 386.946 453.882 386.167 453.071C385.378 452.25 384.983 451.253 384.983 450.079C384.983 448.917 385.378 447.925 386.167 447.103C386.957 446.282 387.911 445.871 389.031 445.871C390.365 445.871 391.373 446.399 392.055 447.455ZM389.207 452.943C390.018 452.943 390.695 452.671 391.239 452.127C391.783 451.562 392.055 450.879 392.055 450.079C392.055 449.269 391.783 448.591 391.239 448.047C390.695 447.493 390.018 447.215 389.207 447.215C388.407 447.215 387.735 447.493 387.191 448.047C386.647 448.591 386.375 449.269 386.375 450.079C386.375 450.879 386.647 451.562 387.191 452.127C387.735 452.671 388.407 452.943 389.207 452.943ZM399.908 446.079V447.423H397.78V451.759C397.78 452.154 397.855 452.437 398.004 452.607C398.164 452.767 398.404 452.853 398.724 452.863C399.044 452.863 399.439 452.853 399.908 452.831V454.079C398.682 454.239 397.786 454.138 397.22 453.775C396.666 453.413 396.388 452.741 396.388 451.759V447.423H394.804V446.079H396.388V444.255L397.78 443.839V446.079H399.908ZM402.26 444.623C401.994 444.623 401.77 444.533 401.588 444.351C401.407 444.17 401.316 443.951 401.316 443.695C401.316 443.439 401.407 443.221 401.588 443.039C401.77 442.847 401.994 442.751 402.26 442.751C402.516 442.751 402.735 442.847 402.916 443.039C403.098 443.221 403.188 443.439 403.188 443.695C403.188 443.951 403.098 444.17 402.916 444.351C402.735 444.533 402.516 444.623 402.26 444.623ZM402.948 454.079H401.556V446.079H402.948V454.079ZM409.056 445.871C409.995 445.871 410.747 446.17 411.312 446.767C411.877 447.354 412.16 448.154 412.16 449.167V454.079H410.768V449.247C410.768 448.607 410.592 448.106 410.24 447.743C409.888 447.381 409.403 447.199 408.784 447.199C408.069 447.199 407.504 447.423 407.088 447.871C406.672 448.309 406.464 448.965 406.464 449.839V454.079H405.072V446.079H406.464V447.231C407.019 446.325 407.883 445.871 409.056 445.871ZM420.743 447.455V446.079H422.119V453.743C422.119 454.927 421.719 455.845 420.919 456.495C420.108 457.157 419.148 457.487 418.039 457.487C417.143 457.487 416.37 457.317 415.719 456.975C415.068 456.645 414.578 456.165 414.247 455.535L415.463 454.847C415.9 455.743 416.77 456.191 418.071 456.191C418.903 456.191 419.554 455.973 420.023 455.535C420.503 455.098 420.743 454.501 420.743 453.743V452.607C420.039 453.674 419.036 454.207 417.735 454.207C416.583 454.207 415.618 453.802 414.839 452.991C414.05 452.17 413.655 451.183 413.655 450.031C413.655 448.879 414.05 447.898 414.839 447.087C415.618 446.277 416.583 445.871 417.735 445.871C419.047 445.871 420.05 446.399 420.743 447.455ZM420.743 450.031C420.743 449.231 420.471 448.559 419.927 448.015C419.383 447.471 418.706 447.199 417.895 447.199C417.084 447.199 416.407 447.471 415.863 448.015C415.319 448.559 415.047 449.231 415.047 450.031C415.047 450.842 415.319 451.519 415.863 452.063C416.407 452.607 417.084 452.879 417.895 452.879C418.706 452.879 419.383 452.607 419.927 452.063C420.471 451.519 420.743 450.842 420.743 450.031ZM434.98 453.071C434.169 453.882 433.172 454.287 431.988 454.287C430.804 454.287 429.807 453.882 428.996 453.071C428.185 452.261 427.78 451.263 427.78 450.079C427.78 448.895 428.185 447.898 428.996 447.087C429.807 446.277 430.804 445.871 431.988 445.871C433.172 445.871 434.169 446.277 434.98 447.087C435.801 447.909 436.212 448.906 436.212 450.079C436.212 451.253 435.801 452.25 434.98 453.071ZM431.988 452.927C432.788 452.927 433.46 452.655 434.004 452.111C434.548 451.567 434.82 450.89 434.82 450.079C434.82 449.269 434.548 448.591 434.004 448.047C433.46 447.503 432.788 447.231 431.988 447.231C431.199 447.231 430.532 447.503 429.988 448.047C429.444 448.591 429.172 449.269 429.172 450.079C429.172 450.89 429.444 451.567 429.988 452.111C430.532 452.655 431.199 452.927 431.988 452.927ZM439.245 446.079V447.423C439.704 446.431 440.536 445.935 441.741 445.935V447.391C441.058 447.359 440.472 447.541 439.981 447.935C439.49 448.33 439.245 448.965 439.245 449.839V454.079H437.853V446.079H439.245ZM189.143 463.623C188.876 463.623 188.652 463.533 188.471 463.351C188.29 463.17 188.199 462.951 188.199 462.695C188.199 462.439 188.29 462.221 188.471 462.039C188.652 461.847 188.876 461.751 189.143 461.751C189.399 461.751 189.618 461.847 189.799 462.039C189.98 462.221 190.071 462.439 190.071 462.695C190.071 462.951 189.98 463.17 189.799 463.351C189.618 463.533 189.399 463.623 189.143 463.623ZM189.831 473.079H188.439V465.079H189.831V473.079ZM195.939 464.871C196.877 464.871 197.629 465.17 198.195 465.767C198.76 466.354 199.043 467.154 199.043 468.167V473.079H197.651V468.247C197.651 467.607 197.475 467.106 197.123 466.743C196.771 466.381 196.285 466.199 195.667 466.199C194.952 466.199 194.387 466.423 193.971 466.871C193.555 467.309 193.347 467.965 193.347 468.839V473.079H191.955V465.079H193.347V466.231C193.901 465.325 194.765 464.871 195.939 464.871ZM203.965 471.591L206.477 465.079H207.981L204.781 473.079H203.149L199.949 465.079H201.453L203.965 471.591ZM209.862 463.623C209.595 463.623 209.371 463.533 209.19 463.351C209.008 463.17 208.918 462.951 208.918 462.695C208.918 462.439 209.008 462.221 209.19 462.039C209.371 461.847 209.595 461.751 209.862 461.751C210.118 461.751 210.336 461.847 210.518 462.039C210.699 462.221 210.79 462.439 210.79 462.695C210.79 462.951 210.699 463.17 210.518 463.351C210.336 463.533 210.118 463.623 209.862 463.623ZM210.55 473.079H209.158V465.079H210.55V473.079ZM217.025 465.079V466.423H214.897V470.759C214.897 471.154 214.972 471.437 215.121 471.607C215.281 471.767 215.521 471.853 215.841 471.863C216.161 471.863 216.556 471.853 217.025 471.831V473.079C215.799 473.239 214.903 473.138 214.337 472.775C213.783 472.413 213.505 471.741 213.505 470.759V466.423H211.921V465.079H213.505V463.255L214.897 462.839V465.079H217.025ZM219.377 463.623C219.111 463.623 218.887 463.533 218.705 463.351C218.524 463.17 218.433 462.951 218.433 462.695C218.433 462.439 218.524 462.221 218.705 462.039C218.887 461.847 219.111 461.751 219.377 461.751C219.633 461.751 219.852 461.847 220.033 462.039C220.215 462.221 220.305 462.439 220.305 462.695C220.305 462.951 220.215 463.17 220.033 463.351C219.852 463.533 219.633 463.623 219.377 463.623ZM220.065 473.079H218.673V465.079H220.065V473.079ZM226.173 464.871C227.112 464.871 227.864 465.17 228.429 465.767C228.994 466.354 229.277 467.154 229.277 468.167V473.079H227.885V468.247C227.885 467.607 227.709 467.106 227.357 466.743C227.005 466.381 226.52 466.199 225.901 466.199C225.186 466.199 224.621 466.423 224.205 466.871C223.789 467.309 223.581 467.965 223.581 468.839V473.079H222.189V465.079H223.581V466.231C224.136 465.325 225 464.871 226.173 464.871ZM237.86 466.455V465.079H239.236V472.743C239.236 473.927 238.836 474.845 238.036 475.495C237.226 476.157 236.266 476.487 235.156 476.487C234.26 476.487 233.487 476.317 232.836 475.975C232.186 475.645 231.695 475.165 231.364 474.535L232.58 473.847C233.018 474.743 233.887 475.191 235.188 475.191C236.02 475.191 236.671 474.973 237.14 474.535C237.62 474.098 237.86 473.501 237.86 472.743V471.607C237.156 472.674 236.154 473.207 234.852 473.207C233.7 473.207 232.735 472.802 231.956 471.991C231.167 471.17 230.772 470.183 230.772 469.031C230.772 467.879 231.167 466.898 231.956 466.087C232.735 465.277 233.7 464.871 234.852 464.871C236.164 464.871 237.167 465.399 237.86 466.455ZM237.86 469.031C237.86 468.231 237.588 467.559 237.044 467.015C236.5 466.471 235.823 466.199 235.012 466.199C234.202 466.199 233.524 466.471 232.98 467.015C232.436 467.559 232.164 468.231 232.164 469.031C232.164 469.842 232.436 470.519 232.98 471.063C233.524 471.607 234.202 471.879 235.012 471.879C235.823 471.879 236.5 471.607 237.044 471.063C237.588 470.519 237.86 469.842 237.86 469.031ZM248.625 471.351L250.929 465.079H252.417L249.153 473.575C248.801 474.482 248.316 475.17 247.697 475.639C247.089 476.119 246.391 476.333 245.601 476.279V474.983C246.583 475.058 247.303 474.514 247.761 473.351L247.905 473.047L244.417 465.079H245.905L248.625 471.351ZM260.019 472.071C259.209 472.882 258.211 473.287 257.027 473.287C255.843 473.287 254.846 472.882 254.035 472.071C253.225 471.261 252.819 470.263 252.819 469.079C252.819 467.895 253.225 466.898 254.035 466.087C254.846 465.277 255.843 464.871 257.027 464.871C258.211 464.871 259.209 465.277 260.019 466.087C260.841 466.909 261.251 467.906 261.251 469.079C261.251 470.253 260.841 471.25 260.019 472.071ZM257.027 471.927C257.827 471.927 258.499 471.655 259.043 471.111C259.587 470.567 259.859 469.89 259.859 469.079C259.859 468.269 259.587 467.591 259.043 467.047C258.499 466.503 257.827 466.231 257.027 466.231C256.238 466.231 255.571 466.503 255.027 467.047C254.483 467.591 254.211 468.269 254.211 469.079C254.211 469.89 254.483 470.567 255.027 471.111C255.571 471.655 256.238 471.927 257.027 471.927ZM268.412 469.319V465.079H269.804V473.079H268.412V471.927C267.858 472.834 266.994 473.287 265.82 473.287C264.882 473.287 264.13 472.994 263.564 472.407C262.999 471.81 262.716 471.005 262.716 469.991V465.079H264.108V469.911C264.108 470.551 264.284 471.053 264.636 471.415C264.988 471.778 265.474 471.959 266.092 471.959C266.807 471.959 267.372 471.741 267.788 471.303C268.204 470.855 268.412 470.194 268.412 469.319ZM273.315 465.079V466.423C273.774 465.431 274.606 464.935 275.811 464.935V466.391C275.129 466.359 274.542 466.541 274.051 466.935C273.561 467.33 273.315 467.965 273.315 468.839V473.079H271.923V465.079H273.315ZM285.525 465.079V466.423H283.397V470.759C283.397 471.154 283.472 471.437 283.621 471.607C283.781 471.767 284.021 471.853 284.341 471.863C284.661 471.863 285.056 471.853 285.525 471.831V473.079C284.299 473.239 283.403 473.138 282.837 472.775C282.283 472.413 282.005 471.741 282.005 470.759V466.423H280.421V465.079H282.005V463.255L283.397 462.839V465.079H285.525ZM294.447 469.719H287.743C287.882 470.423 288.207 470.978 288.719 471.383C289.231 471.778 289.871 471.975 290.639 471.975C291.695 471.975 292.463 471.586 292.943 470.807L294.127 471.479C293.338 472.685 292.165 473.287 290.607 473.287C289.349 473.287 288.314 472.893 287.503 472.103C286.714 471.293 286.319 470.285 286.319 469.079C286.319 467.863 286.709 466.861 287.487 466.071C288.266 465.271 289.274 464.871 290.511 464.871C291.685 464.871 292.639 465.287 293.375 466.119C294.122 466.93 294.495 467.922 294.495 469.095C294.495 469.298 294.479 469.506 294.447 469.719ZM290.511 466.183C289.775 466.183 289.157 466.391 288.655 466.807C288.165 467.223 287.861 467.789 287.743 468.503H293.087C292.97 467.767 292.677 467.197 292.207 466.791C291.738 466.386 291.173 466.183 290.511 466.183ZM302.704 466.455V465.079H304.096V473.079H302.704V471.703C302.021 472.759 301.013 473.287 299.68 473.287C298.549 473.287 297.594 472.882 296.816 472.071C296.026 471.25 295.632 470.253 295.632 469.079C295.632 467.917 296.026 466.925 296.816 466.103C297.605 465.282 298.56 464.871 299.68 464.871C301.013 464.871 302.021 465.399 302.704 466.455ZM299.856 471.943C300.666 471.943 301.344 471.671 301.888 471.127C302.432 470.562 302.704 469.879 302.704 469.079C302.704 468.269 302.432 467.591 301.888 467.047C301.344 466.493 300.666 466.215 299.856 466.215C299.056 466.215 298.384 466.493 297.84 467.047C297.296 467.591 297.024 468.269 297.024 469.079C297.024 469.879 297.296 470.562 297.84 471.127C298.384 471.671 299.056 471.943 299.856 471.943ZM314.845 464.871C315.751 464.871 316.477 465.165 317.021 465.751C317.575 466.338 317.853 467.122 317.853 468.103V473.079H316.461V468.151C316.461 467.543 316.301 467.069 315.981 466.727C315.671 466.375 315.245 466.199 314.701 466.199C314.082 466.199 313.597 466.407 313.245 466.823C312.903 467.229 312.733 467.831 312.733 468.631V473.079H311.341V468.151C311.341 467.543 311.186 467.069 310.877 466.727C310.578 466.375 310.167 466.199 309.645 466.199C309.037 466.199 308.541 466.413 308.157 466.839C307.783 467.255 307.597 467.853 307.597 468.631V473.079H306.205V465.079H307.597V466.151C308.141 465.298 308.935 464.871 309.981 464.871C311.058 464.871 311.842 465.325 312.333 466.231C312.887 465.325 313.725 464.871 314.845 464.871ZM320.663 473.255C320.375 473.255 320.129 473.154 319.927 472.951C319.724 472.749 319.623 472.503 319.623 472.215C319.623 471.927 319.724 471.682 319.927 471.479C320.129 471.277 320.375 471.175 320.663 471.175C320.961 471.175 321.207 471.277 321.399 471.479C321.601 471.682 321.703 471.927 321.703 472.215C321.703 472.503 321.601 472.749 321.399 472.951C321.207 473.154 320.961 473.255 320.663 473.255Z" fill="#7F7F7F"/>
<g clip-path="url(#clip3_6043_5252)">
<path d="M234.023 230.099C233.092 230.604 230.65 231.633 232.137 232.921C232.864 233.55 233.673 234 234.69 234H240.494C241.511 234 242.32 233.55 243.047 232.921C244.534 231.633 242.092 230.604 241.161 230.099C238.977 228.917 236.207 228.917 234.023 230.099Z" stroke="black" stroke-width="1.97467"/>
<path d="M240.554 223.827C240.554 225.48 239.228 226.819 237.592 226.819C235.956 226.819 234.63 225.48 234.63 223.827C234.63 222.175 235.956 220.835 237.592 220.835C239.228 220.835 240.554 222.175 240.554 223.827Z" stroke="black" stroke-width="1.97467"/>
<path d="M234.301 237.949C234.301 242.316 237.833 245.848 242.2 245.848L241.071 243.591" stroke="black" stroke-width="1.97467" stroke-linecap="round" stroke-linejoin="round"/>
<path d="M255.364 230.051C255.364 225.684 251.832 222.152 247.465 222.152L248.594 224.409" stroke="black" stroke-width="1.97467" stroke-linecap="round" stroke-linejoin="round"/>
<path d="M248.504 243.264C247.573 243.768 245.131 244.797 246.618 246.085C247.345 246.714 248.153 247.164 249.171 247.164H254.975C255.992 247.164 256.801 246.714 257.528 246.085C259.015 244.797 256.573 243.768 255.642 243.264C253.458 242.082 250.688 242.082 248.504 243.264Z" stroke="black" stroke-width="1.97467"/>
<path d="M255.035 236.992C255.035 238.644 253.709 239.984 252.073 239.984C250.437 239.984 249.111 238.644 249.111 236.992C249.111 235.339 250.437 234 252.073 234C253.709 234 255.035 235.339 255.035 236.992Z" stroke="black" stroke-width="1.97467"/>
</g>
<defs>
<linearGradient id="paint0_linear_6043_5252" x1="244.514" y1="84.3282" x2="244.514" y2="381.667" gradientUnits="userSpaceOnUse">
<stop offset="0.605" stop-color="#EEEEEE"/>
<stop offset="1" stop-color="white"/>
</linearGradient>
<linearGradient id="paint1_linear_6043_5252" x1="244.515" y1="41.1096" x2="244.515" y2="424.886" gradientUnits="userSpaceOnUse">
<stop offset="0.605" stop-color="#EEEEEE"/>
<stop offset="1" stop-color="white"/>
</linearGradient>
<linearGradient id="paint2_linear_6043_5252" x1="244.515" y1="0.916351" x2="244.515" y2="465.079" gradientUnits="userSpaceOnUse">
<stop offset="0.605" stop-color="#EEEEEE"/>
<stop offset="1" stop-color="white"/>
</linearGradient>
<clipPath id="clip0_6043_5252">
<rect width="21.2499" height="21.2499" fill="white" transform="translate(391.5 116.322)"/>
</clipPath>
<clipPath id="clip1_6043_5252">
<rect width="16.8042" height="16.8042" fill="white" transform="translate(22.7239 140.022)"/>
</clipPath>
<clipPath id="clip2_6043_5252">
<rect width="19.6283" height="19.6283" fill="white" transform="translate(471.971 216.839)"/>
</clipPath>
<clipPath id="clip3_6043_5252">
<rect width="31" height="31" fill="white" transform="translate(229.333 218.5)"/>
</clipPath>
</defs>
</svg>
