<svg width="181" height="46" viewBox="0 0 181 46" fill="none" xmlns="http://www.w3.org/2000/svg">
<g id="Logo 1">
<g id="Group">
<path id="Vector" d="M38.2494 16.8113L24.6267 6.82914H24.5876C24.5484 6.78999 24.5093 6.78999 24.5093 6.75084C24.431 6.7117 24.3918 6.67255 24.3135 6.63341C24.2744 6.59426 24.1961 6.55512 24.157 6.55512C24.1178 6.51597 24.0395 6.51597 24.0004 6.47682C23.9221 6.43768 23.8829 6.43768 23.8046 6.39853C23.7655 6.39853 23.7264 6.35939 23.6872 6.35939C23.6089 6.32024 23.5306 6.32024 23.4915 6.2811C23.4523 6.2811 23.4132 6.24195 23.3349 6.24195C23.2566 6.24195 23.2175 6.2028 23.1392 6.2028C23.1 6.2028 23.0217 6.16366 22.9826 6.16366C22.9434 6.16366 22.8652 6.16366 22.826 6.12451C22.7477 6.12451 22.7086 6.12451 22.6303 6.12451C22.5911 6.12451 22.5128 6.12451 22.4737 6.12451C22.3954 6.12451 22.3171 6.12451 22.278 6.12451C22.2388 6.12451 22.1997 6.12451 22.1214 6.12451C22.0431 6.12451 21.9648 6.12451 21.9257 6.16366C21.8865 6.16366 21.8082 6.2028 21.7691 6.2028C21.6908 6.2028 21.6516 6.24195 21.5733 6.24195C21.4951 6.24195 21.4168 6.28109 21.3385 6.32024C21.2993 6.32024 21.2602 6.35939 21.221 6.35939H21.1819L2.74426 12.701C0.826116 13.3665 -0.269964 15.4412 0.317222 17.3593C0.943553 19.3949 3.13571 20.491 5.13214 19.7864L20.3207 14.4626C21.221 14.1494 22.1997 14.306 22.9434 14.854L25.7619 16.9287C26.7406 17.6334 26.5057 19.16 25.3705 19.5906L20.7513 21.1956C18.8331 21.8611 17.7371 23.9358 18.3242 25.854C18.9506 27.8895 21.1427 28.9856 23.1392 28.281L27.8367 26.6369C28.9719 26.2454 30.1071 27.3023 29.7939 28.4767L27.9541 35.1706C27.4061 37.1671 28.5804 39.2026 30.5769 39.7507C31.3206 39.9464 32.1035 39.9073 32.8082 39.6724C33.9434 39.2809 34.8437 38.3806 35.196 37.1279L39.6587 20.8042C40.0501 19.3166 39.5021 17.7116 38.2494 16.8113Z" fill="white"/>
<g id="Group_2">
<path id="Vector_2" d="M11.982 31.8837C14.0359 31.8837 15.7009 30.2187 15.7009 28.1649C15.7009 26.111 14.0359 24.446 11.982 24.446C9.92817 24.446 8.26318 26.111 8.26318 28.1649C8.26318 30.2187 9.92817 31.8837 11.982 31.8837Z" fill="white"/>
</g>
</g>
<g id="Group_3">
<g id="Group_4">
<path id="Vector_3" d="M62.8771 12.3438C63.2459 12.6666 63.4303 13.1046 63.4303 13.6578V28.7803C63.4303 29.3336 63.2459 29.7946 62.9001 30.1404C62.5313 30.4862 62.0702 30.6476 61.4709 30.6476C60.8715 30.6476 60.3874 30.4862 60.0416 30.1404C59.6728 29.7946 59.5114 29.3566 59.5114 28.7803V28.5728C59.1195 29.2414 58.5893 29.7485 57.8747 30.1404C57.16 30.5093 56.3532 30.6937 55.4772 30.6937C54.3707 30.6937 53.3794 30.417 52.5265 29.8407C51.6505 29.2644 50.9819 28.4806 50.4978 27.4433C50.0137 26.429 49.7832 25.2302 49.7832 23.9162C49.7832 22.5792 50.0137 21.4265 50.4978 20.4122C50.9819 19.3979 51.6505 18.6372 52.5034 18.0839C53.3564 17.5307 54.3476 17.2771 55.4772 17.2771C56.3532 17.2771 57.137 17.4615 57.8516 17.8303C58.5662 18.1992 59.0964 18.7063 59.4883 19.3749V13.5887C59.4883 13.0585 59.6728 12.6435 60.0185 12.3208C60.3643 11.998 60.8254 11.8367 61.4017 11.8367C62.0011 11.8597 62.4852 12.0211 62.8771 12.3438ZM58.7507 26.7286C59.2578 26.0832 59.4883 25.1841 59.4883 23.9854C59.4883 22.7866 59.2348 21.8876 58.7507 21.2652C58.2435 20.6428 57.5289 20.32 56.6068 20.32C55.6847 20.32 54.97 20.6197 54.4629 21.2421C53.9557 21.8645 53.7021 22.7636 53.7021 23.9393C53.7021 25.138 53.9557 26.0601 54.4629 26.7056C54.97 27.3511 55.6847 27.6968 56.6068 27.6968C57.5289 27.6968 58.2435 27.3741 58.7507 26.7286Z" fill="white"/>
<path id="Vector_4" d="M77.6766 27.0743C77.9071 27.351 77.9993 27.7198 77.9993 28.1578C77.9993 28.4575 77.9071 28.7341 77.7457 28.9877C77.5613 29.2413 77.3308 29.4488 77.008 29.6332C76.4087 29.9559 75.7171 30.2095 74.9333 30.417C74.1495 30.6244 73.4118 30.7166 72.7433 30.7166C71.3371 30.7166 70.1153 30.44 69.0779 29.9098C68.0406 29.3565 67.2337 28.5958 66.6805 27.5815C66.1272 26.5672 65.8506 25.3915 65.8506 24.0314C65.8506 22.7174 66.1272 21.5648 66.6574 20.5274C67.2107 19.5131 67.9484 18.7293 68.9166 18.153C69.8848 17.5767 70.9683 17.3 72.19 17.3C73.3657 17.3 74.4031 17.5536 75.2791 18.0838C76.1551 18.591 76.8467 19.3287 77.3308 20.2969C77.8149 21.242 78.0685 22.3716 78.0685 23.6395C78.0685 24.0314 77.9762 24.308 77.7918 24.5155C77.6074 24.723 77.3538 24.8152 77.008 24.8152H69.6543C69.7695 25.8526 70.0923 26.5902 70.5994 27.0513C71.1066 27.5123 71.8443 27.7429 72.7894 27.7429C73.2966 27.7429 73.7576 27.6737 74.1495 27.5584C74.5414 27.4432 75.0025 27.2588 75.4866 27.0513C75.7401 26.936 75.9707 26.8438 76.2012 26.7747C76.4317 26.7055 76.6392 26.6594 76.8006 26.6594C77.1694 26.6594 77.4691 26.7977 77.6766 27.0743ZM70.4842 20.7349C70.0231 21.219 69.7465 21.9106 69.6773 22.8327H74.7489C74.7028 21.9106 74.4723 21.1959 74.0573 20.7349C73.6424 20.2508 73.066 20.0203 72.3053 20.0203C71.5446 20.0203 70.9452 20.2508 70.4842 20.7349Z" fill="white"/>
<path id="Vector_5" d="M89.7107 17.6458C90.0104 17.4614 90.3101 17.3691 90.6328 17.3691C91.1169 17.3691 91.5549 17.5305 91.9468 17.8532C92.3387 18.176 92.5231 18.5679 92.5231 19.0289C92.5231 19.2825 92.4539 19.5361 92.3387 19.7897L87.6129 29.4717C87.4285 29.8636 87.1749 30.1403 86.8291 30.3477C86.4833 30.5552 86.0914 30.6474 85.6995 30.6474C85.3076 30.6474 84.9158 30.5552 84.57 30.3477C84.2242 30.1403 83.9475 29.8636 83.7631 29.4717L79.0373 19.7897C78.9221 19.5361 78.876 19.3056 78.876 19.075C78.876 18.5909 79.0835 18.199 79.4984 17.8763C79.9133 17.5536 80.3744 17.3691 80.8816 17.3691C81.2504 17.3691 81.5731 17.4614 81.8728 17.6458C82.1725 17.8302 82.403 18.1068 82.5874 18.4757L85.8148 25.5298L89.0191 18.4757C89.1805 18.1068 89.411 17.8302 89.7107 17.6458Z" fill="white"/>
<path id="Vector_6" d="M94.574 14.6951C94.1821 14.3262 93.9746 13.8421 93.9746 13.2428C93.9746 12.6204 94.1821 12.1593 94.574 11.7905C94.9659 11.4447 95.5191 11.2603 96.2338 11.2603C96.9253 11.2603 97.4555 11.4447 97.8705 11.7905C98.2854 12.1593 98.4929 12.6204 98.4929 13.2197C98.4929 13.8421 98.2854 14.3262 97.8935 14.672C97.5017 15.0409 96.9484 15.2022 96.2338 15.2022C95.5422 15.2253 94.9889 15.0639 94.574 14.6951ZM94.8045 30.1864C94.4357 29.8637 94.2512 29.4026 94.2512 28.8033V19.2134C94.2512 18.591 94.4357 18.1299 94.8276 17.8302C95.2195 17.5075 95.6805 17.3461 96.2568 17.3461C96.8101 17.3461 97.2942 17.5075 97.663 17.8302C98.0319 18.153 98.2163 18.614 98.2163 19.2134V28.8033C98.2163 29.4257 98.0319 29.8867 97.663 30.1864C97.2942 30.5092 96.8101 30.6705 96.2568 30.6705C95.6574 30.6475 95.1733 30.4861 94.8045 30.1864Z" fill="white"/>
<path id="Vector_7" d="M103.727 29.8868C102.736 29.3335 101.952 28.5728 101.422 27.5815C100.892 26.5902 100.615 25.4146 100.615 24.0545C100.615 22.7174 100.892 21.5187 101.468 20.5044C102.044 19.49 102.828 18.6832 103.866 18.1299C104.903 17.5767 106.079 17.3 107.439 17.3C108.13 17.3 108.845 17.3923 109.56 17.5997C110.274 17.7842 110.897 18.0608 111.473 18.4066C112.026 18.7293 112.28 19.2365 112.28 19.8819C112.28 20.343 112.165 20.7118 111.957 20.9885C111.75 21.2881 111.473 21.4265 111.127 21.4265C110.897 21.4265 110.689 21.3804 110.482 21.3112C110.274 21.242 110.021 21.1037 109.675 20.9654C109.306 20.781 108.983 20.6196 108.684 20.5274C108.384 20.4121 108.061 20.366 107.692 20.366C106.701 20.366 105.963 20.6888 105.456 21.2881C104.949 21.9106 104.672 22.8096 104.672 24.0083C104.672 25.2071 104.926 26.1061 105.456 26.7286C105.963 27.351 106.724 27.6737 107.692 27.6737C108.061 27.6737 108.384 27.6276 108.661 27.5354C108.937 27.4432 109.283 27.2818 109.675 27.0743C109.998 26.913 110.274 26.7977 110.459 26.7286C110.643 26.6594 110.851 26.6133 111.081 26.6133C111.404 26.6133 111.68 26.7516 111.911 27.0513C112.118 27.351 112.234 27.7198 112.234 28.1809C112.234 28.8263 111.957 29.3104 111.427 29.6332C110.874 29.979 110.228 30.2556 109.49 30.44C108.753 30.6244 107.992 30.7397 107.185 30.7397C105.894 30.7167 104.719 30.44 103.727 29.8868Z" fill="white"/>
<path id="Vector_8" d="M125.419 27.0743C125.649 27.351 125.741 27.7198 125.741 28.1578C125.741 28.4575 125.649 28.7341 125.488 28.9877C125.303 29.2413 125.073 29.4488 124.75 29.6332C124.151 29.9559 123.459 30.2095 122.675 30.417C121.892 30.6244 121.154 30.7166 120.485 30.7166C119.079 30.7166 117.858 30.44 116.82 29.9098C115.783 29.3565 114.976 28.5958 114.423 27.5815C113.869 26.5672 113.593 25.3915 113.593 24.0314C113.593 22.7174 113.869 21.5648 114.4 20.5274C114.953 19.5131 115.691 18.7293 116.659 18.153C117.627 17.5767 118.71 17.3 119.932 17.3C121.108 17.3 122.145 17.5536 123.021 18.0838C123.897 18.591 124.589 19.3287 125.073 20.2969C125.557 21.242 125.811 22.3716 125.811 23.6395C125.811 24.0314 125.718 24.308 125.534 24.5155C125.35 24.723 125.096 24.8152 124.75 24.8152H117.396C117.512 25.8526 117.834 26.5902 118.342 27.0513C118.849 27.5123 119.586 27.7429 120.532 27.7429C121.039 27.7429 121.5 27.6737 121.892 27.5584C122.284 27.4432 122.745 27.2588 123.229 27.0513C123.482 26.936 123.713 26.8438 123.943 26.7747C124.174 26.7055 124.381 26.6594 124.543 26.6594C124.935 26.6594 125.211 26.7977 125.419 27.0743ZM118.249 20.7349C117.788 21.219 117.512 21.9106 117.443 22.8327H122.514C122.468 21.9106 122.237 21.1959 121.823 20.7349C121.408 20.2508 120.831 20.0203 120.071 20.0203C119.31 20.0203 118.687 20.2508 118.249 20.7349Z" fill="white"/>
<path id="Vector_9" d="M133.556 15.5251C133.233 15.917 133.072 16.4472 133.072 17.1618V17.5998H134.916C136.115 17.5998 136.691 18.107 136.691 19.0982C136.691 20.0895 136.092 20.5736 134.916 20.5736H133.072V28.7573C133.072 29.3797 132.888 29.8407 132.496 30.1404C132.127 30.4632 131.643 30.6245 131.089 30.6245C130.513 30.6245 130.029 30.4632 129.66 30.1404C129.291 29.8177 129.084 29.3566 129.084 28.7573V20.5736H128.023C126.848 20.5736 126.271 20.0895 126.271 19.0982C126.271 18.107 126.848 17.5998 128.023 17.5998H129.084C129.084 15.917 129.545 14.603 130.467 13.6348C131.389 12.6666 132.68 12.1364 134.294 11.998L134.985 11.9519L135.469 11.9289C136.668 11.9289 137.291 12.3899 137.291 13.312C137.291 14.2341 136.783 14.7182 135.769 14.8105L135.078 14.8566C134.386 14.9257 133.879 15.1332 133.556 15.5251ZM138.535 30.1865C138.167 29.8638 137.982 29.4027 137.982 28.8034V13.7039C137.982 13.0815 138.167 12.6205 138.535 12.3208C138.904 11.998 139.388 11.8367 139.965 11.8367C140.518 11.8367 141.002 11.998 141.371 12.3208C141.74 12.6435 141.924 13.1046 141.924 13.7039V28.7803C141.924 29.4027 141.74 29.8638 141.371 30.1635C141.002 30.4862 140.518 30.6476 139.965 30.6476C139.388 30.6476 138.904 30.4862 138.535 30.1865Z" fill="white"/>
<path id="Vector_10" d="M147.572 29.8869C146.535 29.3336 145.751 28.5498 145.175 27.5586C144.621 26.5443 144.345 25.3686 144.345 24.0085C144.345 22.6484 144.621 21.4497 145.175 20.4584C145.728 19.4441 146.535 18.6833 147.572 18.1301C148.609 17.5768 149.808 17.3232 151.168 17.3232C152.528 17.3232 153.727 17.5999 154.764 18.1301C155.802 18.6833 156.586 19.4441 157.162 20.4584C157.715 21.4727 157.992 22.6484 157.992 24.0085C157.992 25.3686 157.715 26.5673 157.162 27.5586C156.609 28.5729 155.802 29.3336 154.764 29.8869C153.727 30.4402 152.528 30.7168 151.168 30.7168C149.808 30.7168 148.609 30.4402 147.572 29.8869ZM154.073 23.9854C154.073 22.7406 153.819 21.8185 153.335 21.1961C152.828 20.5737 152.113 20.274 151.191 20.274C149.255 20.274 148.31 21.5188 148.31 23.9854C148.31 26.4521 149.278 27.6969 151.191 27.6969C153.105 27.6969 154.073 26.4521 154.073 23.9854Z" fill="white"/>
<path id="Vector_11" d="M178.162 17.6456C178.439 17.4612 178.739 17.3459 179.061 17.3459C179.545 17.3459 179.983 17.5073 180.375 17.8531C180.767 18.1758 180.952 18.5908 180.952 19.0979C180.952 19.3054 180.906 19.5359 180.79 19.8126L176.48 29.4716C176.318 29.8635 176.065 30.1401 175.719 30.3476C175.373 30.5551 175.004 30.6473 174.612 30.6473C174.22 30.6473 173.828 30.5551 173.506 30.3476C173.16 30.1401 172.906 29.8635 172.768 29.4716L169.956 22.9247L167.258 29.4716C167.097 29.8635 166.867 30.1401 166.521 30.3476C166.198 30.5551 165.806 30.6473 165.391 30.6473C164.999 30.6473 164.607 30.5551 164.262 30.3476C163.916 30.1401 163.662 29.8635 163.501 29.4716L159.213 19.8126C159.098 19.559 159.052 19.3285 159.052 19.0979C159.052 18.6138 159.259 18.1989 159.674 17.8531C160.089 17.5304 160.55 17.3459 161.08 17.3459C161.426 17.3459 161.749 17.4382 162.049 17.6456C162.348 17.8301 162.556 18.1297 162.717 18.4755L165.53 25.5296L168.388 18.5216C168.549 18.1528 168.78 17.8762 169.08 17.6687C169.379 17.4612 169.725 17.369 170.094 17.369C170.463 17.369 170.809 17.4612 171.108 17.6687C171.431 17.8531 171.662 18.1528 171.823 18.5447L174.728 25.5527L177.494 18.4986C177.655 18.1297 177.863 17.8531 178.162 17.6456Z" fill="white"/>
</g>
</g>
</g>
</svg>
