<svg width="249" height="165" viewBox="0 0 249 165" fill="none" xmlns="http://www.w3.org/2000/svg">
<path d="M238.741 164.619H10.158C4.548 164.619 0 160.071 0 154.461V10.7629C0 5.15289 4.548 0.604889 10.158 0.604889H238.741C244.351 0.604889 248.899 5.15289 248.899 10.7629V154.461C248.899 160.071 244.351 164.619 238.741 164.619Z" fill="#E2E2E2"/>
<path d="M238.741 0.604889H10.158C4.548 0.604889 0 5.15289 0 10.7629V20.7469H248.898V10.7629C248.899 5.15289 244.351 0.604889 238.741 0.604889Z" fill="#D0D0D0"/>
<path d="M207.613 14.5929C209.599 14.5929 211.21 12.9824 211.21 10.9959C211.21 9.00931 209.599 7.39888 207.613 7.39888C205.626 7.39888 204.016 9.00931 204.016 10.9959C204.016 12.9824 205.626 14.5929 207.613 14.5929Z" stroke="#A8A8A8" stroke-miterlimit="10" stroke-linejoin="round"/>
<path d="M221.062 14.5929C223.048 14.5929 224.659 12.9824 224.659 10.9959C224.659 9.00931 223.048 7.39888 221.062 7.39888C219.075 7.39888 217.465 9.00931 217.465 10.9959C217.465 12.9824 219.075 14.5929 221.062 14.5929Z" stroke="#A8A8A8" stroke-miterlimit="10" stroke-linejoin="round"/>
<path d="M234.511 14.5929C236.498 14.5929 238.108 12.9824 238.108 10.9959C238.108 9.00931 236.498 7.39888 234.511 7.39888C232.525 7.39888 230.914 9.00931 230.914 10.9959C230.914 12.9824 232.525 14.5929 234.511 14.5929Z" stroke="#A8A8A8" stroke-miterlimit="10" stroke-linejoin="round"/>
<path d="M102.06 50.8739C99.2228 50.8739 96.4768 48.9789 94.2988 47.1609L91.6467 44.9479C90.0067 43.5789 88.0577 42.8459 86.0607 42.8459H63.4358C61.3828 42.8459 59.7188 44.5099 59.7188 46.5629V50.8739V129.896C59.7188 132.652 61.9527 134.885 64.7077 134.885H178.916C181.672 134.885 183.905 132.651 183.905 129.896V55.8639C183.905 53.1079 181.671 50.8749 178.916 50.8749H102.06V50.8739Z" fill="#D0D0D0"/>
<path d="M174.811 66.8599H142.503C141.063 66.8599 139.895 65.6919 139.895 64.2519C139.895 62.8119 141.063 61.6439 142.503 61.6439H174.811C176.251 61.6439 177.419 62.8119 177.419 64.2519C177.419 65.6929 176.251 66.8599 174.811 66.8599Z" stroke="#A8A8A8" stroke-miterlimit="10"/>
<path d="M85.7902 101.563V88.8793H87.0767L95.3755 99.8599L95.1219 100.186C95.0856 99.9928 95.0554 99.7029 95.0313 99.3163C95.0192 98.9298 95.0011 98.4949 94.9769 98.0117C94.9648 97.5164 94.9527 97.003 94.9407 96.4715C94.9286 95.94 94.9165 95.4206 94.9044 94.9132C94.9044 94.4059 94.9044 93.9468 94.9044 93.5361V88.8793H96.3178V101.563H94.995L86.7324 90.7275L86.9498 90.347C86.9861 90.8302 87.0163 91.3074 87.0404 91.7785C87.0767 92.2496 87.1008 92.7026 87.1129 93.1375C87.1371 93.5724 87.1552 93.971 87.1673 94.3334C87.1794 94.6958 87.1854 95.0038 87.1854 95.2575C87.1975 95.5112 87.2035 95.6924 87.2035 95.8011V101.563H85.7902ZM103.695 101.744C102.752 101.744 101.913 101.533 101.176 101.11C100.451 100.687 99.8773 100.102 99.4545 99.3526C99.0438 98.6036 98.8384 97.752 98.8384 96.7977C98.8384 95.8554 99.0438 95.0159 99.4545 94.279C99.8773 93.5422 100.451 92.9623 101.176 92.5395C101.913 92.1167 102.752 91.9053 103.695 91.9053C104.625 91.9053 105.452 92.1167 106.177 92.5395C106.914 92.9623 107.488 93.5422 107.898 94.279C108.321 95.0159 108.533 95.8554 108.533 96.7977C108.533 97.752 108.321 98.6036 107.898 99.3526C107.488 100.102 106.914 100.687 106.177 101.11C105.452 101.533 104.625 101.744 103.695 101.744ZM103.695 100.458C104.359 100.458 104.951 100.301 105.47 99.9868C105.99 99.6606 106.394 99.2257 106.684 98.6821C106.974 98.1265 107.119 97.4983 107.119 96.7977C107.119 96.097 106.974 95.4749 106.684 94.9313C106.394 94.3877 105.99 93.9649 105.47 93.663C104.951 93.3489 104.359 93.1918 103.695 93.1918C103.03 93.1918 102.432 93.3489 101.901 93.663C101.381 93.9649 100.971 94.3938 100.669 94.9495C100.379 95.4931 100.24 96.1091 100.252 96.7977C100.24 97.4983 100.379 98.1265 100.669 98.6821C100.971 99.2257 101.381 99.6606 101.901 99.9868C102.432 100.301 103.03 100.458 103.695 100.458ZM116.137 101.563V88.8793H120.921C121.791 88.8793 122.582 89.0364 123.295 89.3504C124.019 89.6524 124.648 90.0873 125.179 90.6551C125.711 91.2228 126.121 91.8933 126.411 92.6664C126.701 93.4395 126.846 94.2911 126.846 95.2213C126.846 96.1514 126.701 97.0091 126.411 97.7943C126.121 98.5674 125.711 99.2378 125.179 99.8056C124.66 100.361 124.038 100.796 123.313 101.11C122.588 101.412 121.791 101.563 120.921 101.563H116.137ZM117.551 100.44L117.388 100.186H120.83C121.495 100.186 122.105 100.071 122.66 99.8418C123.228 99.6002 123.711 99.262 124.11 98.8271C124.521 98.3801 124.835 97.8547 125.052 97.2507C125.282 96.6467 125.397 95.9702 125.397 95.2213C125.397 94.4723 125.282 93.7958 125.052 93.1918C124.835 92.5878 124.521 92.0684 124.11 91.6335C123.699 91.1866 123.216 90.8483 122.66 90.6188C122.105 90.3772 121.495 90.2564 120.83 90.2564H117.333L117.551 90.039V100.44ZM132.756 101.744C131.935 101.744 131.192 101.533 130.527 101.11C129.863 100.675 129.338 100.089 128.951 99.3526C128.564 98.6036 128.371 97.758 128.371 96.8158C128.371 95.8615 128.57 95.0159 128.969 94.279C129.368 93.5422 129.899 92.9623 130.564 92.5395C131.24 92.1167 131.995 91.9053 132.829 91.9053C133.324 91.9053 133.783 91.9778 134.206 92.1228C134.629 92.2677 135.003 92.4731 135.329 92.7388C135.667 92.9925 135.945 93.2945 136.163 93.6448C136.392 93.9831 136.549 94.3515 136.634 94.7501L136.235 94.5508L136.289 92.1047H137.648V101.563H136.271V99.2439L136.634 99.0083C136.549 99.3707 136.386 99.721 136.145 100.059C135.903 100.385 135.607 100.675 135.257 100.929C134.918 101.183 134.532 101.382 134.097 101.527C133.674 101.672 133.227 101.744 132.756 101.744ZM133.064 100.44C133.692 100.44 134.254 100.289 134.749 99.9868C135.245 99.6727 135.631 99.2439 135.909 98.7003C136.199 98.1446 136.344 97.5164 136.344 96.8158C136.344 96.1152 136.199 95.4931 135.909 94.9495C135.631 94.4059 135.245 93.977 134.749 93.663C134.254 93.3489 133.692 93.1918 133.064 93.1918C132.424 93.1918 131.856 93.3489 131.361 93.663C130.878 93.977 130.491 94.4059 130.201 94.9495C129.923 95.4931 129.784 96.1152 129.784 96.8158C129.784 97.5044 129.923 98.1265 130.201 98.6821C130.479 99.2257 130.866 99.6546 131.361 99.9686C131.856 100.283 132.424 100.44 133.064 100.44ZM141.601 101.563V89.6222H142.96V101.563H141.601ZM139.463 93.4093V92.1047H145.352V93.4093H139.463ZM150.628 101.744C149.807 101.744 149.064 101.533 148.399 101.11C147.735 100.675 147.21 100.089 146.823 99.3526C146.436 98.6036 146.243 97.758 146.243 96.8158C146.243 95.8615 146.443 95.0159 146.841 94.279C147.24 93.5422 147.771 92.9623 148.436 92.5395C149.112 92.1167 149.867 91.9053 150.701 91.9053C151.196 91.9053 151.655 91.9778 152.078 92.1228C152.501 92.2677 152.875 92.4731 153.201 92.7388C153.539 92.9925 153.817 93.2945 154.035 93.6448C154.264 93.9831 154.421 94.3515 154.506 94.7501L154.107 94.5508L154.162 92.1047H155.521V101.563H154.143V99.2439L154.506 99.0083C154.421 99.3707 154.258 99.721 154.017 100.059C153.775 100.385 153.479 100.675 153.129 100.929C152.79 101.183 152.404 101.382 151.969 101.527C151.546 101.672 151.099 101.744 150.628 101.744ZM150.936 100.44C151.564 100.44 152.126 100.289 152.621 99.9868C153.117 99.6727 153.503 99.2439 153.781 98.7003C154.071 98.1446 154.216 97.5164 154.216 96.8158C154.216 96.1152 154.071 95.4931 153.781 94.9495C153.503 94.4059 153.117 93.977 152.621 93.663C152.126 93.3489 151.564 93.1918 150.936 93.1918C150.296 93.1918 149.728 93.3489 149.233 93.663C148.75 93.977 148.363 94.4059 148.073 94.9495C147.795 95.4931 147.657 96.1152 147.657 96.8158C147.657 97.5044 147.795 98.1265 148.073 98.6821C148.351 99.2257 148.738 99.6546 149.233 99.9686C149.728 100.283 150.296 100.44 150.936 100.44Z" fill="black"/>
</svg>
