<svg width="26" height="26" viewBox="0 0 26 26" fill="none" xmlns="http://www.w3.org/2000/svg">
<rect x="0.626953" y="0.768555" width="25" height="24.921" rx="3" fill="white"/>
<rect x="1.12695" y="1.26855" width="24" height="23.921" rx="2.5" stroke="black" stroke-opacity="0.1"/>
<path d="M10.021 17.6793V18.6762C8.51783 18.7949 7.76622 18.1224 7.76622 16.6587V14.7481C7.76622 14.3367 7.6792 14.0637 7.50514 13.9292C7.339 13.7868 7.04627 13.7196 6.62695 13.7275V12.7306C7.04627 12.7385 7.339 12.6713 7.50514 12.5289C7.6792 12.3865 7.76622 12.1135 7.76622 11.71V9.79936C7.76622 8.33572 8.51783 7.66323 10.021 7.78191V8.77877C9.57798 8.7313 9.26152 8.78272 9.07164 8.93304C8.88967 9.08336 8.79869 9.37214 8.79869 9.79936V11.71C8.79869 12.4933 8.51387 12.9996 7.94424 13.229C8.51387 13.4427 8.79869 13.949 8.79869 14.7481V16.6587C8.79869 17.086 8.89363 17.3747 9.08351 17.525C9.27338 17.6754 9.58589 17.7268 10.021 17.6793Z" fill="black"/>
<path d="M15.4458 18.6762V17.6793C15.8809 17.7268 16.1934 17.6754 16.3833 17.525C16.5732 17.3747 16.6681 17.086 16.6681 16.6587V14.7481C16.6681 13.949 16.9529 13.4427 17.5226 13.229C16.9529 12.9996 16.6681 12.4933 16.6681 11.71V9.79936C16.6681 9.37214 16.5732 9.08336 16.3833 8.93304C16.2013 8.78272 15.8888 8.7313 15.4458 8.77877V7.78191C16.949 7.66323 17.7006 8.33572 17.7006 9.79936V11.71C17.7006 12.1135 17.7836 12.3865 17.9498 12.5289C18.1238 12.6713 18.4205 12.7385 18.8398 12.7306V13.7275C18.4205 13.7196 18.1238 13.7868 17.9498 13.9292C17.7836 14.0637 17.7006 14.3367 17.7006 14.7481V16.6587C17.7006 18.1224 16.949 18.7949 15.4458 18.6762Z" fill="black"/>
</svg>
