<svg width="18" height="18" viewBox="0 0 18 18" fill="none" xmlns="http://www.w3.org/2000/svg">
<g id="vuesax/outline/document-text">
<g id="document-text">
<path id="Vector" d="M11.402 16.6076H5.73533C3.14991 16.6076 1.66241 15.1201 1.66241 12.5347V5.45133C1.66241 2.86592 3.14991 1.37842 5.73533 1.37842H11.402C13.9874 1.37842 15.4749 2.86592 15.4749 5.45133V12.5347C15.4749 15.1201 13.9874 16.6076 11.402 16.6076ZM5.73533 2.44092C3.7095 2.44092 2.72491 3.4255 2.72491 5.45133V12.5347C2.72491 14.5605 3.7095 15.5451 5.73533 15.5451H11.402C13.4278 15.5451 14.4124 14.5605 14.4124 12.5347V5.45133C14.4124 3.4255 13.4278 2.44092 11.402 2.44092H5.73533Z" fill="#667085"/>
<path id="Vector_2" d="M13.1728 7.045H11.7562C10.6795 7.045 9.80824 6.17375 9.80824 5.09709V3.68042C9.80824 3.39 10.0491 3.14917 10.3395 3.14917C10.6299 3.14917 10.8707 3.39 10.8707 3.68042V5.09709C10.8707 5.58584 11.2674 5.9825 11.7562 5.9825H13.1728C13.4632 5.9825 13.7041 6.22334 13.7041 6.51375C13.7041 6.80417 13.4632 7.045 13.1728 7.045Z" fill="#667085"/>
<path id="Vector_3" d="M8.56867 10.2324H5.73534C5.44492 10.2324 5.20409 9.99159 5.20409 9.70117C5.20409 9.41076 5.44492 9.16992 5.73534 9.16992H8.56867C8.85909 9.16992 9.09992 9.41076 9.09992 9.70117C9.09992 9.99159 8.85909 10.2324 8.56867 10.2324Z" fill="#667085"/>
<path id="Vector_4" d="M11.402 13.0659H5.73534C5.44492 13.0659 5.20409 12.8251 5.20409 12.5347C5.20409 12.2443 5.44492 12.0034 5.73534 12.0034H11.402C11.6924 12.0034 11.9333 12.2443 11.9333 12.5347C11.9333 12.8251 11.6924 13.0659 11.402 13.0659Z" fill="#667085"/>
</g>
</g>
</svg>
