<svg width="16" height="16" viewBox="0 0 16 16" fill="none" xmlns="http://www.w3.org/2000/svg">
<path d="M10.349 11.3215V13.4568C10.349 13.8497 10.0301 14.1686 9.63723 14.1686H3.4686C3.27983 14.1686 3.09879 14.0936 2.96531 13.9601C2.83183 13.8266 2.75684 13.6456 2.75684 13.4568V5.39013C2.75684 4.99723 3.07571 4.67836 3.4686 4.67836H4.65488C4.97285 4.67814 5.29028 4.70439 5.6039 4.75681M10.349 11.3215H12.4843C12.8772 11.3215 13.1961 11.0026 13.1961 10.6097V7.52542C13.1961 4.70367 11.1443 2.36212 8.45096 1.90975C8.13734 1.85733 7.81991 1.83108 7.50194 1.8313H6.31566C5.92277 1.8313 5.6039 2.15017 5.6039 2.54307V4.75681M10.349 11.3215H6.31566C6.12689 11.3215 5.94585 11.2465 5.81237 11.113C5.67889 10.9796 5.6039 10.7985 5.6039 10.6097V4.75681M13.1961 8.94895V7.76268C13.1961 7.19636 12.9711 6.65324 12.5706 6.2528C12.1702 5.85235 11.6271 5.62738 11.0608 5.62738H10.1117C9.92297 5.62738 9.74193 5.55239 9.60845 5.41891C9.47497 5.28543 9.39998 5.10439 9.39998 4.91562V3.9666C9.39998 3.68618 9.34475 3.40852 9.23744 3.14945C9.13013 2.89039 8.97285 2.65499 8.77456 2.45671C8.57628 2.25843 8.34089 2.10115 8.08182 1.99384C7.82276 1.88653 7.54509 1.8313 7.26468 1.8313H6.55292" stroke="black" stroke-width="0.96" stroke-linecap="round" stroke-linejoin="round"/>
</svg>
