<svg width="16" height="16" viewBox="0 0 16 16" fill="none" xmlns="http://www.w3.org/2000/svg">
<path d="M5.77118 3.53598C5.77118 4.58424 4.92139 5.43402 3.87314 5.43402C2.82488 5.43402 1.9751 4.58424 1.9751 3.53598C1.9751 2.48772 2.82488 1.63794 3.87314 1.63794C4.92139 1.63794 5.77118 2.48772 5.77118 3.53598Z" stroke="black" stroke-width="0.95"/>
<path d="M13.3635 9.23007C13.3635 10.2784 12.5137 11.1281 11.4654 11.1281C10.4171 11.1281 9.56738 10.2784 9.56738 9.23007C9.56738 8.18178 10.4171 7.33203 11.4654 7.33203C12.5137 7.33203 13.3635 8.18178 13.3635 9.23007Z" stroke="black" stroke-width="0.95"/>
<path d="M5.77118 12.3934C5.77118 13.4417 4.92139 14.2914 3.87314 14.2914C2.82488 14.2914 1.9751 13.4417 1.9751 12.3934C1.9751 11.3451 2.82488 10.4954 3.87314 10.4954C4.92139 10.4954 5.77118 11.3451 5.77118 12.3934Z" stroke="black" stroke-width="0.95"/>
<path d="M3.87305 5.43408V10.4955" stroke="black" stroke-width="0.95" stroke-linecap="round" stroke-linejoin="round"/>
<path d="M9.56717 9.23016H7.66913C5.57261 9.23016 3.87305 7.53059 3.87305 5.43408" stroke="black" stroke-width="0.95" stroke-linecap="round" stroke-linejoin="round"/>
</svg>
