<?xml version="1.0" encoding="utf-8"?>
<!-- Generator: Adobe Illustrator 27.8.1, SVG Export Plug-In . SVG Version: 6.00 Build 0)  -->
<svg version="1.1" id="Layer_1" xmlns="http://www.w3.org/2000/svg" xmlns:xlink="http://www.w3.org/1999/xlink" x="0px" y="0px"
	 viewBox="0 0 563 447.1" style="enable-background:new 0 0 563 447.1;" xml:space="preserve">
<style type="text/css">
	.st0{fill:#DCDCDC;}
	.st1{fill:#858585;}
</style>
<g>
	<g>
		<g>
			<g>
				<path class="st0" d="M433.4,95.7c-2.1-11.9-9.5-22.2-20.6-30.4c-13.5-10-32-14-47.9-8.3c-15.8,5.7-27.9,20-32.2,36.2
					c-4.2,16,0.3,36.5,13.4,48.7c0,0-7.2,19.8-2.9,21.6c1.9,1.5,13.7-8.5,17.4-13.1l-0.1-0.1c15,7.2,34.7,9.7,53.6-4
					C428.2,136.1,437.2,117.3,433.4,95.7z"/>
			</g>
		</g>
	</g>
	<g>
		<g>
			<path class="st1" d="M395.5,74.6c0,0-1.9,40.7-5.7,43.5c-3.9,2.8-12.7,1.3-13.4,0.1c-0.6-1.2-6.4-44.6-4.8-44.8
				C393.5,69.9,395.5,74.6,395.5,74.6z"/>
		</g>
		<g>
			<path class="st1" d="M373.9,131.5c-1.8,5.8,1.4,11.9,7.1,13.7c5.8,1.8,11.9-1.4,13.7-7.1c1.8-5.8-1.4-11.9-7.1-13.7
				C381.8,122.6,375.7,125.8,373.9,131.5z"/>
		</g>
	</g>
</g>
<g>
	<g>
		<path d="M205.9,177.2c0-11.2-0.5-22.6-2.5-33.6c-0.1-0.8-1.3-1-1.8-0.5c-6.5,7.1-13,14.1-19.5,21.2c0.6,0.1,1.1,0.1,1.7,0.2
			c-13-17.2-26-34.5-39.1-51.7c-0.6-0.8-1.9-0.6-2,0.5c-1.4,20.1-2.8,40.1-4.1,60.2c0.4-0.3,0.9-0.7,1.3-1
			c-13.3-5.4-27.3-8.8-41.6-10c-0.8-0.1-1.4,1-0.9,1.6c3.8,5.6,7.7,11.1,11.7,16.5c3.6,4.9,7.4,9.9,11.7,14.2
			c0.2-0.6,0.5-1.2,0.7-1.8c-11.1,0.4-22.2,0.7-33.3,1.1c-1.4,0-1.3,2,0,2.1c0.7,0.1,2.3,1.9,3,2.4c1.5,1.4,2.9,2.8,4.3,4.2
			c1.2,1.2,2.5,2.5,3.8,3.7c0.6,0.5,1.5,1.6,2.4,1.5c1.4,0,1.4-2.2,0-2.1c0.5,0,0.3,0.1,0-0.1c-0.2-0.2-0.4-0.3-0.6-0.5
			c-0.6-0.5-1.2-1.1-1.8-1.7c-1.4-1.4-2.8-2.8-4.2-4.1c-1.3-1.3-2.6-2.6-4-3.7c-0.8-0.7-1.7-1.5-2.9-1.6c0,0.7,0,1.4,0,2.1
			c11.1-0.4,22.2-0.7,33.3-1.1c0.9,0,1.4-1.1,0.7-1.8c-8.9-8.9-15.9-20-23.1-30.3c-0.3,0.5-0.6,1.1-0.9,1.6
			c14.1,1.2,27.9,4.6,41,9.9c0.7,0.3,1.3-0.4,1.3-1c1.4-20.1,2.8-40.1,4.1-60.2c-0.7,0.2-1.3,0.4-2,0.5c13,17.2,26,34.5,39.1,51.7
			c0.4,0.5,1.2,0.8,1.7,0.2c6.5-7.1,13-14.1,19.5-21.2c-0.6-0.2-1.2-0.3-1.8-0.5c1.9,10.8,2.4,22.1,2.4,33.1
			C203.8,178.5,205.9,178.5,205.9,177.2L205.9,177.2z"/>
	</g>
</g>
<g>
	<g>
		<path d="M118,246.2c0,0,14.3,132.8,25.2,124.4c10.8-8.4,27.4-42.3,27.4-42.3l-12.7-85"/>
	</g>
	<g>
		<path class="st1" d="M148.2,225.5c0,0,8.8,99.3,14.3,103.9c5.5,4.6,231.9,9.2,239.9,0c8-9.2,23.2-103.9,23.2-103.9H148.2z
			 M192.3,295.5c-4.4-2.4-11.1-50.9-11.1-50.9c-0.5-4.9,12.3-0.6,13.5,0c1.2,0.6,10,48.9,10,50.9
			C204.7,297.6,196.7,297.9,192.3,295.5z M231.2,296.3c-4.4-2.4-5.3-51.2-5.3-51.2c4.7-4.5,12.3-0.6,13.5,0
			c1.2,0.6,4.2,49.1,4.2,51.2C243.5,298.3,235.6,298.6,231.2,296.3z M262.3,295.6c-4.4-2.4-4.9-51.4-4.9-51.4
			c4.7-4.5,12.3-0.6,13.5,0c1.2,0.6,3.8,49.3,3.8,51.4C274.6,297.7,266.7,298,262.3,295.6z M302.5,295.7c-1.1,0.6-8.6,4.8-13.5,0.6
			c0,0,0.7-47.7,4-51.4c2.4-2.7,12.2-1.7,12.3,0.4C305.4,247.3,303.6,295.1,302.5,295.7z M332.7,295.7c-1.1,0.6-8.6,4.8-13.5,0.6
			c0,0,0.6-48.9,4.9-51.4c4.3-2.5,12.2-2.6,12.3-0.5C336.5,246.4,333.9,295.1,332.7,295.7z M361.3,295c-1.1,0.6-8.6,4.8-13.5,0.6
			c0,0,3.1-48.9,7.4-51.4c4.3-2.5,12.2-2.6,12.3-0.5C367.6,245.6,362.4,294.3,361.3,295z"/>
	</g>
	<g>
		<path class="st1" d="M472.3,224.8c-3.7-3.2-46.6-31.3-52.4-30.7c-5.8,0.5-272.1,0-272.1,0c-6.1,0-59.3,24.4-59.3,35.5
			c0,11.1,0.8,26.6,9.3,29.2c8.5,2.6,367.1,7.3,371.4-2.7C473.3,245.9,476,227.9,472.3,224.8z M365.4,225
			C365.4,225,365.4,225,365.4,225l-14.5,0c0,0,0,0,0,0c-5.3,0-10.7,0-16.2,0c0,0,0,0,0,0l-14.5,0c0,0,0,0,0,0c-5.4,0-10.9,0-16.5,0
			c0,0,0,0,0,0l-14.1,0c0,0,0,0,0,0c-6.3,0-12.6,0-19,0c0,0,0,0,0,0l-14.5,0c0,0,0,0,0,0c-5.6,0-11.3,0-17,0c0,0,0,0,0,0l-14.4,0
			c0,0,0,0,0,0c-9.7,0-19.5,0-29.2,0c0,0,0,0,0,0l-14.4,0c0,0,0,0,0,0c-10.4,0-20.8,0-31,0l31,0c-0.9-5.7-1.5-9.5-1.5-9.5
			c-0.5-3.5,12.3-0.4,13.5,0c0.3,0.1,1.2,3.9,2.4,9.5l29.2,0c-0.3-5.5-0.5-9.1-0.5-9.1c4.7-3.2,12.3-0.4,13.5,0
			c0.3,0.1,0.8,3.7,1.4,9.1l17,0c-0.3-5.8-0.4-9.7-0.4-9.7c4.7-3.2,12.3-0.4,13.5,0c0.3,0.1,0.8,4,1.4,9.7l19,0
			c0.4-5.1,0.9-8.6,1.7-9.3c2.4-2,12.2-1.2,12.3,0.3c0,0.4,0,3.9,0,9l16.5,0c0.5-5.2,1.3-8.8,2.3-9.3c4.3-1.8,12.2-1.9,12.3-0.4
			c0,0.4,0,4.2-0.1,9.7l16.2,0c0.8-5.5,1.7-9.4,2.7-9.8c4.3-1.8,12.2-1.9,12.3-0.4C366,215.1,365.8,219.2,365.4,225l54.6,0
			C404.3,225,385.8,225,365.4,225z"/>
	</g>
	<g>
		<path d="M137.5,387.8c0,0,22.2-57.2,27-57.6c4.8-0.3,213.8-1.3,221.6,0c7.7,1.3,39.4,56.9,39.4,56.9L137.5,387.8z"/>
	</g>
	<g>
		<path d="M389.5,334.7c0.3,2.4,33.6,54.1,33.6,54.1L433.9,263H402l-10.2,71.7"/>
	</g>
	<g>
		<path d="M170.5,226.4c-5.4,0-10.5,0-15.3,0c-30,0-49.4-0.1-50.7-0.2c-1-0.1-1.2-0.7-1.3-1c-0.2-1-0.3-2.1,23.4-13.8
			c11.9-5.8,23.6-11.2,24.4-11.5l0.3-0.1c10.5,0,256.8-1,262.4,0c5.5,1,34.2,20.4,35.4,23.1l0.2,0.4l-0.3,0.4
			c-0.5,0.7-1,1.6-111.9,2.1C281.6,226.3,217.4,226.4,170.5,226.4z M106,224.5c5.3,0.1,23.6,0.1,49.2,0.1
			c113.7,0.1,274-0.5,291.3-1.8c-5.1-4.4-28.1-20.2-33.1-21.1c-4.3-0.8-173.1-0.3-261.9,0C147.1,203.5,112.7,219.8,106,224.5z"/>
	</g>
	<g>
		<g>
			<path d="M89.8,231c32.1,0,64.3,0,96.4,0c33.5,0,66.9,0,100.4,0c30.1,0,60.2,0,90.3,0c22.3,0,44.5,0,66.8,0c6.8,0,13.6,0,20.3,0
				c3,0,6.2,0.2,9.2,0c0.1,0,0.2,0,0.4,0c1.4,0,1.4-2.2,0-2.2c-2.7,0-5.4,0-8.1,0c-1.4,0-1.4,2.2,0,2.2c2.7,0,5.4,0,8.1,0
				c0-0.7,0-1.5,0-2.2c-8,0.1-16,0-24.1,0c-21.1,0-42.1,0-63.2,0c-29.4,0-58.8,0-88.2,0c-33.2,0-66.4,0-99.7,0
				c-32.6,0-65.1,0-97.7,0c-3.7,0-7.4,0-11.1,0C88.3,228.7,88.3,231,89.8,231L89.8,231z"/>
		</g>
	</g>
	<g>
		<path class="st1" d="M111.8,251.2c0,0,15.5,131.1,21.6,136.2c6.1,5.1,284.1,10.3,293,0c8.9-10.3,21.9-136.2,21.9-136.2H111.8z
			 M154.3,371.4c-4.9-2.6-12.7-101.9-12.7-101.9c-0.6-5.5,13.7-0.7,15,0c1.3,0.7,11.4,99.6,11.4,101.9S159.2,374,154.3,371.4z
			 M186.4,371.4c-4.9-2.6-12.7-101.9-12.7-101.9c-0.6-5.5,13.7-0.7,15,0c1.3,0.7,11.4,99.6,11.4,101.9S191.3,374,186.4,371.4z
			 M223.7,372.2c-4.9-2.6-6.3-102.2-6.3-102.2c5.2-5,13.7-0.7,15,0c1.3,0.7,5,99.9,5,102.2C237.4,374.5,228.6,374.8,223.7,372.2z
			 M258.3,371.5c-4.9-2.6-5.8-102.4-5.8-102.4c5.2-5,13.7-0.7,15,0c1.3,0.7,4.5,100.1,4.5,102.4C272,373.8,263.2,374.1,258.3,371.5z
			 M303.1,371.5c-1.3,0.7-9.6,5.4-15,0.7c0,0,0.4-98.3,4.1-102.4c2.7-3,13.6-1.9,13.7,0.4C305.9,272.5,304.3,370.8,303.1,371.5z
			 M336.7,371.5c-1.3,0.7-9.6,5.4-15,0.7c0,0,0.3-99.6,5.1-102.4c4.8-2.8,13.6-2.9,13.7-0.6C340.6,271.4,338,370.8,336.7,371.5z
			 M368.5,370.7c-1.3,0.7-9.6,5.4-15,0.7c0,0,3.1-99.6,7.9-102.4c4.8-2.8,13.6-2.9,13.7-0.6C375.2,270.6,369.8,370,368.5,370.7z
			 M401.8,369.9c-1.3,0.7-15.4,6.1-15,0.7c0,0,6.8-99.6,11.5-102.4c4.8-2.8,13.6-2.9,13.7-0.6C412.2,269.8,403.1,369.2,401.8,369.9z
			"/>
	</g>
	<g>
		<g>
			<path class="st1" d="M138.3,382.9c12.6-13.6,23.5-28.9,34.4-43.9c1.9-2.7,3.9-5.3,5.9-8c0.6-0.8,1.2-1.6,1.8-2.3
				c0.2-0.2,0.4-0.5,0.6-0.7c0.5-0.8,0.4,0.4-0.4-0.1c0.6,0.4,2.6,0,3.3,0c20.1,0,40.2,0,60.3,0.1c29,0.1,58,0.2,87.1,0.4
				c11.3,0.1,22.6,0.2,33.9,0.4c5.5,0.1,11.2-0.2,16.7,0.5c-0.2,0,0.2,0,0.2,0c0.6,0.3,1,0.6,1.5,1c1.7,1.4,3.2,3,4.7,4.6
				c4.5,4.8,8.7,9.9,12.8,15.1c4.7,5.8,9.2,11.8,13.5,17.8c3.2,4.4,6.5,8.9,9,13.7c0.3,0.6,0.6,1.1,0.8,1.7c0.4,1-0.2,0.4,0.6-0.1
				c-1.2,0.8-0.1,2.7,1.1,1.9c2.3-1.4-1.6-6.5-2.4-7.8c-3.4-5.5-7.2-10.7-11.1-15.9c-4.6-6.2-9.3-12.3-14.2-18.2
				c-3.8-4.6-7.6-9.2-11.9-13.2c-1.7-1.6-3.1-2.8-5.4-3c-2.4-0.2-4.8-0.2-7.1-0.3c-9.7-0.3-19.5-0.3-29.2-0.4
				c-13.9-0.1-27.8-0.2-41.7-0.3c-15.3-0.1-30.6-0.1-45.9-0.2c-13.7,0-27.4-0.1-41.1-0.1c-9.4,0-18.7,0-28.1,0c-2.1,0-4.2,0-6.4,0
				c-2,0-2.9,1.8-4,3.3c-10.6,14.1-20.7,28.6-31.9,42.3c-2.8,3.4-5.7,6.8-8.7,10C135.7,382.3,137.3,383.9,138.3,382.9L138.3,382.9z"
				/>
		</g>
	</g>
	<g>
		<g>
			<path class="st1" d="M181.7,326.4c-3.1-21-2.7-42.4-4.6-63.5c-0.1-1.4-2.4-1.4-2.2,0c2,21.3,1.6,42.9,4.7,64.1
				C179.8,328.4,181.9,327.8,181.7,326.4L181.7,326.4z"/>
		</g>
	</g>
	<g>
		<g>
			<path d="M412.3,201.3c0.4,7.5,0.2,15.1,0.2,22.7c0,1.4,2.2,1.4,2.2,0c0-7.6,0.3-15.1-0.2-22.7
				C414.5,199.9,412.3,199.9,412.3,201.3L412.3,201.3z"/>
		</g>
	</g>
	<g>
		<g>
			<path d="M154.8,370.4c0,0,0,0.1-0.1-0.2c-0.2-0.3-0.2-0.5-0.4-0.8c-0.4-0.9-0.6-1.9-0.8-2.9c-0.8-3.1-1.3-6.3-1.8-9.4
				c-1.5-9.4-2.6-18.8-3.6-28.2c-2-18.1-3.6-36.2-5.1-54.3c-0.1-1.6-0.3-3.2-0.4-4.8c0-0.8-0.1-1.2,0.8-1.5c2-0.8,5,0,6.9,0.5
				c1.1,0.3,2.2,0.6,3.3,0.9c0.3,0.1,2,0.9,2.3,0.8c-0.3,0.1-0.2-0.6-0.3-0.3c0,0.1,0.1,0.6,0.2,0.7c0.4,2,0.7,4.1,0.9,6.2
				c2.5,18.7,4.4,37.5,6.3,56.3c0.9,9,1.9,18,2.8,27.1c0.3,2.7,0.5,5.4,0.8,8.2c0.1,0.7,0.3,1.5,0.2,2.2c-0.1,1-0.5,0.9-1.7,1.1
				C161.8,372.6,157.8,372,154.8,370.4c-1.3-0.6-2.4,1.3-1.1,1.9c3.1,1.5,6.7,2.2,10.1,2c1.8-0.1,5-0.4,5.3-2.7
				c0.2-1.3-0.2-2.9-0.3-4.2c-0.7-7.9-1.6-15.9-2.4-23.8c-2.1-20.9-4.3-41.7-6.9-62.5c-0.4-3-0.7-6-1.2-8.9c-0.2-1.2-0.2-3-1.4-3.7
				c-1.6-1-4-1.4-5.8-1.8c-2.3-0.6-4.9-1.1-7.3-0.8c-2.6,0.4-3.6,1.9-3.5,4.4c1.3,16.6,2.8,33.3,4.5,49.9
				c1.1,10.6,2.2,21.2,3.7,31.7c0.6,4,1.2,8,1.9,12c0.5,2.3,0.9,4.8,1.9,7c0.3,0.6,0.6,1.1,1.2,1.5
				C154.9,373.1,156.1,371.2,154.8,370.4z"/>
		</g>
		<g>
			<path d="M187,370.4c0,0,0,0.1-0.1-0.2c-0.2-0.3-0.2-0.5-0.4-0.8c-0.4-0.9-0.6-1.9-0.8-2.9c-0.8-3.1-1.3-6.3-1.8-9.4
				c-1.5-9.4-2.6-18.8-3.6-28.2c-2-18.1-3.6-36.2-5.1-54.3c-0.1-1.6-0.3-3.2-0.4-4.8c0-0.8-0.1-1.2,0.8-1.5c2-0.8,5,0,6.9,0.5
				c1.1,0.3,2.2,0.6,3.3,0.9c0.3,0.1,2,0.9,2.3,0.8c-0.3,0.1-0.2-0.6-0.3-0.3c0,0.1,0.1,0.6,0.2,0.7c0.4,2,0.7,4.1,0.9,6.2
				c2.5,18.7,4.4,37.5,6.3,56.3c0.9,9,1.9,18,2.8,27.1c0.3,2.7,0.5,5.4,0.8,8.2c0.1,0.7,0.3,1.5,0.2,2.2c-0.1,1-0.5,0.9-1.7,1.1
				C194,372.6,190,372,187,370.4c-1.3-0.6-2.4,1.3-1.1,1.9c3.1,1.5,6.7,2.2,10.1,2c1.8-0.1,5-0.4,5.3-2.7c0.2-1.3-0.2-2.9-0.3-4.2
				c-0.7-7.9-1.6-15.9-2.4-23.8c-2.1-20.9-4.3-41.7-6.9-62.5c-0.4-3-0.7-6-1.2-8.9c-0.2-1.2-0.2-3-1.4-3.7c-1.6-1-4-1.4-5.8-1.8
				c-2.3-0.6-4.9-1.1-7.3-0.8c-2.6,0.4-3.6,1.9-3.5,4.4c1.3,16.6,2.8,33.3,4.5,49.9c1.1,10.6,2.2,21.2,3.7,31.7c0.6,4,1.2,8,1.9,12
				c0.5,2.3,0.9,4.8,1.9,7c0.3,0.6,0.6,1.1,1.2,1.5C187.1,373.1,188.3,371.2,187,370.4z"/>
		</g>
		<g>
			<path d="M224.3,371.2c0.1,0,0.1,0.2-0.1-0.1c-0.1-0.3-0.2-0.3-0.3-0.7c-0.3-0.9-0.5-1.9-0.7-2.9c-0.6-3-0.9-6-1.2-8.9
				c-0.9-9.1-1.4-18.2-1.8-27.4c-0.8-18.1-1.3-36.3-1.6-54.4c0-1.9-0.2-4-0.1-5.9c0-0.2-0.1-0.7,0-0.9c-0.3,0.4,1.6-0.3,0.9-0.2
				c0.4-0.1,0.9-0.5,1.3-0.6c0.8-0.3,1.7-0.4,2.5-0.4c1.7-0.1,3.4,0.3,5,0.8c1,0.3,2.1,1,3.1,1.2c0.7,0.2,0.1,0.4,0-0.3
				c0-0.4,0,0.1,0,0.1c-0.1,0.2,0.2,1.2,0.2,1.5c0.3,2.4,0.4,4.9,0.6,7.3c1.2,18.8,1.9,37.6,2.7,56.4c0.4,8.7,0.7,17.3,1,26
				c0.1,2.6,0.2,5.2,0.3,7.8c0,0.6,0.2,1.5,0.1,2.1c-0.2,0.9-0.8,0.9-1.9,1.1C231.1,373.3,227.2,372.7,224.3,371.2
				c-1.3-0.6-2.4,1.3-1.1,1.9c3,1.5,6.5,2.1,9.8,2c1.8-0.1,4.9-0.3,5.5-2.4c0.4-1.3,0-3,0-4.2c-0.3-7.5-0.5-15-0.8-22.6
				c-0.8-20.7-1.6-41.3-2.8-62c-0.2-3.2-0.4-6.5-0.7-9.7c-0.1-1.3,0-3.2-0.6-4.4c-0.6-1.2-2.6-1.7-3.7-2.1c-2.9-1-6.1-1.6-9.1-0.8
				c-1.6,0.4-4.2,1.5-4.5,3.2c-0.1,0.5,0,1,0,1.5c0.3,17,0.7,34,1.4,51c0.4,10.3,0.9,20.7,1.7,31c0.3,3.8,0.6,7.6,1.2,11.3
				c0.3,2.2,0.5,4.6,1.4,6.6c0.3,0.6,0.6,1.2,1.2,1.6C224.4,373.9,225.5,371.9,224.3,371.2z"/>
		</g>
		<g>
			<path d="M258.9,370.5c0.1,0,0.1,0.2,0-0.1c-0.1-0.3-0.2-0.3-0.3-0.7c-0.3-0.9-0.5-1.9-0.7-2.9c-0.5-3-0.8-6-1.1-9
				c-0.8-9.1-1.3-18.3-1.7-27.4c-0.8-18.2-1.2-36.3-1.4-54.5c0-1.9-0.2-4-0.1-5.9c0-0.2-0.1-0.7,0-0.9c-0.3,0.4,1.6-0.3,0.9-0.2
				c0.4-0.1,0.9-0.5,1.3-0.6c0.8-0.3,1.7-0.4,2.5-0.4c1.7-0.1,3.4,0.3,5,0.8c1,0.3,2.1,1,3.1,1.2c0.7,0.2,0,0.4,0-0.3
				c0-0.4,0,0.1,0,0.1c-0.1,0.1,0.2,1.2,0.2,1.5c0.3,2.4,0.4,4.9,0.5,7.3c1.1,18.8,1.7,37.6,2.4,56.5c0.3,8.7,0.6,17.3,0.9,26
				c0.1,2.6,0.2,5.2,0.2,7.8c0,0.6,0.2,1.5,0.1,2.1c-0.2,0.9-0.8,0.9-1.9,1.1C265.7,372.6,261.8,372,258.9,370.5
				c-1.3-0.6-2.4,1.3-1.1,1.9c3,1.5,6.5,2.1,9.8,2c1.8-0.1,4.9-0.3,5.5-2.4c0.4-1.3,0-3,0-4.2c-0.2-7.5-0.5-15.1-0.7-22.6
				c-0.7-20.7-1.4-41.4-2.5-62.1c-0.2-3.3-0.4-6.5-0.6-9.8c-0.1-1.3,0-3.2-0.5-4.4c-0.6-1.2-2.6-1.7-3.7-2.1c-2.9-1-6.1-1.6-9.1-0.8
				c-1.6,0.4-4.2,1.5-4.5,3.2c-0.1,0.5,0,1,0,1.5c0.2,17,0.6,34.1,1.2,51.1c0.4,10.4,0.8,20.7,1.6,31c0.3,3.8,0.6,7.5,1.1,11.3
				c0.3,2.2,0.5,4.6,1.4,6.7c0.3,0.6,0.6,1.2,1.2,1.6C259,373.2,260.1,371.2,258.9,370.5z"/>
		</g>
		<g>
			<path d="M302.5,370.6c-2.2,1.2-4.7,2.2-7.2,2.5c-0.9,0.1-1.7,0.1-2.6,0c-1-0.1-1.8-0.7-2.7-0.9c-0.6-0.1-0.6,0.2-0.8-0.2
				c-0.2-0.3,0-1.2,0-1.6c0-1,0-1.9,0-2.9c0.1-7.4,0.1-14.7,0.2-22.1c0.3-19.7,0.5-39.4,1.7-59c0.2-3.5,0.4-6.9,0.8-10.4
				c0.2-1.8,0.3-3.8,1-5.4c0,0,0.1-0.2,0.4-0.4c1.1-0.7,2.4-1,3.7-1.1c1.4-0.1,2.8-0.1,4.2,0.1c0.9,0.1,2.7,0.3,3.4,1
				c0.3,0.4,0.1,2.5,0.1,3.4c-0.2,16.9-0.5,33.9-0.9,50.8c-0.2,9.6-0.5,19.2-0.8,28.8c-0.2,5.7-0.1,11.5-0.8,17.1
				c0,0.4,0,0.1-0.1,0.5c-0.1,0.5-0.1,0.1,0.2-0.1c-1.1,0.9,0.5,2.5,1.6,1.6c0.9-0.7,0.7-3,0.7-3.9c0.2-2.9,0.3-5.8,0.4-8.8
				c0.4-9.6,0.6-19.2,0.9-28.9c0.4-18.7,0.8-37.4,1.1-56.1c0-1.4,0.2-3,0-4.4c-0.5-4.1-8.7-3.7-11.4-3.2c-2.9,0.5-4.6,1.7-5.2,4.5
				c-0.6,2.7-0.8,5.5-1,8.2c-1.7,20.2-1.8,40.5-2.1,60.7c-0.1,8.4-0.2,16.9-0.3,25.3c0,1.9-0.1,3.9,0,5.8c0.2,4,7.2,4,9.9,3.5
				c2.4-0.5,4.7-1.4,6.8-2.6C304.9,371.8,303.8,369.9,302.5,370.6z"/>
		</g>
		<g>
			<path d="M336.2,370.6c-2.2,1.2-4.7,2.2-7.2,2.5c-1.8,0.2-4.1,0.1-5.6-1.1c-0.5-0.3-0.3,0.4-0.5,0c-0.4-1,0-3.3,0-4.3
				c0-7.3,0.1-14.5,0.2-21.8c0.3-19.7,0.6-39.4,2-59c0.4-5.1,0.5-11.2,2.2-15.9c0.1-0.3,0.1-0.3,0.2-0.4c-0.2,0.2,0.9-0.4,1.2-0.6
				c0.9-0.4,1.8-0.6,2.7-0.9c1.7-0.4,3.4-0.6,5.1-0.5c0.7,0,1.4,0.1,2.1,0.3c0.2,0.1,0.9,0.4,0.8,0.2c0.4,0.8,0,3-0.1,3.9
				c-0.4,17.2-0.9,34.3-1.4,51.5c-0.3,9.6-0.6,19.3-1.1,28.9c-0.2,5.6-0.2,11.3-1,16.9c0,0.2,0,0.1-0.1,0.5
				c-0.1,0.5-0.1,0.1,0.2-0.1c-1.1,0.9,0.5,2.5,1.6,1.6c0.9-0.7,0.7-3,0.8-3.9c0.2-2.9,0.4-5.9,0.5-8.8c0.5-9.6,0.8-19.1,1.1-28.7
				c0.6-18.9,1.2-37.7,1.6-56.6c0-1.6,0.2-3.3,0.1-5c-0.4-4.6-9-2.8-11.7-2.1c-3,0.9-4.5,1.6-5.3,4.5c-0.7,2.7-0.9,5.6-1.2,8.3
				c-2,20.1-2.2,40.4-2.5,60.6c-0.1,8.4-0.2,16.8-0.3,25.2c0,1.9-0.1,3.8,0,5.7c0.2,4,7.1,4,9.9,3.5c2.4-0.5,4.7-1.4,6.8-2.6
				C338.6,371.8,337.4,369.9,336.2,370.6z"/>
		</g>
		<g>
			<path d="M367.9,369.8c-2.2,1.2-4.7,2.2-7.2,2.5c-1.8,0.2-4.1,0.1-5.6-1.1c-0.5-0.3-0.3,0.4-0.5,0c-0.4-1,0.1-3.3,0.1-4.3
				c0.3-7.3,0.5-14.5,0.8-21.8c0.8-19.7,1.7-39.4,3.6-59c0.5-5.1,0.9-11.2,2.6-15.9c0.1-0.3,0.2-0.3,0.2-0.4
				c-0.2,0.2,0.9-0.4,1.2-0.6c0.9-0.4,1.8-0.6,2.7-0.9c1.7-0.4,3.4-0.6,5.1-0.5c0.7,0,1.4,0.1,2.1,0.3c0.2,0.1,0.9,0.4,0.8,0.2
				c0.4,0.8-0.1,3.1-0.1,3.9c-0.8,17.2-1.8,34.3-2.8,51.5c-0.6,9.6-1.2,19.3-1.9,28.9c-0.4,5.5-0.6,11.5-1.4,16.7
				c0,0.2-0.1,0.4-0.1,0.7c-0.1,0.5-0.1,0.1,0.1-0.1c-1.1,0.9,0.5,2.5,1.6,1.6c0.9-0.7,0.7-3,0.8-3.9c0.3-2.9,0.5-5.9,0.8-8.8
				c0.7-9.6,1.3-19.1,1.9-28.7c1.2-18.9,2.3-37.7,3.2-56.6c0.1-1.6,0.3-3.3,0.2-5c-0.4-4.6-9.1-2.8-11.7-2.1c-3,0.9-4.5,1.7-5.3,4.5
				c-0.7,2.7-1.1,5.6-1.4,8.3c-2.6,20-3.3,40.4-4.2,60.6c-0.4,8.4-0.7,16.8-1,25.2c-0.1,1.9-0.2,3.8-0.2,5.7c0.1,4,7.2,4,9.9,3.5
				c2.4-0.5,4.7-1.4,6.8-2.6C370.4,371,369.2,369,367.9,369.8z"/>
		</g>
		<g>
			<path d="M401.3,368.9c-1.6,0.8-3.4,1.3-5.1,1.8c-2.1,0.6-4.9,1.5-7.1,1c-1.6-0.4-1.1-1.9-1-3.2c0.4-6.4,0.9-12.8,1.4-19.3
				c1.6-20.2,3.2-40.4,5.7-60.4c0.8-6.1,1.2-12.9,3.3-18.8c0.1-0.4,0.1-0.4,0.3-0.7c0.2-0.4,0.2-0.3,0.1-0.2c2.4-1.9,7-2.3,9.9-2
				c0.5,0.1,2.1,0.4,2.2,0.5c0.1,0.1,0,0.4,0,0.5c0,0.7-0.1,1.4-0.2,2.1c-1.3,17-3,34.1-4.6,51.1c-1,10-1.9,19.9-3,29.9
				c-0.6,5.7-1,11.6-2.1,17.3c0,0.2-0.1,0.5-0.1,0.7c-0.1,0.4,0,0,0.1-0.1c-1.1,0.9,0.5,2.5,1.6,1.6c0.9-0.7,0.8-3,1-3.9
				c0.4-3.1,0.8-6.2,1.1-9.3c1.1-9.9,2.1-19.8,3.1-29.8c1.8-18.8,3.7-37.6,5.2-56.4c0.1-1.3,0.6-3.3,0.1-4.5c-0.9-2-4.2-2-6-2
				c-2.9,0.1-6.9,0.6-9.2,2.4c-1.3,1-1.7,3.1-2.1,4.7c-0.8,3.2-1.3,6.5-1.8,9.8c-3,21-4.7,42.2-6.3,63.3c-0.6,7.5-1.2,15-1.7,22.5
				c-0.1,1.2-0.4,2.7-0.2,4c1,4.6,8.8,2.2,11.6,1.3c1.7-0.5,3.5-1.1,5-1.9C403.7,370.2,402.5,368.2,401.3,368.9z"/>
		</g>
	</g>
	<g>
		<g>
			<path d="M109.5,261c15.8,0,31.6,0,47.3,0c25.4,0,50.7,0,76.1,0c28.8,0,57.7,0,86.5,0c26.1,0,52.2,0,78.4,0c17.3,0,34.6,0,51.9,0
				c1.2,0,2.4,0,3.5,0c1.4,0,1.4-2.2,0-2.2c-15.8,0-31.6,0-47.3,0c-25.4,0-50.7,0-76.1,0c-28.8,0-57.7,0-86.5,0
				c-26.1,0-52.2,0-78.4,0c-17.3,0-34.6,0-51.9,0c-1.2,0-2.4,0-3.5,0C108.1,258.7,108.1,261,109.5,261L109.5,261z"/>
		</g>
	</g>
	<g>
		<g>
			<path d="M151.1,203c1.2,7.5,2,15,2.9,22.5c0.2,1.4,2.4,1.4,2.2,0c-0.9-7.7-1.8-15.4-3-23.1C153.1,201,150.9,201.6,151.1,203
				L151.1,203z"/>
		</g>
	</g>
	<g>
		<path d="M230.5,103c-0.8,1.5,25.1,120.2,28.7,121.9c3.5,1.7,23.2,0.6,23.2,0.6S250,101.9,245.6,99.7
			C241.2,97.5,230.5,103,230.5,103z"/>
	</g>
	<g>
		<path d="M235.5,98.1c-1.9,1-4.4,1.6-5.1,4.8c-0.6,3.2,29.9,92.4,29.9,92.4l9.2-2.1l-31.2-87.9c0,0,26-5.8,27.6-4.2
			c1.3,1.3,22.5,79.8,29.2,104.9c1.2,4.5,5.1,7.5,9.4,7.3l0,0c6.3-0.2,10.6-7,8.5-13.4c-9.9-31.1-34.4-107.4-37.2-108.2
			C272.4,90.6,235.5,98.1,235.5,98.1z"/>
	</g>
	<g>
		<g>
			<path class="st1" d="M248.5,104.6c8.9-1.9,17.9-4.2,27-5.4c-0.4-0.3-0.7-0.6-1.1-0.8c4.2,13.1,8.5,26.3,12.7,39.4
				c6.2,19.1,12.4,38.2,18.5,57.3c0.8,2.4,1.5,4.8,2.3,7.1c1.1,3.3,2.1,6.9-1.6,9.2c-1.2,0.8-0.1,2.7,1.1,1.9
				c2.7-1.7,4.1-4.4,3.7-7.6c-0.1-1-0.3-1.9-0.6-2.8c-0.1-0.3-0.4-0.9-0.2-0.6c-0.5-1.4-0.9-2.8-1.4-4.2c-2.5-7.7-5-15.4-7.5-23.1
				c-6.7-20.7-13.4-41.4-20.1-62.1c-1.6-5.1-3.3-10.1-4.9-15.2c-0.1-0.4-0.6-0.9-1.1-0.8c-9.3,1.2-18.4,3.5-27.6,5.5
				C246.5,102.7,247.1,104.9,248.5,104.6L248.5,104.6z"/>
		</g>
	</g>
	<g>
		<circle class="st1" cx="303.3" cy="206.1" r="3.7"/>
	</g>
</g>
</svg>
