<svg width="708" height="562" viewBox="0 0 708 562" fill="none" xmlns="http://www.w3.org/2000/svg">
<g clip-path="url(#clip0_2435_15821)">
<g opacity="0.85">
<mask id="mask0_2435_15821" style="mask-type:luminance" maskUnits="userSpaceOnUse" x="0" y="515" width="708" height="42">
<path d="M354 556.092C549.233 556.092 707.5 546.919 707.5 535.603C707.5 524.287 549.233 515.114 354 515.114C158.767 515.114 0.5 524.287 0.5 535.603C0.5 546.919 158.767 556.092 354 556.092Z" fill="white"/>
</mask>
<g mask="url(#mask0_2435_15821)">
<path d="M707.5 515.114H0.5V556.092H707.5V515.114Z" fill="white"/>
</g>
<mask id="mask1_2435_15821" style="mask-type:luminance" maskUnits="userSpaceOnUse" x="0" y="515" width="708" height="42">
<path d="M354 556.092C549.233 556.092 707.5 546.919 707.5 535.603C707.5 524.287 549.233 515.114 354 515.114C158.767 515.114 0.5 524.287 0.5 535.603C0.5 546.919 158.767 556.092 354 556.092Z" fill="white"/>
</mask>
<g mask="url(#mask1_2435_15821)">
<path d="M354 552.321C549.926 552.321 708.756 544.836 708.756 535.603C708.756 526.37 549.926 518.885 354 518.885C158.074 518.885 -0.755737 526.37 -0.755737 535.603C-0.755737 544.836 158.074 552.321 354 552.321Z" fill="white"/>
</g>
<mask id="mask2_2435_15821" style="mask-type:luminance" maskUnits="userSpaceOnUse" x="0" y="515" width="708" height="42">
<path d="M354 556.092C549.233 556.092 707.5 546.919 707.5 535.603C707.5 524.287 549.233 515.114 354 515.114C158.767 515.114 0.5 524.287 0.5 535.603C0.5 546.919 158.767 556.092 354 556.092Z" fill="white"/>
</mask>
<g mask="url(#mask2_2435_15821)">
<path d="M354 551.693C542.089 551.693 694.566 544.489 694.566 535.603C694.566 526.717 542.089 519.514 354 519.514C165.911 519.514 13.4344 526.717 13.4344 535.603C13.4344 544.489 165.911 551.693 354 551.693Z" fill="#FCFCFC"/>
</g>
<mask id="mask3_2435_15821" style="mask-type:luminance" maskUnits="userSpaceOnUse" x="0" y="515" width="708" height="42">
<path d="M354 556.092C549.233 556.092 707.5 546.919 707.5 535.603C707.5 524.287 549.233 515.114 354 515.114C158.767 515.114 0.5 524.287 0.5 535.603C0.5 546.919 158.767 556.092 354 556.092Z" fill="white"/>
</mask>
<g mask="url(#mask3_2435_15821)">
<path d="M354 550.938C534.252 550.938 680.375 544.073 680.375 535.603C680.375 527.134 534.252 520.268 354 520.268C173.748 520.268 27.6246 527.134 27.6246 535.603C27.6246 544.073 173.748 550.938 354 550.938Z" fill="#F9F9FA"/>
</g>
<mask id="mask4_2435_15821" style="mask-type:luminance" maskUnits="userSpaceOnUse" x="0" y="515" width="708" height="42">
<path d="M354 556.092C549.233 556.092 707.5 546.919 707.5 535.603C707.5 524.287 549.233 515.114 354 515.114C158.767 515.114 0.5 524.287 0.5 535.603C0.5 546.919 158.767 556.092 354 556.092Z" fill="white"/>
</mask>
<g mask="url(#mask4_2435_15821)">
<path d="M354 550.31C526.415 550.31 666.185 543.726 666.185 535.603C666.185 527.481 526.415 520.896 354 520.896C181.585 520.896 41.8149 527.481 41.8149 535.603C41.8149 543.726 181.585 550.31 354 550.31Z" fill="#F7F7F8"/>
</g>
<mask id="mask5_2435_15821" style="mask-type:luminance" maskUnits="userSpaceOnUse" x="0" y="515" width="708" height="42">
<path d="M354 556.092C549.233 556.092 707.5 546.919 707.5 535.603C707.5 524.287 549.233 515.114 354 515.114C158.767 515.114 0.5 524.287 0.5 535.603C0.5 546.919 158.767 556.092 354 556.092Z" fill="white"/>
</mask>
<g mask="url(#mask5_2435_15821)">
<path d="M354 549.681C518.578 549.681 651.995 543.378 651.995 535.603C651.995 527.828 518.578 521.525 354 521.525C189.422 521.525 56.0051 527.828 56.0051 535.603C56.0051 543.378 189.422 549.681 354 549.681Z" fill="#F5F6F6"/>
</g>
<mask id="mask6_2435_15821" style="mask-type:luminance" maskUnits="userSpaceOnUse" x="0" y="515" width="708" height="42">
<path d="M354 556.092C549.233 556.092 707.5 546.919 707.5 535.603C707.5 524.287 549.233 515.114 354 515.114C158.767 515.114 0.5 524.287 0.5 535.603C0.5 546.919 158.767 556.092 354 556.092Z" fill="white"/>
</mask>
<g mask="url(#mask6_2435_15821)">
<path d="M354 548.927C510.741 548.927 637.805 542.962 637.805 535.603C637.805 528.245 510.741 522.279 354 522.279C197.259 522.279 70.1954 528.245 70.1954 535.603C70.1954 542.962 197.259 548.927 354 548.927Z" fill="#F4F4F5"/>
</g>
<mask id="mask7_2435_15821" style="mask-type:luminance" maskUnits="userSpaceOnUse" x="0" y="515" width="708" height="42">
<path d="M354 556.092C549.233 556.092 707.5 546.919 707.5 535.603C707.5 524.287 549.233 515.114 354 515.114C158.767 515.114 0.5 524.287 0.5 535.603C0.5 546.919 158.767 556.092 354 556.092Z" fill="white"/>
</mask>
<g mask="url(#mask7_2435_15821)">
<path d="M354 548.299C502.904 548.299 623.614 542.615 623.614 535.603C623.614 528.592 502.904 522.908 354 522.908C205.096 522.908 84.3856 528.592 84.3856 535.603C84.3856 542.615 205.096 548.299 354 548.299Z" fill="#F2F3F3"/>
</g>
<mask id="mask8_2435_15821" style="mask-type:luminance" maskUnits="userSpaceOnUse" x="0" y="515" width="708" height="42">
<path d="M354 556.092C549.233 556.092 707.5 546.919 707.5 535.603C707.5 524.287 549.233 515.114 354 515.114C158.767 515.114 0.5 524.287 0.5 535.603C0.5 546.919 158.767 556.092 354 556.092Z" fill="white"/>
</mask>
<g mask="url(#mask8_2435_15821)">
<path d="M354 547.67C495.067 547.67 609.424 542.268 609.424 535.603C609.424 528.939 495.067 523.536 354 523.536C212.933 523.536 98.5758 528.939 98.5758 535.603C98.5758 542.268 212.933 547.67 354 547.67Z" fill="#F1F2F2"/>
</g>
<mask id="mask9_2435_15821" style="mask-type:luminance" maskUnits="userSpaceOnUse" x="0" y="515" width="708" height="42">
<path d="M354 556.092C549.233 556.092 707.5 546.919 707.5 535.603C707.5 524.287 549.233 515.114 354 515.114C158.767 515.114 0.5 524.287 0.5 535.603C0.5 546.919 158.767 556.092 354 556.092Z" fill="white"/>
</mask>
<g mask="url(#mask9_2435_15821)">
<path d="M354 546.916C487.23 546.916 595.234 541.851 595.234 535.603C595.234 529.355 487.23 524.29 354 524.29C220.77 524.29 112.766 529.355 112.766 535.603C112.766 541.851 220.77 546.916 354 546.916Z" fill="#F0F0F1"/>
</g>
<mask id="mask10_2435_15821" style="mask-type:luminance" maskUnits="userSpaceOnUse" x="0" y="515" width="708" height="42">
<path d="M354 556.092C549.233 556.092 707.5 546.919 707.5 535.603C707.5 524.287 549.233 515.114 354 515.114C158.767 515.114 0.5 524.287 0.5 535.603C0.5 546.919 158.767 556.092 354 556.092Z" fill="white"/>
</mask>
<g mask="url(#mask10_2435_15821)">
<path d="M354 546.288C479.393 546.288 581.044 541.504 581.044 535.603C581.044 529.702 479.393 524.919 354 524.919C228.607 524.919 126.956 529.702 126.956 535.603C126.956 541.504 228.607 546.288 354 546.288Z" fill="#EFEFF0"/>
</g>
<mask id="mask11_2435_15821" style="mask-type:luminance" maskUnits="userSpaceOnUse" x="0" y="515" width="708" height="42">
<path d="M354 556.092C549.233 556.092 707.5 546.919 707.5 535.603C707.5 524.287 549.233 515.114 354 515.114C158.767 515.114 0.5 524.287 0.5 535.603C0.5 546.919 158.767 556.092 354 556.092Z" fill="white"/>
</mask>
<g mask="url(#mask11_2435_15821)">
<path d="M354 545.659C471.556 545.659 566.853 541.157 566.853 535.603C566.853 530.05 471.556 525.547 354 525.547C236.444 525.547 141.147 530.05 141.147 535.603C141.147 541.157 236.444 545.659 354 545.659Z" fill="#EEEEEF"/>
</g>
<mask id="mask12_2435_15821" style="mask-type:luminance" maskUnits="userSpaceOnUse" x="0" y="515" width="708" height="42">
<path d="M354 556.092C549.233 556.092 707.5 546.919 707.5 535.603C707.5 524.287 549.233 515.114 354 515.114C158.767 515.114 0.5 524.287 0.5 535.603C0.5 546.919 158.767 556.092 354 556.092Z" fill="white"/>
</mask>
<g mask="url(#mask12_2435_15821)">
<path d="M354 544.905C463.719 544.905 552.663 540.74 552.663 535.603C552.663 530.466 463.719 526.302 354 526.302C244.281 526.302 155.337 530.466 155.337 535.603C155.337 540.74 244.281 544.905 354 544.905Z" fill="#EDEDEE"/>
</g>
<mask id="mask13_2435_15821" style="mask-type:luminance" maskUnits="userSpaceOnUse" x="0" y="515" width="708" height="42">
<path d="M354 556.092C549.233 556.092 707.5 546.919 707.5 535.603C707.5 524.287 549.233 515.114 354 515.114C158.767 515.114 0.5 524.287 0.5 535.603C0.5 546.919 158.767 556.092 354 556.092Z" fill="white"/>
</mask>
<g mask="url(#mask13_2435_15821)">
<path d="M354 544.276C455.882 544.276 538.473 540.393 538.473 535.603C538.473 530.813 455.882 526.93 354 526.93C252.118 526.93 169.527 530.813 169.527 535.603C169.527 540.393 252.118 544.276 354 544.276Z" fill="#ECECED"/>
</g>
<mask id="mask14_2435_15821" style="mask-type:luminance" maskUnits="userSpaceOnUse" x="0" y="515" width="708" height="42">
<path d="M354 556.092C549.233 556.092 707.5 546.919 707.5 535.603C707.5 524.287 549.233 515.114 354 515.114C158.767 515.114 0.5 524.287 0.5 535.603C0.5 546.919 158.767 556.092 354 556.092Z" fill="white"/>
</mask>
<g mask="url(#mask14_2435_15821)">
<path d="M354 543.648C448.045 543.648 524.283 540.046 524.283 535.603C524.283 531.16 448.045 527.558 354 527.558C259.955 527.558 183.717 531.16 183.717 535.603C183.717 540.046 259.955 543.648 354 543.648Z" fill="#EBECEC"/>
</g>
<mask id="mask15_2435_15821" style="mask-type:luminance" maskUnits="userSpaceOnUse" x="0" y="515" width="708" height="42">
<path d="M354 556.092C549.233 556.092 707.5 546.919 707.5 535.603C707.5 524.287 549.233 515.114 354 515.114C158.767 515.114 0.5 524.287 0.5 535.603C0.5 546.919 158.767 556.092 354 556.092Z" fill="white"/>
</mask>
<g mask="url(#mask15_2435_15821)">
<path d="M354 543.019C440.208 543.019 510.093 539.699 510.093 535.603C510.093 531.507 440.208 528.187 354 528.187C267.792 528.187 197.907 531.507 197.907 535.603C197.907 539.699 267.792 543.019 354 543.019Z" fill="#EAEBEC"/>
</g>
<mask id="mask16_2435_15821" style="mask-type:luminance" maskUnits="userSpaceOnUse" x="0" y="515" width="708" height="42">
<path d="M354 556.092C549.233 556.092 707.5 546.919 707.5 535.603C707.5 524.287 549.233 515.114 354 515.114C158.767 515.114 0.5 524.287 0.5 535.603C0.5 546.919 158.767 556.092 354 556.092Z" fill="white"/>
</mask>
<g mask="url(#mask16_2435_15821)">
<path d="M354 542.265C432.37 542.265 495.902 539.283 495.902 535.603C495.902 531.924 432.37 528.941 354 528.941C275.629 528.941 212.098 531.924 212.098 535.603C212.098 539.283 275.629 542.265 354 542.265Z" fill="#EAEAEB"/>
</g>
<mask id="mask17_2435_15821" style="mask-type:luminance" maskUnits="userSpaceOnUse" x="0" y="515" width="708" height="42">
<path d="M354 556.092C549.233 556.092 707.5 546.919 707.5 535.603C707.5 524.287 549.233 515.114 354 515.114C158.767 515.114 0.5 524.287 0.5 535.603C0.5 546.919 158.767 556.092 354 556.092Z" fill="white"/>
</mask>
<g mask="url(#mask17_2435_15821)">
<path d="M354 541.637C424.533 541.637 481.712 538.936 481.712 535.603C481.712 532.271 424.533 529.57 354 529.57C283.467 529.57 226.288 532.271 226.288 535.603C226.288 538.936 283.467 541.637 354 541.637Z" fill="#E9EAEA"/>
</g>
<mask id="mask18_2435_15821" style="mask-type:luminance" maskUnits="userSpaceOnUse" x="0" y="515" width="708" height="42">
<path d="M354 556.092C549.233 556.092 707.5 546.919 707.5 535.603C707.5 524.287 549.233 515.114 354 515.114C158.767 515.114 0.5 524.287 0.5 535.603C0.5 546.919 158.767 556.092 354 556.092Z" fill="white"/>
</mask>
<g mask="url(#mask18_2435_15821)">
<path d="M354 541.008C416.696 541.008 467.522 538.588 467.522 535.603C467.522 532.618 416.696 530.198 354 530.198C291.304 530.198 240.478 532.618 240.478 535.603C240.478 538.588 291.304 541.008 354 541.008Z" fill="#E8E9EA"/>
</g>
<mask id="mask19_2435_15821" style="mask-type:luminance" maskUnits="userSpaceOnUse" x="0" y="515" width="708" height="42">
<path d="M354 556.092C549.233 556.092 707.5 546.919 707.5 535.603C707.5 524.287 549.233 515.114 354 515.114C158.767 515.114 0.5 524.287 0.5 535.603C0.5 546.919 158.767 556.092 354 556.092Z" fill="white"/>
</mask>
<g mask="url(#mask19_2435_15821)">
<path d="M354 540.254C408.859 540.254 453.332 538.172 453.332 535.603C453.332 533.035 408.859 530.952 354 530.952C299.141 530.952 254.668 533.035 254.668 535.603C254.668 538.172 299.141 540.254 354 540.254Z" fill="#E8E9E9"/>
</g>
<mask id="mask20_2435_15821" style="mask-type:luminance" maskUnits="userSpaceOnUse" x="0" y="515" width="708" height="42">
<path d="M354 556.092C549.233 556.092 707.5 546.919 707.5 535.603C707.5 524.287 549.233 515.114 354 515.114C158.767 515.114 0.5 524.287 0.5 535.603C0.5 546.919 158.767 556.092 354 556.092Z" fill="white"/>
</mask>
<g mask="url(#mask20_2435_15821)">
<path d="M354 539.626C401.022 539.626 439.141 537.825 439.141 535.603C439.141 533.382 401.022 531.581 354 531.581C306.978 531.581 268.859 533.382 268.859 535.603C268.859 537.825 306.978 539.626 354 539.626Z" fill="#E7E8E9"/>
</g>
<mask id="mask21_2435_15821" style="mask-type:luminance" maskUnits="userSpaceOnUse" x="0" y="515" width="708" height="42">
<path d="M354 556.092C549.233 556.092 707.5 546.919 707.5 535.603C707.5 524.287 549.233 515.114 354 515.114C158.767 515.114 0.5 524.287 0.5 535.603C0.5 546.919 158.767 556.092 354 556.092Z" fill="white"/>
</mask>
<g mask="url(#mask21_2435_15821)">
<path d="M354 538.997C393.185 538.997 424.951 537.478 424.951 535.603C424.951 533.729 393.185 532.209 354 532.209C314.815 532.209 283.049 533.729 283.049 535.603C283.049 537.478 314.815 538.997 354 538.997Z" fill="#E7E8E9"/>
</g>
<mask id="mask22_2435_15821" style="mask-type:luminance" maskUnits="userSpaceOnUse" x="0" y="515" width="708" height="42">
<path d="M354 556.092C549.233 556.092 707.5 546.919 707.5 535.603C707.5 524.287 549.233 515.114 354 515.114C158.767 515.114 0.5 524.287 0.5 535.603C0.5 546.919 158.767 556.092 354 556.092Z" fill="white"/>
</mask>
<g mask="url(#mask22_2435_15821)">
<path d="M354 538.243C385.348 538.243 410.761 537.061 410.761 535.603C410.761 534.145 385.348 532.964 354 532.964C322.652 532.964 297.239 534.145 297.239 535.603C297.239 537.061 322.652 538.243 354 538.243Z" fill="#E7E8E8"/>
</g>
<mask id="mask23_2435_15821" style="mask-type:luminance" maskUnits="userSpaceOnUse" x="0" y="515" width="708" height="42">
<path d="M354 556.092C549.233 556.092 707.5 546.919 707.5 535.603C707.5 524.287 549.233 515.114 354 515.114C158.767 515.114 0.5 524.287 0.5 535.603C0.5 546.919 158.767 556.092 354 556.092Z" fill="white"/>
</mask>
<g mask="url(#mask23_2435_15821)">
<path d="M354 537.614C377.511 537.614 396.571 536.714 396.571 535.603C396.571 534.492 377.511 533.592 354 533.592C330.489 533.592 311.429 534.492 311.429 535.603C311.429 536.714 330.489 537.614 354 537.614Z" fill="#E6E7E8"/>
</g>
<mask id="mask24_2435_15821" style="mask-type:luminance" maskUnits="userSpaceOnUse" x="0" y="515" width="708" height="42">
<path d="M354 556.092C549.233 556.092 707.5 546.919 707.5 535.603C707.5 524.287 549.233 515.114 354 515.114C158.767 515.114 0.5 524.287 0.5 535.603C0.5 546.919 158.767 556.092 354 556.092Z" fill="white"/>
</mask>
<g mask="url(#mask24_2435_15821)">
<path d="M354 536.986C369.674 536.986 382.38 536.367 382.38 535.603C382.38 534.84 369.674 534.221 354 534.221C338.326 534.221 325.62 534.84 325.62 535.603C325.62 536.367 338.326 536.986 354 536.986Z" fill="#E6E7E8"/>
</g>
<mask id="mask25_2435_15821" style="mask-type:luminance" maskUnits="userSpaceOnUse" x="0" y="515" width="708" height="42">
<path d="M354 556.092C549.233 556.092 707.5 546.919 707.5 535.603C707.5 524.287 549.233 515.114 354 515.114C158.767 515.114 0.5 524.287 0.5 535.603C0.5 546.919 158.767 556.092 354 556.092Z" fill="white"/>
</mask>
<g mask="url(#mask25_2435_15821)">
<path d="M354 536.232C361.837 536.232 368.19 535.95 368.19 535.603C368.19 535.256 361.837 534.975 354 534.975C346.163 534.975 339.81 535.256 339.81 535.603C339.81 535.95 346.163 536.232 354 536.232Z" fill="#E6E7E8"/>
</g>
</g>
<path d="M344.958 342.404C346.716 343.032 348.6 343.535 350.358 344.164C350.358 344.164 350.484 344.164 350.484 344.289C352.744 344.918 354.879 345.672 357.516 345.923C358.521 346.049 358.898 347.809 357.767 348.186C356.26 348.689 355.005 348.186 353.372 347.935C352.493 347.809 350.358 347.18 349.354 347.18C347.972 347.18 347.596 347.935 350.358 349.066C351.74 349.569 350.735 351.706 349.479 351.203C347.972 350.574 345.586 349.066 345.963 347.18C344.958 347.306 344.079 347.432 343.075 347.306C340.438 348.689 335.666 348.186 336.168 345.169C336.545 343.158 338.805 341.524 340.689 341.398C342.321 341.398 343.703 342.027 344.958 342.404Z" fill="#FFDBAD"/>
<path d="M384.39 374.583L332.526 415.309C331.145 416.441 330.894 418.452 331.898 419.834L356.637 453.899C357.642 455.282 359.651 455.533 361.032 454.527L412.896 413.801C414.277 412.67 414.528 410.658 413.524 409.276L388.785 375.211C387.655 373.703 385.771 373.452 384.39 374.583Z" fill="#757575"/>
<g opacity="0.72">
<path d="M384.39 374.583L332.526 415.309C331.145 416.441 330.894 418.452 331.898 419.834L356.637 453.899C357.642 455.282 359.651 455.533 361.032 454.527L412.896 413.801C414.277 412.67 414.528 410.658 413.524 409.276L388.785 375.211C387.655 373.703 385.771 373.452 384.39 374.583Z" fill="black"/>
</g>
<path d="M383.887 374.96L332.024 415.686C330.643 416.818 330.391 418.829 331.396 420.212L356.135 454.276C357.139 455.659 359.149 455.91 360.53 454.904L412.393 414.178C413.775 413.047 414.026 411.035 413.021 409.653L388.283 375.588C387.152 374.08 385.269 373.829 383.887 374.96Z" fill="#757575"/>
<g opacity="0.9">
<path d="M334.159 417.32C333.656 417.698 333.531 418.577 333.908 419.08L357.893 451.888C358.27 452.39 359.023 452.516 359.651 452.139L410.384 412.293C410.886 411.915 411.012 411.036 410.635 410.533L386.65 377.725C386.273 377.223 385.52 377.097 384.892 377.474L334.159 417.32Z" fill="white"/>
</g>
<g opacity="0.6">
<path d="M400.966 419.709L378.864 382.25L372.837 386.901L394.938 424.485L400.966 419.709Z" fill="white"/>
</g>
<g opacity="0.6">
<path d="M392.929 425.994L370.827 388.535L368.316 390.547L390.417 428.005L392.929 425.994Z" fill="white"/>
</g>
<g opacity="0.3">
<path d="M386.022 433.033C385.897 432.781 385.52 432.781 385.394 432.907C385.143 433.033 385.143 433.41 385.269 433.661C385.394 433.913 385.771 433.913 385.897 433.787C386.148 433.536 386.148 433.159 386.022 433.033Z" fill="white"/>
</g>
<path d="M297.365 387.027L349.228 346.301C350.609 345.169 352.87 345.295 354.251 346.426L383.636 370.183C385.018 371.315 385.018 373.074 383.636 374.206L331.773 414.932C330.391 416.063 328.131 415.938 326.75 414.806L297.365 391.049C295.983 389.918 295.983 388.158 297.365 387.027Z" fill="#757575"/>
<g opacity="0.72">
<path d="M297.365 387.027L349.228 346.301C350.609 345.169 352.87 345.295 354.251 346.426L383.636 370.183C385.018 371.315 385.018 373.074 383.636 374.206L331.773 414.932C330.391 416.063 328.131 415.938 326.75 414.806L297.365 391.049C295.983 389.918 295.983 388.158 297.365 387.027Z" fill="black"/>
</g>
<path d="M296.862 387.404L348.726 346.678C350.107 345.546 352.367 345.672 353.749 346.803L383.134 370.56C384.515 371.692 384.515 373.452 383.134 374.583L331.27 415.309C329.889 416.441 327.629 416.315 326.247 415.184L296.862 391.426C295.481 390.295 295.481 388.535 296.862 387.404Z" fill="#757575"/>
<g opacity="0.72">
<path d="M362.79 359.122C363.293 358.745 364.172 358.745 364.8 359.122L380.497 371.817C380.999 372.32 380.999 372.949 380.497 373.451L329.764 413.298C329.261 413.675 328.382 413.675 327.754 413.298L312.057 400.602C311.555 400.1 311.555 399.471 312.057 398.968L362.79 359.122Z" fill="black"/>
</g>
<g opacity="0.72">
<path d="M332.401 363.27C332.777 363.019 333.28 363.019 333.531 363.27L342.698 370.686C343.075 370.938 343.075 371.315 342.698 371.566L328.257 383.005C327.88 383.256 327.378 383.256 327.126 383.005L317.959 375.588C317.583 375.337 317.583 374.96 317.959 374.709L332.401 363.27Z" fill="black"/>
</g>
<path d="M410.007 375.086C407.245 373.074 404.482 370.938 401.971 368.549C399.71 366.412 399.208 362.767 400.338 360.128C401.217 357.739 402.975 353.34 404.231 351.329C404.984 350.197 405.11 349.192 406.742 348.815C407.998 348.563 409.505 348.815 411.012 349.443C412.268 349.946 413.398 350.7 414.026 351.58C415.533 353.34 417.668 354.974 418.798 356.985C420.179 359.373 421.309 361.887 422.816 364.15C424.072 366.287 426.081 368.172 428.091 369.681C429.723 370.938 431.23 372.069 432.863 373.326C434.244 374.457 435.876 375.588 437.007 376.971C438.011 378.102 438.765 379.485 438.89 380.868C439.267 384.136 436.002 386.901 432.988 387.53C430.728 388.033 428.342 387.53 426.333 386.65C424.198 385.644 422.44 384.262 420.556 382.879C418.798 381.371 416.789 379.988 414.905 378.605C413.147 377.474 411.64 376.217 410.007 375.086Z" fill="black"/>
<path d="M418.421 358.493C417.668 360.63 415.156 360.253 413.398 359.625C411.514 358.87 409.756 357.739 408.124 356.608C407.245 355.979 406.491 355.351 405.863 354.471C404.356 352.46 404.859 350.072 404.984 347.809C405.11 345.421 405.487 343.032 405.738 340.518C406.24 334.485 406.868 327.823 413.021 325.812C416.412 324.68 420.305 326.063 421.561 329.08C422.188 329.206 422.816 329.708 422.691 330.588C421.561 340.393 420.807 346.803 419.175 356.482C418.923 356.859 418.923 357.236 418.421 358.493Z" fill="#FFDBAC"/>
<path d="M478.949 384.01C479.075 383.759 479.2 383.507 479.326 383.382C479.577 382.753 479.954 382.25 480.331 381.748C481.712 380.491 483.847 377.977 485.479 378.605C491.884 380.616 498.288 379.485 507.079 377.6C510.218 376.971 517.25 375.211 519.134 376.091C522.399 377.6 523.153 382.628 521.897 385.896C520.767 388.661 518.757 391.301 513.734 393.186C510.72 394.318 507.581 394.946 504.316 395.575C502.056 396.077 499.795 396.454 497.535 396.957C495.4 397.334 493.265 397.711 491.13 398.089C482.214 399.471 479.075 396.58 476.689 385.644C476.438 384.387 478.447 385.016 478.949 384.01Z" fill="black"/>
<path d="M468.903 373.452C472.168 378.354 475.936 385.896 479.703 388.41C483.47 390.924 489.875 387.404 490 383.256C490.251 381.496 489.121 378.982 488.87 378.479C484.349 369.806 480.707 364.527 475.559 356.105C475.056 355.351 474.303 355.351 473.801 355.602C470.912 353.968 467.02 355.225 465.01 358.116C461.369 363.521 466.015 369.052 468.903 373.452Z" fill="#FFDBAC"/>
<path d="M310.048 344.415C309.922 344.038 310.048 342.907 310.048 342.655C310.048 341.775 309.922 341.021 309.922 340.141C309.922 338.759 309.797 336.496 310.55 335.239C311.806 333.354 313.564 333.479 314.318 333.605C317.834 334.611 327.754 338.759 329.512 339.387C331.396 340.141 333.405 340.77 335.289 341.273C341.442 342.907 347.344 343.912 352.242 348.312C355.256 351.077 357.265 355.1 359.4 358.493C360.279 359.876 358.646 361.384 357.391 360.379C357.265 360.379 356.888 359.876 356.637 359.373C355.005 356.859 353.372 354.094 351.488 351.706C350.484 350.449 349.102 349.443 347.721 348.689C347.596 348.689 347.596 348.815 347.47 348.815C347.219 348.94 347.093 348.94 346.842 349.066C347.721 349.694 348.475 350.323 349.102 350.826C353.121 354.345 354.879 358.368 357.139 363.144C357.893 364.653 355.256 365.281 354.377 363.898C353.749 362.893 353.247 361.636 352.744 360.505C352.116 359.373 351.488 358.242 350.735 357.111C349.354 354.974 347.47 353.088 345.335 351.706C344.958 351.454 344.707 351.329 344.331 351.203C344.079 351.454 343.828 351.706 343.703 351.957C344.331 352.334 344.833 352.837 345.461 353.34C348.098 355.728 350.484 358.619 352.116 361.762C352.87 363.396 350.358 364.401 349.479 362.767C348.726 361.133 347.596 359.75 346.465 358.368C345.837 357.739 345.21 356.985 344.582 356.356C344.331 356.105 343.954 355.728 343.703 355.477C343.451 355.225 343.2 354.848 342.949 354.597C342.698 354.345 342.447 354.22 342.196 353.968C341.945 354.345 341.819 354.722 341.568 355.099C343.954 356.859 346.089 358.87 347.972 361.384C349.102 362.767 346.842 364.401 345.712 363.019C343.954 360.63 341.819 358.619 339.433 356.985C336.419 355.728 333.405 354.722 330.643 353.088C329.136 352.208 328.131 351.203 327.001 349.946C325.871 348.563 324.113 347.683 322.354 347.055C318.587 345.798 314.443 345.295 310.55 344.541C310.299 344.666 310.174 344.666 310.048 344.415C310.048 344.541 310.048 344.541 310.048 344.415Z" fill="#FFDBAC"/>
<path d="M423.695 347.181C423.57 347.683 406.24 344.918 403.101 344.667C403.729 325.435 406.994 305.323 407.621 286.091C407.747 282.194 407.873 278.298 408.375 274.401C409.003 269.373 410.259 264.471 412.017 259.82C413.272 256.552 414.779 253.283 417.291 250.895C419.677 248.381 423.193 246.747 426.709 247.124C429.597 247.501 432.109 249.135 434.495 250.895C442.155 256.677 439.267 274.024 438.137 282.32C436.755 291.496 434.495 300.546 432.109 309.597C429.095 321.035 426.584 335.616 423.695 347.181Z" fill="black"/>
<path d="M398.58 241.593C409.631 241.593 421.309 242.222 430.728 248.004C435.876 251.147 440.523 257.306 438.514 263.088C436.504 268.744 429.598 270.63 423.695 271.635C406.994 274.527 390.292 277.418 373.465 278.926C363.921 279.806 354.126 280.183 344.707 278.297C338.428 277.04 331.898 274.527 328.759 268.996C325.243 263.088 326.373 254.415 330.517 249.01C333.908 244.484 340.563 245.49 345.712 244.987C363.167 243.102 380.874 241.593 398.58 241.593Z" fill="black"/>
<path d="M486.986 373.703C485.856 374.457 472.796 382.753 472.419 382.376C460.992 369.304 452.201 359.248 440.899 346.175C439.518 344.541 435.625 339.89 434.118 338.256C430.853 334.485 428.844 330.714 425.579 326.943C423.193 324.178 419.551 319.401 416.789 317.139C414.152 315.002 408.877 316.51 405.361 316.51C400.84 316.51 396.32 316.384 391.799 316.133C384.766 315.882 377.86 315.379 371.079 314.75C363.042 313.87 355.13 312.739 347.219 310.728C344.582 310.099 341.693 309.848 338.931 310.351C334.159 311.105 329.136 311.105 324.364 310.099C320.973 309.345 317.583 307.962 314.443 306.203C312.183 304.946 310.174 303.437 308.29 301.803C302.011 296.021 298.244 286.594 302.011 278.423C305.276 271.258 312.811 267.613 320.22 266.23C321.852 265.979 322.857 266.985 323.108 268.242C332.777 268.619 342.572 269.247 352.242 270.253C364.297 271.51 376.353 273.395 388.157 275.784C392.427 276.663 396.696 277.543 400.966 278.549C408.752 280.309 416.412 282.32 423.947 284.582C429.849 286.342 434.746 290.239 439.016 294.89C442.155 298.409 445.044 302.306 447.555 305.951C457.978 320.784 468.526 336.37 477.191 352.711C478.698 355.477 480.08 358.368 481.461 361.259C483.596 365.533 485.354 369.555 486.986 373.703Z" fill="#070707"/>
<path d="M168.271 182.892C168.02 182.641 167.894 182.641 167.769 182.515C167.769 182.263 167.643 182.138 167.518 182.012C167.141 181.509 163.625 179.749 160.611 179.372C159.104 178.744 156.467 178.115 155.211 177.236C154.583 176.858 153.453 176.733 151.946 176.984C149.435 177.11 147.049 177.613 144.537 177.613C142.528 177.487 140.644 177.236 139.012 176.481C138.886 177.236 138.509 177.99 138.133 178.618C139.012 178.995 140.016 179.372 141.021 179.498C140.644 179.75 140.393 180.001 140.142 180.252C138.635 181.635 137.756 183.395 137.128 185.28C137.128 185.532 136.5 185.406 135.998 185.406C135.872 185.406 135.747 185.406 135.747 185.406C135.872 186.16 135.998 187.04 135.747 187.92C138.133 188.297 140.519 188.423 142.905 188.046C144.286 187.92 145.416 187.92 146.546 187.794C146.798 188.171 147.174 188.548 147.802 188.548C150.942 188.171 154.081 188.046 157.22 188.423C159.858 188.674 162.746 189.931 165.257 190.057C168.648 190.183 167.894 186.914 168.397 184.526C168.774 183.898 168.648 183.269 168.271 182.892Z" fill="#FFDBAC"/>
<path d="M150.816 189.554C148.932 190.183 147.049 190.811 145.165 191.44H145.039C142.653 192.319 140.644 192.948 138.133 194.331C137.128 194.833 135.872 193.576 136.626 192.697C137.63 191.44 139.012 191.062 140.393 190.308C141.272 189.931 143.407 189.051 144.16 188.548C145.291 187.794 145.165 186.914 142.151 187.543C140.644 187.92 140.268 185.657 141.649 185.28C143.281 184.903 146.17 184.777 146.923 186.537C147.677 185.909 148.43 185.28 149.183 184.652C150.565 182.012 154.834 179.498 156.216 182.264C157.095 184.149 156.216 186.789 154.583 188.046C153.704 188.8 152.072 189.177 150.816 189.554Z" fill="#FFDBAC"/>
<path d="M210.716 181.384C212.098 181.761 213.353 182.138 214.609 182.515C222.269 185.029 228.799 188.674 234.199 192.696C245.878 201.244 252.785 211.551 255.547 215.574C259.189 220.979 263.333 229.401 261.952 236.188C261.701 237.194 261.45 238.325 261.073 239.456C260.696 240.713 260.822 242.599 260.194 243.856C258.687 247.25 256.426 250.392 253.287 251.901C250.022 253.535 245.627 252.278 243.492 249.135C242.864 248.381 242.487 247.501 241.985 246.621C239.474 241.97 238.846 235.434 235.957 231.286C228.548 220.727 220.511 211.803 207.702 204.889C197.028 199.107 178.443 195.21 168.899 193.576C165.383 192.948 163.123 192.571 163.123 192.571C163.75 188.171 164.378 183.269 164.629 179.498C164.755 178.115 164.755 176.858 164.881 175.853C170.908 175.476 177.564 175.727 184.22 176.481C191.001 177.236 197.782 178.367 204.061 179.749C206.447 180.378 208.582 180.881 210.716 181.384Z" fill="#237DF4"/>
<path d="M334.661 314.499C328.006 313.87 319.969 312.739 311.429 310.979C309.797 310.602 308.164 310.351 306.532 309.974C294.853 307.334 282.295 303.689 269.989 299.038C264.087 296.775 258.185 294.261 252.534 291.496C249.269 289.862 244.873 287.976 240.478 285.839C237.715 284.457 234.827 282.948 232.316 281.44C230.809 280.434 229.302 279.554 227.92 278.423C226.288 277.166 224.907 275.784 223.776 274.401C218 266.985 220.26 257.054 222.646 248.507C223.902 244.233 225.534 240.588 228.046 237.445C229.93 235.057 232.316 233.046 235.329 231.286C242.111 227.264 246.38 227.389 252.408 229.401C259.315 231.663 268.607 236.44 287.067 239.708C291.463 240.462 295.732 241.216 300.002 241.719C302.262 242.096 304.523 242.348 306.909 242.599C318.462 243.982 329.889 244.61 342.196 244.107C340.689 263.842 337.047 295.393 335.54 308.465C335.415 309.848 335.289 310.979 335.163 311.985C334.787 313.493 334.661 314.499 334.661 314.499Z" fill="#237DF4"/>
<path d="M325.745 335.491L320.345 349.946C320.094 349.82 319.717 349.82 319.466 349.695C312.559 347.809 297.741 343.032 295.858 342.278C285.435 338.759 274.761 334.359 264.84 328.703C260.068 326.063 255.422 323.172 251.152 319.904C248.138 317.641 245.25 315.253 242.613 312.739C237.59 308.088 233.195 302.934 229.679 297.027C226.162 291.244 223.4 284.96 221.642 278.046C221.139 275.784 220.763 273.521 220.511 271.258C220.135 267.362 220.135 263.465 220.386 259.443C220.511 257.934 221.767 255.42 223.274 253.409C224.404 251.901 225.66 250.644 226.79 250.267C229.553 249.387 234.702 251.272 237.464 251.901C240.227 252.529 242.99 253.283 245.627 254.289C246.506 254.666 247.385 255.043 248.264 255.42C249.143 255.923 251.027 256.426 251.278 257.557C251.403 258.311 251.278 260.825 250.901 260.574C251.529 260.951 246.255 263.214 246.38 264.219C247.762 282.571 251.906 290.993 265.217 302.055C267.854 304.191 271.245 306.58 275.012 309.094C285.058 315.63 297.993 322.795 309.42 328.326C315.448 331.468 321.224 333.982 325.745 335.491Z" fill="#237DF4"/>
<path d="M205.568 186.034C203.307 187.04 201.424 188.8 199.917 190.685C194.14 198.102 193.136 210.043 199.163 217.333C209.837 230.28 213.228 230.406 222.646 231.412C222.772 231.412 223.023 231.286 223.274 231.035C223.651 231.286 224.028 231.286 224.53 231.035C230.055 227.138 233.195 221.607 233.571 214.82C234.074 202.124 221.39 178.744 205.568 186.034Z" fill="#FFDBAC"/>
<path d="M254.543 237.571C250.148 242.725 242.739 243.73 236.711 246.747C233.069 248.507 229.804 251.147 226.162 252.655C225.534 252.906 224.907 253.032 224.279 253.032C223.274 253.032 222.395 252.404 222.269 251.021C222.269 250.392 222.269 249.764 222.395 249.135C222.521 245.113 220.637 241.468 218.502 238.074C217.874 237.068 217.121 236.188 216.493 235.183C214.484 232.543 212.474 230.532 210.088 228.269C208.958 227.264 207.954 226.258 207.2 225.001C205.191 221.607 207.326 218.716 210.088 216.831C211.093 216.202 212.223 215.448 213.479 214.82C214.233 214.442 214.986 214.065 215.739 213.814C218.125 212.934 220.511 212.431 222.521 213.06C226.413 214.442 229.176 218.088 231.813 221.104C235.581 225.378 239.85 229.024 244.622 232.166C245.752 232.92 246.883 233.674 248.138 234.303C248.892 234.68 249.645 235.183 250.399 235.56C251.655 236.314 253.161 236.943 254.543 237.571Z" fill="#FFDBAC"/>
<path d="M205.819 196.719C200.796 200.993 201.926 207.026 207.451 210.546C207.577 210.923 207.577 211.426 207.702 211.803C205.568 211.677 203.307 213.437 204.186 215.951C204.689 217.459 205.944 217.962 207.451 218.088C207.2 220.099 207.577 221.733 207.828 223.493C208.079 225.127 208.707 226.384 209.335 227.766C209.209 227.892 209.209 227.892 209.209 227.892C208.958 228.144 205.442 226.132 205.065 225.881C203.307 224.75 201.675 223.493 200.042 222.11C196.024 218.339 193.387 213.563 190.75 208.786C190.247 207.906 189.745 206.9 189.368 206.021C188.866 204.889 188.364 203.758 188.112 202.501C187.861 201.244 187.861 199.987 187.987 198.73C188.238 196.593 188.615 194.582 189.494 192.571C190.75 189.805 192.759 187.794 195.647 186.914C198.912 185.783 202.303 185.406 205.568 184.275C209.335 183.018 212.726 180.881 216.367 179.247C217.497 178.744 218.753 178.115 220.135 178.367C220.888 178.493 221.642 178.744 222.269 179.121C224.404 180.378 225.786 182.892 225.911 185.406C226.037 187.92 224.907 191.062 222.646 192.319C219.883 193.828 216.87 194.582 213.73 195.085C211.972 195.462 210.214 195.462 208.456 195.839C207.577 196.09 206.698 196.342 205.819 196.719Z" fill="black"/>
<path d="M225.032 226.132L224.907 225.252C226.162 225.001 227.544 224.75 228.674 224.247C229.93 223.618 230.809 222.739 231.311 221.733L232.19 222.11C231.688 223.367 230.558 224.498 229.176 225.127C227.795 225.63 226.413 225.881 225.032 226.132Z" fill="#B6B6B6"/>
<path d="M382.004 322.921C370.827 322.921 359.651 321.161 349.102 317.641L349.479 316.51C363.795 321.286 379.241 322.795 394.185 321.035L394.31 322.292C390.292 322.669 386.148 322.921 382.004 322.921Z" fill="black"/>
<path d="M279.03 340.393C258.938 334.988 240.98 322.669 228.548 305.951C228.172 305.448 227.795 304.946 227.418 304.443C225.911 302.432 224.404 300.295 222.646 298.535L223.525 297.655C225.409 299.541 226.916 301.677 228.423 303.689C228.799 304.191 229.176 304.694 229.553 305.197C241.86 321.664 259.566 333.731 279.407 339.136L279.03 340.393Z" fill="black"/>
<path d="M286.914 342.072L286.533 343.27L297.181 346.668L297.562 345.471L286.914 342.072Z" fill="black"/>
<path d="M446.299 265.853L445.169 265.476C447.932 257.431 445.044 247.627 438.262 242.473L439.016 241.468C446.174 246.873 449.313 257.18 446.299 265.853Z" fill="black"/>
<path d="M453.834 256.677L452.578 256.552C452.955 252.026 450.946 247.501 447.43 244.736L448.183 243.73C451.95 246.873 454.085 251.901 453.834 256.677Z" fill="black"/>
<path d="M430.602 393.186C428.593 393.186 426.333 392.683 423.821 391.552C417.417 388.661 412.393 383.759 407.622 379.108L408.501 378.228C413.272 382.879 418.296 387.655 424.449 390.421C426.96 391.552 429.095 392.055 430.979 391.929C433.365 391.804 435.5 390.798 436.755 389.29L437.76 390.044C436.379 391.929 433.867 393.06 431.104 393.186C430.853 393.186 430.728 393.186 430.602 393.186Z" fill="black"/>
<path d="M221.767 253.283C221.642 252.906 222.144 252.529 222.521 252.529C225.158 252.781 227.544 251.524 229.93 250.518C232.441 249.387 234.827 248.13 236.962 246.496C238.971 245.113 240.729 243.353 242.111 241.342C243.366 239.457 245.501 236.691 244.999 234.429C244.873 233.549 244.371 232.04 242.99 231.035C241.357 229.652 242.613 229.149 244.12 228.772C245.25 228.521 246.506 229.275 247.385 229.778C251.403 231.035 255.045 233.549 257.682 236.943C258.436 237.822 259.064 238.954 259.064 240.085C259.064 240.588 259.064 241.216 258.812 241.719C258.561 248.255 250.399 252.655 244.999 254.666C237.967 257.18 228.172 259.066 221.642 254.289C221.39 253.786 221.516 253.409 221.767 253.283Z" fill="#176EE0"/>
<path d="M135.998 178.115C135.998 178.115 135.872 178.493 135.496 179.121C135.496 180.378 135.496 181.509 135.496 181.509L134.993 182.515L135.119 184.652L134.868 185.155V186.412L134.617 187.291L135.747 187.794L141.649 186.034L142.653 181.384C142.653 181.384 142.151 178.618 142.151 178.744C142.151 178.744 141.272 178.241 141.147 178.241C141.021 178.241 138.384 176.984 138.384 176.984L135.998 178.115Z" fill="#E0E0E0"/>
<path d="M123.189 535.352H73.3348L76.5998 519.388H120.05L123.189 535.352Z" fill="black"/>
<path d="M174.927 91.006C168.02 89.2463 161.113 87.3608 154.207 85.4753C154.081 87.7379 153.83 90.0004 153.704 92.263C155.588 92.7658 157.346 93.2686 159.23 93.6457C138.886 163.786 123.44 235.686 112.389 308.717C114.775 309.094 117.287 309.471 119.673 309.848C130.598 237.068 146.044 165.42 166.262 95.4055C168.146 95.9083 169.904 96.4111 171.787 96.7882C172.792 95.0284 173.797 93.0172 174.927 91.006Z" fill="black"/>
<path d="M105.859 306.454C93.9295 376.343 86.3949 447.614 83.6322 519.514C93.3017 520.142 102.971 520.771 112.766 521.399C112.766 450.128 117.538 379.485 126.705 309.722C119.673 308.717 112.766 307.585 105.859 306.454Z" fill="black"/>
<path d="M188.74 15.5867C187.861 15.3353 187.108 15.0839 186.229 14.8325C174.801 19.3576 163.499 23.8828 152.072 28.5336C149.058 46.76 146.295 64.9863 143.909 83.3384C157.095 86.858 170.406 90.3775 183.717 93.7714C191.629 77.3048 199.791 60.964 208.205 44.8745C201.549 35.1957 195.145 25.3912 188.74 15.5867ZM180.703 86.2295C170.657 83.5898 160.737 80.9501 150.69 78.1847C152.574 64.4835 154.583 50.6567 156.844 36.9555C170.908 41.1035 185.099 45.1259 199.163 49.1483C192.884 61.3411 186.731 73.7853 180.703 86.2295Z" fill="black"/>
<mask id="mask26_2435_15821" style="mask-type:luminance" maskUnits="userSpaceOnUse" x="134" y="174" width="14" height="16">
<path d="M137.379 174.973C137.379 174.973 134.742 176.356 136.249 178.744C135.496 178.87 134.491 180.378 135.747 181.886C135.119 182.138 134.24 183.269 135.119 184.777C134.491 185.155 134.24 187.04 134.993 187.92C135.747 188.8 138.761 189.303 138.761 189.303L141.272 189.051L143.784 188.297C143.784 188.297 147.174 181.509 147.174 181.384C147.174 181.258 146.044 176.607 146.044 176.607L143.407 175.224L137.379 174.973Z" fill="white"/>
</mask>
<g mask="url(#mask26_2435_15821)">
<path d="M123.566 183.018C129.091 180.001 137.128 177.613 143.407 179.749C144.788 180.252 143.784 182.263 142.402 181.886C137.002 180.127 129.468 182.766 124.821 185.406C123.44 186.034 122.31 183.772 123.566 183.018Z" fill="#FFDBAC"/>
<path d="M122.938 179.875C128.463 176.858 136.5 174.47 142.779 176.607C144.16 177.11 143.156 179.121 141.774 178.744C136.375 176.984 128.84 179.624 124.194 182.263C122.938 182.892 121.682 180.629 122.938 179.875Z" fill="#FFDBAC"/>
<path d="M118.919 189.051C124.445 186.034 132.482 183.646 138.761 185.783C140.142 186.286 139.137 188.297 137.756 187.92C132.356 186.16 124.821 188.8 120.175 191.439C118.794 192.068 117.538 189.805 118.919 189.051Z" fill="#FFDBAC"/>
<path d="M124.194 185.406C129.468 182.263 135.621 182.012 141.649 182.389C143.156 182.515 143.03 184.777 141.649 184.652C135.998 184.275 130.347 184.4 125.449 187.417C123.942 188.297 122.938 186.16 124.194 185.406Z" fill="#FFDBAC"/>
</g>
<path d="M336.67 197.724C364.549 196.09 391.799 185.783 414.026 168.814C420.179 164.037 425.956 158.758 431.356 152.976C431.858 152.347 430.979 151.467 430.477 152.096C411.766 172.333 386.901 186.663 360.028 193.074C352.368 194.833 344.582 195.965 336.67 196.467C335.791 196.593 335.791 197.85 336.67 197.724Z" fill="black"/>
<path d="M362.916 204.261C377.734 206.9 393.431 202.25 404.482 191.942C405.11 191.439 404.231 190.56 403.603 191.062C392.929 201.118 377.734 205.643 363.293 203.004C362.414 202.878 362.037 204.135 362.916 204.261Z" fill="black"/>
<path d="M514.864 402.111C532.696 399.597 549.649 392.432 563.84 381.371C567.858 378.228 571.751 374.834 575.267 371.063C575.769 370.435 574.89 369.555 574.388 370.183C562.082 383.13 546.384 392.683 529.306 397.711C524.534 399.094 519.636 400.225 514.613 400.854C513.734 401.105 513.985 402.237 514.864 402.111Z" fill="black"/>
<path d="M449.69 162.529C449.69 162.529 438.89 165.546 438.514 173.842C438.137 182.138 442.532 186.286 442.532 186.286C442.532 186.286 441.653 180.755 444.541 177.99C447.304 175.224 455.969 167.305 451.071 162.529C451.071 162.529 450.946 160.14 451.95 160.015C452.955 159.889 451.322 158.255 451.322 158.255C451.322 158.255 449.439 160.769 449.69 162.529Z" fill="#B6B6B6"/>
<path d="M660.66 346.678C660.66 346.678 654.13 340.518 648.228 343.661C642.451 346.803 641.446 351.58 641.446 351.58C641.446 351.58 644.837 348.689 647.976 349.443C650.99 350.197 660.032 352.837 661.288 347.558C661.288 347.558 662.92 346.552 663.422 347.18C663.925 347.809 664.301 346.049 664.301 346.049C664.301 346.049 661.79 345.672 660.66 346.678Z" fill="#B6B6B6"/>
<path d="M548.394 333.479C548.394 333.479 546.259 324.806 540.357 324.555C534.455 324.303 531.692 327.949 531.692 327.949C531.692 327.949 535.585 327.194 537.468 329.457C539.478 331.719 545.003 338.633 548.394 334.611C548.394 334.611 550.026 334.485 550.152 335.365C550.277 336.119 551.407 334.862 551.407 334.862C551.407 334.862 549.649 333.354 548.394 333.479Z" fill="#B6B6B6"/>
<path d="M429.723 419.709C429.723 419.709 432.737 432.027 441.151 432.404C449.564 432.781 453.583 427.628 453.583 427.628C453.583 427.628 448.057 428.633 445.295 425.365C442.532 422.097 434.495 412.293 429.723 417.949C429.723 417.949 427.337 418.075 427.212 416.943C427.086 415.812 425.453 417.698 425.453 417.698C425.453 417.698 427.839 420.086 429.723 419.709Z" fill="#B6B6B6"/>
<path d="M472.168 123.311C472.168 123.311 482.591 119.414 486.861 125.07C491.256 130.853 489.498 136.258 489.498 136.258C489.498 136.258 487.489 131.858 483.847 131.481C480.205 131.104 469.154 130.224 470.912 124.065C470.912 124.065 469.782 122.305 468.903 122.808C468.024 123.311 468.652 121.174 468.652 121.174C468.652 121.174 471.54 121.928 472.168 123.311Z" fill="#B6B6B6"/>
<path d="M598.122 353.088C593.225 351.077 578.658 344.792 576.648 353.842C576.648 353.842 574.011 355.351 573.258 354.094C572.504 352.837 571.877 355.979 571.877 355.979C571.877 355.979 575.769 356.985 577.653 355.602C577.653 355.602 585.564 364.653 593.853 364.15C593.978 364.024 594.104 363.898 594.229 363.647C594.857 362.641 595.108 361.51 595.736 360.63C596.239 359.876 597.118 359.499 597.871 358.996C598.248 358.745 598.624 358.619 599.001 358.619C599.88 358.619 600.508 359.625 600.759 360.505C600.885 360.756 600.885 361.133 600.885 361.384C607.54 356.859 608.796 350.7 608.796 350.7C608.796 350.7 603.145 355.099 598.122 353.088Z" fill="#B6B6B6"/>
<path d="M637.177 450.631C649.107 443.466 659.278 433.284 665.808 420.84C666.185 420.086 665.055 419.457 664.678 420.212C658.274 432.404 648.228 442.46 636.423 449.499C635.921 450.002 636.549 451.008 637.177 450.631Z" fill="black"/>
<path d="M649.609 431.65C659.655 423.354 666.687 411.664 669.576 398.968C669.701 398.214 668.571 397.837 668.32 398.591C665.557 411.161 658.65 422.474 648.73 430.77C648.102 431.273 648.981 432.153 649.609 431.65Z" fill="black"/>
<path d="M547.138 442.083C550.403 439.821 555.049 440.7 557.561 444.094L571.5 462.824C574.011 466.217 573.509 470.868 570.37 473.257L563.337 478.41C562.333 479.164 562.207 480.798 563.086 481.93L567.733 488.215C568.612 489.472 570.37 489.849 571.374 488.969L651.618 419.834C652.497 419.08 652.623 417.572 651.744 416.315L627.005 383.005C626.126 381.873 624.745 381.496 623.614 382.125L532.32 436.175C531.19 436.93 530.938 438.564 531.943 439.821L536.589 446.106C537.468 447.237 538.975 447.614 540.106 446.985L547.138 442.083Z" fill="#EA8E33"/>
<path d="M538.724 439.821C542.366 437.558 547.138 438.564 549.398 441.958L561.956 460.938C564.216 464.458 563.212 469.109 559.57 471.497L551.659 476.65C550.528 477.405 550.277 479.039 551.031 480.296L555.175 486.706C556.054 487.963 557.686 488.34 558.817 487.461L649.986 418.075C650.99 417.321 651.241 415.686 650.488 414.555L628.135 380.868C627.382 379.737 625.875 379.36 624.745 379.862L523.655 434.039C522.399 434.793 522.022 436.427 522.901 437.684L527.045 443.969C527.799 445.226 529.431 445.603 530.562 444.849L538.724 439.821Z" fill="#F0D046"/>
<path d="M637.177 415.309L637.051 415.184L623.489 394.946C622.61 393.564 622.233 392.055 622.61 390.547C622.861 389.038 623.74 387.781 624.996 387.027L633.786 381.119C637.805 378.48 643.33 379.611 646.218 383.633C646.218 383.759 646.344 383.759 646.344 383.885L656.013 398.214C657.395 400.351 658.023 402.865 657.52 405.379C657.018 407.767 655.762 409.653 653.753 411.036L644.963 416.944C642.451 418.578 638.935 417.823 637.177 415.309ZM641.446 412.293C641.698 412.544 641.949 412.67 642.074 412.544L650.865 406.636C651.618 406.133 652.12 405.379 652.372 404.374C652.623 403.242 652.372 402.111 651.744 401.231L642.074 386.901C640.818 385.016 638.433 384.387 636.674 385.519L627.884 391.427C627.884 391.427 627.758 391.427 627.758 391.552C627.758 391.678 627.758 391.804 627.884 392.055L641.446 412.293Z" fill="#F0D046"/>
<path d="M596.113 446.734L576.9 417.572C576.523 416.943 576.397 416.189 576.774 415.435C577.151 414.807 577.779 414.304 578.532 414.304L613.819 413.424C614.573 413.424 615.201 413.801 615.577 414.429C615.954 415.058 615.954 415.812 615.703 416.441L599.629 446.483C599.252 447.111 598.625 447.488 597.871 447.614C597.243 447.614 596.615 447.237 596.113 446.734ZM582.425 418.452L597.62 441.455L610.303 417.698L582.425 418.452Z" fill="#EA8E33"/>
</g>
<defs>
<clipPath id="clip0_2435_15821">
<rect width="707" height="562" fill="white" transform="translate(0.5)"/>
</clipPath>
</defs>
</svg>
