<svg width="1512" height="1007" viewBox="0 0 1512 1007" fill="none" xmlns="http://www.w3.org/2000/svg">
<g clip-path="url(#clip0_4769_11196)">
<rect x="-10.5579" y="121.614" width="56.3095" height="1099.63" stroke="#F8F8F8" stroke-width="0.6"/>
<rect x="46.3518" y="120.444" width="56.3095" height="1099.63" stroke="#F8F8F8" stroke-width="0.6"/>
<rect x="103.261" y="119.274" width="56.3095" height="1099.63" stroke="#F8F8F8" stroke-width="0.6"/>
<rect x="160.171" y="118.103" width="56.3095" height="1099.63" stroke="#F8F8F8" stroke-width="0.6"/>
<rect x="217.08" y="116.932" width="56.3095" height="1099.63" stroke="#F8F8F8" stroke-width="0.6"/>
<rect x="273.989" y="115.762" width="56.3095" height="1099.63" stroke="#F8F8F8" stroke-width="0.6"/>
<rect x="330.899" y="114.592" width="56.3095" height="1099.63" stroke="#F8F8F8" stroke-width="0.6"/>
<rect x="387.808" y="113.421" width="56.3095" height="1099.63" stroke="#F8F8F8" stroke-width="0.6"/>
<rect x="444.718" y="112.25" width="56.3095" height="1099.63" stroke="#F8F8F8" stroke-width="0.6"/>
<rect x="501.628" y="111.08" width="56.3095" height="1099.63" stroke="#F8F8F8" stroke-width="0.6"/>
<rect x="558.537" y="109.909" width="56.3095" height="1099.63" stroke="#F8F8F8" stroke-width="0.6"/>
<rect x="615.446" y="108.739" width="56.3095" height="1099.63" stroke="#F8F8F8" stroke-width="0.6"/>
<rect x="672.356" y="107.569" width="56.3095" height="1099.63" stroke="#F8F8F8" stroke-width="0.6"/>
<rect x="729.265" y="106.398" width="56.3095" height="1099.63" stroke="#F8F8F8" stroke-width="0.6"/>
<rect x="786.175" y="105.227" width="56.3095" height="1099.63" stroke="#F8F8F8" stroke-width="0.6"/>
<rect x="843.084" y="104.057" width="56.3095" height="1099.63" stroke="#F8F8F8" stroke-width="0.6"/>
<rect x="899.994" y="102.886" width="56.3095" height="1099.63" stroke="#F8F8F8" stroke-width="0.6"/>
<rect x="956.905" y="101.716" width="56.3095" height="1099.63" stroke="#F8F8F8" stroke-width="0.6"/>
<rect x="1013.81" y="100.545" width="56.3095" height="1099.63" stroke="#F8F8F8" stroke-width="0.6"/>
<rect x="1070.72" y="99.3747" width="56.3095" height="1099.63" stroke="#F8F8F8" stroke-width="0.6"/>
<rect x="1127.63" y="98.2043" width="56.3095" height="1099.63" stroke="#F8F8F8" stroke-width="0.6"/>
<rect x="1184.54" y="97.0339" width="56.3095" height="1099.63" stroke="#F8F8F8" stroke-width="0.6"/>
<rect x="1241.45" y="95.8635" width="56.3095" height="1099.63" stroke="#F8F8F8" stroke-width="0.6"/>
<rect x="1298.36" y="94.6926" width="56.3095" height="1099.63" stroke="#F8F8F8" stroke-width="0.6"/>
<rect x="1355.27" y="93.5222" width="56.3095" height="1099.63" stroke="#F8F8F8" stroke-width="0.6"/>
<rect x="1412.18" y="92.3518" width="56.3095" height="1099.63" stroke="#F8F8F8" stroke-width="0.6"/>
<rect x="1469.09" y="91.1813" width="56.3095" height="1099.63" stroke="#F8F8F8" stroke-width="0.6"/>
<rect x="-427.831" y="1046.14" width="56.3095" height="2141.59" transform="rotate(-90 -427.831 1046.14)" stroke="#F8F8F8" stroke-width="0.6"/>
<rect x="-430.111" y="989.23" width="56.3095" height="2141.59" transform="rotate(-90 -430.111 989.23)" stroke="#F8F8F8" stroke-width="0.6"/>
<rect x="-432.389" y="932.321" width="56.3095" height="2141.59" transform="rotate(-90 -432.389 932.321)" stroke="#F8F8F8" stroke-width="0.6"/>
<rect x="-434.67" y="875.411" width="56.3095" height="2141.59" transform="rotate(-90 -434.67 875.411)" stroke="#F8F8F8" stroke-width="0.6"/>
<rect x="-436.948" y="818.502" width="56.3095" height="2141.59" transform="rotate(-90 -436.948 818.502)" stroke="#F8F8F8" stroke-width="0.6"/>
<rect x="-439.226" y="761.593" width="56.3095" height="2141.59" transform="rotate(-90 -439.226 761.593)" stroke="#F8F8F8" stroke-width="0.6"/>
<rect x="-441.506" y="704.683" width="56.3095" height="2141.59" transform="rotate(-90 -441.506 704.683)" stroke="#F8F8F8" stroke-width="0.6"/>
<rect x="-443.784" y="647.773" width="56.3095" height="2141.59" transform="rotate(-90 -443.784 647.773)" stroke="#F8F8F8" stroke-width="0.6"/>
<rect x="-446.065" y="590.864" width="56.3095" height="2141.59" transform="rotate(-90 -446.065 590.864)" stroke="#F8F8F8" stroke-width="0.6"/>
<rect x="-448.341" y="533.954" width="56.3095" height="2141.59" transform="rotate(-90 -448.341 533.954)" stroke="#F8F8F8" stroke-width="0.6"/>
<rect x="-450.623" y="477.045" width="56.3095" height="2141.59" transform="rotate(-90 -450.623 477.045)" stroke="#F8F8F8" stroke-width="0.6"/>
<rect x="-452.9" y="420.134" width="56.3095" height="2141.59" transform="rotate(-90 -452.9 420.134)" stroke="#F8F8F8" stroke-width="0.6"/>
<rect x="-455.179" y="363.224" width="56.3095" height="2141.59" transform="rotate(-90 -455.179 363.224)" stroke="#F8F8F8" stroke-width="0.6"/>
<rect x="-457.458" y="306.315" width="56.3095" height="2141.59" transform="rotate(-90 -457.458 306.315)" stroke="#F8F8F8" stroke-width="0.6"/>
<rect x="-459.736" y="249.405" width="56.3095" height="2141.59" transform="rotate(-90 -459.736 249.405)" stroke="#F8F8F8" stroke-width="0.6"/>
<rect x="-462.017" y="192.496" width="56.3095" height="2141.59" transform="rotate(-90 -462.017 192.496)" stroke="#F8F8F8" stroke-width="0.6"/>
<rect x="-464.295" y="135.586" width="56.3095" height="2141.59" transform="rotate(-90 -464.295 135.586)" stroke="#F8F8F8" stroke-width="0.6"/>
<rect x="-466.575" y="78.6766" width="56.3095" height="2141.59" transform="rotate(-90 -466.575 78.6766)" stroke="#F8F8F8" stroke-width="0.6"/>
<rect x="-468.853" y="21.7674" width="56.3095" height="2141.59" transform="rotate(-90 -468.853 21.7674)" stroke="#F8F8F8" stroke-width="0.6"/>
</g>
<defs>
<clipPath id="clip0_4769_11196">
<rect width="2215.17" height="1154.8" fill="white" transform="translate(-473.587 -148.298)"/>
</clipPath>
</defs>
</svg>
