<svg width="549" height="639" viewBox="0 0 549 639" fill="none" xmlns="http://www.w3.org/2000/svg">
<path d="M267.728 192.58C299.908 192.58 325.995 218.666 325.995 250.844C325.995 283.022 299.908 309.108 267.728 309.108C235.548 309.108 209.461 283.022 209.461 250.844C209.462 218.666 235.548 192.58 267.728 192.58Z" stroke="#EEEEEE" stroke-width="2"/>
<path d="M267.728 152.099C322.266 152.099 366.478 196.309 366.478 250.844C366.478 305.38 322.266 349.589 267.728 349.589C213.19 349.588 168.979 305.379 168.979 250.844C168.979 196.309 213.19 152.1 267.728 152.099Z" stroke="#EEEEEE" stroke-width="2"/>
<path d="M267.728 103.175C349.287 103.175 415.405 169.289 415.405 250.844C415.405 332.4 349.287 398.513 267.728 398.513C186.169 398.513 120.052 332.4 120.052 250.844C120.052 169.289 186.169 103.175 267.728 103.175Z" stroke="url(#paint0_linear_3407_38966)" stroke-width="2"/>
<path d="M267.729 59.9559C373.159 59.9562 458.626 145.42 458.626 250.845C458.626 356.269 373.159 441.732 267.729 441.732C162.3 441.732 76.8322 356.269 76.832 250.845C76.832 145.42 162.3 59.9559 267.729 59.9559Z" stroke="url(#paint1_linear_3407_38966)" stroke-width="2"/>
<path d="M267.729 19.7627C395.357 19.7627 498.821 123.221 498.821 250.844C498.821 378.466 395.358 481.926 267.729 481.926C140.1 481.926 36.6372 378.466 36.6372 250.844C36.6374 123.221 140.101 19.7628 267.729 19.7627Z" stroke="url(#paint2_linear_3407_38966)" stroke-width="2"/>
<rect x="81.6475" y="312.877" width="37.4049" height="37.7117" rx="7.73649" fill="#F1F1F1"/>
<path d="M92.3809 329.077C92.3809 326.573 92.3809 325.32 93.1589 324.542C93.9368 323.764 95.189 323.764 97.6933 323.764H103.006C105.51 323.764 106.762 323.764 107.54 324.542C108.318 325.32 108.318 326.573 108.318 329.077V333.504C108.318 335.174 108.318 336.008 107.8 336.527C107.281 337.046 106.446 337.046 104.777 337.046H95.9225C94.253 337.046 93.4182 337.046 92.8995 336.527C92.3809 336.008 92.3809 335.174 92.3809 333.504V329.077Z" stroke="#707072" stroke-width="1.32812"/>
<path d="M109.204 339.702H91.4961" stroke="#707072" stroke-width="1.32812" stroke-linecap="round"/>
<path d="M103.006 334.389H97.6938" stroke="#707072" stroke-width="1.32812" stroke-linecap="round"/>
<rect x="416.485" y="321.108" width="37.4049" height="37.7117" rx="7.73649" fill="#F1F1F1"/>
<path d="M437.843 346.162L439.614 347.933L443.156 344.391M436.073 331.995H431.823C430.831 331.995 430.335 331.995 429.956 332.188C429.623 332.358 429.352 332.629 429.182 332.962C428.989 333.341 428.989 333.837 428.989 334.829V345.1C428.989 346.091 428.989 346.587 429.182 346.966C429.352 347.299 429.623 347.57 429.956 347.74C430.335 347.933 430.831 347.933 431.823 347.933H435.187M436.073 331.995L441.385 337.308M436.073 331.995V335.891C436.073 336.387 436.073 336.635 436.169 336.825C436.254 336.991 436.389 337.127 436.556 337.211C436.745 337.308 436.993 337.308 437.489 337.308H441.385M441.385 337.308V341.292" stroke="#707072" stroke-width="1.77082" stroke-linecap="round" stroke-linejoin="round"/>
<rect x="167.979" y="172.724" width="37.4049" height="37.7117" rx="7.73649" fill="#F1F1F1"/>
<path d="M194.446 185.927C194.446 186.405 194.255 186.864 193.917 187.203C193.579 187.541 193.12 187.731 192.642 187.732H192.076V197.122C192.075 197.6 191.885 198.059 191.547 198.397C191.209 198.735 190.75 198.926 190.272 198.926H180.72C180.483 198.926 180.248 198.88 180.029 198.789C179.81 198.698 179.611 198.565 179.444 198.398C179.276 198.23 179.143 198.031 179.052 197.812C178.962 197.593 178.915 197.359 178.915 197.122C178.915 196.885 178.962 196.65 179.052 196.431C179.143 196.212 179.276 196.013 179.444 195.846C179.611 195.678 179.81 195.545 180.029 195.454C180.248 195.364 180.483 195.317 180.72 195.317H181.284V185.927C181.284 185.448 181.475 184.989 181.813 184.65C182.152 184.311 182.611 184.121 183.09 184.121H192.641C193.119 184.121 193.578 184.311 193.917 184.65C194.255 184.988 194.446 185.447 194.446 185.926V185.927ZM180.72 197.687H188.556C188.435 197.32 188.435 196.924 188.556 196.557H180.722C180.572 196.557 180.428 196.617 180.322 196.723C180.217 196.829 180.157 196.972 180.157 197.122C180.157 197.272 180.217 197.416 180.322 197.522C180.428 197.627 180.572 197.687 180.722 197.687H180.72ZM190.836 185.927C190.835 185.735 190.866 185.544 190.925 185.362H183.091C182.965 185.362 182.843 185.404 182.744 185.482L182.742 185.483C182.674 185.535 182.62 185.603 182.582 185.68C182.545 185.757 182.525 185.841 182.526 185.927V195.317H189.613C189.768 195.315 189.918 195.366 190.04 195.461C190.162 195.556 190.248 195.689 190.284 195.839C190.327 195.983 190.322 196.137 190.272 196.278C190.222 196.419 190.128 196.54 190.004 196.624C189.916 196.672 189.842 196.742 189.791 196.827C189.739 196.912 189.71 197.01 189.708 197.109C189.706 197.209 189.731 197.308 189.779 197.395C189.828 197.482 189.898 197.555 189.984 197.606C190.069 197.657 190.167 197.684 190.267 197.686C190.366 197.687 190.465 197.661 190.551 197.612C190.638 197.563 190.71 197.492 190.761 197.406C190.811 197.32 190.838 197.222 190.838 197.122L190.836 185.927ZM189.874 187.535H183.432V188.773H189.874V187.535ZM189.874 190.063H183.432V191.301H189.874V190.063ZM189.874 192.59H183.432V193.83H189.874V192.59ZM193.206 185.927C193.205 185.777 193.146 185.634 193.04 185.528C192.934 185.422 192.79 185.362 192.641 185.362C192.515 185.361 192.393 185.404 192.294 185.482H192.292C192.224 185.534 192.169 185.602 192.132 185.679C192.094 185.756 192.075 185.841 192.075 185.927V186.492H192.641C192.79 186.491 192.934 186.432 193.04 186.326C193.146 186.22 193.205 186.077 193.206 185.927Z" fill="#707072"/>
<rect x="406.637" y="125.938" width="37.4049" height="37.7117" rx="7.73649" fill="#F1F1F1"/>
<g clip-path="url(#clip0_3407_38966)">
<path d="M429.517 151.657L428.95 147.12C428.784 145.791 427.654 144.793 426.315 144.793H425.339H424.364C423.024 144.793 421.894 145.791 421.728 147.12L421.161 151.657C421.029 152.714 421.853 153.648 422.918 153.648H425.339H427.76C428.825 153.648 429.65 152.714 429.517 151.657Z" stroke="#707072" stroke-width="1.77082" stroke-linecap="round" stroke-linejoin="round"/>
<path d="M425.338 141.252C426.805 141.252 427.995 140.062 427.995 138.595C427.995 137.128 426.805 135.939 425.338 135.939C423.871 135.939 422.682 137.128 422.682 138.595C422.682 140.062 423.871 141.252 425.338 141.252Z" stroke="#707072" stroke-width="1.77082"/>
<path d="M418.256 143.908C419.234 143.908 420.027 143.115 420.027 142.137C420.027 141.159 419.234 140.366 418.256 140.366C417.278 140.366 416.485 141.159 416.485 142.137C416.485 143.115 417.278 143.908 418.256 143.908Z" stroke="#707072" stroke-width="1.77082"/>
<path d="M432.422 143.908C433.4 143.908 434.193 143.115 434.193 142.137C434.193 141.159 433.4 140.366 432.422 140.366C431.444 140.366 430.651 141.159 430.651 142.137C430.651 143.115 431.444 143.908 432.422 143.908Z" stroke="#707072" stroke-width="1.77082"/>
<path d="M418.255 146.564H417.984C417.119 146.564 416.38 147.19 416.238 148.044L415.942 149.815C415.763 150.894 416.595 151.877 417.689 151.877H420.911" stroke="#707072" stroke-width="1.77082" stroke-linecap="round" stroke-linejoin="round"/>
<path d="M432.422 146.564H432.693C433.559 146.564 434.297 147.19 434.44 148.044L434.735 149.815C434.915 150.894 434.083 151.877 432.988 151.877C431.96 151.877 430.736 151.877 429.766 151.877" stroke="#707072" stroke-width="1.77082" stroke-linecap="round" stroke-linejoin="round"/>
</g>
<rect x="218.073" y="324.383" width="37.4049" height="37.7117" rx="7.73649" fill="#F1F1F1"/>
<path d="M236.776 347.666V351.208M233.234 351.208H240.317M231.64 347.666H241.911C242.903 347.666 243.399 347.666 243.778 347.473C244.111 347.304 244.382 347.033 244.552 346.7C244.745 346.321 244.745 345.825 244.745 344.833V338.104C244.745 337.112 244.745 336.616 244.552 336.238C244.382 335.904 244.111 335.633 243.778 335.464C243.399 335.271 242.903 335.271 241.911 335.271H231.64C230.649 335.271 230.153 335.271 229.774 335.464C229.441 335.633 229.17 335.904 229 336.238C228.807 336.616 228.807 337.112 228.807 338.104V344.833C228.807 345.825 228.807 346.321 229 346.7C229.17 347.033 229.441 347.304 229.774 347.473C230.153 347.666 230.649 347.666 231.64 347.666Z" stroke="#707072" stroke-width="1.77082" stroke-linecap="round"/>
<rect x="348.774" y="213.133" width="37.4049" height="37.7117" rx="7.73649" fill="#F1F1F1"/>
<path fill-rule="evenodd" clip-rule="evenodd" d="M359.137 226.775C359.137 225.048 360.537 223.648 362.264 223.648H367.477H372.69C374.418 223.648 375.818 225.048 375.818 226.775V231.988V237.201C375.818 238.929 374.418 240.329 372.69 240.329H367.477H362.264C360.537 240.329 359.137 238.929 359.137 237.201V231.988V226.775ZM362.264 225.733C361.689 225.733 361.222 226.2 361.222 226.775V230.946H366.435V225.733H362.264ZM368.52 225.733V230.946H373.733V226.775C373.733 226.2 373.266 225.733 372.69 225.733H368.52ZM373.733 233.031H368.52V238.244H372.69C373.266 238.244 373.733 237.777 373.733 237.201V233.031ZM366.435 238.244V233.031H361.222V237.201C361.222 237.777 361.689 238.244 362.264 238.244H366.435Z" fill="#707072"/>
<rect x="35.6372" y="147.415" width="37.4049" height="37.7117" rx="7.73649" fill="#F1F1F1"/>
<g clip-path="url(#clip1_3407_38966)">
<path fill-rule="evenodd" clip-rule="evenodd" d="M60.0456 168.698L51.9712 174.157C50.0037 175.487 47.3389 174.09 47.3389 171.73V160.812C47.3389 158.451 50.0037 157.054 51.9712 158.385L60.0456 163.844C61.7709 165.01 61.7709 167.532 60.0456 168.698Z" fill="#707072"/>
</g>
<path d="M210.731 542.087V528.909H213.921V548.328H211.424L202.27 535.151V548.328H199.079V528.909H201.576L210.731 542.087ZM229.34 546.581C227.935 547.986 226.206 548.689 224.153 548.689C222.1 548.689 220.37 547.986 218.965 546.581C217.541 545.157 216.829 543.427 216.829 541.393C216.829 539.359 217.541 537.629 218.965 536.205C220.37 534.8 222.1 534.097 224.153 534.097C226.206 534.097 227.935 534.8 229.34 536.205C230.765 537.629 231.477 539.359 231.477 541.393C231.477 543.427 230.765 545.157 229.34 546.581ZM219.825 541.393C219.825 542.651 220.241 543.696 221.073 544.528C221.906 545.36 222.932 545.776 224.153 545.776C225.373 545.776 226.4 545.36 227.232 544.528C228.064 543.696 228.48 542.651 228.48 541.393C228.48 540.135 228.064 539.09 227.232 538.258C226.4 537.426 225.373 537.01 224.153 537.01C222.932 537.01 221.906 537.426 221.073 538.258C220.241 539.09 219.825 540.135 219.825 541.393ZM239.79 528.909H253.938V531.961H248.473V548.328H245.283V531.961H239.79V528.909ZM258.933 531.822C258.563 532.192 258.119 532.377 257.601 532.377C257.083 532.377 256.63 532.192 256.242 531.822C255.872 531.434 255.687 530.98 255.687 530.463C255.687 529.945 255.872 529.501 256.242 529.131C256.612 528.743 257.065 528.548 257.601 528.548C258.138 528.548 258.591 528.743 258.961 529.131C259.33 529.501 259.515 529.945 259.515 530.463C259.515 530.98 259.321 531.434 258.933 531.822ZM259.099 548.328H256.103V534.457H259.099V548.328ZM269.125 548.689C267.035 548.689 265.288 547.986 263.882 546.581C262.495 545.157 261.801 543.427 261.801 541.393C261.801 539.322 262.495 537.592 263.882 536.205C265.288 534.8 267.035 534.097 269.125 534.097C270.475 534.097 271.705 534.42 272.815 535.068C273.925 535.715 274.757 536.584 275.312 537.676L272.732 539.174C272.417 538.508 271.936 537.99 271.289 537.62C270.66 537.232 269.93 537.037 269.098 537.037C267.877 537.037 266.85 537.454 266.018 538.286C265.204 539.137 264.797 540.172 264.797 541.393C264.797 542.614 265.204 543.649 266.018 544.5C266.85 545.332 267.877 545.748 269.098 545.748C269.911 545.748 270.642 545.564 271.289 545.194C271.955 544.805 272.454 544.278 272.787 543.612L275.367 545.083C274.775 546.192 273.915 547.071 272.787 547.718C271.678 548.365 270.457 548.689 269.125 548.689ZM283.47 541.254L289.795 548.328H286.216L280.529 541.92V548.328H277.533V528.909H280.529V540.588L285.911 534.457H289.573L283.47 541.254ZM304.099 542.669H293.058C293.28 543.705 293.779 544.509 294.556 545.083C295.351 545.656 296.331 545.943 297.496 545.943C299.068 545.943 300.261 545.369 301.075 544.223L303.544 545.665C302.194 547.681 300.169 548.689 297.469 548.689C295.231 548.689 293.409 548.005 292.003 546.636C290.616 545.249 289.923 543.501 289.923 541.393C289.923 539.34 290.607 537.611 291.976 536.205C293.326 534.8 295.083 534.097 297.247 534.097C299.263 534.097 300.927 534.809 302.24 536.233C303.553 537.657 304.21 539.386 304.21 541.421C304.21 541.791 304.173 542.207 304.099 542.669ZM293.03 540.228H301.186C300.983 539.137 300.52 538.295 299.799 537.703C299.096 537.111 298.236 536.815 297.219 536.815C296.109 536.815 295.185 537.121 294.445 537.731C293.705 538.341 293.233 539.174 293.03 540.228ZM314.153 534.457V537.343H310.713V544.001C310.713 544.574 310.842 544.99 311.101 545.249C311.36 545.49 311.739 545.628 312.239 545.665C312.757 545.684 313.395 545.674 314.153 545.638V548.328C311.86 548.606 310.214 548.412 309.215 547.746C308.216 547.062 307.717 545.813 307.717 544.001V537.343H305.165V534.457H307.717V531.461L310.713 530.574V534.457H314.153ZM319.047 538.286C319.047 538.711 319.269 539.063 319.712 539.34C320.156 539.599 320.804 539.849 321.654 540.089C322.302 540.237 322.866 540.394 323.347 540.561C323.828 540.727 324.336 540.977 324.872 541.31C325.409 541.624 325.816 542.05 326.093 542.586C326.389 543.104 326.528 543.714 326.509 544.417C326.509 545.748 325.991 546.793 324.956 547.552C323.92 548.31 322.635 548.689 321.1 548.689C319.731 548.689 318.557 548.402 317.576 547.829C316.596 547.256 315.884 546.461 315.44 545.443L318.02 543.945C318.483 545.277 319.509 545.943 321.1 545.943C322.672 545.943 323.458 545.425 323.458 544.389C323.458 543.631 322.579 543.039 320.822 542.614C320.156 542.447 319.592 542.281 319.13 542.114C318.686 541.948 318.187 541.707 317.632 541.393C317.095 541.079 316.679 540.662 316.383 540.145C316.106 539.627 315.977 539.026 315.995 538.341C315.995 537.065 316.476 536.039 317.438 535.262C318.418 534.485 319.629 534.097 321.072 534.097C322.218 534.097 323.236 534.356 324.123 534.874C325.03 535.373 325.723 536.076 326.204 536.982L323.68 538.397C323.217 537.343 322.348 536.815 321.072 536.815C320.48 536.815 319.99 536.945 319.601 537.204C319.232 537.463 319.047 537.823 319.047 538.286ZM341.877 544.528L345.428 534.457H348.618L343.292 548.772C341.96 552.36 339.704 554.062 336.522 553.877V551.075C337.447 551.13 338.196 550.936 338.77 550.492C339.343 550.049 339.824 549.336 340.212 548.356L340.351 548.079L334.47 534.457H337.743L341.877 544.528ZM363.349 542.669H352.308C352.53 543.705 353.029 544.509 353.806 545.083C354.601 545.656 355.581 545.943 356.746 545.943C358.319 545.943 359.511 545.369 360.325 544.223L362.794 545.665C361.444 547.681 359.419 548.689 356.719 548.689C354.481 548.689 352.659 548.005 351.254 546.636C349.866 545.249 349.173 543.501 349.173 541.393C349.173 539.34 349.857 537.611 351.226 536.205C352.576 534.8 354.333 534.097 356.497 534.097C358.513 534.097 360.177 534.809 361.49 536.233C362.804 537.657 363.46 539.386 363.46 541.421C363.46 541.791 363.423 542.207 363.349 542.669ZM352.28 540.228H360.436C360.233 539.137 359.77 538.295 359.049 537.703C358.346 537.111 357.486 536.815 356.469 536.815C355.359 536.815 354.435 537.121 353.695 537.731C352.955 538.341 352.483 539.174 352.28 540.228ZM373.403 534.457V537.343H369.963V544.001C369.963 544.574 370.092 544.99 370.351 545.249C370.61 545.49 370.989 545.628 371.489 545.665C372.007 545.684 372.645 545.674 373.403 545.638V548.328C371.11 548.606 369.464 548.412 368.465 547.746C367.466 547.062 366.967 545.813 366.967 544.001V537.343H364.415V534.457H366.967V531.461L369.963 530.574V534.457H373.403Z" fill="black"/>
<rect x="486.297" y="225.644" width="37.4049" height="37.7117" rx="7.73649" fill="#F1F1F1"/>
<g clip-path="url(#clip2_3407_38966)">
<path d="M510.212 234.685H499.785C499.378 234.685 498.988 234.847 498.701 235.134C498.413 235.422 498.251 235.812 498.251 236.219V252.78C498.251 253.187 498.413 253.577 498.701 253.864C498.988 254.152 499.378 254.314 499.785 254.314H510.212C510.619 254.314 511.009 254.152 511.297 253.864C511.584 253.577 511.746 253.187 511.746 252.78V236.219C511.746 235.812 511.584 235.422 511.297 235.134C511.009 234.847 510.619 234.685 510.212 234.685ZM510.212 252.78H499.785V236.219H510.212V252.78Z" fill="#707072"/>
<path d="M505 251.247C505.542 251.247 505.981 250.835 505.981 250.327C505.981 249.818 505.542 249.406 505 249.406C504.458 249.406 504.019 249.818 504.019 250.327C504.019 250.835 504.458 251.247 505 251.247Z" fill="#707072"/>
</g>
<path d="M116.211 586.078V577.726H117.699V588.926H116.499L110.739 580.558V588.926H109.251V577.726H110.451L116.211 586.078ZM126.703 587.918C125.892 588.728 124.895 589.134 123.711 589.134C122.527 589.134 121.53 588.728 120.719 587.918C119.908 587.107 119.503 586.11 119.503 584.926C119.503 583.742 119.908 582.744 120.719 581.934C121.53 581.123 122.527 580.718 123.711 580.718C124.895 580.718 125.892 581.123 126.703 581.934C127.524 582.755 127.935 583.752 127.935 584.926C127.935 586.099 127.524 587.096 126.703 587.918ZM123.711 587.774C124.511 587.774 125.183 587.502 125.727 586.958C126.271 586.414 126.543 585.736 126.543 584.926C126.543 584.115 126.271 583.438 125.727 582.894C125.183 582.35 124.511 582.078 123.711 582.078C122.922 582.078 122.255 582.35 121.711 582.894C121.167 583.438 120.895 584.115 120.895 584.926C120.895 585.736 121.167 586.414 121.711 586.958C122.255 587.502 122.922 587.774 123.711 587.774ZM134.28 579.47C134.013 579.47 133.789 579.379 133.608 579.198C133.427 579.016 133.336 578.798 133.336 578.542C133.336 578.286 133.427 578.067 133.608 577.886C133.789 577.694 134.013 577.598 134.28 577.598C134.536 577.598 134.755 577.694 134.936 577.886C135.117 578.067 135.208 578.286 135.208 578.542C135.208 578.798 135.117 579.016 134.936 579.198C134.755 579.379 134.536 579.47 134.28 579.47ZM134.968 588.926H133.576V580.926H134.968V588.926ZM138.276 583.086C138.276 583.598 138.804 583.998 139.86 584.286C140.255 584.371 140.585 584.462 140.852 584.558C141.129 584.643 141.428 584.776 141.748 584.958C142.079 585.139 142.329 585.379 142.5 585.678C142.671 585.976 142.756 586.328 142.756 586.734C142.756 587.459 142.473 588.04 141.908 588.478C141.343 588.915 140.628 589.134 139.764 589.134C138.996 589.134 138.329 588.968 137.764 588.638C137.209 588.296 136.815 587.838 136.58 587.262L137.78 586.574C137.908 586.958 138.148 587.262 138.5 587.486C138.852 587.71 139.273 587.822 139.764 587.822C140.244 587.822 140.628 587.731 140.916 587.55C141.204 587.368 141.348 587.096 141.348 586.734C141.348 586.19 140.82 585.795 139.764 585.55C139.412 585.454 139.145 585.379 138.964 585.326C138.783 585.272 138.532 585.176 138.212 585.038C137.903 584.899 137.668 584.755 137.508 584.606C137.348 584.446 137.199 584.238 137.06 583.982C136.932 583.715 136.868 583.422 136.868 583.102C136.868 582.408 137.135 581.838 137.668 581.39C138.212 580.942 138.889 580.718 139.7 580.718C140.351 580.718 140.927 580.867 141.428 581.166C141.94 581.454 142.324 581.859 142.58 582.382L141.412 583.038C141.124 582.355 140.553 582.014 139.7 582.014C139.295 582.014 138.953 582.11 138.676 582.302C138.409 582.494 138.276 582.755 138.276 583.086ZM145.104 583.086C145.104 583.598 145.632 583.998 146.688 584.286C147.083 584.371 147.413 584.462 147.68 584.558C147.957 584.643 148.256 584.776 148.576 584.958C148.907 585.139 149.157 585.379 149.328 585.678C149.499 585.976 149.584 586.328 149.584 586.734C149.584 587.459 149.301 588.04 148.736 588.478C148.171 588.915 147.456 589.134 146.592 589.134C145.824 589.134 145.157 588.968 144.592 588.638C144.037 588.296 143.643 587.838 143.408 587.262L144.608 586.574C144.736 586.958 144.976 587.262 145.328 587.486C145.68 587.71 146.101 587.822 146.592 587.822C147.072 587.822 147.456 587.731 147.744 587.55C148.032 587.368 148.176 587.096 148.176 586.734C148.176 586.19 147.648 585.795 146.592 585.55C146.24 585.454 145.973 585.379 145.792 585.326C145.611 585.272 145.36 585.176 145.04 585.038C144.731 584.899 144.496 584.755 144.336 584.606C144.176 584.446 144.027 584.238 143.888 583.982C143.76 583.715 143.696 583.422 143.696 583.102C143.696 582.408 143.963 581.838 144.496 581.39C145.04 580.942 145.717 580.718 146.528 580.718C147.179 580.718 147.755 580.867 148.256 581.166C148.768 581.454 149.152 581.859 149.408 582.382L148.24 583.038C147.952 582.355 147.381 582.014 146.528 582.014C146.123 582.014 145.781 582.11 145.504 582.302C145.237 582.494 145.104 582.755 145.104 583.086ZM156.674 585.166V580.926H158.066V588.926H156.674V587.774C156.119 588.68 155.255 589.134 154.082 589.134C153.143 589.134 152.391 588.84 151.826 588.254C151.261 587.656 150.978 586.851 150.978 585.838V580.926H152.37V585.758C152.37 586.398 152.546 586.899 152.898 587.262C153.25 587.624 153.735 587.806 154.354 587.806C155.069 587.806 155.634 587.587 156.05 587.15C156.466 586.702 156.674 586.04 156.674 585.166ZM167.865 585.566H161.161C161.3 586.27 161.625 586.824 162.137 587.23C162.649 587.624 163.289 587.822 164.057 587.822C165.113 587.822 165.881 587.432 166.361 586.654L167.545 587.326C166.756 588.531 165.583 589.134 164.025 589.134C162.767 589.134 161.732 588.739 160.921 587.95C160.132 587.139 159.737 586.131 159.737 584.926C159.737 583.71 160.127 582.707 160.905 581.918C161.684 581.118 162.692 580.718 163.929 580.718C165.103 580.718 166.057 581.134 166.793 581.966C167.54 582.776 167.913 583.768 167.913 584.942C167.913 585.144 167.897 585.352 167.865 585.566ZM163.929 582.03C163.193 582.03 162.575 582.238 162.073 582.654C161.583 583.07 161.279 583.635 161.161 584.35H166.505C166.388 583.614 166.095 583.043 165.625 582.638C165.156 582.232 164.591 582.03 163.929 582.03ZM170.401 583.086C170.401 583.598 170.929 583.998 171.985 584.286C172.38 584.371 172.71 584.462 172.977 584.558C173.254 584.643 173.553 584.776 173.873 584.958C174.204 585.139 174.454 585.379 174.625 585.678C174.796 585.976 174.881 586.328 174.881 586.734C174.881 587.459 174.598 588.04 174.033 588.478C173.468 588.915 172.753 589.134 171.889 589.134C171.121 589.134 170.454 588.968 169.889 588.638C169.334 588.296 168.94 587.838 168.705 587.262L169.905 586.574C170.033 586.958 170.273 587.262 170.625 587.486C170.977 587.71 171.398 587.822 171.889 587.822C172.369 587.822 172.753 587.731 173.041 587.55C173.329 587.368 173.473 587.096 173.473 586.734C173.473 586.19 172.945 585.795 171.889 585.55C171.537 585.454 171.27 585.379 171.089 585.326C170.908 585.272 170.657 585.176 170.337 585.038C170.028 584.899 169.793 584.755 169.633 584.606C169.473 584.446 169.324 584.238 169.185 583.982C169.057 583.715 168.993 583.422 168.993 583.102C168.993 582.408 169.26 581.838 169.793 581.39C170.337 580.942 171.014 580.718 171.825 580.718C172.476 580.718 173.052 580.867 173.553 581.166C174.065 581.454 174.449 581.859 174.705 582.382L173.537 583.038C173.249 582.355 172.678 582.014 171.825 582.014C171.42 582.014 171.078 582.11 170.801 582.302C170.534 582.494 170.401 582.755 170.401 583.086ZM181.921 580.926V582.27C182.38 581.278 183.212 580.782 184.417 580.782V582.238C183.734 582.206 183.148 582.387 182.657 582.782C182.166 583.176 181.921 583.811 181.921 584.686V588.926H180.529V580.926H181.921ZM193.022 585.566H186.318C186.456 586.27 186.782 586.824 187.294 587.23C187.806 587.624 188.446 587.822 189.214 587.822C190.27 587.822 191.038 587.432 191.518 586.654L192.702 587.326C191.912 588.531 190.739 589.134 189.182 589.134C187.923 589.134 186.888 588.739 186.078 587.95C185.288 587.139 184.894 586.131 184.894 584.926C184.894 583.71 185.283 582.707 186.062 581.918C186.84 581.118 187.848 580.718 189.086 580.718C190.259 580.718 191.214 581.134 191.95 581.966C192.696 582.776 193.07 583.768 193.07 584.942C193.07 585.144 193.054 585.352 193.022 585.566ZM189.086 582.03C188.35 582.03 187.731 582.238 187.23 582.654C186.739 583.07 186.435 583.635 186.318 584.35H191.662C191.544 583.614 191.251 583.043 190.782 582.638C190.312 582.232 189.747 582.03 189.086 582.03ZM199.086 580.718C200.206 580.718 201.16 581.128 201.95 581.95C202.739 582.771 203.134 583.763 203.134 584.926C203.134 586.099 202.739 587.096 201.95 587.918C201.171 588.728 200.216 589.134 199.086 589.134C197.763 589.134 196.755 588.606 196.062 587.55V592.126H194.67V580.926H196.062V582.302C196.755 581.246 197.763 580.718 199.086 580.718ZM198.91 587.79C199.71 587.79 200.382 587.518 200.926 586.974C201.47 586.408 201.742 585.726 201.742 584.926C201.742 584.115 201.47 583.438 200.926 582.894C200.382 582.339 199.71 582.062 198.91 582.062C198.099 582.062 197.422 582.339 196.878 582.894C196.334 583.438 196.062 584.115 196.062 584.926C196.062 585.726 196.334 586.408 196.878 586.974C197.422 587.518 198.099 587.79 198.91 587.79ZM211.547 587.918C210.736 588.728 209.739 589.134 208.555 589.134C207.371 589.134 206.373 588.728 205.563 587.918C204.752 587.107 204.347 586.11 204.347 584.926C204.347 583.742 204.752 582.744 205.563 581.934C206.373 581.123 207.371 580.718 208.555 580.718C209.739 580.718 210.736 581.123 211.547 581.934C212.368 582.755 212.779 583.752 212.779 584.926C212.779 586.099 212.368 587.096 211.547 587.918ZM208.555 587.774C209.355 587.774 210.027 587.502 210.571 586.958C211.115 586.414 211.387 585.736 211.387 584.926C211.387 584.115 211.115 583.438 210.571 582.894C210.027 582.35 209.355 582.078 208.555 582.078C207.765 582.078 207.099 582.35 206.555 582.894C206.011 583.438 205.739 584.115 205.739 584.926C205.739 585.736 206.011 586.414 206.555 586.958C207.099 587.502 207.765 587.774 208.555 587.774ZM215.812 580.926V582.27C216.27 581.278 217.102 580.782 218.308 580.782V582.238C217.625 582.206 217.038 582.387 216.548 582.782C216.057 583.176 215.812 583.811 215.812 584.686V588.926H214.42V580.926H215.812ZM224.209 580.926V582.27H222.081V586.606C222.081 587 222.156 587.283 222.305 587.454C222.465 587.614 222.705 587.699 223.025 587.71C223.345 587.71 223.74 587.699 224.209 587.678V588.926C222.983 589.086 222.087 588.984 221.521 588.622C220.967 588.259 220.689 587.587 220.689 586.606V582.27H219.105V580.926H220.689V579.102L222.081 578.686V580.926H224.209ZM233.131 585.566H226.427C226.566 586.27 226.891 586.824 227.403 587.23C227.915 587.624 228.555 587.822 229.323 587.822C230.379 587.822 231.147 587.432 231.627 586.654L232.811 587.326C232.022 588.531 230.848 589.134 229.291 589.134C228.032 589.134 226.998 588.739 226.187 587.95C225.398 587.139 225.003 586.131 225.003 584.926C225.003 583.71 225.392 582.707 226.171 581.918C226.95 581.118 227.958 580.718 229.195 580.718C230.368 580.718 231.323 581.134 232.059 581.966C232.806 582.776 233.179 583.768 233.179 584.942C233.179 585.144 233.163 585.352 233.131 585.566ZM229.195 582.03C228.459 582.03 227.84 582.238 227.339 582.654C226.848 583.07 226.544 583.635 226.427 584.35H231.771C231.654 583.614 231.36 583.043 230.891 582.638C230.422 582.232 229.856 582.03 229.195 582.03ZM241.388 582.302V577.726H242.78V588.926H241.388V587.55C240.705 588.606 239.697 589.134 238.364 589.134C237.233 589.134 236.278 588.728 235.5 587.918C234.71 587.096 234.316 586.099 234.316 584.926C234.316 583.763 234.71 582.771 235.5 581.95C236.289 581.128 237.244 580.718 238.364 580.718C239.697 580.718 240.705 581.246 241.388 582.302ZM238.54 587.79C239.35 587.79 240.028 587.518 240.572 586.974C241.116 586.408 241.388 585.726 241.388 584.926C241.388 584.115 241.116 583.438 240.572 582.894C240.028 582.339 239.35 582.062 238.54 582.062C237.74 582.062 237.068 582.339 236.524 582.894C235.98 583.438 235.708 584.115 235.708 584.926C235.708 585.726 235.98 586.408 236.524 586.974C237.068 587.518 237.74 587.79 238.54 587.79ZM252.169 587.198L254.473 580.926H255.961L252.697 589.422C252.345 590.328 251.859 591.016 251.241 591.486C250.633 591.966 249.934 592.179 249.145 592.126V590.83C250.126 590.904 250.846 590.36 251.305 589.198L251.449 588.894L247.961 580.926H249.449L252.169 587.198ZM264.49 585.566H257.786C257.925 586.27 258.25 586.824 258.762 587.23C259.274 587.624 259.914 587.822 260.682 587.822C261.738 587.822 262.506 587.432 262.986 586.654L264.17 587.326C263.381 588.531 262.208 589.134 260.65 589.134C259.392 589.134 258.357 588.739 257.546 587.95C256.757 587.139 256.362 586.131 256.362 584.926C256.362 583.71 256.752 582.707 257.53 581.918C258.309 581.118 259.317 580.718 260.554 580.718C261.728 580.718 262.682 581.134 263.418 581.966C264.165 582.776 264.538 583.768 264.538 584.942C264.538 585.144 264.522 585.352 264.49 585.566ZM260.554 582.03C259.818 582.03 259.2 582.238 258.698 582.654C258.208 583.07 257.904 583.635 257.786 584.35H263.13C263.013 583.614 262.72 583.043 262.25 582.638C261.781 582.232 261.216 582.03 260.554 582.03ZM270.256 580.926V582.27H268.128V586.606C268.128 587 268.203 587.283 268.352 587.454C268.512 587.614 268.752 587.699 269.072 587.71C269.392 587.71 269.787 587.699 270.256 587.678V588.926C269.029 589.086 268.133 588.984 267.568 588.622C267.013 588.259 266.736 587.587 266.736 586.606V582.27H265.152V580.926H266.736V579.102L268.128 578.686V580.926H270.256ZM281.603 584.686H271.923V583.342H281.603V584.686ZM288.037 580.926V582.27H285.909V586.606C285.909 587 285.984 587.283 286.133 587.454C286.293 587.614 286.533 587.699 286.853 587.71C287.173 587.71 287.568 587.699 288.037 587.678V588.926C286.811 589.086 285.915 588.984 285.349 588.622C284.795 588.259 284.517 587.587 284.517 586.606V582.27H282.933V580.926H284.517V579.102L285.909 578.686V580.926H288.037ZM291.124 580.926V582.27C291.583 581.278 292.415 580.782 293.62 580.782V582.238C292.938 582.206 292.351 582.387 291.86 582.782C291.37 583.176 291.124 583.811 291.124 584.686V588.926H289.732V580.926H291.124ZM301.169 582.302V580.926H302.561V588.926H301.169V587.55C300.486 588.606 299.478 589.134 298.145 589.134C297.014 589.134 296.059 588.728 295.281 587.918C294.491 587.096 294.097 586.099 294.097 584.926C294.097 583.763 294.491 582.771 295.281 581.95C296.07 581.128 297.025 580.718 298.145 580.718C299.478 580.718 300.486 581.246 301.169 582.302ZM298.321 587.79C299.131 587.79 299.809 587.518 300.353 586.974C300.897 586.408 301.169 585.726 301.169 584.926C301.169 584.115 300.897 583.438 300.353 582.894C299.809 582.339 299.131 582.062 298.321 582.062C297.521 582.062 296.849 582.339 296.305 582.894C295.761 583.438 295.489 584.115 295.489 584.926C295.489 585.726 295.761 586.408 296.305 586.974C296.849 587.518 297.521 587.79 298.321 587.79ZM308.43 589.134C307.224 589.134 306.222 588.734 305.422 587.934C304.622 587.123 304.222 586.12 304.222 584.926C304.222 583.731 304.622 582.734 305.422 581.934C306.222 581.123 307.224 580.718 308.43 580.718C309.219 580.718 309.928 580.91 310.558 581.294C311.187 581.667 311.656 582.174 311.966 582.814L310.798 583.486C310.595 583.059 310.28 582.718 309.854 582.462C309.438 582.206 308.963 582.078 308.43 582.078C307.63 582.078 306.958 582.35 306.414 582.894C305.88 583.448 305.614 584.126 305.614 584.926C305.614 585.715 305.88 586.387 306.414 586.942C306.958 587.486 307.63 587.758 308.43 587.758C308.963 587.758 309.443 587.635 309.87 587.39C310.296 587.134 310.622 586.792 310.846 586.366L312.03 587.054C311.678 587.694 311.182 588.2 310.542 588.574C309.902 588.947 309.198 589.134 308.43 589.134ZM316.22 584.798L320.172 588.926H318.444L314.796 585.134V588.926H313.404V577.726H314.796V584.462L318.252 580.926H320.044L316.22 584.798ZM332.091 582.302V580.926H333.483V588.926H332.091V587.55C331.408 588.606 330.4 589.134 329.067 589.134C327.936 589.134 326.981 588.728 326.203 587.918C325.413 587.096 325.019 586.099 325.019 584.926C325.019 583.763 325.413 582.771 326.203 581.95C326.992 581.128 327.947 580.718 329.067 580.718C330.4 580.718 331.408 581.246 332.091 582.302ZM329.243 587.79C330.053 587.79 330.731 587.518 331.275 586.974C331.819 586.408 332.091 585.726 332.091 584.926C332.091 584.115 331.819 583.438 331.275 582.894C330.731 582.339 330.053 582.062 329.243 582.062C328.443 582.062 327.771 582.339 327.227 582.894C326.683 583.438 326.411 584.115 326.411 584.926C326.411 585.726 326.683 586.408 327.227 586.974C327.771 587.518 328.443 587.79 329.243 587.79ZM339.576 580.718C340.514 580.718 341.266 581.016 341.832 581.614C342.397 582.2 342.68 583 342.68 584.014V588.926H341.288V584.094C341.288 583.454 341.112 582.952 340.76 582.59C340.408 582.227 339.922 582.046 339.304 582.046C338.589 582.046 338.024 582.27 337.608 582.718C337.192 583.155 336.984 583.811 336.984 584.686V588.926H335.592V580.926H336.984V582.078C337.538 581.171 338.402 580.718 339.576 580.718ZM351.247 582.302V577.726H352.639V588.926H351.247V587.55C350.564 588.606 349.556 589.134 348.223 589.134C347.092 589.134 346.138 588.728 345.359 587.918C344.57 587.096 344.175 586.099 344.175 584.926C344.175 583.763 344.57 582.771 345.359 581.95C346.148 581.128 347.103 580.718 348.223 580.718C349.556 580.718 350.564 581.246 351.247 582.302ZM348.399 587.79C349.21 587.79 349.887 587.518 350.431 586.974C350.975 586.408 351.247 585.726 351.247 584.926C351.247 584.115 350.975 583.438 350.431 582.894C349.887 582.339 349.21 582.062 348.399 582.062C347.599 582.062 346.927 582.339 346.383 582.894C345.839 583.438 345.567 584.115 345.567 584.926C345.567 585.726 345.839 586.408 346.383 586.974C346.927 587.518 347.599 587.79 348.399 587.79ZM367.388 580.718C368.295 580.718 369.02 581.011 369.564 581.598C370.119 582.184 370.396 582.968 370.396 583.95V588.926H369.004V583.998C369.004 583.39 368.844 582.915 368.524 582.574C368.215 582.222 367.788 582.046 367.244 582.046C366.625 582.046 366.14 582.254 365.788 582.67C365.447 583.075 365.276 583.678 365.276 584.478V588.926H363.884V583.998C363.884 583.39 363.729 582.915 363.42 582.574C363.121 582.222 362.711 582.046 362.188 582.046C361.58 582.046 361.084 582.259 360.7 582.686C360.327 583.102 360.14 583.699 360.14 584.478V588.926H358.748V580.926H360.14V581.998C360.684 581.144 361.479 580.718 362.524 580.718C363.601 580.718 364.385 581.171 364.876 582.078C365.431 581.171 366.268 580.718 367.388 580.718ZM378.95 582.302V580.926H380.342V588.926H378.95V587.55C378.267 588.606 377.259 589.134 375.926 589.134C374.795 589.134 373.841 588.728 373.062 587.918C372.273 587.096 371.878 586.099 371.878 584.926C371.878 583.763 372.273 582.771 373.062 581.95C373.851 581.128 374.806 580.718 375.926 580.718C377.259 580.718 378.267 581.246 378.95 582.302ZM376.102 587.79C376.913 587.79 377.59 587.518 378.134 586.974C378.678 586.408 378.95 585.726 378.95 584.926C378.95 584.115 378.678 583.438 378.134 582.894C377.59 582.339 376.913 582.062 376.102 582.062C375.302 582.062 374.63 582.339 374.086 582.894C373.542 583.438 373.27 584.115 373.27 584.926C373.27 585.726 373.542 586.408 374.086 586.974C374.63 587.518 375.302 587.79 376.102 587.79ZM386.435 580.718C387.374 580.718 388.126 581.016 388.691 581.614C389.256 582.2 389.539 583 389.539 584.014V588.926H388.147V584.094C388.147 583.454 387.971 582.952 387.619 582.59C387.267 582.227 386.782 582.046 386.163 582.046C385.448 582.046 384.883 582.27 384.467 582.718C384.051 583.155 383.843 583.811 383.843 584.686V588.926H382.451V580.926H383.843V582.078C384.398 581.171 385.262 580.718 386.435 580.718ZM398.106 582.302V580.926H399.498V588.926H398.106V587.55C397.424 588.606 396.416 589.134 395.082 589.134C393.952 589.134 392.997 588.728 392.218 587.918C391.429 587.096 391.034 586.099 391.034 584.926C391.034 583.763 391.429 582.771 392.218 581.95C393.008 581.128 393.962 580.718 395.082 580.718C396.416 580.718 397.424 581.246 398.106 582.302ZM395.258 587.79C396.069 587.79 396.746 587.518 397.29 586.974C397.834 586.408 398.106 585.726 398.106 584.926C398.106 584.115 397.834 583.438 397.29 582.894C396.746 582.339 396.069 582.062 395.258 582.062C394.458 582.062 393.786 582.339 393.242 582.894C392.698 583.438 392.426 584.115 392.426 584.926C392.426 585.726 392.698 586.408 393.242 586.974C393.786 587.518 394.458 587.79 395.258 587.79ZM408.247 582.302V580.926H409.623V588.59C409.623 589.774 409.223 590.691 408.423 591.342C407.613 592.003 406.653 592.334 405.543 592.334C404.647 592.334 403.874 592.163 403.223 591.822C402.573 591.491 402.082 591.011 401.751 590.382L402.967 589.694C403.405 590.59 404.274 591.038 405.575 591.038C406.407 591.038 407.058 590.819 407.527 590.382C408.007 589.944 408.247 589.347 408.247 588.59V587.454C407.543 588.52 406.541 589.054 405.239 589.054C404.087 589.054 403.122 588.648 402.343 587.838C401.554 587.016 401.159 586.03 401.159 584.878C401.159 583.726 401.554 582.744 402.343 581.934C403.122 581.123 404.087 580.718 405.239 580.718C406.551 580.718 407.554 581.246 408.247 582.302ZM408.247 584.878C408.247 584.078 407.975 583.406 407.431 582.862C406.887 582.318 406.21 582.046 405.399 582.046C404.589 582.046 403.911 582.318 403.367 582.862C402.823 583.406 402.551 584.078 402.551 584.878C402.551 585.688 402.823 586.366 403.367 586.91C403.911 587.454 404.589 587.726 405.399 587.726C406.21 587.726 406.887 587.454 407.431 586.91C407.975 586.366 408.247 585.688 408.247 584.878ZM419.412 585.566H412.708C412.847 586.27 413.172 586.824 413.684 587.23C414.196 587.624 414.836 587.822 415.604 587.822C416.66 587.822 417.428 587.432 417.908 586.654L419.092 587.326C418.303 588.531 417.13 589.134 415.572 589.134C414.314 589.134 413.279 588.739 412.468 587.95C411.679 587.139 411.284 586.131 411.284 584.926C411.284 583.71 411.674 582.707 412.452 581.918C413.231 581.118 414.239 580.718 415.476 580.718C416.65 580.718 417.604 581.134 418.34 581.966C419.087 582.776 419.46 583.768 419.46 584.942C419.46 585.144 419.444 585.352 419.412 585.566ZM415.476 582.03C414.74 582.03 414.122 582.238 413.62 582.654C413.13 583.07 412.826 583.635 412.708 584.35H418.052C417.935 583.614 417.642 583.043 417.172 582.638C416.703 582.232 416.138 582.03 415.476 582.03ZM431.684 582.302V580.926H433.076V588.926H431.684V587.55C431.002 588.606 429.994 589.134 428.66 589.134C427.53 589.134 426.575 588.728 425.796 587.918C425.007 587.096 424.612 586.099 424.612 584.926C424.612 583.763 425.007 582.771 425.796 581.95C426.586 581.128 427.54 580.718 428.66 580.718C429.994 580.718 431.002 581.246 431.684 582.302ZM428.836 587.79C429.647 587.79 430.324 587.518 430.868 586.974C431.412 586.408 431.684 585.726 431.684 584.926C431.684 584.115 431.412 583.438 430.868 582.894C430.324 582.339 429.647 582.062 428.836 582.062C428.036 582.062 427.364 582.339 426.82 582.894C426.276 583.438 426.004 584.115 426.004 584.926C426.004 585.726 426.276 586.408 426.82 586.974C427.364 587.518 428.036 587.79 428.836 587.79ZM439.169 580.718C440.108 580.718 440.86 581.016 441.425 581.614C441.991 582.2 442.273 583 442.273 584.014V588.926H440.881V584.094C440.881 583.454 440.705 582.952 440.353 582.59C440.001 582.227 439.516 582.046 438.897 582.046C438.183 582.046 437.617 582.27 437.201 582.718C436.785 583.155 436.577 583.811 436.577 584.686V588.926H435.185V580.926H436.577V582.078C437.132 581.171 437.996 580.718 439.169 580.718ZM447.325 587.198L449.629 580.926H451.117L447.853 589.422C447.501 590.328 447.015 591.016 446.397 591.486C445.789 591.966 445.09 592.179 444.301 592.126V590.83C445.282 590.904 446.002 590.36 446.461 589.198L446.605 588.894L443.117 580.926H444.605L447.325 587.198ZM150.047 599.718C151.167 599.718 152.121 600.128 152.911 600.95C153.7 601.771 154.095 602.763 154.095 603.926C154.095 605.099 153.7 606.096 152.911 606.918C152.132 607.728 151.177 608.134 150.047 608.134C148.724 608.134 147.716 607.606 147.023 606.55V611.126H145.631V599.926H147.023V601.302C147.716 600.246 148.724 599.718 150.047 599.718ZM149.871 606.79C150.671 606.79 151.343 606.518 151.887 605.974C152.431 605.408 152.703 604.726 152.703 603.926C152.703 603.115 152.431 602.438 151.887 601.894C151.343 601.339 150.671 601.062 149.871 601.062C149.06 601.062 148.383 601.339 147.839 601.894C147.295 602.438 147.023 603.115 147.023 603.926C147.023 604.726 147.295 605.408 147.839 605.974C148.383 606.518 149.06 606.79 149.871 606.79ZM157.148 599.926V601.27C157.606 600.278 158.438 599.782 159.644 599.782V601.238C158.961 601.206 158.374 601.387 157.884 601.782C157.393 602.176 157.148 602.811 157.148 603.686V607.926H155.756V599.926H157.148ZM167.32 606.918C166.51 607.728 165.512 608.134 164.328 608.134C163.144 608.134 162.147 607.728 161.336 606.918C160.526 606.107 160.12 605.11 160.12 603.926C160.12 602.742 160.526 601.744 161.336 600.934C162.147 600.123 163.144 599.718 164.328 599.718C165.512 599.718 166.51 600.123 167.32 600.934C168.142 601.755 168.552 602.752 168.552 603.926C168.552 605.099 168.142 606.096 167.32 606.918ZM164.328 606.774C165.128 606.774 165.8 606.502 166.344 605.958C166.888 605.414 167.16 604.736 167.16 603.926C167.16 603.115 166.888 602.438 166.344 601.894C165.8 601.35 165.128 601.078 164.328 601.078C163.539 601.078 162.872 601.35 162.328 601.894C161.784 602.438 161.512 603.115 161.512 603.926C161.512 604.736 161.784 605.414 162.328 605.958C162.872 606.502 163.539 606.774 164.328 606.774ZM174.609 599.718C175.729 599.718 176.684 600.128 177.473 600.95C178.263 601.771 178.657 602.763 178.657 603.926C178.657 605.099 178.263 606.096 177.473 606.918C176.695 607.728 175.74 608.134 174.609 608.134C173.287 608.134 172.279 607.606 171.585 606.55V607.926H170.193V596.726H171.585V601.302C172.279 600.246 173.287 599.718 174.609 599.718ZM174.433 606.79C175.233 606.79 175.905 606.518 176.449 605.974C176.993 605.408 177.265 604.726 177.265 603.926C177.265 603.115 176.993 602.438 176.449 601.894C175.905 601.339 175.233 601.062 174.433 601.062C173.623 601.062 172.945 601.339 172.401 601.894C171.857 602.438 171.585 603.115 171.585 603.926C171.585 604.726 171.857 605.408 172.401 605.974C172.945 606.518 173.623 606.79 174.433 606.79ZM181.71 607.926H180.318V596.246H181.71V607.926ZM191.514 604.566H184.81C184.948 605.27 185.274 605.824 185.786 606.23C186.298 606.624 186.938 606.822 187.706 606.822C188.762 606.822 189.53 606.432 190.01 605.654L191.194 606.326C190.404 607.531 189.231 608.134 187.674 608.134C186.415 608.134 185.38 607.739 184.57 606.95C183.78 606.139 183.386 605.131 183.386 603.926C183.386 602.71 183.775 601.707 184.554 600.918C185.332 600.118 186.34 599.718 187.578 599.718C188.751 599.718 189.706 600.134 190.442 600.966C191.188 601.776 191.562 602.768 191.562 603.942C191.562 604.144 191.546 604.352 191.514 604.566ZM187.578 601.03C186.842 601.03 186.223 601.238 185.722 601.654C185.231 602.07 184.927 602.635 184.81 603.35H190.154C190.036 602.614 189.743 602.043 189.274 601.638C188.804 601.232 188.239 601.03 187.578 601.03ZM201.802 599.718C202.709 599.718 203.434 600.011 203.978 600.598C204.533 601.184 204.81 601.968 204.81 602.95V607.926H203.418V602.998C203.418 602.39 203.258 601.915 202.938 601.574C202.629 601.222 202.202 601.046 201.658 601.046C201.039 601.046 200.554 601.254 200.202 601.67C199.861 602.075 199.69 602.678 199.69 603.478V607.926H198.298V602.998C198.298 602.39 198.143 601.915 197.834 601.574C197.535 601.222 197.125 601.046 196.602 601.046C195.994 601.046 195.498 601.259 195.114 601.686C194.741 602.102 194.554 602.699 194.554 603.478V607.926H193.162V599.926H194.554V600.998C195.098 600.144 195.893 599.718 196.938 599.718C198.015 599.718 198.799 600.171 199.29 601.078C199.845 600.171 200.682 599.718 201.802 599.718ZM207.94 602.086C207.94 602.598 208.468 602.998 209.524 603.286C209.919 603.371 210.249 603.462 210.516 603.558C210.793 603.643 211.092 603.776 211.412 603.958C211.743 604.139 211.993 604.379 212.164 604.678C212.335 604.976 212.42 605.328 212.42 605.734C212.42 606.459 212.137 607.04 211.572 607.478C211.007 607.915 210.292 608.134 209.428 608.134C208.66 608.134 207.993 607.968 207.428 607.638C206.873 607.296 206.479 606.838 206.244 606.262L207.444 605.574C207.572 605.958 207.812 606.262 208.164 606.486C208.516 606.71 208.937 606.822 209.428 606.822C209.908 606.822 210.292 606.731 210.58 606.55C210.868 606.368 211.012 606.096 211.012 605.734C211.012 605.19 210.484 604.795 209.428 604.55C209.076 604.454 208.809 604.379 208.628 604.326C208.447 604.272 208.196 604.176 207.876 604.038C207.567 603.899 207.332 603.755 207.172 603.606C207.012 603.446 206.863 603.238 206.724 602.982C206.596 602.715 206.532 602.422 206.532 602.102C206.532 601.408 206.799 600.838 207.332 600.39C207.876 599.942 208.553 599.718 209.364 599.718C210.015 599.718 210.591 599.867 211.092 600.166C211.604 600.454 211.988 600.859 212.244 601.382L211.076 602.038C210.788 601.355 210.217 601.014 209.364 601.014C208.959 601.014 208.617 601.11 208.34 601.302C208.073 601.494 207.94 601.755 207.94 602.086ZM219.46 599.926V601.27C219.919 600.278 220.751 599.782 221.956 599.782V601.238C221.274 601.206 220.687 601.387 220.196 601.782C219.706 602.176 219.46 602.811 219.46 603.686V607.926H218.068V599.926H219.46ZM230.561 604.566H223.857C223.995 605.27 224.321 605.824 224.833 606.23C225.345 606.624 225.985 606.822 226.753 606.822C227.809 606.822 228.577 606.432 229.057 605.654L230.241 606.326C229.451 607.531 228.278 608.134 226.721 608.134C225.462 608.134 224.427 607.739 223.617 606.95C222.827 606.139 222.433 605.131 222.433 603.926C222.433 602.71 222.822 601.707 223.601 600.918C224.379 600.118 225.387 599.718 226.625 599.718C227.798 599.718 228.753 600.134 229.489 600.966C230.235 601.776 230.609 602.768 230.609 603.942C230.609 604.144 230.593 604.352 230.561 604.566ZM226.625 601.03C225.889 601.03 225.27 601.238 224.769 601.654C224.278 602.07 223.974 602.635 223.857 603.35H229.201C229.083 602.614 228.79 602.043 228.321 601.638C227.851 601.232 227.286 601.03 226.625 601.03ZM233.601 607.926H232.209V596.246H233.601V607.926ZM242.348 601.302V599.926H243.74V607.926H242.348V606.55C241.666 607.606 240.658 608.134 239.324 608.134C238.194 608.134 237.239 607.728 236.46 606.918C235.671 606.096 235.276 605.099 235.276 603.926C235.276 602.763 235.671 601.771 236.46 600.95C237.25 600.128 238.204 599.718 239.324 599.718C240.658 599.718 241.666 600.246 242.348 601.302ZM239.5 606.79C240.311 606.79 240.988 606.518 241.532 605.974C242.076 605.408 242.348 604.726 242.348 603.926C242.348 603.115 242.076 602.438 241.532 601.894C240.988 601.339 240.311 601.062 239.5 601.062C238.7 601.062 238.028 601.339 237.484 601.894C236.94 602.438 236.668 603.115 236.668 603.926C236.668 604.726 236.94 605.408 237.484 605.974C238.028 606.518 238.7 606.79 239.5 606.79ZM250.201 599.926V601.27H248.073V605.606C248.073 606 248.148 606.283 248.297 606.454C248.457 606.614 248.697 606.699 249.017 606.71C249.337 606.71 249.732 606.699 250.201 606.678V607.926C248.975 608.086 248.079 607.984 247.513 607.622C246.959 607.259 246.681 606.587 246.681 605.606V601.27H245.097V599.926H246.681V598.102L248.073 597.686V599.926H250.201ZM259.123 604.566H252.419C252.558 605.27 252.883 605.824 253.395 606.23C253.907 606.624 254.547 606.822 255.315 606.822C256.371 606.822 257.139 606.432 257.619 605.654L258.803 606.326C258.014 607.531 256.841 608.134 255.283 608.134C254.025 608.134 252.99 607.739 252.179 606.95C251.39 606.139 250.995 605.131 250.995 603.926C250.995 602.71 251.385 601.707 252.163 600.918C252.942 600.118 253.95 599.718 255.187 599.718C256.361 599.718 257.315 600.134 258.051 600.966C258.798 601.776 259.171 602.768 259.171 603.942C259.171 604.144 259.155 604.352 259.123 604.566ZM255.187 601.03C254.451 601.03 253.833 601.238 253.331 601.654C252.841 602.07 252.537 602.635 252.419 603.35H257.763C257.646 602.614 257.353 602.043 256.883 601.638C256.414 601.232 255.849 601.03 255.187 601.03ZM267.38 601.302V596.726H268.772V607.926H267.38V606.55C266.697 607.606 265.689 608.134 264.356 608.134C263.225 608.134 262.27 607.728 261.492 606.918C260.702 606.096 260.308 605.099 260.308 603.926C260.308 602.763 260.702 601.771 261.492 600.95C262.281 600.128 263.236 599.718 264.356 599.718C265.689 599.718 266.697 600.246 267.38 601.302ZM264.532 606.79C265.342 606.79 266.02 606.518 266.564 605.974C267.108 605.408 267.38 604.726 267.38 603.926C267.38 603.115 267.108 602.438 266.564 601.894C266.02 601.339 265.342 601.062 264.532 601.062C263.732 601.062 263.06 601.339 262.516 601.894C261.972 602.438 261.7 603.115 261.7 603.926C261.7 604.726 261.972 605.408 262.516 605.974C263.06 606.518 263.732 606.79 264.532 606.79ZM279.233 599.926V601.27H277.105V605.606C277.105 606 277.179 606.283 277.329 606.454C277.489 606.614 277.729 606.699 278.049 606.71C278.369 606.71 278.763 606.699 279.233 606.678V607.926C278.006 608.086 277.11 607.984 276.545 607.622C275.99 607.259 275.713 606.587 275.713 605.606V601.27H274.129V599.926H275.713V598.102L277.105 597.686V599.926H279.233ZM287.226 606.918C286.416 607.728 285.418 608.134 284.234 608.134C283.05 608.134 282.053 607.728 281.242 606.918C280.432 606.107 280.026 605.11 280.026 603.926C280.026 602.742 280.432 601.744 281.242 600.934C282.053 600.123 283.05 599.718 284.234 599.718C285.418 599.718 286.416 600.123 287.226 600.934C288.048 601.755 288.458 602.752 288.458 603.926C288.458 605.099 288.048 606.096 287.226 606.918ZM284.234 606.774C285.034 606.774 285.706 606.502 286.25 605.958C286.794 605.414 287.066 604.736 287.066 603.926C287.066 603.115 286.794 602.438 286.25 601.894C285.706 601.35 285.034 601.078 284.234 601.078C283.445 601.078 282.778 601.35 282.234 601.894C281.69 602.438 281.418 603.115 281.418 603.926C281.418 604.736 281.69 605.414 282.234 605.958C282.778 606.502 283.445 606.774 284.234 606.774ZM297.379 606.198L299.683 599.926H301.171L297.907 608.422C297.555 609.328 297.07 610.016 296.451 610.486C295.843 610.966 295.145 611.179 294.355 611.126V609.83C295.337 609.904 296.057 609.36 296.515 608.198L296.659 607.894L293.171 599.926H294.659L297.379 606.198ZM308.773 606.918C307.963 607.728 306.965 608.134 305.781 608.134C304.597 608.134 303.6 607.728 302.789 606.918C301.979 606.107 301.573 605.11 301.573 603.926C301.573 602.742 301.979 601.744 302.789 600.934C303.6 600.123 304.597 599.718 305.781 599.718C306.965 599.718 307.963 600.123 308.773 600.934C309.595 601.755 310.005 602.752 310.005 603.926C310.005 605.099 309.595 606.096 308.773 606.918ZM305.781 606.774C306.581 606.774 307.253 606.502 307.797 605.958C308.341 605.414 308.613 604.736 308.613 603.926C308.613 603.115 308.341 602.438 307.797 601.894C307.253 601.35 306.581 601.078 305.781 601.078C304.992 601.078 304.325 601.35 303.781 601.894C303.237 602.438 302.965 603.115 302.965 603.926C302.965 604.736 303.237 605.414 303.781 605.958C304.325 606.502 304.992 606.774 305.781 606.774ZM317.166 604.166V599.926H318.558V607.926H317.166V606.774C316.612 607.68 315.748 608.134 314.574 608.134C313.636 608.134 312.884 607.84 312.318 607.254C311.753 606.656 311.47 605.851 311.47 604.838V599.926H312.862V604.758C312.862 605.398 313.038 605.899 313.39 606.262C313.742 606.624 314.228 606.806 314.846 606.806C315.561 606.806 316.126 606.587 316.542 606.15C316.958 605.702 317.166 605.04 317.166 604.166ZM322.07 599.926V601.27C322.528 600.278 323.36 599.782 324.566 599.782V601.238C323.883 601.206 323.296 601.387 322.806 601.782C322.315 602.176 322.07 602.811 322.07 603.686V607.926H320.678V599.926H322.07ZM336.552 601.302V599.926H337.944V607.926H336.552V606.55C335.869 607.606 334.861 608.134 333.528 608.134C332.397 608.134 331.442 607.728 330.664 606.918C329.874 606.096 329.48 605.099 329.48 603.926C329.48 602.763 329.874 601.771 330.664 600.95C331.453 600.128 332.408 599.718 333.528 599.718C334.861 599.718 335.869 600.246 336.552 601.302ZM333.704 606.79C334.514 606.79 335.192 606.518 335.736 605.974C336.28 605.408 336.552 604.726 336.552 603.926C336.552 603.115 336.28 602.438 335.736 601.894C335.192 601.339 334.514 601.062 333.704 601.062C332.904 601.062 332.232 601.339 331.688 601.894C331.144 602.438 330.872 603.115 330.872 603.926C330.872 604.726 331.144 605.408 331.688 605.974C332.232 606.518 332.904 606.79 333.704 606.79ZM341.237 602.086C341.237 602.598 341.765 602.998 342.821 603.286C343.216 603.371 343.546 603.462 343.813 603.558C344.09 603.643 344.389 603.776 344.709 603.958C345.04 604.139 345.29 604.379 345.461 604.678C345.632 604.976 345.717 605.328 345.717 605.734C345.717 606.459 345.434 607.04 344.869 607.478C344.304 607.915 343.589 608.134 342.725 608.134C341.957 608.134 341.29 607.968 340.725 607.638C340.17 607.296 339.776 606.838 339.541 606.262L340.741 605.574C340.869 605.958 341.109 606.262 341.461 606.486C341.813 606.71 342.234 606.822 342.725 606.822C343.205 606.822 343.589 606.731 343.877 606.55C344.165 606.368 344.309 606.096 344.309 605.734C344.309 605.19 343.781 604.795 342.725 604.55C342.373 604.454 342.106 604.379 341.925 604.326C341.744 604.272 341.493 604.176 341.173 604.038C340.864 603.899 340.629 603.755 340.469 603.606C340.309 603.446 340.16 603.238 340.021 602.982C339.893 602.715 339.829 602.422 339.829 602.102C339.829 601.408 340.096 600.838 340.629 600.39C341.173 599.942 341.85 599.718 342.661 599.718C343.312 599.718 343.888 599.867 344.389 600.166C344.901 600.454 345.285 600.859 345.541 601.382L344.373 602.038C344.085 601.355 343.514 601.014 342.661 601.014C342.256 601.014 341.914 601.11 341.637 601.302C341.37 601.494 341.237 601.755 341.237 602.086ZM348.065 602.086C348.065 602.598 348.593 602.998 349.649 603.286C350.044 603.371 350.374 603.462 350.641 603.558C350.918 603.643 351.217 603.776 351.537 603.958C351.868 604.139 352.118 604.379 352.289 604.678C352.46 604.976 352.545 605.328 352.545 605.734C352.545 606.459 352.262 607.04 351.697 607.478C351.132 607.915 350.417 608.134 349.553 608.134C348.785 608.134 348.118 607.968 347.553 607.638C346.998 607.296 346.604 606.838 346.369 606.262L347.569 605.574C347.697 605.958 347.937 606.262 348.289 606.486C348.641 606.71 349.062 606.822 349.553 606.822C350.033 606.822 350.417 606.731 350.705 606.55C350.993 606.368 351.137 606.096 351.137 605.734C351.137 605.19 350.609 604.795 349.553 604.55C349.201 604.454 348.934 604.379 348.753 604.326C348.572 604.272 348.321 604.176 348.001 604.038C347.692 603.899 347.457 603.755 347.297 603.606C347.137 603.446 346.988 603.238 346.849 602.982C346.721 602.715 346.657 602.422 346.657 602.102C346.657 601.408 346.924 600.838 347.457 600.39C348.001 599.942 348.678 599.718 349.489 599.718C350.14 599.718 350.716 599.867 351.217 600.166C351.729 600.454 352.113 600.859 352.369 601.382L351.201 602.038C350.913 601.355 350.342 601.014 349.489 601.014C349.084 601.014 348.742 601.11 348.465 601.302C348.198 601.494 348.065 601.755 348.065 602.086ZM361.654 604.566H354.95C355.089 605.27 355.414 605.824 355.926 606.23C356.438 606.624 357.078 606.822 357.846 606.822C358.902 606.822 359.67 606.432 360.15 605.654L361.334 606.326C360.545 607.531 359.372 608.134 357.814 608.134C356.556 608.134 355.521 607.739 354.71 606.95C353.921 606.139 353.526 605.131 353.526 603.926C353.526 602.71 353.916 601.707 354.694 600.918C355.473 600.118 356.481 599.718 357.718 599.718C358.892 599.718 359.846 600.134 360.582 600.966C361.329 601.776 361.702 602.768 361.702 603.942C361.702 604.144 361.686 604.352 361.654 604.566ZM357.718 601.03C356.982 601.03 356.364 601.238 355.862 601.654C355.372 602.07 355.068 602.635 354.95 603.35H360.294C360.177 602.614 359.884 602.043 359.414 601.638C358.945 601.232 358.38 601.03 357.718 601.03ZM367.42 599.926V601.27H365.292V605.606C365.292 606 365.367 606.283 365.516 606.454C365.676 606.614 365.916 606.699 366.236 606.71C366.556 606.71 366.951 606.699 367.42 606.678V607.926C366.194 608.086 365.298 607.984 364.732 607.622C364.178 607.259 363.9 606.587 363.9 605.606V601.27H362.316V599.926H363.9V598.102L365.292 597.686V599.926H367.42ZM369.878 602.086C369.878 602.598 370.406 602.998 371.462 603.286C371.856 603.371 372.187 603.462 372.454 603.558C372.731 603.643 373.03 603.776 373.35 603.958C373.68 604.139 373.931 604.379 374.102 604.678C374.272 604.976 374.358 605.328 374.358 605.734C374.358 606.459 374.075 607.04 373.51 607.478C372.944 607.915 372.23 608.134 371.366 608.134C370.598 608.134 369.931 607.968 369.366 607.638C368.811 607.296 368.416 606.838 368.182 606.262L369.382 605.574C369.51 605.958 369.75 606.262 370.102 606.486C370.454 606.71 370.875 606.822 371.366 606.822C371.846 606.822 372.23 606.731 372.518 606.55C372.806 606.368 372.95 606.096 372.95 605.734C372.95 605.19 372.422 604.795 371.366 604.55C371.014 604.454 370.747 604.379 370.566 604.326C370.384 604.272 370.134 604.176 369.814 604.038C369.504 603.899 369.27 603.755 369.11 603.606C368.95 603.446 368.8 603.238 368.662 602.982C368.534 602.715 368.47 602.422 368.47 602.102C368.47 601.408 368.736 600.838 369.27 600.39C369.814 599.942 370.491 599.718 371.302 599.718C371.952 599.718 372.528 599.867 373.03 600.166C373.542 600.454 373.926 600.859 374.182 601.382L373.014 602.038C372.726 601.355 372.155 601.014 371.302 601.014C370.896 601.014 370.555 601.11 370.278 601.302C370.011 601.494 369.878 601.755 369.878 602.086ZM383.99 599.718C384.928 599.718 385.68 600.016 386.246 600.614C386.811 601.2 387.094 602 387.094 603.014V607.926H385.702V603.094C385.702 602.454 385.526 601.952 385.174 601.59C384.822 601.227 384.336 601.046 383.718 601.046C383.003 601.046 382.438 601.27 382.022 601.718C381.606 602.155 381.398 602.811 381.398 603.686V607.926H380.006V596.726H381.398V601.078C381.952 600.171 382.816 599.718 383.99 599.718ZM396.717 604.566H390.013C390.152 605.27 390.477 605.824 390.989 606.23C391.501 606.624 392.141 606.822 392.909 606.822C393.965 606.822 394.733 606.432 395.213 605.654L396.397 606.326C395.608 607.531 394.434 608.134 392.877 608.134C391.618 608.134 390.584 607.739 389.773 606.95C388.984 606.139 388.589 605.131 388.589 603.926C388.589 602.71 388.978 601.707 389.757 600.918C390.536 600.118 391.544 599.718 392.781 599.718C393.954 599.718 394.909 600.134 395.645 600.966C396.392 601.776 396.765 602.768 396.765 603.942C396.765 604.144 396.749 604.352 396.717 604.566ZM392.781 601.03C392.045 601.03 391.426 601.238 390.925 601.654C390.434 602.07 390.13 602.635 390.013 603.35H395.357C395.24 602.614 394.946 602.043 394.477 601.638C394.008 601.232 393.442 601.03 392.781 601.03ZM399.757 599.926V601.27C400.216 600.278 401.048 599.782 402.253 599.782V601.238C401.57 601.206 400.984 601.387 400.493 601.782C400.002 602.176 399.757 602.811 399.757 603.686V607.926H398.365V599.926H399.757ZM410.858 604.566H404.154C404.292 605.27 404.618 605.824 405.13 606.23C405.642 606.624 406.282 606.822 407.05 606.822C408.106 606.822 408.874 606.432 409.354 605.654L410.538 606.326C409.748 607.531 408.575 608.134 407.018 608.134C405.759 608.134 404.724 607.739 403.914 606.95C403.124 606.139 402.73 605.131 402.73 603.926C402.73 602.71 403.119 601.707 403.898 600.918C404.676 600.118 405.684 599.718 406.922 599.718C408.095 599.718 409.05 600.134 409.786 600.966C410.532 601.776 410.906 602.768 410.906 603.942C410.906 604.144 410.89 604.352 410.858 604.566ZM406.922 601.03C406.186 601.03 405.567 601.238 405.066 601.654C404.575 602.07 404.271 602.635 404.154 603.35H409.498C409.38 602.614 409.087 602.043 408.618 601.638C408.148 601.232 407.583 601.03 406.922 601.03ZM412.745 608.102C412.457 608.102 412.212 608 412.009 607.798C411.806 607.595 411.705 607.35 411.705 607.062C411.705 606.774 411.806 606.528 412.009 606.326C412.212 606.123 412.457 606.022 412.745 606.022C413.044 606.022 413.289 606.123 413.481 606.326C413.684 606.528 413.785 606.774 413.785 607.062C413.785 607.35 413.684 607.595 413.481 607.798C413.289 608 413.044 608.102 412.745 608.102Z" fill="#7F7F7F"/>
<path d="M270.367 245.123C271.098 242.786 271.18 240.413 270.614 238.004C270.048 235.594 268.889 233.495 267.137 231.706C265.786 230.319 264.198 229.288 262.373 228.612C260.547 227.937 258.667 227.672 256.732 227.818C256.148 227.855 255.683 228.074 255.336 228.475C254.989 228.877 254.807 229.343 254.788 229.872C254.77 230.401 254.962 230.885 255.363 231.323C256.02 231.944 257.17 232.902 258.813 234.198C260.456 235.494 261.588 236.452 262.208 237.073C262.829 237.693 263.13 238.414 263.112 239.236C263.094 240.057 262.792 240.76 262.208 241.344L257.882 245.67C257.298 246.254 256.586 246.555 255.747 246.574C254.907 246.592 254.213 246.309 253.666 245.725L247.861 238.88C247.423 238.478 246.939 238.278 246.41 238.278C245.881 238.278 245.415 238.451 245.014 238.798C244.612 239.145 244.393 239.61 244.356 240.194C244.174 242.385 244.53 244.493 245.424 246.519C246.319 248.545 247.633 250.243 249.367 251.612C251.101 252.981 253.063 253.866 255.254 254.267C257.444 254.669 259.58 254.541 261.661 253.884C261.989 253.775 262.309 253.765 262.619 253.857C262.929 253.948 263.176 254.121 263.358 254.377L276.61 271.407C277.632 272.503 278.846 273.251 280.252 273.652C281.657 274.054 283.072 274.072 284.496 273.707C285.919 273.342 287.142 272.639 288.164 271.599C289.187 270.559 289.88 269.336 290.245 267.93C290.61 266.525 290.592 265.11 290.191 263.686C289.789 262.262 289.041 261.058 287.945 260.072L270.915 246.82C270.66 246.638 270.486 246.391 270.395 246.081C270.304 245.771 270.294 245.451 270.367 245.123ZM284.167 267.629C283.802 268.03 283.355 268.277 282.825 268.368C282.296 268.459 281.776 268.405 281.265 268.204C280.754 268.003 280.352 267.684 280.06 267.246C279.768 266.807 279.622 266.315 279.622 265.767C279.622 265.219 279.768 264.717 280.06 264.261C280.352 263.805 280.754 263.476 281.265 263.275C281.776 263.075 282.296 263.029 282.825 263.139C283.355 263.248 283.802 263.485 284.167 263.85C284.678 264.362 284.934 264.991 284.934 265.74C284.934 266.488 284.678 267.118 284.167 267.629Z" fill="black"/>
<defs>
<linearGradient id="paint0_linear_3407_38966" x1="267.728" y1="102.175" x2="267.728" y2="399.514" gradientUnits="userSpaceOnUse">
<stop offset="0.605" stop-color="#EEEEEE"/>
<stop offset="1" stop-color="white"/>
</linearGradient>
<linearGradient id="paint1_linear_3407_38966" x1="267.729" y1="58.9559" x2="267.729" y2="442.733" gradientUnits="userSpaceOnUse">
<stop offset="0.605" stop-color="#EEEEEE"/>
<stop offset="1" stop-color="white"/>
</linearGradient>
<linearGradient id="paint2_linear_3407_38966" x1="267.729" y1="18.7627" x2="267.729" y2="482.926" gradientUnits="userSpaceOnUse">
<stop offset="0.605" stop-color="#EEEEEE"/>
<stop offset="1" stop-color="white"/>
</linearGradient>
<clipPath id="clip0_3407_38966">
<rect width="21.2499" height="21.2499" fill="white" transform="translate(414.715 134.168)"/>
</clipPath>
<clipPath id="clip1_3407_38966">
<rect width="16.8042" height="16.8042" fill="white" transform="translate(45.938 157.869)"/>
</clipPath>
<clipPath id="clip2_3407_38966">
<rect width="19.6283" height="19.6283" fill="white" transform="translate(495.185 234.685)"/>
</clipPath>
</defs>
</svg>
