<svg width="549" height="646" viewBox="0 0 549 646" fill="none" xmlns="http://www.w3.org/2000/svg">
<path d="M267.728 199.58C299.908 199.58 325.995 225.666 325.995 257.844C325.995 290.022 299.908 316.108 267.728 316.108C235.548 316.108 209.461 290.022 209.461 257.844C209.462 225.666 235.548 199.58 267.728 199.58Z" stroke="#EEEEEE" stroke-width="2"/>
<path d="M267.728 159.099C322.266 159.099 366.478 203.309 366.478 257.844C366.478 312.38 322.266 356.589 267.728 356.589C213.19 356.588 168.979 312.379 168.979 257.844C168.979 203.309 213.19 159.1 267.728 159.099Z" stroke="#EEEEEE" stroke-width="2"/>
<path d="M267.728 110.175C349.287 110.175 415.405 176.289 415.405 257.844C415.405 339.4 349.287 405.513 267.728 405.513C186.169 405.513 120.052 339.4 120.052 257.844C120.052 176.289 186.169 110.175 267.728 110.175Z" stroke="url(#paint0_linear_2155_1569)" stroke-width="2"/>
<path d="M267.729 66.9559C373.159 66.9562 458.626 152.42 458.626 257.845C458.626 363.269 373.159 448.732 267.729 448.732C162.3 448.732 76.8322 363.269 76.832 257.845C76.832 152.42 162.3 66.9559 267.729 66.9559Z" stroke="url(#paint1_linear_2155_1569)" stroke-width="2"/>
<path d="M267.729 26.7627C395.357 26.7627 498.821 130.221 498.821 257.844C498.821 385.466 395.358 488.926 267.729 488.926C140.1 488.926 36.6372 385.466 36.6372 257.844C36.6374 130.221 140.101 26.7628 267.729 26.7627Z" stroke="url(#paint2_linear_2155_1569)" stroke-width="2"/>
<rect x="81.6475" y="319.877" width="37.4049" height="37.7117" rx="7.73649" fill="#F1F1F1"/>
<path d="M92.3809 336.077C92.3809 333.573 92.3809 332.32 93.1589 331.542C93.9368 330.764 95.189 330.764 97.6933 330.764H103.006C105.51 330.764 106.762 330.764 107.54 331.542C108.318 332.32 108.318 333.573 108.318 336.077V340.504C108.318 342.174 108.318 343.008 107.8 343.527C107.281 344.046 106.446 344.046 104.777 344.046H95.9225C94.253 344.046 93.4182 344.046 92.8995 343.527C92.3809 343.008 92.3809 342.174 92.3809 340.504V336.077Z" stroke="#707072" stroke-width="1.32812"/>
<path d="M109.204 346.702H91.4961" stroke="#707072" stroke-width="1.32812" stroke-linecap="round"/>
<path d="M103.006 341.389H97.6938" stroke="#707072" stroke-width="1.32812" stroke-linecap="round"/>
<rect x="416.485" y="328.108" width="37.4049" height="37.7117" rx="7.73649" fill="#F1F1F1"/>
<path d="M437.843 353.162L439.614 354.933L443.156 351.391M436.073 338.995H431.823C430.831 338.995 430.335 338.995 429.956 339.188C429.623 339.358 429.352 339.629 429.182 339.962C428.989 340.341 428.989 340.837 428.989 341.829V352.1C428.989 353.091 428.989 353.587 429.182 353.966C429.352 354.299 429.623 354.57 429.956 354.74C430.335 354.933 430.831 354.933 431.823 354.933H435.187M436.073 338.995L441.385 344.308M436.073 338.995V342.891C436.073 343.387 436.073 343.635 436.169 343.825C436.254 343.991 436.389 344.127 436.556 344.211C436.745 344.308 436.993 344.308 437.489 344.308H441.385M441.385 344.308V348.292" stroke="#707072" stroke-width="1.77082" stroke-linecap="round" stroke-linejoin="round"/>
<rect x="167.979" y="179.724" width="37.4049" height="37.7117" rx="7.73649" fill="#F1F1F1"/>
<path d="M194.446 192.927C194.446 193.405 194.255 193.864 193.917 194.203C193.579 194.541 193.12 194.731 192.642 194.732H192.076V204.122C192.075 204.6 191.885 205.059 191.547 205.397C191.209 205.735 190.75 205.926 190.272 205.926H180.72C180.483 205.926 180.248 205.88 180.029 205.789C179.81 205.698 179.611 205.565 179.444 205.398C179.276 205.23 179.143 205.031 179.052 204.812C178.962 204.593 178.915 204.359 178.915 204.122C178.915 203.885 178.962 203.65 179.052 203.431C179.143 203.212 179.276 203.013 179.444 202.846C179.611 202.678 179.81 202.545 180.029 202.454C180.248 202.364 180.483 202.317 180.72 202.317H181.284V192.927C181.284 192.448 181.475 191.989 181.813 191.65C182.152 191.311 182.611 191.121 183.09 191.121H192.641C193.119 191.121 193.578 191.311 193.917 191.65C194.255 191.988 194.446 192.447 194.446 192.926V192.927ZM180.72 204.687H188.556C188.435 204.32 188.435 203.924 188.556 203.557H180.722C180.572 203.557 180.428 203.617 180.322 203.723C180.217 203.829 180.157 203.972 180.157 204.122C180.157 204.272 180.217 204.416 180.322 204.522C180.428 204.627 180.572 204.687 180.722 204.687H180.72ZM190.836 192.927C190.835 192.735 190.866 192.544 190.925 192.362H183.091C182.965 192.362 182.843 192.404 182.744 192.482L182.742 192.483C182.674 192.535 182.62 192.603 182.582 192.68C182.545 192.757 182.525 192.841 182.526 192.927V202.317H189.613C189.768 202.315 189.918 202.366 190.04 202.461C190.162 202.556 190.248 202.689 190.284 202.839C190.327 202.983 190.322 203.137 190.272 203.278C190.222 203.419 190.128 203.54 190.004 203.624C189.916 203.672 189.842 203.742 189.791 203.827C189.739 203.912 189.71 204.01 189.708 204.109C189.706 204.209 189.731 204.308 189.779 204.395C189.828 204.482 189.898 204.555 189.984 204.606C190.069 204.657 190.167 204.684 190.267 204.686C190.366 204.687 190.465 204.661 190.551 204.612C190.638 204.563 190.71 204.492 190.761 204.406C190.811 204.32 190.838 204.222 190.838 204.122L190.836 192.927ZM189.874 194.535H183.432V195.773H189.874V194.535ZM189.874 197.063H183.432V198.301H189.874V197.063ZM189.874 199.59H183.432V200.83H189.874V199.59ZM193.206 192.927C193.205 192.777 193.146 192.634 193.04 192.528C192.934 192.422 192.79 192.362 192.641 192.362C192.515 192.361 192.393 192.404 192.294 192.482H192.292C192.224 192.534 192.169 192.602 192.132 192.679C192.094 192.756 192.075 192.841 192.075 192.927V193.492H192.641C192.79 193.491 192.934 193.432 193.04 193.326C193.146 193.22 193.205 193.077 193.206 192.927Z" fill="#707072"/>
<rect x="406.637" y="132.938" width="37.4049" height="37.7117" rx="7.73649" fill="#F1F1F1"/>
<g clip-path="url(#clip0_2155_1569)">
<path d="M429.517 158.657L428.95 154.12C428.784 152.791 427.654 151.793 426.315 151.793H425.339H424.364C423.024 151.793 421.894 152.791 421.728 154.12L421.161 158.657C421.029 159.714 421.853 160.648 422.918 160.648H425.339H427.76C428.825 160.648 429.65 159.714 429.517 158.657Z" stroke="#707072" stroke-width="1.77082" stroke-linecap="round" stroke-linejoin="round"/>
<path d="M425.338 148.252C426.805 148.252 427.995 147.062 427.995 145.595C427.995 144.128 426.805 142.939 425.338 142.939C423.871 142.939 422.682 144.128 422.682 145.595C422.682 147.062 423.871 148.252 425.338 148.252Z" stroke="#707072" stroke-width="1.77082"/>
<path d="M418.256 150.908C419.234 150.908 420.027 150.115 420.027 149.137C420.027 148.159 419.234 147.366 418.256 147.366C417.278 147.366 416.485 148.159 416.485 149.137C416.485 150.115 417.278 150.908 418.256 150.908Z" stroke="#707072" stroke-width="1.77082"/>
<path d="M432.422 150.908C433.4 150.908 434.193 150.115 434.193 149.137C434.193 148.159 433.4 147.366 432.422 147.366C431.444 147.366 430.651 148.159 430.651 149.137C430.651 150.115 431.444 150.908 432.422 150.908Z" stroke="#707072" stroke-width="1.77082"/>
<path d="M418.255 153.564H417.984C417.119 153.564 416.38 154.19 416.238 155.044L415.942 156.815C415.763 157.894 416.595 158.877 417.689 158.877H420.911" stroke="#707072" stroke-width="1.77082" stroke-linecap="round" stroke-linejoin="round"/>
<path d="M432.422 153.564H432.693C433.559 153.564 434.297 154.19 434.44 155.044L434.735 156.815C434.915 157.894 434.083 158.877 432.988 158.877C431.96 158.877 430.736 158.877 429.766 158.877" stroke="#707072" stroke-width="1.77082" stroke-linecap="round" stroke-linejoin="round"/>
</g>
<rect x="218.073" y="331.383" width="37.4049" height="37.7117" rx="7.73649" fill="#F1F1F1"/>
<path d="M236.776 354.666V358.208M233.234 358.208H240.317M231.64 354.666H241.911C242.903 354.666 243.399 354.666 243.778 354.473C244.111 354.304 244.382 354.033 244.552 353.7C244.745 353.321 244.745 352.825 244.745 351.833V345.104C244.745 344.112 244.745 343.616 244.552 343.238C244.382 342.904 244.111 342.633 243.778 342.464C243.399 342.271 242.903 342.271 241.911 342.271H231.64C230.649 342.271 230.153 342.271 229.774 342.464C229.441 342.633 229.17 342.904 229 343.238C228.807 343.616 228.807 344.112 228.807 345.104V351.833C228.807 352.825 228.807 353.321 229 353.7C229.17 354.033 229.441 354.304 229.774 354.473C230.153 354.666 230.649 354.666 231.64 354.666Z" stroke="#707072" stroke-width="1.77082" stroke-linecap="round"/>
<rect x="348.774" y="220.133" width="37.4049" height="37.7117" rx="7.73649" fill="#F1F1F1"/>
<path fill-rule="evenodd" clip-rule="evenodd" d="M359.137 233.775C359.137 232.048 360.537 230.648 362.264 230.648H367.477H372.69C374.418 230.648 375.818 232.048 375.818 233.775V238.988V244.201C375.818 245.929 374.418 247.329 372.69 247.329H367.477H362.264C360.537 247.329 359.137 245.929 359.137 244.201V238.988V233.775ZM362.264 232.733C361.689 232.733 361.222 233.2 361.222 233.775V237.946H366.435V232.733H362.264ZM368.52 232.733V237.946H373.733V233.775C373.733 233.2 373.266 232.733 372.69 232.733H368.52ZM373.733 240.031H368.52V245.244H372.69C373.266 245.244 373.733 244.777 373.733 244.201V240.031ZM366.435 245.244V240.031H361.222V244.201C361.222 244.777 361.689 245.244 362.264 245.244H366.435Z" fill="#707072"/>
<rect x="35.6372" y="154.415" width="37.4049" height="37.7117" rx="7.73649" fill="#F1F1F1"/>
<g clip-path="url(#clip1_2155_1569)">
<path fill-rule="evenodd" clip-rule="evenodd" d="M60.0456 175.698L51.9712 181.157C50.0037 182.487 47.3389 181.09 47.3389 178.73V167.812C47.3389 165.451 50.0037 164.054 51.9712 165.385L60.0456 170.844C61.7709 172.01 61.7709 174.532 60.0456 175.698Z" fill="#707072"/>
</g>
<path d="M210.731 549.087V535.909H213.921V555.328H211.424L202.27 542.151V555.328H199.079V535.909H201.576L210.731 549.087ZM229.34 553.581C227.935 554.986 226.206 555.689 224.153 555.689C222.1 555.689 220.37 554.986 218.965 553.581C217.541 552.157 216.829 550.427 216.829 548.393C216.829 546.359 217.541 544.629 218.965 543.205C220.37 541.8 222.1 541.097 224.153 541.097C226.206 541.097 227.935 541.8 229.34 543.205C230.765 544.629 231.477 546.359 231.477 548.393C231.477 550.427 230.765 552.157 229.34 553.581ZM219.825 548.393C219.825 549.651 220.241 550.696 221.073 551.528C221.906 552.36 222.932 552.776 224.153 552.776C225.373 552.776 226.4 552.36 227.232 551.528C228.064 550.696 228.48 549.651 228.48 548.393C228.48 547.135 228.064 546.09 227.232 545.258C226.4 544.426 225.373 544.01 224.153 544.01C222.932 544.01 221.906 544.426 221.073 545.258C220.241 546.09 219.825 547.135 219.825 548.393ZM247.779 555.689C245.911 555.689 244.321 555.273 243.008 554.441C241.713 553.59 240.807 552.416 240.289 550.917L243.036 549.308C243.812 551.491 245.421 552.582 247.863 552.582C249.046 552.582 249.943 552.351 250.554 551.888C251.164 551.426 251.469 550.807 251.469 550.03C251.469 549.253 251.145 548.652 250.498 548.226C249.851 547.801 248.704 547.339 247.058 546.839C245.375 546.34 244.016 545.748 242.98 545.064C241.722 544.176 241.094 542.872 241.094 541.152C241.094 539.432 241.704 538.073 242.925 537.074C244.127 536.057 245.597 535.548 247.336 535.548C248.871 535.548 250.221 535.927 251.386 536.686C252.57 537.426 253.476 538.471 254.105 539.821L251.414 541.374C250.6 539.562 249.241 538.655 247.336 538.655C246.411 538.655 245.671 538.877 245.116 539.321C244.561 539.747 244.284 540.329 244.284 541.069C244.284 541.79 244.561 542.364 245.116 542.789C245.671 543.196 246.697 543.631 248.196 544.093C249.12 544.407 249.657 544.592 249.805 544.648C250.045 544.722 250.526 544.907 251.247 545.203C251.839 545.443 252.311 545.702 252.662 545.979C254.105 547.108 254.77 548.439 254.659 549.974C254.659 551.731 254.021 553.128 252.745 554.163C251.506 555.181 249.851 555.689 247.779 555.689ZM264.14 555.689C262.05 555.689 260.303 554.986 258.897 553.581C257.51 552.157 256.816 550.427 256.816 548.393C256.816 546.322 257.51 544.592 258.897 543.205C260.303 541.8 262.05 541.097 264.14 541.097C265.49 541.097 266.72 541.42 267.83 542.068C268.94 542.715 269.772 543.584 270.327 544.676L267.747 546.174C267.432 545.508 266.952 544.99 266.304 544.62C265.675 544.232 264.945 544.037 264.113 544.037C262.892 544.037 261.866 544.454 261.033 545.286C260.219 546.137 259.813 547.172 259.813 548.393C259.813 549.614 260.219 550.649 261.033 551.5C261.866 552.332 262.892 552.748 264.113 552.748C264.926 552.748 265.657 552.564 266.304 552.194C266.97 551.805 267.469 551.278 267.802 550.612L270.382 552.083C269.791 553.192 268.931 554.071 267.802 554.718C266.693 555.365 265.472 555.689 264.14 555.689ZM283.317 543.427V541.457H286.313V555.328H283.317V553.331C282.189 554.903 280.571 555.689 278.462 555.689C276.557 555.689 274.93 554.986 273.58 553.581C272.23 552.175 271.554 550.446 271.554 548.393C271.554 546.34 272.23 544.611 273.58 543.205C274.93 541.8 276.557 541.097 278.462 541.097C280.571 541.097 282.189 541.874 283.317 543.427ZM275.799 551.583C276.631 552.416 277.676 552.832 278.934 552.832C280.192 552.832 281.236 552.416 282.069 551.583C282.901 550.733 283.317 549.669 283.317 548.393C283.317 547.117 282.901 546.063 282.069 545.23C281.236 544.38 280.192 543.954 278.934 543.954C277.676 543.954 276.631 544.38 275.799 545.23C274.967 546.063 274.551 547.117 274.551 548.393C274.551 549.651 274.967 550.714 275.799 551.583ZM297.102 541.097C298.711 541.097 299.996 541.615 300.958 542.65C301.938 543.668 302.428 545.055 302.428 546.812V555.328H299.432V547.117C299.432 546.081 299.155 545.286 298.6 544.731C298.045 544.176 297.287 543.899 296.325 543.899C295.234 543.899 294.374 544.241 293.745 544.925C293.116 545.591 292.802 546.58 292.802 547.894V555.328H289.806V541.457H292.802V543.233C293.726 541.809 295.16 541.097 297.102 541.097ZM308.345 545.286C308.345 545.711 308.567 546.063 309.011 546.34C309.455 546.599 310.102 546.849 310.953 547.089C311.6 547.237 312.164 547.394 312.645 547.561C313.126 547.727 313.635 547.977 314.171 548.31C314.708 548.624 315.114 549.05 315.392 549.586C315.688 550.104 315.826 550.714 315.808 551.417C315.808 552.748 315.29 553.793 314.254 554.552C313.219 555.31 311.933 555.689 310.398 555.689C309.03 555.689 307.855 555.402 306.875 554.829C305.895 554.256 305.183 553.461 304.739 552.443L307.319 550.945C307.781 552.277 308.808 552.943 310.398 552.943C311.97 552.943 312.756 552.425 312.756 551.389C312.756 550.631 311.878 550.039 310.121 549.614C309.455 549.447 308.891 549.281 308.429 549.114C307.985 548.948 307.485 548.707 306.93 548.393C306.394 548.079 305.978 547.662 305.682 547.145C305.405 546.627 305.275 546.026 305.294 545.341C305.294 544.065 305.775 543.039 306.736 542.262C307.716 541.485 308.928 541.097 310.37 541.097C311.517 541.097 312.534 541.356 313.422 541.874C314.328 542.373 315.022 543.076 315.503 543.982L312.978 545.397C312.516 544.343 311.647 543.815 310.37 543.815C309.779 543.815 309.289 543.945 308.9 544.204C308.53 544.463 308.345 544.823 308.345 545.286ZM331.175 551.528L334.726 541.457H337.917L332.59 555.772C331.259 559.36 329.002 561.062 325.821 560.877V558.075C326.746 558.13 327.495 557.936 328.068 557.492C328.642 557.049 329.122 556.336 329.511 555.356L329.65 555.079L323.768 541.457H327.042L331.175 551.528ZM352.648 549.669H341.606C341.828 550.705 342.328 551.509 343.104 552.083C343.9 552.656 344.88 552.943 346.045 552.943C347.617 552.943 348.81 552.369 349.624 551.223L352.093 552.665C350.743 554.681 348.718 555.689 346.017 555.689C343.78 555.689 341.958 555.005 340.552 553.636C339.165 552.249 338.472 550.501 338.472 548.393C338.472 546.34 339.156 544.611 340.524 543.205C341.875 541.8 343.632 541.097 345.795 541.097C347.811 541.097 349.476 541.809 350.789 543.233C352.102 544.657 352.759 546.386 352.759 548.421C352.759 548.791 352.722 549.207 352.648 549.669ZM341.579 547.228H349.735C349.531 546.137 349.069 545.295 348.348 544.703C347.645 544.111 346.785 543.815 345.768 543.815C344.658 543.815 343.733 544.121 342.994 544.731C342.254 545.341 341.782 546.174 341.579 547.228ZM362.702 541.457V544.343H359.262V551.001C359.262 551.574 359.391 551.99 359.65 552.249C359.909 552.49 360.288 552.628 360.788 552.665C361.305 552.684 361.943 552.674 362.702 552.638V555.328C360.408 555.606 358.762 555.412 357.764 554.746C356.765 554.062 356.266 552.813 356.266 551.001V544.343H353.713V541.457H356.266V538.461L359.262 537.574V541.457H362.702Z" fill="black"/>
<rect x="486.297" y="232.644" width="37.4049" height="37.7117" rx="7.73649" fill="#F1F1F1"/>
<g clip-path="url(#clip2_2155_1569)">
<path d="M510.212 241.685H499.785C499.378 241.685 498.988 241.847 498.701 242.134C498.413 242.422 498.251 242.812 498.251 243.219V259.78C498.251 260.187 498.413 260.577 498.701 260.864C498.988 261.152 499.378 261.314 499.785 261.314H510.212C510.619 261.314 511.009 261.152 511.297 260.864C511.584 260.577 511.746 260.187 511.746 259.78V243.219C511.746 242.812 511.584 242.422 511.297 242.134C511.009 241.847 510.619 241.685 510.212 241.685ZM510.212 259.78H499.785V243.219H510.212V259.78Z" fill="#707072"/>
<path d="M505 258.247C505.542 258.247 505.981 257.835 505.981 257.327C505.981 256.818 505.542 256.406 505 256.406C504.458 256.406 504.019 256.818 504.019 257.327C504.019 257.835 504.458 258.247 505 258.247Z" fill="#707072"/>
</g>
<path d="M137.808 593.078V584.726H139.296V595.926H138.096L132.336 587.558V595.926H130.848V584.726H132.048L137.808 593.078ZM148.3 594.918C147.489 595.728 146.492 596.134 145.308 596.134C144.124 596.134 143.127 595.728 142.316 594.918C141.505 594.107 141.1 593.11 141.1 591.926C141.1 590.742 141.505 589.744 142.316 588.934C143.127 588.123 144.124 587.718 145.308 587.718C146.492 587.718 147.489 588.123 148.3 588.934C149.121 589.755 149.532 590.752 149.532 591.926C149.532 593.099 149.121 594.096 148.3 594.918ZM145.308 594.774C146.108 594.774 146.78 594.502 147.324 593.958C147.868 593.414 148.14 592.736 148.14 591.926C148.14 591.115 147.868 590.438 147.324 589.894C146.78 589.35 146.108 589.078 145.308 589.078C144.519 589.078 143.852 589.35 143.308 589.894C142.764 590.438 142.492 591.115 142.492 591.926C142.492 592.736 142.764 593.414 143.308 593.958C143.852 594.502 144.519 594.774 145.308 594.774ZM156.373 590.086C156.373 590.598 156.901 590.998 157.957 591.286C158.352 591.371 158.682 591.462 158.949 591.558C159.226 591.643 159.525 591.776 159.845 591.958C160.176 592.139 160.426 592.379 160.597 592.678C160.768 592.976 160.853 593.328 160.853 593.734C160.853 594.459 160.57 595.04 160.005 595.478C159.44 595.915 158.725 596.134 157.861 596.134C157.093 596.134 156.426 595.968 155.861 595.638C155.306 595.296 154.912 594.838 154.677 594.262L155.877 593.574C156.005 593.958 156.245 594.262 156.597 594.486C156.949 594.71 157.37 594.822 157.861 594.822C158.341 594.822 158.725 594.731 159.013 594.55C159.301 594.368 159.445 594.096 159.445 593.734C159.445 593.19 158.917 592.795 157.861 592.55C157.509 592.454 157.242 592.379 157.061 592.326C156.88 592.272 156.629 592.176 156.309 592.038C156 591.899 155.765 591.755 155.605 591.606C155.445 591.446 155.296 591.238 155.157 590.982C155.029 590.715 154.965 590.422 154.965 590.102C154.965 589.408 155.232 588.838 155.765 588.39C156.309 587.942 156.986 587.718 157.797 587.718C158.448 587.718 159.024 587.867 159.525 588.166C160.037 588.454 160.421 588.859 160.677 589.382L159.509 590.038C159.221 589.355 158.65 589.014 157.797 589.014C157.392 589.014 157.05 589.11 156.773 589.302C156.506 589.494 156.373 589.755 156.373 590.086ZM166.042 596.134C164.837 596.134 163.834 595.734 163.034 594.934C162.234 594.123 161.834 593.12 161.834 591.926C161.834 590.731 162.234 589.734 163.034 588.934C163.834 588.123 164.837 587.718 166.042 587.718C166.832 587.718 167.541 587.91 168.17 588.294C168.8 588.667 169.269 589.174 169.578 589.814L168.41 590.486C168.208 590.059 167.893 589.718 167.466 589.462C167.05 589.206 166.576 589.078 166.042 589.078C165.242 589.078 164.57 589.35 164.026 589.894C163.493 590.448 163.226 591.126 163.226 591.926C163.226 592.715 163.493 593.387 164.026 593.942C164.57 594.486 165.242 594.758 166.042 594.758C166.576 594.758 167.056 594.635 167.482 594.39C167.909 594.134 168.234 593.792 168.458 593.366L169.642 594.054C169.29 594.694 168.794 595.2 168.154 595.574C167.514 595.947 166.81 596.134 166.042 596.134ZM177.531 589.302V587.926H178.923V595.926H177.531V594.55C176.849 595.606 175.841 596.134 174.507 596.134C173.377 596.134 172.422 595.728 171.643 594.918C170.854 594.096 170.459 593.099 170.459 591.926C170.459 590.763 170.854 589.771 171.643 588.95C172.433 588.128 173.387 587.718 174.507 587.718C175.841 587.718 176.849 588.246 177.531 589.302ZM174.683 594.79C175.494 594.79 176.171 594.518 176.715 593.974C177.259 593.408 177.531 592.726 177.531 591.926C177.531 591.115 177.259 590.438 176.715 589.894C176.171 589.339 175.494 589.062 174.683 589.062C173.883 589.062 173.211 589.339 172.667 589.894C172.123 590.438 171.851 591.115 171.851 591.926C171.851 592.726 172.123 593.408 172.667 593.974C173.211 594.518 173.883 594.79 174.683 594.79ZM185.016 587.718C185.955 587.718 186.707 588.016 187.272 588.614C187.838 589.2 188.12 590 188.12 591.014V595.926H186.728V591.094C186.728 590.454 186.552 589.952 186.2 589.59C185.848 589.227 185.363 589.046 184.744 589.046C184.03 589.046 183.464 589.27 183.048 589.718C182.632 590.155 182.424 590.811 182.424 591.686V595.926H181.032V587.926H182.424V589.078C182.979 588.171 183.843 587.718 185.016 587.718ZM198.048 587.718C198.986 587.718 199.738 588.016 200.304 588.614C200.869 589.2 201.152 590 201.152 591.014V595.926H199.76V591.094C199.76 590.454 199.584 589.952 199.232 589.59C198.88 589.227 198.394 589.046 197.776 589.046C197.061 589.046 196.496 589.27 196.08 589.718C195.664 590.155 195.456 590.811 195.456 591.686V595.926H194.064V584.726H195.456V589.078C196.01 588.171 196.874 587.718 198.048 587.718ZM209.719 589.302V587.926H211.111V595.926H209.719V594.55C209.036 595.606 208.028 596.134 206.695 596.134C205.564 596.134 204.609 595.728 203.831 594.918C203.041 594.096 202.647 593.099 202.647 591.926C202.647 590.763 203.041 589.771 203.831 588.95C204.62 588.128 205.575 587.718 206.695 587.718C208.028 587.718 209.036 588.246 209.719 589.302ZM206.871 594.79C207.681 594.79 208.359 594.518 208.903 593.974C209.447 593.408 209.719 592.726 209.719 591.926C209.719 591.115 209.447 590.438 208.903 589.894C208.359 589.339 207.681 589.062 206.871 589.062C206.071 589.062 205.399 589.339 204.855 589.894C204.311 590.438 204.039 591.115 204.039 591.926C204.039 592.726 204.311 593.408 204.855 593.974C205.399 594.518 206.071 594.79 206.871 594.79ZM214.404 590.086C214.404 590.598 214.932 590.998 215.988 591.286C216.383 591.371 216.714 591.462 216.98 591.558C217.258 591.643 217.556 591.776 217.876 591.958C218.207 592.139 218.458 592.379 218.628 592.678C218.799 592.976 218.884 593.328 218.884 593.734C218.884 594.459 218.602 595.04 218.036 595.478C217.471 595.915 216.756 596.134 215.892 596.134C215.124 596.134 214.458 595.968 213.892 595.638C213.338 595.296 212.943 594.838 212.708 594.262L213.908 593.574C214.036 593.958 214.276 594.262 214.628 594.486C214.98 594.71 215.402 594.822 215.892 594.822C216.372 594.822 216.756 594.731 217.044 594.55C217.332 594.368 217.476 594.096 217.476 593.734C217.476 593.19 216.948 592.795 215.892 592.55C215.54 592.454 215.274 592.379 215.092 592.326C214.911 592.272 214.66 592.176 214.34 592.038C214.031 591.899 213.796 591.755 213.636 591.606C213.476 591.446 213.327 591.238 213.188 590.982C213.06 590.715 212.996 590.422 212.996 590.102C212.996 589.408 213.263 588.838 213.796 588.39C214.34 587.942 215.018 587.718 215.828 587.718C216.479 587.718 217.055 587.867 217.556 588.166C218.068 588.454 218.452 588.859 218.708 589.382L217.54 590.038C217.252 589.355 216.682 589.014 215.828 589.014C215.423 589.014 215.082 589.11 214.804 589.302C214.538 589.494 214.404 589.755 214.404 590.086ZM228.948 587.718C230.068 587.718 231.023 588.128 231.812 588.95C232.602 589.771 232.996 590.763 232.996 591.926C232.996 593.099 232.602 594.096 231.812 594.918C231.034 595.728 230.079 596.134 228.948 596.134C227.626 596.134 226.618 595.606 225.924 594.55V595.926H224.532V584.726H225.924V589.302C226.618 588.246 227.626 587.718 228.948 587.718ZM228.772 594.79C229.572 594.79 230.244 594.518 230.788 593.974C231.332 593.408 231.604 592.726 231.604 591.926C231.604 591.115 231.332 590.438 230.788 589.894C230.244 589.339 229.572 589.062 228.772 589.062C227.962 589.062 227.284 589.339 226.74 589.894C226.196 590.438 225.924 591.115 225.924 591.926C225.924 592.726 226.196 593.408 226.74 593.974C227.284 594.518 227.962 594.79 228.772 594.79ZM242.337 592.566H235.633C235.772 593.27 236.097 593.824 236.609 594.23C237.121 594.624 237.761 594.822 238.529 594.822C239.585 594.822 240.353 594.432 240.833 593.654L242.017 594.326C241.228 595.531 240.055 596.134 238.497 596.134C237.239 596.134 236.204 595.739 235.393 594.95C234.604 594.139 234.209 593.131 234.209 591.926C234.209 590.71 234.599 589.707 235.377 588.918C236.156 588.118 237.164 587.718 238.401 587.718C239.575 587.718 240.529 588.134 241.265 588.966C242.012 589.776 242.385 590.768 242.385 591.942C242.385 592.144 242.369 592.352 242.337 592.566ZM238.401 589.03C237.665 589.03 237.047 589.238 236.545 589.654C236.055 590.07 235.751 590.635 235.633 591.35H240.977C240.86 590.614 240.567 590.043 240.097 589.638C239.628 589.232 239.063 589.03 238.401 589.03ZM251.65 592.566H244.946C245.084 593.27 245.41 593.824 245.922 594.23C246.434 594.624 247.074 594.822 247.842 594.822C248.898 594.822 249.666 594.432 250.146 593.654L251.33 594.326C250.54 595.531 249.367 596.134 247.81 596.134C246.551 596.134 245.516 595.739 244.706 594.95C243.916 594.139 243.522 593.131 243.522 591.926C243.522 590.71 243.911 589.707 244.69 588.918C245.468 588.118 246.476 587.718 247.714 587.718C248.887 587.718 249.842 588.134 250.578 588.966C251.324 589.776 251.698 590.768 251.698 591.942C251.698 592.144 251.682 592.352 251.65 592.566ZM247.714 589.03C246.978 589.03 246.359 589.238 245.858 589.654C245.367 590.07 245.063 590.635 244.946 591.35H250.29C250.172 590.614 249.879 590.043 249.41 589.638C248.94 589.232 248.375 589.03 247.714 589.03ZM257.282 587.718C258.221 587.718 258.973 588.016 259.538 588.614C260.103 589.2 260.386 590 260.386 591.014V595.926H258.994V591.094C258.994 590.454 258.818 589.952 258.466 589.59C258.114 589.227 257.629 589.046 257.01 589.046C256.295 589.046 255.73 589.27 255.314 589.718C254.898 590.155 254.69 590.811 254.69 591.686V595.926H253.298V587.926H254.69V589.078C255.245 588.171 256.109 587.718 257.282 587.718ZM270.745 587.718C271.865 587.718 272.82 588.128 273.609 588.95C274.399 589.771 274.793 590.763 274.793 591.926C274.793 593.099 274.399 594.096 273.609 594.918C272.831 595.728 271.876 596.134 270.745 596.134C269.423 596.134 268.415 595.606 267.721 594.55V599.126H266.329V587.926H267.721V589.302C268.415 588.246 269.423 587.718 270.745 587.718ZM270.569 594.79C271.369 594.79 272.041 594.518 272.585 593.974C273.129 593.408 273.401 592.726 273.401 591.926C273.401 591.115 273.129 590.438 272.585 589.894C272.041 589.339 271.369 589.062 270.569 589.062C269.759 589.062 269.081 589.339 268.537 589.894C267.993 590.438 267.721 591.115 267.721 591.926C267.721 592.726 267.993 593.408 268.537 593.974C269.081 594.518 269.759 594.79 270.569 594.79ZM284.134 592.566H277.43C277.569 593.27 277.894 593.824 278.406 594.23C278.918 594.624 279.558 594.822 280.326 594.822C281.382 594.822 282.15 594.432 282.63 593.654L283.814 594.326C283.025 595.531 281.852 596.134 280.294 596.134C279.036 596.134 278.001 595.739 277.19 594.95C276.401 594.139 276.006 593.131 276.006 591.926C276.006 590.71 276.396 589.707 277.174 588.918C277.953 588.118 278.961 587.718 280.198 587.718C281.372 587.718 282.326 588.134 283.062 588.966C283.809 589.776 284.182 590.768 284.182 591.942C284.182 592.144 284.166 592.352 284.134 592.566ZM280.198 589.03C279.462 589.03 278.844 589.238 278.342 589.654C277.852 590.07 277.548 590.635 277.43 591.35H282.774C282.657 590.614 282.364 590.043 281.894 589.638C281.425 589.232 280.86 589.03 280.198 589.03ZM287.174 587.926V589.27C287.633 588.278 288.465 587.782 289.67 587.782V589.238C288.988 589.206 288.401 589.387 287.91 589.782C287.42 590.176 287.174 590.811 287.174 591.686V595.926H285.782V587.926H287.174ZM295.144 584.518V585.862C293.736 585.744 293.032 586.352 293.032 587.686V587.926H295.144V589.27H293.032V595.926H291.64V589.27H290.36V587.926H291.64V587.686C291.64 586.598 291.944 585.782 292.552 585.238C293.16 584.683 294.024 584.443 295.144 584.518ZM302.519 594.918C301.708 595.728 300.711 596.134 299.527 596.134C298.343 596.134 297.345 595.728 296.535 594.918C295.724 594.107 295.319 593.11 295.319 591.926C295.319 590.742 295.724 589.744 296.535 588.934C297.345 588.123 298.343 587.718 299.527 587.718C300.711 587.718 301.708 588.123 302.519 588.934C303.34 589.755 303.751 590.752 303.751 591.926C303.751 593.099 303.34 594.096 302.519 594.918ZM299.527 594.774C300.327 594.774 300.999 594.502 301.543 593.958C302.087 593.414 302.359 592.736 302.359 591.926C302.359 591.115 302.087 590.438 301.543 589.894C300.999 589.35 300.327 589.078 299.527 589.078C298.737 589.078 298.071 589.35 297.527 589.894C296.983 590.438 296.711 591.115 296.711 591.926C296.711 592.736 296.983 593.414 297.527 593.958C298.071 594.502 298.737 594.774 299.527 594.774ZM306.784 587.926V589.27C307.242 588.278 308.074 587.782 309.28 587.782V589.238C308.597 589.206 308.01 589.387 307.52 589.782C307.029 590.176 306.784 590.811 306.784 591.686V595.926H305.392V587.926H306.784ZM319.282 587.718C320.188 587.718 320.914 588.011 321.458 588.598C322.012 589.184 322.29 589.968 322.29 590.95V595.926H320.898V590.998C320.898 590.39 320.738 589.915 320.418 589.574C320.108 589.222 319.682 589.046 319.138 589.046C318.519 589.046 318.034 589.254 317.682 589.67C317.34 590.075 317.17 590.678 317.17 591.478V595.926H315.778V590.998C315.778 590.39 315.623 589.915 315.314 589.574C315.015 589.222 314.604 589.046 314.082 589.046C313.474 589.046 312.978 589.259 312.594 589.686C312.22 590.102 312.034 590.699 312.034 591.478V595.926H310.642V587.926H312.034V588.998C312.578 588.144 313.372 587.718 314.418 587.718C315.495 587.718 316.279 588.171 316.77 589.078C317.324 588.171 318.162 587.718 319.282 587.718ZM331.9 592.566H325.196C325.334 593.27 325.66 593.824 326.172 594.23C326.684 594.624 327.324 594.822 328.092 594.822C329.148 594.822 329.916 594.432 330.396 593.654L331.58 594.326C330.79 595.531 329.617 596.134 328.06 596.134C326.801 596.134 325.766 595.739 324.956 594.95C324.166 594.139 323.772 593.131 323.772 591.926C323.772 590.71 324.161 589.707 324.94 588.918C325.718 588.118 326.726 587.718 327.964 587.718C329.137 587.718 330.092 588.134 330.828 588.966C331.574 589.776 331.948 590.768 331.948 591.942C331.948 592.144 331.932 592.352 331.9 592.566ZM327.964 589.03C327.228 589.03 326.609 589.238 326.108 589.654C325.617 590.07 325.313 590.635 325.196 591.35H330.54C330.422 590.614 330.129 590.043 329.66 589.638C329.19 589.232 328.625 589.03 327.964 589.03ZM340.156 589.302V584.726H341.548V595.926H340.156V594.55C339.474 595.606 338.466 596.134 337.132 596.134C336.002 596.134 335.047 595.728 334.268 594.918C333.479 594.096 333.084 593.099 333.084 591.926C333.084 590.763 333.479 589.771 334.268 588.95C335.058 588.128 336.012 587.718 337.132 587.718C338.466 587.718 339.474 588.246 340.156 589.302ZM337.308 594.79C338.119 594.79 338.796 594.518 339.34 593.974C339.884 593.408 340.156 592.726 340.156 591.926C340.156 591.115 339.884 590.438 339.34 589.894C338.796 589.339 338.119 589.062 337.308 589.062C336.508 589.062 335.836 589.339 335.292 589.894C334.748 590.438 334.476 591.115 334.476 591.926C334.476 592.726 334.748 593.408 335.292 593.974C335.836 594.518 336.508 594.79 337.308 594.79ZM350.937 594.198L353.241 587.926H354.729L351.465 596.422C351.113 597.328 350.628 598.016 350.009 598.486C349.401 598.966 348.703 599.179 347.913 599.126V597.83C348.895 597.904 349.615 597.36 350.073 596.198L350.217 595.894L346.729 587.926H348.217L350.937 594.198ZM363.259 592.566H356.555C356.694 593.27 357.019 593.824 357.531 594.23C358.043 594.624 358.683 594.822 359.451 594.822C360.507 594.822 361.275 594.432 361.755 593.654L362.939 594.326C362.15 595.531 360.977 596.134 359.419 596.134C358.161 596.134 357.126 595.739 356.315 594.95C355.526 594.139 355.131 593.131 355.131 591.926C355.131 590.71 355.521 589.707 356.299 588.918C357.078 588.118 358.086 587.718 359.323 587.718C360.497 587.718 361.451 588.134 362.187 588.966C362.934 589.776 363.307 590.768 363.307 591.942C363.307 592.144 363.291 592.352 363.259 592.566ZM359.323 589.03C358.587 589.03 357.969 589.238 357.467 589.654C356.977 590.07 356.673 590.635 356.555 591.35H361.899C361.782 590.614 361.489 590.043 361.019 589.638C360.55 589.232 359.985 589.03 359.323 589.03ZM369.025 587.926V589.27H366.897V593.606C366.897 594 366.972 594.283 367.121 594.454C367.281 594.614 367.521 594.699 367.841 594.71C368.161 594.71 368.556 594.699 369.025 594.678V595.926C367.798 596.086 366.902 595.984 366.337 595.622C365.782 595.259 365.505 594.587 365.505 593.606V589.27H363.921V587.926H365.505V586.102L366.897 585.686V587.926H369.025ZM371.6 596.102C371.312 596.102 371.066 596 370.864 595.798C370.661 595.595 370.56 595.35 370.56 595.062C370.56 594.774 370.661 594.528 370.864 594.326C371.066 594.123 371.312 594.022 371.6 594.022C371.898 594.022 372.144 594.123 372.336 594.326C372.538 594.528 372.64 594.774 372.64 595.062C372.64 595.35 372.538 595.595 372.336 595.798C372.144 596 371.898 596.102 371.6 596.102ZM387.042 595.926H385.394L382.882 591.638H380.242V595.926H378.754V584.726H383.234C384.194 584.726 385.016 585.067 385.698 585.75C386.381 586.422 386.722 587.238 386.722 588.198C386.722 588.923 386.504 589.584 386.066 590.182C385.618 590.79 385.064 591.211 384.402 591.446L387.042 595.926ZM383.234 586.118H380.242V590.294H383.234C383.789 590.294 384.258 590.091 384.642 589.686C385.037 589.28 385.234 588.784 385.234 588.198C385.234 587.611 385.037 587.12 384.642 586.726C384.258 586.32 383.789 586.118 383.234 586.118ZM393.74 592.166V587.926H395.132V595.926H393.74V594.774C393.185 595.68 392.321 596.134 391.148 596.134C390.209 596.134 389.457 595.84 388.892 595.254C388.326 594.656 388.044 593.851 388.044 592.838V587.926H389.436V592.758C389.436 593.398 389.612 593.899 389.964 594.262C390.316 594.624 390.801 594.806 391.42 594.806C392.134 594.806 392.7 594.587 393.116 594.15C393.532 593.702 393.74 593.04 393.74 592.166ZM401.235 587.718C402.174 587.718 402.926 588.016 403.491 588.614C404.056 589.2 404.339 590 404.339 591.014V595.926H402.947V591.094C402.947 590.454 402.771 589.952 402.419 589.59C402.067 589.227 401.582 589.046 400.963 589.046C400.248 589.046 399.683 589.27 399.267 589.718C398.851 590.155 398.643 590.811 398.643 591.686V595.926H397.251V587.926H398.643V589.078C399.198 588.171 400.062 587.718 401.235 587.718ZM416.906 589.302V587.926H418.298V595.926H416.906V594.55C416.224 595.606 415.216 596.134 413.882 596.134C412.752 596.134 411.797 595.728 411.018 594.918C410.229 594.096 409.834 593.099 409.834 591.926C409.834 590.763 410.229 589.771 411.018 588.95C411.808 588.128 412.762 587.718 413.882 587.718C415.216 587.718 416.224 588.246 416.906 589.302ZM414.058 594.79C414.869 594.79 415.546 594.518 416.09 593.974C416.634 593.408 416.906 592.726 416.906 591.926C416.906 591.115 416.634 590.438 416.09 589.894C415.546 589.339 414.869 589.062 414.058 589.062C413.258 589.062 412.586 589.339 412.042 589.894C411.498 590.438 411.226 591.115 411.226 591.926C411.226 592.726 411.498 593.408 412.042 593.974C412.586 594.518 413.258 594.79 414.058 594.79ZM188.563 608.302V603.726H189.955V614.926H188.563V613.55C187.88 614.606 186.872 615.134 185.539 615.134C184.408 615.134 183.453 614.728 182.675 613.918C181.885 613.096 181.491 612.099 181.491 610.926C181.491 609.763 181.885 608.771 182.675 607.95C183.464 607.128 184.419 606.718 185.539 606.718C186.872 606.718 187.88 607.246 188.563 608.302ZM185.715 613.79C186.525 613.79 187.203 613.518 187.747 612.974C188.291 612.408 188.563 611.726 188.563 610.926C188.563 610.115 188.291 609.438 187.747 608.894C187.203 608.339 186.525 608.062 185.715 608.062C184.915 608.062 184.243 608.339 183.699 608.894C183.155 609.438 182.883 610.115 182.883 610.926C182.883 611.726 183.155 612.408 183.699 612.974C184.243 613.518 184.915 613.79 185.715 613.79ZM192.768 605.47C192.501 605.47 192.277 605.379 192.096 605.198C191.914 605.016 191.824 604.798 191.824 604.542C191.824 604.286 191.914 604.067 192.096 603.886C192.277 603.694 192.501 603.598 192.768 603.598C193.024 603.598 193.242 603.694 193.424 603.886C193.605 604.067 193.696 604.286 193.696 604.542C193.696 604.798 193.605 605.016 193.424 605.198C193.242 605.379 193.024 605.47 192.768 605.47ZM193.456 614.926H192.064V606.926H193.456V614.926ZM202.203 608.302V606.926H203.595V614.926H202.203V613.55C201.521 614.606 200.513 615.134 199.179 615.134C198.049 615.134 197.094 614.728 196.315 613.918C195.526 613.096 195.131 612.099 195.131 610.926C195.131 609.763 195.526 608.771 196.315 607.95C197.105 607.128 198.059 606.718 199.179 606.718C200.513 606.718 201.521 607.246 202.203 608.302ZM199.355 613.79C200.166 613.79 200.843 613.518 201.387 612.974C201.931 612.408 202.203 611.726 202.203 610.926C202.203 610.115 201.931 609.438 201.387 608.894C200.843 608.339 200.166 608.062 199.355 608.062C198.555 608.062 197.883 608.339 197.339 608.894C196.795 609.438 196.523 610.115 196.523 610.926C196.523 611.726 196.795 612.408 197.339 612.974C197.883 613.518 198.555 613.79 199.355 613.79ZM212.344 608.302V606.926H213.72V614.59C213.72 615.774 213.32 616.691 212.52 617.342C211.71 618.003 210.75 618.334 209.64 618.334C208.744 618.334 207.971 618.163 207.32 617.822C206.67 617.491 206.179 617.011 205.848 616.382L207.064 615.694C207.502 616.59 208.371 617.038 209.672 617.038C210.504 617.038 211.155 616.819 211.624 616.382C212.104 615.944 212.344 615.347 212.344 614.59V613.454C211.64 614.52 210.638 615.054 209.336 615.054C208.184 615.054 207.219 614.648 206.44 613.838C205.651 613.016 205.256 612.03 205.256 610.878C205.256 609.726 205.651 608.744 206.44 607.934C207.219 607.123 208.184 606.718 209.336 606.718C210.648 606.718 211.651 607.246 212.344 608.302ZM212.344 610.878C212.344 610.078 212.072 609.406 211.528 608.862C210.984 608.318 210.307 608.046 209.496 608.046C208.686 608.046 208.008 608.318 207.464 608.862C206.92 609.406 206.648 610.078 206.648 610.878C206.648 611.688 206.92 612.366 207.464 612.91C208.008 613.454 208.686 613.726 209.496 613.726C210.307 613.726 210.984 613.454 211.528 612.91C212.072 612.366 212.344 611.688 212.344 610.878ZM219.813 606.718C220.752 606.718 221.504 607.016 222.069 607.614C222.635 608.2 222.917 609 222.917 610.014V614.926H221.525V610.094C221.525 609.454 221.349 608.952 220.997 608.59C220.645 608.227 220.16 608.046 219.541 608.046C218.827 608.046 218.261 608.27 217.845 608.718C217.429 609.155 217.221 609.811 217.221 610.686V614.926H215.829V606.926H217.221V608.078C217.776 607.171 218.64 606.718 219.813 606.718ZM231.612 613.918C230.802 614.728 229.804 615.134 228.62 615.134C227.436 615.134 226.439 614.728 225.628 613.918C224.818 613.107 224.412 612.11 224.412 610.926C224.412 609.742 224.818 608.744 225.628 607.934C226.439 607.123 227.436 606.718 228.62 606.718C229.804 606.718 230.802 607.123 231.612 607.934C232.434 608.755 232.844 609.752 232.844 610.926C232.844 612.099 232.434 613.096 231.612 613.918ZM228.62 613.774C229.42 613.774 230.092 613.502 230.636 612.958C231.18 612.414 231.452 611.736 231.452 610.926C231.452 610.115 231.18 609.438 230.636 608.894C230.092 608.35 229.42 608.078 228.62 608.078C227.831 608.078 227.164 608.35 226.62 608.894C226.076 609.438 225.804 610.115 225.804 610.926C225.804 611.736 226.076 612.414 226.62 612.958C227.164 613.502 227.831 613.774 228.62 613.774ZM235.514 609.086C235.514 609.598 236.042 609.998 237.098 610.286C237.492 610.371 237.823 610.462 238.09 610.558C238.367 610.643 238.666 610.776 238.986 610.958C239.316 611.139 239.567 611.379 239.738 611.678C239.908 611.976 239.994 612.328 239.994 612.734C239.994 613.459 239.711 614.04 239.146 614.478C238.58 614.915 237.866 615.134 237.002 615.134C236.234 615.134 235.567 614.968 235.002 614.638C234.447 614.296 234.052 613.838 233.818 613.262L235.018 612.574C235.146 612.958 235.386 613.262 235.738 613.486C236.09 613.71 236.511 613.822 237.002 613.822C237.482 613.822 237.866 613.731 238.154 613.55C238.442 613.368 238.586 613.096 238.586 612.734C238.586 612.19 238.058 611.795 237.002 611.55C236.65 611.454 236.383 611.379 236.202 611.326C236.02 611.272 235.77 611.176 235.45 611.038C235.14 610.899 234.906 610.755 234.746 610.606C234.586 610.446 234.436 610.238 234.298 609.982C234.17 609.715 234.106 609.422 234.106 609.102C234.106 608.408 234.372 607.838 234.906 607.39C235.45 606.942 236.127 606.718 236.938 606.718C237.588 606.718 238.164 606.867 238.666 607.166C239.178 607.454 239.562 607.859 239.818 608.382L238.65 609.038C238.362 608.355 237.791 608.014 236.938 608.014C236.532 608.014 236.191 608.11 235.914 608.302C235.647 608.494 235.514 608.755 235.514 609.086ZM245.681 606.926V608.27H243.553V612.606C243.553 613 243.628 613.283 243.777 613.454C243.937 613.614 244.177 613.699 244.497 613.71C244.817 613.71 245.212 613.699 245.681 613.678V614.926C244.455 615.086 243.559 614.984 242.993 614.622C242.439 614.259 242.161 613.587 242.161 612.606V608.27H240.577V606.926H242.161V605.102L243.553 604.686V606.926H245.681ZM248.033 605.47C247.767 605.47 247.543 605.379 247.361 605.198C247.18 605.016 247.089 604.798 247.089 604.542C247.089 604.286 247.18 604.067 247.361 603.886C247.543 603.694 247.767 603.598 248.033 603.598C248.289 603.598 248.508 603.694 248.689 603.886C248.871 604.067 248.961 604.286 248.961 604.542C248.961 604.798 248.871 605.016 248.689 605.198C248.508 605.379 248.289 605.47 248.033 605.47ZM248.721 614.926H247.329V606.926H248.721V614.926ZM254.605 615.134C253.399 615.134 252.397 614.734 251.597 613.934C250.797 613.123 250.397 612.12 250.397 610.926C250.397 609.731 250.797 608.734 251.597 607.934C252.397 607.123 253.399 606.718 254.605 606.718C255.394 606.718 256.103 606.91 256.733 607.294C257.362 607.667 257.831 608.174 258.141 608.814L256.973 609.486C256.77 609.059 256.455 608.718 256.029 608.462C255.613 608.206 255.138 608.078 254.605 608.078C253.805 608.078 253.133 608.35 252.589 608.894C252.055 609.448 251.789 610.126 251.789 610.926C251.789 611.715 252.055 612.387 252.589 612.942C253.133 613.486 253.805 613.758 254.605 613.758C255.138 613.758 255.618 613.635 256.045 613.39C256.471 613.134 256.797 612.792 257.021 612.366L258.205 613.054C257.853 613.694 257.357 614.2 256.717 614.574C256.077 614.947 255.373 615.134 254.605 615.134ZM267.947 606.926V608.27H265.819V612.606C265.819 613 265.893 613.283 266.043 613.454C266.203 613.614 266.443 613.699 266.763 613.71C267.083 613.71 267.477 613.699 267.947 613.678V614.926C266.72 615.086 265.824 614.984 265.259 614.622C264.704 614.259 264.427 613.587 264.427 612.606V608.27H262.843V606.926H264.427V605.102L265.819 604.686V606.926H267.947ZM275.941 613.918C275.13 614.728 274.133 615.134 272.949 615.134C271.765 615.134 270.767 614.728 269.957 613.918C269.146 613.107 268.741 612.11 268.741 610.926C268.741 609.742 269.146 608.744 269.957 607.934C270.767 607.123 271.765 606.718 272.949 606.718C274.133 606.718 275.13 607.123 275.941 607.934C276.762 608.755 277.173 609.752 277.173 610.926C277.173 612.099 276.762 613.096 275.941 613.918ZM272.949 613.774C273.749 613.774 274.421 613.502 274.965 612.958C275.509 612.414 275.781 611.736 275.781 610.926C275.781 610.115 275.509 609.438 274.965 608.894C274.421 608.35 273.749 608.078 272.949 608.078C272.159 608.078 271.493 608.35 270.949 608.894C270.405 609.438 270.133 610.115 270.133 610.926C270.133 611.736 270.405 612.414 270.949 612.958C271.493 613.502 272.159 613.774 272.949 613.774ZM289.454 608.302V606.926H290.83V614.59C290.83 615.774 290.43 616.691 289.63 617.342C288.819 618.003 287.859 618.334 286.75 618.334C285.854 618.334 285.08 618.163 284.43 617.822C283.779 617.491 283.288 617.011 282.958 616.382L284.174 615.694C284.611 616.59 285.48 617.038 286.782 617.038C287.614 617.038 288.264 616.819 288.734 616.382C289.214 615.944 289.454 615.347 289.454 614.59V613.454C288.75 614.52 287.747 615.054 286.446 615.054C285.294 615.054 284.328 614.648 283.55 613.838C282.76 613.016 282.366 612.03 282.366 610.878C282.366 609.726 282.76 608.744 283.55 607.934C284.328 607.123 285.294 606.718 286.446 606.718C287.758 606.718 288.76 607.246 289.454 608.302ZM289.454 610.878C289.454 610.078 289.182 609.406 288.638 608.862C288.094 608.318 287.416 608.046 286.606 608.046C285.795 608.046 285.118 608.318 284.574 608.862C284.03 609.406 283.758 610.078 283.758 610.878C283.758 611.688 284.03 612.366 284.574 612.91C285.118 613.454 285.795 613.726 286.606 613.726C287.416 613.726 288.094 613.454 288.638 612.91C289.182 612.366 289.454 611.688 289.454 610.878ZM300.619 611.566H293.915C294.053 612.27 294.379 612.824 294.891 613.23C295.403 613.624 296.043 613.822 296.811 613.822C297.867 613.822 298.635 613.432 299.115 612.654L300.299 613.326C299.509 614.531 298.336 615.134 296.779 615.134C295.52 615.134 294.485 614.739 293.675 613.95C292.885 613.139 292.491 612.131 292.491 610.926C292.491 609.71 292.88 608.707 293.659 607.918C294.437 607.118 295.445 606.718 296.683 606.718C297.856 606.718 298.811 607.134 299.547 607.966C300.293 608.776 300.667 609.768 300.667 610.942C300.667 611.144 300.651 611.352 300.619 611.566ZM296.683 608.03C295.947 608.03 295.328 608.238 294.827 608.654C294.336 609.07 294.032 609.635 293.915 610.35H299.259C299.141 609.614 298.848 609.043 298.379 608.638C297.909 608.232 297.344 608.03 296.683 608.03ZM306.384 606.926V608.27H304.256V612.606C304.256 613 304.331 613.283 304.48 613.454C304.64 613.614 304.88 613.699 305.2 613.71C305.52 613.71 305.915 613.699 306.384 613.678V614.926C305.158 615.086 304.262 614.984 303.696 614.622C303.142 614.259 302.864 613.587 302.864 612.606V608.27H301.28V606.926H302.864V605.102L304.256 604.686V606.926H306.384ZM313.279 609.086C313.279 609.598 313.807 609.998 314.863 610.286C315.258 610.371 315.589 610.462 315.855 610.558C316.133 610.643 316.431 610.776 316.751 610.958C317.082 611.139 317.333 611.379 317.503 611.678C317.674 611.976 317.759 612.328 317.759 612.734C317.759 613.459 317.477 614.04 316.911 614.478C316.346 614.915 315.631 615.134 314.767 615.134C313.999 615.134 313.333 614.968 312.767 614.638C312.213 614.296 311.818 613.838 311.583 613.262L312.783 612.574C312.911 612.958 313.151 613.262 313.503 613.486C313.855 613.71 314.277 613.822 314.767 613.822C315.247 613.822 315.631 613.731 315.919 613.55C316.207 613.368 316.351 613.096 316.351 612.734C316.351 612.19 315.823 611.795 314.767 611.55C314.415 611.454 314.149 611.379 313.967 611.326C313.786 611.272 313.535 611.176 313.215 611.038C312.906 610.899 312.671 610.755 312.511 610.606C312.351 610.446 312.202 610.238 312.063 609.982C311.935 609.715 311.871 609.422 311.871 609.102C311.871 608.408 312.138 607.838 312.671 607.39C313.215 606.942 313.893 606.718 314.703 606.718C315.354 606.718 315.93 606.867 316.431 607.166C316.943 607.454 317.327 607.859 317.583 608.382L316.415 609.038C316.127 608.355 315.557 608.014 314.703 608.014C314.298 608.014 313.957 608.11 313.679 608.302C313.413 608.494 313.279 608.755 313.279 609.086ZM323.447 606.926V608.27H321.319V612.606C321.319 613 321.393 613.283 321.543 613.454C321.703 613.614 321.943 613.699 322.263 613.71C322.583 613.71 322.977 613.699 323.447 613.678V614.926C322.22 615.086 321.324 614.984 320.759 614.622C320.204 614.259 319.927 613.587 319.927 612.606V608.27H318.343V606.926H319.927V605.102L321.319 604.686V606.926H323.447ZM331.313 608.302V606.926H332.705V614.926H331.313V613.55C330.63 614.606 329.622 615.134 328.289 615.134C327.158 615.134 326.203 614.728 325.425 613.918C324.635 613.096 324.241 612.099 324.241 610.926C324.241 609.763 324.635 608.771 325.425 607.95C326.214 607.128 327.169 606.718 328.289 606.718C329.622 606.718 330.63 607.246 331.313 608.302ZM328.465 613.79C329.275 613.79 329.953 613.518 330.497 612.974C331.041 612.408 331.313 611.726 331.313 610.926C331.313 610.115 331.041 609.438 330.497 608.894C329.953 608.339 329.275 608.062 328.465 608.062C327.665 608.062 326.993 608.339 326.449 608.894C325.905 609.438 325.633 610.115 325.633 610.926C325.633 611.726 325.905 612.408 326.449 612.974C326.993 613.518 327.665 613.79 328.465 613.79ZM336.206 606.926V608.27C336.664 607.278 337.496 606.782 338.702 606.782V608.238C338.019 608.206 337.432 608.387 336.942 608.782C336.451 609.176 336.206 609.811 336.206 610.686V614.926H334.814V606.926H336.206ZM344.603 606.926V608.27H342.475V612.606C342.475 613 342.55 613.283 342.699 613.454C342.859 613.614 343.099 613.699 343.419 613.71C343.739 613.71 344.134 613.699 344.603 613.678V614.926C343.376 615.086 342.48 614.984 341.915 614.622C341.36 614.259 341.083 613.587 341.083 612.606V608.27H339.499V606.926H341.083V605.102L342.475 604.686V606.926H344.603ZM353.525 611.566H346.821C346.959 612.27 347.285 612.824 347.797 613.23C348.309 613.624 348.949 613.822 349.717 613.822C350.773 613.822 351.541 613.432 352.021 612.654L353.205 613.326C352.415 614.531 351.242 615.134 349.685 615.134C348.426 615.134 347.391 614.739 346.581 613.95C345.791 613.139 345.397 612.131 345.397 610.926C345.397 609.71 345.786 608.707 346.565 607.918C347.343 607.118 348.351 606.718 349.589 606.718C350.762 606.718 351.717 607.134 352.453 607.966C353.199 608.776 353.573 609.768 353.573 610.942C353.573 611.144 353.557 611.352 353.525 611.566ZM349.589 608.03C348.853 608.03 348.234 608.238 347.733 608.654C347.242 609.07 346.938 609.635 346.821 610.35H352.165C352.047 609.614 351.754 609.043 351.285 608.638C350.815 608.232 350.25 608.03 349.589 608.03ZM361.781 608.302V603.726H363.173V614.926H361.781V613.55C361.099 614.606 360.091 615.134 358.757 615.134C357.627 615.134 356.672 614.728 355.893 613.918C355.104 613.096 354.709 612.099 354.709 610.926C354.709 609.763 355.104 608.771 355.893 607.95C356.683 607.128 357.637 606.718 358.757 606.718C360.091 606.718 361.099 607.246 361.781 608.302ZM358.933 613.79C359.744 613.79 360.421 613.518 360.965 612.974C361.509 612.408 361.781 611.726 361.781 610.926C361.781 610.115 361.509 609.438 360.965 608.894C360.421 608.339 359.744 608.062 358.933 608.062C358.133 608.062 357.461 608.339 356.917 608.894C356.373 609.438 356.101 610.115 356.101 610.926C356.101 611.726 356.373 612.408 356.917 612.974C357.461 613.518 358.133 613.79 358.933 613.79ZM366.162 615.102C365.874 615.102 365.629 615 365.426 614.798C365.224 614.595 365.122 614.35 365.122 614.062C365.122 613.774 365.224 613.528 365.426 613.326C365.629 613.123 365.874 613.022 366.162 613.022C366.461 613.022 366.706 613.123 366.898 613.326C367.101 613.528 367.202 613.774 367.202 614.062C367.202 614.35 367.101 614.595 366.898 614.798C366.706 615 366.461 615.102 366.162 615.102Z" fill="#7F7F7F"/>
<path d="M246.79 248.002C247.019 243.374 247.705 240.489 249.758 238.436C251.81 236.383 254.696 235.697 259.324 235.468M288.667 248.002C288.437 243.374 287.751 240.489 285.699 238.436C283.646 236.383 280.761 235.697 276.133 235.468M276.133 277.345C280.761 277.116 283.646 276.429 285.699 274.377C287.751 272.324 288.437 269.439 288.667 264.811M259.324 277.345C254.696 277.116 251.81 276.429 249.758 274.377C247.705 272.324 247.019 269.439 246.79 264.811" stroke="black" stroke-width="3.30609" stroke-linecap="round" stroke-linejoin="round"/>
<path d="M246.79 256.406H288.667" stroke="black" stroke-width="3.30609" stroke-linecap="round"/>
<path d="M254.504 256.406C254.504 249.103 260.425 243.182 267.728 243.182C267.728 246.834 270.689 249.794 274.34 249.794C275.829 249.794 277.203 249.302 278.309 248.472C279.969 250.682 280.953 253.429 280.953 256.406M279.183 263.019C276.897 266.971 272.623 269.631 267.728 269.631C262.833 269.631 258.56 266.971 256.273 263.019" fill="black"/>
<path d="M254.504 256.406C254.504 249.103 260.425 243.182 267.728 243.182C267.728 246.834 270.689 249.794 274.34 249.794C275.829 249.794 277.203 249.302 278.309 248.472C279.969 250.682 280.953 253.429 280.953 256.406M279.183 263.019C276.897 266.971 272.623 269.631 267.728 269.631C262.833 269.631 258.56 266.971 256.273 263.019" stroke="black" stroke-width="3.30609" stroke-linecap="round" stroke-linejoin="round"/>
<defs>
<linearGradient id="paint0_linear_2155_1569" x1="267.728" y1="109.175" x2="267.728" y2="406.514" gradientUnits="userSpaceOnUse">
<stop offset="0.605" stop-color="#EEEEEE"/>
<stop offset="1" stop-color="white"/>
</linearGradient>
<linearGradient id="paint1_linear_2155_1569" x1="267.729" y1="65.9559" x2="267.729" y2="449.733" gradientUnits="userSpaceOnUse">
<stop offset="0.605" stop-color="#EEEEEE"/>
<stop offset="1" stop-color="white"/>
</linearGradient>
<linearGradient id="paint2_linear_2155_1569" x1="267.729" y1="25.7627" x2="267.729" y2="489.926" gradientUnits="userSpaceOnUse">
<stop offset="0.605" stop-color="#EEEEEE"/>
<stop offset="1" stop-color="white"/>
</linearGradient>
<clipPath id="clip0_2155_1569">
<rect width="21.2499" height="21.2499" fill="white" transform="translate(414.715 141.168)"/>
</clipPath>
<clipPath id="clip1_2155_1569">
<rect width="16.8042" height="16.8042" fill="white" transform="translate(45.938 164.869)"/>
</clipPath>
<clipPath id="clip2_2155_1569">
<rect width="19.6283" height="19.6283" fill="white" transform="translate(495.185 241.685)"/>
</clipPath>
</defs>
</svg>
