<svg width="1512" height="982" viewBox="0 0 1512 982" fill="none" xmlns="http://www.w3.org/2000/svg">
<rect width="1512" height="982" fill="white"/>
<g clip-path="url(#clip0_3872_17193)">
<path d="M1144.18 608.754H367.822V609.142H1144.18V608.754Z" fill="#EBEBEB"/>
<path d="M735.837 539.506H436.01C431.123 539.506 427.147 535.529 427.147 530.643V109.187C427.147 104.301 431.123 100.324 436.01 100.324H735.837C740.722 100.324 744.698 104.301 744.698 109.187V530.643C744.698 535.529 740.722 539.506 735.837 539.506ZM436.01 100.714C431.336 100.714 427.535 104.515 427.535 109.189V530.645C427.535 535.318 431.336 539.119 436.01 539.119H735.837C740.509 539.119 744.31 535.318 744.31 530.645V109.187C744.31 104.515 740.509 100.713 735.837 100.713L436.01 100.714Z" fill="#EBEBEB"/>
<path d="M1071.68 539.506H771.857C766.97 539.506 762.995 535.529 762.995 530.643V109.187C762.995 104.301 766.972 100.324 771.857 100.324H1071.68C1076.57 100.324 1080.55 104.301 1080.55 109.187V530.643C1080.55 535.529 1076.57 539.506 1071.68 539.506ZM771.857 100.714C767.185 100.714 763.384 104.515 763.384 109.189V530.645C763.384 535.318 767.185 539.119 771.857 539.119H1071.68C1076.36 539.119 1080.16 535.318 1080.16 530.645V109.187C1080.16 104.515 1076.36 100.713 1071.68 100.713L771.857 100.714Z" fill="#EBEBEB"/>
<path d="M1066.39 623.542H1017.37V623.93H1066.39V623.542Z" fill="#EBEBEB"/>
<path d="M888.499 619.328H836.626V619.716H888.499V619.328Z" fill="#EBEBEB"/>
<path d="M1080.55 637.96H983.606V638.349H1080.55V637.96Z" fill="#EBEBEB"/>
<path d="M479.142 635.352H449.276V635.74H479.142V635.352Z" fill="#EBEBEB"/>
<path d="M540.002 635.352H492.968V635.74H540.002V635.352Z" fill="#EBEBEB"/>
<path d="M746.892 628.796H662.182V629.185H746.892V628.796Z" fill="#EBEBEB"/>
<path d="M790.57 198.422L702.087 286.907V581.605H1012.61V198.422H790.57Z" fill="white"/>
<path d="M1012.61 582.44H702.088C701.627 582.44 701.252 582.066 701.252 581.605V286.905C701.252 286.683 701.341 286.472 701.496 286.313L789.979 197.83C790.137 197.674 790.349 197.587 790.571 197.587H1012.61C1013.08 197.587 1013.45 197.961 1013.45 198.422V581.605C1013.45 582.066 1013.07 582.44 1012.61 582.44ZM702.922 580.77H1011.78V199.257H790.915L702.922 287.251V580.77Z" fill="#E0E0E0"/>
<path d="M702.086 286.907L794.924 298.883L790.569 198.422L702.086 286.907Z" fill="#E6E6E6"/>
<path d="M702.087 286.907H790.57V198.422L702.087 286.907Z" fill="white"/>
<path d="M790.57 287.74H702.087C701.749 287.74 701.445 287.537 701.316 287.225C701.187 286.913 701.258 286.553 701.496 286.313L789.979 197.831C790.218 197.593 790.578 197.518 790.89 197.65C791.202 197.779 791.406 198.084 791.406 198.422V286.905C791.406 287.366 791.03 287.74 790.57 287.74ZM704.103 286.07H789.733V200.439L704.103 286.07Z" fill="#E0E0E0"/>
<path d="M875.315 414.341L928.131 361.525C933.071 356.585 933.071 348.5 928.131 343.559C923.19 338.618 915.106 338.618 910.166 343.559L857.35 396.374L804.535 343.559C799.594 338.618 791.509 338.618 786.57 343.559C781.629 348.5 781.629 356.585 786.57 361.525L839.385 414.341L786.57 467.156C781.629 472.095 781.629 480.18 786.57 485.121C791.511 490.062 799.594 490.062 804.535 485.121L857.35 432.306L910.166 485.121C915.106 490.062 923.19 490.062 928.131 485.121C933.071 480.18 933.071 472.095 928.131 467.156L875.315 414.341Z" fill="#F0F0F0"/>
<path d="M714.123 370.627C707.923 376.827 697.87 376.827 691.67 370.627L640.721 319.678L663.173 297.226L714.123 348.175C720.323 354.375 720.323 364.427 714.123 370.627Z" fill="#F0F0F0"/>
<path d="M665.249 315.529L659.025 321.754C654.543 326.235 647.278 326.235 642.797 321.754L640.721 319.678L663.173 297.226L665.249 299.302C669.729 303.783 669.729 311.048 665.249 315.529Z" fill="#E0E0E0"/>
<path d="M499.344 155.851C456.262 198.933 456.262 268.766 499.344 311.846C542.418 354.92 612.259 354.926 655.339 311.846C698.413 268.772 698.413 198.925 655.339 155.851C612.259 112.77 542.418 112.777 499.344 155.851ZM648.965 305.47C609.411 345.024 545.273 345.024 505.719 305.47C466.166 265.917 466.166 201.779 505.719 162.225C545.273 122.671 609.411 122.671 648.965 162.225C688.519 201.78 688.519 265.917 648.965 305.47Z" fill="#E0E0E0"/>
<path d="M635.294 295.49C634.35 295.49 633.404 295.129 632.684 294.409C631.243 292.968 631.241 290.631 632.684 289.19C663.198 258.675 663.198 209.022 632.684 178.507C631.241 177.064 631.243 174.727 632.684 173.288C634.125 171.847 636.463 171.847 637.902 173.288C671.295 206.682 671.295 261.016 637.902 294.41C637.182 295.129 636.238 295.49 635.294 295.49Z" fill="#E0E0E0"/>
<path d="M497.596 256.498C495.923 256.498 494.41 255.355 494.007 253.658C488.574 230.706 492.875 206.308 505.81 186.721C506.932 185.016 509.221 184.548 510.923 185.674C512.624 186.797 513.092 189.085 511.969 190.787C500.155 208.682 496.225 230.979 501.19 251.958C501.661 253.941 500.434 255.931 498.45 256.399C498.162 256.467 497.877 256.498 497.596 256.498Z" fill="#E0E0E0"/>
<path d="M519.39 295.49C518.445 295.49 517.5 295.13 516.779 294.409C510.1 287.728 504.615 280.081 500.481 271.682C499.58 269.853 500.332 267.642 502.161 266.741C503.983 265.833 506.201 266.592 507.101 268.421C510.881 276.093 515.893 283.081 522 289.189C523.442 290.631 523.441 292.968 522 294.408C521.279 295.13 520.335 295.49 519.39 295.49Z" fill="#E0E0E0"/>
<path d="M663.31 560.724L661.782 559.196C658.195 555.61 658.195 549.793 661.782 546.205L695.49 512.497L710.008 527.015L676.3 560.723C672.713 564.311 666.897 564.311 663.31 560.724Z" fill="#F0F0F0"/>
<path d="M697.523 527.709L694.796 524.982C691.54 521.726 691.54 516.447 694.796 513.191L695.489 512.499L710.007 527.016L709.314 527.709C706.058 530.965 700.779 530.965 697.523 527.709Z" fill="#E0E0E0"/>
<path d="M809.333 433.759L775.333 467.759C767.037 476.055 767.037 489.633 775.333 497.931C783.629 506.229 797.208 506.227 805.506 497.931L819.258 484.179C822.098 467.015 818.791 449.019 809.333 433.759Z" fill="#F0F0F0"/>
<path d="M822.138 466.563C819.402 427.262 785.331 397.629 746.032 400.365C706.739 403.101 677.098 437.172 679.834 476.473C682.57 515.766 716.647 545.407 755.94 542.671C795.239 539.934 824.874 505.856 822.138 466.563ZM685.649 476.067C683.136 439.984 710.354 408.694 746.436 406.181C782.519 403.669 813.81 430.885 816.322 466.968C818.834 503.052 791.617 534.342 755.535 536.855C719.451 539.367 688.161 512.149 685.649 476.067Z" fill="#E0E0E0"/>
<path d="M714.661 513.281C703.962 503.974 696.804 490.594 695.742 475.363C695.651 474.048 696.642 472.91 697.957 472.817C699.271 472.725 700.411 473.716 700.504 475.033C702.441 502.87 726.67 523.94 754.504 522.002C755.818 521.911 756.959 522.904 757.05 524.218C757.14 525.533 756.15 526.673 754.835 526.764C739.606 527.823 725.363 522.589 714.661 513.281Z" fill="#E0E0E0"/>
<path d="M800.47 459.057C800.13 458.76 799.869 458.364 799.739 457.897C796.023 444.538 786.811 433.161 774.471 426.681C773.299 426.07 772.855 424.626 773.467 423.461C774.078 422.293 775.522 421.845 776.687 422.456C790.194 429.551 800.27 442 804.335 456.619C804.689 457.889 803.945 459.204 802.676 459.557C801.875 459.779 801.052 459.565 800.47 459.057Z" fill="#E0E0E0"/>
<path d="M745.741 420.452C745.28 420.051 744.972 419.474 744.925 418.817C744.835 417.502 745.826 416.362 747.141 416.27C753.236 415.846 759.293 416.416 765.146 417.964C766.424 418.306 767.181 419.609 766.844 420.882C766.507 422.157 765.201 422.916 763.926 422.579C758.58 421.164 753.046 420.646 747.473 421.034C746.815 421.079 746.2 420.854 745.741 420.452Z" fill="#E0E0E0"/>
<path d="M756.001 678.879C922.269 678.879 1057.06 671.008 1057.06 661.298C1057.06 651.588 922.269 643.717 756.001 643.717C589.734 643.717 454.948 651.588 454.948 661.298C454.948 671.008 589.734 678.879 756.001 678.879Z" fill="#F5F5F5"/>
<path d="M581.823 241.516C569.307 254.098 590.585 273.653 576.527 282.62C587.994 288.387 628.215 295.698 638.577 273.052C630.985 267.153 636.257 252.638 629.248 238.72C618.843 218.061 569.307 227.205 581.823 241.516Z" fill="#263238"/>
<path d="M582.957 241.184C579.055 240.529 565.896 247.088 575.684 264.681C583.592 278.893 577.007 279.91 577.007 279.91C577.007 279.91 584.817 280.129 580.158 269.555C575.181 258.264 572.858 246.55 582.957 241.184Z" fill="#263238"/>
<path d="M675.237 352.892C674.267 351.039 671.978 350.321 670.123 351.29L669.199 351.773C668.91 351.924 668.346 352.299 667.893 352.551C667.42 352.84 666.929 353.111 666.43 353.363C665.438 353.874 664.409 354.287 663.396 354.645C661.365 355.36 659.344 355.737 657.425 355.768C655.501 355.815 653.68 355.465 651.913 354.883C650.805 354.493 649.723 353.973 648.658 353.366C647.327 350.413 646.057 347.433 644.963 344.363C643.643 340.77 642.484 337.103 641.464 333.392C640.446 329.682 639.539 325.933 638.789 322.16C638.401 320.276 638.056 318.387 637.749 316.502L637.334 313.69C637.193 312.786 637.069 311.774 636.985 311.058L636.949 310.749C636.462 306.629 632.799 303.598 628.628 303.929C624.355 304.269 621.167 308.007 621.507 312.28C621.611 313.592 621.712 314.601 621.847 315.714C621.972 316.807 622.149 317.873 622.304 318.946C622.647 321.079 623.029 323.195 623.459 325.301C624.335 329.505 625.409 333.661 626.72 337.754C627.335 339.809 628.082 341.831 628.782 343.862C629.583 345.865 630.314 347.885 631.206 349.855C632.85 353.841 634.879 357.686 636.972 361.479L637.162 361.825C637.699 362.803 638.514 363.645 639.569 364.219C642.416 365.771 645.609 366.938 648.966 367.547C652.33 368.151 655.856 368.047 659.144 367.325C662.432 366.561 665.458 365.205 668.076 363.443C669.39 362.566 670.587 361.564 671.714 360.513C672.276 359.985 672.818 359.44 673.34 358.866C673.88 358.256 674.292 357.742 674.904 356.933C675.756 355.802 675.938 354.232 675.237 352.892Z" fill="#FF8B7B"/>
<path d="M685.585 338.358L685.138 338.347C682.115 338.274 679.233 339.622 677.349 341.985L669.851 351.394L669.788 357.826C675.806 360.217 683.452 353.765 683.452 353.765L687.316 352.798C690.01 352.124 691.755 349.522 691.358 346.773L690.811 342.991C690.433 340.379 688.225 338.421 685.585 338.358Z" fill="#FF8B7B"/>
<path d="M636.794 302.064C641.809 307.216 642.129 322.61 642.129 322.61L622.056 338.75C622.056 338.75 613.825 315.938 618.377 307.878C622.244 301.035 630.406 295.501 636.794 302.064Z" fill="#407BFF"/>
<g opacity="0.2">
<path d="M636.794 302.064C641.809 307.216 642.129 322.61 642.129 322.61L622.056 338.75C622.056 338.75 613.825 315.938 618.377 307.878C622.244 301.035 630.406 295.501 636.794 302.064Z" fill="white"/>
</g>
<path d="M603.61 647.987L614.691 649.211L616.209 619.083L605.129 617.86L603.61 647.987Z" fill="#FF8B7B"/>
<path d="M616.512 641.964H603.482C602.915 641.964 602.484 642.358 602.445 642.911L601.577 655.233C601.487 656.511 602.668 657.686 603.98 657.699C609.478 657.749 609.531 657.724 616.38 657.724C620.594 657.724 629.052 657.724 634.87 657.724C640.561 657.724 640.575 651.971 638.114 651.449C627.078 649.112 622.776 645.89 618.889 642.816C618.192 642.262 617.341 641.964 616.512 641.964Z" fill="#263238"/>
<path opacity="0.2" d="M616.206 619.091L615.425 634.62L604.278 634.634L605.121 617.867L616.206 619.091Z" fill="black"/>
<path d="M622.193 378.752C622.193 378.752 631.773 459.077 631.773 494.789C624.213 544.476 617.82 631.673 617.82 631.673L602.472 631.279C602.472 631.279 595.5 536.304 601.967 495.308C593.687 458.56 583.468 373.786 583.468 373.786L622.193 378.752Z" fill="#263238"/>
<path opacity="0.2" d="M592.62 401.114C590.68 401.968 588.925 402.899 587.31 403.877C589.422 419.731 592.201 439.683 595.151 458.098C600.182 442.944 597.465 409.622 592.62 401.114Z" fill="black"/>
<path d="M483.556 620.026L492.696 626.409L508.468 600.695L499.329 594.312L483.556 620.026Z" fill="#FF8B7B"/>
<path d="M495.012 623.041L487.222 612.595C486.884 612.14 486.311 612.03 485.844 612.329L475.447 619C474.369 619.691 474.131 621.341 474.908 622.4C478.154 626.838 478.206 626.866 482.3 632.356C484.819 635.733 489.874 642.514 493.352 647.178C496.754 651.74 501.375 648.312 500.321 646.028C495.598 635.785 495.609 630.409 495.75 625.456C495.778 624.566 495.508 623.706 495.012 623.041Z" fill="#263238"/>
<path opacity="0.2" d="M508.461 600.701L500.333 613.956L490.543 608.626L499.319 594.314L508.461 600.701Z" fill="black"/>
<path d="M539.655 630.811C531.718 630.811 515.197 630.811 514.919 619.133C514.698 609.969 526.036 606.171 535.811 605.705C540.377 605.469 544.237 609.006 544.456 613.563C544.465 613.771 544.468 613.978 544.462 614.181C555.546 613.655 562.722 611.234 565.343 607.099C571.262 597.77 559.934 573.728 548.978 550.478C536.098 523.142 521.501 492.16 521.214 462.493C521.17 457.93 524.833 454.196 529.396 454.152C529.423 454.152 529.449 454.152 529.477 454.152C534.002 454.152 537.692 457.8 537.736 462.334C537.986 488.387 551.766 517.633 563.924 543.436C577.957 573.224 590.079 598.947 579.296 615.948C572.953 625.951 559.986 630.811 539.655 630.811Z" fill="#407BFF"/>
<path d="M609.91 377.175C609.91 377.175 583.424 468.967 570.482 502.253C545.43 545.823 503.849 612.515 503.849 612.515L490.567 604.812C490.567 604.812 521.63 527.799 542.514 491.932C548.113 454.681 569.309 371.966 569.309 371.966L609.91 377.175Z" fill="#263238"/>
<path d="M497.397 630.537C498.117 631.503 498.914 632.259 499.709 632.421C500.252 632.531 500.754 632.36 501.198 631.915C501.528 631.582 501.566 631.211 501.539 630.957C501.344 629.095 496.538 626.679 495.577 626.213C495.467 626.16 495.338 626.199 495.257 626.313C495.176 626.426 495.161 626.586 495.218 626.712C495.723 627.808 496.499 629.334 497.397 630.537ZM500.706 630.479C500.865 630.693 500.963 630.892 500.982 631.069C500.991 631.154 500.982 631.258 500.851 631.388C500.538 631.702 500.202 631.818 499.822 631.741C498.807 631.536 497.459 629.879 496.142 627.252C497.852 628.154 499.959 629.477 500.706 630.479Z" fill="#407BFF"/>
<path d="M495.251 626.77C495.275 626.802 495.304 626.827 495.337 626.847C496.877 627.709 500.926 628.386 501.805 627.106C501.998 626.827 502.141 626.343 501.728 625.627C500.125 622.864 495.523 626.097 495.327 626.237C495.236 626.302 495.178 626.423 495.18 626.552C495.183 626.636 495.208 626.712 495.251 626.77ZM501.148 625.861C501.19 625.917 501.229 625.976 501.265 626.038C501.434 626.33 501.473 626.544 501.381 626.676C500.872 627.419 497.882 627.164 496.143 626.478C497.31 625.771 500.034 624.367 501.148 625.861Z" fill="#407BFF"/>
<path d="M623.947 644.534C625.15 644.534 626.234 644.348 626.839 643.807C627.252 643.438 627.415 642.935 627.324 642.311C627.255 641.848 626.979 641.595 626.76 641.464C625.15 640.509 620.341 642.916 619.392 643.41C619.284 643.466 619.239 643.593 619.281 643.725C619.323 643.857 619.442 643.966 619.577 643.994C620.757 644.245 622.447 644.534 623.947 644.534ZM625.878 641.848C626.145 641.848 626.363 641.888 626.516 641.98C626.589 642.023 626.668 642.093 626.695 642.276C626.76 642.716 626.651 643.054 626.363 643.312C625.591 644.003 623.457 644.095 620.563 643.579C622.308 642.745 624.628 641.848 625.878 641.848Z" fill="#407BFF"/>
<path d="M619.646 644.001C619.686 644.001 619.723 643.994 619.759 643.978C621.371 643.259 624.333 640.416 623.835 638.947C623.726 638.626 623.423 638.222 622.602 638.126C619.428 637.759 619.271 643.382 619.265 643.621C619.262 643.734 619.326 643.852 619.43 643.927C619.497 643.976 619.573 644.001 619.646 644.001ZM622.442 638.731C622.51 638.731 622.582 638.736 622.655 638.744C622.989 638.783 623.184 638.879 623.236 639.031C623.524 639.883 621.534 642.129 619.944 643.113C620.076 641.754 620.577 638.731 622.442 638.731Z" fill="#407BFF"/>
<path d="M569.309 371.967C579.52 373.276 601.212 376.049 622.19 378.742C634.125 338.584 638.041 319.197 639.106 309.852C639.659 305.006 636.734 300.438 632.082 298.973C628.921 297.976 624.978 296.8 621.002 295.785C619.642 295.436 618.267 295.105 616.915 294.805C609.172 293.086 601.849 292.428 592.904 291.715C591.711 291.616 590.525 291.549 589.339 291.484C586.996 291.372 584.706 291.329 582.569 291.329C575.861 291.327 570.609 297.064 571.192 303.746C571.602 308.438 571.933 312.733 572.181 316.706C572.775 325.994 572.953 333.482 572.82 340.009C572.545 352.155 571.18 360.99 569.309 371.967Z" fill="#407BFF"/>
<g opacity="0.3">
<path d="M569.309 371.967C579.52 373.276 601.212 376.049 622.19 378.742C634.125 338.584 638.041 319.197 639.106 309.852C639.659 305.006 636.734 300.438 632.082 298.973C628.921 297.976 624.978 296.8 621.002 295.785C619.642 295.436 618.267 295.105 616.915 294.805C609.172 293.086 601.849 292.428 592.904 291.715C591.711 291.616 590.525 291.549 589.339 291.484C586.996 291.372 584.706 291.329 582.569 291.329C575.861 291.327 570.609 297.064 571.192 303.746C571.602 308.438 571.933 312.733 572.181 316.706C572.775 325.994 572.953 333.482 572.82 340.009C572.545 352.155 571.18 360.99 569.309 371.967Z" fill="white"/>
</g>
<path opacity="0.3" d="M572.818 340.011C579.808 330.977 582.326 320.642 580.067 314.933L572.181 316.708C572.772 325.996 572.953 333.483 572.818 340.011Z" fill="#407BFF"/>
<path d="M621.001 295.793C619.634 295.435 618.268 295.109 616.917 294.799C609.169 293.091 601.84 292.423 592.897 291.709C591.701 291.616 590.521 291.554 589.341 291.492C588.642 291.461 587.959 291.429 587.276 291.398L588.906 294.116C589.123 294.488 594.403 303.121 607.601 312.407L610.411 314.363L613.113 312.298C620.643 306.537 621.622 299.317 621.622 295.948C621.42 295.901 621.202 295.839 621.001 295.793Z" fill="white"/>
<path d="M598.722 275.733C598.229 282.269 596.69 288.928 592.895 291.72C592.895 291.72 597.735 299.779 610.287 308.592C618.144 302.581 616.909 294.801 616.909 294.801C608.557 291.638 609.124 285.904 612.672 276.668L606.152 273.157C603.62 270.364 599.005 271.976 598.722 275.733Z" fill="#FF8B7B"/>
<path opacity="0.2" d="M606.143 273.151C603.758 270.516 599.502 271.808 598.807 275.139C601.478 280.037 604.907 284.149 610.212 286.807C610.141 284.04 611.119 280.677 612.661 276.662L606.143 273.151Z" fill="black"/>
<path d="M588.579 255.238C591.82 267.856 592.922 273.268 600.633 278.583C612.231 286.576 627.023 279.836 627.617 266.502C628.153 254.502 622.764 235.88 609.286 233.203C596.006 230.563 585.337 242.619 588.579 255.238Z" fill="#FF8B7B"/>
<path d="M620.697 235.745C607.759 247.131 594.357 250.302 594.357 250.302C594.357 250.302 603.989 270.81 585.948 265.635C580.717 248.167 586.022 239.11 590.55 234.84C604.911 230.18 615.004 228.627 620.697 235.745Z" fill="#263238"/>
<path d="M587.968 267.673C589.08 270.134 591.224 271.855 593.313 272.605C596.454 273.735 598.268 270.984 597.597 267.891C596.993 265.108 594.631 261.166 591.38 261.368C588.178 261.57 586.698 264.858 587.968 267.673Z" fill="#FF8B7B"/>
<path d="M568.912 368.764L565.92 373.192C565.689 373.536 566.075 373.966 566.685 374.045L622.147 381.156C622.623 381.217 623.049 381.035 623.117 380.739L624.201 376.067C624.275 375.742 623.898 375.413 623.376 375.346L569.823 368.478C569.431 368.427 569.061 368.542 568.912 368.764Z" fill="#407BFF"/>
<path d="M575.338 375.674L573.903 375.489C573.618 375.452 573.419 375.278 573.462 375.099L574.923 369.036C574.965 368.859 575.234 368.744 575.52 368.78L576.954 368.963C577.24 369 577.439 369.174 577.395 369.353L575.934 375.418C575.892 375.596 575.624 375.711 575.338 375.674Z" fill="#263238"/>
<path d="M618.052 381.152L616.617 380.968C616.331 380.931 616.132 380.757 616.176 380.579L617.637 374.515C617.679 374.338 617.949 374.222 618.235 374.259L619.669 374.442C619.955 374.48 620.154 374.654 620.11 374.832L618.649 380.895C618.607 381.072 618.337 381.189 618.052 381.152Z" fill="#263238"/>
<path d="M596.696 378.413L595.261 378.23C594.975 378.194 594.777 378.019 594.82 377.84L596.281 371.775C596.323 371.598 596.593 371.482 596.879 371.519L598.314 371.702C598.599 371.739 598.798 371.913 598.755 372.092L597.294 378.155C597.25 378.335 596.981 378.45 596.696 378.413Z" fill="#263238"/>
<path d="M610.197 254.697C610.397 255.738 611.11 256.474 611.79 256.343C612.47 256.213 612.858 255.264 612.658 254.224C612.457 253.184 611.745 252.448 611.065 252.578C610.386 252.708 609.996 253.657 610.197 254.697Z" fill="#263238"/>
<path d="M621.948 252.436C622.148 253.477 622.861 254.212 623.541 254.082C624.221 253.952 624.609 253.003 624.409 251.963C624.208 250.922 623.496 250.186 622.816 250.317C622.136 250.447 621.747 251.396 621.948 252.436Z" fill="#263238"/>
<path d="M622.531 250.432L624.889 249.232C624.889 249.232 623.982 251.429 622.531 250.432Z" fill="#263238"/>
<path d="M618.842 254.77C618.842 254.77 621.468 258.907 623.826 260.694C622.701 262.239 620.254 262.102 620.254 262.102L618.842 254.77Z" fill="#FF5652"/>
<path d="M611.505 266.295C611.425 266.386 611.402 266.52 611.458 266.635C611.533 266.79 611.719 266.854 611.873 266.779C616.045 264.76 619.424 266.732 619.458 266.753C619.605 266.841 619.799 266.788 619.885 266.645C619.973 266.498 619.925 266.309 619.779 266.218C619.63 266.128 616.088 264.048 611.602 266.218C611.565 266.239 611.533 266.265 611.505 266.295Z" fill="#263238"/>
<path d="M606.156 251.494C606.243 251.435 606.317 251.354 606.367 251.252C607.592 248.764 609.864 248.463 609.887 248.46C610.225 248.42 610.471 248.109 610.43 247.769C610.39 247.429 610.079 247.185 609.738 247.226C609.617 247.24 606.772 247.615 605.25 250.702C605.098 251.01 605.226 251.384 605.533 251.534C605.741 251.637 605.977 251.614 606.156 251.494Z" fill="#263238"/>
<path d="M625.438 243.628C625.465 243.602 625.491 243.572 625.513 243.538C625.707 243.255 625.635 242.867 625.353 242.673C622.518 240.723 619.852 241.786 619.74 241.833C619.421 241.963 619.271 242.327 619.401 242.645C619.532 242.962 619.893 243.112 620.21 242.984C620.31 242.943 622.392 242.147 624.648 243.698C624.898 243.87 625.23 243.834 625.438 243.628Z" fill="#263238"/>
<path d="M610.776 252.693L613.134 251.492C613.134 251.492 612.229 253.69 610.776 252.693Z" fill="#263238"/>
<path d="M529.473 470.675C524.948 470.675 521.258 467.028 521.214 462.495C521.001 440.437 528.349 421.822 542.46 408.658C559.832 392.451 586.937 384.925 618.796 387.44C641.139 389.213 655.468 383.763 672.055 377.455C674.782 376.419 677.538 375.371 680.364 374.341C684.645 372.775 689.391 374.99 690.952 379.278C692.512 383.565 690.303 388.305 686.016 389.865C683.266 390.867 680.583 391.889 677.928 392.896C661.025 399.326 643.549 405.962 617.492 403.91C590.308 401.75 567.67 407.733 553.729 420.738C542.949 430.797 537.567 444.791 537.736 462.334C537.78 466.896 534.117 470.631 529.557 470.675C529.529 470.675 529.501 470.675 529.473 470.675Z" fill="#407BFF"/>
<path d="M687.278 413.697L720.529 401.517L699.155 343.165L665.903 355.344C660.157 357.45 657.177 363.873 659.281 369.62L673.001 407.074C675.106 412.823 681.53 415.802 687.278 413.697Z" fill="#407BFF"/>
<path opacity="0.7" d="M687.278 413.697L720.529 401.517L699.155 343.165L665.903 355.344C660.157 357.45 657.177 363.873 659.281 369.62L673.001 407.074C675.106 412.823 681.53 415.802 687.278 413.697Z" fill="white"/>
<path opacity="0.2" d="M684.324 348.591L699.156 343.158L720.532 401.519L705.702 406.952C704.729 406.023 703.974 404.876 703.485 403.54L684.835 352.627C684.346 351.292 684.18 349.928 684.324 348.591Z" fill="#407BFF"/>
<path d="M732.445 357.744L730.987 358.278L734.541 367.982L735.999 367.448L732.445 357.744Z" fill="#407BFF"/>
<path d="M728.76 352.184L723.515 337.865C721.703 332.915 716.933 329.589 711.646 329.589C710.172 329.589 708.719 329.847 707.329 330.356L697.882 333.817L697.348 332.359L706.795 328.898C708.359 328.327 709.99 328.037 711.646 328.037C717.58 328.037 722.935 331.771 724.973 337.331L730.218 351.65L728.76 352.184Z" fill="#407BFF"/>
<path d="M719.876 407.433L733.708 402.367C738.219 400.715 740.557 395.673 738.905 391.162L719.872 339.201C718.22 334.69 713.178 332.352 708.667 334.004L694.836 339.07C690.325 340.722 687.987 345.764 689.639 350.275L708.672 402.236C710.323 406.747 715.366 409.085 719.876 407.433Z" fill="#407BFF"/>
<path d="M712.848 353.287C713.733 355.703 712.493 358.378 710.077 359.263C707.661 360.148 704.985 358.908 704.1 356.492C703.215 354.076 704.456 351.4 706.872 350.515C709.288 349.632 711.963 350.872 712.848 353.287Z" fill="#263238"/>
<path d="M724.442 384.945C725.327 387.361 724.086 390.037 721.67 390.922C719.254 391.807 716.579 390.566 715.694 388.15C714.809 385.734 716.049 383.059 718.465 382.174C720.881 381.289 723.557 382.529 724.442 384.945Z" fill="#263238"/>
<path d="M588.363 381.205L588.23 381.073C585.803 378.651 583.241 376.011 580.936 373.336C578.584 370.671 576.35 367.937 574.294 365.14C572.221 362.356 570.375 359.474 568.769 356.583C567.566 354.383 566.56 352.152 565.785 349.95C566.712 346.857 567.7 343.784 568.88 340.758C570.235 337.178 571.763 333.648 573.421 330.176C575.081 326.706 576.851 323.279 578.756 319.936C579.697 318.258 580.672 316.606 581.676 314.98L583.203 312.584C583.689 311.809 584.259 310.962 584.663 310.367L584.837 310.111C587.167 306.678 586.385 301.988 583.016 299.507C579.565 296.965 574.707 297.701 572.165 301.153C571.386 302.214 570.8 303.043 570.171 303.971C569.55 304.878 568.985 305.799 568.401 306.713C567.263 308.55 566.165 310.399 565.111 312.272C563.02 316.023 561.108 319.868 559.419 323.818C558.54 325.774 557.779 327.791 556.978 329.784C556.27 331.822 555.501 333.828 554.883 335.901C553.516 339.99 552.531 344.224 551.629 348.461L551.55 348.831C551.318 349.928 551.382 351.101 551.797 352.233C553.317 356.392 555.416 360.088 557.736 363.47C560.06 366.85 562.683 369.889 565.409 372.733C568.172 375.55 571.061 378.169 574.091 380.582C577.17 382.979 580.196 385.208 583.658 387.265C585.143 388.147 587.09 387.951 588.366 386.673C589.875 385.158 589.872 382.711 588.363 381.205Z" fill="#FF8B7B"/>
<path d="M606.352 388.918L606.158 388.515C604.845 385.791 602.332 383.839 599.37 383.24L587.578 380.855L581.826 383.729C582.44 390.176 591.667 394.041 591.667 394.041L594.289 397.04C596.117 399.13 599.228 399.498 601.494 397.893L604.612 395.682C606.762 394.154 607.498 391.295 606.352 388.918Z" fill="#FF8B7B"/>
<path d="M577.736 292.394C571.203 295.394 564.234 305.755 564.234 305.755L578.269 331.926C578.269 331.926 594.166 313.611 592.821 304.451C591.681 296.675 586.06 288.575 577.736 292.394Z" fill="#407BFF"/>
<g opacity="0.3">
<path d="M577.736 292.394C571.203 295.394 564.234 305.755 564.234 305.755L578.269 331.926C578.269 331.926 594.166 313.611 592.821 304.451C591.681 296.675 586.06 288.575 577.736 292.394Z" fill="white"/>
</g>
<path d="M1025.07 635.202C1011.39 635.204 997.939 632.386 991.426 623.88C960.547 583.561 960.828 502.3 961.098 423.714C961.244 381.413 964.587 341.457 959.89 310.415C957.12 292.115 947.529 279.544 937.708 273.055C923.243 263.499 903.357 268.63 894.864 270.824C890.448 271.967 885.944 269.31 884.801 264.891C883.661 260.474 886.318 255.969 890.734 254.827C901.353 252.083 926.224 245.664 946.816 259.27C960.702 268.445 972.723 284.82 976.223 307.942C981.112 340.24 977.766 380.814 977.619 423.769C977.358 499.587 977.088 577.985 1004.54 613.834C1006.76 616.725 1015.43 619.312 1029.77 618.574C1031.04 618.511 1032.29 618.422 1033.51 618.317C1032.98 617.225 1032.68 616 1032.68 614.705C1032.68 610.143 1036.38 606.445 1040.94 606.445C1058.99 606.445 1068.49 607.963 1070.33 616.256C1070.86 618.63 1071.14 624.593 1062.4 628.658C1055.89 631.693 1040.33 635.202 1025.07 635.202Z" fill="#407BFF"/>
<path d="M844.303 642.321L827.451 635.701L836.341 606.49L853.191 613.11L844.303 642.321Z" fill="#FFC3BD"/>
<path d="M827.056 633.909L846.034 641.367C846.534 641.562 846.831 642.081 846.747 642.612L844.892 654.436C844.699 655.662 843.393 656.381 842.246 655.908C837.481 653.94 830.024 650.686 823.98 648.31C820.261 646.849 813.196 644.519 808.061 642.502C803.04 640.528 804.251 635.143 806.533 635.51C816.769 637.151 820.689 635.409 824.773 633.883C825.511 633.606 826.324 633.622 827.056 633.909Z" fill="#263238"/>
<path opacity="0.2" d="M853.193 613.121L836.337 606.496L831.763 621.557L848.62 628.181L853.193 613.121Z" fill="black"/>
<path d="M874.27 387.039C874.27 387.039 859.027 462.412 853.19 499.579C846.647 541.242 829.328 617.337 829.328 617.337L851.734 626.141C851.734 626.141 883.732 548.235 888.193 510.495C901.62 479.841 928.331 389.588 928.331 389.588L874.27 387.039Z" fill="#407BFF"/>
<path d="M828.254 617.472L852.843 627.134L857.046 619.688L829.551 608.291L828.254 617.472Z" fill="#263238"/>
<path d="M822.228 634.23C821.298 633.864 820.489 633.364 820.118 632.681C819.825 632.14 819.826 631.547 820.12 630.914C820.34 630.443 820.686 630.314 820.938 630.289C822.571 630.125 825.557 634.101 825.893 634.555C825.967 634.656 825.975 634.791 825.911 634.899C825.848 635.007 825.725 635.066 825.601 635.048C824.671 634.92 823.359 634.676 822.228 634.23ZM821.405 630.983C821.253 630.924 821.118 630.896 821 630.909C820.907 630.918 820.786 630.957 820.683 631.178C820.472 631.626 820.468 632.022 820.663 632.384C821.112 633.208 822.679 633.913 824.919 634.311C823.854 632.971 822.343 631.353 821.405 630.983Z" fill="#407BFF"/>
<path d="M825.531 635.03C825.483 635.011 825.441 634.982 825.405 634.941C824.41 633.757 823.016 630.114 823.811 628.852C823.955 628.622 824.306 628.268 825.031 628.454C825.498 628.577 825.868 628.864 826.119 629.313C827.084 631.033 825.989 634.677 825.942 634.831C825.908 634.941 825.818 635.024 825.706 635.045C825.647 635.058 825.587 635.052 825.531 635.03ZM825.011 629.102C824.967 629.085 824.924 629.071 824.877 629.058C824.483 628.956 824.382 629.116 824.34 629.184C823.871 629.929 824.634 632.567 825.517 634.018C825.779 632.931 826.199 630.72 825.579 629.616C825.435 629.364 825.25 629.195 825.011 629.102Z" fill="#407BFF"/>
<path opacity="0.2" d="M907.136 432.724C898.694 443.198 895.358 469.863 895.39 492.101C901.09 476.406 907.616 456.465 913.364 438.359L907.136 432.724Z" fill="black"/>
<path d="M945.689 645.135H927.584L925.174 614.697H943.279L945.689 645.135Z" fill="#FFC3BD"/>
<path d="M926.561 643.613H946.953C947.49 643.613 947.956 643.986 948.072 644.511L950.668 656.193C950.937 657.404 949.985 658.552 948.744 658.53C943.589 658.442 935.459 658.139 928.966 658.139C924.971 658.139 917.543 658.553 912.026 658.553C906.63 658.553 905.789 653.099 908.046 652.604C918.173 650.388 921.185 647.334 924.427 644.419C925.011 643.896 925.775 643.613 926.561 643.613Z" fill="#263238"/>
<path opacity="0.2" d="M943.282 614.705H925.169L926.421 630.395H944.533L943.282 614.705Z" fill="black"/>
<path d="M896.195 387.998C896.195 387.998 906.225 471.978 908.335 502.212C911.271 544.283 922.617 627.356 922.617 627.356H946.69C946.69 627.356 949.272 542.516 944.912 504.765C950.911 471.843 949.013 390.518 949.013 390.518L896.195 387.998Z" fill="#407BFF"/>
<path d="M921.664 627.876H948.083L949.272 619.408L919.513 618.857L921.664 627.876Z" fill="#263238"/>
<path d="M922.187 645.678C921.187 645.678 920.253 645.509 919.656 645.008C919.186 644.612 918.97 644.059 919.012 643.362C919.045 642.845 919.321 642.598 919.546 642.481C921.006 641.731 925.24 644.34 925.718 644.638C925.825 644.705 925.881 644.827 925.861 644.953C925.841 645.076 925.748 645.175 925.627 645.206C924.714 645.425 923.403 645.678 922.187 645.678ZM920.234 642.956C920.071 642.956 919.934 642.981 919.83 643.036C919.747 643.079 919.649 643.158 919.635 643.401C919.604 643.896 919.742 644.265 920.057 644.531C920.776 645.135 922.492 645.217 924.723 644.768C923.24 643.91 921.242 642.956 920.234 642.956Z" fill="#407BFF"/>
<path d="M925.551 645.214C925.5 645.214 925.449 645.202 925.402 645.177C924.042 644.438 921.412 641.558 921.69 640.093C921.739 639.828 921.936 639.368 922.68 639.277C923.16 639.219 923.609 639.351 924.006 639.677C925.533 640.926 925.848 644.717 925.86 644.879C925.87 644.994 925.815 645.102 925.719 645.165C925.669 645.199 925.61 645.214 925.551 645.214ZM922.898 639.887C922.851 639.887 922.804 639.89 922.756 639.896C922.353 639.946 922.317 640.131 922.301 640.21C922.137 641.075 923.812 643.252 925.165 644.278C925.011 643.169 924.592 640.96 923.612 640.159C923.39 639.977 923.154 639.887 922.898 639.887Z" fill="#407BFF"/>
<path d="M904.503 272.172L904.439 272.171L889.932 271.983C885.066 271.95 880.217 271.84 875.427 271.756C873.969 271.727 872.535 271.661 871.095 271.605C871.174 271.518 871.247 271.433 871.326 271.346C872.348 270.262 873.368 269.143 874.43 268.075C874.952 267.522 875.476 266.975 876.006 266.447C876.498 265.915 877.105 265.326 877.442 264.899L878.765 263.232C880.27 261.308 880.881 258.724 880.195 256.184C879.037 251.903 874.629 249.371 870.348 250.527L867.474 251.304C866.578 251.574 865.696 251.858 864.822 252.151C863.084 252.766 861.365 253.425 859.676 254.164C856.297 255.639 853.026 257.406 849.816 259.413C846.636 261.441 843.531 263.783 840.579 266.438C837.61 269.078 834.874 272.202 832.337 275.619C831.755 276.416 831.204 277.343 830.792 278.285C827.786 285.171 830.931 293.19 837.817 296.194L839.227 296.809C843.107 298.503 846.127 299.31 849.103 300.082C852.049 300.838 854.85 301.327 857.591 301.792C860.333 302.242 863.033 302.635 865.697 302.967C868.365 303.265 871.017 303.529 873.646 303.751C878.908 304.226 884.125 304.45 889.325 304.61C894.561 304.729 899.627 304.76 905.023 304.518C913.508 304.118 920.365 297.166 920.477 288.559C920.59 279.627 913.44 272.287 904.503 272.172Z" fill="#FFC3BD"/>
<path d="M912.947 300.505C900.423 314.801 870.268 309.453 870.268 309.453L871.92 273.859C871.92 273.859 887.147 270.259 903.389 270.224C921.08 270.186 922.979 289.055 912.947 300.505Z" fill="#263238"/>
<path d="M879.506 289.573C878.753 295.309 878.023 303.046 877.472 313.452C870.933 346.513 868.491 369.948 874.269 387.038C878.829 392.675 938.323 391.586 949.019 390.51C955.19 375.137 955.876 331.012 956.601 293.921C956.808 283.362 949.24 274.249 938.834 272.454C925.435 270.142 911.922 269.573 898.269 271.086C888.509 272.167 880.785 279.834 879.506 289.573Z" fill="#263238"/>
<path opacity="0.2" d="M937.223 312.136C937.422 323.453 945.615 341.51 954.834 350.663C955.396 341.114 955.759 330.756 956.04 320.314L937.223 312.136Z" fill="black"/>
<path d="M989.044 334.114L988.521 332.863C986.264 327.472 983.712 322.531 980.922 317.86C978.155 313.202 975.184 308.807 972.083 304.561C969.006 300.31 965.724 296.278 962.368 292.328C960.668 290.371 958.975 288.415 957.188 286.53L954.496 283.698L951.588 280.816C945.543 274.849 935.786 274.524 929.389 280.279C922.749 286.252 922.207 296.477 928.181 303.116L928.64 303.627L937.765 313.771C940.844 317.221 943.829 320.736 946.774 324.222C948.204 325.98 949.679 327.734 951.026 329.514C952.46 331.263 953.771 333.034 955.108 334.801C957.028 337.485 958.887 340.147 960.545 342.774C960.333 343.979 959.993 345.329 959.593 346.707C958.564 350.189 957.227 354.009 955.668 357.798C954.164 361.63 952.47 365.505 950.759 369.421C949.068 373.32 947.209 377.328 945.58 381.205L945.434 381.547C944.243 384.391 944.725 387.788 946.944 390.214C949.987 393.54 955.15 393.768 958.476 390.723C962.031 387.469 965.12 384.171 968.213 380.665C971.267 377.163 974.169 373.507 976.945 369.631C978.333 367.696 979.642 365.673 980.946 363.589C982.254 361.512 983.513 359.335 984.664 356.99C985.827 354.64 986.951 352.197 987.929 349.346C988.896 346.477 989.746 343.306 989.912 338.921C989.968 337.341 989.694 335.669 989.044 334.114Z" fill="#FFC3BD"/>
<path d="M939.889 272.662C960.839 276.235 974.48 304.595 974.48 304.595L949.234 331.673C949.234 331.673 934.679 316.856 925.989 303.136C916.522 288.191 924.883 270.103 939.889 272.662Z" fill="#263238"/>
<path d="M901.621 227.949C898.124 222.075 896.995 213.939 903.4 205.737C899.165 206.402 896.997 202.686 896.997 202.686C896.997 202.686 906.293 193.982 921.977 193.99C940.777 193.999 942.181 201.241 941.538 206.197C954.388 207.017 963.767 240.461 931.175 246.367C912.533 226.665 901.621 227.949 901.621 227.949Z" fill="#263238"/>
<path d="M940.344 206.747C940.344 206.747 945.583 201.407 939.071 194.938C941.56 195.702 944.356 197.645 945.19 201.028C946.119 204.792 943.58 207.801 940.344 206.747Z" fill="#263238"/>
<path d="M933.141 242.225C932.644 252.513 931.722 264.222 933.444 272.447C930.777 276.647 923.948 281.49 911.695 282.578C907.335 280.108 901.596 274.077 903.596 270.968C908.806 267.629 911.007 257.514 909.512 249.96L933.141 242.225Z" fill="#FFC3BD"/>
<path opacity="0.2" d="M927.183 244.166L909.507 249.956C910.103 253.004 910.121 256.444 909.576 259.714C914.855 259.544 922.177 255.559 924.919 251.83C927.217 248.713 927.525 246.141 927.183 244.166Z" fill="black"/>
<path d="M938.31 225.915C935.034 238.541 933.757 246.097 926.025 251.398C914.392 259.371 899.759 250.443 899.197 237.093C898.691 225.076 904.135 206.447 917.634 203.799C930.935 201.192 941.586 213.288 938.31 225.915Z" fill="#FFC3BD"/>
<path d="M935.692 207.849C930.158 211.796 923.275 228.5 937.318 235.2C949.8 224.185 946.549 207.849 935.692 207.849Z" fill="#263238"/>
<path d="M938.899 209.855C941.264 198.854 913.526 193.178 904.728 206.012C901.755 213.701 937.216 220.581 938.899 209.855Z" fill="#263238"/>
<path d="M918.191 239.32C918.191 239.32 918.188 239.317 918.185 239.317C913.398 237.193 909.512 237.061 909.055 237.011C908.857 237.006 908.704 237.157 908.726 237.352C908.748 237.548 908.934 237.714 909.136 237.714C909.405 237.75 913.268 237.877 917.896 239.925C918.083 240.004 918.299 239.927 918.375 239.756C918.451 239.588 918.365 239.397 918.191 239.32Z" fill="#263238"/>
<path d="M941.334 239.72C938.949 242.304 935.592 243.546 932.703 243.616C928.357 243.72 927.248 239.574 929.349 236.031C931.238 232.841 935.778 228.942 939.712 230.529C943.587 232.091 944.062 236.765 941.334 239.72Z" fill="#FFC3BD"/>
<path d="M918.228 225.709C918.025 226.749 917.309 227.485 916.629 227.353C915.949 227.221 915.562 226.269 915.764 225.229C915.967 224.188 916.683 223.452 917.363 223.584C918.045 223.716 918.432 224.667 918.228 225.709Z" fill="#263238"/>
<path d="M906.469 223.415C906.266 224.455 905.55 225.191 904.87 225.059C904.19 224.927 903.803 223.976 904.005 222.935C904.208 221.895 904.924 221.159 905.604 221.291C906.284 221.423 906.671 222.375 906.469 223.415Z" fill="#263238"/>
<path d="M910.106 224.662C910.106 224.662 906.569 230.203 903.4 232.592C904.906 234.669 908.381 234.259 908.381 234.259L910.106 224.662Z" fill="#ED847E"/>
<path d="M916.535 219.665C916.755 219.609 916.997 219.674 917.157 219.856C918.991 221.94 921.266 221.636 921.289 221.632C921.629 221.583 921.946 221.819 921.996 222.159C922.045 222.497 921.823 222.817 921.469 222.865C921.35 222.882 918.499 223.264 916.224 220.679C915.997 220.421 916.022 220.027 916.28 219.8C916.356 219.733 916.443 219.688 916.535 219.665Z" fill="#263238"/>
<path d="M902.833 216.221C902.71 216.187 902.597 216.116 902.513 216.007C902.3 215.737 902.347 215.346 902.617 215.133C905.32 213.001 908.054 213.883 908.171 213.928C908.497 214.038 908.671 214.391 908.562 214.717C908.452 215.041 908.084 215.212 907.776 215.108C907.68 215.083 905.551 214.405 903.388 216.11C903.224 216.239 903.017 216.274 902.833 216.221Z" fill="#263238"/>
<path d="M952.963 380.762L939.621 380.667L946.515 395.976C946.515 395.976 957.892 393.535 957.272 387.361L952.963 380.762Z" fill="#FFC3BD"/>
<path d="M932.84 391.168L935.031 395.483C936.245 397.873 939.08 398.941 941.569 397.949L946.515 395.976L939.621 380.667L934.321 384.701C932.331 386.217 931.707 388.937 932.84 391.168Z" fill="#FFC3BD"/>
<path d="M851.436 369.479C849.36 369.479 847.284 368.703 845.68 367.142C842.409 363.962 842.333 358.733 845.513 355.461C851.452 349.347 856.806 344.623 861.527 340.454C872.926 330.394 876.848 326.531 876.475 318.946C876.304 315.463 874.954 310.498 873.525 305.24C870.128 292.75 866.28 278.596 872.867 267.256C876.41 261.156 882.422 256.976 890.738 254.827C895.147 253.69 899.66 256.342 900.802 260.76C901.941 265.177 899.286 269.682 894.869 270.823C889.024 272.332 887.616 274.758 887.152 275.554C884.034 280.922 887.046 292.002 889.465 300.904C891.138 307.052 892.717 312.858 892.976 318.133C893.759 334.042 884.36 342.338 872.46 352.839C867.96 356.812 862.858 361.312 857.36 366.972C855.74 368.642 853.59 369.479 851.436 369.479Z" fill="#407BFF"/>
<path d="M869.546 250.852L882.475 247.552L879.463 264.069C879.463 264.069 867.833 264.434 866.951 258.293L869.546 250.852Z" fill="#FFC3BD"/>
<path d="M891.535 256.313L890.54 260.618C889.908 263.351 887.296 265.151 884.519 264.767L879.461 264.07L882.474 247.554L888.403 250.116C890.809 251.155 892.125 253.762 891.535 256.313Z" fill="#FFC3BD"/>
<path d="M795.363 393.813L795 393.45C793.438 391.888 793.438 389.332 795 387.77L840.8 341.97C842.362 340.408 844.918 340.408 846.48 341.97L846.843 342.333C848.405 343.895 848.405 346.451 846.843 348.013L801.043 393.815C799.481 395.375 796.925 395.375 795.363 393.813Z" fill="#263238"/>
<path d="M819.202 417.654L818.838 417.29C817.276 415.728 817.276 413.172 818.838 411.61L864.64 365.808C866.202 364.246 868.758 364.246 870.32 365.808L870.683 366.172C872.245 367.734 872.245 370.29 870.683 371.852L824.883 417.654C823.319 419.216 820.764 419.216 819.202 417.654Z" fill="#263238"/>
<path d="M885.609 370.988L853.338 403.26L809.396 359.318L841.668 327.046C845.995 322.719 853.077 322.719 857.404 327.046L885.609 355.251C889.937 359.579 889.937 366.661 885.609 370.988Z" fill="#407BFF"/>
<path opacity="0.7" d="M885.609 370.988L853.338 403.26L809.396 359.318L841.668 327.046C845.995 322.719 853.077 322.719 857.404 327.046L885.609 355.251C889.937 359.579 889.937 366.661 885.609 370.988Z" fill="white"/>
<path opacity="0.2" d="M820.554 348.146L809.385 359.315L853.333 403.263L864.502 392.094C864.069 390.821 863.345 389.654 862.34 388.649L823.999 350.308C822.995 349.303 821.827 348.58 820.554 348.146Z" fill="#407BFF"/>
<path d="M858.976 405.156L858.186 405.946C854.789 409.343 849.231 409.343 845.834 405.946L806.704 366.816C803.307 363.419 803.307 357.862 806.704 354.464L807.494 353.674C810.892 350.277 816.449 350.277 819.846 353.674L858.976 392.804C862.372 396.201 862.372 401.76 858.976 405.156Z" fill="#407BFF"/>
<path d="M756.001 209.144C771.904 209.144 784.795 196.252 784.795 180.35C784.795 164.448 771.904 151.557 756.001 151.557C740.099 151.557 727.208 164.448 727.208 180.35C727.208 196.252 740.099 209.144 756.001 209.144Z" fill="#263238"/>
<path d="M756.001 204.847C769.531 204.847 780.498 193.879 780.498 180.35C780.498 166.821 769.531 155.853 756.001 155.853C742.472 155.853 731.504 166.821 731.504 180.35C731.504 193.879 742.472 204.847 756.001 204.847Z" fill="white"/>
<path d="M772.565 175.069H761.085L770.726 146.548L739.439 185.632H750.92L741.278 214.153L772.565 175.069Z" fill="#407BFF"/>
<path d="M773.556 201.324L776.98 197.901L738.451 159.373L735.028 162.796L773.556 201.324Z" fill="#263238"/>
</g>
<path d="M555.7 783.188C552.167 786.688 547.867 788.438 542.8 788.438C537.733 788.438 533.433 786.688 529.9 783.188C526.4 779.621 524.65 775.304 524.65 770.238C524.65 765.138 526.4 760.838 529.9 757.338C533.433 753.804 537.733 752.038 542.8 752.038C547.867 752.038 552.167 753.804 555.7 757.338C559.233 760.838 561 765.138 561 770.238C561 775.338 559.233 779.654 555.7 783.188ZM534.75 778.488C536.883 780.621 539.567 781.688 542.8 781.688C546.033 781.688 548.717 780.621 550.85 778.488C553.017 776.321 554.1 773.571 554.1 770.238C554.1 766.904 553.017 764.154 550.85 761.988C548.683 759.821 546 758.738 542.8 758.738C539.6 758.738 536.917 759.821 534.75 761.988C532.583 764.154 531.5 766.904 531.5 770.238C531.5 773.571 532.583 776.321 534.75 778.488ZM586.85 784.638C584.316 787.171 581.183 788.438 577.45 788.438C573.716 788.438 570.583 787.171 568.05 784.638C565.516 782.104 564.25 778.971 564.25 775.238C564.25 771.538 565.516 768.421 568.05 765.888C570.616 763.321 573.75 762.038 577.45 762.038C581.15 762.038 584.283 763.321 586.85 765.888C589.416 768.454 590.7 771.571 590.7 775.238C590.7 778.938 589.416 782.071 586.85 784.638ZM572.6 780.188C573.9 781.488 575.516 782.138 577.45 782.138C579.383 782.138 581 781.488 582.3 780.188C583.6 778.888 584.25 777.238 584.25 775.238C584.25 773.238 583.6 771.588 582.3 770.288C581 768.988 579.383 768.338 577.45 768.338C575.516 768.338 573.9 768.988 572.6 770.288C571.333 771.621 570.7 773.271 570.7 775.238C570.7 777.204 571.333 778.854 572.6 780.188ZM609.787 762.038C613.154 762.038 616.02 763.321 618.387 765.888C620.787 768.454 621.987 771.571 621.987 775.238C621.987 778.971 620.787 782.104 618.387 784.638C616.054 787.171 613.187 788.438 609.787 788.438C606.287 788.438 603.587 787.221 601.687 784.788V797.738H595.237V762.738H601.687V765.688C603.587 763.254 606.287 762.038 609.787 762.038ZM603.637 780.338C604.937 781.638 606.587 782.288 608.587 782.288C610.587 782.288 612.237 781.638 613.537 780.338C614.87 779.004 615.537 777.304 615.537 775.238C615.537 773.171 614.87 771.488 613.537 770.188C612.237 768.854 610.587 768.188 608.587 768.188C606.587 768.188 604.937 768.854 603.637 770.188C602.337 771.488 601.687 773.171 601.687 775.238C601.687 777.304 602.337 779.004 603.637 780.338ZM631.949 769.838C631.949 770.904 633.465 771.821 636.499 772.588C637.565 772.821 638.532 773.104 639.399 773.438C640.265 773.738 641.132 774.188 641.999 774.788C642.899 775.354 643.599 776.121 644.099 777.088C644.599 778.054 644.849 779.171 644.849 780.438C644.849 783.004 643.882 784.988 641.949 786.388C640.015 787.754 637.632 788.438 634.799 788.438C629.665 788.438 626.165 786.454 624.299 782.488L629.899 779.338C630.665 781.504 632.299 782.588 634.799 782.588C637.099 782.588 638.249 781.871 638.249 780.438C638.249 779.371 636.732 778.454 633.699 777.688C632.565 777.388 631.599 777.088 630.799 776.788C629.999 776.488 629.132 776.054 628.199 775.488C627.265 774.888 626.549 774.138 626.049 773.238C625.582 772.304 625.349 771.221 625.349 769.988C625.349 767.521 626.249 765.588 628.049 764.188C629.882 762.754 632.149 762.038 634.849 762.038C636.882 762.038 638.732 762.504 640.399 763.438C642.065 764.338 643.382 765.638 644.349 767.338L638.849 770.338C638.049 768.638 636.715 767.788 634.849 767.788C634.015 767.788 633.315 767.988 632.749 768.388C632.215 768.754 631.949 769.238 631.949 769.838ZM655.541 775.988H650.441L649.091 762.738V752.738H656.841V762.738L655.541 775.988ZM657.241 784.138C657.241 785.304 656.824 786.304 655.991 787.138C655.158 787.971 654.158 788.388 652.991 788.388C651.824 788.388 650.824 787.971 649.991 787.138C649.158 786.304 648.741 785.304 648.741 784.138C648.741 782.971 649.158 781.971 649.991 781.138C650.824 780.304 651.824 779.888 652.991 779.888C654.158 779.888 655.158 780.304 655.991 781.138C656.824 781.971 657.241 782.971 657.241 784.138ZM695.32 752.738H703.12L691.12 774.088V787.738H684.27V774.088L672.32 752.738H680.12L687.72 767.338L695.32 752.738ZM722.494 784.638C719.961 787.171 716.827 788.438 713.094 788.438C709.361 788.438 706.227 787.171 703.694 784.638C701.161 782.104 699.894 778.971 699.894 775.238C699.894 771.538 701.161 768.421 703.694 765.888C706.261 763.321 709.394 762.038 713.094 762.038C716.794 762.038 719.927 763.321 722.494 765.888C725.061 768.454 726.344 771.571 726.344 775.238C726.344 778.938 725.061 782.071 722.494 784.638ZM708.244 780.188C709.544 781.488 711.161 782.138 713.094 782.138C715.027 782.138 716.644 781.488 717.944 780.188C719.244 778.888 719.894 777.238 719.894 775.238C719.894 773.238 719.244 771.588 717.944 770.288C716.644 768.988 715.027 768.338 713.094 768.338C711.161 768.338 709.544 768.988 708.244 770.288C706.977 771.621 706.344 773.271 706.344 775.238C706.344 777.204 706.977 778.854 708.244 780.188ZM747.382 776.238V762.738H753.832V787.738H747.382V784.938C745.848 787.271 743.365 788.438 739.932 788.438C737.198 788.438 734.932 787.521 733.132 785.688C731.365 783.821 730.482 781.288 730.482 778.088V762.738H736.932V777.288C736.932 778.921 737.365 780.188 738.232 781.088C739.132 781.988 740.348 782.438 741.882 782.438C743.582 782.438 744.915 781.921 745.882 780.888C746.882 779.821 747.382 778.271 747.382 776.238ZM764.189 764.238H759.789L758.939 752.738H765.039L764.189 764.238ZM776.589 762.738V767.038C777.156 765.471 778.123 764.288 779.489 763.488C780.856 762.654 782.423 762.238 784.189 762.238V769.438C782.223 769.171 780.456 769.571 778.889 770.638C777.356 771.671 776.589 773.388 776.589 775.788V787.738H770.139V762.738H776.589ZM811.334 777.888H792.484C793.317 781.021 795.667 782.588 799.534 782.588C802.001 782.588 803.867 781.754 805.134 780.088L810.334 783.088C807.867 786.654 804.234 788.438 799.434 788.438C795.301 788.438 791.984 787.188 789.484 784.688C786.984 782.188 785.734 779.038 785.734 775.238C785.734 771.504 786.967 768.371 789.434 765.838C791.867 763.304 795.034 762.038 798.934 762.038C802.634 762.038 805.651 763.304 807.984 765.838C810.384 768.371 811.584 771.504 811.584 775.238C811.584 775.938 811.501 776.821 811.334 777.888ZM792.384 772.888H805.134C804.767 771.254 804.017 770.004 802.884 769.138C801.784 768.271 800.467 767.838 798.934 767.838C797.201 767.838 795.767 768.288 794.634 769.188C793.501 770.054 792.751 771.288 792.384 772.888ZM858.337 783.188C854.803 786.688 850.503 788.438 845.437 788.438C840.37 788.438 836.07 786.688 832.537 783.188C829.037 779.621 827.287 775.304 827.287 770.238C827.287 765.138 829.037 760.838 832.537 757.338C836.07 753.804 840.37 752.038 845.437 752.038C850.503 752.038 854.803 753.804 858.337 757.338C861.87 760.838 863.637 765.138 863.637 770.238C863.637 775.338 861.87 779.654 858.337 783.188ZM837.387 778.488C839.52 780.621 842.203 781.688 845.437 781.688C848.67 781.688 851.353 780.621 853.487 778.488C855.653 776.321 856.737 773.571 856.737 770.238C856.737 766.904 855.653 764.154 853.487 761.988C851.32 759.821 848.637 758.738 845.437 758.738C842.237 758.738 839.553 759.821 837.387 761.988C835.22 764.154 834.137 766.904 834.137 770.238C834.137 773.571 835.22 776.321 837.387 778.488ZM895.486 751.538C897.72 751.538 900.553 751.888 903.986 752.588V787.738H897.536V757.238C897.236 757.204 896.553 757.188 895.486 757.188C891.953 757.188 890.186 758.788 890.186 761.988V762.738H894.386V768.938H890.186V787.738H883.736V768.938H876.336V787.738H869.886V768.938H866.286V762.738H869.886V762.488C869.886 758.921 870.87 756.238 872.836 754.438C874.836 752.604 877.77 751.804 881.636 752.038V758.238C878.103 758.004 876.336 759.421 876.336 762.488V762.738H883.736V761.988C883.736 755.021 887.653 751.538 895.486 751.538ZM913.086 759.738C912.019 759.738 911.086 759.354 910.286 758.588C909.519 757.788 909.136 756.854 909.136 755.788C909.136 754.721 909.519 753.788 910.286 752.988C911.086 752.188 912.019 751.788 913.086 751.788C914.186 751.788 915.119 752.188 915.886 752.988C916.686 753.788 917.086 754.721 917.086 755.788C917.086 756.854 916.686 757.788 915.886 758.588C915.119 759.354 914.186 759.738 913.086 759.738ZM916.336 787.738H909.886V762.738H916.336V787.738ZM936.139 762.038C938.906 762.038 941.156 762.954 942.889 764.788C944.689 766.654 945.589 769.188 945.589 772.388V787.738H939.139V773.188C939.139 771.554 938.689 770.288 937.789 769.388C936.922 768.488 935.722 768.038 934.189 768.038C932.489 768.038 931.139 768.571 930.139 769.638C929.172 770.671 928.689 772.204 928.689 774.238V787.738H922.239V762.738H928.689V765.538C930.222 763.204 932.706 762.038 936.139 762.038ZM975.396 777.888H956.546C957.38 781.021 959.73 782.588 963.596 782.588C966.063 782.588 967.93 781.754 969.196 780.088L974.396 783.088C971.93 786.654 968.296 788.438 963.496 788.438C959.363 788.438 956.046 787.188 953.546 784.688C951.046 782.188 949.796 779.038 949.796 775.238C949.796 771.504 951.03 768.371 953.496 765.838C955.93 763.304 959.096 762.038 962.996 762.038C966.696 762.038 969.713 763.304 972.046 765.838C974.446 768.371 975.646 771.504 975.646 775.238C975.646 775.938 975.563 776.821 975.396 777.888ZM956.446 772.888H969.196C968.83 771.254 968.08 770.004 966.946 769.138C965.846 768.271 964.53 767.838 962.996 767.838C961.263 767.838 959.83 768.288 958.696 769.188C957.563 770.054 956.813 771.288 956.446 772.888ZM986.147 784.138C986.147 785.304 985.731 786.304 984.897 787.138C984.064 787.971 983.064 788.388 981.897 788.388C980.731 788.388 979.731 787.971 978.897 787.138C978.064 786.304 977.647 785.304 977.647 784.138C977.647 782.971 978.064 781.971 978.897 781.138C979.731 780.304 980.731 779.888 981.897 779.888C983.064 779.888 984.064 780.304 984.897 781.138C985.731 781.971 986.147 782.971 986.147 784.138Z" fill="black"/>
<path d="M504.565 849.128C501.365 849.128 498.735 848.078 496.675 845.978C494.615 843.898 493.585 841.318 493.585 838.238C493.585 835.158 494.615 832.578 496.675 830.498C498.735 828.398 501.365 827.348 504.565 827.348C506.465 827.348 508.225 827.808 509.845 828.728C511.465 829.648 512.725 830.888 513.625 832.448L511.195 833.858C510.595 832.698 509.695 831.778 508.495 831.098C507.315 830.398 506.005 830.048 504.565 830.048C502.125 830.048 500.145 830.828 498.625 832.388C497.105 833.928 496.345 835.878 496.345 838.238C496.345 840.578 497.105 842.518 498.625 844.058C500.145 845.618 502.125 846.398 504.565 846.398C506.005 846.398 507.315 846.058 508.495 845.378C509.695 844.678 510.595 843.758 511.195 842.618L513.625 843.998C512.745 845.558 511.495 846.808 509.875 847.748C508.275 848.668 506.505 849.128 504.565 849.128ZM524.073 833.348C525.833 833.348 527.243 833.908 528.303 835.028C529.363 836.128 529.893 837.628 529.893 839.528V848.738H527.283V839.678C527.283 838.478 526.953 837.538 526.293 836.858C525.633 836.178 524.723 835.838 523.563 835.838C522.223 835.838 521.163 836.258 520.383 837.098C519.603 837.918 519.213 839.148 519.213 840.788V848.738H516.603V827.738H519.213V835.898C520.253 834.198 521.873 833.348 524.073 833.348ZM547.937 842.438H535.367C535.627 843.758 536.237 844.798 537.197 845.558C538.157 846.298 539.357 846.668 540.797 846.668C542.777 846.668 544.217 845.938 545.117 844.478L547.337 845.738C545.857 847.998 543.657 849.128 540.737 849.128C538.377 849.128 536.437 848.388 534.917 846.908C533.437 845.388 532.697 843.498 532.697 841.238C532.697 838.958 533.427 837.078 534.887 835.598C536.347 834.098 538.237 833.348 540.557 833.348C542.757 833.348 544.547 834.128 545.927 835.688C547.327 837.208 548.027 839.068 548.027 841.268C548.027 841.648 547.997 842.038 547.937 842.438ZM540.557 835.808C539.177 835.808 538.017 836.198 537.077 836.978C536.157 837.758 535.587 838.818 535.367 840.158H545.387C545.167 838.778 544.617 837.708 543.737 836.948C542.857 836.188 541.797 835.808 540.557 835.808ZM558.048 849.128C555.788 849.128 553.908 848.378 552.408 846.878C550.908 845.358 550.158 843.478 550.158 841.238C550.158 838.998 550.908 837.128 552.408 835.628C553.908 834.108 555.788 833.348 558.048 833.348C559.528 833.348 560.858 833.708 562.038 834.428C563.218 835.128 564.098 836.078 564.678 837.278L562.488 838.538C562.108 837.738 561.518 837.098 560.718 836.618C559.938 836.138 559.048 835.898 558.048 835.898C556.548 835.898 555.288 836.408 554.268 837.428C553.268 838.468 552.768 839.738 552.768 841.238C552.768 842.718 553.268 843.978 554.268 845.018C555.288 846.038 556.548 846.548 558.048 846.548C559.048 846.548 559.948 846.318 560.748 845.858C561.548 845.378 562.158 844.738 562.578 843.938L564.798 845.228C564.138 846.428 563.208 847.378 562.008 848.078C560.808 848.778 559.488 849.128 558.048 849.128ZM572.655 840.998L580.065 848.738H576.825L569.985 841.628V848.738H567.375V827.738H569.985V840.368L576.465 833.738H579.825L572.655 840.998ZM596.142 845.498L600.462 833.738H603.252L597.132 849.668C596.472 851.368 595.562 852.658 594.402 853.538C593.262 854.438 591.952 854.838 590.472 854.738V852.308C592.312 852.448 593.662 851.428 594.522 849.248L594.792 848.678L588.252 833.738H591.042L596.142 845.498ZM617.505 846.848C615.985 848.368 614.115 849.128 611.895 849.128C609.675 849.128 607.805 848.368 606.285 846.848C604.765 845.328 604.005 843.458 604.005 841.238C604.005 839.018 604.765 837.148 606.285 835.628C607.805 834.108 609.675 833.348 611.895 833.348C614.115 833.348 615.985 834.108 617.505 835.628C619.045 837.168 619.815 839.038 619.815 841.238C619.815 843.438 619.045 845.308 617.505 846.848ZM611.895 846.578C613.395 846.578 614.655 846.068 615.675 845.048C616.695 844.028 617.205 842.758 617.205 841.238C617.205 839.718 616.695 838.448 615.675 837.428C614.655 836.408 613.395 835.898 611.895 835.898C610.415 835.898 609.165 836.408 608.145 837.428C607.125 838.448 606.615 839.718 606.615 841.238C606.615 842.758 607.125 844.028 608.145 845.048C609.165 846.068 610.415 846.578 611.895 846.578ZM633.242 841.688V833.738H635.852V848.738H633.242V846.578C632.202 848.278 630.582 849.128 628.382 849.128C626.622 849.128 625.212 848.578 624.152 847.478C623.092 846.358 622.562 844.848 622.562 842.948V833.738H625.172V842.798C625.172 843.998 625.502 844.938 626.162 845.618C626.822 846.298 627.732 846.638 628.892 846.638C630.232 846.638 631.292 846.228 632.072 845.408C632.852 844.568 633.242 843.328 633.242 841.688ZM642.436 833.738V836.258C643.296 834.398 644.856 833.468 647.116 833.468V836.198C645.836 836.138 644.736 836.478 643.816 837.218C642.896 837.958 642.436 839.148 642.436 840.788V848.738H639.826V833.738H642.436ZM664.219 849.128C661.959 849.128 660.079 848.378 658.579 846.878C657.079 845.358 656.329 843.478 656.329 841.238C656.329 838.998 657.079 837.128 658.579 835.628C660.079 834.108 661.959 833.348 664.219 833.348C665.699 833.348 667.029 833.708 668.209 834.428C669.389 835.128 670.269 836.078 670.849 837.278L668.659 838.538C668.279 837.738 667.689 837.098 666.889 836.618C666.109 836.138 665.219 835.898 664.219 835.898C662.719 835.898 661.459 836.408 660.439 837.428C659.439 838.468 658.939 839.738 658.939 841.238C658.939 842.718 659.439 843.978 660.439 845.018C661.459 846.038 662.719 846.548 664.219 846.548C665.219 846.548 666.119 846.318 666.919 845.858C667.719 845.378 668.329 844.738 668.749 843.938L670.969 845.228C670.309 846.428 669.379 847.378 668.179 848.078C666.979 848.778 665.659 849.128 664.219 849.128ZM686.001 846.848C684.481 848.368 682.611 849.128 680.391 849.128C678.171 849.128 676.301 848.368 674.781 846.848C673.261 845.328 672.501 843.458 672.501 841.238C672.501 839.018 673.261 837.148 674.781 835.628C676.301 834.108 678.171 833.348 680.391 833.348C682.611 833.348 684.481 834.108 686.001 835.628C687.541 837.168 688.311 839.038 688.311 841.238C688.311 843.438 687.541 845.308 686.001 846.848ZM680.391 846.578C681.891 846.578 683.151 846.068 684.171 845.048C685.191 844.028 685.701 842.758 685.701 841.238C685.701 839.718 685.191 838.448 684.171 837.428C683.151 836.408 681.891 835.898 680.391 835.898C678.911 835.898 677.661 836.408 676.641 837.428C675.621 838.448 675.111 839.718 675.111 841.238C675.111 842.758 675.621 844.028 676.641 845.048C677.661 846.068 678.911 846.578 680.391 846.578ZM698.858 833.348C700.618 833.348 702.028 833.908 703.088 835.028C704.148 836.128 704.678 837.628 704.678 839.528V848.738H702.068V839.678C702.068 838.478 701.738 837.538 701.078 836.858C700.418 836.178 699.508 835.838 698.348 835.838C697.008 835.838 695.948 836.258 695.168 837.098C694.388 837.918 693.998 839.148 693.998 840.788V848.738H691.388V833.738H693.998V835.898C695.038 834.198 696.658 833.348 698.858 833.348ZM715.792 833.348C717.552 833.348 718.962 833.908 720.022 835.028C721.082 836.128 721.612 837.628 721.612 839.528V848.738H719.002V839.678C719.002 838.478 718.672 837.538 718.012 836.858C717.352 836.178 716.442 835.838 715.282 835.838C713.942 835.838 712.882 836.258 712.102 837.098C711.322 837.918 710.932 839.148 710.932 840.788V848.738H708.322V833.738H710.932V835.898C711.972 834.198 713.592 833.348 715.792 833.348ZM739.655 842.438H727.085C727.345 843.758 727.955 844.798 728.915 845.558C729.875 846.298 731.075 846.668 732.515 846.668C734.495 846.668 735.935 845.938 736.835 844.478L739.055 845.738C737.575 847.998 735.375 849.128 732.455 849.128C730.095 849.128 728.155 848.388 726.635 846.908C725.155 845.388 724.415 843.498 724.415 841.238C724.415 838.958 725.145 837.078 726.605 835.598C728.065 834.098 729.955 833.348 732.275 833.348C734.475 833.348 736.265 834.128 737.645 835.688C739.045 837.208 739.745 839.068 739.745 841.268C739.745 841.648 739.715 842.038 739.655 842.438ZM732.275 835.808C730.895 835.808 729.735 836.198 728.795 836.978C727.875 837.758 727.305 838.818 727.085 840.158H737.105C736.885 838.778 736.335 837.708 735.455 836.948C734.575 836.188 733.515 835.808 732.275 835.808ZM749.766 849.128C747.506 849.128 745.626 848.378 744.126 846.878C742.626 845.358 741.876 843.478 741.876 841.238C741.876 838.998 742.626 837.128 744.126 835.628C745.626 834.108 747.506 833.348 749.766 833.348C751.246 833.348 752.576 833.708 753.756 834.428C754.936 835.128 755.816 836.078 756.396 837.278L754.206 838.538C753.826 837.738 753.236 837.098 752.436 836.618C751.656 836.138 750.766 835.898 749.766 835.898C748.266 835.898 747.006 836.408 745.986 837.428C744.986 838.468 744.486 839.738 744.486 841.238C744.486 842.718 744.986 843.978 745.986 845.018C747.006 846.038 748.266 846.548 749.766 846.548C750.766 846.548 751.666 846.318 752.466 845.858C753.266 845.378 753.876 844.738 754.296 843.938L756.516 845.228C755.856 846.428 754.926 847.378 753.726 848.078C752.526 848.778 751.206 849.128 749.766 849.128ZM767.253 833.738V836.258H763.263V844.388C763.263 845.128 763.403 845.658 763.683 845.978C763.983 846.278 764.433 846.438 765.033 846.458C765.633 846.458 766.373 846.438 767.253 846.398V848.738C764.953 849.038 763.273 848.848 762.213 848.168C761.173 847.488 760.653 846.228 760.653 844.388V836.258H757.683V833.738H760.653V830.318L763.263 829.538V833.738H767.253ZM771.663 831.008C771.163 831.008 770.743 830.838 770.403 830.498C770.063 830.158 769.893 829.748 769.893 829.268C769.893 828.788 770.063 828.378 770.403 828.038C770.743 827.678 771.163 827.498 771.663 827.498C772.143 827.498 772.553 827.678 772.893 828.038C773.233 828.378 773.403 828.788 773.403 829.268C773.403 829.748 773.233 830.158 772.893 830.498C772.553 830.838 772.143 831.008 771.663 831.008ZM772.953 848.738H770.343V833.738H772.953V848.738ZM789.595 846.848C788.075 848.368 786.205 849.128 783.985 849.128C781.765 849.128 779.895 848.368 778.375 846.848C776.855 845.328 776.095 843.458 776.095 841.238C776.095 839.018 776.855 837.148 778.375 835.628C779.895 834.108 781.765 833.348 783.985 833.348C786.205 833.348 788.075 834.108 789.595 835.628C791.135 837.168 791.905 839.038 791.905 841.238C791.905 843.438 791.135 845.308 789.595 846.848ZM783.985 846.578C785.485 846.578 786.745 846.068 787.765 845.048C788.785 844.028 789.295 842.758 789.295 841.238C789.295 839.718 788.785 838.448 787.765 837.428C786.745 836.408 785.485 835.898 783.985 835.898C782.505 835.898 781.255 836.408 780.235 837.428C779.215 838.448 778.705 839.718 778.705 841.238C778.705 842.758 779.215 844.028 780.235 845.048C781.255 846.068 782.505 846.578 783.985 846.578ZM802.452 833.348C804.212 833.348 805.622 833.908 806.682 835.028C807.742 836.128 808.272 837.628 808.272 839.528V848.738H805.662V839.678C805.662 838.478 805.332 837.538 804.672 836.858C804.012 836.178 803.102 835.838 801.942 835.838C800.602 835.838 799.542 836.258 798.762 837.098C797.982 837.918 797.592 839.148 797.592 840.788V848.738H794.982V833.738H797.592V835.898C798.632 834.198 800.252 833.348 802.452 833.348ZM831.836 836.318V833.738H834.446V848.738H831.836V846.158C830.556 848.138 828.666 849.128 826.166 849.128C824.046 849.128 822.256 848.368 820.796 846.848C819.316 845.308 818.576 843.438 818.576 841.238C818.576 839.058 819.316 837.198 820.796 835.658C822.276 834.118 824.066 833.348 826.166 833.348C828.666 833.348 830.556 834.338 831.836 836.318ZM826.496 846.608C828.016 846.608 829.286 846.098 830.306 845.078C831.326 844.018 831.836 842.738 831.836 841.238C831.836 839.718 831.326 838.448 830.306 837.428C829.286 836.388 828.016 835.868 826.496 835.868C824.996 835.868 823.736 836.388 822.716 837.428C821.696 838.448 821.186 839.718 821.186 841.238C821.186 842.738 821.696 844.018 822.716 845.078C823.736 846.098 824.996 846.608 826.496 846.608ZM845.87 833.348C847.63 833.348 849.04 833.908 850.1 835.028C851.16 836.128 851.69 837.628 851.69 839.528V848.738H849.08V839.678C849.08 838.478 848.75 837.538 848.09 836.858C847.43 836.178 846.52 835.838 845.36 835.838C844.02 835.838 842.96 836.258 842.18 837.098C841.4 837.918 841.01 839.148 841.01 840.788V848.738H838.4V833.738H841.01V835.898C842.05 834.198 843.67 833.348 845.87 833.348ZM867.754 836.318V827.738H870.364V848.738H867.754V846.158C866.474 848.138 864.584 849.128 862.084 849.128C859.964 849.128 858.174 848.368 856.714 846.848C855.234 845.308 854.494 843.438 854.494 841.238C854.494 839.058 855.234 837.198 856.714 835.658C858.194 834.118 859.984 833.348 862.084 833.348C864.584 833.348 866.474 834.338 867.754 836.318ZM862.414 846.608C863.934 846.608 865.204 846.098 866.224 845.078C867.244 844.018 867.754 842.738 867.754 841.238C867.754 839.718 867.244 838.448 866.224 837.428C865.204 836.388 863.934 835.868 862.414 835.868C860.914 835.868 859.654 836.388 858.634 837.428C857.614 838.448 857.104 839.718 857.104 841.238C857.104 842.738 857.614 844.018 858.634 845.078C859.654 846.098 860.914 846.608 862.414 846.608ZM889.978 833.738V836.258H885.988V844.388C885.988 845.128 886.128 845.658 886.408 845.978C886.708 846.278 887.158 846.438 887.758 846.458C888.358 846.458 889.098 846.438 889.978 846.398V848.738C887.678 849.038 885.998 848.848 884.938 848.168C883.898 847.488 883.378 846.228 883.378 844.388V836.258H880.408V833.738H883.378V830.318L885.988 829.538V833.738H889.978ZM895.766 833.738V836.258C896.626 834.398 898.186 833.468 900.446 833.468V836.198C899.166 836.138 898.066 836.478 897.146 837.218C896.226 837.958 895.766 839.148 895.766 840.788V848.738H893.156V833.738H895.766ZM909.472 845.498L913.792 833.738H916.582L910.462 849.668C909.802 851.368 908.892 852.658 907.732 853.538C906.592 854.438 905.282 854.838 903.802 854.738V852.308C905.642 852.448 906.992 851.428 907.852 849.248L908.122 848.678L901.582 833.738H904.372L909.472 845.498ZM938.681 836.318V833.738H941.291V848.738H938.681V846.158C937.401 848.138 935.511 849.128 933.011 849.128C930.891 849.128 929.101 848.368 927.641 846.848C926.161 845.308 925.421 843.438 925.421 841.238C925.421 839.058 926.161 837.198 927.641 835.658C929.121 834.118 930.911 833.348 933.011 833.348C935.511 833.348 937.401 834.338 938.681 836.318ZM933.341 846.608C934.861 846.608 936.131 846.098 937.151 845.078C938.171 844.018 938.681 842.738 938.681 841.238C938.681 839.718 938.171 838.448 937.151 837.428C936.131 836.388 934.861 835.868 933.341 835.868C931.841 835.868 930.581 836.388 929.561 837.428C928.541 838.448 928.031 839.718 928.031 841.238C928.031 842.738 928.541 844.018 929.561 845.078C930.581 846.098 931.841 846.608 933.341 846.608ZM957.696 836.318V833.738H960.276V848.108C960.276 850.328 959.526 852.048 958.026 853.268C956.506 854.508 954.706 855.128 952.626 855.128C950.946 855.128 949.496 854.808 948.276 854.168C947.056 853.548 946.136 852.648 945.516 851.468L947.796 850.178C948.616 851.858 950.246 852.698 952.686 852.698C954.246 852.698 955.466 852.288 956.346 851.468C957.246 850.648 957.696 849.528 957.696 848.108V845.978C956.376 847.978 954.496 848.978 952.056 848.978C949.896 848.978 948.086 848.218 946.626 846.698C945.146 845.158 944.406 843.308 944.406 841.148C944.406 838.988 945.146 837.148 946.626 835.628C948.086 834.108 949.896 833.348 952.056 833.348C954.516 833.348 956.396 834.338 957.696 836.318ZM957.696 841.148C957.696 839.648 957.186 838.388 956.166 837.368C955.146 836.348 953.876 835.838 952.356 835.838C950.836 835.838 949.566 836.348 948.546 837.368C947.526 838.388 947.016 839.648 947.016 841.148C947.016 842.668 947.526 843.938 948.546 844.958C949.566 845.978 950.836 846.488 952.356 846.488C953.876 846.488 955.146 845.978 956.166 844.958C957.186 843.938 957.696 842.668 957.696 841.148ZM976.65 836.318V833.738H979.26V848.738H976.65V846.158C975.37 848.138 973.48 849.128 970.98 849.128C968.86 849.128 967.07 848.368 965.61 846.848C964.13 845.308 963.39 843.438 963.39 841.238C963.39 839.058 964.13 837.198 965.61 835.658C967.09 834.118 968.88 833.348 970.98 833.348C973.48 833.348 975.37 834.338 976.65 836.318ZM971.31 846.608C972.83 846.608 974.1 846.098 975.12 845.078C976.14 844.018 976.65 842.738 976.65 841.238C976.65 839.718 976.14 838.448 975.12 837.428C974.1 836.388 972.83 835.868 971.31 835.868C969.81 835.868 968.55 836.388 967.53 837.428C966.51 838.448 966 839.718 966 841.238C966 842.738 966.51 844.018 967.53 845.078C968.55 846.098 969.81 846.608 971.31 846.608ZM984.534 831.008C984.034 831.008 983.614 830.838 983.274 830.498C982.934 830.158 982.764 829.748 982.764 829.268C982.764 828.788 982.934 828.378 983.274 828.038C983.614 827.678 984.034 827.498 984.534 827.498C985.014 827.498 985.424 827.678 985.764 828.038C986.104 828.378 986.274 828.788 986.274 829.268C986.274 829.748 986.104 830.158 985.764 830.498C985.424 830.838 985.014 831.008 984.534 831.008ZM985.824 848.738H983.214V833.738H985.824V848.738ZM997.276 833.348C999.036 833.348 1000.45 833.908 1001.51 835.028C1002.57 836.128 1003.1 837.628 1003.1 839.528V848.738H1000.49V839.678C1000.49 838.478 1000.16 837.538 999.496 836.858C998.836 836.178 997.926 835.838 996.766 835.838C995.426 835.838 994.366 836.258 993.586 837.098C992.806 837.918 992.416 839.148 992.416 840.788V848.738H989.806V833.738H992.416V835.898C993.456 834.198 995.076 833.348 997.276 833.348ZM1008.39 849.068C1007.85 849.068 1007.39 848.878 1007.01 848.498C1006.63 848.118 1006.44 847.658 1006.44 847.118C1006.44 846.578 1006.63 846.118 1007.01 845.738C1007.39 845.358 1007.85 845.168 1008.39 845.168C1008.95 845.168 1009.41 845.358 1009.77 845.738C1010.15 846.118 1010.34 846.578 1010.34 847.118C1010.34 847.658 1010.15 848.118 1009.77 848.498C1009.41 848.878 1008.95 849.068 1008.39 849.068Z" fill="#6C6C6C"/>
<defs>
<clipPath id="clip0_3872_17193">
<rect width="776" height="728" fill="white" transform="translate(368 15)"/>
</clipPath>
</defs>
</svg>
