<svg width="46" height="46" viewBox="0 0 46 46" fill="none" xmlns="http://www.w3.org/2000/svg">
<rect x="0.831055" y="0.729004" width="44" height="44" rx="7.5" fill="#F8F3FF"/>
<rect x="0.831055" y="0.729004" width="44" height="44" rx="7.5" stroke="#9747FF"/>
<path d="M19.8966 19.7952C19.8966 21.4159 18.5828 22.7296 16.9622 22.7296C15.3416 22.7296 14.0278 21.4159 14.0278 19.7952C14.0278 18.1746 15.3416 16.8608 16.9622 16.8608C18.5828 16.8608 19.8966 18.1746 19.8966 19.7952Z" stroke="#9747FF" stroke-width="1.62546"/>
<path d="M31.6349 28.5984C31.6349 30.2191 30.3212 31.5328 28.7005 31.5328C27.0798 31.5328 25.7661 30.2191 25.7661 28.5984C25.7661 26.9778 27.0798 25.6641 28.7005 25.6641C30.3212 25.6641 31.6349 26.9778 31.6349 28.5984Z" stroke="#9747FF" stroke-width="1.62546"/>
<path d="M19.897 19.7949H24.7876C26.632 19.7949 27.5542 19.7949 28.1271 20.3679C28.7001 20.9409 28.7001 21.8631 28.7001 23.7074V25.6637" stroke="#9747FF" stroke-width="1.62546" stroke-linecap="round" stroke-linejoin="round"/>
<path d="M16.9629 22.7295V32.5108M16.9629 16.8608V12.9482" stroke="#9747FF" stroke-width="1.62546" stroke-linecap="round" stroke-linejoin="round"/>
</svg>
