<svg width="16" height="16" viewBox="0 0 16 16" fill="none" xmlns="http://www.w3.org/2000/svg">
    <path d="M9.82991 4.54508C9.82991 5.41862 9.12175 6.12678 8.2482 6.12678C7.37466 6.12678 6.6665 5.41862 6.6665 4.54508C6.6665 3.67154 7.37466 2.96338 8.2482 2.96338C9.12175 2.96338 9.82991 3.67154 9.82991 4.54508Z"
          stroke="black" stroke-width="0.94902"/>
    <path d="M8.24854 6.12695V10.5557" stroke="black" stroke-width="0.94902" stroke-linecap="round"
          stroke-linejoin="round"/>
    <path d="M6.6665 12.0741C6.6665 11.3583 6.6665 11.0004 6.88887 10.7781C7.11121 10.5557 7.46912 10.5557 8.18494 10.5557H8.31147C9.02729 10.5557 9.38519 10.5557 9.60752 10.7781C9.82991 11.0004 9.82991 11.3583 9.82991 12.0741V12.2006C9.82991 12.9164 9.82991 13.2744 9.60752 13.4967C9.38519 13.7191 9.02729 13.7191 8.31147 13.7191H8.18494C7.46912 13.7191 7.11121 13.7191 6.88887 13.4967C6.6665 13.2744 6.6665 12.9164 6.6665 12.2006V12.0741Z"
          stroke="black" stroke-width="0.94902"/>
</svg>
