<svg width="46" height="46" viewBox="0 0 46 46" fill="none" xmlns="http://www.w3.org/2000/svg">
<rect x="0.6875" y="1.31274" width="44" height="44" rx="7.5" fill="#F8F3FF"/>
<rect x="0.6875" y="1.31274" width="44" height="44" rx="7.5" stroke="#9747FF"/>
<path d="M19.7533 20.3784C19.7533 21.999 18.4395 23.3128 16.8189 23.3128C15.1983 23.3128 13.8845 21.999 13.8845 20.3784C13.8845 18.7578 15.1983 17.444 16.8189 17.444C18.4395 17.444 19.7533 18.7578 19.7533 20.3784Z" stroke="#9747FF" stroke-width="1.62546"/>
<path d="M31.4906 29.1816C31.4906 30.8022 30.1769 32.116 28.5562 32.116C26.9356 32.116 25.6218 30.8022 25.6218 29.1816C25.6218 27.5609 26.9356 26.2472 28.5562 26.2472C30.1769 26.2472 31.4906 27.5609 31.4906 29.1816Z" stroke="#9747FF" stroke-width="1.62546"/>
<path d="M19.7532 20.3784H24.6438C26.4882 20.3784 27.4104 20.3784 27.9833 20.9513C28.5563 21.5243 28.5563 22.4465 28.5563 24.2909V26.2471" stroke="#9747FF" stroke-width="1.62546" stroke-linecap="round" stroke-linejoin="round"/>
<path d="M16.8186 23.3128V33.0941M16.8186 17.444V13.5315" stroke="#9747FF" stroke-width="1.62546" stroke-linecap="round" stroke-linejoin="round"/>
</svg>
